<svg xmlns="http://www.w3.org/2000/svg" height="20" viewBox="0 -960 960 960" width="20"><path d="M216-253.62q56-46 124-68.5t140-22.5q72 0 140 22t124 69V-744H216v490.38Zm264.24-151.3q52.07 0 87.91-36.09Q604-477.1 604-529.17q0-52.06-36.09-87.91-36.09-35.84-88.15-35.84-52.07 0-87.91 36.09Q356-580.75 356-528.68q0 52.06 36.09 87.91 36.09 35.85 88.15 35.85ZM184-184v-592h592v592H184Zm296-252.92q-37.69 0-64.85-27.16Q388-491.23 388-528.92q0-37.7 27.15-64.85 27.16-27.15 64.85-27.15t64.85 27.15Q572-566.62 572-528.92q0 37.69-27.15 64.84-27.16 27.16-64.85 27.16Zm0-107.39ZM221.15-216h517.7Q679-266.38 614.77-289.5 550.54-312.62 480-312.62q-69 0-132.73 23.12-63.73 23.12-126.12 73.5Z"/></svg>