<svg xmlns="http://www.w3.org/2000/svg" height="20" viewBox="0 -960 960 960" width="20"><path d="M671.77-136q-63.62 0-107.69-44.3Q520-224.61 520-288.23q0-63.62 44.3-107.69Q608.61-440 672.23-440q63.62 0 107.69 44.3Q824-351.39 824-287.77q0 63.62-44.3 107.69Q735.39-136 671.77-136Zm-191.8-1.54q-124.51-34.77-198.24-139.04Q208-380.85 208-515v-201.31l272-104.61 272 104.61v220.23q-19.77-6.84-38.5-11.38Q694.77-512 672-512q-93.85 0-158.92 65.08Q448-381.85 448-288q0 33.23 11.88 71.46 11.89 38.23 41.43 72.39-3.08 1.53-10.16 3.3-7.07 1.77-11.18 3.31ZM672-288q25 0 42.5-17.5T732-348q0-25-17.5-42.5T672-408q-25 0-42.5 17.5T612-348q0 25 17.5 42.5T672-288Zm-.09 120q32.86 0 59.47-15.62 26.62-15.61 43.39-41.61Q751-239 725.28-245.5q-25.72-6.5-53.5-6.5t-53.28 7q-25.5 7-49.27 19.77 16.77 26 43.3 41.61Q639.06-168 671.91-168Z"/></svg>