<svg xmlns="http://www.w3.org/2000/svg" height="20" viewBox="0 -960 960 960" width="20"><path d="M779.92-120.61 668.54-232h-60.23v-60.23L505.54-395v67.62H184v-389.93l-77.23-77.23 23.31-22.31 672.15 672.93-22.31 23.31ZM504.77-544.15 320.92-728h448.93v32H504.77v151.85Zm103.54-49.08h223.38v376L608.31-440.9v-152.33ZM719.86-480q8.6 0 14.83-6.18 6.23-6.19 6.23-15.1 0-7.82-6.22-14.19-6.22-6.38-15.03-6.38-8.9 0-14.75 6.37-5.84 6.36-5.84 14.39 0 9.1 6.03 15.09 6.03 6 14.75 6ZM136-232v-32h369.54v32H136Z"/></svg>