<svg xmlns="http://www.w3.org/2000/svg" height="20" viewBox="0 -960 960 960" width="20"><path d="M136-232v-496h695.69v47.38H525.46V-600v-15.38H348.77l-34 99.69q-27 26-42.12 61.01-15.11 35.01-15.11 74.73 0 39.71 15.11 74.68 15.12 34.96 42.12 60.96l5.38 12.31H136Zm276.31 0-21.69-63.54q-20.47-13.92-33.08-36.11-12.62-22.18-12.62-48.23 0-26.04 12.62-48.35 12.61-22.31 33.08-36.23L412.31-528h65.23l21.69 63.54q20.46 13.92 33.08 36.11 12.61 22.18 12.61 48.23 0 26.04-12.61 48.35-12.62 22.31-33.08 36.23L477.54-232h-65.23Zm32.61-95.38q22 0 37.31-15.35 15.31-15.35 15.31-37.27t-15.39-37.27q-15.38-15.35-37.23-15.35-21.84 0-37.23 15.31Q392.31-402 392.31-380t15.31 37.31q15.3 15.31 37.3 15.31ZM719.58-480q8.88 0 15.11-6.15 6.23-6.15 6.23-14.35 0-8.88-6.1-15.12-6.1-6.23-15.44-6.23-8.61 0-14.46 6.11-5.84 6.1-5.84 15.43 0 8.62 6.15 14.46 6.15 5.85 14.35 5.85ZM608.31-232v-361.23h223.38V-232H608.31Z"/></svg>