<svg xmlns="http://www.w3.org/2000/svg" height="20" viewBox="0 -960 960 960" width="20"><path d="M234.46-136H176v-32h58.46q32.85 0 59-19.04 26.16-19.04 44.54-38.04 30.15 23.08 66.08 39.31 35.92 16.23 74.38 16.23 38.46 0 74.39-16.23 35.92-16.23 66.07-39.31 19.16 19 44.54 38.04Q688.85-168 721.69-168H784v32h-62.31q-26.31 0-46.77-8.5-20.46-8.5-58.3-34.27-40.16 24.23-71.39 33.89-31.23 9.65-66.77 9.65-35.54 0-67.15-9.65-31.62-9.66-71.77-33.89Q302.69-154 281.23-145q-21.46 9-46.77 9Zm244.77-120.92q-9.31 0-24.19 5.11-14.89 5.12-71.81-55.42l-36-34-31 31q-26.92 30.77-45.5 41.65-18.58 10.89-40.42 15.5h-26l-42.77-241.23 75.23-25.23V-752h174.15v-72h136.62v72h174.15v232.46l75.23 25.23-42.77 241.23h-26q-21.84-4.61-40.42-15.5-18.58-10.88-45.5-41.65l-31-31-36 34q-56.92 60.54-71.81 55.42-14.88-5.11-24.19-5.11Zm-.77-32q20.69 0 36.92-10.39 16.24-10.38 31.62-25.54l68.31-61.23 32.15 39.46q15.62 19.93 32.85 37.85 17.23 17.92 42.46 27.46l38.15-192-282.46-87.61-281.69 87.61 38.15 192q25.23-9.54 42.46-27.46 17.24-17.92 32.85-37.85l32.15-39.46 68.31 61.23q15.39 14.39 31.62 25.16t36.15 10.77ZM267.23-529.31l211.23-64.84 211.23 64.84V-720H267.23v190.69Zm211.23 104.77Z"/></svg>