<svg xmlns="http://www.w3.org/2000/svg" height="20" viewBox="0 -960 960 960" width="20"><path d="M279.38-205.54V-208l50-50q-42.23-9-69.8-42.08Q232-333.15 232-375.38V-720q0-52.77 54.46-78.38Q340.92-824 480-824q134.5 0 191.25 26.75T728-720v344.62q0 42.23-27.58 75.3Q672.85-267 630.62-258l50 50v2.46H279.38ZM264-512h432v-178.46H264V-512Zm216.18 160.62q13.67 0 23.05-9.57 9.39-9.57 9.39-23.23 0-13.67-9.57-23.05-9.57-9.39-23.23-9.39-13.67 0-23.05 9.57-9.39 9.57-9.39 23.23 0 13.67 9.57 23.05 9.57 9.39 23.23 9.39Z"/></svg>