<svg xmlns="http://www.w3.org/2000/svg" height="20" viewBox="0 -960 960 960" width="20"><path d="M480-136q-98.77 0-159.38-22.65Q260-181.31 260-218.46q0-20.62 22.58-38.66 22.57-18.03 63.19-30.96l26.46 22.7q-22.69 7.3-47 20.19-24.31 12.88-34.77 26.96 1.85 17.85 60.08 34.04Q408.77-168 480-168q74.46 0 131.69-16.19 57.23-16.19 57.08-37.04-9.15-11.31-35.5-24.19-26.35-12.89-49.04-20.2l27.23-22.92q43.39 12.16 65.96 31.19Q700-238.31 700-218.46q0 37.15-60.62 59.81Q578.77-136 480-136Zm0-120q-113-85.69-168.5-169.65-55.5-83.97-55.5-162.2 0-57.53 20.15-101.5 20.16-43.96 52.77-73.73 32.62-29.77 72.31-45.34Q440.92-824 480-824t78.77 15.58q39.69 15.57 72.31 45.34 32.61 29.77 52.77 73.73Q704-645.38 704-587.85q0 78.23-55.5 162.2Q593-341.69 480-256Zm0-280.46q23.85 0 40.23-16 16.39-16 16.39-40.62 0-23.84-16.39-40.23-16.38-16.38-40.23-16.38-23.08 0-39.85 16.88-16.77 16.89-16.77 39.73 0 23.62 16.77 40.12 16.77 16.5 39.85 16.5Z"/></svg>