<svg xmlns="http://www.w3.org/2000/svg" height="20" viewBox="0 -960 960 960" width="20"><path d="M168-480q0 130.23 90.77 220.42 90.77 90.2 221.08 90.89 8.46 0 16.53-.39 8.08-.38 16.54-1.92-86.61-42.23-141.54-124.15-54.92-81.93-54.92-184.85 0-102.92 55.31-185.35Q427.08-747.77 513.69-790q-8.46-1.54-16.92-1.92-8.46-.39-16.92-.39-130.31.69-221.08 91.39Q168-610.23 168-480Zm312.41 344q-70.95 0-133.69-26.84-62.73-26.84-109.86-73.92t-73.99-109.72Q136-409.11 136-480.32q0-71.22 26.84-133.46 26.84-62.23 73.92-109.36t109.72-73.99Q409.11-824 480.32-824q71.22 0 133.46 26.84 62.23 26.84 109.36 73.92t73.99 109.48Q824-551.36 824-480.41q0 70.95-26.84 133.69-26.84 62.73-73.92 109.86t-109.48 73.99Q551.36-136 480.41-136Z"/></svg>