<svg xmlns="http://www.w3.org/2000/svg" height="20" viewBox="0 -960 960 960" width="20"><path d="m390.63-324.69 340.37-342q-14.85-20.69-32.12-37.58-17.26-16.88-38.19-31.73L352.15-428.23q4.77 27.46 15 53.92t23.48 49.62ZM731-297.08q30.09-41.15 46.28-91 16.18-49.84 15.03-107.07L506.92-208.77q12.62 7.85 28.77 15.69 16.14 7.85 29.85 12.16 51.69-15.4 93.31-45.38 41.61-29.97 72.15-70.78ZM168-480q0 130.23 90.77 220.42 90.77 90.2 221.08 90.89 8.46 0 16.53-.39 8.08-.38 16.54-1.92-86.61-42.23-141.54-124.15-54.92-81.93-54.92-184.85 0-102.92 55.31-185.35Q427.08-747.77 513.69-790q-8.46-1.54-16.92-1.92-8.46-.39-16.92-.39-130.31.69-221.08 91.39Q168-610.23 168-480Zm311.31 253.77 308-308.77q-4.77-27.46-14.62-53.42-9.84-25.96-23.23-49.89l-341.23 341q17.15 24 33.15 38.35 16 14.34 37.93 32.73Zm1.1 90.23q-70.95 0-133.69-26.84-62.73-26.84-109.86-73.92t-73.99-109.72Q136-409.11 136-480.32q0-71.22 26.84-133.46 26.84-62.23 73.92-109.36t109.72-73.99Q409.11-824 480.32-824q71.22 0 133.46 26.84 62.23 26.84 109.36 73.92t73.99 109.48Q824-551.36 824-480.41q0 70.95-26.84 133.69-26.84 62.73-73.92 109.86t-109.48 73.99Q551.36-136 480.41-136ZM348.15-469.31l284.16-283.15q-13.39-8.62-29.19-14.69-15.81-6.08-31.74-11.39-102.15 31.08-164.5 116.46-62.34 85.39-58.73 192.77Zm221.7-10.92Z"/></svg>