<svg xmlns="http://www.w3.org/2000/svg" height="20" viewBox="0 -960 960 960" width="20"><path d="M324-260h318.15L519.31-424.46q6.46.54 13.61 2.24 7.16 1.71 14 3.99L442.46-286.46l-52-60.62L324-260ZM184-136v-592h224v32H216v528h528v-235.62l32 32V-136H184Zm296-296Zm370.23 11.08L725.69-545.46q-19.23 13.77-36.78 19.61-17.55 5.85-39.84 5.85-54.15 0-91.61-37.08Q520-594.15 520-648t37.08-90.92Q594.15-776 648-776t90.92 37.03Q776-701.95 776-648.17q0 22.09-6.23 41.13Q763.54-588 749-568.77l124.54 124.54-23.31 23.31ZM647.77-552Q688-552 716-579.77q28-27.78 28-68Q744-688 716.23-716q-27.78-28-68-28Q608-744 580-716.23q-28 27.78-28 68Q552-608 579.77-580q27.78 28 68 28Z"/></svg>