<svg xmlns="http://www.w3.org/2000/svg" height="20" viewBox="0 -960 960 960" width="20"><path d="M88-227.38V-824h336.31v225.23h-76q-49.49 0-84.13 34.67-34.64 34.67-34.64 84.19 0 49.53 34.86 84.49 34.87 34.96 84.68 34.96h75.23v133.08H88ZM256.24-679q11.81 0 19.44-7.72 7.63-7.72 7.63-19.52 0-11.81-7.72-19.44-7.72-7.63-19.53-7.63-11.8 0-19.43 7.72-7.63 7.72-7.63 19.53 0 11.8 7.72 19.43 7.72 7.63 19.52 7.63Zm86.15 224.23q-10.62 0-18.04-7.18-7.43-7.19-7.43-17.81 0-10.62 7.19-18.05 7.18-7.42 17.81-7.42 10.62 0 18.04 7.18 7.42 7.19 7.42 17.81 0 10.62-7.18 18.05-7.19 7.42-17.81 7.42Zm137.85 0q-10.62 0-18.05-7.18-7.42-7.19-7.42-17.81 0-10.62 7.18-18.05 7.19-7.42 17.81-7.42 10.62 0 18.05 7.18 7.42 7.19 7.42 17.81 0 10.62-7.18 18.05-7.19 7.42-17.81 7.42ZM535.69-136v-224.46h75.23q49.49 0 84.13-34.67 34.64-34.67 34.64-84.19 0-49.53-34.64-84.49-34.64-34.96-84.13-34.96h-75.23v-133.85H872V-136H535.69Zm81.62-318.77q-10.62 0-18.04-7.18-7.42-7.19-7.42-17.81 0-10.62 7.18-18.05 7.19-7.42 17.81-7.42 10.62 0 18.04 7.18 7.43 7.19 7.43 17.81 0 10.62-7.19 18.05-7.18 7.42-17.81 7.42Zm86.63-132.85q11.8 0 19.43-7.71 7.63-7.72 7.63-19.53 0-11.8-7.72-19.43-7.72-7.63-19.52-7.63-11.81 0-19.44 7.72-7.63 7.71-7.63 19.52 0 11.81 7.72 19.44 7.72 7.62 19.53 7.62Z"/></svg>