<svg xmlns="http://www.w3.org/2000/svg" height="20" viewBox="0 -960 960 960" width="20"><path d="M480.13-136q-70.67 0-133.41-26.85-62.73-26.85-109.86-73.95t-73.99-109.8Q136-409.3 136-480q0-70.77 27.04-133.46 27.04-62.69 74.42-110.08l23.31 23.31q-42 42-67.39 98.76Q168-544.72 168-480q0 130 91 221t221 91q130 0 221-91t91-221q0-65-24.38-121.62-24.39-56.61-67.39-98.61l23.31-23.31q48.38 47.39 74.42 110.08T824-479.67q0 70.21-26.84 132.95-26.84 62.73-73.92 109.86t-109.26 73.99Q551.81-136 480.13-136ZM464-432v-392h32v392h-32Z"/></svg>