<svg xmlns="http://www.w3.org/2000/svg" height="20" viewBox="0 -960 960 960" width="20"><path d="m673.77-234.46 22 22.77q-38.08 30.61-84.27 48.38-46.19 17.77-94.73 25.31v-32q46.08-5.77 86.08-22t70.92-42.46ZM821.23-444q-3.69 46.46-21.61 93.04-17.93 46.58-50.54 88.27L724.77-287q27-34 44-74t22-83h30.46Zm-71.38-252.54Q784-650 798.96-610.85q14.96 39.16 22.27 94.85h-30.46q-6-43-22.5-83t-43.5-74l25.08-23.54ZM444.77-822v32q-118 16-197 104t-79 206q0 118 79 205.5t197 104.5v32q-132.08-16.23-220.04-112.69-87.96-96.46-87.96-229.31 0-132.08 87.96-229.42Q312.69-806.77 444.77-822Zm73.54 0q49.54 6.54 93.69 24.69 44.15 18.16 83.77 49l-22 24.31q-35-26-74.12-43.5-39.11-17.5-81.34-22.5v-32Zm-51.16 453.85q-6.38-17.39-18.07-36.04-11.7-18.66-24.54-38.96-12.85-20.31-22.23-40.97-9.39-20.65-9.39-40.8 0-37.54 24.77-62.31Q442.46-612 480-612q37.54 0 62.31 24.77 24.77 24.77 24.77 62.31 0 20.15-9.39 40.8-9.38 20.66-22.23 40.97-12.84 20.3-24.54 38.96-11.69 18.65-18.07 36.04h-25.7Zm12.85-128q12.31 0 20.54-8.23 8.23-8.24 8.23-20.54 0-12.31-8.23-20.54-8.23-8.23-20.54-8.23-12.31 0-20.54 8.23-8.23 8.23-8.23 20.54 0 12.3 8.23 20.54 8.23 8.23 20.54 8.23Z"/></svg>