<svg xmlns="http://www.w3.org/2000/svg" height="20" viewBox="0 -960 960 960" width="20"><path d="m136-232 196-248-196-248.77h438.92q13.01 0 24.62 5.19 11.61 5.2 20.31 16.12L800-480l-5.31 4.54q-18.54-4-37.02-5.12-18.48-1.11-37.67-1.11-102.62 0-174.46 72.12-71.85 72.11-71.85 174.95 0 .32-1.31 1.31-1.3 1-3.15 1.31H136ZM719.77-76.46q-66.69 0-112.69-46.23-46-46.22-46-112.92t46.22-112.7q46.23-46 112.93-46 66.69 0 112.69 46.23 46 46.22 46 112.92t-46.22 112.7q-46.23 46-112.93 46Zm-23.92-96.46 104.61-108.85-18.08-16.08-87.82 91.31-37.94-39-17.08 16.31 56.31 56.31Z"/></svg>