<svg xmlns="http://www.w3.org/2000/svg" height="20" viewBox="0 -960 960 960" width="20"><path d="M272-192.69v-261.46h62.23q13.46 0 27.81 2.11 14.34 2.12 26.81 7.12l199.84 70.38q27.85 10.54 46.93 31.96 19.07 21.43 19.07 52.04l-.19.35q-.19.34-2.73.34h-34.08q-26.38 0-53.81-2.92-27.42-2.92-53.03-11.54l-58.7-18.77-14.46 35.77 49.54 17q31.92 10.39 63.58 14.81 31.65 4.42 65.34 4.42h193.31q22.39 0 34.77 16.5 12.39 16.5 12.39 38.58l-271.77 92.31-312.85-89ZM136-136v-318.15h104V-136H136Zm424.62-393L454.08-635.54l21.54-22.54 85 85 187-187 22.53 22.54L560.62-529Z"/></svg>