<svg xmlns="http://www.w3.org/2000/svg" height="20" viewBox="0 -960 960 960" width="20"><path d="M559.85-529 453.31-635.54l21.54-22.54 85 85 187-187 22.53 22.54L559.85-529ZM296-221.85l288.62 93.31 236.53-72q-4.15-30.23-23.03-43.77-18.89-13.54-41.89-13.54H557.54q-15.46 0-37.08-2.5-21.61-2.5-42.23-10.03l-62.61-23.7 13.53-30.54 70 28.31q13.31 6.31 25.35 6.77 12.04.46 20.73-.31h92q0-17.69-5.38-26.23-5.39-8.54-19.23-14.07l-252.16-90.47q-2.31-.76-4.23-1.15-1.92-.38-4.23-.38h-56v200.3ZM136-136v-318.15h213.23q6.46 0 12.31 1.11 5.84 1.12 12.08 3.12l252.15 89.69q18.46 7.15 30.96 24.31 12.5 17.15 12.5 46.07h87q46.15 0 72.89 31.62 26.73 31.61 26.73 72.38v8.62L585.62-95.08 296-186.85V-136H136Zm32-32h96v-254.15h-96V-168Z"/></svg>