<svg xmlns="http://www.w3.org/2000/svg" height="20" viewBox="0 -960 960 960" width="20"><path d="M178.46-232q-20.19 0-31.33-11.13Q136-254.27 136-274.46v-276.31q0-19.61 11.13-31.04 11.14-11.42 31.33-11.42h138.29q19.79 0 31.21 11.42 11.42 11.43 11.42 31.04v276.31q0 20.19-11.42 31.33Q336.54-232 316.75-232H178.46Zm465.85-394.08q-58.39 0-110.43 20.43-52.03 20.42-92.5 55.03v-33.23q-10.76-48-42.07-72.38-31.31-24.39-82.39-24.39H178.23q-13.69 0-24 2.5T136-671.38v-8.47q0-20.16 13.99-34.16 14-13.99 34.16-13.99h614q27.62 0 42.12 14.5 14.5 14.5 14.5 42.12v123.84q-46.92-35.84-98.19-57.19-51.27-21.35-112.27-21.35Zm-153.85 482q-37.08-31.69-55.46-75.44-18.38-43.75-18.38-91.48 0-94.84 66.35-161.27 66.36-66.42 161.18-66.42 94.77 0 161.31 66.42Q872-405.84 872-311q0 51-22.65 97-22.66 46-61.97 77.92l-12.76-17.54q33.61-28.76 53.8-70 20.2-41.24 20.2-87.38 0-85.17-59.63-144.74-59.63-59.57-144.88-59.57-85.19 0-144.65 59.57Q440-396.17 440-311q0 43.38 16.31 83.62 16.31 40.23 49.69 67.76l-15.54 15.54Zm67.23-68q-21.77-19.23-33.42-44.98-11.65-25.76-11.65-53.94 0-54.85 38.33-93.27 38.34-38.42 93.2-38.42 54.77 0 93.31 38.42T776-311q0 31.77-14.04 58.88-14.04 27.12-37.81 46.58l-14.3-19.08q20.61-16.3 31.69-39.01 11.08-22.7 11.08-47.37 0-45.17-31.57-76.74-31.57-31.57-76.74-31.57-44.62 0-76.46 31.57Q536-356.17 536-311q0 24.4 10.08 45.85 10.07 21.46 27.92 36.77l-16.31 16.3Zm74.93 106.85v-171.69q-12-1.93-18-11.89t-6-22.19q0-14.83 10.26-25.26 10.26-10.43 25.28-10.43 14.76 0 25.3 10.43Q680-325.83 680-311q0 13.23-6.38 21.92-6.39 8.7-17.62 12.16v171.69h-23.38ZM247.55-480.77q7.6 0 13.83-6.03 6.24-6.04 6.24-14.75 0-7.6-6.23-13.83-6.22-6.24-14.03-6.24-8.9 0-14.74 6.23-5.85 6.22-5.85 14.03 0 8.9 6.03 14.74 6.04 5.85 14.75 5.85Z"/></svg>