<svg xmlns="http://www.w3.org/2000/svg" height="20" viewBox="0 -960 960 960" width="20"><path d="M479.38-550.62Zm-152 273.54v-271.07q0-5.39-3.84-9.23-3.85-3.85-9.23-3.85H181.08q-5.39 0-9.23 3.85-3.85 3.84-3.85 9.23v271.07q0 5.39 3.85 9.23 3.84 3.85 9.23 3.85h133.23q5.38 0 9.23-3.85 3.84-3.84 3.84-9.23ZM178.46-232q-20.19 0-31.33-11.13Q136-254.27 136-274.46v-276.31q0-20.19 11.13-31.33 11.14-11.13 31.33-11.13h138.46q20.2 0 31.33 11.13 11.13 11.14 11.13 31.33v276.31q0 20.19-11.13 31.33Q337.12-232 316.92-232H178.46Zm68.81-248q8.88 0 15.11-6.15 6.24-6.15 6.24-14.35 0-8.88-6.11-15.12-6.1-6.23-15.43-6.23-8.62 0-14.46 6.11-5.85 6.1-5.85 15.43 0 8.62 6.15 14.46 6.15 5.85 14.35 5.85Zm385.35 374.77v-171.69q-12-1.93-18-11.89t-6-22.19q0-14.99 10.26-25.34t24.79-10.35q15.25 0 25.79 10.35T680-311q0 13.23-6.38 21.92-6.39 8.7-17.62 12.16v171.69h-23.38Zm-74.93-106.85q-21.77-19.23-33.42-44.91-11.65-25.67-11.65-54.01 0-55.15 38.57-93.42t92.74-38.27q54.99 0 93.53 38.27T776-311q0 31.77-14.04 58.88-14.04 27.12-37.81 46.58l-14.3-19.08q20.61-16.3 31.69-38.83 11.08-22.52 11.08-47.55 0-45.49-31.35-76.9-31.34-31.41-76.74-31.41-44.84 0-76.68 31.41Q536-356.49 536-311q0 24.04 10.08 45.67 10.07 21.64 27.92 36.95l-16.31 16.3Zm-67.23 68q-37.08-31.69-55.46-75.69-18.38-43.99-18.38-91.23 0-94.84 66.38-161.27 66.38-66.42 160.72-66.42 95.2 0 161.74 66.42Q872-405.84 872-311q0 51-22.65 97-22.66 46-61.97 77.92l-12.76-17.54q33.61-28.76 53.8-70 20.2-41.24 20.2-87.38 0-85.17-59.63-144.74-59.63-59.57-145.33-59.57-84.68 0-144.17 59.39Q440-396.54 440-310.53q0 42.91 16.31 83.15 16.31 40.23 49.69 67.76l-15.54 15.54ZM136-696q6.15-17.62 17.96-24.81 11.81-7.19 32.5-7.19h611.69q27.62 0 42.12 14.5 14.5 14.5 14.5 42.12v122.84q-7.77-8.38-14.89-15.04-7.11-6.65-17.11-13.11v-94.69q0-9.24-7.69-16.93-7.7-7.69-16.93-7.69H136Zm111.69 283.38Z"/></svg>