<svg xmlns="http://www.w3.org/2000/svg" height="20" viewBox="0 -960 960 960" width="20"><path d="M262.13-232q-26.59 0-43.75-16.15-17.15-16.15-17.15-40.47v-331.53L88-728h627.33q26.36 0 43.52 16.16Q776-695.68 776-671.34v383.01Q776-264 758.7-248q-17.31 16-43.16 16H262.13Zm-86.28-464 57.38 60.46v346.92q0 9.24 8.85 16.93 8.84 7.69 19.61 7.69h453.85q10.77 0 19.61-7.69 8.85-7.69 8.85-16.93v-382.76q0-9.24-8.85-16.93-8.84-7.69-19.61-7.69H175.85Zm293 369 23.3-22.31-72.15-67h206.62v-32h-286L468.85-327ZM340.62-511.69h286L498.15-634l-23.3 23.31 73.15 67H340.62v32ZM459.92-480Z"/></svg>