<svg xmlns="http://www.w3.org/2000/svg" height="20" viewBox="0 -960 960 960" width="20"><path d="M240.62-327.38q-27.62 0-42.12-14.5Q184-356.38 184-384v-287.38q0-27.62 14.5-42.12Q213-728 240.62-728h478.76q20.7 0 32.5 7.19 11.81 7.19 17.97 24.81H635.38q-61.07 0-95.46 34.38-34.38 34.39-34.38 95.47v238.77H240.62ZM650.77-232q-20.19 0-31.33-11.13-11.13-11.14-11.13-31.33v-276.31q0-20.38 11.13-31.42 11.14-11.04 31.33-11.04h138.29q20.56 0 31.59 11.04 11.04 11.04 11.04 31.42v276.31q0 20.19-11.04 31.33Q809.62-232 789.06-232H650.77ZM136-232v-32h369.54v32H136Zm583.86-248q8.6 0 14.83-6.18 6.23-6.19 6.23-15.1 0-7.82-6.22-14.19-6.22-6.38-15.03-6.38-8.9 0-14.75 6.37-5.84 6.36-5.84 14.39 0 9.1 6.03 15.09 6.03 6 14.75 6Z"/></svg>