<svg xmlns="http://www.w3.org/2000/svg" height="20" viewBox="0 -960 960 960" width="20"><path d="M312.62-88q-23.36 0-39.99-16.63Q256-121.26 256-144.62v-670.76q0-27.62 14.5-42.12Q285-872 312.62-872h337.84q23.36 0 39.99 16.63 16.63 16.63 16.63 39.99v286.46H592.62l-15.7 110.84q-33.54 28.16-52.92 68.04-19.38 39.88-19.38 85.34 0 45.47 20.15 86.7 20.15 41.23 52.92 69.62L580.77-88H312.62Zm356.76 0-11-72.31q-30.07-14.84-48.23-43.15Q592-231.77 592-264.77t18.15-61.31q18.16-28.3 48.23-43.15l11-72.31h89.24l9 77.31q26.07 15.85 41.23 42.5Q824-295.07 824-264.92q0 30.15-15.15 56.46-15.16 26.31-41.23 42.15l-9 78.31h-89.24Zm38.42-92.77q35.2 0 59.7-24.3t24.5-59.5q0-35.2-24.3-59.7-24.31-24.5-59.5-24.5-35.2 0-59.7 24.3-24.5 24.31-24.5 59.5 0 35.2 24.3 59.7 24.31 24.5 59.5 24.5ZM481.38-707.69q11.31 0 19.12-7.65 7.81-7.65 7.81-18.97 0-11.31-7.65-19.11-7.65-7.81-18.96-7.81-11.32 0-19.12 7.65-7.81 7.65-7.81 18.96t7.65 19.12q7.65 7.81 18.96 7.81Z"/></svg>