<svg xmlns="http://www.w3.org/2000/svg" height="20" viewBox="0 -960 960 960" width="20"><path d="M288-120v-720V-120Zm193.33-587.69q11.36 0 19.17-7.6 7.81-7.6 7.81-18.96 0-11.37-7.6-19.17-7.6-7.81-18.96-7.81-11.37 0-19.17 7.6-7.81 7.59-7.81 18.96 0 11.36 7.6 19.17 7.59 7.81 18.96 7.81ZM580.77-88H312.62q-23.55 0-40.09-16.53Q256-121.07 256-144.62v-670.76q0-27.62 14.5-42.12Q285-872 312.62-872h337.84q23.55 0 40.08 16.53 16.54 16.54 16.54 40.09v286.46h-32v-286.46q0-10.77-6.93-17.7-6.92-6.92-17.69-6.92H312.62q-10.77 0-17.7 6.92-6.92 6.93-6.92 17.7v670.76q0 10.77 6.92 17.7 6.93 6.92 17.7 6.92h250.92q2.83 3.52 6.07 6.64 3.24 3.13 8.08 4.98L580.77-88Zm88.61 0-11-72.31q-30.07-14.84-48.23-43.15Q592-231.77 592-264.77t18.15-61.31q18.16-28.3 48.23-43.15l11-72.31h89.24l9 77.31q26.07 15.85 41.23 42.5Q824-295.07 824-264.92q0 30.15-15.15 56.46-15.16 26.31-41.23 42.15l-9 78.31h-89.24Zm38.42-92.77q35.2 0 59.7-24.3t24.5-59.5q0-35.2-24.3-59.7-24.31-24.5-59.5-24.5-35.2 0-59.7 24.3-24.5 24.31-24.5 59.5 0 35.2 24.3 59.7 24.31 24.5 59.5 24.5Z"/></svg>