<svg xmlns="http://www.w3.org/2000/svg" height="20" viewBox="0 -960 960 960" width="20"><path d="M192.62-232q-27.62 0-42.12-14.5Q136-261 136-288.62v-382.76q0-27.62 14.5-42.12Q165-728 192.62-728h582.46q22.3 0 38.69 15.23 16.38 15.23 17.92 37.54v-.77q-9.69-2.69-20.09-3.65-10.41-.97-22.11-.97H650.77q-46.92 0-78.65 20.5-31.74 20.5-46.66 60.12v-15.38H348.77l-34 99.69q-27 26-42.12 60.78-15.11 34.78-15.11 74.96 0 40.18 15.11 74.91 15.12 34.73 42.12 60.73l5.38 12.31H192.62Zm458.15 0q-20.19 0-31.33-11.13-11.13-11.14-11.13-31.33v-276.31q0-20.19 11.13-31.33 11.14-11.13 31.33-11.13h138.46q20.19 0 31.33 11.13 11.13 11.14 11.13 31.33v276.31q0 20.19-11.13 31.33Q809.42-232 789.23-232H650.77Zm-238.46 0-21.69-63.54q-20.47-13.92-33.08-36.27-12.62-22.34-12.62-48.23 0-25.88 12.62-48.19 12.61-22.31 33.08-36.23L412.31-528h65.23l21.69 63.54q20.46 13.92 33.08 36.27 12.61 22.34 12.61 48.23 0 25.88-12.61 48.19-12.62 22.31-33.08 36.23L477.54-232h-65.23Zm32.61-95.38q22 0 37.31-15.35 15.31-15.35 15.31-37.27t-15.39-37.27q-15.38-15.35-37.23-15.35-21.84 0-37.23 15.31Q392.31-402 392.31-380t15.31 37.31q15.3 15.31 37.3 15.31ZM719.86-480q8.6 0 14.83-6.03 6.23-6.04 6.23-14.75 0-8.6-6.22-14.84-6.22-6.23-15.03-6.23-8.9 0-14.75 6.23-5.84 6.22-5.84 15.03 0 8.9 6.03 14.74 6.03 5.85 14.75 5.85Z"/></svg>