<svg xmlns="http://www.w3.org/2000/svg" height="20" viewBox="0 -960 960 960" width="20"><path d="M808.62-203.69 701.54-310.77H360q-22.08 0-37.81-15.73-15.73-15.72-15.73-37.81v-17.23h374.77q23.35 0 39.99-16.63 16.63-16.63 16.63-39.98V-672h17.23q22.08 0 37.81 15.73 15.73 15.72 15.73 37.81v414.77ZM183.38-424.31l61.24-61.23h364.61q10.77 0 17.69-6.92 6.93-6.92 6.93-17.69v-257.23q0-10.77-6.93-17.7Q620-792 609.23-792H208q-10.77 0-17.69 6.92-6.93 6.93-6.93 17.7v343.07Zm-32 77.85v-420.92q0-23.36 16.64-39.99Q184.65-824 208-824h401.23q23.35 0 39.99 16.63 16.63 16.63 16.63 39.99v257.23q0 23.35-16.63 39.98-16.64 16.63-39.99 16.63H258.46L151.38-346.46Zm32-163.69V-792v281.85Z"/></svg>