<svg xmlns="http://www.w3.org/2000/svg" height="20" viewBox="0 -960 960 960" width="20"><path d="m681.31-326.08-22.54-22.54L760-480 600.86-686.77q-3.84-4.61-8.84-6.92-5-2.31-11.16-2.31H316.1L284-728h296.95q13.28 0 25.2 5.58 11.93 5.57 20.62 16.5L800-480 681.31-326.08ZM192.62-264H594L168-691v402.38q0 10.77 6.92 17.7 6.93 6.92 17.7 6.92ZM802-56 615.85-242.15q-2.62 4.07-8.31 7.11T597.08-232H192.62q-23.55 0-40.09-16.53Q136-265.07 136-288.62v-382.76q0-10.09 4.23-19.43t10.92-17.04L56-803l23.31-23.31 746 747L802-56ZM538-522.31ZM381-477Z"/></svg>