<svg xmlns="http://www.w3.org/2000/svg" height="20" viewBox="0 -960 960 960" width="20"><path d="M704.62-255.38q25 0 42.5-17.5t17.5-42.5q0-25-17.5-42.5t-42.5-17.5q-25 0-42.5 17.5t-17.5 42.5q0 25 17.5 42.5t42.5 17.5Zm0 120q32 0 59-16t43-42q-23-13-48.5-19.5t-53.5-6.5q-28 0-53.5 7t-48.5 19q16 26 43 42t59 16ZM360-584h240v-96q0-50-35-85t-85-35q-50 0-85 35t-35 85v96Zm155.92 448h-227.3q-24.32 0-40.47-16.15T232-192.62v-334.76q0-24.32 16.15-40.47T288.62-584H328v-96q0-63.53 44.3-107.76Q416.61-832 480.23-832q63.62 0 107.69 44.24Q632-743.53 632-680v96h39.38q24.32 0 40.47 16.15T728-527.38V-479q-7.05.08-16.3.12-9.24.03-15.7 2.03v-50.53q0-10.77-6.92-17.7-6.93-6.92-17.7-6.92H288.62q-10.77 0-17.7 6.92-6.92 6.93-6.92 17.7v334.76q0 10.77 6.92 17.7 6.93 6.92 17.7 6.92h211.23q1.38 7.69 6.3 17.62 4.93 9.92 9.77 14.38Zm188.47 32.62q-63.62 0-107.7-44.31-44.07-44.3-44.07-107.92 0-63.62 44.3-107.7 44.3-44.07 107.92-44.07 63.62 0 107.7 44.3 44.08 44.3 44.08 107.92 0 63.62-44.31 107.7-44.3 44.08-107.92 44.08ZM264-321.23V-168v-384V-321.23Z"/></svg>