<svg xmlns="http://www.w3.org/2000/svg" height="20" viewBox="0 -960 960 960" width="20"><path d="M192.62-232q-24.32 0-40.47-16.16T136-288.66v-383.01Q136-696 152.15-712t40.47-16h574.76q24.32 0 40.47 16.16t16.15 40.5v383.01Q824-264 807.85-248t-40.47 16H192.62ZM168-327.38v38.76q0 9.24 7.69 16.93 7.69 7.69 16.93 7.69h574.76q9.24 0 16.93-7.69 7.69-7.69 7.69-16.93v-38.76H168Zm0 0V-264-327.38Zm0-32h624v-312q0-10.77-6.92-17.7-6.93-6.92-17.7-6.92H192.62q-10.77 0-17.7 6.92-6.92 6.93-6.92 17.7v312ZM584-420h32v-91.69h91.69v-32H616v-91.69h-32v91.69h-91.69v32H584V-420Z"/></svg>