<svg xmlns="http://www.w3.org/2000/svg" height="20" viewBox="0 -960 960 960" width="20"><path d="M816.85-99.85 83.69-833 107-855.31l732.15 732.16-22.3 23.3ZM481.59-707.69q11.1 0 18.91-7.86 7.81-7.87 7.81-18.97 0-11.1-7.86-18.9-7.87-7.81-18.97-7.81-11.1 0-18.9 7.86-7.81 7.86-7.81 18.96 0 11.1 7.86 18.91 7.86 7.81 18.96 7.81ZM312.62-88q-23.66 0-40.14-16.48T256-144.62v-561.69l448 448v113.69q0 25.66-17.98 41.14T647.38-88H312.62ZM704-362.38 252.15-813.46v-10q1.23-19.31 16.37-33.92Q283.66-872 305.69-872h341.69q23.66 0 40.14 16.48T704-815.38v148.61q16.92-5.38 30.92 4.39 14 9.76 14 25.92v86.77q0 16.15-14 25.92-14 9.77-30.92 4.39v157Z"/></svg>