<svg xmlns="http://www.w3.org/2000/svg" height="20" viewBox="0 -960 960 960" width="20"><path d="M816.85-99.85 83.69-833 107-855.31l732.15 732.16-22.3 23.3ZM704-362.38l-32-32v-421q0-10.77-6.92-17.7-6.93-6.92-17.7-6.92H256q6.15-13.62 19.58-22.81Q289-872 305.69-872h341.69q23.36 0 39.99 16.63Q704-838.74 704-815.38v148.61q16.92-5.38 30.92 4.39 14 9.76 14 25.92v86.77q0 16.15-14 25.92-14 9.77-30.92 4.39v157ZM481.38-707.69q11.31 0 19.12-7.65 7.81-7.65 7.81-18.97 0-11.31-7.65-19.11-7.65-7.81-18.96-7.81-11.32 0-19.12 7.65-7.81 7.65-7.81 18.96t7.65 19.12q7.65 7.81 18.96 7.81ZM312.62-88q-23.36 0-39.99-16.63Q256-121.26 256-144.62v-561.69l32 32v529.69q0 10.77 6.92 17.7 6.93 6.92 17.7 6.92h335.53q10.77 0 17.31-6.92 6.54-6.93 6.54-17.7v-145.69l32 32v113.69q0 25.66-17.98 41.14T647.38-88H312.62Zm127.76-309.54Zm103.16-133.54Z"/></svg>