<svg xmlns="http://www.w3.org/2000/svg" height="20" viewBox="0 -960 960 960" width="20"><path d="M378.92-232q-13.19 0-25-5.66-11.8-5.66-20.69-16.42L160-480l173.23-225.92q8.89-10.76 20.69-16.42 11.81-5.66 25-5.66h388.46q23.36 0 39.99 16.64Q824-694.71 824-671.34v383.01q0 23.37-16.63 39.85T767.38-232H378.92Zm60.25-221.23q10.6 0 18.79-7.98t8.19-18.58q0-10.59-7.98-18.79-7.98-8.19-18.57-8.19-10.6 0-18.79 7.98t-8.19 18.58q0 10.59 7.98 18.79 7.98 8.19 18.57 8.19Zm120 0q10.6 0 18.79-7.98t8.19-18.58q0-10.59-7.98-18.79-7.98-8.19-18.57-8.19-10.6 0-18.79 7.98t-8.19 18.58q0 10.59 7.98 18.79 7.98 8.19 18.57 8.19Zm120 0q10.6 0 18.79-7.98t8.19-18.58q0-10.59-7.98-18.79-7.98-8.19-18.57-8.19-10.6 0-18.79 7.98t-8.19 18.58q0 10.59 7.98 18.79 7.98 8.19 18.57 8.19Z"/></svg>