<svg xmlns="http://www.w3.org/2000/svg" height="20" viewBox="0 -960 960 960" width="20"><path d="M442.77-232v-32h138.31q6.15 0 11.15-2.31t8.85-6.92L760-480 601.08-686.77q-3.85-4.61-8.85-6.92-5-2.31-11.15-2.31H192.62q-10.77 0-17.7 6.92-6.92 6.93-6.92 17.7v152h-32v-152.39q0-23.16 16.63-39.7Q169.26-728 192.62-728h388.46q13.19 0 25 5.66 11.8 5.66 20.69 16.42L800-480 626.77-254.08q-8.89 10.76-20.69 16.42-11.81 5.66-25 5.66H442.77Zm21.61-248Zm-237 272v-96h-96v-32h96v-96h32v96h96v32h-96v96h-32Z"/></svg>