<svg xmlns="http://www.w3.org/2000/svg" height="20" viewBox="0 -960 960 960" width="20"><path d="M120-259.38V-792v532.62ZM840-168v-532.62V-168ZM342.39-454.77q-10.62 0-18.04-7.18-7.43-7.19-7.43-17.81 0-10.62 7.19-18.05 7.18-7.42 17.81-7.42 10.62 0 18.04 7.18 7.42 7.19 7.42 17.81 0 10.62-7.18 18.05-7.19 7.42-17.81 7.42Zm137.85 0q-10.62 0-18.05-7.18-7.42-7.19-7.42-17.81 0-10.62 7.18-18.05 7.19-7.42 17.81-7.42 10.62 0 18.05 7.18 7.42 7.19 7.42 17.81 0 10.62-7.18 18.05-7.19 7.42-17.81 7.42Zm137.07 0q-10.62 0-18.04-7.18-7.42-7.19-7.42-17.81 0-10.62 7.18-18.05 7.19-7.42 17.81-7.42 10.62 0 18.04 7.18 7.43 7.19 7.43 17.81 0 10.62-7.19 18.05-7.18 7.42-17.81 7.42Zm-25 318.77q-23.36 0-39.99-16.63-16.63-16.63-16.63-39.99v-167.84h32v167.84q0 10.77 6.93 17.7 6.92 6.92 17.69 6.92h223.07q10.77 0 17.7-6.92 6.92-6.93 6.92-17.7V-676q0-10.77-6.92-17.69-6.93-6.93-17.7-6.93H592.31q-10.77 0-17.69 6.93-6.93 6.92-6.93 17.69v77.23h-32V-676q0-23.35 16.63-39.98 16.63-16.64 39.99-16.64h223.07q23.36 0 39.99 16.64Q872-699.35 872-676v483.38q0 23.36-16.63 39.99Q838.74-136 815.38-136H592.31Zm-447.69-91.38q-23.36 0-39.99-16.64Q88-260.65 88-284v-483.38q0-23.36 16.63-39.99Q121.26-824 144.62-824h223.07q23.36 0 39.99 16.63 16.63 16.63 16.63 39.99v168.61h-32v-168.61q0-10.77-6.93-17.7-6.92-6.92-17.69-6.92H144.62q-10.77 0-17.7 6.92-6.92 6.93-6.92 17.7V-284q0 10.77 6.92 17.69 6.93 6.93 17.7 6.93h223.07q10.77 0 17.69-6.93 6.93-6.92 6.93-17.69v-76.46h32V-284q0 23.35-16.63 39.98-16.63 16.64-39.99 16.64H144.62Zm559.32-360.24q11.8 0 19.43-7.71 7.63-7.72 7.63-19.53 0-11.8-7.72-19.43-7.72-7.63-19.52-7.63-11.81 0-19.44 7.72-7.63 7.71-7.63 19.52 0 11.81 7.72 19.44 7.72 7.62 19.53 7.62ZM256.24-679q11.81 0 19.44-7.72 7.63-7.72 7.63-19.52 0-11.81-7.72-19.44-7.72-7.63-19.53-7.63-11.8 0-19.43 7.72-7.63 7.72-7.63 19.53 0 11.8 7.72 19.43 7.72 7.63 19.52 7.63Z"/></svg>