<svg xmlns="http://www.w3.org/2000/svg" height="20" viewBox="0 -960 960 960" width="20"><path d="M751.15-237.54h-25.61q3.92 12.46-5.77 24.19t-21.39 13.2l-444.15 61.84q-22.85 2.46-41.48-11.99-18.64-14.45-21.83-36.93l-54.15-380.54q-3.23-23.74 11.31-43.06 14.54-19.32 38.38-21.79l51.08-3.92v33.18l-44.92 3.51q-10.77.77-16.93 8.85-6.15 8.08-4.61 18.85l50.84 379.53q1.54 10.77 9.23 16.93 7.7 6.15 18.47 4.61l501.53-66.46Zm-385-72q-27.61 0-42.11-14.5t-14.5-42.11v-401.23q0-27.62 14.5-42.12 14.5-14.5 42.11-14.5h401.23q27.62 0 42.12 14.5Q824-795 824-767.38v401.23q0 27.61-14.5 42.11t-42.12 14.5H366.15Zm0-32h401.23q10.77 0 17.7-6.92 6.92-6.92 6.92-17.69v-401.23q0-10.77-6.92-17.7-6.93-6.92-17.7-6.92H366.15q-10.77 0-17.69 6.92-6.92 6.93-6.92 17.7v401.23q0 10.77 6.92 17.69 6.92 6.92 17.69 6.92Zm200.62-225.23ZM223-168Zm337.85-236.92q55.48 0 94.24-38t43.76-94q-56 0-96 38.5t-42 93.5Zm-2 0q-4-56-43.98-94t-96.02-38q4 56 44 94t96 38Zm1-125q14 0 24.5-10.12t10.5-25.08v-8.8l7.6 5.2q11.4 7.8 25.9 4.3 14.5-3.5 22.5-17.5 7-11 3-25t-15.97-22.82l-7.03-5.03 8-4.95q12-7.91 15.88-21.17 3.89-13.26-3.94-26.58-7.17-12.68-20.79-17.45t-27.15 3.8l-8 5.2v-10q0-14-10.5-24.5t-25-10.5q-14.5 0-24.5 10.5t-10 24.5v10l-8.4-5.2q-14.14-8.57-27.26-3.8-13.11 4.77-20.34 16-8.77 13.77-4.89 27.53 3.89 13.76 17.11 21.94l7.78 4.68-8.15 3.94q-13.85 6.91-17.35 20.91-3.5 14 4.5 27 8 14 22 17.5t26-4.3l8-5.2v10q0 14.87 10.35 24.93 10.35 10.07 25.65 10.07Zm-.5-70q-14.5 0-24.5-10.07-10-10.06-10-24.93 0-14 10.06-24.5t24.94-10.5q14 0 24.5 10.5t10.5 25q0 14.5-10.5 24.5t-25 10Z"/></svg>