<svg xmlns="http://www.w3.org/2000/svg" height="20" viewBox="0 -960 960 960" width="20"><path d="M560.85-404.92q55 0 94-38t44-94q-56 0-96 38.5t-42 93.5Zm-2 0q-4-56-44-94t-96-38q4 56 44 94t96 38Zm1-125q14 0 24.5-10t10.5-25v-9l8 5q11 8 25.5 4.5t22.5-17.5q7-11 3-25t-16-22.91l-7-4.94 8-4.95q12-7.91 15.88-21.17 3.89-13.26-3.88-27.03-7.23-12.23-20.85-17-13.62-4.77-27.15 4l-8 5v-10q0-14-10.5-24.5t-24.5-10.5q-15 0-25 10.5t-10 24.5v10l-8-5q-14.54-8.77-27.66-4-13.11 4.77-20.34 16-8.77 13.77-4.89 27.53 3.89 13.76 16.89 21.67l8 4.95-8 3.94q-14 6.91-17.5 20.91t4.5 27q8 14 22 17.5t26-4.5l8-5v10q0 15 10.5 25t25.5 10Zm0-70q-15 0-25-10t-10-25q0-14 10-24.5t25-10.5q14 0 24.5 10.5t10.5 24.5q0 15-10.5 25t-24.5 10ZM254.23-138.31q-22.85 2.46-41.48-11.99-18.64-14.45-21.83-36.93l-54.15-380.54q-3.23-23.85 11.31-43.11 14.54-19.27 38.38-21.74l51.08-3.92v270.39q0 53.65 38.48 91.13t92.13 37.48h357.39q3.15 14-6.27 24.58-9.42 10.58-20.89 12.81l-444.15 61.84Zm111.92-171.23q-27.61 0-42.11-14.5t-14.5-42.11v-401.23q0-27.62 14.5-42.12 14.5-14.5 42.11-14.5h401.23q27.62 0 42.12 14.5Q824-795 824-767.38v401.23q0 27.61-14.5 42.11t-42.12 14.5H366.15Z"/></svg>