<svg xmlns="http://www.w3.org/2000/svg" height="20" viewBox="0 -960 960 960" width="20"><path d="M632.43-136q-39.81 0-67.51-27.82-27.69-27.82-27.69-67.56 0-9 6.31-31.31L299.62-414.62q-12.93 14-30.77 22t-38.23 8q-39.43 0-67.02-28.07Q136-440.77 136-480q0-39.23 27.6-67.31 27.59-28.07 67.02-28.07 20.48 0 38.28 8 17.79 8 30.72 22l243.92-151.16q-2.77-7.77-4.54-15.73-1.77-7.96-1.77-16.35 0-39.74 27.87-67.56Q592.98-824 632.8-824q39.82 0 67.51 27.87Q728-768.25 728-728.43q0 39.81-27.82 67.51-27.82 27.69-67.56 27.69-20.7 0-38-8.39Q577.31-650 564.38-664L320.46-512.08q2.77 7.77 4.54 15.74 1.77 7.96 1.77 16.34 0 8.38-1.77 16.34-1.77 7.97-4.54 15.74L564.38-296q12.93-14 30.28-22.38 17.35-8.39 37.96-8.39 39.74 0 67.56 27.87Q728-271.02 728-231.2q0 39.82-27.87 67.51Q672.25-136 632.43-136Zm.19-32q26.93 0 45.16-18.22Q696-204.45 696-231.38q0-26.94-18.22-45.17-18.23-18.22-45.16-18.22-26.94 0-45.17 18.22-18.22 18.23-18.22 45.17 0 26.93 18.22 45.16Q605.68-168 632.62-168Zm-402-248.62q27.26 0 45.7-18.22 18.45-18.22 18.45-45.16 0-26.94-18.45-45.16-18.44-18.22-45.7-18.22-26.62 0-44.62 18.22-18 18.22-18 45.16 0 26.94 18 45.16 18 18.22 44.62 18.22Zm402-248.61q26.93 0 45.16-18.22Q696-701.68 696-728.62q0-26.93-18.22-45.16Q659.55-792 632.62-792q-26.94 0-45.17 18.22-18.22 18.23-18.22 45.16 0 26.94 18.22 45.17 18.23 18.22 45.17 18.22Zm0 433.85ZM231.38-480Zm401.24-248.62Z"/></svg>