<svg xmlns="http://www.w3.org/2000/svg" height="20" viewBox="0 -960 960 960" width="20"><path d="M632.62-168q26.93 0 45.16-18.22Q696-204.45 696-231.38q0-26.94-18.22-45.17-18.23-18.22-45.16-18.22-26.94 0-45.17 18.22-18.22 18.23-18.22 45.17 0 26.93 18.22 45.16Q605.68-168 632.62-168Zm0-497.23q26.93 0 45.16-18.22Q696-701.68 696-728.62q0-26.93-18.22-45.16Q659.55-792 632.62-792q-26.94 0-45.17 18.22-18.22 18.23-18.22 45.16 0 26.94 18.22 45.17 18.23 18.22 45.17 18.22ZM137-464.31q-1-5-1-7.84V-480q0-39.23 27.6-67.31 27.59-28.07 67.02-28.07 20.39 0 38.23 8 17.84 8 30.77 22l243.92-151.16q-2.77-7.77-4.54-15.73-1.77-7.96-1.77-16.35 0-39.74 27.87-67.56Q592.98-824 632.8-824q39.82 0 67.51 27.87Q728-768.25 728-728.43q0 39.81-27.82 67.51-27.82 27.69-67.56 27.69-20.7 0-38-8.39Q577.31-650 564.38-664L289-492.69q-8.38-1.86-16.78-1.97-8.41-.11-17.03-.11-32.11 0-61.96 7.92-29.85 7.93-56.23 22.54ZM632.43-136q-39.81 0-67.51-27.82-27.69-27.82-27.69-67.56 0-9 6.31-31.31l-51.31-31.08q-2-17.23-7.37-32.9-5.37-15.66-13.63-28.56L564.38-296q12.93-14 30.28-22.38 17.35-8.39 37.96-8.39 39.74 0 67.56 27.87Q728-271.02 728-231.2q0 39.82-27.87 67.51Q672.25-136 632.43-136Zm-377.27 32.62q-63.62 0-107.7-44.31-44.08-44.3-44.08-107.92 0-63.62 44.31-107.7 44.3-44.07 107.92-44.07 63.62 0 107.7 44.3 44.07 44.3 44.07 107.92 0 63.62-44.3 107.7-44.3 44.08-107.92 44.08Zm-.78-130.16 56 55.23 22.08-22.84-55.23-55.23 55.23-55.24-22.84-22.84-55.24 55.23-55.23-55.23-22.84 22.84 55.23 55.24-55.23 55.23 22.84 22.84 55.23-55.23Zm378.24 2.16Zm0-497.24Z"/></svg>