<svg xmlns="http://www.w3.org/2000/svg" height="20" viewBox="0 -960 960 960" width="20"><path d="M379.6-875.23q82.55 0 140.21 57.75 57.65 57.75 57.65 140.25 0 24.59-5.31 47.32t-16.07 42.29l-20.46-9.69q9.31-18.24 14.38-38.45 5.08-20.21 5.08-41.47 0-72.76-50.92-123.69-50.92-50.93-123.65-50.93-72.74 0-123.7 50.93-50.96 50.93-50.96 123.69 0 23.46 6 44.69 6 21.23 16.23 40.46l-20.46 12.46q-11.7-21.92-18.43-46.6-6.73-24.69-6.73-51.39 0-82.31 57.5-139.97 57.5-57.65 139.64-57.65Zm.97 90.61q43.89 0 75.58 31.71 31.7 31.71 31.7 75.39 0 13.53-2.85 25.41t-8.31 22.8L455.46-639q5-8.83 7-18.13 2-9.31 2-20.58 0-34.46-24.53-58.99t-58.98-24.53q-34.72 0-59.6 24.67-24.89 24.68-24.89 59.33 0 12 3 22.23t8 19L287-624.31q-6.46-11.92-10.19-25.49-3.73-13.57-3.73-27.54 0-43.69 31.42-75.48 31.42-31.8 76.07-31.8ZM491.69-136q-28.61 0-54.61-11.54t-44.31-33.38L194.23-417.77l20.54-20.54q5-5 11.77-8.46 6.77-3.46 15.23-3.15l121.92 44.61v-295.92q0-6.8 4.55-11.4 4.55-4.6 11.27-4.6t11.07 4.6q4.34 4.6 4.34 11.4v218.77h258.16q30.38 0 52.65 20.27T728-411.54v151.49q0 52.36-36.35 88.2Q655.3-136 603.23-136H491.69Z"/></svg>