<svg xmlns="http://www.w3.org/2000/svg" height="20" viewBox="0 -960 960 960" width="20"><path d="M480-480ZM240.62-184q-24.32 0-40.47-16.15T184-240.62v-478.76q0-24.32 16.15-40.47T240.62-776h256q6.8 0 11.4 4.55 4.6 4.54 4.6 11.27 0 6.72-4.6 11.45-4.6 4.73-11.4 4.73h-256q-10.77 0-17.7 6.92-6.92 6.93-6.92 17.7v478.76q0 10.77 6.92 17.7 6.93 6.92 17.7 6.92h478.76q10.77 0 17.7-6.92 6.92-6.93 6.92-17.7v-256q0-6.8 4.55-11.4 4.54-4.6 11.27-4.6 6.72 0 11.45 4.6 4.73 4.6 4.73 11.4v256q0 24.32-16.15 40.47T719.38-184H240.62Zm54.15-128.62h370.46L542-476.92 434-341.38l-62-72.16-77.23 100.92ZM672.23-672h-56.11q-6.85 0-11.49-4.61-4.63-4.61-4.63-11.42t4.63-11.39q4.64-4.58 11.49-4.58h56.11v-56q0-6.8 4.64-11.4 4.65-4.6 11.37-4.6 6.72 0 11.24 4.6Q704-766.8 704-760v56h55.79q6.71 0 11.46 4.55 4.75 4.54 4.75 11.27 0 6.72-4.6 11.33-4.6 4.62-11.4 4.62h-56v56.11q0 6.85-4.61 11.49-4.61 4.63-11.42 4.63-6.51 0-11.12-4.6-4.62-4.6-4.62-11.4v-56Z"/></svg>