<svg xmlns="http://www.w3.org/2000/svg" height="20" viewBox="0 -960 960 960" width="20"><path d="M240.62-184q-24.32 0-40.47-16.15T184-240.62v-478.76q0-24.32 16.15-40.47T240.62-776h264.3q10.87 0 17.13 9.46t1.33 18.99q-5 13.78-7.88 29.03-2.88 15.25-2.88 30.8 0 72.67 51.21 123.89 51.22 51.21 123.89 51.21 15.55 0 30.8-2.88t29.47-7.47q10.86-4.11 19.43 1.93Q776-515 776-504.92v264.3q0 24.32-16.15 40.47T719.38-184H240.62Zm54.15-128.62h370.46L542-476.92 434-341.38l-62-72.16-77.23 100.92ZM688.18-600q-6.72 0-11.33-4.6-4.62-4.6-4.62-11.4v-56h-56.11q-6.85 0-11.49-4.61-4.63-4.61-4.63-11.42t4.63-11.39q4.64-4.58 11.49-4.58h56.11v-56q0-6.8 4.64-11.4 4.65-4.6 11.37-4.6 6.72 0 11.24 4.6Q704-766.8 704-760v56h55.79q6.71 0 11.46 4.55 4.75 4.54 4.75 11.27 0 6.72-4.6 11.3-4.6 4.58-11.4 4.58h-56v56q0 6.8-4.55 11.55-4.54 4.75-11.27 4.75Z"/></svg>