<svg xmlns="http://www.w3.org/2000/svg" height="20" viewBox="0 -960 960 960" width="20"><path d="M479.75-817.46q5.41 0 10.91 1.5 5.49 1.5 9.96 2.73l215.38 82q16.58 6.41 26.29 21.03 9.71 14.62 9.71 32.89v162.54q0 6.8-4.55 11.4-4.54 4.6-11.27 4.6-6.72 0-11.45-4.6-4.73-4.6-4.73-11.4v-164.08q0-7.69-4.23-13.84-4.23-6.16-11.92-9.23l-215.39-82q-3.84-1.54-8.46-1.54-4.62 0-8.46 1.54l-215.39 82q-7.69 3.07-11.92 9.23-4.23 6.15-4.23 13.84V-515q0 59.69 16.81 113.42 16.81 53.73 48.04 97.62 31.23 43.88 73.19 77.46 41.96 33.58 93.04 53.73 5.93 2.33 8.81 8.05 2.88 5.72 1.07 12.65-1.27 6.45-7.46 9.38-6.19 2.92-12.5 1.54-114.23-40.54-183.62-147Q208-394.62 208-515v-162.31q0-18.27 9.71-32.89 9.71-14.62 26.29-21.03l215.38-82q5.66-1.54 10.31-2.89 4.66-1.34 10.06-1.34ZM671.77-136q-63.62 0-107.69-44.3Q520-224.61 520-288.23q0-63.62 44.3-107.69Q608.61-440 672.23-440q63.62 0 107.69 44.3Q824-351.39 824-287.77q0 63.62-44.3 107.69Q735.39-136 671.77-136ZM480-478.69ZM672-288q25 0 42.5-17.5T732-348q0-25-17.5-42.5T672-408q-25 0-42.5 17.5T612-348q0 25 17.5 42.5T672-288Zm0 120q26.77 0 52.81-11.88 26.04-11.89 43.04-33.43 4.23-4.23 1.84-10.19-2.38-5.96-7.07-8.19-20.72-10.54-43.58-15.43-22.85-4.88-47.22-4.88-24.36 0-47.04 4.88-22.68 4.89-43.4 15.43-4.69 2.23-7.07 8.19-2.39 5.96 1.84 10.19 17 21.54 43.04 33.43Q645.23-168 672-168Z"/></svg>