<svg xmlns="http://www.w3.org/2000/svg" height="20" viewBox="0 -960 960 960" width="20"><path d="M194.15-232q-18.25 0-26.01-16.15-7.76-16.16 3.49-30.28l148.06-186.19q5.39-6.92 5.39-15.38t-5.39-15.38L171.63-682.34q-11.25-14.12-3.49-30.28 7.76-16.15 26.01-16.15h380.77q13.01 0 24.62 5.19 11.61 5.2 20.31 16.12l162.21 204.95q6.94 8.2 1.17 17.2-5.77 9-16.61 7.08-13-2.23-22.93-2.85-9.92-.61-23.69-.61-96.31 0-165.54 61.69-69.23 61.69-79.77 156-1 1.08-1.38 3.15-.39 2.08-1.16 3.93-.53 9.61-7.82 17.27-7.28 7.65-17.48 7.65h-252.7ZM719.77-76.46q-66.69 0-112.69-46.23-46-46.22-46-112.92t46.22-112.7q46.23-46 112.93-46 66.69 0 112.69 46.23 46 46.22 46 112.92t-46.22 112.7q-46.23 46-112.93 46Zm-4.31-117.08 76.46-79.69q3.93-4.15 3.93-8.58t-4.93-8.43q-4.15-3.99-8.61-3.55-4.45.45-8.46 4.48l-79 82.77-29.7-30.46q-3.15-3.92-8.15-4.31-5-.38-9.33 3.54-4.29 3.92-3.9 8.54.38 4.61 4.31 8.54l27.15 27.15q8.6 8.69 20.07 8.69t20.16-8.69Z"/></svg>