<svg xmlns="http://www.w3.org/2000/svg" height="20" viewBox="0 -960 960 960" width="20"><path d="m544.46-479.08 111.85-73.07q13.15-8.7 13.15-23.85 0-15.15-13.15-23.85l-111.85-73.07q-14.15-9.7-29.31-2Q500-667.23 500-649.85v147.7q0 17.38 15.15 25.07 15.16 7.7 29.31-2ZM254.23-138.31q-22.85 2.46-41.46-11.81-18.62-14.26-21.85-37.11l-54.15-380.54q-3.23-23.85 11.31-43.11 14.54-19.27 38.38-21.74l51.08-3.92v270.39q0 53.84 38.38 91.23 38.39 37.38 92.23 37.38h357.39q3.15 14-6.27 24.58-9.42 10.58-20.89 12.81l-444.15 61.84Zm111.92-171.23q-27.61 0-42.11-14.5t-14.5-42.11v-401.23q0-27.62 14.5-42.12 14.5-14.5 42.11-14.5h401.23q27.62 0 42.12 14.5Q824-795 824-767.38v401.23q0 27.61-14.5 42.11t-42.12 14.5H366.15Z"/></svg>