<svg xmlns="http://www.w3.org/2000/svg" height="20" viewBox="0 -960 960 960" width="20"><path d="m544.46-479.08 111.85-73.07q13.15-8.59 13.15-23.79 0-15.21-13.15-23.91l-111.85-73.07q-14.15-9.7-29.31-2Q500-667.23 500-649.85v147.7q0 17.38 15.15 25.07 15.16 7.7 29.31-2ZM366.15-309.54q-27.61 0-42.11-14.5t-14.5-42.11v-401.23q0-27.62 14.5-42.12 14.5-14.5 42.11-14.5h401.23q27.62 0 42.12 14.5Q824-795 824-767.38v401.23q0 27.61-14.5 42.11t-42.12 14.5H366.15Zm0-32h401.23q10.77 0 17.7-6.92 6.92-6.92 6.92-17.69v-401.23q0-10.77-6.92-17.7-6.93-6.92-17.7-6.92H366.15q-10.77 0-17.69 6.92-6.92 6.93-6.92 17.7v401.23q0 10.77 6.92 17.69 6.92 6.92 17.69 6.92Zm200.62-225.23ZM223-168Zm31.23 29.69q-22.85 3.23-41.46-11.42-18.62-14.65-21.85-37.5l-54.15-380.54q-3.23-23.74 11.04-43.06 14.27-19.32 38.11-21.02l33.39-2.77q8.54.31 12.61 4.27 4.08 3.97 4.08 12.19 0 6.22-3.12 11.42-3.11 5.2-9.42 4.89l-31.61 2.77q-10.77.77-16.93 8.85-6.15 8.08-4.61 18.85l50.84 378.76q1.54 10.77 9.23 16.93 7.7 6.15 18.47 4.61l458.92-62.77q7.03-1.23 12.33 2.74 5.31 3.98 6.36 10.57 1.23 6.54-2.69 12.04-3.92 5.5-10.62 6.65l-458.92 63.54Z"/></svg>