<svg xmlns="http://www.w3.org/2000/svg" height="20" viewBox="0 -960 960 960" width="20"><path d="m559.85-573.08 176.61-176.61q5.62-5.62 10.77-4.85 5.15.77 10 5.62 5.62 5.61 5.62 11.27 0 5.65-5.62 11.27L579.46-548.62q-8.33 8.7-19.43 8.7-11.11 0-19.8-8.7l-75.77-75.76q-4.84-4.85-5.61-11.16-.77-6.31 4.84-11.63 4.85-5.14 11.66-4.37 6.8.77 11.65 5.62l72.85 72.84Zm17.84 442.23q3.85 1.54 6.93 1.54 3.07 0 6.92-1.54l229.61-69.69q-4.15-30.23-22.92-43.77-18.77-13.54-42-13.54H557.54q-15.46 0-37.08-2.5-21.61-2.5-42.23-10.03l-47.54-17.08q-6.17-2.41-8.78-9.63-2.6-7.22.09-13.53 2.69-5.53 9.77-7.69 7.08-2.15 13.38.54l54 21.46q13.31 5.54 25.73 6.39 12.43.84 21.12.07h91.23q0-17.69-5.38-26.23-5.39-8.54-19.23-14.07l-252.16-90.47q-2.31-.76-4.23-1.15-1.92-.38-4.23-.38h-56v200.3l281.69 91Zm-12.23 29.54L296-186.85q2.31 20.7-9.69 35.27-12 14.58-31.93 15.58h-61.76q-23.85 1-40.24-15.83Q136-168.66 136-192.62v-204.92q0-23.55 16.57-40.08 16.56-16.53 40.15-16.53h156.51q6.46 0 12.31 1.11 5.84 1.12 11.62 3.23l252.61 89.58q18.46 7.15 30.96 24.56 12.5 17.4 12.5 45.82h87q44.15 0 71.89 25.62 27.73 25.61 27.73 62.38 0 10-8.5 19.77t-15.97 11.93L605-100.54q-9.69 2.46-19.38 2.35-9.7-.12-20.16-3.12ZM168-192.62q0 10.77 6.92 17.7 6.93 6.92 17.7 6.92h46.76q10.77 0 17.7-5.77 6.92-5.77 6.92-18.85v-229.53h-71.38q-10.77 0-17.7 6.92-6.92 6.92-6.92 17.69v204.92Z"/></svg>