<svg xmlns="http://www.w3.org/2000/svg" height="20" viewBox="0 -960 960 960" width="20"><path d="m563-110.15-291-82.54v-261.46h79.23q7.23 0 13.19 1.11 5.96 1.12 10.43 3.12l213.84 75.38q26.31 9.77 46.16 33.12 19.84 23.34 19.84 50.88 0 1.77.19 1.73.2-.04-3.11-.04h-34.08q-28.69-1-56.11-4.3-27.43-3.31-50.73-11.16l-38.31-13.07q-8.46-3.24-16.04.11-7.58 3.35-11.58 11.81t0 17.69q4 9.23 13.46 11.46l28.85 8q33.15 10.39 62.08 13.81 28.92 3.42 66.84 3.42h193.31q23.16 0 35.16 16.12 12 16.11 12 38.96l-257.16 87.38q-8.69 3.47-18.61 2.08-9.93-1.38-17.85-3.61Zm-427-60.93v-248q0-15.38 9.85-25.23 9.84-9.84 25.23-9.84h33.84q15.39 0 25.23 9.84 9.85 9.85 9.85 25.23v248q0 15.39-9.85 25.23-9.84 9.85-25.23 9.85h-33.84q-15.39 0-25.23-9.85-9.85-9.84-9.85-25.23Zm424.62-402 176.61-176.61q5.62-5.62 10.77-4.85 5.15.77 10 5.62 5.62 5.61 5.62 11.27 0 5.65-5.62 11.27L580.23-548.62q-8.69 8.7-19.61 8.7-10.93 0-19.62-8.7l-75.77-75.76q-4.85-4.85-5.61-11.16-.77-6.31 4.84-11.15 4.85-5.62 11.66-4.85 6.8.77 11.65 5.62l72.85 72.84Z"/></svg>