<svg xmlns="http://www.w3.org/2000/svg" height="20" viewBox="0 -960 960 960" width="20"><path d="M232-160v-445.82q0-23.56 16.55-39.95 16.55-16.38 40.12-16.38H539.2q23.57 0 39.95 16.53 16.39 16.54 16.39 40.08V-160l-181.39-94.21L232-160Zm32-52.08 150.15-78.15 149.39 78.15v-393.46q0-10.77-6.92-17.69-6.93-6.92-17.7-6.92h-250.3q-10.77 0-17.7 6.92-6.92 6.92-6.92 17.69v393.46Zm432-50.23v-481.07q0-10.77-6.92-17.7-6.93-6.92-17.7-6.92H319.54v-32h351.84q23.55 0 40.09 16.53Q728-766.93 728-743.38v481.07h-32ZM264-630.15h299.54H264Z"/></svg>