<svg xmlns="http://www.w3.org/2000/svg" height="20" viewBox="0 -960 960 960" width="20"><path d="m414.05-254.07-140.81 72.68q-14.16 7.47-27.7-.58Q232-190.02 232-206.12v-399.7q0-23.37 16.65-39.85 16.64-16.48 40.02-16.48H539.2q23.38 0 39.86 16.63t16.48 39.98v399.44q0 16.09-13.65 24.13-13.65 8.05-27.81.58l-140.03-72.68Zm298.13-8.24q-6.72 0-11.45-4.6-4.73-4.6-4.73-11.4v-465.07q0-10.77-6.92-17.7-6.93-6.92-17.7-6.92H335.54q-6.8 0-11.4-4.55-4.6-4.54-4.6-11.27 0-6.72 4.6-11.45 4.6-4.73 11.4-4.73h335.84q23.36 0 39.99 16.63Q728-766.74 728-743.38v465.07q0 6.8-4.55 11.4-4.54 4.6-11.27 4.6Z"/></svg>