<svg xmlns="http://www.w3.org/2000/svg" height="20" viewBox="0 -960 960 960" width="20"><path d="M644.34-105.23q-4.65 0-8.19-3.51-3.53-3.52-3.53-8.18v-160q-12-1.93-18-11.89t-6-22.19q0-14.83 10.26-25.26 10.26-10.43 25.28-10.43 14.76 0 25.3 10.43Q680-325.83 680-311q0 13.23-6.38 21.92-6.39 8.7-17.62 12.16v160q0 4.66-3.5 8.18-3.51 3.51-8.16 3.51Zm-.03-315.85q-44.62 0-76.46 31.57Q536-357.94 536-312.77q0 21.69 7.23 39.96t20.39 33.89q3.46 3.38 4.61 8 1.15 4.61-2.77 8.54-4.92 4.92-9.04 4.42-4.11-.5-8.57-4.66-16.85-18.76-26.04-41.8-9.19-23.04-9.19-48.35 0-54.85 38.33-93.27 38.34-38.42 93.2-38.42 54.77 0 93.31 38.42T776-312.77q0 28.85-11.08 53.27-11.07 24.42-29.92 43.42-4.46 4.16-9.63 4.16-5.16 0-8.53-4.93-3.38-4.92-1.72-9.53 1.65-4.62 6.11-8 14.92-15.85 23.15-35.89 8.24-20.04 8.24-42.5 0-45.17-31.57-76.74-31.57-31.57-76.74-31.57Zm-.2-96.77q-85.19 0-144.65 59.57Q440-398.71 440-313.54q0 39.76 14.23 77.53 14.23 37.78 41.92 65.86 2.93 3.38 4.47 8 1.53 4.61-1.62 7.77-4.64 4.92-10.17 4.42-5.52-.5-9.21-4.66-31.39-31.23-47.2-72.72-15.8-41.49-15.8-86.2 0-94.84 66.35-161.26 66.36-66.43 161.18-66.43 94.77 0 161.31 66.43Q872-408.38 872-313.54q0 47.98-19.69 91.22t-54.85 75.7q-4.69 3.39-8.81 3.77-4.11.39-7.27-4.15-3.15-4.54-1.88-9.15 1.27-4.62 5.19-8 29.69-28.31 46.81-67.5 17.12-39.2 17.12-81.89 0-85.17-59.63-144.74-59.63-59.57-144.88-59.57ZM178.46-232q-20.19 0-31.33-11.13Q136-254.27 136-274.46v-276.31q0-19.61 11.13-31.04 11.14-11.42 31.33-11.42h138.29q19.79 0 31.21 11.42 11.42 11.43 11.42 31.04v276.31q0 20.19-11.42 31.33Q336.54-232 316.75-232H178.46Zm465.85-394.08q-58.39 0-110.43 20.43-52.03 20.42-92.5 55.03v-33.23q-10.76-48-42.07-72.38-31.31-24.39-82.39-24.39H178.23q-13.69 0-24 2.5T136-671.38v-8.47q0-20.16 13.99-34.16 14-13.99 34.16-13.99h614q27.62 0 42.12 14.5 14.5 14.5 14.5 42.12v123.84q-46.92-35.84-98.19-57.19-51.27-21.35-112.27-21.35ZM247.55-480.77q7.6 0 13.83-6.03 6.24-6.04 6.24-14.75 0-7.6-6.23-13.83-6.22-6.24-14.03-6.24-8.9 0-14.74 6.23-5.85 6.22-5.85 14.03 0 8.9 6.03 14.74 6.04 5.85 14.75 5.85Z"/></svg>