<svg xmlns="http://www.w3.org/2000/svg" height="20" viewBox="0 -960 960 960" width="20"><path d="M262.13-232q-26.59 0-43.75-16.15-17.15-16.15-17.15-40.47v-331.53l-63-59.93q-4.23-4.23-6.35-9.19-2.11-4.96-2.11-10.42 0-10.56 7.19-19.43 7.19-8.88 21.12-8.88h557.2q25.96 0 43.34 16.16Q776-695.68 776-671.34v383.01Q776-264 758.7-248q-17.31 16-43.16 16H262.13Zm-86.28-464 57.38 60.46v346.92q0 9.24 8.85 16.93 8.84 7.69 19.61 7.69h453.85q10.77 0 19.61-7.69 8.85-7.69 8.85-16.93v-382.76q0-9.24-8.85-16.93-8.84-7.69-19.61-7.69H175.85ZM420-416.31h190.62q6.83 0 11.41-4.52 4.59-4.52 4.59-11.27t-4.59-11.48q-4.58-4.73-11.41-4.73H338.23q.31 0 1.69-.04 1.39-.03.93-1.27l116.84 112.24q5.62 5.61 11.27 5.61 5.66 0 11.27-5.61 6.39-6.39 6.39-11.93t-6.39-11.15L420-416.31Zm128-127.38H356.62q-6.84 0-11.42 4.52t-4.58 11.27q0 6.75 4.58 11.48t11.42 4.73H629q-.31 0-1.69.04-1.39.03-.93 1.27L509.31-623.62q-5.62-5.61-10.77-5.61-5.16 0-10.77 5.61-6.39 6.39-6.39 12.43t6.39 11.65L548-543.69ZM459.92-480Z"/></svg>