<svg xmlns="http://www.w3.org/2000/svg" height="20" viewBox="0 -960 960 960" width="20"><path d="M372.31-372.31V-312q0 5.02 3.34 8.35 3.33 3.34 8.35 3.34t8.35-3.34q3.34-3.33 3.34-8.35v-60.31H456q5.02 0 8.35-3.34 3.34-3.33 3.34-8.35t-3.34-8.35q-3.33-3.34-8.35-3.34h-60.31V-456q0-5.02-3.34-8.35-3.33-3.34-8.35-3.34t-8.35 3.34q-3.34 3.33-3.34 8.35v60.31H312q-5.02 0-8.35 3.34-3.34 3.33-3.34 8.35t3.34 8.35q3.33 3.34 8.35 3.34h60.31Zm179.69 36h96q5.02 0 8.35-3.34 3.34-3.33 3.34-8.35t-3.34-8.35q-3.33-3.34-8.35-3.34h-96q-5.02 0-8.35 3.34-3.34 3.33-3.34 8.35t3.34 8.35q3.33 3.34 8.35 3.34Zm0-72h96q5.02 0 8.35-3.34 3.34-3.33 3.34-8.35t-3.34-8.35q-3.33-3.34-8.35-3.34h-96q-5.02 0-8.35 3.34-3.34 3.33-3.34 8.35t3.34 8.35q3.33 3.34 8.35 3.34Zm-240-167h96q5.02 0 8.35-3.34 3.34-3.33 3.34-8.35t-3.34-8.35q-3.33-3.34-8.35-3.34h-96q-5.02 0-8.35 3.34-3.34 3.33-3.34 8.35t3.34 8.35q3.33 3.34 8.35 3.34ZM240.62-184q-24.32 0-40.47-16.15T184-240.62v-478.76q0-24.32 16.15-40.47T240.62-776h478.76q24.32 0 40.47 16.15T776-719.38v478.76q0 24.32-16.15 40.47T719.38-184H240.62Zm0-32h478.76q9.24 0 16.93-7.69 7.69-7.69 7.69-16.93v-478.76q0-9.24-7.69-16.93-7.69-7.69-16.93-7.69H240.62q-9.24 0-16.93 7.69-7.69 7.69-7.69 16.93v478.76q0 9.24 7.69 16.93 7.69 7.69 16.93 7.69ZM216-744v528-528Zm384 172.54L642.46-529q3.52 3.15 8.34 3.54 4.82.38 8.74-3.54 4.69-4.69 4.31-8.92-.39-4.23-5.08-8.16L617.08-587l42.46-42.46q3.15-3.52 3.54-8.34.38-4.82-3.54-8.74t-8.36-3.92q-4.43 0-8.72 3.92L600-604.08l-42.46-42.46q-3.52-3.15-8.34-3.54-4.82-.38-8.74 3.54t-4.42 8.54q-.5 4.62 4.42 8.54L582.92-588l-41.69 40.92q-3.92 3.16-4.81 7.66-.88 4.5 4.04 9.42 4.29 3.92 8.72 3.92 4.44 0 8.36-3.92L600-571.46Z"/></svg>