<svg xmlns="http://www.w3.org/2000/svg" height="20" viewBox="0 -960 960 960" width="20"><path d="M372.31-300.31h23.38v-72h72v-23.38h-72v-72h-23.38v72h-72v23.38h72v72Zm168-36h119.38v-23.38H540.31v23.38Zm0-72h119.38v-23.38H540.31v23.38Zm-240-167h119.38v-23.38H300.31v23.38ZM240.62-184q-24.32 0-40.47-16.15T184-240.62v-478.76q0-24.32 16.15-40.47T240.62-776h478.76q24.32 0 40.47 16.15T776-719.38v478.76q0 24.32-16.15 40.47T719.38-184H240.62ZM549-521.46l51-50 51 51 17.08-17.08-51-49.46 51-51L651-655.08l-51 51-51-51L531.92-638l51 50-51 49.46L549-521.46Z"/></svg>