<svg xmlns="http://www.w3.org/2000/svg" height="20" viewBox="0 -960 960 960" width="20"><path d="M720-328.92ZM494.15-554.77ZM152-232q-6.8 0-11.4-4.55-4.6-4.54-4.6-11.27 0-6.72 4.6-11.45Q145.2-264 152-264h337.54q6.8 0 11.4 4.55 4.6 4.54 4.6 11.27 0 6.72-4.6 11.45-4.6 4.73-11.4 4.73H152Zm200.92-464-32-32h432.93q6.8 0 11.4 4.55 4.6 4.54 4.6 11.27 0 6.72-4.6 11.45-4.6 4.73-11.4 4.73H352.92Zm366.66 216q8.88 0 15.11-6.15 6.23-6.15 6.23-14.35 0-8.88-6.1-15.12-6.1-6.23-15.44-6.23-8.61 0-14.46 6.11-5.84 6.1-5.84 15.43 0 8.62 6.15 14.46 6.15 5.85 14.35 5.85Zm95.5 246.15-15.39-15.38v-298.92q0-5.39-3.84-9.23-3.85-3.85-9.23-3.85H653.38q-5.38 0-9.23 3.85-3.84 3.84-3.84 9.23v139.53l-32-32v-110.15q0-20.19 11.13-31.33 11.14-11.13 31.33-11.13h138.46q20.19 0 31.33 11.13 11.13 11.14 11.13 31.33v276.31q0 12.26-4.15 22.41-4.16 10.16-12.46 18.2Zm-47.31 101.08L668.54-232h-17.77q-20.19 0-31.33-11.13-11.13-11.14-11.13-31.33v-17.77L216-685.31V-384q0 9.23 7.69 16.92 7.69 7.7 16.93 7.7h248.92q6.8 0 11.4 4.54 4.6 4.55 4.6 11.27t-4.6 11.45q-4.6 4.74-11.4 4.74H240.62q-27.62 0-42.12-14.5Q184-356.38 184-384v-287.38q0-11.16 2.04-20.16t6.88-16.84l-74.85-74.86q-5.76-5.76-5.65-10.91.12-5.16 6.5-11.54 6.39-6.39 11.16-6.39 4.77 0 11.15 6.39l649.85 650.61q5.61 5.62 6 10.77.38 5.16-6 11.54-6.39 6.39-11.66 6.39-5.27 0-11.65-6.39ZM379.08-522.46Z"/></svg>