<svg xmlns="http://www.w3.org/2000/svg" height="20" viewBox="0 -960 960 960" width="20"><path d="M312.62-88q-23.55 0-40.09-16.53Q256-121.07 256-144.62v-670.76q0-27.62 14.5-42.12Q285-872 312.62-872h337.84q23.55 0 40.08 16.53 16.54 16.54 16.54 40.09v259.69q0 10.68-8.05 18.72-8.04 8.05-18.72 8.05h-37.85q-21.28 0-37.11 13.51-15.84 13.51-19.04 34.33l-9.39 63q-33.54 28.16-52.92 67.96-19.38 39.81-19.38 85.35 0 45.54 20.15 86.77t52.92 69.62q.46 5.92 1.54 10.19T580.77-88H312.62Zm168.71-619.69q11.36 0 19.17-7.6 7.81-7.6 7.81-18.96 0-11.37-7.6-19.17-7.6-7.81-18.96-7.81-11.37 0-19.17 7.6-7.81 7.59-7.81 18.96 0 11.36 7.6 19.17 7.59 7.81 18.96 7.81ZM694.31-88q-10.14 0-17.99-7.12-7.86-7.11-9.92-16.78l-8.02-48.41q-30.07-14.84-48.23-43.15Q592-231.77 592-264.77t18.15-61.31q18.16-28.3 48.23-43.15l8.02-48.41q2.06-9.67 9.92-16.78 7.85-7.12 17.99-7.12h38.38q10.69 0 18.27 7.62 7.58 7.61 9.81 17.3l6.85 52.39q26.07 15.85 41.23 42.5Q824-295.07 824-264.92q0 30.15-15.15 56.46-15.16 26.31-41.23 42.15l-6.85 53.39q-2.23 9.69-9.81 17.3Q743.38-88 732.69-88h-38.38Zm13.49-92.77q35.2 0 59.7-24.3t24.5-59.5q0-35.2-24.3-59.7-24.31-24.5-59.5-24.5-35.2 0-59.7 24.3-24.5 24.31-24.5 59.5 0 35.2 24.3 59.7 24.31 24.5 59.5 24.5Z"/></svg>