<svg xmlns="http://www.w3.org/2000/svg" height="20" viewBox="0 -960 960 960" width="20"><path d="M444.92-550.77ZM192.62-232q-27.62 0-42.12-14.5Q136-261 136-288.62v-382.76q0-27.62 14.5-42.12Q165-728 192.62-728h623.07q6.8 0 11.4 4.55 4.6 4.54 4.6 11.27 0 6.72-4.6 11.45-4.6 4.73-11.4 4.73H192.62q-9.24 0-16.93 7.69-7.69 7.69-7.69 16.93v382.76q0 9.24 7.69 16.93 7.69 7.69 16.93 7.69H288q6.8 0 11.4 4.55 4.6 4.54 4.6 11.27 0 6.72-4.6 11.45Q294.8-232 288-232h-95.38Zm607.07-45.08v-271.07q0-5.39-3.84-9.23-3.85-3.85-9.23-3.85H653.38q-5.38 0-9.23 3.85-3.84 3.84-3.84 9.23v271.07q0 5.39 3.84 9.23Q648-264 653.38-264h133.24q5.38 0 9.23-3.85 3.84-3.84 3.84-9.23ZM650.77-232q-20.19 0-31.33-11.13-11.13-11.14-11.13-31.33v-276.31q0-20.19 11.13-31.33 11.14-11.13 31.33-11.13h138.46q20.19 0 31.33 11.13 11.13 11.14 11.13 31.33v276.31q0 20.19-11.13 31.33Q809.42-232 789.23-232H650.77Zm68.81-248q8.88 0 15.11-6.15 6.23-6.15 6.23-14.35 0-8.88-6.1-15.12-6.1-6.23-15.44-6.23-8.61 0-14.46 6.11-5.84 6.1-5.84 15.43 0 8.62 6.15 14.46 6.15 5.85 14.35 5.85Zm-314.5 228.38-14.46-43.92q-20.47-13.92-33.08-36.11-12.62-22.18-12.62-48.23 0-26.04 12.62-48.35 12.61-22.31 33.08-36.23l14.46-43.92q3.02-8.8 10.59-14.21 7.56-5.41 16.48-5.41h25.54q9.52 0 16.32 5.51 6.8 5.52 9.99 14.11l15.23 43.92q20.46 13.92 33.08 36.11 12.61 22.18 12.61 48.23 0 26.04-12.61 48.35-12.62 22.31-33.08 36.23L484-251.62q-2.86 8.8-10 14.21-7.14 5.41-16.31 5.41h-25.54q-9.27 0-16.49-5.51-7.22-5.52-10.58-14.11Zm39.84-75.76q22 0 37.31-15.35 15.31-15.35 15.31-37.27t-15.39-37.27q-15.38-15.35-37.23-15.35-21.84 0-37.23 15.31Q392.31-402 392.31-380t15.31 37.31q15.3 15.31 37.3 15.31ZM720-412.62Z"/></svg>