<svg xmlns="http://www.w3.org/2000/svg" height="20" viewBox="0 -960 960 960" width="20"><path d="M232-375.38V-720q0-52.77 54.46-78.38Q340.92-824 480-824q134.46 0 191.23 26.77Q728-770.46 728-720v344.62q0 42.23-27.58 75.3Q672.85-267 630.62-258l21.46 29.15q5.69 6.47 2.07 14.89-3.61 8.42-12.53 8.42H318.38q-8.92 0-12.53-8.42-3.62-8.42 2.07-14.89L329.38-258q-42.23-9-69.8-42.08Q232-333.15 232-375.38ZM264-512h432v-178.46H264V-512Zm216 160.62q13.85 0 23.23-9.39 9.39-9.38 9.39-23.23t-9.39-23.23q-9.38-9.39-23.23-9.39t-23.23 9.39q-9.39 9.38-9.39 23.23t9.39 23.23q9.38 9.39 23.23 9.39Z"/></svg>