<svg xmlns="http://www.w3.org/2000/svg" height="20" viewBox="0 -960 960 960" width="20"><path d="M215.23-104.62q-72.85 0-124.04-51.34Q40-207.3 40-280.15t51.34-124.04q51.35-51.19 124.2-51.19 72.84 0 124.04 51.34 51.19 51.34 51.19 124.19t-51.35 124.04q-51.34 51.19-124.19 51.19Zm-.03-40q56.34 0 95.95-39.43 39.62-39.43 39.62-95.77 0-56.33-39.44-95.95-39.43-39.61-95.76-39.61-56.34 0-95.95 39.43Q80-336.52 80-280.18q0 56.33 39.43 95.95 39.44 39.61 95.77 39.61ZM528-663.69 408.92-544.62l74.93 78.7q7.69 7.69 11.92 18.38 4.23 10.69 4.23 20.85V-240q0 8.5-5.76 14.25T479.97-220q-8.51 0-14.24-5.75T460-240v-177.69L321.23-522.77q-9.92-6.92-14.27-17.77-4.34-10.84-4.34-23.8 0-11.97 4.96-22.24 4.96-10.27 13.65-18.96l116.62-116.61q6.92-9.93 17.93-14.27 11.02-4.35 24.2-4.35 13.17 0 26.21 5.35 13.04 5.34 23.96 13.27l76 76q25.44 25.17 55.35 41.04 29.91 15.87 64.19 21.34 8.54 1.46 13.81 8.81 5.27 7.34 3.81 15.88-1.46 8.54-8.81 13.31-7.35 4.77-15.88 3.31-41.7-6.46-78.39-26.08-36.69-19.61-66.38-49.31L528-663.69Zm76.62-80.93q-25.31 0-42.66-17.34-17.34-17.35-17.34-42.66 0-25.3 17.34-42.65 17.35-17.35 42.66-17.35 25.3 0 42.65 17.35 17.35 17.35 17.35 42.65 0 25.31-17.35 42.66-17.35 17.34-42.65 17.34Zm139.84 640q-72.84 0-124.04-51.34-51.19-51.34-51.19-124.19t51.35-124.04q51.34-51.19 124.19-51.19t124.04 51.34Q920-352.7 920-279.85t-51.34 124.04q-51.35 51.19-124.2 51.19Zm-.03-40q56.34 0 95.95-39.43Q880-223.48 880-279.82q0-56.33-39.43-95.95-39.44-39.61-95.77-39.61-56.34 0-95.95 39.43-39.62 39.43-39.62 95.77 0 56.33 39.44 95.95 39.43 39.61 95.76 39.61Z"/></svg>