<svg xmlns="http://www.w3.org/2000/svg" height="20" viewBox="0 -960 960 960" width="20"><path d="M480-136q-98.77 0-159.38-22.65Q260-181.31 260-218.46q0-15.46 16.19-30.96t44.73-27.2q6.08-1.84 13 2.54 6.93 4.39 8.77 10.46 1.85 6.08-2.54 12.12-4.38 6.04-10.46 7.88-14.07 5.62-25.5 12.04-11.42 6.43-13.73 13.35 1.85 17.85 60.08 34.04Q408.77-168 480-168q71.23 0 129.46-16.19 58.23-16.19 60.08-34.04-2.31-6.92-13.73-13.35-11.43-6.42-25.5-12.04-6.08-1.84-10.46-7.88-4.39-6.04-2.54-12.12 1.84-6.07 8.77-10.46 6.92-4.38 13-2.54 28.54 11.7 44.73 27.2Q700-233.92 700-218.46q0 37.15-60.62 59.81Q578.77-136 480-136Zm0-133.92q-8.69 0-17.38-3.12-8.7-3.11-16.16-9.58-95.84-79.23-143.15-156.34Q256-516.08 256-587.85q0-57.53 20.15-101.5 20.16-43.96 52.77-73.73 32.62-29.77 72.31-45.34Q440.92-824 480-824t78.77 15.58q39.69 15.57 72.31 45.34 32.61 29.77 52.77 73.73Q704-645.38 704-587.85q0 71.77-47.31 148.89-47.31 77.11-143.15 156.34-7.46 6.47-16.16 9.58-8.69 3.12-17.38 3.12Zm0-266.54q23.85 0 40.23-16 16.39-16 16.39-40.62 0-23.84-16.39-40.23-16.38-16.38-40.23-16.38-23.08 0-39.85 16.88-16.77 16.89-16.77 39.73 0 23.62 16.77 40.12 16.77 16.5 39.85 16.5Z"/></svg>