<svg xmlns="http://www.w3.org/2000/svg" height="20" viewBox="0 -960 960 960" width="20"><path d="M480-136q-98.77 0-159.38-22.7Q260-181.39 260-218.46q0-20.62 22.58-38.66 22.57-18.03 63.19-30.96l26.46 22.7q-22.69 7.3-47 20.19-24.31 12.88-34.77 26.96 1.85 17.85 60.08 34.04Q408.77-168 479.62-168q74.84 0 132.07-16.19 57.23-16.19 57.08-37.04-9.15-11.31-35.5-24.19-26.35-12.89-49.04-20.2l27.23-22.92q43.39 12.16 65.96 31.19Q700-238.31 700-218.81q0 37.23-60.62 60.02Q578.77-136 480-136Zm1-160q95.77-74.62 143.38-148.88Q672-519.15 672-587.85q0-101.04-61.62-152.6-61.61-51.55-130-51.55Q412-792 350-740.39t-62 152.77q0 67.08 48.38 140.74Q384.77-373.23 481-296Zm-1 40q-112.86-85.78-168.43-169.77Q256-509.76 256-587.72q0-57.66 20.15-101.63 20.16-43.96 52.77-73.73 32.62-29.77 72.43-45.34Q441.16-824 480.12-824q38.96 0 78.65 15.58 39.69 15.57 72.31 45.34 32.61 29.77 52.77 73.8Q704-645.26 704-587.85q0 77.99-55.57 162.01T480-256Zm.38-280.46q23.47 0 39.85-16 16.39-16 16.39-40.23 0-24.23-16.49-40.62-16.48-16.38-40.13-16.38-23.08 0-39.85 16.98-16.77 16.98-16.77 39.63 0 23.62 16.77 40.12 16.77 16.5 40.23 16.5Zm-.38-56.62Z"/></svg>