<svg xmlns="http://www.w3.org/2000/svg" height="20" viewBox="0 -960 960 960" width="20"><path d="M480-150.54q-8.38 0-15.27-2.58-6.88-2.57-14.81-8.5-17.69-14.23-58.04-52-40.34-37.76-82.65-90.23-42.31-52.46-73.69-114.8-31.39-62.35-31.39-126.5 0-110.93 75.16-194.89Q354.46-824 480-824q20.77 0 39.92 2.38 19.16 2.39 37.93 7.39 17.38 5 20.96 23.27 3.57 18.27-8.81 30.65L397.15-586.46q-7.69 7.69-12.42 18.88-4.73 11.2-4.73 22.12v60.84q0 23.85 16.38 40.24Q412.77-428 436.62-428h61.84q10.92 0 21.62-4.23 10.69-4.23 19.38-12.92l159.39-160.39q13.15-13.15 31.3-8.96 18.16 4.19 22.16 22.58 1.77 11.3 2.65 23 .89 11.69.89 23.77 0 79.46-61.62 174.77-61.61 95.3-183.38 208-7.93 5.92-15.2 8.88-7.27 2.96-15.65 2.96Zm11-369.69 190.08-190.08q3.46-3.46 3.46-9.15t-3.46-9.16l1.07 1.08q-4.23-4.23-10.69-4.23-6.46 0-10.69 4.23L472.23-539q-1.92 1.92-3.38 4.58-1.47 2.65-1.47 6.8v-.92q0 4.85 4.16 9 4.15 4.16 9 4.16h-.92q4.15 0 6.8-1.47 2.66-1.46 4.58-3.38Zm223.08-243.39q3.46 3.47 9.15 3.47t9.15-3.47l18.7-18.69q3.38-2.38 5.04-3.04 1.65-.65-.97-2.27l-15.53-15.53q-1.62-1.62-2.77-.47l-3.54 3.54-17.16 17.16q-4.23 4.23-4.23 10.69 0 6.46 4.23 10.69l-2.07-2.08Z"/></svg>