<svg xmlns="http://www.w3.org/2000/svg" height="20" viewBox="0 -960 960 960" width="20"><path d="M684-154.46v-108H576v-32h108v-108h32v108h108v32H716v108h-32ZM480-136q-71.08 0-133.59-26.84-62.51-26.84-109.61-73.92t-73.95-109.72Q136-409.11 136-480.32q0-71.22 26.84-133.46 26.84-62.23 73.92-109.36t109.72-73.99Q409.11-824 480.32-824q71.22 0 133.46 26.85 62.23 26.85 109.36 73.95t73.99 109.3Q824-551.7 824-480q0 4.8-.12 10.4-.11 5.6-.57 9.68-26.93-19.93-58.53-29.23-31.61-9.31-66.55-9.31-91.54 0-154.5 62.96-62.96 62.96-62.96 154.5 0 40.28 13.65 76.53 13.66 36.24 38.73 63.93-12.28 2.77-25.56 3.66-13.28.88-27.59.88ZM168-480q0 130.23 90.77 220.31 90.77 90.07 220.85 91 8.46 0 16.65-.39 8.19-.38 15.88-1.92Q425.54-213.23 371-295.15 316.46-377.08 316.46-480q0-102.92 55.31-185.35Q427.08-747.77 513.69-790q-8.46-1.54-16.92-1.92-8.46-.39-16.92-.39-130.31.69-221.08 91.39Q168-610.23 168-480Z"/></svg>