<svg xmlns="http://www.w3.org/2000/svg" height="20" viewBox="0 -960 960 960" width="20"><path d="M700.18-154.46q-6.72 0-11.32-4.6-4.61-4.6-4.61-11.4v-92h-92.17q-6.83 0-11.46-4.61-4.62-4.61-4.62-11.42t4.62-11.39q4.63-4.58 11.46-4.58h92.17v-92q0-6.8 4.63-11.4 4.64-4.6 11.38-4.6 6.75 0 11.28 4.6 4.54 4.6 4.54 11.4v92h91.69q6.73 0 11.48 4.55 4.75 4.54 4.75 11.27 0 6.72-4.6 11.3-4.6 4.58-11.4 4.58h-92v92q0 6.8-4.55 11.55-4.54 4.75-11.27 4.75ZM468.29-136q-65.37 0-125.09-26.93-59.73-26.94-105.77-73.66-46.05-46.72-73.74-109.48Q136-408.83 136-480.18q0-71.36 26.85-133.6 26.85-62.23 73.95-109.36t109.61-73.99Q408.92-824 480-824q69.05 0 128.95 24.4 59.89 24.39 106.2 67.91 46.62 43.31 74.81 101.81 28.19 58.5 33.27 126.5 1.77 7.46-1.58 13.3-3.34 5.85-9.8 8.31-6.47 2.46-13.16 2.85-6.69.38-14.15-2.85-20.46-9.23-41.62-12.96-21.16-3.73-44.39-3.73-91.84 0-154.8 62.96-62.96 62.96-62.96 154.5 0 26.15 3.85 46.77 3.84 20.61 13.84 38.23 4.31 6.2 5.96 12.03 1.66 5.84 1.66 11.66 0 15.32-10.58 25.82Q484.92-136 468.29-136ZM168-480.38q0 123.23 84.31 212.46t207.23 96.84q3.84 0 6.92-2.3 3.08-2.31 4.62-6.16 1.53-4.61-.77-8.46-2.31-3.85-6.16-6.92-68.84-50.16-108.27-124.35-39.42-74.19-39.42-160.79 0-102.86 55.31-185.29Q427.08-747.77 513.69-790q-8.46-1.54-16.92-1.92-8.46-.39-16.92-.39-130.31.69-221.08 91.58Q168-609.84 168-480.38Z"/></svg>