<svg xmlns="http://www.w3.org/2000/svg" height="20" viewBox="0 -960 960 960" width="20"><path d="M328.77-270.77v-221l9.59-27h284.41l10 27v221h-304Zm32-216v184h240v-184h-240Zm119-161.23q31.17 0 51.89-20.72 20.72-20.73 20.72-51.9 0-31.16-20.72-51.89-20.72-20.72-51.89-20.72t-51.89 20.72q-20.73 20.73-20.73 51.89 0 31.17 20.73 51.9Q448.6-648 479.77-648Zm165.15-14v-113.23l-68.69 13.85q4.08 9.61 6.12 19.9 2.03 10.28 2.03 21.26 0 10.99-1.53 21.78-1.54 10.8-6.62 21.59L644.92-662ZM328.77-491.77q0-47.23 27.15-85.65 27.16-38.43 72-55.27-15.2-8-27.41-21.58-12.2-13.58-17.97-29.19l-96.8-19.67q-4.82-1.1-8.05-4.48-3.23-3.38-3.23-8.18v-5.71q0-4.81 3.26-8.3 3.26-3.49 7.98-4.57l94.84-19.4q10.92-31.23 38.1-50.96 27.17-19.73 61.34-19.73 23.02 0 42.48 9 19.46 9 34.92 25.77l85.77-17.62q13.18-3.23 23.48 5.82 10.29 9.05 10.29 22.26v122q0 12.78-10.29 21.66-10.3 8.88-23.48 5.65l-88.77-18.62q-4.13 4.95-9.73 8.58-5.59 3.63-12.03 6.27 44.84 16.84 72.5 55.01 27.65 38.16 27.65 86.91h-32q0-48.46-34.91-84.11-34.9-35.66-86.86-35.66-50.35 0-84.29 35.66-33.94 35.65-33.94 84.11h-32ZM385.38-136q-27.61 0-42.11-14.5t-14.5-42.12v-78.15h32v78.15q0 10.77 6.92 17.7 6.93 6.92 17.69 6.92h190.77q10.77 0 17.7-6.92 6.92-6.93 6.92-17.7v-78.15h32v78.15q0 27.62-14.5 42.12-14.5 14.5-42.12 14.5H385.38Z"/></svg>