<svg xmlns="http://www.w3.org/2000/svg" height="20" viewBox="0 -960 960 960" width="20"><path d="M328.77-302.77v-184h304v184h-304ZM480.54-648q31.17 0 51.89-20.72 20.72-20.73 20.72-51.9 0-31.16-20.72-51.89-20.72-20.72-51.89-20.72t-51.89 20.72q-20.73 20.73-20.73 51.89 0 31.17 20.73 51.9Q449.37-648 480.54-648ZM332.23-518.77q5.62-38.15 31.42-69.35 25.81-31.19 64.27-45.34-15.38-7.23-27.11-20.31-11.73-13.08-17.5-28.69l-98.25-20.04q-4.84-1.74-7.72-5.47-2.88-3.72-2.88-7.41v-5q0-5.16 2.73-8.5 2.73-3.35 8.19-4.35l95.93-21.31q10.92-30.46 37.23-50.08 26.31-19.61 62-19.61 22.83 0 42.49 9.38 19.66 9.39 35.12 25.16l84-16.85q13.57-3 24.17 5.38 10.6 8.38 10.6 21.16v122.77q0 13.39-10.8 21.96-10.81 8.58-23.97 6.35l-88-19.39q-4.24 4.62-9.93 8.08-5.68 3.46-11.84 6.77 38.47 12.38 63.89 43.96t31.81 70.73H332.23ZM385.38-136q-27.61 0-42.11-14.5t-14.5-42.12v-78.15h304v78.15q0 27.62-14.5 42.12-14.5 14.5-42.12 14.5H385.38Z"/></svg>