<svg xmlns="http://www.w3.org/2000/svg" height="20" viewBox="0 -960 960 960" width="20"><path d="M355.23-192.62v-345.76L137.31-756.31q-5.62-5.61-6-10.77-.39-5.15 6-11.54 6.38-6.38 11.65-6.38 5.27 0 11.66 6.38l611.07 611.08q5.62 5.62 6 10.77.39 5.15-6 11.54-6.38 6.38-11.65 6.38-5.27 0-11.66-6.38L563.23-329.38v136.76q0 23.55-16.56 40.09Q530.11-136 506.53-136h-94.95q-23.58 0-39.96-16.53-16.39-16.54-16.39-40.09Zm-38-531.38-56.85-56.85q5.7-18.69 20.5-30.92T315.85-824h286.77q23.54 0 40.08 16.53 16.53 16.54 16.53 40.09V-724h-342Zm246 246-214-214h310v38.31q0 8.6-2.38 16.29-2.39 7.69-7.31 15.25l-86.31 129.84V-478Z"/></svg>