<svg xmlns="http://www.w3.org/2000/svg" height="20" viewBox="0 -960 960 960" width="20"><path d="M787.15-517.77 278.54-383.08q-18.39 4.46-35.17-2.22t-27.14-21.85l-80.54-129.39q-6.38-9.83-2.06-21.24 4.31-11.41 15.57-14.03l13.33-3.6q5.62-1.97 10.78.03 5.15 2 10.07 4.92l97.77 83.31 158.39-42.16-165.16-218.46q-9.84-13.31-4.03-29.85 5.8-16.53 22.57-21.23l12.31-3.46q8.15-2.23 15.54-.11 7.38 2.11 12.99 7.57l261.62 223.62 163.77-43.23q19.77-4.92 37.92 5.81 18.15 10.74 23.23 30.54 5.08 19.8-4.12 37.59-9.21 17.78-29.03 22.75ZM200-184q-6.84 0-11.42-4.52T184-199.79q0-6.75 4.58-11.48T200-216h560q6.84 0 11.42 4.52t4.58 11.27q0 6.75-4.58 11.48T760-184H200Z"/></svg>