<svg xmlns="http://www.w3.org/2000/svg" height="20" viewBox="0 -960 960 960" width="20"><path d="M200-184q-6.5 0-11.25-4.76T184-200.03q0-6.51 4.75-11.24T200-216h560q6.5 0 11.25 4.76t4.75 11.27q0 6.51-4.75 11.24T760-184H200Zm509.92-181.77L223.46-515.31q-18.38-4.69-28.92-20.23Q184-551.08 184-569.69V-720q0-12.31 9.35-19.19 9.34-6.89 20.5-3.54l12.99 4.03q5.08 2.01 8.62 6.32 3.54 4.3 5.77 9.46l40 120.54 156.39 48.46-24-273q-1.24-16.77 11.96-27.5 13.19-10.73 29.42-5.63l12.63 3.83q8.14 2.91 13.53 7.88 5.38 4.96 7.92 13.03L591.69-507l149.46 44.77q16.04 4.8 25.45 18.53 9.4 13.73 9.4 29.32 0 25.38-21.31 41.34-21.31 15.96-44.77 7.27Z"/></svg>