<svg xmlns="http://www.w3.org/2000/svg" height="20" viewBox="0 -960 960 960" width="20"><path d="M281.15-116q55.62 0 91.16-40.23t47-91.08q7.92-39.46 36.42-77.88 28.5-38.43 63.5-57.73 60.62-32 96.31-90.35 35.69-58.35 35.69-127.73 0-99.77-71.61-171.38Q508-844 407.23-844q-96.15 0-166.23 65.08-70.08 65.07-76.23 158.92h32q6.15-80 67.15-136 61-56 143.31-56 86.92 0 149.46 62.54 62.54 62.54 62.54 148.46 0 58.62-28.42 108.08-28.43 49.46-80.04 77.84-39.85 19.93-74.35 67.27-34.5 47.35-51.5 104.35-12.84 36.31-37.5 65.88Q322.77-148 281.15-148q-42 0-67.92-29.15-25.92-29.16-25.92-79.39 0-37.61 17.11-60.04 17.12-22.42 41.12-43.27L292.85-323l96.61-168.31q51.62 8.39 91.08-23.96T520-600q0-47.31-32.35-79.65Q455.31-712 408-712q-55.85 0-89.08 43.81t-19.38 96.88l-151 132.54L220.08-382q-27.62 27.23-46.2 55.5-18.57 28.27-18.57 69.96 0 64.08 35.38 102.31Q226.08-116 281.15-116Zm412.54-225.23q49.54-54.39 75.54-120.31 26-65.92 26-138.46 0-71-26.38-138.19-26.39-67.19-75.16-121.58L672.92-838q45.7 53.08 68 113.31 22.31 60.23 22.31 124.69 0 63.69-22.69 124.31-22.69 60.61-67.62 113.69l20.77 20.77ZM284.15-371l-86.69-70 115.62-100.23q8.07 12.69 20.11 23.08 12.04 10.38 25.73 19.23L284.15-371ZM408-520q-33.46 0-56.73-23.27Q328-566.54 328-600q0-33.46 23.27-56.73Q374.54-680 408-680q33.46 0 56.73 23.27Q488-633.46 488-600q0 33.46-23.27 56.73Q441.46-520 408-520Zm-129.31 63.77ZM408-600Z"/></svg>