<svg xmlns="http://www.w3.org/2000/svg" height="20" viewBox="0 -960 960 960" width="20"><path d="M324-260h318.15L519.31-424.46q6.46.54 13.61 2.24 7.16 1.71 14 3.99L442.46-286.46l-52-60.62L324-260Zm-83.38 124q-24.32 0-40.47-16.15T184-192.62v-478.76q0-24.32 16.15-40.47T240.62-728H408v32H240.62q-9.24 0-16.93 7.69-7.69 7.69-7.69 16.93v478.76q0 9.24 7.69 16.93 7.69 7.69 16.93 7.69h478.76q9.24 0 16.93-7.69 7.69-7.69 7.69-16.93v-211l32 32v179q0 24.32-16.15 40.47T719.38-136H240.62ZM480-432Zm370.23 11.08L725.69-545.46q-19.23 13.77-36.78 19.61-17.55 5.85-39.84 5.85-54.15 0-91.61-37.08Q520-594.15 520-648t37.08-90.92Q594.15-776 648-776t90.92 37.03Q776-701.95 776-648.17q0 22.09-6.23 41.13Q763.54-588 749-568.77l124.54 124.54-23.31 23.31ZM647.77-552Q688-552 716-579.77q28-27.78 28-68Q744-688 716.23-716q-27.78-28-68-28Q608-744 580-716.23q-28 27.78-28 68Q552-608 579.77-580q27.78 28 68 28Z"/></svg>