<svg xmlns="http://www.w3.org/2000/svg" height="20" viewBox="0 -960 960 960" width="20"><path d="M240.62-136q-24.32 0-40.47-16.15T184-192.62v-478.76q0-24.32 16.15-40.47T240.62-728H418q11.17 0 17.66 8.96T439-700q-2.69 11.62-4.54 25.12-1.84 13.5-1.84 26.88 0 90.77 62.54 153.08 62.54 62.3 154.38 62.3 16.09 0 29.99-1.84 13.89-1.85 28.09-5.54l43.53 43.54q11.77 10.77 18.31 21.58 6.54 10.8 6.54 27.11v155.15q0 24.32-16.15 40.47T719.38-136H240.62Zm598.25-297.18L725.69-545.46q-19.23 13.77-36.78 19.61-17.55 5.85-39.84 5.85-54.15 0-91.61-37.08Q520-594.15 520-648t37.08-90.92Q594.15-776 648-776t90.92 37.03Q776-701.95 776-648.17q0 22.09-6.23 41.13Q763.54-588 749-568.77l113.38 113.39q5.62 5.61 6 10.76.39 5.16-6 11.54-6.38 6.39-11.65 6.39-5.27 0-11.86-6.49ZM647.77-552Q688-552 716-579.77q28-27.78 28-68Q744-688 716.23-716q-27.78-28-68-28Q608-744 580-716.23q-28 27.78-28 68Q552-608 579.77-580q27.78 28 68 28ZM442.46-286.46l-34.61-40.08q-6.77-7.92-17.16-7.54-10.38.39-16.83 8.09l-31.61 43.16q-5.56 7.45-1.85 15.14 3.72 7.69 11.91 7.69h261.73q8.5 0 11.96-7.69 3.46-7.69-1.23-15.16L519.31-424.46q6.46.54 13.61 2.24 7.16 1.71 14 3.99L442.46-286.46Z"/></svg>