<svg xmlns="http://www.w3.org/2000/svg" height="20" viewBox="0 -960 960 960" width="20"><path d="M392-792q-6.8 0-11.4-4.55-4.6-4.54-4.6-11.27 0-6.72 4.6-11.45Q385.2-824 392-824h238.77q8.6 0 12.68 4.96 4.09 4.95 4.09 10.9t-4.5 11.04q-4.5 5.1-11.5 5.1H392ZM248-672.62q-6.8 0-11.4-4.54-4.6-4.55-4.6-11.27t4.6-11.45q4.6-4.74 11.4-4.74h263.38q8.6 0 12.69 4.96 4.08 4.96 4.08 10.9 0 5.95-4.5 11.05-4.5 5.09-11.5 5.09H248ZM104-553.23q-6.8 0-11.4-4.55-4.6-4.54-4.6-11.27 0-6.72 4.6-11.45 4.6-4.73 11.4-4.73h288q8.6 0 12.68 4.96 4.09 4.95 4.09 10.9t-4.5 11.04q-4.5 5.1-11.5 5.1H104Zm514.54 130.92-90-91-188.39 188.39q-6.92 6.92-6.92 16.92 0 10 6.92 16.92l57.16 57.16q6.92 6.92 16.92 6.92 10 0 16.92-6.92l187.39-188.39Zm-66.46-114.54 90 91 190.46-190.46q6.92-6.92 6.92-17.69 0-10.77-6.92-17.69l-54.62-55.62q-6.92-6.92-17.69-6.92-10.77 0-17.69 6.92L552.08-536.85ZM516.62-547l136.61 136.62-198.77 198.76q-17.38 15.39-39.73 16.89-22.35 1.5-37.73-13.89l-6.15-6.15-31.31 31.31q-4.23 4.23-8.98 6.46-4.74 2.23-10.81 2.23h-57.9q-8.53 0-11.57-9.58-3.05-9.57 2.91-15.54l66.27-66.26-4.61-4.62q-16.39-15.38-15.39-38.73 1-23.35 18.39-38.73L516.62-547Zm0 0L720-750.38q16.38-16.39 40.23-16.39 23.85 0 40.07 16.23l56.47 56.47Q873-677.85 873-654t-16.38 40.23L653.23-410.38 516.62-547Z"/></svg>