<svg xmlns="http://www.w3.org/2000/svg" height="20" viewBox="0 -960 960 960" width="20"><path d="M391.54-564ZM368-352H217.69q-7.12 0-11.95-5.02-4.82-5.02-4.82-11.68v-9.02q0-3.9 1.46-6.55 1.47-2.65 3.39-4.58L280-463.08V-744h-32q-6.8 0-11.4-4.55-4.6-4.54-4.6-11.27 0-6.72 4.6-11.45Q241.2-776 248-776h154.23q6.8 0 11.4 4.55 4.6 4.54 4.6 11.27 0 6.72-4.6 11.45-4.6 4.73-11.4 4.73H312v270.15q0 11.49-4.23 21.9-4.23 10.41-12.92 19.1L246-384h287.85q6.8 0 11.4 4.55 4.6 4.54 4.6 11.27 0 6.72-4.6 11.45-4.6 4.73-11.4 4.73H400v185.08q0 6.8-4.55 11.4-4.54 4.6-11.27 4.6-6.72 0-11.45-4.6-4.73-4.6-4.73-11.4V-352Zm255.77-120q-63.62 0-107.69-44.24Q472-560.47 472-624q0-64.77 44.08-109.89Q560.15-779 624-776t107.92 46.08Q776-686.85 776-623.52q0 63.33-44.3 107.42Q687.39-472 623.77-472Zm.23-152q25 0 42.5-17.5T684-684q0-25-17.5-42.5T624-744q-25 0-42.5 17.5T564-684q0 25 17.5 42.5T624-624Zm-.04 120q26.81 0 52.08-12.27t42.27-33.81q4.23-3.9 2.23-10.02-2-6.13-6.69-8.36-20.68-9.77-43-14.66-22.31-4.88-46.48-4.88-24.17 0-47.2 4.88-23.02 4.89-43.02 14.66-4.69 3-6.69 8.58-2 5.57 2.23 9.8 17 21.54 42.23 33.81Q597.15-504 623.96-504Z"/></svg>