<svg xmlns="http://www.w3.org/2000/svg" height="20" viewBox="0 -960 960 960" width="20"><path d="M168.62-232q-27.62 0-42.12-14.5Q112-261 112-288.62v-382.76q0-27.62 14.5-42.12Q141-728 168.62-728h622.76q27.62 0 42.12 14.5Q848-699 848-671.38v382.76q0 27.62-14.5 42.12Q819-232 791.38-232H168.62Zm0-32h622.76q10.77 0 17.7-6.92 6.92-6.93 6.92-17.7v-382.76q0-10.77-6.92-17.7-6.93-6.92-17.7-6.92H168.62q-10.77 0-17.7 6.92-6.92 6.93-6.92 17.7v382.76q0 10.77 6.92 17.7 6.93 6.92 17.7 6.92Zm220.26-68.77h181.91q10.67 0 18.86-7.6 8.2-7.59 8.2-18.96 0-10.59-8.03-18.79-8.04-8.19-18.7-8.19H389.21q-10.67 0-18.86 7.6-8.2 7.6-8.2 18.96 0 10.6 8.03 18.79 8.04 8.19 18.7 8.19ZM144-264v-432 432Zm132.1-288.77q10.59 0 18.78-7.98 8.2-7.98 8.2-18.58 0-10.59-7.98-18.79-7.99-8.19-18.58-8.19-10.6 0-18.79 7.98-8.19 7.99-8.19 18.58 0 10.6 7.98 18.79t18.58 8.19Zm135.54 0q10.59 0 18.78-7.98 8.2-7.98 8.2-18.58 0-10.59-7.99-18.79-7.98-8.19-18.57-8.19-10.6 0-18.79 7.98-8.19 7.99-8.19 18.58 0 10.6 7.98 18.79t18.58 8.19Zm136.3 0q10.6 0 18.79-7.98t8.19-18.58q0-10.59-7.98-18.79-7.98-8.19-18.58-8.19-10.59 0-18.78 7.98-8.2 7.99-8.2 18.58 0 10.6 7.99 18.79 7.98 8.19 18.57 8.19Zm131.7 3.85q10.59 0 18.78-7.98 8.2-7.99 8.2-18.58 0-10.6-7.99-18.79-7.98-8.19-18.57-8.19-10.6 0-18.79 7.98t-8.19 18.58q0 10.59 7.98 18.78 7.98 8.2 18.58 8.2ZM276.1-442.77q10.59 0 18.78-7.98 8.2-7.98 8.2-18.58 0-10.59-7.98-18.79-7.99-8.19-18.58-8.19-10.6 0-18.79 7.98-8.19 7.99-8.19 18.58 0 10.6 7.98 18.79t18.58 8.19Zm135.54 0q10.59 0 18.78-7.98 8.2-7.98 8.2-18.58 0-10.59-7.99-18.79-7.98-8.19-18.57-8.19-10.6 0-18.79 7.98-8.19 7.99-8.19 18.58 0 10.6 7.98 18.79t18.58 8.19Zm136.3 0q10.6 0 18.79-7.98t8.19-18.58q0-10.59-7.98-18.79-7.98-8.19-18.58-8.19-10.59 0-18.78 7.98-8.2 7.99-8.2 18.58 0 10.6 7.99 18.79 7.98 8.19 18.57 8.19Zm135.54 0q10.6 0 18.79-7.98t8.19-18.58q0-10.59-7.98-18.79-7.98-8.19-18.58-8.19-10.59 0-18.78 7.98-8.2 7.99-8.2 18.58 0 10.6 7.98 18.79 7.99 8.19 18.58 8.19Z"/></svg>