<svg xmlns="http://www.w3.org/2000/svg" height="20" viewBox="0 -960 960 960" width="20"><path d="M168.62-232q-27.62 0-42.12-14.5Q112-261 112-288.62v-382.76q0-27.62 14.5-42.12Q141-728 168.62-728h622.76q27.62 0 42.12 14.5Q848-699 848-671.38v382.76q0 27.62-14.5 42.12Q819-232 791.38-232H168.62Zm193.53-100.77h235.7v-53.54h-235.7v53.54Zm-112.61-110h53.54v-53.54h-53.54v53.54Zm135.54 0h53.54v-53.54h-53.54v53.54Zm136.3 0h53.54v-53.54h-53.54v53.54Zm135.54 0h53.54v-53.54h-53.54v53.54Zm-407.38-110h53.54v-53.54h-53.54v53.54Zm135.54 0h53.54v-53.54h-53.54v53.54Zm136.3 0h53.54v-53.54h-53.54v53.54Zm131.7 3.85h53.54v-53.54h-53.54v53.54Z"/></svg>