<svg xmlns="http://www.w3.org/2000/svg" height="20" viewBox="0 -960 960 960" width="20"><path d="M681.31-326.08 284-728h297.08q13.15 0 25.07 5.58 11.93 5.57 20.62 16.5l147.38 191.38q11.7 16.92 11.7 34.54 0 17.62-11.7 34.54l-92.84 119.38ZM192.62-232q-23.85 0-40.24-16.38Q136-264.77 136-288.62v-382.76q0-10.16 4.23-19.47 4.23-9.3 10.92-17l-84-84q-5.61-5.61-6-10.77-.38-5.15 6-11.53 6.39-6.39 11.66-6.39 5.27 0 11.65 6.39L814.15-90.46q5.62 5.61 5.62 11.15t-5.62 11.16q-6.38 6.38-11.65 6.38-5.27 0-11.65-6.38l-175-174q-2.62 4.07-8.31 7.11T597.08-232H192.62Z"/></svg>