<svg xmlns="http://www.w3.org/2000/svg" height="20" viewBox="0 -960 960 960" width="20"><path d="m681.31-326.08-22.54-22.54 89.69-116q5.39-6.92 5.39-15.38t-5.39-15.38l-147.6-191.39q-3.84-4.61-8.84-6.92-5-2.31-11.16-2.31H316.1L284-728h296.95q13.28 0 25.2 5.58 11.93 5.57 20.62 16.5l147.38 191.38q11.7 16.92 11.7 34.54 0 17.62-11.7 34.54l-92.84 119.38ZM192.62-264H594L168-691v402.38q0 10.77 6.92 17.7 6.93 6.92 17.7 6.92Zm0 32q-23.55 0-40.09-16.53Q136-265.07 136-288.62v-382.76q0-10.09 4.23-19.43t10.92-17.04l-84-84q-5.61-5.61-6-10.77-.38-5.15 6-11.53 6.39-6.39 11.66-6.39 5.27 0 11.65 6.39L814.15-90.46q5.62 5.61 5.62 11.15t-5.62 11.16q-6.38 6.38-11.65 6.38-5.27 0-11.96-6.62L615.85-242.15q-2.62 4.07-8.31 7.11T597.08-232H192.62ZM381-477Zm154.69-45.31Z"/></svg>