<svg xmlns="http://www.w3.org/2000/svg" height="20" viewBox="0 -960 960 960" width="20"><path d="M575.69-232H194.15q-17.96 0-25.86-16.15-7.91-16.16 3.34-30.28l148.06-186.19q5.39-6.92 5.39-15.38t-5.39-15.38L171.63-682.34q-11.25-14.12-3.34-30.28 7.9-16.15 25.86-16.15h380.77q12.99 0 24.61 5.19 11.62 5.2 20.32 16.12l152.77 192.15q12.46 16.56 12.46 35.13 0 18.56-12.46 35.49l-152 191.38q-8.7 10.93-20.32 16.12-11.62 5.19-24.61 5.19ZM200-264h376.46q6.16 0 10.77-2.31 4.62-2.31 8.46-6.92l152-191.39q5.39-6.92 5.39-15.38t-5.39-15.38l-152-192.16q-3.84-4.61-8.46-6.92-4.61-2.31-10.77-2.31H200l144.62 181.46q12.46 16.56 12.46 35.13 0 18.56-12.46 35.49L200-264Zm277.31-216.77Z"/></svg>