<svg xmlns="http://www.w3.org/2000/svg" height="20" viewBox="0 -960 960 960" width="20"><path d="M824-480.41q0 70.95-26.85 133.69-26.85 62.73-73.95 109.86t-109.3 73.99Q551.7-136 479.52-136q-68.3 0-128.95-24.96-60.65-24.96-107.03-68.77-46.39-43.81-75.16-103.08-28.76-59.27-31.92-128.65-.46-7.54 3.77-12.04 4.23-4.5 10.54-5.23 6.31-.73 11.38 3.15 5.08 3.89 5.42 13.53 7.2 123.74 97.44 208.9Q355.25-168 480-168q130 0 221-91t91-221q0-130-91-221t-221-91q-91.46 0-165.08 46.69-73.61 46.69-111.77 123.46h79q6.8 0 11.4 4.55 4.6 4.55 4.6 11.27t-4.58 11.45q-4.58 4.73-11.36 4.73H164.85q-12.47 0-20.66-8.12T136-618.1v-117.62q0-6.78 4.55-11.53 4.54-4.75 11.27-4.75 6.72 0 11.45 4.6Q168-742.8 168-736v111.23q41.46-89.15 124.51-144.19Q375.55-824 480-824q71.7 0 133.9 26.84t109.3 73.92q47.1 47.08 73.95 109.48Q824-551.36 824-480.41ZM408.28-345.23q-13.32 0-22.49-9-9.17-9.01-9.17-22.32v-107.79q0-13.31 10.37-22.36 10.37-9.05 25.7-9.05v-40.7q0-27.86 19.84-47.71Q452.37-624 480.24-624q27.86 0 47.57 19.79 19.71 19.8 19.71 47.59V-516q15.24 0 25.55 9.02 10.31 9.03 10.31 22.36v108q0 13.34-9 22.37-9.01 9.02-22.32 9.02H408.28ZM439.38-516h81.24v-40.11q0-17.04-11.83-29.08t-28.58-12.04q-16.75 0-28.79 11.89t-12.04 29.02V-516Z"/></svg>