<svg xmlns="http://www.w3.org/2000/svg" height="20" viewBox="0 -960 960 960" width="20"><path d="M298.99-404h71.82q6.77 0 11.52-4.55 4.75-4.54 4.75-11.27 0-6.72-4.58-11.45-4.57-4.73-11.34-4.73h-71.82q-6.76 0-11.51 4.55-4.75 4.54-4.75 11.27 0 6.72 4.57 11.45 4.58 4.73 11.34 4.73Zm453.72-96q-41.63 0-70.86-29.14-29.23-29.14-29.23-70.77 0-41.63 29.16-70.86Q710.95-700 752.62-700q18.46 0 32.42 5.96t35.58 20.96v-190.61q0-12.03 8.11-20.17 8.11-8.14 20.11-8.14h59.51q6.77 0 11.52 4.55 4.75 4.54 4.75 11.27 0 6.72-4.6 11.45-4.6 4.73-11.4 4.73h-56v260q0 41.67-29.14 70.83Q794.33-500 752.71-500Zm-453.63-36h216q6.8 0 11.4-4.55 4.6-4.54 4.6-11.27 0-6.72-4.6-11.45-4.6-4.73-11.4-4.73h-216q-6.8 0-11.4 4.55-4.6 4.54-4.6 11.27 0 6.72 4.6 11.45 4.6 4.73 11.4 4.73Zm0-132h216q6.8 0 11.4-4.55 4.6-4.54 4.6-11.27 0-6.72-4.6-11.45-4.6-4.73-11.4-4.73h-216q-6.8 0-11.4 4.55-4.6 4.54-4.6 11.27 0 6.72 4.6 11.45 4.6 4.73 11.4 4.73Zm299.38 388H246.15L207-240.85q-4.55 4.24-9.6 5.97-5.05 1.73-10.09 1.73-10.08 0-19.16-6.81-9.07-6.81-9.07-20.85v-506.57q0-23.36 16.63-39.99Q192.34-824 215.69-824h382.77q23.36 0 39.99 16.63 16.63 16.63 16.63 39.99v19.07q-10.7 7.62-18.31 17.27-7.62 9.66-13.69 21.12v-57.46q0-10.77-6.93-17.7-6.92-6.92-17.69-6.92H215.69q-10.77 0-17.69 6.92-6.92 6.93-6.92 17.7v496.61L232.31-312h366.15q10.77 0 17.69-6.92 6.93-6.93 6.93-17.7v-153.46q6.07 11.46 14.13 21.22 8.05 9.76 17.87 17.17v115.07q0 23.36-16.63 39.99Q621.82-280 598.46-280Zm-407.38-31v-480 480Z"/></svg>