<svg xmlns="http://www.w3.org/2000/svg" height="20" viewBox="0 -960 960 960" width="20"><path d="M804.69-112 94.85-821.85q-5.62-5.61-5.5-10.77.11-5.15 6.5-11.53 6.38-6.39 11.15-6.39 4.77 0 11.15 6.39L828-134.31q5.62 5.62 6 10.77.38 5.16-6 11.54-6.38 6.38-11.65 6.38-5.27 0-11.66-6.38Zm-499-760h341.69q23.36 0 39.99 16.63Q704-838.74 704-815.38v148.61q16.92-5.38 30.92 4.39 14 9.76 14 25.92v86.77q0 16.15-14 25.92-14 9.77-30.92 4.39v117.69q0 8-4.96 12-4.95 4-10.9 4t-11.04-3.9q-5.1-3.9-5.1-11.33v-414.46q0-10.77-6.92-17.7-6.93-6.92-17.7-6.92H256q6.15-13.62 19.58-22.81Q289-872 305.69-872Zm175.69 164.31q11.31 0 19.12-7.65 7.81-7.65 7.81-18.97 0-11.31-7.65-19.11-7.65-7.81-18.96-7.81-11.32 0-19.12 7.65-7.81 7.65-7.81 18.96t7.65 19.12q7.65 7.81 18.96 7.81ZM312.62-88q-23.36 0-39.99-16.63Q256-121.26 256-144.62v-561.69l32 32v529.69q0 10.77 6.92 17.7 6.93 6.92 17.7 6.92h335.53q10.77 0 17.31-6.92 6.54-6.93 6.54-17.7v-145.69l32 32v113.69q0 25.66-17.98 41.14T647.38-88H312.62Zm127.76-309.54Zm103.16-133.54Z"/></svg>