<svg xmlns="http://www.w3.org/2000/svg" height="20" viewBox="0 -960 960 960" width="20"><path d="M804.69-112 94.85-821.85q-5.62-5.61-5.5-10.77.11-5.15 6.5-11.53 6.38-6.39 11.15-6.39 4.77 0 11.15 6.39L828-134.31q5.62 5.62 6 10.77.38 5.16-6 11.54-6.38 6.38-11.65 6.38-5.27 0-11.66-6.38ZM481.54-707.69q11.15 0 18.96-7.81 7.81-7.81 7.81-18.96 0-11.16-7.81-18.96-7.81-7.81-18.96-7.81-11.16 0-18.96 7.81-7.81 7.8-7.81 18.96 0 11.15 7.81 18.96 7.8 7.81 18.96 7.81ZM312.62-88q-23.85 0-40.24-16.38Q256-120.77 256-144.62v-561.69l448 448v113.69q0 25.85-17.88 41.24Q668.23-88 647.38-88H312.62ZM704-815.38v148.61q16.92-5.38 30.92 4.39 14 9.76 14 25.92v86.77q0 16.15-14 25.92-14 9.77-30.92 4.39v89.23q0 18.61-17.38 25.8-17.39 7.2-30.54-5.96l-394.77-394q-4.23-4.23-6.35-9.96-2.11-5.73-2.11-12.73 0-16.92 13.88-30.96Q280.62-872 305.69-872h341.69q23.85 0 40.24 16.38Q704-839.23 704-815.38Z"/></svg>