<svg xmlns="http://www.w3.org/2000/svg" height="20" viewBox="0 -960 960 960" width="20"><path d="M208-555.31q0-106.38 78.69-187.54Q365.38-824 479.23-824q147.15 0 213.04 102.92Q758.15-618.15 750.46-496l81.39-84.46q5.61-5.62 11.27-5.62 5.65 0 11.26 5.62 5.62 5.61 5.62 10.88 0 5.27-5.62 10.89l-99.53 103.38q-8.7 8.69-20.39 8.69-11.69 0-20.38-8.69l-99.54-103.38q-5.62-5.62-5.12-10.89.5-5.27 6.12-10.88 5.61-5.62 11.27-5.62 5.65 0 11.27 5.62L718.46-496q10-129.69-59.11-212.85Q590.23-792 479.23-792q-100 0-169.61 71.08Q240-649.85 240-555.77q0 75.46 52.73 161.96 52.73 86.5 168.04 198.19 6.92 6.93 17.31 7.31 10.38.39 17.3-6.54 20-18.53 36.04-35.07t27.66-28.93q-11.31-11.23-17.35-26.5-6.04-15.27-6.04-32.8 0-31.54 22.23-53.77 22.23-22.23 53.77-22.23 31.54 0 53.39 22.23 21.84 22.23 21.84 53.77 0 31.53-21.84 53.38-21.85 21.85-53.39 21.85-4.77 0-9.31-.39-4.53-.38-9.3-2.92-17.46 18.46-35.93 38.08-18.46 19.61-39.92 38.07-8.46 6.7-17.77 10.43-9.31 3.73-20 3.73-11.69 0-21.5-4.23t-18.5-11.93q-117.84-111-174.65-205T208-555.31Z"/></svg>