<svg xmlns="http://www.w3.org/2000/svg" height="20" viewBox="0 -960 960 960" width="20"><path d="M378.92-232q-13.19 0-25-5.66-11.8-5.66-20.69-16.42L185.85-445.46q-11.7-16.92-11.7-34.54 0-17.62 11.7-34.54l147.38-191.38q8.89-10.76 20.69-16.42 11.81-5.66 25-5.66h388.46q23.36 0 39.99 16.64Q824-694.71 824-671.34v383.01q0 23.37-16.63 39.85T767.38-232H378.92Zm0-32h388.46q10.77 0 17.7-6.92 6.92-6.93 6.92-17.7v-382.76q0-10.77-6.92-17.7-6.93-6.92-17.7-6.92H378.92q-6.15 0-11.15 2.31t-8.85 6.92L211.54-495.38q-5.39 6.92-5.39 15.38t5.39 15.38l147.38 191.39q3.85 4.61 8.85 6.92 5 2.31 11.15 2.31Zm60.25-189.23q10.6 0 18.79-7.98t8.19-18.58q0-10.59-7.98-18.79-7.98-8.19-18.57-8.19-10.6 0-18.79 7.98t-8.19 18.58q0 10.59 7.98 18.79 7.98 8.19 18.57 8.19Zm120 0q10.6 0 18.79-7.98t8.19-18.58q0-10.59-7.98-18.79-7.98-8.19-18.57-8.19-10.6 0-18.79 7.98t-8.19 18.58q0 10.59 7.98 18.79 7.98 8.19 18.57 8.19Zm120 0q10.6 0 18.79-7.98t8.19-18.58q0-10.59-7.98-18.79-7.98-8.19-18.57-8.19-10.6 0-18.79 7.98t-8.19 18.58q0 10.59 7.98 18.79 7.98 8.19 18.57 8.19ZM498.69-480Z"/></svg>