<svg xmlns="http://www.w3.org/2000/svg" height="20" viewBox="0 -960 960 960" width="20"><path d="M411.85-155.38q-10.7 0-19.5-3.62-8.81-3.62-18.27-10.31-34.62-31.92-76.5-75.46-41.89-43.54-78.04-92.92-36.16-49.39-59.85-102.89Q136-494.08 136-545.15q0-110.93 75.15-194.89Q286.31-824 411.85-824q57.84 0 108.3 22.08 50.47 22.07 87.97 60.61t59.03 90.04q21.54 51.5 21.54 109.58 0 14.31-9.54 30.15-9.53 15.85-25.69 19.31-34.15 11-61.34 33.96-27.2 22.96-44.89 51.89-18.46 28.92-25.46 64.34T520-270.69q3.23 18.92 3.65 23.88.43 4.96-15.03 21.19-14.77 15.54-29.39 29.43-14.61 13.88-29.61 26.88-9.47 6.69-18.27 10.31-8.81 3.62-19.5 3.62Zm0-440.62q22.3 0 37.15-14.85 14.85-14.84 14.85-37.15T449-685.15Q434.15-700 411.85-700q-22.31 0-37.16 14.85-14.84 14.84-14.84 37.15t14.84 37.15Q389.54-596 411.85-596Zm367.92 312.46H619.08q-6.54 0-11.27-4.73-4.73-4.73-4.73-11.27 0-6.54 4.73-11.27 4.73-4.73 11.27-4.73h160.69l-64.08-65.84q-5.61-5.62-6-11.54-.38-5.93 5.23-10.77 5.62-5.62 11.66-5.23 6.04.38 11.65 6L820-319.15q8.69 8.69 8.69 19.61T820-279.92l-82.54 84.54q-5.61 5.61-11.27 5.23-5.65-.39-11.27-5.23-6.38-5.62-6-11.16.39-5.54 6-11.15l64.85-65.85ZM411.85-404q28.77 0 56.84-7.62 28.08-7.61 50.46-26.15 5-4.23 7.5-8.96t2.5-10.96q0-7.69-5.11-14.27-5.12-6.58-11.58-10.81-23.61-11.61-49.46-18.42-25.85-6.81-51.15-6.81-25.31 0-51.16 6.81-25.84 6.81-49.46 18.42-7.23 4.23-11.46 10.69-4.23 6.46-4.23 14.16 0 5.46 2 10.69 2 5.23 7 9.46 22.38 18.54 50.46 26.15 28.08 7.62 56.85 7.62Z"/></svg>