<svg xmlns="http://www.w3.org/2000/svg" height="20" viewBox="0 -960 960 960" width="20"><path d="M779.77-283.54h-161q-6.67 0-11.18-4.55-4.51-4.54-4.51-11.26 0-6.73 4.51-11.46t11.18-4.73h161l-64.08-65.84q-5.61-5.62-6-11.54-.38-5.93 5-10.91 5.85-5.48 11.89-5.09 6.04.38 11.65 6L820-319.15q8.69 8.32 8.69 19.43 0 11.1-8.69 19.8l-82.54 84.54q-5.61 5.61-11.27 5.23-5.65-.39-11.43-5.37-6.22-5.48-5.84-11.02.39-5.54 6-11.15l64.85-65.85ZM412.06-596q22.09 0 36.94-15.06 14.85-15.06 14.85-37.15 0-22.1-15.06-36.94Q433.73-700 411.63-700q-22.09 0-36.94 15.06-14.84 15.06-14.84 37.15 0 22.1 15.05 36.94Q389.96-596 412.06-596Zm-.21 110.15ZM136-545.15q0-110.93 75.15-194.89Q286.31-824 411.96-824q66.89 0 118.69 24.23 51.81 24.23 85.93 65.04 34.11 40.81 52.27 96.46Q687-582.62 687.46-520q.23 6.84-4.35 11.42T671.84-504q-6.69 0-10.85-4.6-4.17-4.6-4.53-11.4-.69-109.92-69.97-191.35-69.27-81.42-175.14-81.42-106.35 0-174.85 70.92-68.5 70.93-68.5 176.7 0 74.07 67.04 174.07t176.81 193.16q21.18-19.41 41.09-37.82 19.91-18.41 39.83-37.34 4.64-5.61 10.4-6.11 5.75-.5 11.37 5.11 5.61 5.62 5.23 11.66-.39 6.04-5.23 10.88-17.13 17.77-35.03 34.12-17.89 16.34-36.82 35.04-7.64 5.92-14.88 8.88-7.23 2.96-15.96 2.96-8.39 0-15.27-2.58-6.89-2.57-14.81-8.5-38.13-33.68-81.25-77.62-43.12-43.93-79.64-94.28t-60.7-104.15Q136-491.46 136-545.15ZM411.85-404q28.77 0 56.84-7.62 28.08-7.61 50.46-26.15 5-4.38 7.5-9.08t2.5-10.45q0-8.14-5.11-14.69-5.12-6.55-11.58-10.78-23.51-11.46-49.22-18.35-25.7-6.88-51.2-6.88-25.5 0-51.4 6.88-25.89 6.89-49.41 18.35-7.01 3.67-11.35 10.27t-4.34 14.67q0 5.87 2 10.99 2 5.13 7 9.07 22.38 18.54 50.46 26.15 28.08 7.62 56.85 7.62Z"/></svg>