<svg xmlns="http://www.w3.org/2000/svg" height="20" viewBox="0 -960 960 960" width="20"><path d="M804.77-590.85q-174.08-7.84-244.12 29.35-70.03 37.19-95.73 67.19 37.31-86.61 131.54-114.84 94.23-28.23 207.31-28.23L703.23-738.69q-5.61-5.62-5.11-10.39.5-4.77 6.11-10.38 5.62-5.62 10.77-5.62 5.15 0 10.77 5.62l126.61 125.84q8.7 8.7 8.7 19.62 0 10.92-8.7 19.62L725.77-467.77q-5.62 5.62-10.39 5.23-4.76-.38-10.38-6-5.62-5.61-5.62-11.27 0-5.65 5.62-11.27l99.77-99.77ZM208-553.54q0-114.61 79.08-192.54Q366.15-824 479.23-824q37.39 0 73.04 7.54 35.65 7.54 68.5 25.69 5.54 4.46 7.31 11.04 1.77 6.58-1.7 12.11-3.46 5.54-10.53 7.2-7.08 1.65-12.62-1.81-31.92-16.15-63.11-22.96-31.2-6.81-60.89-6.81Q380-792 310-723.54q-70 68.46-70 170 0 71.08 53.96 160.04t166.81 198.65q7.69 7.7 18.46 7.7t18.46-7.7q41.54-38.84 80.73-82.92 39.2-44.08 82.58-103.46 5.15-5.08 11.69-6.92 6.54-1.85 11.62 2.53 5.07 4.39 6.42 11.31 1.35 6.93-3.81 12-42.61 58.62-83.42 104.81-40.81 46.19-82.5 85.19-8.69 8.46-19.38 11.81-10.7 3.35-22.39 3.35-11.69 0-22-3.85t-19-12.31Q320.31-283.08 264.15-379.42 208-475.77 208-553.54Z"/></svg>