<svg xmlns="http://www.w3.org/2000/svg" height="20" viewBox="0 -960 960 960" width="20"><path d="M581.08-728q13.19 0 25 5.66 11.8 5.66 20.69 16.42l147.38 191.38q11.7 16.92 11.7 34.54 0 17.62-11.7 34.54L626.77-254.08q-8.89 10.76-20.69 16.42-11.81 5.66-25 5.66H458.77q-6.8 0-11.4-4.55-4.6-4.54-4.6-11.27 0-6.72 4.6-11.45 4.6-4.73 11.4-4.73h122.31q6.15 0 11.15-2.31t8.85-6.92l147.38-191.39q5.39-6.92 5.39-15.38t-5.39-15.38L601.08-686.77q-3.85-4.61-8.85-6.92-5-2.31-11.15-2.31H192.62q-10.77 0-17.7 6.92-6.92 6.93-6.92 17.7v136q0 6.8-4.55 11.4-4.54 4.6-11.27 4.6-6.72 0-11.45-4.6-4.73-4.6-4.73-11.4v-136q0-23.36 16.63-39.99Q169.26-728 192.62-728h388.46ZM243.57-208q-6.72 0-11.45-4.6-4.74-4.6-4.74-11.4v-80h-80q-6.8 0-11.4-4.55-4.6-4.54-4.6-11.27 0-6.72 4.6-11.45 4.6-4.73 11.4-4.73h80v-80q0-6.8 4.55-11.4 4.55-4.6 11.27-4.6t11.45 4.6q4.73 4.6 4.73 11.4v80h80q6.8 0 11.4 4.55 4.6 4.54 4.6 11.27 0 6.72-4.6 11.45-4.6 4.73-11.4 4.73h-80v80q0 6.8-4.54 11.4-4.55 4.6-11.27 4.6Zm217.74-272Z"/></svg>