<svg xmlns="http://www.w3.org/2000/svg" height="20" viewBox="0 -960 960 960" width="20"><path d="M480-149.77q-8.38 0-15.27-2.58-6.88-2.57-14.81-8.5-17.69-14.23-58.04-52.38-40.34-38.15-82.65-90.23-42.31-52.08-73.69-114.81-31.39-62.73-31.39-126.88 0-110.93 75.16-194.89Q354.46-824 480-824q124.54 0 200.19 83.96 75.66 83.96 75.66 194.89 0 64.15-31.89 127-31.88 62.84-73.31 115.3-41.42 52.47-81.77 89.73-40.34 37.27-58.03 51.5-7.93 5.93-15.2 8.89-7.27 2.96-15.65 2.96Zm0-211.61q10.85 0 17.73-6.89 6.89-6.88 6.89-17.73 0-10.85-6.89-17.73-6.88-6.89-17.73-6.89-10.85 0-17.73 6.89-6.89 6.88-6.89 17.73 0 10.85 6.89 17.73 6.88 6.89 17.73 6.89Zm1-108.16q6.38 0 11.04-5.31 4.65-5.3 4.65-11.69 0-7 3.39-13.88 3.38-6.89 9.15-15.66 6.54-9.3 14.69-15.19 8.16-5.88 14.93-12.65 20.69-18.7 29.77-37.5 9.07-18.81 9.07-39.81 0-35.85-26.88-60.77-26.89-24.92-64.73-24.92-30.39 0-55.66 13.54-25.27 13.53-40.04 38.38-3.46 6.38-1.38 12.77 2.08 6.38 8.46 9.85 6.39 3.46 12.27 1.76 5.89-1.69 9.35-8.07 10.3-17.54 28-27.43 17.69-9.88 37-9.88 23.84 0 41.54 15.31 17.69 15.31 17.69 39.92 0 16.54-9.39 32.69-9.38 16.16-29.38 35.46-1.16 2.7-9.04 10.08-7.88 7.39-15.65 18.39-6.77 9-10.27 17.73t-3.5 17.73q0 7.61 4.54 13.38 4.53 5.77 10.38 5.77Zm-1 291.62q109.77-93.16 176.81-193.16t67.04-174.07q0-105.77-68.5-176.7-68.5-70.92-175.35-70.92t-175.35 70.92q-68.5 70.93-68.5 176.7 0 74.07 67.04 174.07T480-177.92Zm0-369.46Z"/></svg>