<svg xmlns="http://www.w3.org/2000/svg" height="20" viewBox="0 -960 960 960" width="20"><path d="M144.62-227.38q-23.36 0-39.99-16.64Q88-260.65 88-284v-483.38q0-23.36 16.63-39.99Q121.26-824 144.62-824h223.07q23.36 0 39.99 16.63 16.63 16.63 16.63 39.99v141.84q0 10.69-8.04 18.73-8.05 8.04-18.73 8.04h-49.23q-49.49 0-84.13 34.67-34.64 34.67-34.64 84.19 0 49.53 34.86 84.49 34.87 34.96 84.68 34.96h48.46q10.68 0 18.73 8.06 8.04 8.07 8.04 18.68v49.96q0 23.41-16.63 39.89-16.63 16.49-39.99 16.49H144.62ZM256.24-679q11.81 0 19.44-7.72 7.63-7.72 7.63-19.52 0-11.81-7.72-19.44-7.72-7.63-19.53-7.63-11.8 0-19.43 7.72-7.63 7.72-7.63 19.53 0 11.8 7.72 19.43 7.72 7.63 19.52 7.63Zm86.15 224.23q-10.62 0-18.04-7.18-7.43-7.19-7.43-17.81 0-10.62 7.19-18.05 7.18-7.42 17.81-7.42 10.62 0 18.04 7.18 7.42 7.19 7.42 17.81 0 10.62-7.18 18.05-7.19 7.42-17.81 7.42Zm137.85 0q-10.62 0-18.05-7.18-7.42-7.19-7.42-17.81 0-10.62 7.18-18.05 7.19-7.42 17.81-7.42 10.62 0 18.05 7.18 7.42 7.19 7.42 17.81 0 10.62-7.18 18.05-7.19 7.42-17.81 7.42ZM592.31-136q-23.36 0-39.99-16.63-16.63-16.63-16.63-39.99v-141.07q0-10.69 8.04-18.73 8.05-8.04 18.73-8.04h48.46q49.49 0 84.13-34.67 34.64-34.67 34.64-84.19 0-49.53-34.86-84.49-34.87-34.96-84.68-34.96h-47.69q-10.68 0-18.73-8.06-8.04-8.07-8.04-18.82v-50.59q0-23.41 16.63-39.89 16.63-16.49 39.99-16.49h223.07q23.36 0 39.99 16.64Q872-699.35 872-676v483.38q0 23.36-16.63 39.99Q838.74-136 815.38-136H592.31Zm25-318.77q-10.62 0-18.04-7.18-7.42-7.19-7.42-17.81 0-10.62 7.18-18.05 7.19-7.42 17.81-7.42 10.62 0 18.04 7.18 7.43 7.19 7.43 17.81 0 10.62-7.19 18.05-7.18 7.42-17.81 7.42Zm86.63-132.85q11.8 0 19.43-7.71 7.63-7.72 7.63-19.53 0-11.8-7.72-19.43-7.72-7.63-19.52-7.63-11.81 0-19.44 7.72-7.63 7.71-7.63 19.52 0 11.81 7.72 19.44 7.72 7.62 19.53 7.62Z"/></svg>