<svg xmlns="http://www.w3.org/2000/svg" height="20" viewBox="0 -960 960 960" width="20"><path d="M480-287q95.23-85.15 143.62-164.58Q672-531 672-598.99q0-85.14-53.5-139.07Q565-792 480-792t-138.5 54.08Q288-683.85 288-599.45q0 67.45 48.38 146.37Q384.77-374.15 480-287Zm-.25 23.77q-9.21 0-17.54-2.62-8.33-2.61-15.97-9.69-93.09-86.77-141.66-168.32Q256-525.42 256-599.38q0-98.78 62.79-161.7Q381.58-824 480.06-824q98.48 0 161.21 62.92Q704-698.16 704-599.38q0 74.29-48.58 155.8-48.57 81.5-142.14 167.54-7.43 7.58-15.88 10.19-8.44 2.62-17.65 2.62Zm.6-280.15q23.5 0 39.88-16.74 16.39-16.73 16.39-40.23 0-23.5-16.74-39.88-16.73-16.39-40.23-16.39-23.5 0-39.88 16.74-16.39 16.73-16.39 40.23 0 23.5 16.74 39.88 16.73 16.39 40.23 16.39ZM272-136q-6.8 0-11.4-4.55-4.6-4.54-4.6-11.27 0-6.72 4.6-11.45Q265.2-168 272-168h416q6.8 0 11.4 4.55 4.6 4.54 4.6 11.27 0 6.72-4.6 11.45Q694.8-136 688-136H272Zm208-464Z"/></svg>