<svg xmlns="http://www.w3.org/2000/svg" height="20" viewBox="0 -960 960 960" width="20"><path d="M280.69-382q-14.15 10.69-29.42 2.76Q236-387.17 236-404.85v-150.3q0-17.68 15.27-25.61t29.42 2.76l107.93 75.15q11.92 8.78 11.92 22.89 0 14.11-11.92 22.81L280.69-382Zm283.49 50q-6.72 0-11.45-4.6Q548-341.2 548-348v-264q0-6.8 4.55-11.4 4.54-4.6 11.27-4.6 6.72 0 11.45 4.6Q580-618.8 580-612v264q0 6.8-4.55 11.4-4.54 4.6-11.27 4.6Zm144 0q-6.72 0-11.45-4.6Q692-341.2 692-348v-264q0-6.8 4.55-11.4 4.54-4.6 11.27-4.6 6.72 0 11.45 4.6Q724-618.8 724-612v264q0 6.8-4.55 11.4-4.54 4.6-11.27 4.6Z"/></svg>