<svg xmlns="http://www.w3.org/2000/svg" height="20" viewBox="0 -960 960 960" width="20"><path d="M480.41-136q-70.95 0-133.69-26.85-62.73-26.85-109.86-73.95t-73.99-109.61Q136-408.92 136-480q0-67.92 24-126.08 24-58.15 66.77-105.3 6.38-6.08 11.93-6.03 5.56.05 9.92 4.56 4.61 4.39 4.8 11.31.2 6.92-4.88 12.69-37.39 42.54-58.96 95.59Q168-540.21 168-480.33 168-350 259-259t221 91q130 0 221-90.78t91-221.58q0-60.26-21.58-113.1-21.57-52.85-58.96-95.39-5.08-5.77-4.88-12.69.19-6.92 4.8-11.31 4.62-4.38 10.04-4.5 5.43-.11 11.81 5.97Q776-664.23 800-606.08q24 58.16 24 126.08 0 71.08-26.84 133.59-26.84 62.51-73.92 109.61t-109.48 73.95Q551.36-136 480.41-136Zm-.23-296q-6.72 0-11.45-4.6Q464-441.2 464-448v-360q0-6.8 4.55-11.4 4.54-4.6 11.27-4.6 6.72 0 11.45 4.6Q496-814.8 496-808v360q0 6.8-4.55 11.4-4.54 4.6-11.27 4.6Z"/></svg>