<svg xmlns="http://www.w3.org/2000/svg" height="20" viewBox="0 -960 960 960" width="20"><path d="m759.15-156-95.61-95.38H674v10.76q0 23.55-16.53 40.09Q640.93-184 617.38-184H336.62q-23.55 0-40.09-16.5Q280-217 280-240.5v-87.27h-64.31q-23.54 0-40.08-16.5-16.53-16.5-16.53-40.35v-158.76q0-23.08 16.07-39.54 16.08-16.46 39.93-16.46h100.46L155.77-759.15q-4.85-4.52-5.23-10.72-.39-6.21 5.23-11.82 5.61-5.62 11.43-5.62 5.83 0 11.11 5.62l603.3 603.3q4.93 4.93 5.31 11.03.39 6.11-5.23 11.36-5.28 5.62-11.1 5.62-5.82 0-11.44-5.62Zm-422.53-60h280.76q10.77 0 17.7-6.92 6.92-6.93 6.92-17.7v-32.3L533.38-381.54H336.62q-10.77 0-17.7 6.92-6.92 6.93-6.92 17.7v116.3q0 10.77 6.92 17.7 6.93 6.92 17.7 6.92Zm124.46-383.38h283.84q23.85 0 39.93 16.07 16.07 16.08 16.07 39.93v182.53q0 15.19-12 24.52T759.31-327q-11.93 0-24.5-5.62-12.58-5.61-20.96-14L461.08-599.38Zm-38.77-38.77-65.19-65.19q-13.27-13.28-6.18-30.66 7.1-17.39 25.91-17.39h246.53q23.55 0 40.09 16.49Q680-718.42 680-694.94v29.75q0 10.65-8.04 18.84-8.04 8.2-18.73 8.2H422.31ZM692.4-471.38q15.22 0 25.72-10.29 10.5-10.29 10.5-25.5t-10.29-25.71q-10.29-10.5-25.5-10.5t-25.71 10.28q-10.5 10.29-10.5 25.5 0 15.22 10.28 25.72 10.29 10.5 25.5 10.5Z"/></svg>