<svg xmlns="http://www.w3.org/2000/svg" height="20" viewBox="0 -960 960 960" width="20"><path d="M656.07-520q-63.3 0-107.38-44.24-44.07-44.23-44.07-108.05 0-64.33 44.49-108.02T657.38-824q63.03 0 107.13 44.3 44.11 44.31 44.11 107.93 0 63.62-44.62 107.69Q719.38-520 656.07-520Zm.55-167.38q7.75 0 13.56-5.82 5.82-5.82 5.82-13.57V-724q0-7.75-5.82-13.57-5.81-5.81-13.56-5.81-7.76 0-13.57 5.81-5.82 5.82-5.82 13.57v17.23q0 7.75 5.82 13.57 5.81 5.82 13.57 5.82Zm-272.44 384q13.67 0 23.05-9.57 9.39-9.57 9.39-23.23 0-13.67-9.57-23.05-9.57-9.39-23.23-9.39-13.67 0-23.05 9.57-9.39 9.57-9.39 23.23 0 13.67 9.57 23.05 9.57 9.39 23.23 9.39ZM219-157.54q-5.08 0-8.54-2.69-3.46-2.69-5.69-6.62-2.23-3.92-2.31-7.33-.08-3.4 3.4-7.59L233.38-210q-42.8-8-70.09-40.79Q136-283.58 136-327.38V-672q0-53.85 55.08-76.35 55.07-22.5 197.54-25.42 18.07-.23 28.73 13.85 10.65 14.07 6.27 32.15-3.93 15.08-5.77 29-1.85 13.92-.62 29.23.23 10.92-6.71 19t-17.9 8.08H168V-464h351.38q5.4 0 11.27 1.75 5.87 1.75 10.5 3.4 11.96 5.31 24.46 10.01 12.49 4.7 25.47 8.69 4.61 0 8.3.61 3.7.62 9 4.16 9.7 2.76 16.66 10.5 6.96 7.73 6.96 17.42v81.61q0 44-27.29 75.93Q577.42-218 534.62-210l27.52 28.23q3.48 4.19 3.4 7.56-.08 3.37-2.31 7.36-1.84 4.21-5.48 6.76-3.64 2.55-8.98 2.55H219Zm437.62-440q9.6 0 15.64-6.43 6.05-6.43 6.82-15.26 0-9.29-6.43-16.26-6.43-6.97-16.03-6.97-9.6 0-16.04 6.43-6.43 6.43-6.43 16.03 0 9.6 6.43 16.03 6.44 6.43 16.04 6.43Z"/></svg>