<svg xmlns="http://www.w3.org/2000/svg" height="20" viewBox="0 -960 960 960" width="20"><path d="M159.15-674.46H428 159.15ZM219-157.54q-5.08 0-8.54-2.69-3.46-2.69-5.69-6.62-2.23-3.92-2.31-7.33-.08-3.4 3.4-7.59L233.38-210q-42.8-8-70.09-40.79Q136-283.58 136-327.38V-672q0-44.85 52.96-72.5t213.73-30.73q6.83 0 12.3 4.38 5.47 4.38 5.47 10.85 0 7.13-5.88 11.95-5.89 4.82-12.43 4.82-126.84 1.54-179.53 17-52.7 15.46-63.47 51.77h242.08q6.8 0 11.4 4.55 4.6 4.54 4.6 11.26 0 6.73-4.6 11.46t-11.4 4.73H168V-464h400.15q6.62 0 11.7 4.55 5.07 4.54 5.07 11.27 0 6.72-4.6 11.45-4.6 4.73-11.4 4.73H168v104.62q0 36.41 25.49 61.89Q218.97-240 255.38-240h257.24q36.41 0 61.89-25.49Q600-290.97 600-327.38v-90q0-6.8 4.55-11.4 4.54-4.6 11.27-4.6 6.72 0 11.45 4.6 4.73 4.6 4.73 11.4v91.53q0 44-27.29 75.93Q577.42-218 534.62-210l27.52 28.23q3.48 4.19 3.4 7.56-.08 3.37-2.31 7.36-1.84 4.21-5.48 6.76-3.64 2.55-8.98 2.55H219ZM656.07-520q-63.3 0-107.38-44.24-44.07-44.23-44.07-108.05 0-64.33 44.49-108.02T657.38-824q63.03 0 107.13 44.3 44.11 44.31 44.11 107.93 0 63.62-44.62 107.69Q719.38-520 656.07-520Zm.55-167.38q7.75 0 13.56-5.82 5.82-5.82 5.82-13.57V-724q0-7.75-5.82-13.57-5.81-5.81-13.56-5.81-7.76 0-13.57 5.81-5.82 5.82-5.82 13.57v17.23q0 7.75 5.82 13.57 5.81 5.82 13.57 5.82Zm0 89.84q9.6 0 15.64-6.43 6.05-6.43 6.82-15.26 0-9.29-6.43-16.26-6.43-6.97-16.03-6.97-9.6 0-16.04 6.43-6.43 6.43-6.43 16.03 0 9.6 6.43 16.03 6.44 6.43 16.04 6.43ZM384.18-303.38q13.67 0 23.05-9.57 9.39-9.57 9.39-23.23 0-13.67-9.57-23.05-9.57-9.39-23.23-9.39-13.67 0-23.05 9.57-9.39 9.57-9.39 23.23 0 13.67 9.57 23.05 9.57 9.39 23.23 9.39ZM600-432H168h440.92H600Z"/></svg>