<svg xmlns="http://www.w3.org/2000/svg" height="20" viewBox="0 -960 960 960" width="20"><path d="m638.38-257.38-45.23 45.23q-11.61 11.61-28.65 11.23-17.04-.39-27.88-11.23Q525-223.77 525-240.42q0-16.66 11.62-28.27l45.23-46q-4.54-10.77-7.2-21.54Q572-347 572-359.83q0-46.87 32.5-79.29 32.51-32.42 79.5-32.42 7.13 0 13.49 1t12.82 2.23q8.69 4.23 10.31 11.89 1.61 7.65-4.54 13.8L684-410.54q-11 11-11.38 25.12-.39 14.11 11.38 25.88 11 11 25.12 11 14.11 0 25.88-11l32.08-31.31q6.15-6.15 14.19-4.92 8.04 1.23 11.5 9.92 1.23 6.47 2.23 13.12 1 6.65 1 12.92 0 47.58-32.5 79.93-32.51 32.34-79.5 32.34-12.11 0-23.68-2.65-11.57-2.66-21.94-7.19ZM479-744q-109 0-186 77t-77 186q0 74.31 37.42 134.62 37.43 60.3 98.58 91.69V-320q0-6.84 4.52-11.42t11.27-4.58q6.75 0 11.48 4.58T384-320v107.69q0 12.23-8.04 20.27T355.69-184H248q-6.84 0-11.42-4.52T232-199.79q0-6.75 4.58-11.48T248-216h102.46q-73.61-36-120.04-106.26Q184-392.51 184-480q0-60.54 23.24-114.59 23.24-54.06 63.67-94.5 40.44-40.43 94.5-63.67Q419.46-776 480-776q85.38 0 156.52 48.7 71.14 48.7 118.33 138.53 3.07 5.11.8 11.79-2.27 6.67-9.23 9.06-5.51 2.15-11.47-.77-5.95-2.93-8.64-8.46-25.69-70.47-92.77-118.66Q566.47-744 479-744Z"/></svg>