<svg xmlns="http://www.w3.org/2000/svg" height="20" viewBox="0 -960 960 960" width="20"><path d="M632.62-168q26.93 0 45.16-18.22Q696-204.45 696-231.38q0-26.94-18.22-45.17-18.23-18.22-45.16-18.22-26.94 0-45.17 18.22-18.22 18.23-18.22 45.17 0 26.93 18.22 45.16Q605.68-168 632.62-168Zm0-497.23q26.93 0 45.16-18.22Q696-701.68 696-728.62q0-26.93-18.22-45.16Q659.55-792 632.62-792q-26.94 0-45.17 18.22-18.22 18.23-18.22 45.16 0 26.94 18.22 45.17 18.23 18.22 45.17 18.22Zm0 32q-20.7 0-38-8.39Q577.31-650 564.38-664L296.92-498.15q-3.46 2.23-8.04 4.11-4.57 1.89-9.12.99-6.03-.7-12.39-1.21t-11.99-.51q-24.38 0-48.38 4.08-24 4.07-46.18 14.54-5.2 2.46-9.05 1.07-3.85-1.38-8.08-5.61t-4.96-9.96q-.73-5.73.69-11.92 7.5-32.81 33.86-52.81 26.37-20 57.34-20 20.39 0 38.23 8 17.84 8 30.77 22l243.92-151.16q-2.77-7.77-4.54-15.73-1.77-7.96-1.77-16.35 0-39.74 27.87-67.56Q592.98-824 632.8-824q39.82 0 67.51 27.87Q728-768.25 728-728.43q0 39.81-27.82 67.51-27.82 27.69-67.56 27.69ZM632.43-136q-39.81 0-67.51-27.82-27.69-27.82-27.69-67.56 0-9 6.31-31.31l-45.46-26.93q-7.29-4.3-8.65-12.61-1.35-8.31 2.8-15.85 4.15-7.61 12.19-8.8 8.04-1.2 15.27 2.96L564.38-296q12.93-14 30.28-22.38 17.35-8.39 37.96-8.39 39.74 0 67.56 27.87Q728-271.02 728-231.2q0 39.82-27.87 67.51Q672.25-136 632.43-136Zm-377.27 32.62q-63.62 0-107.7-44.31-44.08-44.3-44.08-107.92 0-63.62 44.31-107.7 44.3-44.07 107.92-44.07 63.62 0 107.7 44.3 44.07 44.3 44.07 107.92 0 63.62-44.3 107.7-44.3 44.08-107.92 44.08Zm-.78-130.16 45.08 44.31q4.68 4.46 11.04 4.85 6.36.38 11.81-4.85 5.23-5.44 5.23-11.54 0-6.1-5.23-11.54l-45.08-44.07 44.31-44.31q4.46-4.68 4.84-11.04.39-6.36-4.84-11.81-5.45-5.23-11.42-5.23-5.98 0-11.43 5.23l-44.31 44.31-44.3-44.31q-4.46-4.46-10.54-4.84-6.08-.39-11.31 4.84-5.23 5.45-5.23 11.42 0 5.98 5.23 11.43l43.31 44.31-44.31 44.3q-4.46 4.46-4.85 10.54-.38 6.08 4.85 11.31 5.66 5.23 11.92 5.23 6.27 0 11.93-5.23l43.3-43.31Zm378.24 2.16Zm0-497.24Z"/></svg>