<svg xmlns="http://www.w3.org/2000/svg" height="20" viewBox="0 -960 960 960" width="20"><path d="M632.62-633.23q-20.7 0-38-8.39Q577.31-650 564.38-664L296.92-498.15q-3.46 2.23-8.04 4.11-4.57 1.89-9.12.99-6.22-1.03-12.53-1.37-6.31-.35-11.85-.35-24.69 0-48.53 4.08-23.85 4.07-46 14.77-5.23 2.23-9.08.84-3.85-1.38-8.08-5.61t-4.96-9.96q-.73-5.73.5-12.2 7.69-32.53 33.89-52.53 26.19-20 57.5-20 20.6 0 38.33 8 17.74 8 30.67 22l243.92-151.16q-2.77-7.77-4.54-15.73-1.77-7.96-1.77-16.35 0-40 27.69-67.69 27.7-27.69 67.7-27.69t67.69 27.69Q728-768.62 728-728.62t-27.69 67.7q-27.69 27.69-67.69 27.69Zm0 497.23q-40 0-67.7-27.69-27.69-27.69-27.69-67.69 0-9 6.31-31.31l-45.46-26.93q-7.62-4.15-8.81-12.53-1.19-8.39 2.96-15.93 4.15-7.61 12.19-8.8 8.04-1.2 15.27 2.96L564.38-296q12.93-14 30.28-22.38 17.35-8.39 37.96-8.39 40 0 67.69 27.69 27.69 27.7 27.69 67.7t-27.69 67.69Q672.62-136 632.62-136Zm-377.46 32.62q-63.62 0-107.7-44.31-44.08-44.3-44.08-107.92 0-63.62 44.31-107.7 44.3-44.07 107.92-44.07 63.62 0 107.7 44.3 44.07 44.3 44.07 107.92 0 63.62-44.3 107.7-44.3 44.08-107.92 44.08Zm-.78-130.16 45.08 44.31q4.68 4.46 11.04 4.85 6.36.38 11.81-4.85 5.23-5.44 5.23-11.54 0-6.1-5.23-11.54l-45.08-44.07 44.31-44.31q4.46-4.68 4.84-11.04.39-6.36-4.84-11.81-5.45-5.23-11.42-5.23-5.98 0-11.43 5.23l-44.31 44.31-44.3-44.31q-4.46-4.46-10.54-4.84-6.08-.39-11.31 4.84-5.23 5.45-5.23 11.42 0 5.98 5.23 11.43l43.31 44.31-44.31 44.3q-4.46 4.46-4.85 10.54-.38 6.08 4.85 11.31 5.66 5.23 11.92 5.23 6.27 0 11.93-5.23l43.3-43.31Z"/></svg>