<svg xmlns="http://www.w3.org/2000/svg" height="20" viewBox="0 -960 960 960" width="20"><path d="M478.51-306.46q10.8 0 17.68-6.94 6.89-6.94 6.89-17.73t-6.94-17.68q-6.94-6.88-17.73-6.88t-17.68 6.93q-6.88 6.94-6.88 17.74 0 10.79 6.93 17.67 6.94 6.89 17.73 6.89ZM481.29-416q6.35 0 10.11-4.15 3.75-4.16 5.52-10.77 1.77-6.3 4.16-11.77 2.38-5.46 5.1-9.6 3.6-5.86 7.02-11.33 3.42-5.46 7.65-9.69 20-20.77 37.27-43.53 17.26-22.75 17.26-51.47 0-36.2-27.77-59.94Q519.83-652 482.8-652q-27.4 0-51.48 11.96-24.09 11.96-39.32 34.46-3.69 5.81-1.31 12.77 2.38 6.95 8.73 10.12 6.04 2.84 12.31.92 6.27-1.92 10.72-7.85 10.01-14.84 25.58-22.65 15.56-7.81 34.51-7.81 23.78 0 41.62 15.31Q542-589.46 542-564.85q0 20.26-12.45 35.18-12.45 14.92-26.63 29.52-8.46 7.69-14.93 16.42-6.48 8.73-12.37 19.42-5 7.69-8.54 14.99-3.54 7.3-3.54 16.14 0 7.33 5.03 12.25 5.03 4.93 12.72 4.93ZM480-94.31q-8.46 0-18.46-1.5t-19.25-4.5q-125.06-47-200.67-165.65Q166-384.62 166-516v-162.31q0-35.27 19.71-63.89 19.71-28.62 52.29-41.03l203.38-75q18.7-7.23 38.62-7.23 19.92 0 38.62 7.23l203.38 75q32.58 12.41 52.29 41.03T794-678.31V-516q0 131.38-75.62 250.04-75.61 118.65-200.67 165.65-9.25 3-19.25 4.5T480-94.31Z"/></svg>