<svg xmlns="http://www.w3.org/2000/svg" height="20" viewBox="0 -960 960 960" width="20"><path d="M312-136h211.69v-183.38H255.38v126.76q0 23.36 16.64 39.99Q288.65-136 312-136Zm243.69 0h211.69q23.36 0 39.99-16.63Q824-169.26 824-192.62v-126.76H555.69V-136ZM152.18-270.77q-6.72 0-11.45-4.6-4.73-4.6-4.73-11.4v-480.85q0-27.38 14.5-41.88Q165-824 192.38-824h480.85q6.8 0 11.4 4.55 4.6 4.54 4.6 11.27 0 6.72-4.6 11.45-4.6 4.73-11.4 4.73H192.62q-10.77 0-17.7 6.92-6.92 6.93-6.92 17.7v480.61q0 6.8-4.55 11.4-4.54 4.6-11.27 4.6Zm103.2-80.61h268.31v-184.93H255.38v184.93Zm300.31 0H824v-184.93H555.69v184.93ZM255.38-568.31H824v-79.9q0-23.44-16.63-39.92-16.63-16.49-39.99-16.49H312q-23.35 0-39.98 16.64-16.64 16.63-16.64 39.98v79.69Z"/></svg>