<svg xmlns="http://www.w3.org/2000/svg" height="20" viewBox="0 -960 960 960" width="20"><path d="M312-136h211.69v-183.38H255.38v126.76q0 23.36 16.64 39.99Q288.65-136 312-136Zm243.69 0h211.69q23.36 0 39.99-16.63Q824-169.26 824-192.62v-126.76H555.69V-136ZM136-270.77v-497.06q0-27.17 14.5-41.67t41.67-14.5h497.06v32H192.62q-10.77 0-17.7 6.92-6.92 6.93-6.92 17.7v496.61h-32Zm119.38-80.61h268.31v-184.93H255.38v184.93Zm300.31 0H824v-184.93H555.69v184.93ZM255.38-568.31H824v-79.9q0-23.44-16.63-39.92-16.63-16.49-39.99-16.49H312q-23.35 0-39.98 16.64-16.64 16.63-16.64 39.98v79.69Z"/></svg>