<svg xmlns="http://www.w3.org/2000/svg" height="20" viewBox="0 -960 960 960" width="20"><path d="M312-136q-27.62 0-42.12-14.5-14.5-14.5-14.5-42.12V-648q0-27.62 14.5-42.12 14.5-14.5 42.12-14.5h455.38q27.62 0 42.12 14.5Q824-675.62 824-648v455.38q0 27.62-14.5 42.12Q795-136 767.38-136H312Zm0-32h211.69v-168.15H287.38v143.53q0 10.77 6.93 17.7Q301.23-168 312-168Zm243.69 0h211.69q10.77 0 17.7-6.92 6.92-6.93 6.92-17.7v-143.53H555.69V-168ZM136-270.77v-497.06q0-27.17 14.5-41.67t41.67-14.5h497.06v32H192.62q-10.77 0-17.7 6.92-6.92 6.93-6.92 17.7v496.61h-32Zm151.38-97.38h236.31v-168.93H287.38v168.93Zm268.31 0H792v-168.93H555.69v168.93ZM287.38-569.08H792V-648q0-10.77-6.92-17.69-6.93-6.93-17.7-6.93H312q-10.77 0-17.69 6.93-6.93 6.92-6.93 17.69v78.92Z"/></svg>