<svg xmlns="http://www.w3.org/2000/svg" height="20" viewBox="0 -960 960 960" width="20"><path d="M324.15-94.15 358-176.31h-63.69l40.31-122.46h77.23l-33.08 80.62h62.92l-91.07 124h-26.47ZM558.62-136l25.15-61.23h-53.46l29.07-101.54h77.24l-22.85 59.69h51.92L573.08-136h-14.46ZM295-356q-77.31 0-128.15-55.35Q116-466.69 116-545q0-71.62 49.81-121.73 49.81-50.12 124.5-57.81 27.69-55.23 78.34-87.34Q419.31-844 480-844q81.15 0 139.54 54.12 58.38 54.11 68.54 136.34 71.61.46 113.77 46.23Q844-561.54 844-504q0 61.54-43.23 104.77T696-356H295Zm5-32h396q47.69 0 81.85-34.15Q812-456.31 812-504t-34.15-81.85Q743.69-620 696-620h-33l-9-40q-8-65.46-57.77-108.73Q546.46-812 480-812q-52.15 0-95.15 28.46-43 28.46-65.31 75.85L310.92-692H300q-63.46 0-107.73 44.27T148-540q0 63.46 44.27 107.73T300-388Zm180-212Z"/></svg>