<svg xmlns="http://www.w3.org/2000/svg" height="20" viewBox="0 -960 960 960" width="20"><path d="M491.69-136q-28.61 0-54.61-11.54t-44.31-33.38L208.54-402q-5.16-7.92-5.42-16.15-.27-8.23 6.65-15.16l5-5q5-5 11.77-8.46 6.77-3.46 15.23-3.15l121.92 44.61v-295.92q0-6.8 4.55-11.4 4.55-4.6 11.27-4.6t11.07 4.6q4.34 4.6 4.34 11.4v291.97q0 14.4-10.5 22.6-10.5 8.2-24.65 5.04l-132-52.61L419.31-200q12.92 16.37 32.19 24.18 19.28 7.82 40.19 7.82h111.54q38.93 0 65.85-26.53Q696-221.07 696-260v-151.54q0-17.19-12.34-28.06-12.34-10.86-30.58-10.86H513.35q-6.16 0-10.91-4.55t-4.75-11.27q0-6.72 4.6-11.45 4.6-4.73 11.4-4.73h139.39q30.38 0 52.65 20.27T728-411.54v151.49q0 52.36-36.35 88.2Q655.3-136 603.23-136H491.69Zm-28.92-189.23Zm-83.17-550q82.55 0 140.21 57.75 57.65 57.75 57.65 140.25 0 21.46-4 41.17t-12.77 38.21q-1.69 3.39-6.34 5.35-4.66 1.96-8.91-.09-4.26-2.04-5.58-6.57-1.32-4.53.37-8.38 6.54-16.54 10.69-34.19 4.16-17.66 4.16-35.5 0-72.76-50.92-123.69-50.92-50.93-123.65-50.93-72.74 0-123.7 50.93-50.96 50.93-50.96 123.69 0 20.31 5.03 38.85 5.04 18.53 12.58 36.07 2.46 3.85.86 8.46-1.6 4.61-6.13 7.58-4.52 2.96-9.43 1.39-4.9-1.58-6.76-4.97-9.77-19.46-14.65-41.86-4.89-22.41-4.89-45.52 0-82.5 57.5-140.25t139.64-57.75Zm1 90.61q43.86 0 75.55 31.8 31.7 31.79 31.7 75.59 0 8.77-1.5 17.77t-5.04 17q-1.51 5.2-5.64 7.6-4.13 2.4-9.52 1.44-5.38-.96-6.92-5.73-1.54-4.77-.08-8.39 1.77-4.38 5.31-29.2 0-35.49-24.75-59.99-24.74-24.5-59.5-24.5-34.75 0-59.25 24.88-24.5 24.89-24.5 59.12 0 9.31 1.77 17.35 1.77 8.03 4.54 16.34 2.23 3.99.81 8.34-1.43 4.35-6.56 6.58-5.13 2.24-9.77.04-4.63-2.19-6.87-8.34-3.76-8.77-5.53-19.04-1.77-10.27-1.77-21.27 0-44.23 31.83-75.81 31.83-31.58 75.69-31.58Z"/></svg>