<svg xmlns="http://www.w3.org/2000/svg" height="20" viewBox="0 -960 960 960" width="20"><path d="M656.83-328q-6.71 0-11.46-4.55-4.75-4.54-4.75-11.27 0-6.72 4.54-11.45 4.53-4.73 11.25-4.73h24.61q6.71 0 11.46 4.55 4.75 4.54 4.75 11.27 0 6.72-4.54 11.45-4.54 4.73-11.25 4.73h-24.61Zm-.21-124q-6.8 0-11.4-4.55-4.6-4.54-4.6-11.27 0-6.72 4.6-11.45 4.6-4.73 11.4-4.73h72.61q6.8 0 11.4 4.55 4.6 4.54 4.6 11.27 0 6.72-4.6 11.45-4.6 4.73-11.4 4.73h-72.61Zm0-124q-6.8 0-11.4-4.66-4.6-4.67-4.6-11.27 0-6.61 4.68-11.34 4.68-4.73 11.32-4.73h120.61q6.8 0 11.4 4.55 4.6 4.54 4.6 11.27 0 6.72-4.6 11.45-4.6 4.73-11.4 4.73H656.62ZM384.2-312q69.8 0 118.8-49.2t49-119q0-69.8-49.2-118.8t-119-49Q314-648 265-598.8t-49 119q0 69.8 49.2 118.8t119 49Zm-30.97 176q-12.69 0-21.49-8.18-8.8-8.18-10.82-19.9l-25.3-104.54q-4.24-15.92-12.81-29.42-8.58-13.5-24.05-25.59-34.84-27.37-54.8-68.11Q184-432.49 184-479.97q0-46.57 19.96-87.8t55.43-69.63q15.84-13.06 24.4-26.45 8.56-13.38 12.83-27.53l25.3-104.54q2.02-11.72 10.82-19.9 8.8-8.18 21.49-8.18h59.54q12.69 0 21.49 8.18 8.8 8.18 10.82 19.9l25.3 104.54q4.24 15.92 12.81 28.92 8.58 13 24.42 25.09 35.47 27.37 55.43 68.35Q584-528.04 584-480.29q0 46.83-19.96 87.56-19.96 40.73-54.8 69.13-15.47 13.06-24.03 26.78t-12.83 28.2l-25.3 104.54q-2.02 11.72-10.82 19.9-8.8 8.18-21.49 8.18h-61.54Z"/></svg>