<svg xmlns="http://www.w3.org/2000/svg" height="24" viewBox="0 -960 960 960" width="24"><path d="M60.78-140.78 309.26-480 60.78-819.22h536.39q25.29 0 47.91 11.33 22.62 11.32 37.57 31.98L899.22-480l-19.7 27.91q-36.69-26.95-78.82-41.21-42.12-14.26-87.48-14.26-117 0-198.5 81.5t-81.5 197.5q0 22.26 3.56 44.28 3.57 22.02 10.7 43.5H60.78ZM713.22-27.56q-83 0-141.5-58.5t-58.5-141.5q0-83 58.5-141.5t141.5-58.5q83 0 141.5 58.5t58.5 141.5q0 83-58.5 141.5t-141.5 58.5Zm-29-102.09 146.91-145.91-49.91-49.92-97 95-39-39-49.92 50.92 88.92 88.91Z"/></svg>