<svg xmlns="http://www.w3.org/2000/svg" height="24" viewBox="0 -960 960 960" width="24"><path d="M575.65-538.91 387.57-727.57l75.08-74.65 113 113.56 227-226.56 74.66 74.65-301.66 301.66ZM326.78-216.04l269.52 74.3 238-74q-5-9-14.5-15.5t-21.5-6.5H590.65q-22.48 0-37.91-2-15.44-2-32.44-7.82l-93-30.05 23.13-78 86.66 28.13q13.61 4.44 34.91 6.87 21.3 2.44 66.3 2.87 0-11-6.5-21t-15.5-13l-234-86h-55.52v221.7Zm-266 155.26v-474.48h319.83q9.26 0 18.52 1.78t18.09 4.91l232.74 86.44q38.08 14.26 61.69 47.93 23.61 33.68 23.61 76.46h63.04q57.07 0 97.02 30.46 39.94 30.45 39.94 89.54v53L598.3-39.65l-271.52-76.31v55.18h-266Zm97.52-96.96h70.96v-280H158.3v280Z"/></svg>