<svg xmlns="http://www.w3.org/2000/svg" height="24" viewBox="0 -960 960 960" width="24"><path d="M286.22-60.78q-44.31 0-75.16-30.85-30.84-30.85-30.84-75.15v-386.44q0-44.3 30.84-75.15 30.85-30.85 75.16-30.85h387.56q44.31 0 75.16 30.85 30.84 30.85 30.84 75.15v386.44q0 44.3-30.84 75.15-30.85 30.85-75.16 30.85H286.22Zm146.43-140.35h94.7v-51.31h-94.7v51.31Zm0-85.65h94.7q0-17.87 8.37-32.52 8.37-14.66 17.67-29.09 10.31-17 18.46-35.09 8.15-18.09 8.15-37.95 0-39.31-29.57-66.11-29.56-26.81-70.43-26.81-40.87 0-70.43 26.81Q380-460.74 380-421.43q0 19.86 8.09 37.73 8.08 17.87 17.95 34.31 9.31 14.87 17.96 29.8 8.65 14.94 8.65 32.81ZM221.91-707.91q0-30.66 21.46-50.98 21.46-20.33 52.11-20.33h369.61q30.65 0 51.82 20.33 21.18 20.32 21.18 50.98H221.91Zm41.13-120q0-30.66 21.18-50.98 21.17-20.33 51.82-20.33h287.92q30.65 0 51.82 20.33 21.18 20.32 21.18 50.98H263.04Z"/></svg>