<svg xmlns="http://www.w3.org/2000/svg" height="24" viewBox="0 -960 960 960" width="24"><path d="M824.57-60.78 719.96-165.39q-22 11.87-45.44 18.24-23.43 6.37-48.3 6.37-80.42 0-136.71-56.29-56.29-56.3-56.29-136.71 0-80.42 56.29-136.71 56.29-56.29 136.71-56.29 80.41 0 136.71 56.29 56.29 56.29 56.29 136.71 0 24.87-6.37 48.3-6.37 23.44-18.24 45.44l104.61 104.61-74.65 74.65Zm-198.49-186q36.49 0 61.81-25.19 25.33-25.19 25.33-61.68 0-36.48-25.19-61.81-25.19-25.32-61.68-25.32-36.48 0-61.81 25.19-25.32 25.19-25.32 61.67 0 36.49 25.19 61.81 25.19 25.33 61.67 25.33Zm233.14-317.74h-106v-188.7h-76.05v129.05H282.83v-129.05h-76.05v546.44h188.7v106h-188.7q-43.72 0-74.86-31.14t-31.14-74.86v-546.44q0-43.72 31.14-74.86t74.86-31.14H352.3q14.4-36.69 49.94-59.76 35.55-23.06 77.76-23.06 42.83 0 78.28 23.06 35.46 23.07 50.42 59.76h144.52q43.72 0 74.86 31.14t31.14 74.86v188.7ZM480-761.7q17 0 28.5-11.5t11.5-28.5q0-17-11.5-28.5T480-841.7q-17 0-28.5 11.5T440-801.7q0 17 11.5 28.5t28.5 11.5Z"/></svg>