<svg xmlns="http://www.w3.org/2000/svg" height="24" viewBox="0 -960 960 960" width="24"><path d="M724.52-362.48ZM501.7-585.3ZM373.78-713.22l-106-106h486q44.31 0 75.16 30.85 30.84 30.85 30.84 75.15h-486Zm350.74 286q15.45 0 25.55-10.41 10.1-10.41 10.1-25.24 0-15.45-10.1-25.55-10.1-10.1-25.55-10.1-14.82 0-25.24 10.1-10.41 10.1-10.41 25.55 0 14.83 10.41 25.24 10.42 10.41 25.24 10.41Zm170.13 234.87-90.13-90.13v-256.04h-160v96.04l-93.56-93.56v-28.7q3.95-28.96 25.97-48.72 22.03-19.76 52.68-19.76H820q33.48 0 56.35 23.27 22.87 23.27 22.87 56.52V-220q0 7.4-1 14.18-1 6.78-3.57 13.47ZM835.26-1.43 695.91-140.78h-66.3q-32.91 0-56.35-23.44-23.43-23.43-23.43-56.35v-66.3L205.65-630.48v237.7h272.87v106H205.65q-44.3 0-75.15-30.85-30.85-30.85-30.85-75.15v-320.44q0-5.39.57-10.5.56-5.11 1.69-10.5L.3-835.83l62.22-62.21L896.91-63.09 835.26-1.43ZM324.78-511.91Zm-264 371.13v-106h417.74v106H60.78Z"/></svg>