<svg xmlns="http://www.w3.org/2000/svg" height="24" viewBox="0 -960 960 960" width="24"><path d="M205.65-286.78q-44.3 0-75.15-30.85-30.85-30.85-30.85-75.15v-320.44q0-44.3 30.85-75.15 30.85-30.85 75.15-30.85h548.13q44.31 0 75.16 30.85 30.84 30.85 30.84 75.15H629.61q-66.48 0-113.13 46.51-46.65 46.52-46.65 112.71v267.22H205.65Zm423.96 146q-33.01 0-56.4-23.39-23.38-23.39-23.38-56.4V-554q0-33.24 23.38-56.23 23.39-22.99 56.4-22.99H820q33.24 0 56.23 22.99 22.99 22.99 22.99 56.23v333.43q0 33.01-22.99 56.4T820-140.78H629.61Zm-568.83 0v-106h409.05v106H60.78Zm663.74-286.44q15.21 0 25.43-10.41 10.22-10.41 10.22-25.24 0-15.45-10.22-25.55-10.22-10.1-25.43-10.1-14.82 0-25.24 10.1-10.41 10.1-10.41 25.55 0 14.83 10.41 25.24 10.42 10.41 25.24 10.41Z"/></svg>