<svg xmlns="http://www.w3.org/2000/svg" height="24" viewBox="0 -960 960 960" width="24"><path d="M469.83-553ZM60.78-140.78v-106h409.05v106H60.78Zm144.87-146q-44.3 0-75.15-30.85-30.85-30.85-30.85-75.15v-320.44q0-44.3 30.85-75.15 30.85-30.85 75.15-30.85h548.13q44.31 0 75.16 30.85 30.84 30.85 30.84 75.15H205.65v320.44h264.18v106H205.65Zm598.87 51.3v-303.04h-160v303.04h160Zm-174.91 94.7q-32.91 0-56.35-23.44-23.43-23.43-23.43-56.35V-554q0-33.48 23.43-56.35 23.44-22.87 56.35-22.87H820q33.48 0 56.35 22.87 22.87 22.87 22.87 56.35v333.43q0 32.92-22.87 56.35-22.87 23.44-56.35 23.44H629.61Zm94.91-286.44q15.45 0 25.55-10.41 10.1-10.41 10.1-25.24 0-15.45-10.1-25.55-10.1-10.1-25.55-10.1-14.82 0-25.24 10.1-10.41 10.1-10.41 25.55 0 14.83 10.41 25.24 10.42 10.41 25.24 10.41Zm0 40.22Z"/></svg>