<svg xmlns="http://www.w3.org/2000/svg" height="24" viewBox="0 -960 960 960" width="24"><path d="M835.26-1.43 695.91-140.78h-66.3q-32.91 0-56.35-23.44-23.43-23.43-23.43-56.35v-66.3l-80-80v80.09H205.65q-44.3 0-75.15-30.85-30.85-30.85-30.85-75.15v-320.44q0-5.39.57-10.5.56-5.11 1.69-10.5L.3-835.83l62.22-62.21L896.91-63.09 835.26-1.43ZM481.57-605.44 267.78-819.22h486q44.31 0 75.16 30.85 30.84 30.85 30.84 75.15H630.11q-51.98 0-92.68 30-40.71 30-55.86 77.78Zm413.08 413.09L550.96-536.04v-28.7q3.95-28.96 25.97-48.72 22.03-19.76 52.68-19.76H820q33.48 0 56.35 23.16 22.87 23.15 22.87 56.63V-220q0 7.13-1.2 14.04-1.2 6.92-3.37 13.61ZM724.52-427.22q15.26 0 25.46-10.41 10.19-10.41 10.19-25.24 0-15.26-10.19-25.45-10.2-10.2-25.46-10.2-14.82 0-25.24 10.2-10.41 10.19-10.41 25.45 0 14.83 10.41 25.24 10.42 10.41 25.24 10.41ZM60.78-140.78v-106h409.05v106H60.78Z"/></svg>