<svg xmlns="http://www.w3.org/2000/svg" height="24" viewBox="0 -960 960 960" width="24"><path d="M287.35-20.78q-44.31 0-75.15-30.85-30.85-30.85-30.85-75.15v-706.44q0-44.3 30.85-75.15 30.84-30.85 75.15-30.85h385.3q44.31 0 75.15 30.85 30.85 30.85 30.85 75.15v226.44H579.48l-33.13 133.21q-41.57 38.7-64.35 90.4-22.78 51.69-22.78 109.39 0 57.13 22.56 108.89 22.57 51.76 64.57 90.89l13.69 53.22H287.35Zm354.69 0-24.13-97.65q-37.13-27.7-57.91-68.18-20.78-40.48-20.78-87.17 0-46.7 20.78-87.18 20.78-40.47 57.91-68.17l24.13-97.65h180.35l24.13 97.65q37.13 27.7 57.92 68.17 20.78 40.48 20.78 87.18 0 46.69-20.78 87.17-20.79 40.48-57.92 68.18l-24.13 97.65H642.04Zm90.18-160.35q38.61 0 65.63-27.02 27.02-27.02 27.02-65.63t-27.02-65.63q-27.02-27.02-65.63-27.02t-65.63 27.02q-27.02 27.02-27.02 65.63t27.02 65.63q27.02 27.02 65.63 27.02ZM480-704.74q18.7 0 31.61-12.91t12.91-31.61q0-18.7-12.91-31.61T480-793.78q-18.7 0-31.61 12.91t-12.91 31.61q0 18.7 12.91 31.61T480-704.74Z"/></svg>