<svg xmlns="http://www.w3.org/2000/svg" height="24" viewBox="0 -960 960 960" width="24"><path d="M166.13-60.78h-65.35v-100.35h65.35q44.04 0 84.15-11.63 40.11-11.63 81.68-34.63 34.6 21.26 69.04 33.19 34.43 11.94 79 11.94t79-11.94q34.44-11.93 68.48-33.19 41.13 23 81.95 34.63 40.83 11.63 84.87 11.63h64.92v100.35H794.3q-42.78 0-84.19-9t-81.33-27q-37.17 18.43-73.56 27-36.39 8.56-75.22 8.56t-75-8.56q-36.17-8.57-73.35-27-39.91 18-81.32 27-41.42 9-84.2 9ZM480-230.96q-50.96 0-93.98-25.86-43.02-25.87-57.72-40.57-31.52 29.83-74.34 46.28-42.83 16.46-94.96 18.24L89.26-486.65q-5.57-20.96 4.98-39.2 10.54-18.24 31.5-24.93l48.82-13.74v-148.7q0-44.3 30.85-75.15 30.85-30.85 75.16-30.85h69.47v-80h259.92v80h69.47q44.31 0 75.16 30.85 30.85 30.85 30.85 75.15v148.7l48.82 13.74q20.96 6.69 31.5 24.93 10.55 18.24 4.98 39.2L801-232.87q-52.13-1.78-94.96-18.24-42.82-16.45-74.34-46.28-14.7 14.7-57.72 40.57-43.02 25.86-93.98 25.86Zm.87-100.34q31 0 58.67-13.16 27.68-13.15 49.37-34.45l41.48-41.7 35.35 32.39q14.39 12.7 30.7 21.35 16.3 8.65 33.52 15.83l32.43-116.78L480-548.17l-281.96 80.35 32.44 116.78q17.22-7.18 33.52-15.83 16.3-8.65 30.7-21.35l35.34-32.39 41.48 41.7q21.7 21.74 49.81 34.67 28.1 12.94 59.54 12.94ZM274.91-593.43 480-653.22 685.09-594v-124.87H274.91v125.44Zm205.52 153.47Z"/></svg>