<svg xmlns="http://www.w3.org/2000/svg" height="24" viewBox="0 -960 960 960" width="24"><path d="M267-64.17q66.52 0 109.41-34.39 42.89-34.4 63.89-93.27 17.6-51.88 33.65-72.63 16.05-20.76 70.92-63.63 59.74-47.74 97.43-113.56Q680-507.48 680-597.17q0-124.09-84.46-208.55-84.45-84.45-208.54-84.45-124.09 0-208.54 87.97Q94-714.22 94-584.17h106q0-85 53.74-142.5 53.73-57.5 133.17-57.5t133.26 53.76Q574-676.65 574-597.17q0 65.74-26.44 110.34-26.43 44.61-76.43 82.61-50.31 36.87-79.02 72.31-28.72 35.43-42.72 77.98-14 44.58-30.81 64.17-16.82 19.59-50.45 19.59-29.04 0-48.59-22.09Q200-214.35 200-250.17H94q0 83.52 50.82 134.76Q195.64-64.17 267-64.17Zm466.48-197q62.96-67.92 97.74-153.92 34.78-86 34.78-182.08 0-94.83-34.78-181.33-34.78-86.5-97.74-154.41l-74.96 74.08q50.57 54.53 76.02 121.72Q760-669.91 760-597.17q0 71.17-26.02 138.71-26.02 67.55-76.59 122.07l76.09 75.22ZM387-497.17q42 0 71-29.5t29-70.5q0-42-29-71t-71-29q-42 0-71 29t-29 71q0 41 29 70.5t71 29.5Z"/></svg>