<svg xmlns="http://www.w3.org/2000/svg" height="24" viewBox="0 -960 960 960" width="24"><path d="M381.96-592.44ZM360-22.48l-53-53v-237.74H100.78v-106.56l80-80v-265.31h-40v-106h297.44q-23.09 22.09-40.13 48.87-17.05 26.78-27.48 57.13h-83.83v309.48l-36.39 36.39h264.13q24.57 12.31 50.92 18.7 26.34 6.39 53.78 8.13v79.17H413v237.74l-53 53Zm273.22-648.61q25 0 42.5-17.5t17.5-42.5q0-25-17.5-42.5t-42.5-17.5q-25 0-42.5 17.5t-17.5 42.5q0 25 17.5 42.5t42.5 17.5Zm0 120q30.43 0 56.21-14.22 25.79-14.21 42.79-38.95-22.57-13.39-47.57-20.11-25-6.72-51.43-6.72-26.44 0-51.44 6.72-25 6.72-47.56 20.11 17 24.74 42.78 38.95 25.78 14.22 56.22 14.22Zm0 80q-83 0-141.5-58.5t-58.5-141.5q0-83 58.5-141.5t141.5-58.5q83 0 141.5 58.5t58.5 141.5q0 83-58.5 141.5t-141.5 58.5Z"/></svg>