<svg xmlns="http://www.w3.org/2000/svg" height="24" viewBox="0 -960 960 960" width="24"><path d="M63.04-455.3q-1.13-5.96-1.69-12.07-.57-6.11-.57-12.63 0-57.54 40.11-97.81 40.11-40.28 97.41-40.28 25.13 0 47.83 8.5t40.96 23.5l259.52-151q-1.44-5.87-1.65-12.08-.22-6.22-.22-12.53 0-57.3 40.12-97.41t97.43-40.11q57.32 0 97.41 40.12 40.08 40.12 40.08 97.44 0 57.31-40.11 97.4t-97.41 40.09q-26.47 0-49.62-9.07-23.16-9.06-41.42-25.19L315.74-499.39q-20.13-6.13-41.13-9.41-20.99-3.29-42.52-3.29-47.83 0-90.87 14.98-43.05 14.98-78.18 41.81ZM682.23-60.78q-57.32 0-97.4-39.95-40.09-39.94-40.09-97.01 0-5.43 2.43-22.91L512.09-241q-1.44-34.17-10.39-65.44-8.96-31.26-25.31-58.91l113.7 65.48q18.26-16.7 41.78-26.33 23.51-9.63 50.39-9.63 57.3 0 97.41 40.24t40.11 97.72q0 57.48-40.12 97.28-40.12 39.81-97.43 39.81ZM232.09-32.09q-83 0-141.5-58.5t-58.5-141.5q0-83 58.5-141.5t141.5-58.5q83 0 141.5 58.5t58.5 141.5q0 83-58.5 141.5t-141.5 58.5Zm-.57-159.56 70 70.43 41.44-40.43-70.44-69.87 71-71-40.43-40.44-70.44 70.44-71-71-40.43 40.43 70.43 70.44-71 71 40.44 40.43 70.43-70.43Z"/></svg>