<svg xmlns="http://www.w3.org/2000/svg" height="24" viewBox="0 -960 960 960" width="24"><path d="M321.48-996.74q114.13 0 194.02 79.85 79.89 79.86 79.89 193.94 0 37.65-9.66 72.26-9.67 34.61-27.86 65.26l-61.61-35.66q13.36-22.36 20.59-48.07 7.24-25.72 7.24-53.67 0-84.42-59.29-143.51-59.28-59.1-143.59-59.1t-143.33 59.02q-59.01 59.01-59.01 143.32 0 28.1 6.85 53.64 6.84 25.55 19.97 48.37l-61.61 35.22q-18.26-30.52-27.39-65.06-9.13-34.53-9.13-71.9 0-114.13 79.89-194.02 79.9-79.89 194.03-79.89Zm0 111.3q67.36 0 114.99 47.63 47.62 47.62 47.62 114.98 0 23.09-5.85 43.28-5.85 20.2-16.98 38.46l-62.17-35.65q6.13-10.13 9.41-21.76 3.28-11.63 3.28-24.33 0-38.08-26.61-64.69t-64.69-26.61q-38.81 0-65.06 26.61t-26.25 64.69q0 12.7 3.31 24.39 3.31 11.68 8.82 21.7l-61.04 35.65q-10.7-18.26-16.04-38.87-5.35-20.61-5.35-42.87 0-67.36 47.28-114.98 47.28-47.63 115.33-47.63Zm80 824.66q-37.26 0-69.87-15.98-32.6-15.98-55.22-45.28L52.17-409.22l38.22-32.43q25.65-22.7 59.59-26.13 33.93-3.44 63.58 14.39l58.18 34.26v-303.7q0-20.95 14.61-35.56Q300.96-773 321.93-773q20.98 0 35.78 14.61 14.81 14.61 14.81 35.56v192.09h287.7q65.82 0 112.41 46.59t46.59 112.41v140.78q0 70.53-49.83 120.35-49.82 49.83-120.35 49.83H401.48Z"/></svg>