<svg xmlns="http://www.w3.org/2000/svg" height="24" viewBox="0 -960 960 960" width="24"><path d="M734-263.61v-106h125.22v106H734ZM734-427v-106h165.22v106H734Zm0-163.39v-107h208.61v107H734ZM254-34.78 190.39-247.3q-49.7-40.26-80.96-100.94Q78.17-408.91 78.17-480q0-71.09 31.26-131.76 31.26-60.68 80.96-100.94L254-925.22h246.78l63.61 212.52q49.7 40.26 80.96 100.94 31.26 60.67 31.26 131.76 0 71.09-31.26 131.76-31.26 60.68-80.96 100.94L500.78-34.78H254Zm123.38-252q80.18 0 136.71-56.52 56.52-56.51 56.52-136.69T514.09-616.7q-56.51-56.52-136.69-56.52T240.69-616.7q-56.52 56.51-56.52 136.69t56.52 136.71q56.51 56.52 136.69 56.52Z"/></svg>