<svg xmlns="http://www.w3.org/2000/svg" height="24" viewBox="0 -960 960 960" width="24"><path d="m120-200 220-280-220-280.77h498.46L840-480l-7.31 8.54q-26.54-13-54.77-19.62-28.23-6.61-57.92-6.61-108.31 0-184.54 74.69-76.23 74.69-77.77 183 0 10.23.69 20.23.7 10 2.85 19.77H120ZM720-68.46q-69.92 0-118.42-48.5t-48.5-118.42q0-69.93 48.5-118.43T720-402.31q69.92 0 118.42 48.5t48.5 118.43q0 69.92-48.5 118.42T720-68.46Zm-25.15-98.46 113.61-111.85-25.08-25.08-88.53 87.31-38.23-39-25.08 25.31 63.31 63.31Z"/></svg>