<svg xmlns="http://www.w3.org/2000/svg" height="24" viewBox="0 -960 960 960" width="24"><path d="M240-120v-493.08h480V-120H240Zm210.77-102.31h58.46v-30.77h-58.46v30.77Zm.77-70.77h56.92q0-19 5.66-36.42 5.65-17.42 15.88-33.19 8.92-14.69 16.77-29.96 7.85-15.27 7.85-32.43 0-31.34-21.64-53.13Q511.34-500 480-500q-31.66 0-53.52 21.58-21.86 21.57-21.86 53.34 0 16.9 7.96 32.18 7.96 15.28 16.65 29.98 10.23 16 16.27 33.42 6.04 17.42 6.04 36.42ZM276.15-691.54v-35.38h406.93v35.38H276.15Zm36.93-113.08V-840h333.07v35.38H313.08Z"/></svg>