<svg xmlns="http://www.w3.org/2000/svg" height="24" viewBox="0 -960 960 960" width="24"><path d="M436.92-569.23ZM120-200v-560h727.69v40H160v480h120v40H120Zm687.69-40v-329.23H632.31V-240h175.38Zm-215.38 40v-409.23h255.38V-200H592.31Zm127.55-260q11.6 0 19.33-8.03 7.73-8.04 7.73-18.75 0-11.6-7.72-19.34-7.72-7.73-19.53-7.73-10.9 0-18.75 7.73-7.84 7.72-7.84 19.53 0 10.9 8.03 18.74 8.03 7.85 18.75 7.85ZM392.31-200l-17.69-61.54q-17.47-13.92-27.58-34.27-10.12-20.34-10.12-44.23 0-23.88 10.12-44.19 10.11-20.31 27.58-34.23L392.31-480h89.23l17.69 61.54q17.46 13.92 27.58 34.27 10.11 20.34 10.11 44.23 0 23.88-10.11 44.19-10.12 20.31-27.58 34.23L481.54-200h-89.23Zm44.61-75.38q28 0 46.31-18.85 18.31-18.85 18.31-45.77t-19.39-45.77q-19.38-18.85-45.23-18.85-25.84 0-45.23 18.31Q372.31-368 372.31-340q0 28 18.31 46.31 18.3 18.31 46.3 18.31ZM720-404.62Z"/></svg>