<svg xmlns="http://www.w3.org/2000/svg" height="24" viewBox="0 -960 960 960" width="24"><path d="M170.46-120H160v-40h10.46q41.85 0 81.5-12.04 39.66-12.04 79.04-35.04 34.15 22.08 69.58 33.81 35.42 11.73 77.88 11.73 42.46 0 77.89-11.73 35.42-11.73 69.57-33.81 39.16 23 79.04 35.04Q744.85-160 786.69-160H800v40h-13.31q-41.31 0-81.27-9-39.96-9-78.8-27.77-36.16 18.23-73.39 27.39-37.23 9.15-74.77 9.15t-74.65-9.15q-37.12-9.16-73.27-27.39Q291.69-138 251.73-129t-81.27 9Zm88.77-419.31 219.23-66.84 219.23 66.84V-720H259.23v180.69Zm220 282.39q-42.31 0-77.69-25.39-35.39-25.38-72.31-66.92-33.92 37.77-60.5 57.15-26.58 19.39-58.42 32l-68.77-242.23 79.23-25.23V-760h186.15v-80h144.62v80h186.15v232.46l79.23 25.23-68.77 242.23q-31.84-12.61-58.42-32-26.58-19.38-60.5-57.15-36.92 41.54-72.31 66.92-35.38 25.39-77.69 25.39Z"/></svg>