<svg xmlns="http://www.w3.org/2000/svg" height="24" viewBox="0 -960 960 960" width="24"><path d="M480-120q-96.77 0-158.38-24.7Q260-169.39 260-208.46q0-18.62 17.58-35.66 17.57-17.03 48.19-28.96l31.46 26.7q-16.69 6.3-34.5 16.69-17.81 10.38-22.27 20.46 6.85 19.85 58.08 34.54Q409.77-160 479.62-160q69.84 0 121.57-14.69 51.73-14.69 58.58-34.54-3.15-10.31-23-20.69-19.85-10.39-37.54-16.7l31.23-26.92q33.39 12.16 51.46 29.19Q700-227.31 700-208.81q0 39.23-61.62 64.02Q576.77-120 480-120Zm1-170q99.77-77.62 149.38-151.88Q680-516.15 680-587.85q0-105.04-64.62-158.6-64.61-53.55-135-53.55Q410-800 345-746.39t-65 158.77q0 69.08 49.38 142.74Q378.77-371.23 481-290Zm-1 50q-120.86-91.78-180.43-178.27Q240-504.76 240-587.72q0-62.66 21.65-109.63 21.66-46.96 56.27-78.73 34.62-31.77 77.43-47.84Q438.16-840 480.12-840q41.96 0 84.65 16.08 42.69 16.07 77.31 47.84 34.61 31.77 56.27 78.8Q720-650.26 720-587.85q0 82.99-59.57 169.51T480-240Zm.38-288.46q26.47 0 45.35-18.5 18.89-18.5 18.89-45.73 0-27.23-18.99-46.12-18.98-18.88-45.63-18.88-26.08 0-45.35 18.98-19.27 18.98-19.27 45.63 0 27.62 19.27 46.12 19.27 18.5 45.73 18.5Zm-.38-64.62Z"/></svg>