<svg xmlns="http://www.w3.org/2000/svg" height="24" viewBox="0 -960 960 960" width="24"><path d="M160-160v-640h270.92q-10.77 23.54-16.54 48.54-5.76 25-5.76 51.46 0 99.77 67.8 167.58 67.81 67.8 167.12 67.8 17.15 0 32.04-1.84 14.88-1.85 30.04-5.54L800-377.62V-160H160Zm691.23-300.92L725.69-586.46q-20.23 14.77-39.23 20.61-19 5.85-42.92 5.85-58.62 0-99.08-40.58Q504-641.15 504-700t40.58-99.42Q585.15-840 644-840t99.42 40.58Q784-758.85 784-700q0 23.92-7.23 45.46T756-612.77l123.54 123.54-28.31 28.31ZM644-600q42 0 71-29t29-71q0-42-29-71t-71-29q-42 0-71 29t-29 71q0 42 29 71t71 29ZM300-300h366.15L559.31-442.46q-2.54-.46-5.19-1.16-2.66-.69-5.2-1.61L448.46-318.46l-70-84.62L300-300Z"/></svg>