<svg xmlns="http://www.w3.org/2000/svg" height="24" viewBox="0 -960 960 960" width="24"><path d="M480.13-120q-74.67 0-139.98-28.04-65.3-28.04-114.2-76.49-48.9-48.45-77.43-113.96Q120-403.99 120-478.46h40q0 66 25.38 124.11 25.39 58.12 68.89 101.62 43.5 43.5 101.75 68.61Q414.28-159 480-159q134 0 227-93t93-227q0-134-93-227t-227-93q-97.46 0-174.58 51.19-77.11 51.19-115.27 133.96h116v40H120V-760h40v119.23q43.46-89.15 128.38-144.19Q373.31-840 480-840q74.7 0 140.4 28.34t114.3 76.92q48.6 48.58 76.95 114.26Q840-554.81 840-480.13q0 74.67-28.34 140.41-28.34 65.73-76.92 114.36-48.58 48.63-114.26 76.99Q554.81-120 480.13-120ZM364.62-329.23V-520h40v-44.62q0-31.09 22.14-53.24Q448.9-640 480-640t53.24 22.14q22.14 22.15 22.14 53.24V-520h40v190.77H364.62ZM435.38-520h89.24v-44.32q0-18.83-13.04-31.87-13.04-13.04-31.58-13.04t-31.58 13.04q-13.04 13.04-13.04 31.87V-520Z"/></svg>