<svg xmlns="http://www.w3.org/2000/svg" height="24" viewBox="0 -960 960 960" width="24"><path d="M200-120v-480h120v-80q0-66.85 46.58-113.42Q413.15-840 480-840t113.42 46.58Q640-746.85 640-680v80h120v112q-8-2.92-18.27-4.38-10.27-1.47-21.73-1.47-109.08-6.92-182.23 65.85-73.15 72.77-73.15 172.62 0 28.07 11.84 70.92 11.85 42.84 30.46 64.46H200Zm504.62 24.62q-66.85 0-113.43-46.58-46.57-46.58-46.57-113.42 0-66.85 46.57-113.43 46.58-46.57 113.43-46.57 66.84 0 113.42 46.57 46.58 46.58 46.58 113.43 0 66.84-46.58 113.42T704.62-95.38ZM360-600h240v-80q0-50-35-85t-85-35q-50 0-85 35t-35 85v80Zm344.62 344.62q25 0 42.5-17.5t17.5-42.5q0-25-17.5-42.5t-42.5-17.5q-25 0-42.5 17.5t-17.5 42.5q0 25 17.5 42.5t42.5 17.5Zm0 120q30 0 56-14t43-39q-23-14-48-20.5t-51-6.5q-26 0-51 6.5t-48 20.5q17 25 43 39t56 14Z"/></svg>