<svg xmlns="http://www.w3.org/2000/svg" height="24" viewBox="0 -960 960 960" width="24"><path d="M527.69-120v-228.46h40V-160H840v-564.62H567.69v113.85h-40v-153.85H880V-120H527.69ZM80-195.38V-840h352.31v229.23h-40V-800H120v564.62h272.31v-113.08h40v153.08H80Zm623.94-419.24q11.37 0 18.71-7.43 7.35-7.44 7.35-18.81 0-11.37-7.44-18.72-7.43-7.34-18.8-7.34-11.38 0-18.72 7.43-7.35 7.44-7.35 18.81 0 11.37 7.44 18.72 7.43 7.34 18.81 7.34ZM256.24-690q11.38 0 18.72-7.44 7.35-7.43 7.35-18.8 0-11.38-7.44-18.72-7.43-7.35-18.81-7.35-11.37 0-18.71 7.44-7.35 7.43-7.35 18.81 0 11.37 7.44 18.71 7.43 7.35 18.8 7.35ZM120-235.38V-800v564.62ZM840-160v-564.62V-160ZM326.18-450.77q-12.41 0-20.83-8.4-8.43-8.39-8.43-20.8t8.4-20.84q8.4-8.42 20.81-8.42 12.41 0 20.83 8.4 8.42 8.39 8.42 20.8t-8.39 20.84q-8.4 8.42-20.81 8.42Zm153.85 0q-12.41 0-20.84-8.4-8.42-8.39-8.42-20.8t8.4-20.84q8.39-8.42 20.8-8.42t20.84 8.4q8.42 8.39 8.42 20.8t-8.4 20.84q-8.39 8.42-20.8 8.42Zm153.07 0q-12.41 0-20.83-8.4-8.42-8.39-8.42-20.8t8.39-20.84q8.4-8.42 20.81-8.42 12.41 0 20.83 8.4 8.43 8.39 8.43 20.8t-8.4 20.84q-8.39 8.42-20.81 8.42Z"/></svg>