<svg xmlns="http://www.w3.org/2000/svg" height="24" viewBox="0 -960 960 960" width="24"><path d="m675.77-226.46 28 28.77q-40.08 31.61-86.77 49.88-46.69 18.27-97.23 25.81v-40q45.08-6.77 84.58-23t71.42-41.46ZM838.23-440q-5.69 50.46-25.11 97.04-19.43 46.58-51.04 87.27L733.77-284q26-33 42-72.5t22-83.5h40.46Zm-75.38-263.54Q797-658 813.96-617.85q16.96 40.16 24.27 97.85h-40.46q-6-45-22-84.5t-42-71.5l29.08-27.54ZM439.77-838v40q-120 17-199 107t-79 211q0 120 79 210t199 108v40q-136.08-17.23-227.04-119.19Q121.77-343.15 121.77-480q0-138.08 90.96-239.92Q303.69-821.77 439.77-838Zm81.54 0q50.54 6.54 95.69 25.19 45.15 18.66 86.77 50.5l-26 30.31q-36-27-75.62-44-39.61-17-80.84-22v-40Zm-57.16 503.85q-11.38-33.39-27.57-57.04-16.2-23.66-32.04-44.96-15.85-21.31-26.73-43.97-10.89-22.65-10.89-54.8 0-47.54 32.77-80.31T480-648q47.54 0 80.31 32.77t32.77 80.31q0 32.15-10.89 54.8-10.88 22.66-26.73 43.97-15.84 21.3-32.04 44.96-16.19 23.65-27.57 57.04h-31.7Zm15.85-165q15.31 0 25.54-10.23 10.23-10.24 10.23-25.54 0-15.31-10.23-25.54-10.23-10.23-25.54-10.23-15.31 0-25.54 10.23-10.23 10.23-10.23 25.54 0 15.3 10.23 25.54 10.23 10.23 25.54 10.23Z"/></svg>