<svg xmlns="http://www.w3.org/2000/svg" height="24" viewBox="0 -960 960 960" width="24"><path d="M160-160v-640h640v373q-9.59-5.16-19.68-9.39T760-443.77v-165.46H500v178.54q-19.85 7.84-38.31 19.61t-34.77 27.23H200V-200h115.85q6.38 11.23 13.15 20.85 6.77 9.61 13.62 19.15H160Zm40-263.85h260v-185.38H200v185.38Zm0-225.38h560V-760H200v110.77ZM480-480Zm0 0Zm0 0Zm0 0ZM645.37-89.23q-73.29 0-135.29-37.62-62-37.61-99.31-100.84 37.31-63.23 99.32-100.85 62.02-37.61 135.31-37.61 73.29 0 135.29 37.61 62 37.62 99.31 100.85-37.31 63.23-99.32 100.84-62.02 37.62-135.31 37.62Zm-.1-40q55.58 0 104.92-26.77 49.35-26.77 82.89-71.69-33.54-44.93-82.78-71.69-49.23-26.77-104.8-26.77-55.58 0-104.92 26.77-49.35 26.76-82.89 71.69 33.54 44.92 82.78 71.69 49.23 26.77 104.8 26.77Zm.21-58.46q-16.63 0-28.36-11.64-11.74-11.64-11.74-28.27t11.64-28.36q11.65-11.73 28.27-11.73 16.63 0 28.36 11.64t11.73 28.27q0 16.63-11.64 28.36t-28.26 11.73Z"/></svg>