<svg xmlns="http://www.w3.org/2000/svg" height="20" viewBox="0 -960 960 960" width="20"><path d="M218.87-135.87q-34.48 0-58.74-24.26-24.26-24.26-24.26-58.74v-522.26q0-34.48 24.26-58.74 24.26-24.26 58.74-24.26h346.56q-17.95 23.72-28.05 52.82-10.1 29.09-10.1 59.46 0 76.94 54.02 130.75 54.01 53.82 130.7 53.82 30.26 0 59.34-10.1 29.07-10.1 52.79-28.05v346.56q0 34.48-24.26 58.74-24.26 24.26-58.74 24.26H218.87ZM264-288h432L552-480 444-336l-72-96-108 144Zm409.91-311.28v-74.63h-74.63v-75.59h74.63v-74.63h75.59v74.63h74.63v75.59H749.5v74.63h-75.59Z"/></svg>