<svg xmlns="http://www.w3.org/2000/svg" height="20" viewBox="0 -960 960 960" width="20"><path d="M480.21-477.61q30.99 0 52.58-21.81 21.6-21.81 21.6-52.79 0-30.99-21.81-52.58-21.81-21.6-52.79-21.6-30.99 0-52.58 21.81-21.6 21.81-21.6 52.79 0 30.99 21.81 52.58 21.81 21.6 52.79 21.6Zm-.27 365.31q-13.9 0-26.25-4.74-12.36-4.74-24.04-14.22-41.43-35.72-88.89-82.96-47.46-47.24-88.05-101.71-40.6-54.48-66.72-114.06-26.12-59.58-26.12-119.97 0-137.28 91.45-229.72 91.45-92.45 228.68-92.45 36.48 0 53.88 16.9 17.4 16.9 17.4 53.1v11.72q0 28.58 25.8 53.2 25.8 24.62 62.03 24.62h32.17v32.42q0 17.71 7.31 33.82 7.32 16.11 18.89 27.57 10.21 10.32 21.46 16.52 11.26 6.19 25.73 8.43 30.63 5.72 43.71 22.91 13.08 17.19 13.08 41.72 0 27.09-11.81 59.72-11.8 32.63-27.49 63.38-15.68 30.75-32.61 56.58-16.92 25.82-25.92 38.3-40.8 55-87.48 101.13-46.67 46.13-85.8 78.83-11.71 9.48-24.11 14.22-12.4 4.74-26.3 4.74Zm239.34-648.29h-80.17q-16.74 0-28.28-11.48-11.55-11.49-11.55-28.13 0-16.65 11.38-28.22Q622.05-840 638.87-840h80.41v-80.41q0-16.83 11.49-28.21Q742.25-960 758.9-960q16.64 0 28.22 11.38 11.58 11.38 11.58 28.21V-840h80.41q16.82 0 28.2 11.32 11.39 11.32 11.39 28.06 0 16.64-11.39 28.34-11.38 11.69-28.2 11.69H798.7v80.18q0 16.73-11.32 28.28-11.33 11.54-28.06 11.54-16.65 0-28.34-11.38-11.7-11.38-11.7-28.2v-80.42Z"/></svg>