<svg xmlns="http://www.w3.org/2000/svg" height="20" viewBox="0 -960 960 960" width="20"><path d="M218.87-135.87q-34.48 0-58.74-24.26-24.26-24.26-24.26-58.74v-522.26q0-34.48 24.26-58.74 24.26-24.26 58.74-24.26h283.39q20.33 0 31.56 18.15 11.22 18.15 2.51 37.53-4.76 13.3-6.91 27.82-2.14 14.52-2.14 29.08 0 76.47 53.77 130.37 53.76 53.9 130.26 53.9 14.56 0 29.2-2.14 14.64-2.15 28.39-6.49 20.4-6.66 37.82 3.92 17.41 10.58 17.41 29.73v283.39q0 34.48-24.26 58.74-24.26 24.26-58.74 24.26H218.87ZM264-288h432L552-480 444-336l-72-96-108 144Zm448.03-311.28q-15.92 0-26.9-10.9-10.98-10.9-10.98-27.02v-36.71h-37.08q-16.06 0-26.92-10.9-10.87-10.9-10.87-27.02 0-16.01 10.94-26.84 10.93-10.83 27.09-10.83h36.84v-36.96q0-16.01 10.93-26.84 10.93-10.83 26.96-10.83 15.92 0 26.69 10.83 10.77 10.83 10.77 26.84v36.96h36.75q15.92 0 26.9 10.77 10.98 10.77 10.98 26.7 0 15.92-10.83 26.87-10.83 10.95-26.84 10.95H749.5v36.95q0 16.01-10.77 27-10.77 10.98-26.7 10.98Z"/></svg>