<svg xmlns="http://www.w3.org/2000/svg" height="20" viewBox="0 -960 960 960" width="20"><path d="M672.48-288q25 0 42.5-17.5t17.5-42.5q0-25-17.5-42.5t-42.5-17.5q-25 0-42.5 17.5t-17.5 42.5q0 25 17.5 42.5t42.5 17.5Zm-.09 120q32.33 0 59.09-15.88 26.76-15.88 43-41.88Q751.24-239 725.6-245.5q-25.65-6.5-53.34-6.5-27.78 0-53.28 7t-48.74 19.24q16.24 26 43.03 41.88Q640.06-168 672.39-168ZM480-87.63Q343.47-118.3 251.67-241.19q-91.8-122.89-91.8-273.81v-234.61L480-872.37 800.13-749.5v231.28q-24.39-12.87-44.02-19.94-19.63-7.08-38.98-9.32v-145.61L480-783.89l-237.13 90.8V-515q0 49.48 12.62 96.12 12.62 46.64 36.5 87.3 23.88 40.67 57.42 73.97 33.55 33.31 74.39 58.59 8.24 26.82 27.9 55.31 19.65 28.49 44.95 51.93-1.91.95-8.32 2.31-6.42 1.36-8.33 1.84ZM671.77-96Q592-96 536-152.23q-56-56.22-56-136Q480-368 536.23-424q56.22-56 136-56Q752-480 808-423.77q56 56.22 56 136Q864-208 807.77-152q-56.22 56-136 56ZM480-480.96Z"/></svg>