<svg xmlns="http://www.w3.org/2000/svg" height="20" viewBox="0 -960 960 960" width="20"><path d="M671.77-96Q592-96 536-152.23q-56-56.22-56-136Q480-368 536.23-424q56.22-56 136-56Q752-480 808-423.77q56 56.22 56 136Q864-208 807.77-152q-56.22 56-136 56Zm-511.9-419v-177.85q0-26.28 14.41-47.3 14.42-21.02 38.76-30.22l237.13-90.8q14.68-5.72 29.83-5.72 15.15 0 29.83 5.72l237.13 90.8q24.34 9.2 38.76 30.22 14.41 21.02 14.41 47.3v119.77q0 20.36-15.99 30.56-16 10.19-34.18 3.76-19.24-6.5-38.48-9.87Q692.24-552 672-552q-110 0-187 77t-77 186.85q0 32.91 8 64.03 8 31.12 25.43 62.51 10.72 19.91-2.21 37.09-12.94 17.17-32.09 9.69-45.99-19.47-84.47-48.49-38.49-29.03-75.4-80.42-42.19-57.96-64.79-127.01-22.6-69.05-22.6-144.25Zm512.61 227q25 0 42.5-17.5t17.5-42.5q0-25-17.5-42.5t-42.5-17.5q-25 0-42.5 17.5t-17.5 42.5q0 25 17.5 42.5t42.5 17.5Zm0 120q25.28 0 49.18-10.9 23.91-10.9 40.91-29.95 5.95-5.48 3.71-14.17-2.24-8.7-10.19-11.94-19.47-8.76-40.4-12.9-20.93-4.14-43.21-4.14-22.52 0-43.45 4.26-20.93 4.26-40.4 12.78-7.96 3.24-10.2 11.94-2.23 8.69 3.72 14.17 17 19.05 41.02 29.95Q647.2-168 672.48-168Z"/></svg>