<svg xmlns="http://www.w3.org/2000/svg" height="20" viewBox="0 -960 960 960" width="20"><path d="M583.89-654.39 742.07-812.8q12.91-12.92 29.06-12.68 16.15.24 28.83 12.91 12.91 12.92 12.91 29.45t-12.91 29.45l-187 186.76q-12.4 12.67-28.93 12.67t-29.2-12.67l-84.76-85q-12.44-12.68-12.68-28.83-.24-16.15 12.44-29.3 12.67-12.44 29.44-12.32 16.77.12 29.45 12.79l55.17 55.18Zm15.39 508.35 235-72q-8-21-26.38-33-18.39-12-41.62-12H552.89q-15.09 0-31.85-2.5t-32.76-8.49l-36-13.96q-13.86-4.7-19.93-18.81t-1.07-28.07q5-13.97 19-19.95 14-5.98 28-.98l36.87 13.71q9.57 3.76 19.47 5.52 9.9 1.77 20.72 1.53h91.98-.04q0-10-5-17t-15-11l-256-92h-32.41v228.71l260.41 80.29Zm-26.11 74.69-234.3-72.32q-2.15 23-21.66 38.9-19.51 15.9-46.34 16.9h-100q-34.54 1-58.77-23.67-24.23-24.68-24.23-59.33v-280.59q0-34.23 24.41-58.62 24.41-24.38 58.69-24.38h197.6q8.95 0 16.91 1.62 7.95 1.62 15.7 4.21l255.49 91.65q32.16 11.96 50.97 39.76 18.82 27.81 18.82 62.18h39.82q60.99 0 106.58 34.92 45.6 34.92 45.6 93.08 0 22.63-14.94 38.54-14.93 15.91-35.85 22.39L627.39-71.35q-13.43 4.24-27.11 3.86-13.67-.38-27.11-3.86Zm-405.89-95.69h92.18v-288h-92.18v288Z"/></svg>