<svg xmlns="http://www.w3.org/2000/svg" height="20" viewBox="0 -960 960 960" width="20"><path d="M569.41-92.52 307.46-164v-370.46h63.34q9.2 0 17.54 1.62 8.33 1.62 15.29 4.1l241.39 86.65q28.31 10.68 48.25 34.36 19.95 23.69 19.95 53.75 0 9.09-6.07 14.51-6.06 5.43-15.63 5.43h-93.39q-14.11-1-28.55-2.72-14.45-1.72-28.56-6.44l-24.09-8.8q-11.43-4.48-22.13.26-10.69 4.74-15.17 16.41-4.24 10.96.48 21.92 4.72 10.95 16.67 14.19l20.7 6.33q20.82 6.19 37.61 8.41 16.78 2.22 41.61 2.22h255.26q32.74 0 49.74 23.05 17 23.06 17 56.84L622.91-92.28q-12.67 5.24-26.63 4.24-13.95-1-26.87-4.48ZM87.87-161.54v-299q0-30.72 21.6-52.32t52.31-21.6q30.72 0 52.2 21.6 21.48 21.6 21.48 52.32v299q0 30.71-21.48 52.19-21.48 21.48-52.2 21.48-30.71 0-52.31-21.48t-21.6-52.19Zm496.26-492.85L742.3-812.8q12.92-12.92 29.07-12.68 16.15.24 28.83 12.91 12.91 12.92 12.91 29.45t-12.91 29.45l-187 186.76q-12.68 12.67-29.07 12.67t-29.06-12.67l-84.77-85q-12.43-12.68-12.67-28.83-.24-16.15 12.44-28.83 12.67-12.91 29.44-12.79 16.77.12 29.45 12.79l55.17 55.18Z"/></svg>