<svg xmlns="http://www.w3.org/2000/svg" height="20" viewBox="0 -960 960 960" width="20"><path d="M358.91-285.26q-47.67 52.67-106.44 51.93-58.77-.74-102.45-33.93-43.43-33.2-59.15-88.97Q75.15-412 112.59-472.15l62.56-100.61q-18.52-20.72-28.9-46.2-10.38-25.47-10.38-54.71 0-62.87 43.79-106.67 43.8-43.79 106.67-43.79 62.87 0 106.66 43.79 43.79 43.8 43.79 106.67 0 62.87-43.79 106.66t-106.66 43.79q-10.29 0-20.19-1.88-9.9-1.88-20.42-4.64l-62.81 101.09q-18.04 28.32-9.9 54.27 8.14 25.95 28.95 41.99 20.8 16.04 47.63 15.92 26.82-.12 49.15-24.92L601.33-674.5q48.15-53.15 106.42-52.91 58.27.24 101.71 33.67 43.43 33.44 59.29 89.09 15.86 55.65-21.34 116.8L785.09-387q18.52 20.72 28.78 46.08 10.26 25.35 10.26 54.59 0 62.87-43.79 106.67-43.8 43.79-106.67 43.79-62.87 0-106.66-43.79-43.79-43.8-43.79-106.67 0-62.87 43.79-106.66t106.66-43.79q10.53 0 20.43 1.88t20.42 4.64l62.81-100.85q18.04-28.32 9.66-54.77-8.38-26.45-29.19-42.49-20.8-16.04-48.13-15.3-27.32.74-48.41 25.3L358.91-285.26Z"/></svg>