<svg xmlns="http://www.w3.org/2000/svg" height="20" viewBox="0 -960 960 960" width="20"><path d="m576.24-427.93 64.59 64.58q10.95 10.96 26.03 10.84 15.07-.12 26.03-11.08 10.96-10.95 10.96-26.03 0-15.08-10.96-26.03L628.3-480l64.59-64.59q10.96-10.95 10.96-26.03 0-15.08-10.96-26.03-10.96-10.96-26.03-10.96-15.08 0-26.03 10.96l-64.59 64.58-64.59-64.58q-10.95-10.96-25.91-10.96t-25.91 10.96q-10.96 10.95-10.96 26.03 0 15.08 10.96 26.03L524.17-480l-64.58 64.59q-10.96 10.95-10.84 25.91.12 14.96 11.08 25.91 10.95 10.96 26.03 10.96 15.07 0 26.03-10.96l64.35-64.34ZM374.87-183.87q-19.63 0-37.02-8.7-17.39-8.69-30.07-24.84L148.65-430.54Q132.5-453.65 132.5-480t16.15-49.46l159.13-213.13q12.68-16.15 30.07-24.84 17.39-8.7 37.02-8.7h414.26q34.78 0 58.89 24.11t24.11 58.89v426.26q0 34.78-24.11 58.89t-58.89 24.11H374.87Z"/></svg>