<svg xmlns="http://www.w3.org/2000/svg" height="20" viewBox="0 -960 960 960" width="20"><path d="M290.63-111.87q-37.78 0-60.39-22.61t-22.61-60.39v-378.26q0-37.78 22.61-60.39t60.39-22.61h378.74q37.78 0 60.39 22.61t22.61 60.39v378.26q0 37.78-22.61 60.39t-60.39 22.61H290.63Zm0-83h378.74v-378.26H290.63v378.26Zm170.65-45.61h37.44q9.19 0 14.79-5.6 5.6-5.59 5.6-14.79t-5.6-14.79q-5.6-5.6-14.79-5.6h-37.44q-9.19 0-14.79 5.6-5.6 5.59-5.6 14.79t5.6 14.79q5.6 5.6 14.79 5.6Zm-7.89-74.39h51.72q5.51 0 9.91-4.17 4.41-4.17 5.57-9.74 2.81-11.97 9.69-22.72 6.89-10.75 14.15-20.93 10.29-16 17.93-32.69Q570-421.8 570-439.76q0-36.1-26.74-60.97-26.74-24.88-63.26-24.88-36.52 0-63.26 24.91Q390-475.79 390-439.72q0 18.48 6.9 34.5t17.43 31.79q7.31 10.2 14.08 21.4 6.76 11.2 9.54 23.21 1.93 5.59 5.92 9.77 3.98 4.18 9.52 4.18ZM480-384ZM282.74-699.35q-11.44 0-18.91-7.46-7.48-7.46-7.48-18.87 0-11.42 7.48-18.93 7.47-7.52 18.91-7.52h394.52q11.44 0 18.91 7.46 7.48 7.46 7.48 18.88 0 11.41-7.48 18.92-7.47 7.52-18.91 7.52H282.74Zm24.48-96q-11.44 0-18.92-7.46-7.47-7.46-7.47-18.87 0-11.42 7.47-18.93 7.48-7.52 18.92-7.52h345.56q11.44 0 18.92 7.46 7.47 7.46 7.47 18.88 0 11.41-7.47 18.92-7.48 7.52-18.92 7.52H307.22Z"/></svg>