<svg xmlns="http://www.w3.org/2000/svg" height="20" viewBox="0 -960 960 960" width="20"><path d="M290.63-111.87q-37.78 0-60.39-22.61t-22.61-60.39v-378.26q0-37.78 22.61-60.39t60.39-22.61h378.74q37.78 0 60.39 22.61t22.61 60.39v378.26q0 37.78-22.61 60.39t-60.39 22.61H290.63Zm170.65-128.61h37.44q9.19 0 14.79-5.6 5.6-5.59 5.6-14.79t-5.6-14.79q-5.6-5.6-14.79-5.6h-37.44q-9.19 0-14.79 5.6-5.6 5.59-5.6 14.79t5.6 14.79q5.6 5.6 14.79 5.6Zm-7.89-74.39h51.72q5.54 0 9.93-4.17t5.55-9.74q2.81-11.97 9.68-22.67 6.88-10.7 14.16-20.98 10.29-16 17.93-32.63 7.64-16.63 7.64-34.7 0-36.1-26.74-60.97-26.74-24.88-63.26-24.88-36.52 0-63.26 24.91Q390-475.79 390-439.64q0 18.4 6.9 34.42 6.9 16.02 17.43 31.79 7.28 10.28 14.06 21.44 6.78 11.16 9.56 23.17 1.93 5.59 5.92 9.77 3.98 4.18 9.52 4.18ZM282.74-699.35q-11.36 0-18.87-7.52-7.52-7.51-7.52-18.87 0-11.36 7.52-18.87 7.51-7.52 18.87-7.52h394.52q11.36 0 18.87 7.52 7.52 7.51 7.52 18.87 0 11.36-7.52 18.87-7.51 7.52-18.87 7.52H282.74Zm24.48-96q-11.36 0-18.88-7.52-7.51-7.51-7.51-18.87 0-11.36 7.51-18.87 7.52-7.52 18.88-7.52h345.56q11.36 0 18.88 7.52 7.51 7.51 7.51 18.87 0 11.36-7.51 18.87-7.52 7.52-18.88 7.52H307.22Z"/></svg>