<svg xmlns="http://www.w3.org/2000/svg" height="20" viewBox="0 -960 960 960" width="20"><path d="M679.17-87.87q-10.95 0-18.67-7.72-7.72-7.71-7.72-18.67v-151.67q-12-5.24-18-16.98t-6-25.22q0-21.2 14.6-35.79 14.6-14.6 35.79-14.6 20.96 0 35.68 14.6 14.72 14.59 14.72 35.79 0 14.48-6.12 25.6-6.12 11.12-17.88 16.6v151.67q0 10.96-7.72 18.67-7.72 7.72-18.68 7.72Zm0-314.87q-38.8 0-66.2 27.28-27.4 27.29-27.4 66.33 0 13.28 2.52 24.83 2.52 11.54 9.04 21.82 5.24 8.96 5 20.03-.24 11.08-7.72 18.56-8.48 8.48-18.81 8.1-10.34-.38-16.58-9.1-13-18-19.62-39.62-6.62-21.62-6.62-44.62 0-60.96 42.72-103.67 42.72-42.72 103.67-42.72 60.96 0 103.68 42.72 42.72 42.71 42.72 103.67 0 25.24-8.12 47.62t-22.88 41.38q-6.24 8.96-17.32 8.96t-18.79-8.72q-7.72-8.72-7.22-19.79.5-11.08 6.74-20.04 7.28-11.28 11.04-23.82 3.76-12.55 3.76-25.59 0-39.04-27.28-66.33-27.28-27.28-66.33-27.28Zm0-96q-78.8 0-134.2 55.4-55.4 55.41-55.4 134.21 0 31.04 9.52 60.71 9.52 29.66 28.56 53.94 6.24 8.72 6.36 19.68.12 10.95-7.6 18.67-8.48 8.48-19.55 8.1-11.08-.38-17.56-9.34-25.76-32-39.14-70.88-13.38-38.88-13.38-80.88 0-100.96 70.72-171.67 70.72-70.72 171.67-70.72 100.96 0 171.68 70.72 70.72 70.71 70.72 171.67 0 45-17.12 85.62-17.12 40.62-45.88 74.62-7.24 8.72-17.7 8.6-10.46-.12-17.94-8.6-7.47-8.48-7.21-19.56.26-11.07 7.5-19.79 21.04-25.52 33.3-56.18 12.26-30.67 12.26-64.71 0-78.8-55.4-134.21-55.4-55.4-134.21-55.4ZM144.98-183.87q-26.68 0-42.61-15.93-15.94-15.94-15.94-42.61v-319.94q0-26.91 15.94-42.85 15.93-15.93 42.61-15.93h179.76q26.91 0 42.85 15.93 15.93 15.94 15.93 42.85v319.94q0 26.67-15.93 42.61-15.94 15.93-42.85 15.93H144.98Zm534.19-438.65q-65.87 0-123.52 25.29-57.65 25.3-100.37 68.16v-33.76q-.24-59.91-35.55-95.1-35.32-35.2-94.99-35.2H144.22q-16.72 0-30.68 2.62-13.95 2.62-25.67 7.86v-10.48q0-34.78 24.11-58.89t58.89-24.11H798.7q37.78 0 60.39 22.61t22.61 60.39v144.78q-41.44-35.58-94.93-54.88-53.49-19.29-107.6-19.29ZM234.98-466.37q9.95 0 17.67-7.6 7.72-7.59 7.72-18.79 0-9.96-7.72-17.67-7.72-7.72-17.67-7.72-11.2 0-18.8 7.72-7.59 7.71-7.59 17.67 0 11.2 7.59 18.79 7.6 7.6 18.8 7.6Z"/></svg>