<svg xmlns="http://www.w3.org/2000/svg" height="20" viewBox="0 -960 960 960" width="20"><path d="M443.28-529.3ZM305.3-262.09v-280.82H164.65v280.82H305.3Zm-160.08 78.22q-26.68 0-42.73-16.05-16.06-16.06-16.06-42.73v-319.94q0-26.89 16.06-42.72 16.05-15.82 42.73-15.82h179.76q26.89 0 42.72 15.82 15.82 15.83 15.82 42.72v319.94q0 26.67-15.82 42.73-15.83 16.05-42.72 16.05H145.22Zm89.48-282.26q11.31 0 18.99-7.71 7.68-7.72 7.68-18.4 0-11.32-7.56-19-7.56-7.67-19.12-7.67-10.91 0-18.51 7.56-7.59 7.55-7.59 19.11 0 10.91 7.71 18.51 7.72 7.6 18.4 7.6ZM679.23-87.87q-11.41 0-18.93-7.48-7.52-7.47-7.52-18.91v-151.67q-12-5.2-18-16.96-6-11.76-6-25.34 0-21.26 14.6-35.77 14.6-14.52 35.31-14.52 21.49 0 36.18 14.52 14.7 14.51 14.7 35.77 0 14.58-6.12 25.7t-17.88 16.6v151.67q0 11.44-7.47 18.91-7.46 7.48-18.87 7.48ZM129.37-776.13H798.7q37.78 0 60.39 22.61t22.61 60.39v77.7q0 17.53-11.97 29.39-11.96 11.87-29.32 11.87-17.37 0-29.54-12.03-12.17-12.02-12.17-29.47v-77.46H129.37q-17.45 0-29.48-11.96-12.02-11.97-12.02-29.33t12.02-29.54q12.03-12.17 29.48-12.17ZM234.98-402.5Zm444.42-.24q-39.03 0-66.43 27.15-27.4 27.14-27.4 66.46 0 13.28 2.52 24.83 2.52 11.54 9.04 21.82 5.24 8.96 5 20.03-.24 11.08-7.72 18.56-8.48 8.48-18.81 8.1-10.34-.38-16.58-9.1-13-18.49-19.62-39.82-6.62-21.34-6.62-44.42 0-61.3 42.93-103.85 42.93-42.54 103.22-42.54 61.2 0 103.92 42.52t42.72 103.78q0 25.33-8.12 47.71-8.12 22.38-22.88 41.38-6.24 8.96-17.27 8.96-11.02 0-18.79-9.19-7.77-8.25-7.27-19.33.5-11.08 6.74-20.03 7.28-11.68 11.04-24.26 3.76-12.57 3.76-25.15 0-39.32-27.08-66.46-27.08-27.15-66.3-27.15Zm-.67-96q-78.3 0-133.73 55.4-55.43 55.41-55.43 134.21 0 31.44 9.49 60.91 9.5 29.48 28.59 53.74 6.24 8.72 6.36 19.68.12 10.95-7.6 18.67-8.48 8.48-19.55 8.1-11.08-.38-17.56-9.34-25.77-31.95-39.15-70.77-13.37-38.82-13.37-80.99 0-101 70.72-171.7 70.72-70.69 171.21-70.69 101.42 0 172.14 70.69 70.72 70.7 70.72 171.7 0 45.08-17.12 85.66t-45.88 74.58q-7.24 8.72-17.79 8.6-10.55-.12-17.94-8.6-7.38-8.48-7.12-19.56.26-11.07 7.5-19.79 21.04-25.52 33.3-56.17 12.26-30.65 12.26-64.72 0-78.8-55.4-134.21-55.4-55.4-134.65-55.4Z"/></svg>