<svg xmlns="http://www.w3.org/2000/svg" height="20" viewBox="0 -960 960 960" width="20"><path d="M716.9-42.74q-79.77 0-135.77-56.23-56-56.22-56-136 0-79.77 56.23-135.77 56.22-56 136-56 79.77 0 135.77 56.23 56 56.22 56 136 0 79.77-56.23 135.77-56.22 56-136 56ZM326.87-596.41h306.26q15.3 0 25.65-10.29 10.35-10.29 10.35-25.5t-10.35-25.71q-10.35-10.5-25.65-10.5H326.87q-15.3 0-25.65 10.29-10.35 10.29-10.35 25.5t10.35 25.71q10.35 10.5 25.65 10.5Zm-108 461.26q-34.24 0-58.62-24.38-24.38-24.38-24.38-58.62v-522.26q0-34.24 24.38-58.62 24.38-24.38 58.62-24.38h522.26q34.24 0 58.62 24.38 24.38 24.38 24.38 58.62v215.28q0 18.63-14.77 29.21-14.77 10.57-33.4 5.38-14.89-2.48-29.41-4.22-14.51-1.74-29.42-1.74-12 0-23.79.46-11.8.46-24.21 2.3-4.28-9.91-14.78-15.73-10.5-5.81-21.22-5.81H326.87q-15.3 0-25.65 10.29-10.35 10.29-10.35 25.5t10.35 25.71q10.35 10.5 25.65 10.5h229.52q-22 16.28-40.24 36.56-18.24 20.29-31.72 44.57H326.87q-15.3 0-25.65 10.29-10.35 10.29-10.35 25.5t10.35 25.71q10.35 10.5 25.65 10.5h129.7q-2.72 13.67-4.08 27.7-1.36 14.04-.36 27.95 1 11.8 2.34 24.49 1.34 12.69 3.94 25.92 3.24 18.87-7.53 33.91-10.78 15.03-29.49 15.03H218.87Zm498.26-99.59q25 0 42.5-17.5t17.5-42.5q0-25-17.5-42.5t-42.5-17.5q-25 0-42.5 17.5t-17.5 42.5q0 25 17.5 42.5t42.5 17.5Zm0 120q27.28 0 50.29-11.01 23-11.01 39.8-30.08 5.95-5.47 3.71-13.67-2.23-8.2-10.19-11.43-19.52-8.53-40.42-13.17-20.91-4.64-43.19-4.64-22.28 0-43.18 5.14-20.91 5.14-40.43 12.67-7.72 3.47-10.07 11.55-2.36 8.08 3.59 13.55 16.8 19.07 39.8 30.08 23.01 11.01 50.29 11.01Z"/></svg>