<svg xmlns="http://www.w3.org/2000/svg" height="20" viewBox="0 -960 960 960" width="20"><path d="M458.2-183.87H129.37q-17.15 0-29.33-12.17-12.17-12.18-12.17-29.33t12.17-29.33q12.18-12.17 29.33-12.17H458.2q17.15 0 29.32 12.17 12.18 12.18 12.18 29.33t-12.18 29.33q-12.17 12.17-29.32 12.17Zm-239.81-131q-37.78 0-60.39-22.61t-22.61-60.39v-295.26q0-37.78 22.61-60.39t60.39-22.61h522.98q37.78 0 60.39 22.61t22.61 60.39h-190.3q-61.59 0-97.98 36.27T499.7-559v202.63q0 17.15-12.18 29.33-12.17 12.17-29.32 12.17H218.39Zm415.68 131q-28.35 0-45.36-17.01-17.01-17.01-17.01-45.36V-559q0-28.59 17.01-45.36t45.36-16.77H810q28.59 0 45.36 16.77T872.13-559v312.76q0 28.35-16.77 45.36-16.77 17.01-45.36 17.01H634.07Zm87.84-282.26q10.96 0 18.68-7.75 7.71-7.75 7.71-19.14 0-10.17-7.71-18.03-7.72-7.86-18.68-7.86-11.19 0-18.79 7.86t-7.6 18.03q0 11.39 7.6 19.14t18.79 7.75Z"/></svg>