<svg xmlns="http://www.w3.org/2000/svg" height="20" viewBox="0 -960 960 960" width="20"><path d="M499.7-545.5Zm-41.5 361.63H129.37q-17.45 0-29.48-11.96-12.02-11.97-12.02-29.33t12.02-29.54q12.03-12.17 29.48-12.17H458.2q17.45 0 29.47 11.96 12.03 11.97 12.03 29.33t-12.03 29.54q-12.02 12.17-29.47 12.17Zm-239.81-131q-37.78 0-60.39-22.61t-22.61-60.39v-295.26q0-37.78 22.61-60.39t60.39-22.61h564.48q17.45 0 29.48 11.96 12.02 11.97 12.02 29.33t-12.02 29.54q-12.03 12.17-29.48 12.17H218.39v295.26H458.2q17.45 0 29.47 11.96 12.03 11.97 12.03 29.33t-12.03 29.54q-12.02 12.17-29.47 12.17H218.39Zm575.52 52.78v-280.82h-144v280.82h144Zm-159.84 78.22q-28.35 0-45.36-17.01-17.01-17.01-17.01-45.36V-559q0-28.59 17.01-45.36t45.36-16.77H810q28.59 0 45.36 16.77T872.13-559v312.76q0 28.35-16.77 45.36-16.77 17.01-45.36 17.01H634.07Zm87.56-282.26q11.32 0 19-7.71 7.67-7.72 7.67-18.4 0-11.32-7.55-19-7.56-7.67-19.12-7.67-10.91 0-18.51 7.56-7.6 7.55-7.6 19.11 0 10.91 7.72 18.51 7.71 7.6 18.39 7.6Zm.28 63.63Z"/></svg>