<svg xmlns="http://www.w3.org/2000/svg" height="20" viewBox="0 -960 960 960" width="20"><path d="M721.91-345.59ZM504.22-563.28ZM129.37-183.87q-17.45 0-29.48-11.96-12.02-11.97-12.02-29.33t12.02-29.54q12.03-12.17 29.48-12.17H458.2q17.45 0 29.47 11.96 12.03 11.97 12.03 29.33t-12.03 29.54q-12.02 12.17-29.47 12.17H129.37Zm245-509.26-83-83h491.5q17.45 0 29.48 11.96 12.02 11.97 12.02 29.33t-12.02 29.54q-12.03 12.17-29.48 12.17h-408.5Zm347.26 227q11.32 0 19-7.71 7.67-7.72 7.67-18.4 0-11.32-7.55-19-7.56-7.67-19.12-7.67-10.91 0-18.51 7.56-7.6 7.55-7.6 19.11 0 10.91 7.72 18.51 7.71 7.6 18.39 7.6Zm138.26 258.52-65.98-65.98v-269.32h-144v125.32l-77.74-77.74v-68.21q1.68-26.68 18.09-42.13 16.41-15.46 43.81-15.46H810q28.59 0 45.36 16.94t16.77 45.43V-246q0 11.59-3 21.13t-9.24 17.26ZM782.26-71.96 670.35-183.87h-36.28q-28.35 0-45.36-17.01-17.01-17.01-17.01-45.36v-36.28L218.39-635.59v237.72H458.2q17.45 0 29.47 11.96 12.03 11.97 12.03 29.33t-12.03 29.54q-12.02 12.17-29.47 12.17H218.39q-37.78 0-60.39-22.61t-22.61-60.39v-295.26q0-6.44.74-11.75.74-5.32 2.22-10.75l-67.73-67.72q-11.86-11.87-11.36-26.35.5-14.47 12.22-26.19t26.31-11.72q14.6 0 26.32 11.72l711.54 711.54q11.72 11.72 11.72 26.2 0 14.48-11.72 26.19-11.72 11.72-26.69 11.72-14.98 0-26.7-11.72ZM337.87-517.35Z"/></svg>