<svg xmlns="http://www.w3.org/2000/svg" height="20" viewBox="0 -960 960 960" width="20"><path d="M183.87-365.02v-356.41q0-76.07 68.15-114.1 68.15-38.04 227.98-38.04 159.83 0 227.98 38.04 68.15 38.03 68.15 114.1v356.41q0 54.67-34.38 98.02-34.38 43.35-87.62 55.7l41.8 42.28q9.92 9.19 5.2 22.61Q696.41-133 682.5-133h-405q-13.91 0-18.63-13.41-4.72-13.42 5.2-22.61l41.8-42.28q-53.24-12.35-87.62-55.7t-34.38-98.02Zm83-185.55h426.26v-120H266.87v120ZM480-336q20 0 34-14t14-34q0-20-14-34t-34-14q-20 0-34 14t-14 34q0 20 14 34t34 14Z"/></svg>