<svg xmlns="http://www.w3.org/2000/svg" height="20" viewBox="0 -960 960 960" width="20"><path d="M221.98-87.87h-94.11v-80.61h94.11q37.32 0 65.89-17.98 28.56-17.97 56.3-36.97 32.57 20.95 64.08 37.71 31.51 16.76 71.75 16.76 40.24 0 71.75-16.76 31.51-16.76 63.84-37.71 27.98 19 56.42 36.97 28.45 17.98 65.77 17.98h94.35v80.61h-94.35q-31.37 0-56.21-8.5-24.85-8.5-66.7-33.5-42.8 24.76-71.24 33.5-28.43 8.74-63.63 8.74t-63.75-8.74q-28.55-8.74-71.36-33.5-40.85 24-66.69 33-25.85 9-56.22 9ZM480-236.17q-23.17 0-46.84-3.53-23.66-3.52-49.88-28.73l-36-34-31 31q-21.91 21.19-51.36 30.61-29.44 9.43-63.42 6.8h-26l-57.54-269.87q-3.24-15.67 5.33-29.97 8.58-14.29 24.25-19.01l57.7-16.04v-148.22q0-34.78 24.11-58.89t58.89-24.11h83.09v-72h217.34v72h83.09q34.78 0 58.89 24.11t24.11 58.89v148.22l57.7 16.04q15.67 4.72 24.25 19.01 8.57 14.3 5.33 29.97L784.5-234.02h-26q-33.98 2.63-63.42-6.8-29.45-9.42-51.36-30.61l-31-31-36 34q-26.22 25.21-49.88 28.73-23.67 3.53-46.84 3.53Zm-.48-80.61q13 0 26.56-1.89 13.55-1.9 24.27-10.18l84.08-77.22 43.61 46.94q12.44 13.72 27.47 24.36 15.03 10.64 33.66 17.44l36.26-168.37L480-561.8l-275.67 76.1 36.26 168.37q18.63-6.8 33.66-17.44 15.03-10.64 27.47-24.36l43.61-46.94 84.08 77.22q10.72 8.05 24.04 10.06 13.31 2.01 26.07 2.01ZM285.85-591.26 480-645.13l194.15 53.63v-128.02h-388.3v128.26Zm193.91 152.09Z"/></svg>