<svg xmlns="http://www.w3.org/2000/svg" height="20" viewBox="0 -960 960 960" width="20"><path d="M480.17-79.5q-121.7 0-196.36-35.91-74.66-35.9-74.66-93.87 0-20.83 9.94-38.96 9.93-18.13 31.95-34.28 15.16-8.48 32.07-3.16 16.91 5.31 25.39 20.46 8.48 15.15 3.28 31.57-5.19 16.41-20.35 24.89l-.5.5.5-.5q9.72 16.1 69.92 31.18Q421.54-162.5 480-162.5q58.46 0 118.76-15.08 60.3-15.08 70.04-31.18l.5.5-.5-.5q-15.15-8.48-20.34-24.89-5.2-16.42 3.28-31.57 8.48-15.15 25.39-20.46 16.91-5.32 32.07 3.16 22.02 16.15 31.95 34.28 9.94 18.13 9.94 38.96 0 57.97-74.61 93.87Q601.87-79.5 480.17-79.5Zm.07-147.76q-12.67 0-25.11-3.98-12.43-3.98-22.63-12.93-113.43-91.2-168.91-179.99-55.48-88.79-55.48-171.04 0-67.43 24.74-119.3 24.74-51.87 63.9-86.79 39.16-34.92 87.61-52.88 48.44-17.96 95.83-17.96T576-854.17q48.42 17.96 87.55 52.88 39.13 34.92 63.86 86.79 24.72 51.87 24.72 119.3 0 82.09-55.6 170.72T527.98-244.41q-10.2 9.07-22.63 13.11-12.44 4.04-25.11 4.04Zm-.09-299.78q31.05 0 52.76-21.64 21.72-21.63 21.72-52.52 0-31.19-21.7-52.79-21.7-21.6-52.69-21.6-31.09 0-52.86 22.1t-21.77 52.17q0 30.08 21.74 52.18 21.75 22.1 52.8 22.1Z"/></svg>