<svg xmlns="http://www.w3.org/2000/svg" height="20" viewBox="0 -960 960 960" width="20"><path d="M480-112.3q-13.96 0-26.29-4.74-12.34-4.74-24.06-14.22-41.43-35.72-88.89-82.96-47.46-47.24-88.05-101.71-40.6-54.48-66.72-114.06-26.12-59.58-26.12-119.97 0-137.34 91.51-229.76 91.51-92.41 228.62-92.41 18.57 0 35.01 2 16.45 2 33.25 6.76 25.11 4.76 31.81 30.37 6.69 25.61-12.94 45.24l-184.7 185.69q-11.67 11.68-18.01 27.21-6.33 15.53-6.33 31.69v61.5q0 31.43 22.07 53.51 22.08 22.07 53.51 22.07h62.5q16.16 0 31.19-5.95 15.03-5.96 27.71-18.39l169.69-170.7q19.39-19.39 44.62-11.82 25.23 7.58 29.23 33.69.76 7.33 1.14 14.65.38 7.33.38 14.65 0 96.03-68.67 199.62-68.68 103.6-201.11 219.08-11.72 9.48-24.06 14.22-12.33 4.74-26.29 4.74Zm33.15-378.22 211.74-211.74q5.72-5.72 5.72-14.91 0-9.2-5.72-14.92l-40.8-40.8q-5.72-5.72-14.92-5.72-9.19 0-14.91 5.72L442.52-561.15q-5.72 5.72-9.07 13.05-3.36 7.34-3.36 16.53v22.42q0 12.67 9.19 21.87 9.2 9.19 21.87 9.19h22.42q9.19 0 16.53-3.36 7.33-3.35 13.05-9.07Zm247.37-278.96q5.72 5.72 14.91 5.72 9.2 0 14.92-5.72L810.87-790q8.72-7.72 9.22-17.93.5-10.22-8.22-17.94l-34-34q-7.72-7.72-18.2-7.96-10.47-.24-18.19 7.48l-21 21q-5.72 5.72-5.72 14.92 0 9.19 5.72 14.91l40.04 40.04Z"/></svg>