<svg xmlns="http://www.w3.org/2000/svg" height="20" viewBox="0 -960 960 960" width="20"><path d="M614.91-196.83q-17.43 0-29.61-11.96-12.17-11.96-12.17-29.33 0-17.36 12.01-29.53 12.02-12.18 29.45-12.18h215.76q17.43 0 29.61 11.97 12.17 11.96 12.17 29.32 0 17.37-12.01 29.54-12.01 12.17-29.45 12.17H614.91ZM465.35-89.54q-76.05 0-144.14-30.76-68.09-30.75-119.88-83.81-51.79-53.06-82.62-124.1-30.84-71.03-30.84-152.23 0-81.19 30.6-152.15 30.6-70.95 84.29-124.65 53.7-53.69 124.96-84.29 71.26-30.6 152.28-30.6 79.69 0 149.1 29.04 69.4 29.04 122.05 79.76 52.96 50.53 84.65 118.79 31.7 68.26 35.61 146.5 1.48 10.19-3.38 18.39-4.86 8.19-14.05 12.91-9.2 4.72-19.63 4.96-10.44.24-21.11-4.48-21.63-9.25-44.46-13.41-22.83-4.16-47.39-4.16-102.07 0-173.05 71.04-70.97 71.04-70.97 173.22 0 24.37 4.52 47.83 4.52 23.46 14.28 46.22 2 4.24 2.62 8.4.62 4.17.62 8.79 0 15.73-9.04 27.26-9.05 11.53-25.02 11.53ZM170.63-480.38q0 105.31 63.65 188.04 63.65 82.73 164.15 110.04-54.52-62.81-85.82-138.3-31.31-75.49-31.31-159.46 0-92.35 39.78-170.46 39.77-78.11 106.51-131.59-109.63 17.55-183.3 102.63-73.66 85.09-73.66 199.1Z"/></svg>