<svg xmlns="http://www.w3.org/2000/svg" height="20" viewBox="0 -960 960 960" width="20"><path d="m777.09-80.96-75.83-75.58q-49.19 32.95-105.51 50.31Q539.43-88.87 480-88.87q-80.91 0-152.35-30.6-71.43-30.6-125.01-84.17-53.57-53.58-84.17-125.01-30.6-71.44-30.6-152.35 0-59.43 17.36-115.75t50.31-105.51l-75.58-76.83 53.39-53.39 697.13 698.13-53.39 53.39ZM360.33-497.48l-46.42 183.57 183.81-46.42-137.39-137.15Zm446.76 233.2L600.87-470.5l45.22-175.59-175.59 45.22-207.22-207.22q48.48-31.52 103.6-48.28T480-873.13q81.91 0 152.85 30.6 70.93 30.6 124.51 84.17 53.57 53.58 84.17 124.51 30.6 70.94 30.6 152.85 0 58-17.26 112.62-17.26 54.62-47.78 104.1Z"/></svg>