<svg xmlns="http://www.w3.org/2000/svg" height="20" viewBox="0 -960 960 960" width="20"><path d="m313.91-313.91 264.72-67.46 67.46-264.72-264.72 67.46-67.46 264.72Zm166.03-122.87q-18.03 1-30.59-11.92-12.57-12.91-12.57-31.36 0-18.03 12.62-30.59 12.63-12.57 30.66-12.57t30.59 12.62q12.57 12.63 12.57 30.66t-12.62 30.59q-12.63 12.57-30.66 12.57Zm.34 348.91q-81.19 0-152.62-30.62-71.44-30.62-125-84.17-53.55-53.56-84.17-124.95Q87.87-399 87.87-480.46q0-81.45 30.62-152.38 30.62-70.94 84.17-124.5 53.56-53.55 124.95-84.17 71.39-30.62 152.85-30.62 81.45 0 152.38 30.62 70.94 30.62 124.5 84.17 53.55 53.56 84.17 124.72 30.62 71.16 30.62 152.34 0 81.19-30.62 152.62-30.62 71.44-84.17 125-53.56 53.55-124.72 84.17-71.16 30.62-152.34 30.62Z"/></svg>