<svg xmlns="http://www.w3.org/2000/svg" height="20" viewBox="0 -960 960 960" width="20"><path d="M280.35-235.46v-233.82l11.98-52.26h375.65l12.39 52.26v233.82H280.35Zm82.76-210.26v134.44h234.02v-134.44H363.11ZM479.48-703.5q20.3 0 34.03-13.8t13.73-34.2q0-20.4-13.73-34.2-13.73-13.8-34.03-13.8-20.5 0-34.37 13.8-13.87 13.8-13.87 34.2 0 20.4 13.87 34.2 13.87 13.8 34.37 13.8Zm167.8-10.89v-70.22l-44.3 8.81q1.24 5.95 1.86 12.05.62 6.09.62 12.65 0 6.56-.24 13.16-.24 6.61-2.48 13.74l44.54 9.81ZM280.35-469.28q0-60.78 32.91-109.48t86.54-72.41q-11.73-8.72-20.73-20.4-9.01-11.68-15-24.15l-135.63-27.41q-8.03-2.11-12.98-7.91-4.96-5.79-4.96-13.91v-9.04q0-7.9 4.98-13.86 4.99-5.96 12.92-8.05l133.67-27.14q15.19-33.92 46.59-55.37 31.39-21.46 70.82-21.46 25.19 0 47.15 9.12 21.96 9.12 39.91 25.84l109.26-22.05q19.42-4.48 34.56 8.17 15.14 12.64 15.14 32.33v154.16q0 19.25-15.02 31.99-15.02 12.74-34.44 8.27l-112.5-23.05q-1 .81-1.81 1.58-.81.76-1.82 1.34 53.63 23.47 87.05 72.25 33.41 48.78 33.41 110.64h-83.24q0-49.28-34.36-82.83-34.35-33.54-83.43-33.54-48.25 0-82.24 33.66-33.99 33.66-33.99 82.71h-82.76Zm83 381.41q-37.78 0-60.39-22.61t-22.61-60.39v-64.59h82.76v64.59h234.02v-64.59h83.24v64.59q0 37.78-22.61 60.39t-60.39 22.61H363.35Z"/></svg>