<svg xmlns="http://www.w3.org/2000/svg" height="20" viewBox="0 -960 960 960" width="20"><path d="M218.87-135.87q-33.78 0-58.39-24.61t-24.61-58.39v-522.26q0-34.48 24.61-58.74 24.61-24.26 58.39-24.26h522.26q34.48 0 58.74 24.26 24.26 24.26 24.26 58.74v522.26q0 33.78-24.26 58.39t-58.74 24.61H218.87Zm0-83h522.26v-522.26H218.87v522.26Zm241.67-163.22h51.59v-195.82h-51.59v195.82Zm-146.15 0h48.48q21.11 0 35.39-14.14 14.28-14.14 14.28-35.05V-480h-51.58v46.09h-44.89v-92.18h96.47V-542q0-10.81-14.28-23.36-14.28-12.55-35.39-12.55h-48.48q-21.21 0-35.56 14.35-14.35 14.35-14.35 35.56v96q0 21.21 14.35 35.56 14.35 14.35 35.56 14.35Zm240.96 0h51.58v-69.84h62.44v-51.59h-62.44v-22.57h83.81v-51.82H555.35v195.82ZM218.87-218.87v-522.26 522.26Z"/></svg>