<svg xmlns="http://www.w3.org/2000/svg" height="20" viewBox="0 -960 960 960" width="20"><path d="m384-40.59-41.5-41.5v-227.04H135.87v-83.24l96-96v-257.78h-48v-83h257.26q-41.24 38-62.62 86.5-21.38 48.5-21.38 105.5 0 117.82 81.21 191.56 81.2 73.74 193.79 73.15v63.31H425.5v227.04L384-40.59Zm236.9-404.56q-79.77 0-135.77-56.16-56-56.16-56-135.84 0-80.93 56-137.96 56-57.04 136-54.04t136 58q56 55 56 134.48 0 79.48-56.23 135.5-56.22 56.02-136 56.02Zm.23-192q25 0 42.5-17.5t17.5-42.5q0-25-17.5-42.5t-42.5-17.5q-25 0-42.5 17.5t-17.5 42.5q0 25 17.5 42.5t42.5 17.5Zm0 120q31.76 0 58.88-15.88t43.12-42.19q-23.24-13.17-48.96-19.55-25.72-6.38-53.26-6.38t-53.04 6.88q-25.5 6.88-48.74 19.05 16 26.31 43.12 42.19 27.12 15.88 58.88 15.88Z"/></svg>