<svg xmlns="http://www.w3.org/2000/svg" height="20" viewBox="0 -960 960 960" width="20"><path d="M177.37-309.13q-17.45 0-29.48-12.08-12.02-12.08-12.02-29.61v-24.36q0-9.23 3.36-16.59 3.36-7.35 9.07-13.03l83.57-83.51v-257.84h-12q-15.3-1.92-25.65-12.92-10.35-11.01-10.35-28.37t12.02-29.54q12.03-12.17 29.48-12.17h134.87q23.79 0 34.52 21.15 10.74 21.15-2.98 41.78-17.32 28.49-25.99 62.35-8.66 33.87-8.66 66.72 0 97.58 65.04 173.5 65.05 75.91 162.83 89.32 13.63 2.19 22.69 11.27 9.05 9.08 9.05 22.71t-9.07 22.43q-9.08 8.79-22.91 8.79H425.5v220.09q0 17.45-11.96 29.47-11.97 12.03-29.33 12.03t-29.54-12.03Q342.5-71.59 342.5-89.04v-220.09H177.37Zm443.76-520.02q80 3 136 58t56 134.48q0 79.48-56.23 135.5-56.22 56.02-136 56.02-79.77 0-135.77-56.16-56-56.16-56-135.84 0-80.93 56-137.96 56-57.04 136-54.04Zm0 192q25 0 42.5-17.5t17.5-42.5q0-25-17.5-42.5t-42.5-17.5q-25 0-42.5 17.5t-17.5 42.5q0 25 17.5 42.5t42.5 17.5Zm-.02 120q25.3 0 49.09-11.02 23.78-11.03 40.78-30.07 5.95-5.48 3.84-14.17-2.12-8.7-10.08-11.94-19.47-8.52-40.35-12.66-20.87-4.14-43-4.14t-43.36 4.14q-21.23 4.14-40.51 12.66-7.87 3.42-10.03 12.02-2.16 8.61 3.79 14.09 16.76 19.04 40.64 30.07 23.88 11.02 49.19 11.02Z"/></svg>