<svg xmlns="http://www.w3.org/2000/svg" height="20" viewBox="0 -960 960 960" width="20"><path d="M145.43-183.87q-37.78 0-60.39-22.61t-22.61-60.39v-426.26q0-37.78 22.61-60.39t60.39-22.61h669.14q37.78 0 60.39 22.61t22.61 60.39v426.26q0 37.78-22.61 60.39t-60.39 22.61H145.43Zm186.27-131h296.6v-77.98H331.7v77.98ZM222.26-433.91h77.98v-77.98h-77.98v77.98Zm145.91 0h77.98v-77.98h-77.98v77.98Zm145.68 0h77.98v-77.98h-77.98v77.98Zm145.91 0h77.98v-77.98h-77.98v77.98Zm-437.5-118.81h77.98v-77.98h-77.98v77.98Zm145.91 0h77.98v-77.98h-77.98v77.98Zm145.68 0h77.98v-77.98h-77.98v77.98Zm145.91 0h77.98v-77.98h-77.98v77.98Z"/></svg>