<svg xmlns="http://www.w3.org/2000/svg" height="20" viewBox="0 -960 960 960" width="20"><path d="M480-112.3q-13.96 0-26.29-4.74-12.34-4.74-24.06-14.22-41.43-35.72-88.89-82.96-47.46-47.24-88.05-101.71-40.6-54.48-66.72-114.06-26.12-59.58-26.12-119.97 0-33.19 5.74-64.39 5.74-31.19 17.46-59.39L115-741.8q-11.48-11.48-11.48-26.7 0-15.22 11.48-26.7 11.48-11.47 26.7-11.47 15.21 0 26.69 11.47l631.63 631.63q11.48 11.48 11.36 26.58-.12 15.1-11.6 26.58-11.48 11.48-26.69 11.48-15.22 0-26.7-11.48L630.54-226.26q-24.47 26.48-51.19 51.1t-49 43.9q-11.72 9.48-24.06 14.22-12.33 4.74-26.29 4.74Zm0-759.83q136.11 0 228.12 92.41 92.01 92.42 92.01 229.76 0 35.81-9.92 72.51-9.93 36.71-30.77 76.32-11.48 22.35-36.33 26.3-24.85 3.96-43.72-14.91L548.07-522.07q3.04-7.28 4.68-14.7 1.64-7.43 1.64-15.23 0-15.48-5.74-28.96-5.74-13.47-15.98-23.71t-23.71-15.98q-13.48-5.74-28.96-5.74-7.8 0-15.23 1.64-7.42 1.64-14.7 4.68L319.5-750.63q-18.39-18.39-16.17-44.24 2.21-25.85 24.56-38.57 33.57-17.84 71.53-28.27 37.97-10.42 80.58-10.42Z"/></svg>