<svg xmlns="http://www.w3.org/2000/svg" height="20" viewBox="0 -960 960 960" width="20"><path d="M265.2-88.59q-34.49 0-58.75-24.26-24.25-24.25-24.25-58.74v-378.26q0-34.48 24.25-58.74 24.26-24.26 58.75-24.26h17.3v-89.06q0-82.31 57.18-139.31 57.19-57 138.63-57 81.45 0 138.53 57 57.07 57 57.07 139.31v89.06h17.31q34.48 0 58.74 24.26 24.26 24.26 24.26 58.74v56.15q-19.15-5.47-43.12-6-23.97-.52-39.88 2.92-93.46 14.06-160.63 84.87-67.18 70.8-67.18 176.69 0 38 11.6 76.32 11.6 38.31 33.08 70.31H265.2Zm461.99 45.37q-79.78 0-135.78-56.22-56-56.23-56-136 0-79.78 56.23-135.78t136-56q79.77 0 135.77 56.23 56 56.23 56 136 0 79.77-56.22 135.77-56.23 56-136 56ZM365.5-632.85h225.41v-89.06q0-48.09-32.9-80.7-32.91-32.61-79.92-32.61-46.91 0-79.75 32.61t-32.84 80.7v89.06Zm361.91 517.63q32 0 59-16t43-42q-23-13-48.5-19.5t-53.5-6.5q-28 0-53.5 7t-48.5 19q16 26 43 42t59 16Zm0-120q25 0 42.5-17.5t17.5-42.5q0-25-17.5-42.5t-42.5-17.5q-25 0-42.5 17.5t-17.5 42.5q0 25 17.5 42.5t42.5 17.5Z"/></svg>