<svg xmlns="http://www.w3.org/2000/svg" height="20" viewBox="0 -960 960 960" width="20"><path d="M170.87-183.87q-34.48 0-58.74-24.27-24.26-24.27-24.26-58.77v-426.5q0-34.5 24.26-58.61t58.74-24.11h618.26q34.48 0 58.74 24.27 24.26 24.27 24.26 58.77v426.5q0 34.5-24.26 58.61t-58.74 24.11H170.87ZM560.89-504v40.11q0 16.49 11.25 27.8 11.24 11.31 27.65 11.31 16.41 0 27.86-11.31 11.46-11.31 11.46-27.8V-504h40.11q16.49 0 27.8-11.25 11.31-11.24 11.31-27.65 0-16.4-11.31-27.86t-27.8-11.46h-40.11v-40.11q0-16.49-11.25-27.8-11.24-11.3-27.65-11.3-16.41 0-27.86 11.3-11.46 11.31-11.46 27.8v40.11h-40.11q-16.49 0-27.8 11.25-11.31 11.24-11.31 27.65 0 16.41 11.31 27.86Q504.29-504 520.78-504h40.11ZM170.87-393.09h618.26v-300.04H170.87v300.04Z"/></svg>