<svg xmlns="http://www.w3.org/2000/svg" height="20" viewBox="0 -960 960 960" width="20"><path d="M783.22-62.87 75.26-770.59q-11.72-11.71-11.22-26.19t12.22-26.2q11.72-11.72 26.44-11.72 14.71 0 26.43 11.72l707.48 707.72q11.72 11.72 11.72 26.2 0 14.47-11.72 26.19t-26.7 11.72q-14.98 0-26.69-11.72ZM480-713.54q15.72 0 26.82-11.1 11.09-11.1 11.09-26.82 0-15.71-11.09-26.81-11.1-11.1-26.82-11.1t-26.82 11.1q-11.09 11.1-11.09 26.81 0 15.72 11.09 26.82 11.1 11.1 26.82 11.1ZM291.59-40.59q-34.79 0-58.89-24.11-24.11-24.1-24.11-58.89v-619.69l542.82 542.82v76.87q0 36.07-25.49 59.54-25.49 23.46-57.03 23.46h-377.3Zm459.82-795.82v137.06q20.24.96 34.24 15.92 14 14.95 14 35.67v94.8q0 20.72-14 35.8-14 15.07-34.24 16.03v99.04q0 27.59-25.46 38.41-25.47 10.81-45.1-8.82L227.57-825.54q-5.72-5.72-8.82-13.42-3.1-7.69-3.1-16.13 0-23.58 21.61-43.95 21.61-20.37 59.11-20.37h372.04q34.79 0 58.89 24.11 24.11 24.1 24.11 58.89Z"/></svg>