<svg xmlns="http://www.w3.org/2000/svg" height="20" viewBox="0 -960 960 960" width="20"><path d="m723.59-430.09-54.11-53.87 85-83.28q-101.28-13.28-187.87 24.21T408.24-430.57q23.8-112.71 118.8-183.27 95-70.55 225.96-71.75l-83.52-82.8 54.11-52.87 196.54 195.59-196.54 195.58ZM480.72-87.87Q317.98-223.54 239.04-339.08q-78.93-115.53-78.93-214.12 0-134.54 93.51-226.73 93.51-92.2 227.1-92.2 40.19 0 78.15 9 37.96 9 73.91 28.48l-63.08 63.08q-23.81-9.52-45.99-13.66-22.19-4.14-42.99-4.14-99.05 0-168.45 68.09-69.4 68.08-69.4 168.08 0 68.48 59.06 156.95Q361-307.78 480.72-197.22q49.13-43.89 92.01-92.39t83.6-105.26l59.65 59.89q-48.2 66.24-105.49 126.91-57.29 60.68-129.77 120.2Z"/></svg>