<svg xmlns="http://www.w3.org/2000/svg" height="20" viewBox="0 -960 960 960" width="20"><path d="M225.58-159.87q-17.36 0-29.54-12.02-12.17-12.03-12.17-29.48v-54.5h-54.5q-17.45 0-29.48-11.96-12.02-11.97-12.02-29.33t12.02-29.54q12.03-12.17 29.48-12.17h54.5v-54.5q0-17.45 11.96-29.48 11.97-12.02 29.33-12.02t29.54 12.02q12.17 12.03 12.17 29.48v54.5h54.5q17.45 0 29.48 11.96 12.02 11.97 12.02 29.33t-12.02 29.54q-12.03 12.17-29.48 12.17h-54.5v54.5q0 17.45-11.96 29.48-11.97 12.02-29.33 12.02Zm175.9-24q16.19-25.2 24.79-54.18 8.6-28.98 8.6-59.32 0-87.15-61.17-148.33-61.18-61.17-148.33-61.17-37.44 0-73.22 13.31t-64.28 37.8v-237.06q0-35.09 24.26-59.2t58.74-24.11h414.26q19.48 0 36.95 8.7 17.46 8.69 30.14 24.84l159.37 213.13q16.15 23.11 16.15 49.46t-16.15 49.46L652.22-217.41q-12.68 16.15-30.14 24.84-17.47 8.7-36.95 8.7H401.48Z"/></svg>