<svg xmlns="http://www.w3.org/2000/svg" height="20" viewBox="0 -960 960 960" width="20"><path d="M121.43-183.87q-34.48 0-58.74-24.26-24.26-24.26-24.26-58.74v-522.26q0-34.48 24.26-58.74 24.26-24.26 58.74-24.26H349q34.48 0 58.74 24.26Q432-823.61 432-789.13v158.91q0 17.45-12.02 29.48-12.03 12.02-29.48 12.02h-53.54q-45.24 0-76.98 31.74-31.74 31.74-31.74 76.98 0 45.24 31.74 76.98 31.74 31.74 76.98 31.74h53.54q17.45 0 29.48 12.04Q432-347.19 432-329.7v63.07q0 34.54-24.26 58.65T349-183.87H121.43Zm113.79-494.85q15.58 0 26.04-10.45 10.46-10.46 10.46-26.05 0-15.58-10.46-26.04-10.46-10.46-26.04-10.46-15.59 0-26.05 10.46-10.45 10.46-10.45 26.04 0 15.59 10.45 26.05 10.46 10.45 26.05 10.45Zm99.56 237.83q-16.41 0-27.87-11.25-11.45-11.24-11.45-27.65 0-16.41 11.24-27.86 11.25-11.46 27.65-11.46 16.41 0 27.87 11.25 11.45 11.24 11.45 27.65 0 16.41-11.24 27.86-11.25 11.46-27.65 11.46Zm145.43 0q-16.41 0-27.86-11.25-11.46-11.24-11.46-27.65 0-16.41 11.25-27.86 11.24-11.46 27.65-11.46 16.41 0 27.86 11.25 11.46 11.24 11.46 27.65 0 16.41-11.25 27.86-11.24 11.46-27.65 11.46ZM611-87.87q-34.48 0-58.74-24.26Q528-136.39 528-170.87v-158.91q0-17.45 12.02-29.48 12.03-12.02 29.48-12.02h52.59q45.24 0 76.98-31.74Q730.8-434.76 730.8-480q0-45.24-31.73-76.98-31.74-31.74-76.98-31.74H569.5q-17.45 0-29.48-12.04Q528-612.81 528-630.3v-63.07q0-34.54 24.26-58.65T611-776.13h227.57q34.48 0 58.74 24.26 24.26 24.26 24.26 58.74v522.26q0 34.48-24.26 58.74-24.26 24.26-58.74 24.26H611Zm14.65-353.02q-16.41 0-27.87-11.25-11.45-11.24-11.45-27.65 0-16.41 11.24-27.86 11.25-11.46 27.65-11.46 16.41 0 27.87 11.25 11.45 11.24 11.45 27.65 0 16.41-11.24 27.86-11.25 11.46-27.65 11.46Zm99.13-141.35q15.59 0 26.05-10.46 10.45-10.45 10.45-26.04 0-15.58-10.45-26.04-10.46-10.46-26.05-10.46-15.58 0-26.04 10.46-10.46 10.46-10.46 26.04 0 15.59 10.46 26.04 10.46 10.46 26.04 10.46Z"/></svg>