<svg xmlns="http://www.w3.org/2000/svg" height="20" viewBox="0 -960 960 960" width="20"><path d="M540.52-251.24h-49.48q-16.97 0-28.52 11.61-11.54 11.6-11.54 28.48 0 16.89 11.66 28.7 11.67 11.82 28.64 11.82h88.35q17.45 0 29.48-12.02 12.02-12.03 12.02-29.48v-88.59q0-16.97-11.6-28.64-11.61-11.66-28.49-11.66-16.89 0-28.7 11.66-11.82 11.67-11.82 28.64v49.48ZM291.11-39.87q-34.48 0-58.74-24.26-24.26-24.26-24.26-58.74v-714.26q0-37.78 22.61-60.39t60.39-22.61h377.78q34.48 0 58.74 24.26 24.26 24.26 24.26 58.74v137.06q20.24.96 34.24 15.92 14 14.95 14 35.67v94.81q0 20.71-14 35.79-14 15.08-34.24 16.03v378.98q0 34.48-24.26 58.74-24.26 24.26-58.74 24.26H291.11Zm128.37-668.89h49.48q16.97 0 28.64-11.61 11.66-11.6 11.66-28.48 0-16.89-11.66-28.7-11.67-11.82-28.64-11.82h-88.59q-17.45 0-29.48 12.02-12.02 12.03-12.02 29.48v88.59q0 16.97 11.6 28.64 11.61 11.66 28.49 11.66 16.89 0 28.7-11.66 11.82-11.67 11.82-28.64v-49.48Z"/></svg>