<svg xmlns="http://www.w3.org/2000/svg" height="20" viewBox="0 -960 960 960" width="20"><path d="M648.96-617.3q-24.05 0-44.96-8.24t-37.87-22.72L320.72-498.89q-5.76 3.43-13.08 5.07-7.31 1.65-14.36-.26-14.15-3.47-28.39-5.02-14.24-1.55-28.27-1.55-29.36 0-58.26 6t-54.95 19q-7.19 3.48-12.91 2.24-5.72-1.24-11.43-6.96-5.72-5.72-7.58-13.29-1.86-7.58.38-16.77 10.48-43.64 45.89-70.43 35.41-26.79 77.52-26.79 23.39 0 44.15 8 20.77 8 37.72 22l227.92-139.5q-1.77-6.52-2.65-13.21-.88-6.69-.88-14.36 0-53.09 37.17-90.25t90.26-37.16q53.1 0 90.25 37.17 37.15 37.16 37.15 90.26 0 53.09-37.16 90.24-37.16 37.16-90.25 37.16Zm-.02 529.43q-53.09 0-90.24-37.09-37.16-37.09-37.16-90.08 0-8.76 3.76-26.85l-17-9.52q-14.91-8.72-18.53-25.17-3.62-16.45 5.1-31.05 8.72-14.67 24.7-18.53 15.99-3.86 30.52 4.86l15.56 10.28q16.96-14.72 38.07-23.2 21.11-8.48 45.24-8.48 53.09 0 90.25 37.22t37.16 90.38q0 53.17-37.17 90.2-37.16 37.03-90.26 37.03ZM236.43-44.65q-79.78 0-135.78-56.23-56-56.22-56-136 0-79.77 56.23-135.77 56.22-56 136-56 79.77 0 135.77 56.22 56 56.23 56 136 0 79.78-56.22 135.78-56.23 56-136 56Zm-1.02-158.74 39.37 39.13q7.33 7.19 17.09 7.19t17.17-7.19q7.2-7.4 7.2-17.51 0-10.11-7.2-17.51l-39.13-38.13 39.37-39.37q7.2-7.33 7.2-17.09t-7.2-17.17q-7.41-7.2-17.17-7.2-9.77 0-17.09 7.2l-39.13 39.13-39.37-39.37q-7.11-7.2-16.59-7.2-9.47 0-16.67 7.2-7.19 7.41-7.19 17.17 0 9.77 7.19 17.09l38.13 39.13-39.37 39.37q-7.19 7.11-7.19 16.59 0 9.47 7.19 16.67 7.63 7.19 17.68 7.19t17.58-7.19l38.13-38.13Z"/></svg>