<svg xmlns="http://www.w3.org/2000/svg" height="20" viewBox="0 -960 960 960" width="20"><path d="M480-173.63q102.33-33.69 169.73-129 67.4-95.32 67.4-212.26v-177.96L480-783.65l-237.13 90.92V-515q0 117.05 67.4 212.37 67.4 95.31 169.73 129Zm0-304.89Zm0 188.37q17 0 28.5-11.5t11.5-28.5q0-17-11.5-28.5t-28.5-11.5q-17 0-28.5 11.5t-11.5 28.5q0 17 11.5 28.5t28.5 11.5Zm1.29-113.7q11.43 0 19.21-7.76 7.78-7.76 9.26-19.52 1.03-6.3 3.08-12.15 2.05-5.85 5.16-10.85 4.08-7.4 9.04-13.32 4.96-5.92 10.2-11.16 20-20 36.5-42.77 16.5-22.78 16.5-51.51 0-42.35-32.62-69.18-32.63-26.82-76.36-26.82-30.02 0-56.52 13.5-26.5 13.5-42.74 38.84-6.24 10.42-1.88 21.86t15.98 16.64q10.73 5.16 21.29.11 10.56-5.05 18.14-14.19 8.23-11 19.81-16.62 11.57-5.62 25.66-5.62 20.3 0 35.53 13.14 15.23 13.13 15.23 33.34 0 18-11.38 30.76-11.38 12.76-24.62 25.52-10 9.52-18.82 19.26-8.81 9.73-15.22 21.78-5.24 8.17-7.48 17.94-2.24 9.76-2.24 19.53 0 12.39 8.3 20.82t20.99 8.43ZM480-92.35q-6.72 0-13.67-.62-6.96-.62-12.92-2.86-132.67-43.47-213.11-162.1Q159.87-376.57 159.87-515v-177.85q0-26.28 14.41-47.3 14.42-21.02 38.76-30.22l237.13-90.8q14.68-5.72 29.83-5.72 15.15 0 29.83 5.72l237.13 90.8q24.34 9.2 38.76 30.22 14.41 21.02 14.41 47.3V-515q0 138.43-80.43 257.07-80.44 118.63-213.11 162.1-5.96 2.24-12.92 2.86-6.95.62-13.67.62Z"/></svg>