<svg xmlns="http://www.w3.org/2000/svg" height="20" viewBox="0 -960 960 960" width="20"><path d="M135.87-332.17h215.35q-14.57 16.32-26.75 34.79-12.19 18.47-24.23 39.08-11.44 19.39-10.94 42.57t10.94 43.95q5.72 9.48 11 18.39t11.15 17.52H218.87q-34.48 0-58.74-24.26-24.26-24.26-24.26-58.74v-113.3Zm0-72v-196.31H444v189.13q-2.42 1.44-4.45 3.21-2.04 1.78-3.96 3.97H135.87ZM516-600.48h308.13v182.85q-39.96-21.44-86.09-32.53-46.14-11.1-98.45-11.1-32.92 0-63.78 4.74-30.85 4.74-59.81 13.45v-157.41Zm-380.13-72v-68.86q0-34.57 24.26-58.68t58.74-24.11h522.26q34.48 0 58.74 24.26 24.26 24.26 24.26 58.74v68.65H135.87ZM639.59-40.83q-77.96 0-146.67-34.37-68.72-34.37-111.44-96.06-6.96-10.2-9.7-20.77-2.74-10.58-2.74-22.1 0-11.51 3.36-23.03 3.36-11.51 9.08-21.67 42.72-61.69 111.44-96.06 68.71-34.37 146.55-34.37 77.83 0 146.68 34.28 68.85 34.29 111.58 95.83 6.92 10.28 9.66 20.86 2.74 10.57 2.74 22.98t-3.36 23.25q-3.36 10.84-9.07 20.8-42.73 61.69-111.53 96.06-68.8 34.37-146.58 34.37Zm-.26-75.82q41.21 0 69.93-28.46 28.72-28.46 28.72-69.67 0-41.22-28.46-69.94-28.46-28.71-69.67-28.71-41.22 0-69.94 28.45-28.71 28.46-28.71 69.68 0 41.21 28.45 69.93 28.46 28.72 69.68 28.72Zm.29-36q-25.99 0-44.21-18.19-18.21-18.19-18.21-44.18 0-25.98 18.18-44.2 18.19-18.21 44.18-18.21 25.98 0 44.2 18.18 18.22 18.19 18.22 44.18 0 25.98-18.19 44.2-18.19 18.22-44.17 18.22Z"/></svg>