<svg xmlns="http://www.w3.org/2000/svg" height="20" viewBox="0 -960 960 960" width="20"><path d="M325.63-87.87H521.5V-257.3H242.63v86.43q0 34.48 24.26 58.74 24.26 24.26 58.74 24.26Zm267.87 0h195.63q34.48 0 58.74-24.26 24.26-24.26 24.26-58.74v-86.43H593.5v169.43Zm-463.92-145.2q-17.36 0-29.54-12.02-12.17-12.02-12.17-29.48v-514.8q0-37.54 22.61-60.15t60.15-22.61h514.8q17.46 0 29.48 11.96 12.02 11.97 12.02 29.33t-12.02 29.54q-12.02 12.17-29.48 12.17H170.87v514.56q0 17.46-11.96 29.48-11.97 12.02-29.33 12.02Zm113.05-96.23H521.5v-169.68H242.63v169.68Zm350.87 0h278.63v-169.68H593.5v169.68ZM242.63-570.98h629.5v-63.6q0-34.57-24.26-58.68t-58.74-24.11h-463.5q-34.48 0-58.74 24.26-24.26 24.26-24.26 58.74v63.39Z"/></svg>