<svg xmlns="http://www.w3.org/2000/svg" height="20" viewBox="0 -960 960 960" width="20"><path d="M318.37-38.2q-13.58 0-20.84-11.19-7.27-11.2-1.79-23.63l26.76-64.76h-64.47q-6.01 0-8.96-4.29-2.96-4.29-.72-9.63l38.24-113.76q3.11-9.28 10.91-14.95 7.79-5.68 17.91-5.68h63.2q11.53 0 17.82 9.2 6.29 9.19 1.81 19.63l-29.76 70.04h58.24q5.83 0 8.75 5.22t-.56 10.93L343.24-48.39q-3.48 5.24-9.7 7.72-6.21 2.47-15.17 2.47Zm273.02-49.43q-10.48 0-16.41-8.56-5.94-8.55-2.46-18.51l19.76-47.8h-53.95q-5.76 0-9.22-4.29-3.46-4.29-1.22-9.62l26.76-88.05q2.48-9.18 11.18-15.4 8.69-6.23 18.89-6.23h62.43q10.94 0 17.41 9.2 6.46 9.19 1.88 19.66l-18.18 45.3h45q7.04 0 9.48 5.99 2.43 5.99-2.28 11.4L610.5-93.59q-2.48 3.48-19.11 5.96ZM295-334.09q-87.15 0-145.83-62.95Q90.5-459.98 90.5-548.59q0-78.43 52.89-135.32 52.88-56.88 131.02-67.7 30.96-56 86.42-88.74 55.45-32.74 118.74-32.74 86.29 0 150.41 54.5 64.13 54.5 79.56 137.98 67.72 3.44 113.84 54.63 46.12 51.2 46.12 118.58 0 72.08-50.6 122.69-50.61 50.62-122.9 50.62H295Zm5-83h396q38.01 0 64.25-26.16 26.25-26.16 26.25-64.05 0-37.9-26.25-64.34-26.24-26.45-64.25-26.45h-58.5l-9-65.5q-8-54.73-50.38-90.61-42.38-35.89-98.1-35.89-44.46 0-81.09 24.17-36.63 24.16-55.91 64.49l-15.36 31.34h-27.51q-52.74-.08-89.69 36.95Q173.5-596.11 173.5-544q0 53.02 37.05 89.97 37.04 36.94 89.45 36.94Zm180-186.5Z"/></svg>