<svg xmlns="http://www.w3.org/2000/svg" height="20" viewBox="0 -960 960 960" width="20"><path d="M318.37-38.2q-13.58 0-20.84-11.19-7.27-11.2-1.79-23.63l26.76-64.76h-64.47q-5.96 0-8.94-4.29-2.98-4.29-.74-9.63l38.24-113.76q3.15-9.29 10.93-14.96 7.77-5.67 17.89-5.67h63.2q11.48 0 17.79 9.2 6.32 9.19 1.84 19.63l-29.76 70.04h58.24q5.95 0 8.81 5.22 2.86 5.22-.62 10.93L343.24-48.39q-3.48 5.24-9.7 7.72-6.21 2.47-15.17 2.47Zm273.02-49.43q-10.56 0-16.45-8.56-5.9-8.55-2.42-18.51l19.76-47.8h-53.95q-5.72 0-9.2-4.29-3.48-4.29-1.24-9.62l26.76-88.05q2.48-9.19 11.18-15.41 8.69-6.22 18.89-6.22h62.43q11.06 0 17.47 9.2 6.4 9.19 1.82 19.66l-18.18 45.3h45q6.96 0 9.44 5.99 2.47 5.99-2.24 11.4L610.5-93.59q-2.48 3.48-19.11 5.96ZM295-334.09q-87.15 0-145.83-62.95Q90.5-459.98 90.5-548.59q0-78.43 52.89-135.32 52.88-56.88 131.02-67.7 30.96-56 86.42-88.74 55.45-32.74 118.74-32.74 86.29 0 150.41 54.5 64.13 54.5 79.56 137.98 67.72 3.44 113.84 54.63 46.12 51.2 46.12 118.58 0 72.08-50.55 122.69-50.56 50.62-122.95 50.62H295Z"/></svg>