<svg xmlns="http://www.w3.org/2000/svg" height="20" viewBox="0 -960 960 960" width="20"><path d="M456.59-87.87q-27.92 0-52.35-11.68-24.43-11.69-42.81-32.78l-202.6-235.84q-10.92-13.63-9.82-30.86 1.1-17.23 13.97-29.14l5.95-5.72q17.4-15.72 40.91-20.48 23.51-4.76 45.9 4.44l68.3 25.45V-733.2q0-16.97 11.61-28.63 11.6-11.67 28.5-11.67 16.89 0 28.58 11.67 11.68 11.66 11.68 28.63v366.5q0 22.35-18.13 34.29-18.13 11.93-39 3.5l-72.95-28.24L424.8-182.63q5.95 6.56 14.06 10.35 8.12 3.8 17.25 3.8h171.72q27.92 0 47.81-19.88 19.88-19.89 19.88-47.81v-161.87q0-13.11-9.86-21.5-9.87-8.39-24.03-8.39H516.38q-16.34 0-28.15-11.61-11.82-11.6-11.82-28.49 0-16.88 11.67-28.7 11.66-11.81 28.64-11.81h144.91q46.7 0 80.6 31.9 33.9 31.9 33.9 78.6v161.87q0 61.91-43.2 105.1-43.19 43.2-105.1 43.2H456.59Zm28.95-250.76ZM363.59-951.54q100.98 0 171.66 70.68 70.68 70.69 70.68 171.66 0 23.96-4.35 45.75-4.36 21.8-12.6 43.04-4.24 8.71-13.7 12.69-9.45 3.98-19.16-.47t-13.58-15.05q-3.87-10.61.37-21.56 5.24-15.48 8.24-31.45 3-15.98 3-32.95 0-78.98-55.3-134.27-55.31-55.29-134.32-55.29-79.01 0-134.26 55.29-55.25 55.29-55.25 134.27 0 18.72 3.74 36.2 3.74 17.48 9.74 34.2 4.24 10.95.36 21.54-3.87 10.59-13.96 16.04-9.89 5.48-19.71 1.62-9.83-3.86-13.99-12.57-9.46-22.22-14.21-46.7-4.75-24.48-4.75-50.33 0-100.97 70.39-171.66 70.4-70.68 170.96-70.68Zm1 100.78q57.96 0 99.76 41.8 41.8 41.8 41.8 99.76 0 8.24-1.38 17.72-1.38 9.48-3.62 17.96-3.16 11.35-12.04 16.75-8.87 5.4-20.07 2.66-11.19-2.74-16.43-12.57-5.24-9.84-2-20.04 1.24-3.94 2.76-21.99 0-37.64-26.06-63.45-26.07-25.82-62.97-25.82-36.91 0-62.72 25.88-25.82 25.87-25.82 62.9 0 7.24 1 13.74t3 12.74q3.24 10.33-1.85 18.86-5.1 8.53-16.19 12.01-11.09 3.48-20.68-1.38-9.58-4.86-12.9-15.76-3.16-8.53-4.16-18.57-1-10.04-1-21.73 0-58.73 41.8-100.1t99.77-41.37Z"/></svg>