<svg xmlns="http://www.w3.org/2000/svg" height="20" viewBox="0 -960 960 960" width="20"><path d="M750.7-480v-356.13h83V-480h-83ZM277-76.87l-52.07-204.91q-44.71-33.96-71.67-85.01Q126.3-417.85 126.3-480q0-62.15 27.46-113.21 27.46-51.05 73.17-85.01L277-883.13h194.87l50.06 204.91q45.72 33.96 73.18 85.01 27.46 51.06 27.46 113.21 0 62.15-26.96 113.21-26.96 51.05-71.68 85.01L471.87-76.87H277Zm97.63-238q68.61 0 116.77-48.36t48.16-116.97q0-68.6-48.36-116.77-48.36-48.16-116.96-48.16-68.61 0-116.77 48.36-48.17 48.36-48.17 116.97 0 68.6 48.37 116.77 48.36 48.16 116.96 48.16ZM339.5-803.96h69.87-69.87Zm0 647.92h69.87-69.87Zm-21.2-564.81q12.57-3.76 26.89-5.4 14.32-1.64 29.04-1.64 14.73 0 28.75 1.64t26.58 5.4l-20.19-83.11H339.5l-21.2 83.11Zm21.2 564.81h69.87l22.19-83.11q-12.56 3.52-27.28 5.4-14.72 1.88-29.85 1.88-15.52 0-29.54-1.88t-26.59-5.4l21.2 83.11Z"/></svg>