<svg xmlns="http://www.w3.org/2000/svg" height="20" viewBox="0 -960 960 960" width="20"><path d="M218.87-276.65q56-44.81 122.56-66.23Q408-364.3 480-364.3t138.57 20.68q66.56 20.69 122.56 66.49v-464H218.87v464.48Zm261.37-126.57q60.72 0 103.19-42.72 42.48-42.72 42.48-103.43 0-60.72-42.72-103.08-42.72-42.35-103.43-42.35-60.72 0-103.19 42.6-42.48 42.6-42.48 103.31 0 60.72 42.72 103.19 42.72 42.48 103.43 42.48ZM135.87-135.87v-688.26h688.26v688.26H135.87ZM479.94-478.8q-29.22 0-49.62-20.51-20.41-20.51-20.41-49.81 0-29.29 20.46-49.7 20.46-20.4 49.69-20.4 29.22 0 49.62 20.46 20.41 20.46 20.41 49.69 0 29.22-20.46 49.74-20.46 20.53-49.69 20.53Zm.06-75.59ZM268.35-218.87h423.78q-45.52-34.52-99.33-52.18Q539-288.72 480-288.72t-111.83 17.67q-52.82 17.66-99.82 52.18Z"/></svg>