<svg xmlns="http://www.w3.org/2000/svg" height="20" viewBox="0 -960 960 960" width="20"><path d="M443.28-529.3ZM305.3-262.09v-280.82H164.65v280.82H305.3ZM86.43-183.87v-437.26h297.09v437.26H86.43ZM234.7-466.13q11.31 0 18.99-7.71 7.68-7.72 7.68-18.4 0-11.32-7.56-19-7.56-7.67-19.12-7.67-10.91 0-18.51 7.56-7.59 7.55-7.59 19.11 0 10.91 7.71 18.51 7.72 7.6 18.4 7.6ZM652.78-87.87v-178.18q-12-5.16-18-16.88-6-11.72-6-25.3 0-21.26 14.6-35.77 14.6-14.52 35.31-14.52 21.49 0 36.18 14.52 14.7 14.51 14.7 35.77 0 14.58-6.12 25.7t-17.88 16.6v178.06h-52.79Zm-76.8-116.35q-21.24-20.71-32.22-47.53t-10.98-56.42q0-61.22 42.93-103.78 42.93-42.57 103.22-42.57 61.2 0 103.92 42.54 42.72 42.55 42.72 103.85 0 31.72-12.98 59.58-12.98 27.85-36.22 49.33l-35.35-39.35q15.76-14 23.76-31.88 8-17.88 8-37.74 0-39.29-27.05-66.42-27.06-27.13-66.21-27.13-39.15 0-66.55 27.17-27.4 27.18-27.4 66.53 0 19.18 7 36.45 7 17.26 20.52 30.26l-37.11 37.11Zm-68.24 67.76q-34.24-34.47-52.6-78.96-18.36-44.49-18.36-92.71 0-101 70.72-171.7 70.72-70.69 171.21-70.69 101.42 0 172.14 70.69 70.72 70.7 70.72 171.7 0 51.72-22.1 97.96-22.1 46.24-59.1 81.71l-34.87-38.87q28.04-28 45.66-64.02 17.62-36.02 17.62-76.78 0-78.8-55.4-134.21-55.4-55.4-134.65-55.4-78.3 0-133.73 55.22-55.43 55.22-55.43 134.86 0 37.29 13.88 72.69t41.4 61.4l-37.11 37.11ZM87.87-693.13v-83H881.7v226.54q-18.92-15.87-39.29-28.04-20.37-12.17-43.71-21.13v-94.37H87.87ZM234.98-402.5Z"/></svg>