<svg xmlns="http://www.w3.org/2000/svg" height="20" viewBox="0 -960 960 960" width="20"><path d="M716.9-42.74q-79.77 0-135.77-56.23-56-56.22-56-136 0-79.77 56.23-135.77 56.22-56 136-56 79.77 0 135.77 56.23 56 56.22 56 136 0 79.77-56.23 135.77-56.22 56-136 56ZM290.87-596.41h378.26v-72H290.87v72ZM471.8-135.15H135.87v-688.26h688.26v349.13q-25.88-11.11-52.77-16.67-26.88-5.55-54.23-5.55-12 0-24 1t-24 3v-22.78H290.87v72h265.52q-22 16.28-40.24 36.56-18.24 20.29-31.72 44.57H290.87v72h165.7q-2.72 13.67-4.08 27.7-1.36 14.04-.36 27.95 1 23.72 6.1 50.29 5.1 26.58 13.57 49.06Zm245.33-99.59q25 0 42.5-17.5t17.5-42.5q0-25-17.5-42.5t-42.5-17.5q-25 0-42.5 17.5t-17.5 42.5q0 25 17.5 42.5t42.5 17.5Zm0 120q32 0 59-16t43-42q-23-12-48.5-19t-53.5-7q-28 0-53.5 7t-48.5 19q16 26 43 42t59 16Z"/></svg>