<svg xmlns="http://www.w3.org/2000/svg" height="20" viewBox="0 -960 960 960" width="20"><path d="M208.11-39.87v-880.26h543.78v365.26h-144.8l-28.48 109.63q-42.24 32.72-66.36 80.91-24.12 48.19-24.12 102.96 0 54.48 24.24 102.44 24.24 47.95 66.24 81.43l10.72 37.63H208.11Zm271.68-673.67q16.02 0 27.07-10.84t11.05-26.87q0-16.02-10.84-27.07t-26.86-11.05q-16.02 0-27.07 10.84t-11.05 26.86q0 16.03 10.84 27.08 10.84 11.05 26.86 11.05ZM663.33-39.87l-21.38-82.42q-37.58-21.69-59.7-58.53-22.12-36.83-22.12-80.55t22.12-80.55q22.12-36.84 59.7-58.53l21.38-82.42h128.61l19.37 87.42q33.58 22.69 52.7 57.88 19.12 35.18 19.12 76.05t-19.12 75.7q-19.12 34.84-52.7 57.53l-19.37 88.42H663.33Zm58.1-140.61q33.77 0 57.43-23.46 23.66-23.47 23.66-57.23t-23.46-57.43q-23.47-23.66-57.23-23.66t-57.43 23.47q-23.66 23.46-23.66 57.22 0 33.77 23.47 57.43 23.46 23.66 57.22 23.66Z"/></svg>