<svg xmlns="http://www.w3.org/2000/svg" height="20" viewBox="0 -960 960 960" width="20"><path d="M407.04-542.91ZM87.87-183.87v-592.26h784.26v83H170.87v426.26h89.06v83H87.87Zm706.04-78.22v-280.82H653.26v280.82h140.65Zm-218.87 78.22v-437.26h297.09v437.26H575.04Zm148.27-282.26q11.31 0 18.99-7.71 7.68-7.72 7.68-18.4 0-11.32-7.56-19-7.56-7.67-19.12-7.67-10.91 0-18.51 7.56-7.59 7.55-7.59 19.11 0 10.91 7.71 18.51 7.71 7.6 18.4 7.6ZM356.65-183.87l-24.24-73.34q-22.22-17.33-35.35-42.61-13.13-25.28-13.13-54.96t13.13-55.13q13.13-25.46 35.35-42.79l24.24-73.39h100.78l24.24 73.35q22.23 17.32 35.36 42.6 13.12 25.28 13.12 54.96t-13.12 55.14q-13.13 25.45-35.36 42.79l-24.24 73.38H356.65Zm50.5-126.22q18.7 0 31.74-13.09t13.04-31.8q0-18.7-13.07-31.8-13.08-13.09-31.85-13.09-18.77 0-31.81 13.12-13.05 13.12-13.05 31.77t13.15 31.77q13.15 13.12 31.85 13.12Zm316.44-92.41Z"/></svg>