<svg xmlns="http://www.w3.org/2000/svg" height="20" viewBox="0 -960 960 960" width="20"><path d="M809.46-44.76 670.35-183.87H571.7v-98.65l-72-72v39.65H135.39v-403.72L44.28-809.7l53.63-52.63L861.85-98.15l-52.39 53.39Zm-305.22-518.5L291.37-776.13h533v83H504.24v129.87Zm67.93-57.87h299.96v425.76L572.17-495.61v-125.52Zm149.74 155q10.96 0 18.68-7.75 7.71-7.75 7.71-19.14 0-10.17-7.71-18.03-7.72-7.86-18.68-7.86-11.19 0-18.79 7.86t-7.6 18.03q0 11.39 7.6 19.14t18.79 7.75ZM87.87-183.87v-83H499.7v83H87.87Z"/></svg>