<svg xmlns="http://www.w3.org/2000/svg" height="20" viewBox="0 -960 960 960" width="20"><path d="M263.52-915.83q78.76 0 125.53 70.65 46.78 70.64 46.78 158.7 0 37.41-7.55 72.64-7.54 35.23-17.82 65.71l-274.92 57.11q-18.47-40.11-30.92-91.27-12.45-51.17-12.45-104.43 0-85.19 45.58-157.15 45.58-71.96 125.77-71.96Zm52.28 655.66q-67.8 0-105.73-47.05-37.94-47.04-44.66-106.43l248.37-52.15q8.24 16.95 15.14 38.07 6.91 21.12 6.91 42.4 0 54.48-33.82 89.82-33.81 35.34-86.21 35.34Zm380.68-439.66q80.19 0 125.77 71.96t45.58 157.15q0 52.07-11.59 103.04-11.59 50.96-30.35 90.35l-274.91-50.54q-10.24-32.15-18.52-68.08-8.29-35.92-8.29-74.53 0-88.06 46.78-158.7 46.77-70.65 125.53-70.65ZM644.2-44.17q-52.4 0-86.21-35.34-33.82-35.34-33.82-89.82 0-20.32 6.67-40.25 6.66-19.92 13.94-36.92l250.29 45.02q-5.77 60.83-44.06 109.07-38.29 48.24-106.81 48.24Z"/></svg>