<svg xmlns="http://www.w3.org/2000/svg" height="20" viewBox="0 -960 960 960" width="20"><path d="M135.87-87.87v-688.26h310.35q-18.87 27.96-28.55 60.85Q408-682.39 408-648q0 100 70.23 170 70.24 70 169.77 70 19.94 0 38.45-3t36.55-9l101.13 101.13v231H135.87ZM861-384 738-507q-20 13-42.55 20-22.55 7-47.92 7Q578-480 529-529t-49-119q0-70 49-119t119-49q70 0 119 48.95t49 118.88q0 25.17-7 47.67T789-558l123 123-51 51ZM647.77-552Q688-552 716-579.77q28-27.78 28-68Q744-688 716.23-716q-27.78-28-68-28Q608-744 580-716.23q-28 27.78-28 68Q552-608 579.77-580q27.78 28 68 28ZM259.93-240h440.14L562.74-425.28q-4.87-1-9.07-2.2-4.2-1.2-7.97-3.43L444-295.65l-72-96L259.93-240Z"/></svg>