<svg xmlns="http://www.w3.org/2000/svg" height="20" viewBox="0 -960 960 960" width="20"><path d="M727.41-235.22q25 0 42.5-17.5t17.5-42.5q0-25-17.5-42.5t-42.5-17.5q-25 0-42.5 17.5t-17.5 42.5q0 25 17.5 42.5t42.5 17.5Zm0 120q32 0 59-16t43-42q-23-13-48.5-19.5t-53.5-6.5q-28 0-53.5 7t-48.5 19q16 26 43 42t59 16ZM365.5-632.85h225.41v-89.06q0-48.09-32.9-80.7-32.91-32.61-79.92-32.61-46.91 0-79.75 32.61t-32.84 80.7v89.06ZM508.09-88.59H182.2v-544.26h100.3v-89.06q0-82.31 57.18-139.31 57.19-57 138.63-57 81.45 0 138.53 57 57.07 57 57.07 139.31v89.06h100.31v138.15q-19.21-3.47-41.15-4.5-21.94-1.02-41.85 2.42v-53.07H265.2v378.26h206.3q5.52 22.63 14.84 43.98 9.31 21.35 21.75 39.02Zm219.1 45.37q-79.78 0-135.78-56.22-56-56.23-56-136 0-79.78 56.23-135.78t136-56q79.77 0 135.77 56.23 56 56.23 56 136 0 79.77-56.22 135.77-56.23 56-136 56ZM265.2-549.85v378.26-378.26Z"/></svg>