<svg xmlns="http://www.w3.org/2000/svg" height="20" viewBox="0 -960 960 960" width="20"><path d="M648.81-168.48q19.83 0 33.39-13.46 13.56-13.46 13.56-33.36t-13.52-33.35q-13.53-13.44-33.52-13.44-19.79 0-33.18 13.56t-13.39 33.25q0 19.68 13.42 33.24 13.41 13.56 33.24 13.56Zm.15-529.43q19.68 0 33.12-13.42 13.44-13.41 13.44-33.24 0-19.83-13.41-33.39-13.42-13.56-33.25-13.56T615.47-778q-13.56 13.53-13.56 33.52 0 19.79 13.68 33.18t33.37 13.39ZM89.83-455.78q-1.48-6.68-1.72-11.99-.24-5.32-.24-12.23 0-53.19 37.16-90.42 37.16-37.23 90.25-37.23 23.39 0 44.15 8 20.77 8 37.72 22l227.92-139.5q-1.77-6.52-2.65-13.21-.88-6.69-.88-14.36 0-53.09 37.17-90.25t90.26-37.16q53.1 0 90.25 37.17 37.15 37.16 37.15 90.26 0 53.09-37.16 90.24-37.16 37.16-90.25 37.16-24.05 0-44.96-8.24t-37.87-22.72L308.04-490.93q-17.47-5.48-35.36-7.6-17.88-2.12-36.22-2.12-41 0-78.08 11.83-37.08 11.84-68.55 33.04ZM648.94-87.87q-53.09 0-90.24-37.09-37.16-37.09-37.16-90.08 0-8.76 3.76-26.85l-25.65-15.61q-1.76-32.3-11.43-62.01-9.68-29.71-25.79-55.1l103.22 63.59q16.96-14.72 38.07-23.2 21.11-8.48 45.24-8.48 53.09 0 90.25 37.22t37.16 90.38q0 53.17-37.17 90.2-37.16 37.03-90.26 37.03ZM236.43-44.65q-79.78 0-135.78-56.23-56-56.22-56-136 0-79.77 56.23-135.77 56.22-56 136-56 79.77 0 135.77 56.22 56 56.23 56 136 0 79.78-56.22 135.78-56.23 56-136 56Zm-1.02-158.74 56 55.76 34.26-34.26-55.76-55.52 56-56-34.26-34.26-55.76 55.76-56-56-34.26 34.26 55.76 55.76-56 56 34.26 34.26 55.76-55.76Zm413.79-11.89Zm-.24-529.44Z"/></svg>