<svg xmlns="http://www.w3.org/2000/svg" height="20" viewBox="0 -960 960 960" width="20"><path d="M135.87-135.87v-688.26h688.26v411.89q-19.46-11.02-40.17-19.54-20.72-8.52-42.83-13.76v-149.2H521.26v152.39q-38.83 11.72-72.08 30.73-33.25 19.01-62.16 46.32H218.87v146.43l57.59 1.44q8.71 22.86 20.03 42.76 11.31 19.89 23.99 38.8H135.87Zm83-312.43H438.5v-146.44H218.87v146.44Zm0-229.44h522.26v-63.39H218.87v63.39ZM480-480Zm0 0Zm0 0Zm0 0ZM639.47-38.43q-91.27 0-168.71-45.54-77.43-45.53-113.15-128.68 35.72-83.15 113.15-128.69 77.44-45.53 168.71-45.53 91.27 0 168.82 45.53 77.56 45.54 113.28 128.69-35.72 83.15-113.28 128.68-77.55 45.54-168.82 45.54Zm.12-78.22q57.24 0 108.78-24t84.74-72q-33.2-48-84.74-72-51.54-24-108.78-24-57.25 0-108.67 24.12t-84.62 71.88q33.2 47.76 84.62 71.88 51.42 24.12 108.67 24.12Zm.03-33.61q-25.99 0-44.21-18.19-18.21-18.19-18.21-44.17 0-25.99 18.18-44.21 18.19-18.21 44.18-18.21 25.98 0 44.2 18.19 18.22 18.19 18.22 44.17t-18.19 44.2q-18.19 18.22-44.17 18.22Z"/></svg>