<svg xmlns="http://www.w3.org/2000/svg" height="20" viewBox="0 -960 960 960" width="20"><path d="M363.59-951.54q100.98 0 171.66 70.67 70.68 70.67 70.68 171.62 0 30.75-6.99 59.1t-20.92 52.89l-46.06-24.39q10.65-19.24 16.42-41.37 5.77-22.13 5.77-46.18 0-78.98-55.37-134.27-55.37-55.29-134.31-55.29-78.93 0-134.19 55.25-55.26 55.26-55.26 134.2 0 26.31 6.36 49.39 6.36 23.07 17.84 44.27l-46.07 26.63q-14.95-26.91-22.93-57.17-7.98-30.27-7.98-63.01 0-100.97 70.39-171.66 70.4-70.68 170.96-70.68Zm.96 100.78q58 0 99.8 41.8t41.8 99.76q0 18.4-4.36 34.5-4.36 16.09-11.83 31.05l-46.31-24.39q5.48-9.48 7.6-19.46 2.12-9.98 2.12-22.18 0-36.6-25.85-62.45-25.84-25.85-62.44-25.85-37.53 0-63.4 25.99Q275.8-746 275.8-709.2q0 12.72 3.13 23.72 3.13 11.01 8.35 20.44l-45.82 26.39q-8.72-15.96-13.58-33.53-4.86-17.58-4.86-37.12 0-57.86 41.37-99.66t100.16-41.8ZM776.13-87.87H399.46L131.8-399.63l76.16-69.46 116.08 44.61V-709.2h80.37v404.35l-130.08-52.3 162.15 188.67h259.04v-259.45H476.41v-80.61h299.72v420.67ZM566.5-298.33Z"/></svg>