<svg xmlns="http://www.w3.org/2000/svg" height="20" viewBox="0 -960 960 960" width="20"><path d="M339.5-803.96h69.87-69.87Zm0 647.92h69.87-69.87ZM685-281.07v-83h91.13v83H685Zm0-145.43v-83h139.13v83H685Zm0-145.43v-83h188.57v83H685ZM277-76.87l-52.07-204.91q-44.71-33.96-71.67-85.01Q126.3-417.85 126.3-480q0-62.15 27.46-113.21 27.46-51.05 73.17-85.01L277-883.13h194.87l50.06 204.91q45.72 33.96 73.18 85.01 27.46 51.06 27.46 113.21 0 62.15-26.96 113.21-26.96 51.05-71.68 85.01L471.87-76.87H277Zm97.63-238q68.61 0 116.77-48.36 48.16-48.35 48.16-116.96 0-68.61-48.35-116.78-48.36-48.16-116.97-48.16t-116.77 48.36q-48.17 48.35-48.17 116.96 0 68.61 48.36 116.78 48.36 48.16 116.97 48.16ZM318.3-720.85q12.57-3.76 26.9-5.4 14.33-1.64 29.04-1.64 14.72 0 28.74 1.64 14.02 1.64 26.58 5.4l-20.19-83.11H339.5l-21.2 83.11Zm21.2 564.81h69.87l22.19-83.11q-12.56 3.52-27.28 5.4-14.73 1.88-29.85 1.88-15.52 0-29.54-1.88t-26.59-5.4l21.2 83.11Z"/></svg>