<svg xmlns="http://www.w3.org/2000/svg" height="24" viewBox="0 -960 960 960" width="24"><path d="M480.14-490.77q26.71 0 45.59-19.02 18.89-19.02 18.89-45.73 0-26.71-19.03-45.6Q506.57-620 479.86-620q-26.71 0-45.59 19.02-18.89 19.02-18.89 45.73 0 26.71 19.03 45.6 19.02 18.88 45.73 18.88Zm-.14 353q-9.38 0-18.77-3.08-9.38-3.07-17.31-10-42.69-39.23-86.54-87.38-43.84-48.15-79.65-99.73-35.81-51.58-58.69-105.31-22.89-53.73-22.89-104.88 0-126.93 82.66-209.39Q361.46-840 480-840q22.31 0 35.77 14 13.46 14.01 13.46 34.85V-780q0 37.44 26.66 64.11 26.67 26.66 64.11 26.66h29.23V-660q0 19.06 6.8 35.33 6.81 16.26 19.28 28.59 9.67 10.04 21.49 16.18 11.82 6.13 25.35 8.9 22.31 4.23 30.08 17.88 7.77 13.66 7.77 32.74 0 24.38-11.35 55.26-11.34 30.89-26.03 59.89-14.7 29-29.77 52.65-15.08 23.66-22.77 34.35-39.16 53.15-81.58 96.5t-71.65 70.11q-7.65 6.93-17.38 10.39-9.74 3.46-19.47 3.46ZM720-760H620q-8.5 0-14.25-5.76T600-780.03q0-8.51 5.75-14.24T620-800h100v-100q0-8.5 5.76-14.25t14.27-5.75q8.51 0 14.24 5.75T760-900v100h100q8.5 0 14.25 5.76t5.75 14.27q0 8.51-5.75 14.24T860-760H760v100q0 8.5-5.76 14.25T739.97-640q-8.51 0-14.24-5.75T720-660v-100Z"/></svg>