<svg xmlns="http://www.w3.org/2000/svg" height="24" viewBox="0 -960 960 960" width="24"><path d="M224.62-160q-27.62 0-46.12-18.5Q160-197 160-224.62v-510.76q0-27.62 18.5-46.12Q197-800 224.62-800h270.3q12.87 0 19.63 10.96t1.83 23.27q-5 16-8.38 32.25-3.38 16.25-3.38 33.52 0 81.08 57.15 138.23 57.15 57.15 138.23 57.15 17.27 0 33.52-3.38 16.25-3.38 32.25-8.38 13.08-4.7 23.65 1.84Q800-508 800-494.92v270.3q0 27.62-18.5 46.12Q763-160 735.38-160H224.62Zm46.15-144.62h418.46L560-476.92 440-325.38l-80-96.16-89.23 116.92ZM699.97-600q-8.51 0-14.24-5.75T680-620v-60h-60q-8.5 0-14.25-5.76T600-700.03q0-8.51 5.75-14.24T620-720h60v-60q0-8.5 5.76-14.25t14.27-5.75q8.51 0 14.24 5.75T720-780v60h60q8.5 0 14.25 5.76t5.75 14.27q0 8.51-5.75 14.24T780-680h-60v60q0 8.5-5.76 14.25T699.97-600Z"/></svg>