<svg xmlns="http://www.w3.org/2000/svg" height="24" viewBox="0 -960 960 960" width="24"><path d="M186.15-200q-20.38 0-29.07-18.15-8.7-18.16 4-34.31l166.61-212.16q5.39-6.92 5.39-15.38t-5.39-15.38L161.08-708.31q-12.7-16.15-4-34.31 8.69-18.15 29.07-18.15h400.77q15.16 0 28.7 6.19 13.53 6.2 22.23 18.12l177.23 223.77q7.92 9.38.15 19.88-7.77 10.5-20.61 5.58-17-5.23-36.43-7.85-19.42-2.61-38.19-2.61-108.31 0-184.54 74.69-76.23 74.69-77.77 183 0 2.08.12 4.15.11 2.08.34 3.93.47 12.61-8.23 22.27-8.69 9.65-21.07 9.65h-242.7ZM720-68.46q-69.92 0-118.42-48.5t-48.5-118.42q0-69.93 48.5-118.43T720-402.31q69.92 0 118.42 48.5t48.5 118.43q0 69.92-48.5 118.42T720-68.46Zm-2.54-121.08 78.46-76.69q5.93-5.15 5.93-12.15t-5.93-12.93q-5.15-5.92-12.15-5.42t-12.92 5.42l-76 74.77-25.7-26.46q-5.15-5.92-12.15-5.81-7 .12-12.92 6.04-5.7 5.92-5.81 12.54-.12 6.61 5.81 12.54l28.15 28.15q9.69 9.69 22.62 9.69 12.92 0 22.61-9.69Z"/></svg>