<svg xmlns="http://www.w3.org/2000/svg" height="24" viewBox="0 -960 960 960" width="24"><path d="M491.38-480.77Zm-330.3-227.54q-12.7-16.15-3.86-34.31 8.84-18.15 28.93-18.15h400.77q15.14 0 28.69 6.19 13.54 6.2 22.24 18.12l182.23 230.08q7.3 10 1.95 20.84-5.36 10.85-17.54 10.85-4.87 0-9.03-2.08-4.15-2.08-7.08-5.46L607.69-711.54q-3.84-4.61-8.46-6.92-4.61-2.31-10.77-2.31H200l158.62 200.46q14.46 17.56 14.46 40.13 0 22.56-14.46 40.49L200-240h249.85q7.82 0 13.56 5.27t6.21 13.35q.69 8.76-5.33 15.07-6.01 6.31-14.67 6.31H186.15q-20.09 0-28.93-18.15-8.84-18.16 3.86-34.31l166.61-212.16q5.39-6.92 5.39-15.38t-5.39-15.38L161.08-708.31Zm533.77 491.77L669.15-243q-5.15-5.92-12.15-5.81-7 .12-12.92 6.04-5.93 5.92-5.93 12.54 0 6.61 5.93 12.54l28.15 28.15q9.69 9.69 22.62 9.69 12.92 0 22.61-9.69l78.46-76.69q5.93-5.22 5.93-12.19 0-6.96-5.93-12.89-5.15-5.15-12.15-5.04-7 .12-12.92 5.04l-76 74.77ZM720-68.46q-69.92 0-118.42-48.5t-48.5-118.42q0-69.93 48.5-118.43T720-402.31q69.92 0 118.42 48.5t48.5 118.43q0 69.92-48.5 118.42T720-68.46Z"/></svg>