<svg xmlns="http://www.w3.org/2000/svg" height="24" viewBox="0 -960 960 960" width="24"><path d="m550.46-484.08 101.85-69.07q14.15-9.7 14.15-26.85 0-17.15-14.15-26.85l-101.85-69.07q-16.15-11.7-33.31-2Q500-668.23 500-648.85v137.7q0 19.38 17.15 29.07 17.16 9.7 33.31-2ZM247.23-127.31q-26.85 3.46-47.96-12.81-21.12-16.26-24.35-43.11l-49.15-388.54q-3.23-26.85 13.31-48.61 16.54-21.77 43.38-24.24l39.08-2.92v281.39q0 59.84 42.38 102.23 42.39 42.38 102.23 42.38h367.39q.15 14-9.77 24.58-9.92 10.58-24.39 12.81l-452.15 56.84Zm118.92-174.23q-27.61 0-46.11-18.5t-18.5-46.11v-409.23q0-27.62 18.5-46.12 18.5-18.5 46.11-18.5h409.23q27.62 0 46.12 18.5Q840-803 840-775.38v409.23q0 27.61-18.5 46.11t-46.12 18.5H366.15Z"/></svg>