<svg xmlns="http://www.w3.org/2000/svg" height="24" viewBox="0 -960 960 960" width="24"><path d="m540.85-574.08 213.61-212.61q5.62-5.62 13.27-5.35 7.65.27 13.5 6.12 5.62 5.61 5.62 13.77 0 8.15-5.62 13.77L563.46-540.62q-9.69 9.7-22.61 9.7-12.93 0-22.62-9.7L413.46-645.38q-5.84-5.85-6.11-14.16-.27-8.31 6.34-14.15 5.85-5.62 14.16-5.35 8.3.27 14.15 6.12l98.85 98.84Zm34.84 446.23q3.85 1.54 6.93 1.54 3.07 0 6.92-1.54l232.61-71.69q-1.15-18.23-11.03-26.27-9.89-8.04-21.89-8.04H599.54q-25.46 0-46.08-2-20.61-2-42.23-9.53l-68.54-22.08q-8.31-2.69-11.84-10.77-3.54-8.08-.85-16.39 2.69-7.53 10.27-11.19 7.58-3.65 15.88-.96l62 22.46q19.31 6.54 42.73 8.39 23.43 1.84 58.12 2.07h10.23q0-18.69-6.88-30.23-6.89-11.54-19.73-16.07l-230.16-84.47q-2.31-.76-4.23-1.15-1.92-.38-4.23-.38h-84v192.3l295.69 86Zm-10.23 39.54L280-171.85q-5.69 23.7-24.19 37.77Q237.31-120 215.38-120h-30.76q-26.85 0-45.74-18.88Q120-157.77 120-184.62v-196.92q0-26.85 18.88-45.73 18.89-18.88 45.74-18.88h178.61q5.46 0 11.31 1.11 5.84 1.12 11.08 3.12l231.15 84.69q21.46 8.15 36.96 29.31 15.5 21.15 15.5 54.07h120q36.15 0 55.39 22.62 19.23 22.61 19.23 57.38 0 12-6.5 20.27t-18.97 12.43L603-88.54q-8.69 2.46-18.38 2.85-9.7.38-19.16-2.62ZM160-184.62q0 10.77 6.92 17.7 6.93 6.92 17.7 6.92h30.76q10.77 0 17.7-5.77 6.92-5.77 6.92-18.85v-221.53h-55.38q-10.77 0-17.7 6.92-6.92 6.92-6.92 17.69v196.92Z"/></svg>