<svg xmlns="http://www.w3.org/2000/svg" height="24" viewBox="0 -960 960 960" width="24"><path d="m565-93.15-285-83.54v-269.46h83.23q6.23 0 11.69 1.11 5.46 1.12 10.93 3.12l240.84 88.38q16.31 5.77 28.66 22.62 12.34 16.84 12.34 32.38 0 11.77-6.81 18.23-6.8 6.46-18.11 6.46h-48.08q-22.69 0-42.11-2.8-19.43-2.81-35.73-8.66l-57.31-20.07q-6.46-2.24-12.54.61-6.08 2.85-8.08 8.31-2 6.46 1 12.69 3 6.23 9.46 8.46l62.85 21q18.15 6.39 39.08 8.81 20.92 2.42 40.84 2.42h206.31q28.16 0 47.16 17.62 19 17.61 19 45.46L603.46-93.62q-7.69 2.47-19.11 2.58-11.43.12-19.35-2.11Zm-445-69.93v-240q0-18.38 12.35-30.73 12.34-12.34 30.73-12.34h33.84q18.39 0 30.73 12.34Q240-421.46 240-403.08v240q0 18.39-12.35 30.73Q215.31-120 196.92-120h-33.84q-18.39 0-30.73-12.35Q120-144.69 120-163.08Zm421.62-411 213.61-212.61q5.62-5.62 13.27-5.35 7.65.27 13.5 6.12 5.62 5.61 5.62 13.77 0 8.15-5.62 13.77L564.23-540.62q-9.69 9.7-22.61 9.7-12.93 0-22.62-9.7L414.23-645.38q-5.85-5.85-6.11-14.16-.27-8.31 6.34-14.15 5.85-5.62 14.16-5.35 8.3.27 14.15 6.12l98.85 98.84Z"/></svg>