<svg xmlns="http://www.w3.org/2000/svg" height="24" viewBox="0 -960 960 960" width="24"><path d="M304.62-120q-27.62 0-46.12-18.5Q240-157 240-184.62v-363.84q0-27.62 18.5-46.12 18.5-18.5 46.12-18.5h350.76q27.62 0 46.12 18.5 18.5 18.5 18.5 46.12v363.84q0 27.62-18.5 46.12Q683-120 655.38-120H304.62Zm0-40h350.76q10.77 0 17.7-6.92 6.92-6.93 6.92-17.7v-363.84q0-10.77-6.92-17.69-6.93-6.93-17.7-6.93H304.62q-10.77 0-17.7 6.93-6.92 6.92-6.92 17.69v363.84q0 10.77 6.92 17.7 6.93 6.92 17.7 6.92Zm161.53-62.31h27.7q6.15 0 10.77-4.61 4.61-4.62 4.61-10.77 0-6.16-4.61-10.77-4.62-4.62-10.77-4.62h-27.7q-6.15 0-10.77 4.62-4.61 4.61-4.61 10.77 0 6.15 4.61 10.77 4.62 4.61 10.77 4.61ZM463-293.08h34q5 0 8.23-3.61 3.23-3.62 3.46-8.62 1.9-15.65 7.61-29.63 5.7-13.98 13.7-27.75 8.92-14.69 16.77-29.96 7.85-15.27 7.85-32.43 0-31.34-21.64-53.13Q511.34-500 480-500q-31.66 0-53.52 21.58-21.86 21.57-21.86 53.34 0 16.9 7.96 32.18 7.96 15.28 16.65 29.98 8 13.77 13.89 28.27 5.88 14.5 7.96 30.11 1.23 5 4.07 8.23 2.85 3.23 7.85 3.23Zm17-73.84ZM293.85-691.54q-7.67 0-12.68-5-5.02-5-5.02-12.66 0-7.65 5.02-12.68 5.01-5.04 12.68-5.04h371.53q7.67 0 12.68 5 5.02 5 5.02 12.65t-5.02 12.69q-5.01 5.04-12.68 5.04H293.85Zm36.92-113.08q-7.67 0-12.68-5t-5.01-12.65q0-7.65 5.01-12.69 5.01-5.04 12.68-5.04h297.69q7.67 0 12.68 5 5.01 5.01 5.01 12.66t-5.01 12.69q-5.01 5.03-12.68 5.03H330.77Z"/></svg>