<svg xmlns="http://www.w3.org/2000/svg" height="24" viewBox="0 -960 960 960" width="24"><path d="M484-120q-75.54 0-141.73-28.54-66.19-28.54-115.69-78.04-49.5-49.5-78.04-115.69Q120-408.46 120-484q0-102.62 52.77-189.31t144.54-132.54q15.84-8 30.61.12 14.77 8.11 16.08 24.96 5.46 81.92 38.15 156.23 32.7 74.31 90.39 132t131.23 90q73.54 32.31 155.46 37.77 18.31 1.31 26.58 16.35 8.27 15.04.27 31.11-46.31 91.54-132.89 144.43Q586.62-120 484-120Zm0-40q88 0 163-44t118-121q-86-8-163-43.88-77-35.89-138-96.89t-97-137.61Q331-680 324-766q-77 43-120.5 118.5T160-484q0 135 94.5 229.5T484-160Zm-20-305.77Z"/></svg>