<svg xmlns="http://www.w3.org/2000/svg" height="24" viewBox="0 -960 960 960" width="24"><path d="M200-120v-501.54q0-26.84 18.88-45.73 18.89-18.88 45.74-18.88h282.3q26.85 0 45.73 18.88 18.89 18.89 18.89 45.73V-120L406.15-226.15 200-120Zm40-64.08 166.15-86.77 165.39 86.77v-437.46q0-10.77-6.92-17.69-6.93-6.92-17.7-6.92h-282.3q-10.77 0-17.7 6.92-6.92 6.92-6.92 17.69v437.46Zm480-78.23v-513.07q0-10.77-6.92-17.7-6.93-6.92-17.7-6.92H311.54v-40h383.84q26.85 0 45.74 18.88Q760-802.23 760-775.38v513.07h-40ZM240-646.15h331.54H240Z"/></svg>