<svg xmlns="http://www.w3.org/2000/svg" height="24" viewBox="0 -960 960 960" width="24"><path d="m406.15-226.15-158.92 81.77q-16.15 8.46-31.69-.74Q200-154.31 200-172.69v-448.85q0-26.65 18.98-45.63 18.98-18.98 45.64-18.98h282.3q26.66 0 45.64 18.98t18.98 45.63v448.85q0 18.38-15.54 27.57-15.54 9.2-31.69.74l-158.16-81.77Zm333.82-36.16q-8.51 0-14.24-5.75T720-282.31v-493.07q0-10.77-6.92-17.7-6.93-6.92-17.7-6.92H331.54q-8.5 0-14.25-5.76t-5.75-14.27q0-8.51 5.75-14.24t14.25-5.73h363.84q26.66 0 45.64 18.98T760-775.38v493.07q0 8.5-5.76 14.25t-14.27 5.75Z"/></svg>