<svg xmlns="http://www.w3.org/2000/svg" height="24" viewBox="0 -960 960 960" width="24"><path d="M632.34-89.23q-7.65 0-12.69-5.01-5.03-5.02-5.03-12.68v-180q-9-4.93-14.5-13.89t-5.5-19.19q0-15.83 11.26-26.76 11.26-10.93 26.28-10.93 15.76 0 26.8 10.93Q670-335.83 670-320q0 10.23-4.88 18.92-4.89 8.7-15.12 14.16v180q0 7.66-5 12.68-5.01 5.01-12.66 5.01Zm-.03-344.85q-46.62 0-79.46 32.57Q520-368.94 520-321.77q0 19.69 7.73 37.46t19.89 33.39q4.46 6.38 5.11 13.5.65 7.11-5.27 13.04-5.92 5.92-13.04 5.42-7.11-.5-12.57-6.66-17.85-20.76-27.54-45.3-9.69-24.54-9.69-50.85 0-61.85 43.33-104.77 43.34-42.92 104.2-42.92 61.77 0 104.81 42.92T780-321.77q0 26.85-9.58 51.77-9.57 24.92-27.42 44.92-5.46 6.16-12.63 6.66-7.16.5-12.53-5.43-5.38-4.92-5.22-12.03.15-7.12 4.61-13.5 12.92-14.85 20.15-33.39 7.24-18.54 7.24-39 0-47.17-32.57-79.74-32.57-32.57-79.74-32.57Zm-.2-99.77q-88.19 0-150.15 61.57Q420-410.71 420-321.54q0 39.76 14.73 77.03 14.73 37.28 41.42 66.36 4.93 6.38 5.47 13.5.53 7.11-4.62 12.27-5.64 5.92-13.17 4.92-7.52-1-13.21-7.16-31.39-34.23-48.7-77.22-17.3-42.99-17.3-89.7 0-103.84 72.35-175.76 72.36-71.93 175.18-71.93 103.77 0 175.81 71.93Q880-425.38 880-321.54q0 46.98-16.69 90.22t-49.85 76.7q-5.69 5.39-12.81 5.77-7.11.39-12.27-5.15-5.15-5.54-4.38-12.15.77-6.62 5.69-13 26.69-28.31 40.81-65.5 14.12-37.2 14.12-76.89 0-89.17-61.63-150.74-61.63-61.57-150.88-61.57ZM128.46-200q-20.19 0-34.33-14.13Q80-228.27 80-248.46v-312.31q0-19.61 14.13-34.04 14.14-14.42 34.33-14.42h158.29q19.79 0 34.21 14.42 14.42 14.43 14.42 34.04v312.31q0 20.19-14.42 34.33Q306.54-200 286.75-200H128.46Zm503.85-463.08q-58.39 0-110.93 18.43-52.53 18.42-96 51.03v-.23q-10.76-48-49.07-79.38-38.31-31.39-89.39-31.39H128.23q-2.69 0-4.5.5t-3.73.74v-.47q0-23.16 16.49-39.66Q152.99-760 176.15-760h590q27.62 0 46.12 18.5 18.5 18.5 18.5 46.12v95.84q-48.92-28.84-94.19-46.19-45.27-17.35-104.27-17.35ZM207.55-459.77q11.6 0 19.33-8.03 7.74-8.04 7.74-18.75 0-11.6-7.73-19.33-7.72-7.74-19.53-7.74-10.9 0-18.74 7.73-7.85 7.72-7.85 19.53 0 10.9 8.03 18.74 8.04 7.85 18.75 7.85Z"/></svg>