<svg xmlns="http://www.w3.org/2000/svg" height="24" viewBox="0 -960 960 960" width="24"><path d="M277.69-200q-29.15 0-48.81-18.5-19.65-18.5-19.65-46.12v-341.53L80-760h691.54q29.15 0 48.81 18.5Q840-723 840-695.38v430.76q0 27.62-19.65 46.12-19.66 18.5-48.81 18.5H277.69ZM165.85-720l83.38 98.46v356.92q0 9.24 8.85 16.93 8.84 7.69 19.61 7.69h493.85q10.77 0 19.61-7.69 8.85-7.69 8.85-16.93v-430.76q0-9.24-8.85-16.93-8.84-7.69-19.61-7.69H165.85Zm338 420 28.3-28.31-70.15-64h212.62v-40h-310L503.85-300ZM364.62-527.69h310L536.15-660l-28.3 28.31 70.15 64H364.62v40ZM482.92-480Z"/></svg>