<svg xmlns="http://www.w3.org/2000/svg" height="24" viewBox="0 -960 960 960" width="24"><path d="M224.62-160q-26.66 0-45.64-18.98T160-224.62v-510.76q0-26.66 18.98-45.64T224.62-800h185.46q5.61-23.46 24.92-39.42 19.31-15.97 45-15.97 26.15 0 45.35 15.97 19.19 15.96 24.8 39.42h185.23q26.66 0 45.64 18.98T800-735.38v183.07q0 8.5-5.76 14.25t-14.27 5.75q-8.51 0-14.24-5.75T760-552.31v-183.07q0-9.24-7.69-16.93-7.69-7.69-16.93-7.69H640v56.92q0 13.73-9.2 23.02t-22.8 9.29H351.99q-13.61 0-22.8-9.29-9.19-9.29-9.19-23.02V-760h-95.38q-9.24 0-16.93 7.69-7.69 7.69-7.69 16.93v510.76q0 9.24 7.69 16.93 7.69 7.69 16.93 7.69H400q8.5 0 14.25 5.76t5.75 14.27q0 8.51-5.75 14.24T400-160H224.62Zm255.51-590.77q13.79 0 22.99-9.33 9.19-9.32 9.19-23.11t-9.33-22.98q-9.33-9.19-23.11-9.19-13.79 0-22.99 9.32-9.19 9.33-9.19 23.12 0 13.79 9.33 22.98 9.33 9.19 23.11 9.19ZM623.08-200q-56.54 0-96.73-40.19-40.2-40.19-40.2-96.73 0-56.54 40.2-96.73 40.19-40.2 96.73-40.2 56.54 0 96.73 40.2Q760-393.46 760-336.92q0 22.15-6.35 43.46-6.34 21.31-20.11 38.69l92.31 92.31q5.61 5.61 6 13.77.38 8.15-6 14.54-6.39 6.38-14.16 6-7.77-.39-14.15-6l-92.31-91.54q-18.15 11.46-38.91 18.57-20.76 7.12-43.24 7.12Zm-.18-40q40.64 0 68.87-28.06Q720-296.11 720-336.75q0-40.63-28.06-68.87-28.05-28.23-68.69-28.23-40.63 0-68.87 28.06-28.23 28.06-28.23 68.69 0 40.64 28.06 68.87Q582.27-240 622.9-240Z"/></svg>