<svg xmlns="http://www.w3.org/2000/svg" height="24" viewBox="0 -960 960 960" width="24"><path d="M720-75.38q-66.85 0-113.42-46.58Q560-168.54 560-235.38q0-66.85 46.58-113.43 46.57-46.57 113.42-46.57t113.42 46.57Q880-302.23 880-235.38q0 66.84-46.58 113.42Q786.85-75.38 720-75.38ZM320-610.77h320q8.5 0 14.25-5.76 5.75-5.75 5.75-14.27 0-8.51-5.75-14.24T640-650.77H320q-8.5 0-14.25 5.76T300-630.74q0 8.51 5.75 14.24t14.25 5.73ZM224.62-160q-26.66 0-45.64-18.98T160-224.62v-510.76q0-26.66 18.98-45.64T224.62-800h510.76q26.66 0 45.64 18.98T800-735.38v200.3q0 15.09-11.15 23.47-11.16 8.38-25.85 5.46-10.08-2.7-20.95-3.66-10.88-.96-22.05-.96-20.23 0-39.35 3.19-19.11 3.2-37.57 9.04-4.5-.97-10-1.22-5.5-.24-10-.24H320q-8.5 0-14.25 5.76T300-479.97q0 8.51 5.75 14.24T320-460h243.46q-30.31 20.85-53.27 48.92-22.96 28.08-37.81 61.85H320q-8.5 0-14.25 5.76-5.75 5.75-5.75 14.27 0 8.51 5.75 14.24t14.25 5.73h138.38q-4.3 16.92-6.73 34.11-2.42 17.2-2.42 35.12 0 10 .46 21.08.46 11.07 2.39 22.69 1.92 13.92-6.21 25.08Q437.74-160 423.92-160h-199.3ZM720-235.38q25 0 42.5-17.5t17.5-42.5q0-25-17.5-42.5t-42.5-17.5q-25 0-42.5 17.5t-17.5 42.5q0 25 17.5 42.5t42.5 17.5Zm0 120q25.77 0 48.92-10.27 23.16-10.27 40.16-29.81 4.23-5.23 2.84-11.19-1.38-5.97-7.07-9.2-19.77-9.77-41.04-14.65-21.27-4.88-43.81-4.88-22.54 0-43.81 4.88-21.27 4.88-41.04 14.65-5.69 3-7.07 9.08-1.39 6.08 2.84 11.31 17 19.54 40.16 29.81 23.15 10.27 48.92 10.27Z"/></svg>