<svg xmlns="http://www.w3.org/2000/svg" height="24" viewBox="0 -960 960 960" width="24"><path d="M481.54-527.69Zm-20 327.69H140q-8.5 0-14.25-5.76T120-220.03q0-8.51 5.75-14.24T140-240h321.54q8.5 0 14.25 5.76t5.75 14.27q0 8.51-5.75 14.24T461.54-200Zm-236.92-95.38q-27.62 0-46.12-18.5Q160-332.38 160-360v-335.38q0-27.62 18.5-46.12Q197-760 224.62-760h549.23q8.5 0 14.25 5.76t5.75 14.27q0 8.51-5.75 14.24T773.85-720H224.62q-9.24 0-16.93 7.69-7.69 7.69-7.69 16.93V-360q0 9.23 7.69 16.92 7.69 7.7 16.93 7.7h236.92q8.5 0 14.25 5.75 5.75 5.76 5.75 14.27t-5.75 14.24q-5.75 5.74-14.25 5.74H224.62Zm583.07 42.3v-303.07q0-5.39-3.84-9.23-3.85-3.85-9.23-3.85H645.38q-5.38 0-9.23 3.85-3.84 3.84-3.84 9.23v303.07q0 5.39 3.84 9.23Q640-240 645.38-240h149.24q5.38 0 9.23-3.85 3.84-3.84 3.84-9.23ZM640.77-200q-20.19 0-34.33-14.13-14.13-14.14-14.13-34.33v-312.31q0-20.19 14.13-34.33 14.14-14.13 34.33-14.13h158.46q20.19 0 34.33 14.13 14.13 14.14 14.13 34.33v312.31q0 20.19-14.13 34.33Q819.42-200 799.23-200H640.77Zm79.09-260q11.6 0 19.33-8.03 7.73-8.04 7.73-18.75 0-11.6-7.72-19.34-7.72-7.73-19.53-7.73-10.9 0-18.75 7.73-7.84 7.72-7.84 19.53 0 10.9 8.03 18.74 8.03 7.85 18.75 7.85Zm.14 55.38Z"/></svg>