<svg xmlns="http://www.w3.org/2000/svg" height="24" viewBox="0 -960 960 960" width="24"><path d="M304.62-80q-26.85 0-45.74-18.88Q240-117.77 240-144.62v-670.76q0-27.62 18.5-46.12Q277-880 304.62-880h353.84q26.85 0 45.73 18.88 18.89 18.89 18.89 45.74v207.69q0 12.38-9.2 21.57-9.19 9.2-21.57 9.2h-83.85q-24.15 0-42.19 15.46t-21.96 39.38l-11.39 76q-32.54 33.16-50.42 75.46-17.88 42.31-17.88 89.85 0 47.54 18.15 91.27t50.92 77.12q1.46 7.92 2.54 16.19 1.08 8.27 2.54 16.19H304.62Zm176.92-627.69q13.15 0 21.96-8.81t8.81-21.96q0-13.16-8.81-21.96-8.81-8.81-21.96-8.81-13.16 0-21.96 8.81-8.81 8.8-8.81 21.96 0 13.15 8.81 21.96 8.8 8.81 21.96 8.81ZM663.31-80q-11.69 0-20.77-7.62-9.08-7.61-11.31-19.3l-8.85-57.39q-29.07-19.84-45.73-50.65Q560-245.77 560-280.77t16.65-65.81q16.66-30.8 45.73-50.65l8.85-57.39q2.23-11.69 11.31-19.3 9.08-7.62 20.77-7.62h73.38q11.69 0 20.77 7.62 9.08 7.61 11.31 19.3l8.85 57.39q29.07 19.85 45.73 50.65Q840-315.77 840-280.77t-16.65 65.81q-16.66 30.81-45.73 50.65l-8.85 57.39q-2.23 11.69-11.31 19.3Q748.38-80 736.69-80h-73.38ZM700-180.77q42 0 71-29t29-71q0-42-29-71t-71-29q-42 0-71 29t-29 71q0 42 29 71t71 29Z"/></svg>