<svg xmlns="http://www.w3.org/2000/svg" height="24" viewBox="0 -960 960 960" width="24"><path d="M720-340.92ZM483.15-577.77ZM140-200q-8.5 0-14.25-5.76T120-220.03q0-8.51 5.75-14.24T140-240h321.54q8.5 0 14.25 5.76t5.75 14.27q0 8.51-5.75 14.24T461.54-200H140Zm200.92-520-40-40h472.93q8.5 0 14.25 5.76t5.75 14.27q0 8.51-5.75 14.24T773.85-720H340.92Zm378.94 260q11.6 0 19.33-8.03 7.73-8.04 7.73-18.75 0-11.6-7.72-19.34-7.72-7.73-19.53-7.73-10.9 0-18.75 7.73-7.84 7.72-7.84 19.53 0 10.9 8.03 18.74 8.03 7.85 18.75 7.85Zm119.22 238.15-31.39-31.38v-302.92q0-5.39-3.84-9.23-3.85-3.85-9.23-3.85H645.38q-5.38 0-9.23 3.85-3.84 3.84-3.84 9.23v127.53l-40-40v-92.15q0-20.19 14.13-34.33 14.14-14.13 34.33-14.13h158.46q20.19 0 34.33 14.13 14.13 14.14 14.13 34.33v312.31q0 7.26-2.15 13.91-2.16 6.66-6.46 12.7Zm-56.31 115.08L689.54-200h-48.77q-20.19 0-34.33-14.13-14.13-14.14-14.13-34.33v-48.77L200-690.31V-360q0 9.23 7.69 16.92 7.69 7.7 16.93 7.7h236.92q8.5 0 14.25 5.75 5.75 5.76 5.75 14.27t-5.75 14.24q-5.75 5.74-14.25 5.74H224.62q-27.62 0-46.12-18.5Q160-332.38 160-360v-335.38q0-8.16 1.54-15.16t5.38-12.84l-74-74q-5.61-5.62-6-13.77-.38-8.16 6-14.54 6.39-6.39 14.16-6.39 7.77 0 14.15 6.39l689.85 690.61q5.61 5.62 6 13.77.38 8.16-6 14.54-6.39 6.39-14.16 6.39-7.77 0-14.15-6.39ZM377.08-512.46Z"/></svg>