<svg xmlns="http://www.w3.org/2000/svg" height="24" viewBox="0 -960 960 960" width="24"><path d="M184.62-200q-27.62 0-46.12-18.5Q120-237 120-264.62v-430.76q0-27.62 18.5-46.12Q157-760 184.62-760h598.46q25.3 0 44.19 17.73 18.88 17.73 20.42 43.04v3.23q-11.69-4.69-23.59-6.65-11.91-1.97-24.61-1.97H640.77q-54.92 0-95.15 36-40.24 36-47.16 88.62v4.62H344.62q-11.24 0-19.67 6.51-8.43 6.51-11.64 17.1l-23.54 83.08q-23 26-35.62 58.78-12.61 32.78-12.61 69.96 0 37.18 12.61 69.91 12.62 32.73 35.62 58.73l3.38 11.31H184.62Zm456.15 0q-20.19 0-34.33-14.13-14.13-14.14-14.13-34.33v-312.31q0-20.19 14.13-34.33 14.14-14.13 34.33-14.13h158.46q20.19 0 34.33 14.13 14.13 14.14 14.13 34.33v312.31q0 20.19-14.13 34.33Q819.42-200 799.23-200H640.77Zm-255.69-23.62-10.46-37.92q-17.47-13.92-27.58-34.27-10.12-20.34-10.12-44.23 0-23.88 10.12-44.19 10.11-20.31 27.58-34.23l10.46-37.92q3.36-10.59 11.75-17.11 8.4-6.51 19.32-6.51h41.54q11.17 0 19.14 6.51 7.98 6.52 11.17 17.11l11.23 37.92q17.46 13.92 27.58 34.27 10.11 20.34 10.11 44.23 0 23.88-10.11 44.19-10.12 20.31-27.58 34.23L488-223.62q-3.19 10.59-11.17 17.11-7.97 6.51-19.14 6.51h-41.54q-10.92 0-19.32-6.51-8.39-6.52-11.75-17.11Zm51.84-51.76q28 0 46.31-18.85 18.31-18.85 18.31-45.77t-19.39-45.77q-19.38-18.85-45.23-18.85-25.84 0-45.23 18.31Q372.31-368 372.31-340q0 28 18.31 46.31 18.3 18.31 46.3 18.31ZM719.86-460q11.6 0 19.33-8.03 7.73-8.04 7.73-18.75 0-11.6-7.72-19.34-7.72-7.73-19.53-7.73-10.9 0-18.75 7.73-7.84 7.72-7.84 19.53 0 10.9 8.03 18.74 8.03 7.85 18.75 7.85Z"/></svg>