<svg xmlns="http://www.w3.org/2000/svg" height="24" viewBox="0 -960 960 960" width="24"><path d="M170.46-120H160v-40h10.46q41.85 0 81.5-12.04 39.66-12.04 79.04-35.04 34.15 22.08 69.58 33.81 35.42 11.73 77.88 11.73 42.46 0 77.89-11.73 35.42-11.73 69.57-33.81 39.16 23 79.04 35.04Q744.85-160 786.69-160H800v40h-13.31q-41.31 0-81.27-9-39.96-9-78.8-27.77-36.16 18.23-73.39 27.39-37.23 9.15-74.77 9.15t-74.65-9.15q-37.12-9.16-73.27-27.39Q291.69-138 251.73-129t-81.27 9Zm308.77-136.92q-42.31 0-77.69-25.39-35.39-25.38-72.31-66.92-33.92 37.77-60.5 57.15-26.58 19.39-58.42 32l-59.62-212.23q-3.46-12.38 2.62-23.69 6.07-11.31 18.46-15.54l49-16v-167.84q0-26.85 18.88-45.74Q258.54-760 285.38-760h121.54v-80h144.62v80h121.54q26.84 0 45.73 18.88 18.88 18.89 18.88 45.74v167.84l49 16q12.39 4.23 18.46 15.54 6.08 11.31 2.62 23.69l-59.62 212.23q-31.84-12.61-58.42-32-26.58-19.38-60.5-57.15-36.92 41.54-72.31 66.92-35.38 25.39-77.69 25.39Zm-220-282.39 219.23-66.84 219.23 66.84V-720H259.23v180.69Z"/></svg>