<svg xmlns="http://www.w3.org/2000/svg" height="24" viewBox="0 -960 960 960" width="24"><path d="M478.46-120.23q-37.54 0-74.65-9.15-37.12-9.16-73.27-27.39-37.77 17.46-74.12 26-36.34 8.54-76.42 10.54-8.54.23-14.27-5.53-5.73-5.76-5.73-14.27t5.75-14.11q5.75-5.6 14.25-6.09 18.62-1 36.81-3.77t35.88-8.04q17.69-5.27 35.23-13.04 17.54-7.77 34.62-17 4.23-2 8.46-2t8.46 2q32.23 19.31 65.89 29.93 33.65 10.61 73.11 10.61t73.12-10.61q33.65-10.62 65.88-29.93 4.23-2 8.46-2t8.46 2q17.85 10 35.39 17.77t35.61 12.66q18.08 4.88 36.35 7.5 18.26 2.61 38.27 3.92 8.5.5 14.25 6.2t5.75 14.14q0 8.43-5.73 14.16t-14.27 5.5q-40.97-2.29-78.03-10.3-37.05-8.01-75.35-26.24-36.16 18.23-73.39 27.39-37.23 9.15-74.77 9.15Zm.39-136.69q-42.7 0-78.85-25.39-36.15-25.38-71.54-66.92-21.31 23.38-40.11 39.81-18.81 16.42-37.2 28.19-15.15 10.31-32.11 1.85-16.96-8.47-22.19-26.93l-47.75-165.9q-3.41-12.48 2.54-23.87t18.59-15.46l49-16v-167.84q0-26.66 18.98-45.64T283.85-760h121.53v-47.69q0-13.73 9.29-23.02t23.02-9.29h81.54q13.73 0 23.02 9.29t9.29 23.02V-760h121.54q26.65 0 45.63 18.98 18.98 18.98 18.98 45.64v167.84l49 16q12.64 4.07 18.59 15.46 5.95 11.39 2.59 23.92l-47.02 166.62q-5.23 17.69-21.81 25.77-16.58 8.08-32.5-1.46-18.62-11.77-37.04-27.81-18.42-16.04-40.27-40.19-36.92 41.54-72.31 66.92-35.38 25.39-78.07 25.39ZM259.23-698.46v159.15L460-600.38q9.23-3 18.46-3t18.46 3l200.77 61.07v-159.15q0-9.23-6.54-15.39-6.53-6.15-15.77-6.15H281.54q-9.23 0-15.77 6.15-6.54 6.16-6.54 15.39Zm219.23 134.54-285.69 87.61 42.15 159q21.16-12 37.73-29.5 16.58-17.5 32.89-36.11 9.84-11.46 24.19-10.96 14.35.5 23.81 11.42 26.08 30.08 56.23 57.81 30.15 27.73 70.96 27.73 39.76 0 69.05-27.85 29.3-27.85 55.37-57.69 9.16-11.13 23.74-11.53 14.57-.39 24.26 11.07 16.31 18.61 32.89 36.11 16.58 17.5 37.73 29.5l42.15-159-287.46-87.61Zm1 133.38Z"/></svg>