<svg xmlns="http://www.w3.org/2000/svg" height="24" viewBox="0 -960 960 960" width="24"><path d="M200-355.38V-720q0-63.77 65.46-91.88Q330.92-840 480-840q150.46 0 215.23 27.77Q760-784.46 760-720v364.62q0 48.23-33.58 81.8Q692.85-240 644.62-240l43.46 29.15q9.69 6.47 6.07 17.89-3.61 11.42-15.53 11.42H281.38q-11.92 0-15.53-11.42-3.62-11.42 6.07-17.89L315.38-240q-48.23 0-81.8-33.58Q200-307.15 200-355.38ZM240-520h480v-178.46H240V-520Zm240 184.62q18.85 0 31.73-12.89 12.89-12.88 12.89-31.73t-12.89-31.73q-12.88-12.89-31.73-12.89t-31.73 12.89q-12.89 12.88-12.89 31.73t12.89 31.73q12.88 12.89 31.73 12.89Z"/></svg>