<svg xmlns="http://www.w3.org/2000/svg" height="24" viewBox="0 -960 960 960" width="24"><path d="M480-138.54q-9.38 0-18.77-3.08-9.38-3.07-17.31-10-42.69-39.23-86.54-87-43.84-47.76-79.65-99.73-35.81-51.96-58.69-105.3-22.89-53.35-22.89-104.5 0-126.93 82.66-209.39Q361.46-840 480-840q8.77 0 16.92.38 8.16.39 15.93 1.39 20.38 2 26.46 22.27 6.07 20.27-9.31 35.65L399.15-648.46q-8.69 8.69-13.92 20.88-5.23 12.2-5.23 25.12v77.84q0 26.85 18.88 45.74Q417.77-460 444.62-460h77.84q12.92 0 25.12-5.23 12.19-5.23 20.88-13.92l132.39-132.39q15.15-15.15 35.3-9.46 20.16 5.69 24.16 26.08 1.77 11.3 2.65 23 .89 11.69.89 23.77 0 82.46-62.62 182.27-62.61 99.8-184.38 213.5-7.93 6.92-17.7 10.38-9.77 3.46-19.15 3.46Zm36-422.69 195.08-195.08q4.46-4.46 4.46-10.15t-4.46-10.16l-12.93-12.92q-5.23-5.23-11.69-5.23-6.46 0-11.69 5.23L481.23-596q-2.92 2.92-4.38 6.58-1.47 3.65-1.47 7.8v10.08q0 6.85 4.66 11.5 4.65 4.66 11.5 4.66h10.08q4.15 0 7.8-1.47 3.66-1.46 6.58-4.38Zm223.08-243.39q4.46 4.47 10.15 4.47t10.15-4.47l11.7-11.69q6.38-6.38 7.54-14.54 1.15-8.15-4.47-13.77l-9.53-9.53q-5.62-5.62-13.77-4.47-8.16 1.16-14.54 7.54l-10.16 10.16q-5.23 5.23-5.23 11.69 0 6.46 5.23 11.69l12.93 12.92Z"/></svg>