<svg xmlns="http://www.w3.org/2000/svg" height="24" viewBox="0 -960 960 960" width="24"><path d="M580-258.46q-8.54 0-14.27-5.73T560-278.46q0-8.54 5.73-14.27t14.27-5.73h240q8.54 0 14.27 5.73t5.73 14.27q0 8.54-5.73 14.27T820-258.46H580ZM458.85-120q-64.85 0-126.23-29.85-61.39-29.84-107.16-75.61-50.84-50.85-78.15-116.92Q120-408.46 120-480q0-74.54 28.42-140.23 28.43-65.69 77.04-114.31 48.62-48.61 114.31-77.04Q405.46-840 480-840q71.85 0 135.35 26.23t111.77 71.81q48.26 45.58 78.03 107.5 29.77 61.92 34.16 133.31.46 8.77-5.27 14.96-5.73 6.19-14.5 6.19-8.08 0-13.81-5.27t-6.19-13.35q-2.69-37.46-12.19-71.65-9.5-34.19-28.89-67.04l-347.23 347q16.85 22.93 37.12 42.04 20.27 19.12 44.19 35.19 13.08 9.85 18.15 25.39 5.08 15.54-.07 31.84-5.7 16.85-19.16 26.35t-32.61 9.5Zm-69.08-204.69 346.23-347q-14.85-19.69-31.62-36.58-16.76-16.88-36.69-30.73L353.15-424.23q4.77 26.46 14 51.42t22.62 48.12Zm-40.62-152.62 283.16-283.15q-13.39-7.62-27.19-14.19-13.81-6.58-28.74-10.89-102.15 31.08-165.5 115.96-63.34 84.89-61.73 192.27ZM160-480q0 127.15 86.19 219.31 86.19 92.15 212.89 100.46 3.84 0 6.54-2.31 2.69-2.31 4.23-6.15 1.53-4.62-.39-8.46-1.92-3.85-5.77-6.93-71.23-48.84-113.23-126.19t-42-169.73q0-103.92 54.31-188.35Q417.08-752.77 503.69-797q-8.46-1.54-16.92-1.92-8.46-.39-16.92-.39-130.31 3.69-220.08 95.89Q160-611.23 160-480Zm414.54-18.54Z"/></svg>