<svg xmlns="http://www.w3.org/2000/svg" height="24" viewBox="0 -960 960 960" width="24"><path d="M480-120q-74.54 0-140.23-28.42-65.69-28.43-114.31-77.04-48.61-48.62-77.04-114.31Q120-405.46 120-480q0-61.31 20.08-118.46 20.07-57.16 59-105.39l-75.31-75.3q-6.62-6.62-6.62-14.27 0-7.66 6.62-14.27 6.61-6.62 14.27-6.62 7.65 0 14.27 6.62l655.38 655.38q6.39 6.39 6.39 14.16 0 7.77-6.39 14.15-6.61 6.62-14.27 6.62-7.65 0-14.27-6.62l-75.3-75.08q-48.23 38.93-105.39 59Q541.31-120 480-120Zm79-439ZM417.92-417.92Zm-105.46-380.7q38.23-21.84 80.62-31.61Q435.46-840 480-840q71.54 0 137.62 27.31 66.07 27.31 116.92 78.15 50.84 50.85 78.15 116.92Q840-551.54 840-480q0 43.77-10.15 85.38-10.16 41.62-29.7 79.85-3.92 7.31-12.23 9.5-8.3 2.19-15.38-1.96t-9.39-12.46q-2.3-8.31 1.62-15.85 17.61-33.84 26.42-70.46 8.81-36.62 8.81-74 0-134-93-227t-227-93q-37.38 0-74 8.81t-70.46 26.42q-7.54 3.92-15.85 2-8.31-1.92-13.23-9t-3.11-15q1.8-7.92 9.11-11.85Zm254.69 293.31-61.84-61.84q-6.46-6.47-4.73-15.27 1.73-8.81 10.42-11.81l92.46-29.62q9.46-3 16.42 3.97 6.97 6.96 3.97 16.42L594.23-511q-3 8.69-11.81 10.42-8.8 1.73-15.27-4.73ZM480-160q55.31 0 104.65-17.92 49.35-17.93 90.43-49.93L514.85-388.08l-158.31 51.93q-9.46 3-16.42-3.97-6.97-6.96-3.97-16.42l51.93-158.31-160.23-160.23q-32 41.08-49.93 90.43Q160-535.31 160-480q0 133 93.5 226.5T480-160Z"/></svg>