<svg xmlns="http://www.w3.org/2000/svg" height="24" viewBox="0 -960 960 960" width="24"><path d="M339.23-184.62v-358.76L106.31-776.31q-5.62-5.61-6-13.77-.39-8.15 6-14.54 6.38-6.38 14.15-6.38 7.77 0 14.16 6.38l663.07 663.08q5.62 5.62 6 13.77.39 8.15-6 14.54-6.38 6.38-14.15 6.38-7.77 0-14.16-6.38L579.23-303.38v118.76q0 26.85-18.88 45.74Q541.46-120 514.62-120H403.85q-26.85 0-45.73-18.88-18.89-18.89-18.89-45.74Zm-26-555.38-51.85-51.85q5.7-20.69 22.62-34.42T323.85-840h270.77q26.84 0 45.73 18.88 18.88 18.89 18.88 45.74V-740h-346Zm266 266-226-226h306v28.31q0 9.69-2.61 18.38-2.62 8.69-8.08 17.16l-69.31 103.84V-474Z"/></svg>