<svg xmlns="http://www.w3.org/2000/svg" height="24" viewBox="0 -960 960 960" width="24"><path d="M180-160q-8.5 0-14.25-5.76T160-180.03q0-8.51 5.75-14.24T180-200h600q8.5 0 14.25 5.76t5.75 14.27q0 8.51-5.75 14.24T780-160H180Zm548.92-192.77L206.46-504.31q-21.38-5.69-33.92-23.23Q160-545.08 160-566.69V-726q0-12.31 9.85-19.69 9.84-7.39 22-4.04l13.99 4.03q6.08 2.01 10.12 5.82 4.04 3.8 6.27 9.96l41 120.54 163.39 47.46-28-281q-2.24-16.77 10.96-27.5 13.19-10.73 29.42-5.63l13.63 3.83q7.14 1.91 12.53 7.38 5.38 5.46 7.92 12.53L587.69-515l170.46 49.77q18.04 5.8 29.95 21.03 11.9 15.23 11.9 34.82 0 25.38-20.81 45.34-20.81 19.96-50.27 11.27Z"/></svg>