<svg xmlns="http://www.w3.org/2000/svg" height="24" viewBox="0 -960 960 960" width="24"><path d="M815.38-256q-1.84 15.39-17.69 20.46-15.84 5.08-28-7.07l-68.15-68.16H320q-25.38 0-43.46-18.08-18.08-18.07-18.08-43.46v-9.23h430.77q26.65 0 45.64-18.98 18.98-18.98 18.98-45.63V-720h9.23q25.38 0 43.46 18.08 18.08 18.07 18.08 43.46v393q0 4.15-2.77 6.81-2.77 2.65-6.47 2.65ZM167.44-383.69q-11.9 0-21.98-8.81t-10.08-24.08v-358.8q0-26.66 18.99-45.64Q173.35-840 200-840h409.23q26.65 0 45.64 18.98 18.98 18.98 18.98 45.64v249.23q0 26.65-18.98 45.63-18.99 18.98-45.64 18.98H258.46l-68.15 68.16q-5.23 5.23-11.08 7.46-5.85 2.23-11.79 2.23Z"/></svg>