<svg xmlns="http://www.w3.org/2000/svg" height="24" viewBox="0 -960 960 960" width="24"><path d="M224.62-160q-27.62 0-46.12-18.5Q160-197 160-224.62v-510.76q0-27.62 18.5-46.12Q197-800 224.62-800h510.76q27.62 0 46.12 18.5Q800-763 800-735.38v510.76q0 27.62-18.5 46.12Q763-160 735.38-160H224.62Zm236.92-211.54h35.38v-215.38h-35.38v215.38Zm-158.46 0h55.38q20.08 0 33.89-13.81 13.8-13.8 13.8-33.88v-53.85h-35.38v49.23q0 6.93-5 11.93t-11.92 5h-46.16q-6.92 0-11.92-5t-5-11.93v-110.77q0-6.92 5-11.92t11.92-5h98.46v-7.69q0-11.62-8.03-19.65-8.04-8.04-19.66-8.04h-75.38q-20.08 0-33.89 13.8-13.81 13.81-13.81 33.89v120q0 20.08 13.81 33.88 13.81 13.81 33.89 13.81Zm253.84 0h35.39v-86.15h76.92v-35.39h-76.92v-58.46h116.92v-35.38H556.92v215.38Z"/></svg>