<svg xmlns="http://www.w3.org/2000/svg" height="24" viewBox="0 -960 960 960" width="24"><path d="M340-800q-8.5 0-14.25-5.76T320-820.03q0-8.51 5.75-14.24T340-840h245.77q10.14 0 14.95 6.21 4.82 6.2 4.82 13.65t-5 13.79q-5 6.35-15 6.35H340ZM220-664.62q-8.5 0-14.25-5.75-5.75-5.76-5.75-14.27t5.75-14.24q5.75-5.74 14.25-5.74h230.38q10.14 0 14.96 6.21 4.81 6.21 4.81 13.65 0 7.45-5 13.8-5 6.34-15 6.34H220ZM100-529.23q-8.5 0-14.25-5.76T80-549.26q0-8.51 5.75-14.24t14.25-5.73h215q10.14 0 14.95 6.21 4.82 6.2 4.82 13.65t-5 13.79q-5 6.35-15 6.35H100Zm505.54 116.92-104-104-195.39 195.39q-6.92 6.92-6.92 16.92 0 10 6.92 16.92l70.16 70.16q6.92 6.92 16.92 6.92 10 0 16.92-6.92l195.39-195.39Zm-75.46-132.54 104 104 197.46-197.46q6.92-6.92 6.92-17.69 0-10.77-6.92-17.69l-68.62-68.62q-6.92-6.92-17.69-6.92-10.77 0-17.69 6.92L530.08-544.85ZM487.62-559l160.61 160.62-209.77 209.76q-19.38 19.39-45.23 19.39-25.85 0-45.23-19.39l-8.15-8.15-36.31 36.31q-5.23 5.23-10.98 7.46-5.74 2.23-11.87 2.23h-58.84q-10.86 0-14.74-10.08-3.88-10.07 4.08-18.04l73.27-73.26-6.61-6.62q-19.39-19.38-19.39-45.23 0-25.85 19.39-45.23L487.62-559Zm0 0L700-771.38q19.38-19.39 45.23-19.39 25.85 0 45.23 19.39l70.16 70.15Q880-681.85 880-656q0 25.85-19.38 45.23L648.23-398.38 487.62-559Z"/></svg>