<svg xmlns="http://www.w3.org/2000/svg" height="24" viewBox="0 -960 960 960" width="24"><path d="M376.54-580ZM340-360H197.69q-8.82 0-14.8-6.12-5.97-6.11-5.97-14.39v-11.21q0-3.9 1.46-7.55 1.47-3.65 4.39-6.58L240-463.08V-760h-20q-8.5 0-14.25-5.76T200-780.03q0-8.51 5.75-14.24T220-800h189.23q8.5 0 14.25 5.76t5.75 14.27q0 8.51-5.75 14.24T409.23-760H280v287.15q0 13.27-5.23 25.29t-13.92 20.71L234-400h279.85q8.5 0 14.25 5.76t5.75 14.27q0 8.51-5.75 14.24T513.85-360H380v197.08q0 8.5-5.76 14.25t-14.27 5.75q-8.51 0-14.24-5.75T340-162.92V-360Zm300-120q-66.85 0-113.42-46.58Q480-573.15 480-640t46.58-113.42Q573.15-800 640-800t113.42 46.58Q800-706.85 800-640t-46.58 113.42Q706.85-480 640-480Zm0-160q25 0 42.5-17.5T700-700q0-25-17.5-42.5T640-760q-25 0-42.5 17.5T580-700q0 25 17.5 42.5T640-640Zm-.04 120q25.81 0 49.08-10.27t40.27-29.81q4.23-4.9 2.73-11.02-1.5-6.13-7.19-9.36-19.73-9.77-41.02-14.66-21.29-4.88-43.67-4.88-22.38 0-43.69 4.88-21.32 4.89-41.32 14.66-5.69 3-7.19 9.08-1.5 6.07 2.73 11.3 17 19.54 40.23 29.81Q614.15-520 639.96-520Z"/></svg>