<svg xmlns="http://www.w3.org/2000/svg" height="24" viewBox="0 -960 960 960" width="24"><path d="M144.62-200Q117-200 98.5-218.5 80-237 80-264.62v-430.76Q80-723 98.5-741.5 117-760 144.62-760h670.76q27.62 0 46.12 18.5Q880-723 880-695.38v430.76q0 27.62-18.5 46.12Q843-200 815.38-200H144.62Zm201.53-100.77h267.7v-61.54h-267.7v61.54Zm-124.61-130h61.54v-61.54h-61.54v61.54Zm151.54 0h61.54v-61.54h-61.54v61.54Zm152.3 0h61.54v-61.54h-61.54v61.54Zm151.54 0h61.54v-61.54h-61.54v61.54Zm-455.38-130h61.54v-61.54h-61.54v61.54Zm151.54 0h61.54v-61.54h-61.54v61.54Zm152.3 0h61.54v-61.54h-61.54v61.54Zm147.7 3.85h61.54v-61.54h-61.54v61.54Z"/></svg>