<svg xmlns="http://www.w3.org/2000/svg" height="24" viewBox="0 -960 960 960" width="24"><path d="M184.62-200q-26.66 0-45.64-18.98T120-264.62v-430.76q0-26.66 18.98-45.64T184.62-760h408.46q15.34 0 29.07 6.66t22.62 18.42l165.38 215.38q13.7 17.92 13.7 39.54 0 21.62-13.7 39.54L644.77-225.08q-8.89 11.76-22.62 18.42-13.73 6.66-29.07 6.66H184.62Zm0-40h408.46q6.15 0 11.15-2.31t8.85-6.92l165.38-215.39q5.39-6.92 5.39-15.38t-5.39-15.38L613.08-710.77q-3.85-4.61-8.85-6.92-5-2.31-11.15-2.31H184.62q-10.77 0-17.7 6.92-6.92 6.93-6.92 17.7v430.76q0 10.77 6.92 17.7 6.93 6.92 17.7 6.92Zm287.69-240Z"/></svg>