<svg xmlns="http://www.w3.org/2000/svg" height="24" viewBox="0 -960 960 960" width="24"><path d="M709.31-310.08 264-760h329.08q15.15 0 29.07 6.58 13.93 6.57 22.62 18.5l165.38 215.38q13.7 17.92 13.7 39.54 0 21.62-13.7 39.54L709.31-310.08ZM184.62-200q-26.85 0-45.74-18.88Q120-237.77 120-264.62v-430.76q0-7.16 1.73-13.97 1.73-6.8 4.42-12.5l-84-84q-5.61-5.61-6-13.77-.38-8.15 6-14.53 6.39-6.39 14.16-6.39 7.77 0 14.15 6.39L834.15-70.46q5.62 5.61 6.12 13.65t-6.12 14.66q-6.38 6.38-14.15 6.38-7.77 0-14.15-6.38l-171-171q-4.62 6.07-11.31 9.61-6.69 3.54-14.46 3.54H184.62Z"/></svg>