<svg xmlns="http://www.w3.org/2000/svg" height="24" viewBox="0 -960 960 960" width="24"><path d="m499-573.69 26.85 26.84q5.69 5.7 12.23 2.57 6.54-3.14 6.54-11.1 0-13.59-5.24-25.18-5.23-11.59-13.92-20.02-8.69-9.19-20.68-14.3Q492.79-620 480-620q-7.55 0-10.16 7.27-2.61 7.27 2.31 12.19L499-573.69ZM480-840q118.54 0 201.19 82.46 82.66 82.46 82.66 209.39 0 35.5-11.27 72.98-11.27 37.48-33.81 79.25-4.15 7.47-12.46 9.47-8.31 1.99-15.32-2.12-7.02-4.11-9.27-12.58-2.26-8.47 1.9-15.77 18.84-36.39 29.53-69.27 10.7-32.89 10.7-61.96 0-109.77-69.5-181.2-69.5-71.42-174.35-71.42-39.69 0-74.42 10.96-34.73 10.96-63.81 31.35-7.31 4.15-14.96 3.81-7.66-.35-13.27-7.2-5.62-6.84-4.66-14.88.97-8.04 8.04-12.19 35.7-25.31 77.27-38.2Q435.77-840 480-840Zm123.31 540.15L255.54-647.62q-8.92 22.77-14.16 47.31-5.23 24.54-5.23 52.16 0 74.07 65.54 175.57T480-172.92q35.23-30.7 66.19-62.81 30.96-32.12 57.12-64.12ZM480-137.77q-9.38 0-18.77-3.08-9.38-3.07-17.31-10-42.69-39.23-86.54-87.38-43.84-48.15-79.65-99.73-35.81-51.58-58.69-105.31-22.89-53.73-22.89-104.57 0-36.16 7.64-68.61 7.63-32.45 21.36-61.55L88.85-814.31Q83-819.95 83-827.71q0-7.75 6.01-14.37 6.01-6.61 14.27-6.61t14.87 6.61l740.62 740.62q5.85 5.84 6.11 13.77.27 7.92-6.34 14.54-6.62 6.61-14.27 6.61-7.65 0-14.27-6.61L630.85-272.31q-17 19.54-39.93 44.77-22.92 25.23-74.07 75.92-7.65 6.93-17.38 10.39-9.74 3.46-19.47 3.46Zm-50.46-335.85Zm70.23-99.3Z"/></svg>