<svg xmlns="http://www.w3.org/2000/svg" height="24" viewBox="0 -960 960 960" width="24"><path d="M840-480.13q0 74.67-28.35 140.41-28.35 65.73-76.95 114.36-48.6 48.63-114.3 76.99Q554.7-120 480-120q-71.38 0-134.5-25.85-63.12-25.84-111.62-71.42-48.5-45.58-78.65-107-30.15-61.42-34.54-132.81-.46-9.77 5.16-14.88 5.61-5.12 12.92-5.58 7.31-.46 14.38 3.81 7.08 4.27 7.54 15.27 8.08 127.15 100.12 213.31Q352.85-159 480-159q134 0 227-93t93-227q0-134-93-227t-227-93q-97.46 0-174.58 51.19-77.11 51.19-115.27 133.96h96q8.5 0 14.25 5.76t5.75 14.27q0 8.51-5.75 14.24t-14.25 5.73H152.58q-14.2 0-23.39-9.28-9.19-9.29-9.19-23.02V-740q0-8.5 5.76-14.25t14.27-5.75q8.51 0 14.24 5.75T160-740v99.23q43.46-89.15 128.38-144.19Q373.31-840 480-840q74.7 0 140.4 28.34t114.3 76.92q48.6 48.58 76.95 114.26Q840-554.81 840-480.13Zm-440 150.9q-15.04 0-25.21-10.17-10.17-10.18-10.17-25.22v-120q0-15.03 11.5-25.21 11.5-10.17 28.5-10.17v-44.62q0-31.09 22.14-53.24Q448.9-640 480-640t53.24 22.14q22.14 22.15 22.14 53.24V-520q17 0 28.5 10.17 11.5 10.18 11.5 25.21v120q0 15.04-10.17 25.22-10.17 10.17-25.21 10.17H400ZM435.38-520h89.24v-44.32q0-18.83-13.04-31.87-13.04-13.04-31.58-13.04t-31.58 13.04q-13.04 13.04-13.04 31.87V-520Z"/></svg>