<svg xmlns="http://www.w3.org/2000/svg" height="24" viewBox="0 -960 960 960" width="24"><path d="M303.08-420h80q8.5 0 14.25-5.76t5.75-14.27q0-8.51-5.75-14.24T383.08-460h-80q-8.5 0-14.25 5.76t-5.75 14.27q0 8.51 5.75 14.24t14.25 5.73Zm441.63-80q-41.63 0-70.86-29.14-29.23-29.14-29.23-70.77 0-41.63 29.16-70.86Q702.95-700 744.62-700q19.46 0 32.92 5.46t27.08 18.46v-191.61q0-13.73 9.28-23.02 9.29-9.29 23.02-9.29h67.7q8.5 0 14.25 5.76t5.75 14.27q0 8.51-5.75 14.24T904.62-860h-60v260q0 41.67-29.14 70.83Q786.33-500 744.71-500Zm-441.63-40h200q8.5 0 14.25-5.76t5.75-14.27q0-8.51-5.75-14.24T503.08-580h-200q-8.5 0-14.25 5.76t-5.75 14.27q0 8.51 5.75 14.24t14.25 5.73Zm0-120h200q8.5 0 14.25-5.76t5.75-14.27q0-8.51-5.75-14.24T503.08-700h-200q-8.5 0-14.25 5.76t-5.75 14.27q0 8.51 5.75 14.24t14.25 5.73Zm295.38 380H246.15L198-231.85q-5.23 5.24-11.08 7.47-5.84 2.23-11.79 2.23-11.9 0-21.98-8.81-10.07-8.81-10.07-23.85v-520.57q0-26.66 18.98-45.64T207.69-840h390.77q26.66 0 45.64 18.98t18.98 45.64v10.07q-11.7 5.62-21.31 12.77-9.62 7.16-18.69 15.62v-38.46q0-10.77-6.93-17.7-6.92-6.92-17.69-6.92H207.69q-10.77 0-17.69 6.92-6.92 6.93-6.92 17.7v501.61L229.31-320h369.15q10.77 0 17.69-6.92 6.93-6.93 6.93-17.7v-118.46q9.07 8.46 18.69 15.62 9.61 7.15 21.31 12.77v90.07q0 26.66-18.98 45.64T598.46-280Zm-415.38-40v-480 480Z"/></svg>