<svg xmlns="http://www.w3.org/2000/svg" height="24" viewBox="0 -960 960 960" width="24"><path d="M184.62-200q-27.62 0-46.12-18.5Q120-237 120-264.62v-430.76q0-27.62 18.5-46.12Q157-760 184.62-760h590.76q27.62 0 46.12 18.5Q840-723 840-695.38v430.76q0 27.62-18.5 46.12Q803-200 775.38-200H184.62ZM160-295.38v30.76q0 9.24 7.69 16.93 7.69 7.69 16.93 7.69h590.76q9.24 0 16.93-7.69 7.69-7.69 7.69-16.93v-30.76H160Zm0 0V-240v-55.38Zm420-212.31V-440q0 8.54 5.73 14.27T600-420q8.54 0 14.27-5.73T620-440v-67.69h67.69q8.54 0 14.27-5.73t5.73-14.27q0-8.54-5.73-14.27t-14.27-5.73H620v-67.69q0-8.54-5.73-14.27T600-635.38q-8.54 0-14.27 5.73T580-615.38v67.69h-67.69q-8.54 0-14.27 5.73t-5.73 14.27q0 8.54 5.73 14.27t14.27 5.73H580ZM160-335.38h640v-360q0-10.77-6.92-17.7-6.93-6.92-17.7-6.92H184.62q-10.77 0-17.7 6.92-6.92 6.93-6.92 17.7v360Z"/></svg>