<svg xmlns="http://www.w3.org/2000/svg" height="24" viewBox="0 -960 960 960" width="24"><path d="M184.62-200q-27.62 0-46.12-18.5Q120-237 120-264.62v-430.76q0-27.62 18.5-46.12Q157-760 184.62-760h590.76q27.62 0 46.12 18.5Q840-723 840-695.38v430.76q0 27.62-18.5 46.12Q803-200 775.38-200H184.62ZM580-507.69V-440q0 8.5 5.76 14.25t14.27 5.75q8.51 0 14.24-5.75T620-440v-67.69h67.69q8.5 0 14.25-5.76t5.75-14.27q0-8.51-5.75-14.24t-14.25-5.73H620v-67.69q0-8.5-5.76-14.25t-14.27-5.75q-8.51 0-14.24 5.75T580-615.38v67.69h-67.69q-8.5 0-14.25 5.76-5.75 5.75-5.75 14.26 0 8.52 5.75 14.25t14.25 5.73H580ZM160-335.38h640v-360q0-10.77-6.92-17.7-6.93-6.92-17.7-6.92H184.62q-10.77 0-17.7 6.92-6.92 6.93-6.92 17.7v360Z"/></svg>