<svg xmlns="http://www.w3.org/2000/svg" height="24" viewBox="0 -960 960 960" width="24"><path d="M819.69-86 69.85-835.85q-5.62-5.61-6-13.77-.39-8.15 6-14.53 6.38-6.39 14.15-6.39 7.77 0 14.15 6.39L848-114.31q5.62 5.62 6 13.77.38 8.16-6 14.54-6.38 6.38-14.15 6.38-7.77 0-14.16-6.38Zm-522-794h357.69q26.66 0 45.64 18.98T720-815.38v128.61q14.92 1.62 25.92 12.39 11 10.76 11 25.92v70.77q0 15.15-11 25.92-11 10.77-25.92 12.39v133.69q0 10-6.21 15-6.2 5-13.65 5t-13.79-5.18q-6.35-5.18-6.35-15.05v-409.46q0-10.77-6.92-17.7-6.93-6.92-17.7-6.92H240q6.15-17.62 21.58-28.81Q277-880 297.69-880Zm183.9 172.31q13.1 0 21.91-8.86 8.81-8.87 8.81-21.97t-8.86-21.9q-8.87-8.81-21.97-8.81t-21.9 8.86q-8.81 8.86-8.81 21.96 0 13.1 8.86 21.91t21.96 8.81ZM304.62-80q-26.66 0-45.64-18.98T240-144.62v-577.69l40 40v537.69q0 10.77 6.92 17.7 6.93 6.92 17.7 6.92h351.53q10.77 0 17.31-6.92 6.54-6.93 6.54-17.7v-137.69l40 40v97.69q0 26.66-18.98 45.64T655.38-80H304.62Zm136.76-321.54Zm106.16-129.54Z"/></svg>