<svg xmlns="http://www.w3.org/2000/svg" height="24" viewBox="0 -960 960 960" width="24"><path d="M200-562.31q0-122.38 84.19-200.04Q368.38-840 479.23-840q143.15 0 215.04 100.92Q766.15-638.15 758.46-502l81.39-84.46q5.61-5.62 13.77-5.62 8.15 0 13.76 5.62 5.62 5.61 5.62 13.38 0 7.77-5.62 13.39L761.85-450.31q-9.7 9.69-23.39 9.69-13.69 0-23.38-9.69L609.54-559.69q-5.62-5.62-5.62-13.39 0-7.77 5.62-13.38 5.61-5.62 13.77-5.62 8.15 0 13.77 5.62L718.46-502q10-136.69-59.11-217.35Q590.23-800 479.23-800q-101 0-170.11 70.08Q240-659.85 240-559.77q0 81.46 53.23 170.46 53.23 89 167.54 198.69 6.92 6.93 17.31 7.31 10.38.39 17.3-6.54 20-19.53 38.54-38.07t30.16-30.93q-7.31-10.23-11.85-22t-4.54-25.3q0-33.54 23.23-56.77 23.23-23.23 56.77-23.23 33.54 0 56.39 23.23 22.84 23.23 22.84 56.77 0 33.53-22.84 56.38-22.85 22.85-56.39 22.85-8.77 0-16.81-1.39-8.03-1.38-15.8-4.92-16.46 17.46-34.43 35.58-17.96 18.11-37.42 36.57-9.46 8.7-21.27 12.93-11.81 4.23-23.5 4.23t-23.5-4.23q-11.81-4.23-20.5-12.93-120.84-115-177.65-212.5T200-562.31Z"/></svg>