<svg xmlns="http://www.w3.org/2000/svg" height="24" viewBox="0 -960 960 960" width="24"><path d="M366.92-200q-15.34 0-29.07-6.66t-22.62-18.42L149.85-440.46q-13.7-17.92-13.7-39.54 0-21.62 13.7-39.54l165.38-215.38q8.89-11.76 22.62-18.42 13.73-6.66 29.07-6.66h408.46q26.66 0 45.64 18.98T840-695.38v430.76q0 26.66-18.98 45.64T775.38-200H366.92Zm28.46-249.23q12.39 0 21.58-9.19 9.19-9.2 9.19-21.58 0-12.38-9.19-21.58-9.19-9.19-21.58-9.19-12.38 0-21.57 9.19-9.19 9.2-9.19 21.58 0 12.38 9.19 21.58 9.19 9.19 21.57 9.19Zm140 0q12.39 0 21.58-9.19 9.19-9.2 9.19-21.58 0-12.38-9.19-21.58-9.19-9.19-21.58-9.19-12.38 0-21.57 9.19-9.19 9.2-9.19 21.58 0 12.38 9.19 21.58 9.19 9.19 21.57 9.19Zm140 0q12.39 0 21.58-9.19 9.19-9.2 9.19-21.58 0-12.38-9.19-21.58-9.19-9.19-21.58-9.19-12.38 0-21.57 9.19-9.19 9.2-9.19 21.58 0 12.38 9.19 21.58 9.19 9.19 21.57 9.19Z"/></svg>