<svg xmlns="http://www.w3.org/2000/svg" height="24" viewBox="0 -960 960 960" width="24"><path d="M366.92-200q-15.34 0-29.07-6.66t-22.62-18.42L149.85-440.46q-13.7-17.92-13.7-39.54 0-21.62 13.7-39.54l165.38-215.38q8.89-11.76 22.62-18.42 13.73-6.66 29.07-6.66h408.46q26.66 0 45.64 18.98T840-695.38v430.76q0 26.66-18.98 45.64T775.38-200H366.92Zm0-40h408.46q10.77 0 17.7-6.92 6.92-6.93 6.92-17.7v-430.76q0-10.77-6.92-17.7-6.93-6.92-17.7-6.92H366.92q-6.15 0-11.15 2.31t-8.85 6.92L181.54-495.38q-5.39 6.92-5.39 15.38t5.39 15.38l165.38 215.39q3.85 4.61 8.85 6.92 5 2.31 11.15 2.31Zm28.46-209.23q12.39 0 21.58-9.19 9.19-9.2 9.19-21.58 0-12.38-9.19-21.58-9.19-9.19-21.58-9.19-12.38 0-21.57 9.19-9.19 9.2-9.19 21.58 0 12.38 9.19 21.58 9.19 9.19 21.57 9.19Zm140 0q12.39 0 21.58-9.19 9.19-9.2 9.19-21.58 0-12.38-9.19-21.58-9.19-9.19-21.58-9.19-12.38 0-21.57 9.19-9.19 9.2-9.19 21.58 0 12.38 9.19 21.58 9.19 9.19 21.57 9.19Zm140 0q12.39 0 21.58-9.19 9.19-9.2 9.19-21.58 0-12.38-9.19-21.58-9.19-9.19-21.58-9.19-12.38 0-21.57 9.19-9.19 9.2-9.19 21.58 0 12.38 9.19 21.58 9.19 9.19 21.57 9.19ZM487.69-480Z"/></svg>