<svg xmlns="http://www.w3.org/2000/svg" height="24" viewBox="0 -960 960 960" width="24"><path d="M807.77-271.54H633.08q-8.5 0-14.25-5.76-5.75-5.75-5.75-14.27 0-8.51 5.75-14.24t14.25-5.73h174.69l-69.08-69.84q-5.61-5.62-6-14.04-.38-8.43 6-14.41 5.85-5.48 14.39-5.09 8.54.38 14.15 6L862-314.15q9.69 9.69 9.69 22.61T862-268.92l-95.54 95.54q-5.61 5.61-13.27 5.73-7.65.11-14.43-5.87-6.22-5.48-5.84-14.02.39-8.54 6-14.15l68.85-69.85ZM403.85-580q25.3 0 42.65-17.35 17.35-17.34 17.35-42.65t-17.35-42.65Q429.15-700 403.85-700q-25.31 0-42.66 17.35-17.34 17.34-17.34 42.65t17.34 42.65Q378.54-580 403.85-580Zm0 93.15ZM120-548.15q0-126.93 82.65-209.39Q285.31-840 403.96-840q67.27 0 119.39 24.23 52.11 24.23 88.23 65.54 36.11 41.31 55.27 96.96Q686-597.62 687.46-534q.23 8.54-5.53 14.27-5.75 5.73-14.26 5.73-8.52 0-14.12-5.75T647.46-534q-2.69-107.92-70.96-187.35-68.27-79.42-172.65-79.42-104.85 0-174.35 71.42-69.5 71.43-69.5 181.2 0 74.07 65.54 175.57t178.31 199.66q21.18-18.41 40.09-36.82 18.91-18.41 36.83-37.34 5.64-6.61 13.4-6.61 7.75 0 14.37 5.61 6.61 5.62 6.73 13.66.11 8.04-5.73 13.88-16.77 18.54-34.35 35.5-17.57 16.96-34.5 32.66-7.64 6.92-17.38 10.38-9.73 3.46-19.46 3.46-9.39 0-18.77-3.08-9.39-3.07-17.31-10-37.13-34.68-80.75-80.62-43.62-45.93-80.74-97.96-37.13-52.03-61.7-107.65Q120-493.46 120-548.15ZM403.85-380q32.77 0 63.34-11.62 30.58-11.61 54.96-34.15 5-4.38 7-10.08t2-11.84q0-8.75-4.11-16.3-4.12-7.55-12.58-11.78-25.51-12.46-53.91-18.35-28.4-5.88-56.7-5.88-28.31 0-56.71 5.88-28.39 5.89-53.91 18.35-7.91 4.08-12.3 11.44-4.39 7.35-4.39 16.33 0 6.54 2 12.21 2 5.66 7 10.02 24.38 22.54 54.96 34.15Q371.08-380 403.85-380Z"/></svg>