<svg xmlns="http://www.w3.org/2000/svg" height="24" viewBox="0 -960 960 960" width="24"><path d="M403.85-142.38q-11.7 0-23-4.62-11.31-4.62-20.77-13.31-35.62-32.92-78-77.96-42.39-45.04-78.04-95.92-35.66-50.89-59.85-105.89-24.19-55-24.19-108.07 0-126.93 82.65-209.39Q285.31-840 403.85-840q58.84 0 110.3 22.58 51.47 22.57 90.47 61.11t61.53 90.54q22.54 52 22.54 110.08 0 18.31-9.54 32.15-9.53 13.85-25.69 20.31-34.15 15-61.34 39.96-27.2 24.96-44.89 55.89-18.46 31.92-26.46 67.84T517-265.69q2.23 18.92.15 29.38-2.07 10.46-16.53 24.69-13.77 13.54-26.39 25.93-12.61 12.38-26.61 25.38-9.47 8.69-20.77 13.31-11.31 4.62-23 4.62Zm0-437.62q25.3 0 42.65-17.35 17.35-17.34 17.35-42.65t-17.35-42.65Q429.15-700 403.85-700q-25.31 0-42.66 17.35-17.34 17.34-17.34 42.65t17.34 42.65Q378.54-580 403.85-580Zm403.92 308.46H633.08q-8.54 0-14.27-5.73t-5.73-14.27q0-8.54 5.73-14.27t14.27-5.73h174.69l-69.08-69.84q-5.61-5.62-6-14.04-.38-8.43 6.23-14.27 5.62-5.62 14.16-5.23 8.54.38 14.15 6L862-314.15q9.69 9.69 9.69 22.61T862-268.92l-95.54 95.54q-5.61 5.61-13.27 5.73-7.65.11-14.27-5.73-6.38-5.62-6-14.16.39-8.54 6-14.15l68.85-69.85ZM403.85-380q32.77 0 63.34-11.62 30.58-11.61 54.96-34.15 5-4.23 7-9.96t2-11.96q0-8.69-4.11-16.27-4.12-7.58-12.58-11.81-25.61-12.61-53.96-18.42-28.35-5.81-56.65-5.81-28.31 0-56.66 5.81-28.34 5.81-53.96 18.42-8.23 4.23-12.46 11.69-4.23 7.46-4.23 16.16 0 6.46 2 12.19 2 5.73 7 9.96 24.38 22.54 54.96 34.15Q371.08-380 403.85-380Z"/></svg>