<svg xmlns="http://www.w3.org/2000/svg" height="24" viewBox="0 -960 960 960" width="24"><path d="M592.31-120q-26.66 0-45.64-18.98t-18.98-45.64v-143.84q0-8.5 5.76-14.25t14.27-5.75q8.51 0 14.24 5.75t5.73 14.25v143.84q0 10.77 6.93 17.7 6.92 6.92 17.69 6.92h223.07q10.77 0 17.7-6.92 6.92-6.93 6.92-17.7V-700q0-10.77-6.92-17.69-6.93-6.93-17.7-6.93H592.31q-10.77 0-17.69 6.93-6.93 6.92-6.93 17.69v69.23q0 8.5-5.76 14.25-5.75 5.75-14.26 5.75-8.52 0-14.25-5.75t-5.73-14.25V-700q0-26.65 18.98-45.63 18.98-18.99 45.64-18.99h223.07q26.66 0 45.64 18.99Q880-726.65 880-700v515.38q0 26.66-18.98 45.64T815.38-120H592.31Zm-447.69-75.38q-26.66 0-45.64-18.99Q80-233.35 80-260v-515.38q0-26.66 18.98-45.64T144.62-840h223.07q26.66 0 45.64 18.98t18.98 45.64v144.61q0 8.5-5.76 14.25t-14.27 5.75q-8.51 0-14.24-5.75t-5.73-14.25v-144.61q0-10.77-6.93-17.7-6.92-6.92-17.69-6.92H144.62q-10.77 0-17.7 6.92-6.92 6.93-6.92 17.7V-260q0 10.77 6.92 17.69 6.93 6.93 17.7 6.93h223.07q10.77 0 17.69-6.93 6.93-6.92 6.93-17.69v-68.46q0-8.5 5.76-14.25 5.75-5.75 14.26-5.75 8.52 0 14.25 5.75t5.73 14.25V-260q0 26.65-18.98 45.63-18.98 18.99-45.64 18.99H144.62Zm559.32-419.24q11.37 0 18.71-7.43 7.35-7.44 7.35-18.81 0-11.37-7.44-18.72-7.43-7.34-18.8-7.34-11.38 0-18.72 7.43-7.35 7.44-7.35 18.81 0 11.37 7.44 18.72 7.43 7.34 18.81 7.34ZM256.24-690q11.38 0 18.72-7.44 7.35-7.43 7.35-18.8 0-11.38-7.44-18.72-7.43-7.35-18.81-7.35-11.37 0-18.71 7.44-7.35 7.43-7.35 18.81 0 11.37 7.44 18.71 7.43 7.35 18.8 7.35ZM120-235.38V-800v564.62ZM840-160v-564.62V-160ZM326.18-450.77q-12.41 0-20.83-8.4-8.43-8.39-8.43-20.8t8.4-20.84q8.4-8.42 20.81-8.42 12.41 0 20.83 8.4 8.42 8.39 8.42 20.8t-8.39 20.84q-8.4 8.42-20.81 8.42Zm153.85 0q-12.41 0-20.84-8.4-8.42-8.39-8.42-20.8t8.4-20.84q8.39-8.42 20.8-8.42t20.84 8.4q8.42 8.39 8.42 20.8t-8.4 20.84q-8.39 8.42-20.8 8.42Zm153.07 0q-12.41 0-20.83-8.4-8.42-8.39-8.42-20.8t8.39-20.84q8.4-8.42 20.81-8.42 12.41 0 20.83 8.4 8.43 8.39 8.43 20.8t-8.4 20.84q-8.39 8.42-20.81 8.42Z"/></svg>