<svg xmlns="http://www.w3.org/2000/svg" height="24" viewBox="0 -960 960 960" width="24"><path d="M564.85-516.92q17 0 28.5-11.5t11.5-28.5v-10l10 4q15 6 30.5 3t23.5-17q9-15 6-32t-20-23.91l-10-3.94 10-3.95q17-6.91 19.88-24.17 2.89-17.26-5.88-32.03-8.23-14.23-22.85-17.5-14.62-3.27-31.15 3.5l-10 4v-10q0-17-11.5-28.5t-28.5-11.5q-17 0-28.5 11.5t-11.5 28.5v10l-10-4q-16.54-6.77-31.16-3.5-14.61 3.27-22.84 17.5-8.77 14.77-5.89 32.03 2.89 17.26 19.89 24.17l10 3.95-10 3.94q-17 6.91-20 23.91t6 32q8 14 23.5 17t30.5-3l10-4v10q0 17 11.5 28.5t28.5 11.5Zm0-80q-17 0-28.5-11.5t-11.5-28.5q0-17 11.5-28.5t28.5-11.5q17 0 28.5 11.5t11.5 28.5q0 17-11.5 28.5t-28.5 11.5Zm0 200q34 0 63.24-12.5 29.24-12.5 52.53-34.5 19.53-18.54 32.21-42.02 12.68-23.47 17.55-50.6 2-8.15-3.73-14.27-5.73-6.11-14.19-4.88-27.54 3.23-51.81 15.23-24.27 12-43.8 30.54-23 22-36.5 51t-15.5 62Zm0 0q-2-33-15.5-62t-36.5-51q-19.54-18.54-43.81-30.54-24.27-12-51.81-15.23-8.46-1.23-14.19 4.88-5.73 6.12-3.73 14.27 5 27.13 18 50.6 13 23.48 32.54 42.02 23 22 52 34.5t63 12.5ZM247.23-127.31q-26.85 3.46-47.98-12.99-21.14-16.45-24.33-42.93l-49.15-388.54q-3.23-26.85 13.31-48.61 16.54-21.77 43.38-24.24l39.08-2.92v281.39q0 59.65 42.48 102.13t102.13 42.48h367.39q.15 14-9.77 24.58-9.92 10.58-24.39 12.81l-452.15 56.84Zm118.92-174.23q-27.61 0-46.11-18.5t-18.5-46.11v-409.23q0-27.62 18.5-46.12 18.5-18.5 46.11-18.5h409.23q27.62 0 46.12 18.5Q840-803 840-775.38v409.23q0 27.61-18.5 46.11t-46.12 18.5H366.15Z"/></svg>