<svg xmlns="http://www.w3.org/2000/svg" height="24" viewBox="0 -960 960 960" width="24"><path d="M480-248.23q-10.46 0-20.29-3.62-9.83-3.61-18.02-10.84-99.54-88.62-150.61-173.89Q240-521.85 240-599.38q0-105.77 67.23-173.2Q374.46-840 480-840t172.77 67.42Q720-705.15 720-599.38q0 77.53-51.08 162.42-51.07 84.88-150.64 173.92-8.43 7.58-18.13 11.19-9.69 3.62-20.15 3.62Zm.14-287.15q26.71 0 45.59-19.03 18.89-19.02 18.89-45.73 0-26.71-19.03-45.59-19.02-18.89-45.73-18.89-26.71 0-45.59 19.03-18.89 19.02-18.89 45.73 0 26.71 19.03 45.59 19.02 18.89 45.73 18.89ZM260-120q-8.5 0-14.25-5.76T240-140.03q0-8.51 5.75-14.24T260-160h440q8.5 0 14.25 5.76t5.75 14.27q0 8.51-5.75 14.24T700-120H260Z"/></svg>