<svg xmlns="http://www.w3.org/2000/svg" height="24" viewBox="0 -960 960 960" width="24"><path d="M779.15-124 661.54-241.38H680v16.76q0 26.85-18.88 45.74Q642.23-160 615.38-160H344.62q-26.85 0-45.74-18.88Q280-197.77 280-224.62V-320h-72.31q-26.84 0-45.73-18.88-18.88-18.89-18.88-45.74v-150.76q0-34.08 23.07-57.04 23.08-22.96 56.93-22.96h64.46L123.77-779.15q-5.85-5.85-6.23-13.89-.39-8.04 6.23-14.65 6.61-6.62 14.27-6.62 7.65 0 14.27 6.62l655.38 655.38q5.85 5.85 6.23 13.77.39 7.92-6.23 14.54-6.61 6.62-14.27 6.62-7.65 0-14.27-6.62Zm-434.53-76h270.76q10.77 0 17.7-6.92 6.92-6.93 6.92-17.7v-38.3L521.38-381.54H344.62q-10.77 0-17.7 6.92-6.92 6.93-6.92 17.7v132.3q0 10.77 6.92 17.7 6.93 6.92 17.7 6.92Zm112.46-415.38h279.84q33.85 0 56.93 23.07 23.07 23.08 23.07 56.93v172.53q0 19.31-13.5 31.08T772.31-320q-8.69 0-17.89-3.62-9.19-3.61-17.57-12L457.08-615.38Zm-30.77-30.77L352-720.46q-15.15-15.16-6.96-35.04 8.19-19.89 29.81-19.89h240.53q26.85 0 45.74 18.89Q680-737.62 680-710.77v33.85q0 12.38-9.19 21.57-9.19 9.2-21.58 9.2H426.31Zm278.31 170.77q17 0 28.5-11.5t11.5-28.5q0-17-11.5-28.5t-28.5-11.5q-17 0-28.5 11.5t-11.5 28.5q0 17 11.5 28.5t28.5 11.5Z"/></svg>