<svg xmlns="http://www.w3.org/2000/svg" height="24" viewBox="0 -960 960 960" width="24"><path d="M95.38-441.69q-6.84-4.39-8.19-12.19-1.34-7.81 2.81-14.89l113.54-182.15q17.38-28.08 49.81-30.2 32.42-2.11 53.8 22.74l35.93 41.61q8.46 10 21.15 8.85 12.69-1.16 18.85-11.93L465-753.08q18.38-30.3 53.81-31.19 35.42-.88 54.81 29.19l37.92 58.31Q619.23-686 632.69-686q13.46 0 20.39-11.54l102.77-164.15q4.38-7.31 13.03-8.89 8.66-1.57 15.74 4.04 6.07 4.39 7.42 11.42 1.34 7.04-2.81 14.12L686.46-676.85q-18.38 30.08-53.81 30.08-35.42 0-54.8-29.08l-37.16-56.77q-7.69-11.53-21.15-11.15-13.46.39-20.39 11.92l-81.92 132.47q-17.15 28.07-49.96 30.69-32.81 2.61-54.19-22.23l-36.16-42.62q-8.46-10-20.77-8.84-12.3 1.15-18.46 11.92L124.15-447.31q-4.38 7.31-13.03 9.27-8.66 1.96-15.74-3.65ZM564.62-240q48.15 0 81.38-33.23t33.23-81.39q0-48.15-33.23-81.38t-81.38-33.23q-48.16 0-81.39 33.23Q450-402.77 450-354.62q0 48.16 33.23 81.39Q516.46-240 564.62-240Zm0 40q-64.24 0-109.43-45.19Q410-290.38 410-354.62q0-64.23 45.19-109.42t109.43-45.19q64.23 0 109.42 45.19t45.19 109.42q0 26.77-8.54 50.89-8.54 24.11-24.07 43.58l98.46 99.23q5.61 5.61 5.61 13.38 0 7.77-5.61 13.39-5.62 5.61-13.77 5.61-8.16 0-13.77-5.61l-99.23-98.47q-19.46 15.54-43.19 24.08-23.74 8.54-50.5 8.54Z"/></svg>