<svg xmlns="http://www.w3.org/2000/svg" height="24" viewBox="0 -960 960 960" width="24"><path d="M572.31-230.77H463.08q-8.54 0-14.27 5.73t-5.73 14.27q0 8.54 5.73 14.27t14.27 5.73H580q13.92 0 23.12-9.19 9.19-9.19 9.19-23.12V-340q0-8.54-5.73-14.27T592.31-360q-8.54 0-14.27 5.73T572.31-340v109.23ZM304.62-80q-26.85 0-45.74-18.88Q240-117.77 240-144.62v-670.76q0-27.62 18.5-46.12Q277-880 304.62-880h353.84q26.85 0 45.73 18.88 18.89 18.89 18.89 45.74v128.61Q738-685.15 749-674.38q11 10.76 11 25.92v70.77q0 15.15-11 25.92-11 10.77-25.92 12.39v394.76q0 26.85-18.89 45.74Q685.31-80 658.46-80H304.62Zm0-40h353.84q10.77 0 17.69-6.92 6.93-6.93 6.93-17.7v-670.76q0-10.77-6.93-17.7-6.92-6.92-17.69-6.92H304.62q-10.77 0-17.7 6.92-6.92 6.93-6.92 17.7v670.76q0 10.77 6.92 17.7 6.93 6.92 17.7 6.92ZM280-120v-720 720Zm110.77-609.23H500q8.54 0 14.27-5.73t5.73-14.27q0-8.54-5.73-14.27T500-769.23H383.08q-13.93 0-23.12 9.19-9.19 9.19-9.19 23.12V-620q0 8.54 5.73 14.27t14.27 5.73q8.54 0 14.27-5.73t5.73-14.27v-109.23Z"/></svg>