<svg xmlns="http://www.w3.org/2000/svg" height="24" viewBox="0 -960 960 960" width="24"><path d="M590.77-141.54h227.69v-27.61q-21.15-25.31-51-38.85-29.84-13.54-62.84-13.54T641.77-208q-29.85 13.54-51 38.85v27.61Zm113.85-113.84q21.15 0 35.96-14.81 14.8-14.81 14.8-35.96 0-21.16-14.8-35.97-14.81-14.8-35.96-14.8-21.16 0-35.97 14.8-14.8 14.81-14.8 35.97 0 21.15 14.8 35.96 14.81 14.81 35.97 14.81ZM480-480Zm-1.08-100q-41.84 0-70.92 29.08-29.08 29.07-29.08 70.92 0 32.62 17.39 57.08 17.38 24.46 45.23 36.15.77-10.69 2.42-20.92 1.66-10.23 5.81-18.77-15.54-7.23-23.19-22-7.66-14.77-7.66-31.54 0-25 17.5-42.5t42.5-17.5q16.54 0 30.43 8.27 13.88 8.27 22.11 22.04 7.16-4.23 14.92-6.23 7.77-2 15.93-2h8.31q-10.7-27.62-35.66-44.85Q510-580 478.92-580Zm-73.54 460-14.46-115.69q-19.15-5.77-41.42-18.16-22.27-12.38-37.88-26.53L204.92-235l-74.61-130 92.23-69.54q-1.77-10.84-2.92-22.34-1.16-11.5-1.16-22.35 0-10.08 1.16-21.19 1.15-11.12 2.92-25.04L130.31-595l74.61-128.46 105.93 44.61q17.92-14.92 38.77-26.92 20.84-12 40.53-18.54L405.38-840h149.24l14.46 116.46q23 8.08 40.65 18.54 17.65 10.46 36.35 26.15l109-44.61L829.69-595l-91.15 68.85q.77 1.53.77 3.07 0 1.54.77 3.08h-47.16q-1-5-1.61-9.35-.62-4.34-2.62-9.34L777.77-606 738-674l-102.08 42.77q-18.15-19.92-47.73-37.35-29.57-17.42-55.96-23.11L520-800h-79.77l-12.46 107.54q-30.23 6.46-55.58 20.81-25.34 14.34-50.42 39.42L222-674l-39.77 68L269-541.23q-5 13.46-7 29.23t-2 32.77q0 15.23 2 30.23t6.23 29.23l-86 65.77L222-286l99-42q24 24.23 54.38 40.08 30.39 15.84 64.62 23.15V-120h-34.62Zm180.77 33.85q-21.15 0-35.96-14.81-14.81-14.81-14.81-35.96v-236.93q0-21.15 14.81-35.96 14.81-14.81 35.96-14.81h236.93q21.15 0 35.96 14.81 14.81 14.81 14.81 35.96v236.93q0 21.15-14.81 35.96-14.81 14.81-35.96 14.81H586.15Z"/></svg>