<svg xmlns="http://www.w3.org/2000/svg" height="24" viewBox="0 -960 960 960" width="24"><path d="M586.15-86.15q-21.15 0-35.96-14.81-14.81-14.81-14.81-35.96v-236.93q0-21.15 14.81-35.96 14.81-14.81 35.96-14.81h236.93q21.15 0 35.96 14.81 14.81 14.81 14.81 35.96v236.93q0 21.15-14.81 35.96-14.81 14.81-35.96 14.81H586.15ZM440-264.54V-120h-3.92q-13.93 0-23.04-9.15-9.12-9.16-11.58-22.85l-10.54-83.69q-19.15-5.77-41.42-18.16-22.27-12.38-37.88-26.53L235-247.46q-12.69 5.61-25.77 1.23-13.08-4.39-20.15-16.62l-43.16-74.3q-7.07-12.23-4.15-25.54 2.92-13.31 13.92-21.85l66.85-50q-1.77-10.84-2.92-22.34-1.16-11.5-1.16-22.35 0-10.08 1.16-21.19 1.15-11.12 2.92-25.04l-66.85-50q-11-8.54-13.54-22.23-2.53-13.69 4.54-25.93l42.39-72q7.07-11.46 20.15-16.23 13.08-4.77 25.77.85l75.85 32.15q17.92-14.92 38.77-26.92 20.84-12 40.53-18.54L401.46-808q2.46-13.69 12.73-22.85 10.27-9.15 24.19-9.15h83.24q13.92 0 24.19 9.15 10.27 9.16 12.73 22.85l10.54 84.46q23 8.08 40.65 18.54 17.65 10.46 36.35 26.15L725.77-711q12.69-5.62 25.77-.85 13.08 4.77 20.15 16.23l42.39 72.77q7.07 12.23 4.15 25.66-2.92 13.42-13.92 21.73L755.69-539q-7.07 5.38-14.5 5.31-7.42-.08-13.81-6.93-6.38-6.84-5.92-15.15.46-8.31 7.31-13.92l49-36.31L738-674l-102.08 42.77q-18.15-19.92-47.73-37.35-29.57-17.42-55.96-23.11L520-800h-79.77l-12.46 107.54q-30.23 6.46-55.58 20.81-25.34 14.34-50.42 39.42L222-674l-39.77 68L269-541.23q-5 13.46-7 29.23t-2 32.77q0 15.23 2 30.23t6.23 29.23l-86 65.77L222-286l99-42q24 24.23 54.5 39.96t64.5 23.5ZM478.92-480Zm0-100q-41.84 0-70.92 28.96T378.92-480q0 18.69 6.39 35.62 6.38 16.92 19.15 31.07 6.39 7.31 14.66 8.23 8.26.93 15.34-5.46 7.08-6.15 7.27-14.19.19-8.04-6.19-13.89-8.31-8-12.46-18.8-4.16-10.81-4.16-22.58 0-25 17.5-42.5t42.5-17.5q11.54 0 22.58 4.65 11.04 4.66 19.04 12.97 5.84 5.92 13.54 5.34 7.69-.58 13.84-7.65 6.16-7.08 5.35-15.23-.81-8.16-7.89-14.54-12.46-12-30.15-18.77-17.69-6.77-36.31-6.77Zm0 100Zm225.7 258.46q-25 0-47.85 7.66-22.85 7.65-42.31 22.42-11.46 8.77-17.58 17.77-6.11 9-6.11 18.23 0 5.46 4.23 9.69 4.23 4.23 9.69 4.23h203.85q4.23 0 7.08-3.84 2.84-3.85 2.84-10.08 0-9.23-6.11-18.23-6.12-9-17.58-17.77-19.46-14.77-42.31-22.42-22.84-7.66-47.84-7.66Zm0-33.84q21.15 0 35.96-14.81 14.8-14.81 14.8-35.96 0-21.16-14.8-35.97-14.81-14.8-35.96-14.8-21.16 0-35.97 14.8-14.8 14.81-14.8 35.97 0 21.15 14.8 35.96 14.81 14.81 35.97 14.81Z"/></svg>