<svg xmlns="http://www.w3.org/2000/svg" height="24" viewBox="0 -960 960 960" width="24"><path d="M160-364.62h247.23q-21.54 19.39-42.08 43.89-20.53 24.5-41.61 54.58-12.31 17.46-12.19 38.46.11 21 11.42 38.46 4.92 7.77 9.72 15.01 4.8 7.23 10.13 14.22h-118q-26.66 0-45.64-18.98T160-224.62v-140Zm0-40v-204.61h300v198.38q-2.31 1.39-4.5 2.89-2.19 1.5-4.27 3.34H160Zm340-204.61h300V-427q-34.77-17.54-73.12-26.04-38.34-8.5-81.5-8.5-40.46 0-76.23 7.58T500-430.69v-178.54Zm-340-40v-86.15q0-26.66 18.98-45.64T224.62-800h510.76q26.66 0 45.64 18.98T800-735.38v86.15H160Zm485.47 560q-62.93 0-117.59-27.54-54.65-27.54-93.57-76.61-6-7.47-8.62-15.9-2.61-8.43-2.61-17.27 0-8.83 2.61-18.3 2.62-9.46 8.62-17.15 38.92-49.08 93.49-76.62 54.57-27.53 117.5-27.53t117.58 27.53q54.66 27.54 93.58 76.62 6 7.69 8.62 16.65 2.61 8.97 2.61 17.66t-2.61 17.65q-2.62 8.96-8.62 16.66-38.92 49.07-93.49 76.61-54.57 27.54-117.5 27.54Zm-.11-67.69q29.72 0 50.26-20.52 20.53-20.52 20.53-50.23 0-29.71-20.51-50.25-20.52-20.54-50.23-20.54-29.72 0-50.26 20.52-20.53 20.51-20.53 50.23 0 29.71 20.51 50.25 20.52 20.54 50.23 20.54Zm.12-30.77q-16.63 0-28.36-11.64-11.74-11.64-11.74-28.27t11.64-28.36q11.65-11.73 28.27-11.73 16.63 0 28.36 11.64t11.73 28.27q0 16.63-11.64 28.36t-28.26 11.73Z"/></svg>