<svg xmlns="http://www.w3.org/2000/svg" height="24" viewBox="0 -960 960 960" width="24"><path d="M336.15-86.15 366-172.31h-63.69l42.31-118.46h69.23l-36.08 84.62h69.92l-93.07 120h-18.47ZM564.62-120l24.15-69.23h-66.46l36.07-101.54h69.24l-28.85 67.69h68.92L583.08-120h-18.46ZM300-340q-83.31 0-141.65-58.35Q100-456.69 100-540q0-77.62 52.31-134.23 52.31-56.62 131-65.31 29.69-56.23 81.34-88.34Q416.31-860 480-860q86.15 0 148.04 57.12 61.88 57.11 72.04 142.34 73.61 4.46 116.77 51.23Q860-562.54 860-500q0 66.54-46.73 113.27Q766.54-340 700-340H300Zm0-40h400q49.69 0 84.85-35.15Q820-450.31 820-500t-35.15-84.85Q749.69-620 700-620h-40v-20q0-74.46-52.77-127.23Q554.46-820 480-820q-54.15 0-98.65 29.46-44.5 29.46-66.81 78.85L309.92-700H298q-65.46 2-111.73 48.27Q140-605.46 140-540q0 66.46 46.77 113.23Q233.54-380 300-380Zm180-220Z"/></svg>