<svg xmlns="http://www.w3.org/2000/svg" height="24" viewBox="0 -960 960 960" width="24"><path d="M446.69-120q-32.61 0-62.11-13.54t-48.81-39.38L155.54-411q-4.16-5.92-3.92-12.65.23-6.73 5.15-11.66 10-11 23.77-13.46 13.77-2.46 26.23 4.85l120.92 59.61v-304.92q0-8.5 5.76-14.25t14.27-5.75q8.51 0 14.36 5.75 5.84 5.75 5.84 14.25v319.97q0 18.4-15.5 27.6-15.5 9.2-31.65 1.04l-96-46.61L370.31-195q13.69 17.77 34 26.38 20.31 8.62 42.38 8.62h172.54q42.23 0 71.5-28.88Q720-217.77 720-260v-141.54q0-24.19-16.37-40.56-16.36-16.36-40.55-16.36H498.69q-8.5 0-14.25-5.76t-5.75-14.27q0-8.51 5.75-14.24t14.25-5.73h164.39q40.38 0 68.65 28.27Q760-441.92 760-401.54v141.49q0 58.36-41.35 99.2Q677.3-120 619.23-120H446.69Zm26.08-209.23Zm-125.17-570q87.55 0 148.71 61.25 61.15 61.25 61.15 148.75 0 23.46-5 46.19-5 22.73-15.77 44.19-2.69 6.39-9.34 7.85-6.66 1.46-13.04-1.62-6.39-3.07-8.58-10.07-2.19-7 .5-13.85 7.54-17.54 11.69-35.84 4.16-18.31 4.16-36.85 0-72.76-50.92-123.69-50.92-50.93-123.65-50.93-72.74 0-123.7 50.93-50.96 50.93-50.96 123.69 0 19.31 4.03 37.35 4.04 18.03 11.58 34.57 3.46 6.85.86 13.96-2.6 7.11-8.96 10.08-6.36 2.96-13.01 1.39-6.66-1.58-9.35-7.97-9.77-20.46-15.15-43.19-5.39-22.73-5.39-46.19 0-87.5 61.29-148.75t148.85-61.25Zm0 94.61q47.86 0 81.55 33.8 33.7 33.79 33.7 81.59 0 10.77-1.5 19.77t-5.04 18q-2.58 7.8-9.68 11.4-7.09 3.6-14.48 1.14-7.38-2.46-10.42-9.23-3.04-6.77-.58-13.39 1.77-4.15 5.31-27.69 0-33-23.5-56.5t-56.5-23.5q-33 0-56.5 23.38-23.5 23.39-23.5 56.62 0 7.31 1.27 14.35 1.27 7.03 4.04 14.34 2.23 6.62-.69 13.16-2.93 6.53-9.93 8.76-7 2.24-13.27-1.46-6.26-3.69-9.5-11.84-2.76-7.77-4.53-17.04-1.77-9.27-1.77-20.27 0-48.23 33.83-81.81 33.83-33.58 81.69-33.58Z"/></svg>