<svg xmlns="http://www.w3.org/2000/svg" height="24" viewBox="0 -960 960 960" width="24"><path d="M462.54-544.77 206.38-653.54q-16.3-6.38-19.11-23.19-2.81-16.81 9.27-28.89l9.84-10.61q5.7-5.69 12.97-7.77 7.27-2.08 15.42-.85l348.46 60.16 125.54-125.77q16.85-16.85 40.73-16.85 23.88 0 40.73 16.85 16.85 16.84 16.85 40.73 0 23.88-16.85 40.73L664.69-583.23 724.62-235q1.23 8.15-.74 15.54-1.96 7.38-7.65 13.08l-10.61 9.61q-12.08 12.08-29 9.39-16.93-2.7-23.31-19L544.77-463.31 422-340.77 443.23-216q1.23 6.15-.23 11.81-1.46 5.65-6.15 10.34L426-183.77q-9.38 9.39-21.42 7.15-12.04-2.23-18.2-13.3L318-318l-128.08-68.38q-11.07-6.16-13.3-18.2-2.24-12.04 7.15-21.42l10.08-10.85q4.69-4.69 10.34-6.53 5.66-1.85 11.81-.62l124.54 21.77 122-122.54Z"/></svg>