<svg xmlns="http://www.w3.org/2000/svg" height="24" viewBox="0 -960 960 960" width="24"><path d="M724.62-320q-8.54 0-14.27-5.73T704.62-340q0-8.54 5.73-14.27t14.27-5.73h24.61q8.54 0 14.27 5.73t5.73 14.27q0 8.54-5.73 14.27T749.23-320h-24.61Zm0-140q-8.54 0-14.27-5.73T704.62-480q0-8.54 5.73-14.27t14.27-5.73h64.61q8.54 0 14.27 5.73t5.73 14.27q0 8.54-5.73 14.27T789.23-460h-64.61Zm0-140q-8.54 0-14.27-6.23T704.62-621q0-8.54 6.23-14.27t14.77-5.73h103.61q8.54 0 14.27 5.73t5.73 14.27q0 8.54-5.73 14.77T829.23-600H724.62ZM400-280q83 0 141.5-58.5T600-480q0-83-58.5-141.5T400-680q-83 0-141.5 58.5T200-480q0 83 58.5 141.5T400-280Zm-50.77 160q-13.69 0-24.42-8.19-10.73-8.19-14.89-21.89l-25.3-88.54q-5.24-16.92-15.81-32.42-10.58-15.5-28.27-30.58-38.62-32.38-59.58-78.61T160-480q0-52.54 20.96-98.77t59.58-79.61q17.69-16.08 28.27-31.47 10.57-15.38 15.81-31.53l25.3-88.54q4.16-13.7 14.89-21.89 10.73-8.19 24.42-8.19h101.54q13.69 0 24.42 8.19 10.73 8.19 14.89 21.89l25.3 88.54q5.24 16.92 15.81 32.42 10.58 15.5 28.27 30.58 38.62 32.38 59.58 78.61T640-480q0 52.54-20.96 98.77t-59.58 79.61q-17.69 16.08-28.27 31.47-10.57 15.38-15.81 31.53l-25.3 88.54q-4.16 13.7-14.89 21.89-10.73 8.19-24.42 8.19H349.23Zm0-680h101.54H349.23Zm0 640H450.77 349.23Zm-26.77-546.92q20.77-6.54 39.66-9.93 18.88-3.38 37.88-3.38 19 0 37.88 3.38 18.89 3.39 39.66 9.93L450.77-800H349.23l-26.77 93.08ZM349.23-160h101.54l26.77-93.08q-20.77 6.54-39.66 9.43-18.88 2.88-37.88 2.88-19 0-37.88-2.88-18.89-2.89-39.66-9.43L349.23-160Z"/></svg>