<svg xmlns="http://www.w3.org/2000/svg" height="24" viewBox="0 -960 960 960" width="24"><path d="m762.46-113.46-155.23-155-4.61 3.08-32.77 116.07q-4.16 13.69-14.77 21.5Q544.46-120 530-120H429q-14.46 0-25.08-7.81-10.61-7.81-14.77-21.5l-24.53-88.54q-5.24-16.92-15.81-32.3-10.58-15.39-28.27-30.47-38.62-33.15-59.58-79.5Q240-426.46 240-480q0-32.92 8.62-64.12 8.61-31.19 24.84-58.11L113.23-762.46q-5.85-5.85-6.23-13.89-.38-8.03 6.23-14.65 6.62-6.62 14.27-6.62 7.65 0 14.27 6.62L791-141.77q5.85 5.85 6.23 13.77.39 7.92-6.23 14.54-6.62 6.61-14.27 6.61-7.65 0-14.27-6.61ZM480-280q23.08 0 47.62-5.81 24.53-5.81 43.84-17.42L303.23-571.46q-12.38 21.61-17.81 45.38Q280-502.31 280-480q0 83 58.5 141.5T480-280Zm114.38-441.15q5.24 16.92 15.81 32.3 10.58 15.39 28.27 30.47 38.62 33.15 60.08 79.5Q720-532.54 720-480q0 24.54-5.19 47.81Q709.62-408.92 700-386q-2.69 7.54-10.65 10.69-7.97 3.16-15.73-.54-7.31-3.46-10.08-11.15-2.77-7.69-.08-15.46 8.39-17.46 12.46-36.69Q680-458.38 680-480q0-42-16-78t-43-63q-44.15-44.15-102.35-55.08Q460.46-687 402.54-664q-6.39 2.23-13.42 1.27-7.04-.96-11.97-5.89l-12-12q-5.69-5.69-6.27-11.96-.57-6.27 1.66-13.42l28.61-103.69q4.16-13.69 14.77-22Q414.54-840 429-840h101q14.46 0 25.08 8.31 10.61 8.31 14.77 22l24.53 88.54Z"/></svg>