<svg xmlns="http://www.w3.org/2000/svg" height="24" viewBox="0 -960 960 960" width="24"><path d="M206.78-264.09q54-50.17 122.11-78.13Q397-370.17 480-370.17q83 0 151.11 27.39 68.11 27.39 122.11 77.56v-488H206.78v489.13ZM480-428.7q60.26 0 102.39-42.13t42.13-102.39q0-60.26-42.13-102.11-42.13-41.84-102.39-41.84t-102.39 41.84q-42.13 41.85-42.13 102.11t42.13 102.39Q419.74-428.7 480-428.7ZM100.78-100.78v-758.44h758.44v758.44H100.78Zm379.09-416.39q-23.17 0-39.26-16.34-16.09-16.34-16.09-39.67 0-23.34 16.22-39.43t39.39-16.09q23.17 0 39.26 16.22 16.09 16.22 16.09 39.4 0 23.17-16.22 39.54-16.22 16.37-39.39 16.37Zm.13 8.52ZM276.91-206.78h407.31q-42.87-37.87-95.55-56.39Q536-281.7 480-281.7t-108.54 18.53q-52.55 18.52-94.55 56.39Z"/></svg>