<svg xmlns="http://www.w3.org/2000/svg" height="24" viewBox="0 -960 960 960" width="24"><path d="m784.09-197.26-75.66-75.65q9.09-9.22 17.16-19.24 8.06-10.02 14.54-21.55-25.96-3.3-51.32-10.08-25.37-6.78-48.72-17.48l-301.4-301.4q-10.86-22.9-17.27-47.7-6.42-24.81-9.29-50.2-10.88 6.21-20.94 14.13-10.06 7.91-19.28 17l-74.08-74.66q44.13-42.87 99.47-71.3 55.35-28.44 118.35-39.87Q402.74-794 430.04-697.24q27.31 96.76 98.87 168.33 71.57 71.56 168.05 98.02 96.48 26.45 197.17 17.5-11 63-39.09 117.5-28.08 54.5-70.95 98.63Zm-27.61 223L634.35-96.96q-35.13 13.57-72.66 20.92Q524.17-68.7 484-68.7q-86.35 0-161.91-32.89-75.55-32.9-131.58-88.92-56.02-56.03-88.92-131.58Q68.7-397.65 68.7-484q0-40.26 7.34-77.46 7.35-37.19 20.92-72.32l-121.7-121.7 62.65-62.65L819.13-36.91l-62.65 62.65ZM484-174.7q16.61 0 32.65-1.93 16.05-1.94 32.22-5.24l-367-367q-3.3 16.61-5.24 32.56-1.93 15.95-1.93 32.31 0 129.35 89.97 219.33Q354.65-174.7 484-174.7ZM365.43-365.87Zm124.74-125.3Z"/></svg>