<svg xmlns="http://www.w3.org/2000/svg" height="24" viewBox="0 -960 960 960" width="24"><path d="M60.78-140.78v-678.44h838.44v106H477.74v157.74H271.65l-31.69 112.96q-23 27.13-36.29 61.35-13.28 34.22-13.28 73.04 0 38.82 13.28 73.04 13.29 34.22 36.29 61.35l9.13 32.96H60.78Zm271.31 0-20.57-73.18q-19.54-17.77-30.33-41.81-10.8-24.04-10.8-52.27 0-28.22 10.8-52.3 10.79-24.07 30.33-41.87l20.57-73.27h131.3l20.57 73.18q19.53 17.77 30.33 41.81 10.8 24.04 10.8 52.27 0 28.22-10.8 52.3-10.8 24.07-30.33 41.87l-20.57 73.27h-131.3Zm65.9-114.7q22.92 0 37.66-15.35 14.74-15.36 14.74-37.3 0-21.94-15.82-37.29-15.82-15.36-36.91-15.36-21.09 0-36.83 14.92-15.74 14.91-15.74 37.73 0 22.82 14.99 37.73 14.98 14.92 37.91 14.92Zm330.49-171.74q15.45 0 25.55-10.41 10.1-10.41 10.1-25.24 0-15.45-10.1-25.55-10.1-10.1-25.55-10.1-14.83 0-25.24 10.1-10.41 10.1-10.41 25.55 0 14.83 10.41 25.24 10.41 10.41 25.24 10.41ZM549.83-140.78v-492.44h349.39v492.44H549.83Z"/></svg>