<svg xmlns="http://www.w3.org/2000/svg" height="24" viewBox="0 -960 960 960" width="24"><path d="M835.26-1.43 695.91-140.78H549.83v-146.09l-80-80v80.09H99.65v-449.7L.3-835.83l62.22-62.21L896.91-63.09 835.26-1.43ZM481.57-605.44 267.78-819.22h592v106H481.57v107.78Zm69.39-27.78h348.26v445.44L550.96-536.33v-96.89Zm173.56 206q15.26 0 25.46-10.41 10.19-10.41 10.19-25.24 0-15.26-10.19-25.45-10.2-10.2-25.46-10.2-14.82 0-25.24 10.2-10.41 10.19-10.41 25.45 0 14.83 10.41 25.24 10.42 10.41 25.24 10.41ZM60.78-140.78v-106h409.05v106H60.78Z"/></svg>