<svg xmlns="http://www.w3.org/2000/svg" height="24" viewBox="0 -960 960 960" width="24"><path d="M260.91-229.26V-453.3l15.65-51.44h406.57l15.65 51.44v224.04H260.91Zm106.44-186.43v97.39h225.87v-97.39H367.35ZM480.13-734q16.76 0 28.1-11.5t11.34-28.5q0-17-11.34-28.5t-28.1-11.5q-17.24 0-28.9 11.5T439.57-774q0 17 11.66 28.5t28.9 11.5Zm158.17-9.65v-60.7l-26.17 5.17q1.57 6.27 1.85 12.59.28 6.33.28 12.59t-.56 12.59q-.57 6.32-2.13 12.58l26.73 5.18ZM260.91-453.3q0-69.56 39.52-124.76 39.53-55.2 101.74-78.9-15.52-9.69-27.36-22.98-11.84-13.3-20.2-29.76L187-743.26v-61.48l167.61-33q17.82-34.52 50.85-55.78 33.02-21.26 74.19-21.26 26.31 0 49.57 9.28t41.52 24.98L733-912.65v277.3l-162.26-32.13q-3.7 3.13-6.61 5.55-2.91 2.41-6.61 4.97 62.22 23.13 101.74 78.22 39.52 55.09 39.52 125.44H593.22q0-48.31-32.79-80.55-32.79-32.24-79.63-32.24-46.84 0-80.15 32.53-33.3 32.52-33.3 80.26H260.91Zm0 392.52v-168.48h106.44v62.48h225.87v-62.48h105.56v168.48H260.91Z"/></svg>