<svg xmlns="http://www.w3.org/2000/svg" height="24" viewBox="0 -960 960 960" width="24"><path d="M260.91-295.69v-120h437.87v120H260.91ZM479.13-734q17 0 28.5-11.5t11.5-28.5q0-16.44-11.5-28.22-11.5-11.78-28.5-11.78t-28.5 11.5q-11.5 11.5-11.5 28.5t11.5 28.5q11.5 11.5 28.5 11.5ZM264.48-495.69q11-55.66 47.74-98.4 36.74-42.74 89.39-62.43-14.96-10.13-27.07-23.18-12.11-13.04-20.93-30L187-742.7v-61.48l166.61-32.56q17.82-34.96 51.06-56.28 33.24-21.33 74.46-21.33 26.26 0 49.59 9.07 23.32 9.06 41.58 24.76L733-912.65v277.87l-162.7-31.7q-3.69 3.13-6.89 5.26-3.19 2.13-6.89 4.7 52.65 19.13 89.39 62.15 36.74 43.02 48.31 99.24l-429.74-.56Zm-3.57 434.91v-154.91h437.87v154.91H260.91Z"/></svg>