<svg xmlns="http://www.w3.org/2000/svg" height="24" viewBox="0 -960 960 960" width="24"><path d="M264.17-66.43q60.39 0 108.2-34.29 47.8-34.28 67.93-91.98 15.31-45.47 39.61-75.41 24.31-29.93 63.66-59.11 64.73-49.13 100.58-120.34Q680-518.78 680-597.17q0-122.53-85.24-207.77-85.24-85.23-207.76-85.23-112.91 0-194.76 75.91T97.96-625.44h108.82q10.74-68.04 60.89-113.39 50.16-45.34 119.33-45.34 78.78 0 132.89 54.11Q574-675.96 574-597.17q0 57.3-28.28 108.13-28.29 50.82-75.9 85.69-43.47 31.18-73.95 65.5-30.48 34.33-46.91 84.37-9.87 32.74-30.96 56.89-21.09 24.15-53.83 24.15-30.87 0-52.89-22.65t-22.02-53.95q0-28.83 11.78-54.05 11.79-25.21 28.44-47.35l53.87 48.92 102.82-163q55.35 1.04 94.7-37.63 39.35-38.68 39.35-94.46 0-55.17-38.46-93.63-38.46-38.46-93.63-38.46-57.09 0-95.76 41.37t-35.46 97.59L101.52-471.61l51.52 47.43q-34.13 38.22-51.67 82.09-17.55 43.87-17.55 93.05 0 75.61 52.66 129.11 52.65 53.5 127.69 53.5Zm469.31-194.74q64.26-69.79 98.39-156.22Q866-503.83 866-597.17q0-93.09-34.13-179.81t-98.39-155.93l-74.96 74.08q49.31 52.7 75.39 119.83Q760-671.87 760-597.17q0 73.13-26.65 140.32-26.65 67.2-75.96 120.46l76.09 75.22Z"/></svg>