<svg xmlns="http://www.w3.org/2000/svg" height="24" viewBox="0 -960 960 960" width="24"><path d="M100.78-100.78v-758.44H438.7q-26.79 34.26-40.74 74.92Q384-743.65 384-700q0 109 75.5 184.5T642-440q21 0 40.5-3t38.5-9l138.22 138.22v213H100.78ZM862-424 738-548q-21 14-45 21t-51 7q-74 0-126-52.5T464-700q0-75 52.5-127.5T644-880q75 0 127.5 52.5T824-700q0 27-8 52t-20 46l122 122-56 56ZM644-600q42 0 71-29t29-71q0-42-29-71t-71-29q-42 0-71 29t-29 71q0 42 29 71t71 29ZM230.39-280h499.22L610.57-442.3q-17.79-2-35.22-6.42-17.44-4.41-33.52-11.8L450-338.09l-90-120L230.39-280Z"/></svg>