<svg xmlns="http://www.w3.org/2000/svg" height="24" viewBox="0 -960 960 960" width="24"><path d="M136.82-62.48v-598.43H267v-63.61q0-89.22 60.76-149.7 60.76-60.48 147.72-60.48 86.95 0 148 60.48 61.04 60.48 61.04 149.7v63.61H814.7v163.08q-23.09-7.13-50.79-9-27.69-1.87-55.21 1.53-105.27 9.61-178.22 88.78-72.96 79.17-72.96 187.82 0 45 14.42 87.11 14.41 42.11 39.54 79.11H136.82Zm600.7 33.78q-83 0-141.5-58.5t-58.5-141.5q0-83 58.5-141.5t141.5-58.5q83 0 141.5 58.5t58.5 141.5q0 83-58.5 141.5t-141.5 58.5ZM373-660.91h205.52v-63.61q0-45.48-30.05-74.83-30.06-29.35-72.99-29.35-42.7 0-72.59 29.35T373-724.52v63.61ZM737.52-228.7q25 0 42.5-17.5t17.5-42.5q0-25-17.5-42.5t-42.5-17.5q-25 0-42.5 17.5t-17.5 42.5q0 25 17.5 42.5t42.5 17.5Zm0 120q30 0 56-14t43-39q-23-14-48-20.5t-51-6.5q-26 0-51 6.5t-48 20.5q17 25 43 39t56 14Z"/></svg>