<svg xmlns="http://www.w3.org/2000/svg" height="24" viewBox="0 -960 960 960" width="24"><path d="M837.52 20.05 11.61-805.3l62.22-62.22L899.18-41.61l-61.66 61.66Zm-60-296.44-106.56-106v-449.13H193.78v-106h583.74v213.61h40.57v206.69h-40.57v240.83ZM480-704.74q18.92 0 31.72-12.8 12.8-12.8 12.8-31.72 0-18.92-12.8-31.72-12.8-12.8-31.72-12.8-18.92 0-31.72 12.8-12.8 12.8-12.8 31.72 0 18.92 12.8 31.72 12.8 12.8 31.72 12.8ZM182.48-22.48v-736.39l106 106v524.39h382.48v-141.35l106.56 106.57v140.78H182.48Zm249-367.91Zm117.74-106.87Z"/></svg>