<svg xmlns="http://www.w3.org/2000/svg" height="24" viewBox="0 -960 960 960" width="24"><path d="M520-60.78V-347h106v180.22h210.61v-546.44H626V-613H520v-206.22h422.61v758.44H520Zm-502.61-80v-758.44H440V-613H334v-180.22H123.39v546.44H334V-347h106v206.22H17.39ZM731.3-594.56q18.09 0 30.55-12.46t12.46-30.54q0-18.09-12.46-30.55t-30.55-12.46q-18.08 0-30.54 12.46t-12.46 30.55q0 18.08 12.46 30.54t30.54 12.46Zm-502.6-81.13q18.08 0 30.54-12.46t12.46-30.55q0-18.08-12.46-30.54T228.7-761.7q-18.09 0-30.55 12.46t-12.46 30.54q0 18.09 12.46 30.55t30.55 12.46ZM123.39-246.78v-546.44V-246.78Zm713.22 80V-713.22v546.44ZM306.43-432.65q-19.82 0-33.58-13.76-13.76-13.76-13.76-33.59 0-19.83 13.76-33.59 13.76-13.76 33.58-13.76 19.83 0 33.59 13.76 13.76 13.76 13.76 33.59 0 19.83-13.76 33.59-13.76 13.76-33.59 13.76Zm173.57 0q-19.83 0-33.59-13.76-13.76-13.76-13.76-33.59 0-19.83 13.76-33.59 13.76-13.76 33.59-13.76 19.83 0 33.59 13.76 13.76 13.76 13.76 33.59 0 19.83-13.76 33.59-13.76 13.76-33.59 13.76Zm174.13 0q-19.83 0-33.59-13.76-13.76-13.76-13.76-33.59 0-19.83 13.76-33.59 13.76-13.76 33.59-13.76 19.83 0 33.59 13.76 13.76 13.76 13.76 33.59 0 19.83-13.76 33.59-13.76 13.76-33.59 13.76Z"/></svg>