<svg xmlns="http://www.w3.org/2000/svg" height="24" viewBox="0 -960 960 960" width="24"><path d="M202.87-111.87q-37.78 0-64.39-26.61t-26.61-64.39v-554.26q0-37.78 26.61-64.39t64.39-26.61h358.56q-20.95 26.72-31.55 58.79-10.6 32.08-10.6 65.51 0 84.92 59.82 144.73 59.81 59.82 144.73 59.82 33.43 0 65.51-10.6 32.07-10.6 58.79-31.55v358.56q0 37.78-26.61 64.39t-64.39 26.61H202.87ZM240-280h480L570-480 450-320l-90-120-120 160Zm441.91-319.28v-82.63h-82.63v-83.59h82.63v-82.63h83.59v82.63h82.63v83.59H765.5v82.63h-83.59Z"/></svg>