<svg xmlns="http://www.w3.org/2000/svg" height="24" viewBox="0 -960 960 960" width="24"><path d="M502.22-480ZM71.87-151.87 315.46-480 71.87-808.13H598.8q21.87 0 41.15 9.7 19.27 9.69 31.94 27.08L888.13-480l-11.22 15.85q-27.48-19.2-59.69-31.65-32.22-12.46-67.18-16.7l-151-204.87H253.39L429.09-480l-175.7 237.37h184.22q-.96 23.63 2.16 46.38 3.12 22.75 10.32 44.38H71.87Zm616.26 10.48 142.35-141.35-45.35-45.35-97 95-39-39-45.35 46.35 84.35 84.35Zm29 106.65q-83 0-141.5-58.5t-58.5-141.5q0-83 58.5-141.5t141.5-58.5q83 0 141.5 58.5t58.5 141.5q0 83-58.5 141.5t-141.5 58.5Z"/></svg>