<svg xmlns="http://www.w3.org/2000/svg" height="24" viewBox="0 -960 960 960" width="24"><path d="M71.87-151.87 315.46-480 71.87-808.13H598.8q21.66 0 41.04 9.7 19.38 9.69 32.05 27.08L888.13-480l-11.22 15.85q-35.71-24.68-76.04-37.63-40.32-12.96-83.74-12.96-117 0-198.5 81.5t-81.5 197.5q0 20.96 3.24 42.1t9.72 41.77H71.87ZM717.13-34.74q-83 0-141.5-58.5t-58.5-141.5q0-83 58.5-141.5t141.5-58.5q83 0 141.5 58.5t58.5 141.5q0 83-58.5 141.5t-141.5 58.5Zm-29-106.65 142.35-141.35-45.35-45.35-97 95-39-39-45.35 46.35 84.35 84.35Z"/></svg>