<svg xmlns="http://www.w3.org/2000/svg" height="24" viewBox="0 -960 960 960" width="24"><path d="M359.28-496.89v-66.22h241.44v66.22H359.28Zm40 121.43v-66.21h161.44v66.21H399.28ZM358.57-60.87 300.5-255.78q-48.72-38.96-78.67-97.51-29.96-58.56-29.96-126.71 0-68.15 29.96-126.71 29.95-58.55 78.67-97.51l58.07-194.91h242.86l58.07 194.91q48.72 38.96 78.67 97.51 29.96 58.56 29.96 126.71 0 68.15-29.96 126.71-29.95 58.55-78.67 97.51L601.43-60.87H358.57Zm121.43-222q81.8 0 139.47-57.66 57.66-57.66 57.66-139.47 0-81.8-57.66-139.47-57.66-57.66-139.47-57.66-81.8 0-139.47 57.66-57.66 57.66-57.66 139.47 0 81.8 57.66 139.47 57.66 57.66 139.47 57.66Z"/></svg>