<svg xmlns="http://www.w3.org/2000/svg" height="24" viewBox="0 -960 960 960" width="24"><path d="M282.63-71.87q-37.78 0-64.39-26.61t-26.61-64.39v-394.26q0-37.78 26.61-64.39t64.39-26.61h394.74q37.78 0 64.39 26.61t26.61 64.39v394.26q0 37.78-26.61 64.39t-64.39 26.61H282.63Zm154.26-128.61h86.22v-44.78h-86.22v44.78Zm0-82.39h86.22q0-18.52 9.02-33.66 9.02-15.14 19.3-29.9 11.29-17 19.93-35.91 8.64-18.9 8.64-39.42 0-40.28-29.24-68.07-29.24-27.78-70.76-27.78-41.52 0-70.76 27.78Q380-462.04 380-421.76q0 20.52 8.9 39.04t19.43 35.29q10.28 15.52 19.42 30.78 9.14 15.26 9.14 33.78ZM232.35-703.35q0-27.39 19.17-46.08 19.18-18.7 46.57-18.7h364.06q27.39 0 46.45 18.7 19.05 18.69 19.05 46.08h-495.3Zm40.48-120q0-27.39 19.05-46.08 19.05-18.7 46.45-18.7h283.34q27.4 0 46.45 18.7 19.05 18.69 19.05 46.08H272.83Z"/></svg>