<svg xmlns="http://www.w3.org/2000/svg" height="24" viewBox="0 -960 960 960" width="24"><path d="M94.98-151.87q-26.68 0-45.61-18.93-18.94-18.94-18.94-45.61v-355.94q0-26.91 18.94-45.85 18.93-18.93 45.61-18.93h199.76q26.91 0 45.85 18.93 18.93 18.94 18.93 45.85v355.94q0 26.67-18.93 45.61-18.94 18.93-45.85 18.93H94.98Zm572.19-507.65q-65.87 0-124.02 23.29-58.15 23.3-103.87 64.16v-.76q-.24-59.91-42.55-102.1-42.32-42.2-101.99-42.2H94.22q-5.72 0-11.18.62-5.45.62-11.17 1.86v-2.48q0-37.78 26.61-64.39t64.39-26.61H766.7q37.78 0 64.39 26.61t26.61 64.39v116.78q-43.44-28.58-90.93-43.88-47.49-15.29-99.6-15.29ZM481.74-131.46q-35.24-38.47-56.1-86.21-20.86-47.74-20.86-99.46 0-109.96 76.72-186.17 76.72-76.22 185.67-76.22 109.96 0 186.18 76.22 76.22 76.21 76.22 186.17 0 51.72-19.6 99.46-19.6 47.74-56.6 85.21l-45.87-45.87q28.04-29 42.66-64.52 14.62-35.52 14.62-74.28 0-82.8-57.4-140.21-57.4-57.4-140.21-57.4-81.8 0-139.7 57.4-57.9 57.41-57.9 140.21 0 38.76 15.38 74.66t42.9 64.9l-46.11 46.11Zm71.24-70.76q-22.24-23.71-35.22-53.07t-12.98-61.84q0-67.96 47.72-115.17 47.72-47.22 114.67-47.22 67.96 0 115.18 47.22 47.22 47.21 47.22 115.17 0 31.72-11.98 61.08-11.98 29.35-35.22 52.83l-46.35-45.35q13.76-14 21.26-31.52 7.5-17.52 7.5-37.04 0-41.04-28.28-69.33-28.28-28.28-69.33-28.28-40.8 0-69.2 28.28-28.4 28.29-28.4 69.33 0 19.52 8 37.16 8 17.64 21.52 31.64l-46.11 46.11Zm81.8 130.35v-204.06q-9-8.24-14.5-18.98t-5.5-22.22q0-22.2 15.6-37.29 15.6-15.1 36.79-15.1 21.96 0 37.18 15.1 15.22 15.09 15.22 37.29 0 11.48-4.62 22.6-4.62 11.12-15.38 18.6v204.06h-64.79Zm-439.8-373.5q13.95 0 23.17-9.6 9.22-9.59 9.22-22.79 0-13.96-9.22-23.17-9.22-9.22-23.17-9.22-13.2 0-22.8 9.22-9.59 9.21-9.59 23.17 0 13.2 9.59 22.79 9.6 9.6 22.8 9.6Z"/></svg>