<svg xmlns="http://www.w3.org/2000/svg" height="24" viewBox="0 -960 960 960" width="24"><path d="M419.28-572.3ZM273.3-238.09v-312.82H116.65v312.82H273.3ZM95.22-151.87q-26.68 0-45.73-19.05-19.06-19.06-19.06-45.73v-355.94q0-26.89 19.06-45.72 19.05-18.82 45.73-18.82h199.76q26.89 0 45.72 18.82 18.82 18.83 18.82 45.72v355.94q0 26.67-18.82 45.73-18.83 19.05-45.72 19.05H95.22Zm99.76-294.26q14.03 0 23.21-9.6 9.18-9.6 9.18-22.79 0-14.04-9.18-23.22-9.18-9.17-23.21-9.17-13.2 0-22.8 9.17-9.59 9.18-9.59 23.22 0 13.19 9.59 22.79 9.6 9.6 22.8 9.6Zm439.8 374.26v-204.18q-9-8.16-14.5-18.88-5.5-10.72-5.5-22.3 0-22.1 15.6-37.19 15.6-15.1 36.79-15.1 22.01 0 37.2 15.1 15.2 15.09 15.2 37.19 0 11.58-4.62 22.7t-15.38 18.6v204.06h-64.79Zm-81.8-130.35q-22.24-23.71-35.22-53.11t-12.98-61.84q0-67.92 47.7-115.13 47.69-47.22 114.66-47.22 67.99 0 115.21 47.19 47.22 47.2 47.22 115.2 0 31.72-11.98 61.08-11.98 29.35-35.22 52.83l-46.35-45.35q13.76-14 21.26-31.55 7.5-17.56 7.5-37.07 0-40.97-28.28-69.26-28.28-28.29-69.21-28.29-40.92 0-69.32 28.33-28.4 28.34-28.4 69.37 0 19.54 8 37.13 8 17.58 21.52 31.58l-46.11 46.11Zm-71.24 70.76q-35.24-38.47-56.1-86.21-20.86-47.74-20.86-99.46 0-110 76.69-186.2 76.69-76.19 185.67-76.19 109.99 0 186.21 76.19 76.22 76.2 76.22 186.2 0 51.72-19.6 99.46-19.6 47.74-56.6 85.21l-45.87-45.87q28.04-29 42.66-64.52 14.62-35.52 14.62-74.28 0-82.8-57.4-140.21-57.4-57.4-140.2-57.4-81.81 0-139.71 57.4-57.9 57.41-57.9 140.21 0 38.76 15.38 74.66t42.9 64.9l-46.11 46.11ZM71.87-717.13q0-37.78 26.61-64.39t64.39-26.61H766.7q37.78 0 64.39 26.61t26.61 64.39v116.54q-20.92-13.87-43.79-25.04-22.87-11.17-47.21-19.13v-72.37H71.87ZM194.98-394.5Z"/></svg>