<svg xmlns="http://www.w3.org/2000/svg" height="24" viewBox="0 -960 960 960" width="24"><path d="M202.39-282.87q-37.78 0-64.39-26.61t-26.61-64.39v-343.26q0-37.78 26.61-64.39t64.39-26.61h554.98q37.78 0 64.39 26.61t26.61 64.39h-224.3q-61.59 0-104.98 43.33T475.7-569v286.13H202.39Zm421.68 131q-28.39 0-48.38-19.99-19.99-19.99-19.99-48.38V-569q0-28.49 19.99-48.31 19.99-19.82 48.38-19.82H820q28.49 0 48.31 19.82 19.82 19.82 19.82 48.31v348.76q0 28.39-19.82 48.38-19.82 19.99-48.31 19.99H624.07Zm-552.2 0v-91H475.7v91H71.87Zm650.04-294.26q13.94 0 23.17-9.6 9.22-9.6 9.22-22.79 0-14.04-9.22-23.22-9.23-9.17-23.17-9.17-13.19 0-22.79 9.17-9.6 9.18-9.6 23.22 0 13.19 9.6 22.79t22.79 9.6Z"/></svg>