<svg xmlns="http://www.w3.org/2000/svg" height="24" viewBox="0 -960 960 960" width="24"><path d="M721.91-357.59ZM493.22-586.28ZM362.37-717.13l-91-91h486q37.78 0 64.39 26.61t26.61 64.39h-486Zm359.54 271q14.04 0 23.22-9.6 9.17-9.6 9.17-22.79 0-14.04-9.17-23.22-9.18-9.17-23.22-9.17-13.19 0-22.79 9.17-9.6 9.18-9.6 23.22 0 13.19 9.6 22.79t22.79 9.6Zm161.98 250.52-81.98-81.98v-273.32h-160v113.32l-85.74-85.74v-50.21q1.68-26.68 21.09-45.13 19.41-18.46 46.81-18.46H820q28.59 0 48.36 19.94t19.77 48.43V-220q0 6.59-1 12.63-1 6.04-3.24 11.76ZM826.46-16.76 691.35-151.87h-67.28q-28.35 0-48.36-20.01-20.01-20.01-20.01-48.36v-67.28L202.39-640.59v266.72h288.52v91H202.39q-37.78 0-64.39-26.61t-26.61-64.39v-343.26q0-3.44.24-6.75.24-3.32.72-6.75L16.28-826.7l58.63-58.63L884.85-75.15l-58.39 58.39ZM335.87-507.35Zm-264 355.48v-91h419.04v91H71.87Z"/></svg>