<svg xmlns="http://www.w3.org/2000/svg" height="24" viewBox="0 -960 960 960" width="24"><path d="M157.98-71.87h-46.11v-88.61h46.11q46.32 0 88.39-10.98 42.06-10.97 90.8-33.97 36.57 19.95 67.58 32.21 31.01 12.26 75.25 12.26 44.24 0 75.25-12.26 31.01-12.26 67.34-32.21 47.98 23 90.92 33.97 42.95 10.98 89.27 10.98h45.35v88.61h-45.35q-46.37 0-90.71-9-44.35-9-87.2-27-38.8 18.76-73.24 27-34.43 8.24-71.63 8.24-37.2 0-71.25-8.24t-72.86-27q-42.85 18-87.19 27-44.35 9-90.72 9ZM480-236.17q-56.17 0-100.34-34.03-44.16-34.02-50.38-40.23-28.91 28.19-66.36 46.11-37.44 17.93-81.42 23.3l-78.54-264.87q-5.24-18.67 3.83-34.47 9.08-15.79 27.75-21.51l54.7-15.04v-140.22q0-37.78 26.61-64.39t64.39-26.61h87.09v-80h225.34v80h87.09q37.78 0 64.39 26.61t26.61 64.39v140.22l54.7 15.04q18.67 5.72 27.75 21.51 9.07 15.8 3.83 34.47L778.5-241.02q-43.98-5.37-81.42-23.3-37.45-17.92-66.36-46.11-6.22 6.21-50.38 40.23-44.17 34.03-100.34 34.03ZM277.85-601.26 480-657.13l202.15 55.63v-118.02h-404.3v118.26Z"/></svg>