<svg xmlns="http://www.w3.org/2000/svg" height="24" viewBox="0 -960 960 960" width="24"><path d="M271.35-235.46v-233.82l12.39-44.26h391.24l12.39 44.26v233.82H271.35Zm91.76-194.26v110.44h234.02v-110.44H363.11ZM479.48-726.5q16.9 0 28.33-11.5t11.43-28.5q0-17-11.43-28.5t-28.33-11.5q-17.1 0-28.67 11.5t-11.57 28.5q0 17 11.57 28.5t28.67 11.5Zm159.8-13.89v-52.22l-35.3 6.81q1.24 4.95 1.36 9.65.12 4.69.12 9.65t-.24 9.65q-.24 4.7-1.48 9.65l35.54 6.81ZM271.35-469.28q0-65.78 36.91-117.98t95.54-74.91q-12.91-8.72-22.82-20.4-9.92-11.68-16.91-26.15L194.5-741.96v-49.08l169.57-33q16.19-31.92 46.6-51.87 30.42-19.96 68.61-19.96 24.39 0 46.35 9.12t38.91 23.84l160.96-31.48v255.78l-160.96-31.48q-2.71 2.48-4.81 4.08-2.1 1.6-4.82 3.84 58.63 22.47 95.55 74.63 36.91 52.15 36.91 118.26h-90.24q0-49.28-34.06-82.83-34.07-33.54-82.73-33.54-48.67 0-82.95 33.66t-34.28 82.71h-91.76Zm91 397.41q-37.78 0-64.39-26.61t-26.61-64.39v-72.59h91.76v72.59h234.02v-72.59h90.24v72.59q0 37.78-26.61 64.39t-64.39 26.61H362.35Z"/></svg>