<svg xmlns="http://www.w3.org/2000/svg" height="24" viewBox="0 -960 960 960" width="24"><path d="M202.87-111.87q-37.78 0-64.39-26.61t-26.61-64.39v-554.26q0-37.78 26.61-64.39t64.39-26.61h554.26q37.78 0 64.39 26.61t26.61 64.39v554.26q0 37.78-26.61 64.39t-64.39 26.61H202.87Zm0-91h554.26v-554.26H202.87v554.26Zm241.67-155.22h63.59v-243.82h-63.59v243.82Zm-162.15 0h80.48q17.71 0 29.69-11.84t11.98-29.35V-480h-63.58v58.09h-36.89v-116.18h100.47V-560q0-17.81-11.98-29.86t-29.69-12.05h-80.48q-17.81 0-29.86 12.05T240.48-560v160q0 17.81 12.05 29.86t29.86 12.05Zm280.96 0h63.58v-77.84h70.44v-63.59h-70.44v-38.57h107.81v-63.82H563.35v243.82ZM202.87-202.87v-554.26 554.26Z"/></svg>