<svg xmlns="http://www.w3.org/2000/svg" height="24" viewBox="0 -960 960 960" width="24"><path d="M827.41-7.67 21.07-813.78l58.63-58.63L885.8-66.06 827.41-7.67ZM480-713.54q17.72 0 29.82-12.1 12.09-12.1 12.09-29.82 0-17.71-12.09-29.81-12.1-12.1-29.82-12.1t-29.82 12.1q-12.09 12.1-12.09 29.81 0 17.72 12.09 29.82 12.1 12.1 29.82 12.1ZM283.59-32.59q-37.79 0-64.39-26.61-26.61-26.6-26.61-64.39v-635.69l574.82 574.82v60.87q0 37.07-26.49 64.04-26.49 26.96-64.03 26.96h-393.3Zm483.82-264.34L201.65-863.46q8.76-27.78 32.23-45.87 23.47-18.08 54.49-18.08h388.04q37.79 0 64.39 26.61 26.61 26.6 26.61 64.39v117.06q18.24 7.96 29.24 23.92 11 15.95 11 35.67v78.8q0 19.72-11 35.8-11 16.07-29.24 24.03v224.2Z"/></svg>