<svg xmlns="http://www.w3.org/2000/svg" height="24" viewBox="0 -960 960 960" width="24"><path d="M178-719.76h237.11H178Zm459.13 280.72H162.87h474.26ZM151.87-70.43v-44.31l60-40q-59.44-3.59-99.72-47.58-40.28-43.98-40.28-104.14v-376.41q0-91.63 87.28-129.4 87.28-37.77 297.59-37.77-14.67 20.15-24.89 42.9t-16.74 46.86q-104.39 2-160.25 11.76T178-719.76h229.54q-2.28 20-1.68 40 .6 20 4.07 40H162.87v120.72h299.61q18.91 24.71 42.3 45.21 23.39 20.5 51.55 34.79H162.87v132.58q0 26.5 18.55 45.04 18.54 18.55 45.04 18.55h345.89q26.99 0 45.89-18.89 18.89-18.9 18.89-45.89v-102.76q22.63 4.67 45.38 5.15 22.75.48 45.62-3v101.8q0 60.16-40.28 104.14-40.28 43.99-99.72 47.58l60 40v44.31H151.87Zm536.26-417.7q-83 0-141.5-58.5t-58.5-141.5q0-82.24 58.12-141.12 58.12-58.88 141.88-58.88 83 0 141.5 58.5t58.5 141.5q0 83-58.5 141.5t-141.5 58.5ZM665.74-651h44.78v-160h-44.78v160Zm22.39 85.98q9.2 0 15.79-6.48 6.6-6.48 6.6-15.67 0-9.2-6.6-15.92-6.59-6.71-15.79-6.71t-15.79 6.71q-6.6 6.72-6.6 15.92 0 9.19 6.6 15.67 6.59 6.48 15.79 6.48ZM400-281.2q25 0 42.5-17.5t17.5-42.5q0-25-17.5-42.5T400-401.2q-25 0-42.5 17.5T340-341.2q0 25 17.5 42.5t42.5 17.5Z"/></svg>