<svg xmlns="http://www.w3.org/2000/svg" height="24" viewBox="0 -960 960 960" width="24"><path d="M766.7-480v-368.13h91V-480h-91ZM269-60.87l-58.07-194.91q-48.71-38.96-78.67-97.51Q102.3-411.85 102.3-480q0-68.15 29.96-126.71 29.96-58.55 78.67-97.51L269-899.13h242.87l58.06 194.91q48.72 38.96 78.68 97.51 29.96 58.56 29.96 126.71 0 68.15-29.96 126.71-29.96 58.55-78.68 97.51L511.87-60.87H269Zm121.43-222q81.81 0 139.47-57.66Q587.56-398.2 587.56-480T529.9-619.47q-57.66-57.66-139.47-57.66-81.8 0-139.46 57.66Q193.3-561.8 193.3-480t57.67 139.47q57.66 57.66 139.46 57.66ZM334.5-811.96h111.87H334.5Zm0 663.92H446.37 334.5Zm-17.2-610.81q18.57-4.76 36.59-7.4 18.02-2.64 36.54-2.64 18.53 0 36.55 2.64 18.02 2.64 36.58 7.4l-17.19-53.11H334.5l-17.2 53.11Zm17.2 610.81h111.87l17.19-53.11q-18.56 4.52-36.58 6.9-18.02 2.38-36.55 2.38-18.52 0-36.54-2.38t-36.59-6.9l17.2 53.11Z"/></svg>