<svg xmlns="http://www.w3.org/2000/svg" height="20" viewBox="0 -960 960 960" width="20"><path d="M216-261.31q56-46 124-68.5t140-22.5q72 0 140 22t124 69V-744H216v482.69Zm264.24-145.15q55.91 0 94.84-39.17Q614-484.79 614-540.7t-39.17-94.84q-39.16-38.92-95.07-38.92t-94.84 39.17Q346-596.13 346-540.22t39.17 94.84q39.16 38.92 95.07 38.92ZM164-164v-632h632v632H164Zm316-294.46q-33.85 0-57.92-24.08Q398-506.61 398-540.46t24.08-57.92q24.07-24.08 57.92-24.08t57.92 24.08Q562-574.31 562-540.46t-24.08 57.92q-24.07 24.08-57.92 24.08Zm0-89.69ZM243.08-216h473.84Q664-258.69 604.39-279.5 544.77-300.31 480-300.31q-64 0-123.12 20.81-59.11 20.81-113.8 63.5Z"/></svg>