<svg xmlns="http://www.w3.org/2000/svg" height="20" viewBox="0 -960 960 960" width="20"><path d="M164-164v-632h244.54q5.31-25.23 24.46-42.46 19.15-17.23 47-17.23 27.08 0 46.42 17.23 19.35 17.23 24.66 42.46H796v281.85h-52V-744h-92v104.61H308V-744h-92v528h226v52H164Zm315.86-575.38q13.6 0 22.95-9.21 9.34-9.2 9.34-22.8 0-13.61-9.2-22.96-9.2-9.34-22.81-9.34-13.6 0-22.95 9.2-9.34 9.2-9.34 22.81 0 13.6 9.2 22.95t22.81 9.35ZM806.85-116l-98.24-97.85q-19.07 11.23-39.84 18.54-20.78 7.31-43.28 7.31-60.75 0-103.58-43.07-42.83-43.08-42.83-103.39 0-60.77 42.84-103.62 42.85-42.84 103.62-42.84t103.61 42.83Q772-395.26 772-334.51q0 22.34-6.92 43.39-6.93 21.04-19.31 39.73L844-153.15 806.85-116ZM625.23-240q39.54 0 67.15-27.3Q720-294.61 720-334.15q0-39.54-27.3-67.16-27.31-27.61-66.85-27.61-39.54 0-67.16 27.3-27.61 27.3-27.61 66.85 0 39.54 27.3 67.15Q585.68-240 625.23-240Z"/></svg>