<svg xmlns="http://www.w3.org/2000/svg" height="20" viewBox="0 -960 960 960" width="20"><path d="M116-212v-536h731.84v59.69H516.23V-600v-7.69H328.39l-34 100.84q-27 26-42.31 61.38-15.31 35.37-15.31 75.49 0 40.13 15.31 75.48t42.31 61.35l7.69 21.15H116Zm270.16 0-22.85-67.77q-21.23-15.46-34.04-38.97-12.81-23.52-12.81-51.12 0-27.6 12.81-51.26 12.81-23.65 34.04-39.11L386.16-528h80.61l22.85 67.77q21.23 15.46 34.03 38.97 12.81 23.52 12.81 51.12 0 27.6-12.81 51.25-12.8 23.66-34.03 39.12L466.77-212h-80.61Zm40.3-107.69q21 0 35.66-14.68 14.65-14.67 14.65-35.63t-14.69-35.64q-14.69-14.67-35.62-14.67-20.92 0-35.61 14.66Q376.16-391 376.16-370t14.65 35.65q14.65 14.66 35.65 14.66ZM719.65-480q9.58 0 16.2-6.63 6.61-6.64 6.61-15.48 0-9.58-6.49-16.2-6.49-6.61-16.42-6.61-9.17 0-15.59 6.49t-6.42 16.42q0 9.16 6.63 15.59 6.64 6.42 15.48 6.42ZM592.16-212v-396.61h255.68V-212H592.16Z"/></svg>