<svg xmlns="http://www.w3.org/2000/svg" height="20" viewBox="0 -960 960 960" width="20"><path d="M720-335.46ZM496.08-559.38ZM359.46-696l-52-52h485.46v52H359.46Zm360.19 216q9.58 0 16.2-6.63 6.61-6.64 6.61-15.48 0-9.58-6.49-16.2-6.49-6.61-16.42-6.61-9.17 0-15.59 6.49t-6.42 16.42q0 9.16 6.63 15.59 6.64 6.42 15.48 6.42ZM592.16-608.61h255.68v400.99l-51.99-51.99v-297.01h-151.7v145.31l-51.99-52v-145.3Zm199.3 520.3L667.77-212h-75.61v-75.62L216-664.16v292.51h288.77v51.96H164v-396.46l-82.61-82.62 37.15-36.15 709.07 709.46-36.15 37.15ZM116-212v-52h388.77v52H116Zm246.54-306.23Z"/></svg>