<svg xmlns="http://www.w3.org/2000/svg" height="20" viewBox="0 -960 960 960" width="20"><path d="M288-120v-720 720Zm192.59-593.85q13.26 0 22.41-8.97t9.15-22.23q0-13.26-8.97-22.41t-22.23-9.15q-13.26 0-22.41 8.97t-9.15 22.23q0 13.26 8.97 22.41t22.23 9.15ZM580.38-68H236v-824h489.54v351.54h-52V-840H288v720h259.82q5.26 6.54 11.68 12.96 6.42 6.42 14.35 11.35L580.38-68Zm81.31 0-16-76.16q-33.53-17.92-53.61-50.07Q572-226.39 572-264.38q0-38 20.08-70.16 20.08-32.15 53.61-50.07l16-76.16h104.62l14 81.16q29.53 18.92 46.61 49.42Q844-299.68 844-264.53q0 35.14-17.08 65.3-17.08 30.15-46.61 49.07l-14 82.16H661.69Zm46.11-112.38q35.2 0 59.7-24.31 24.5-24.3 24.5-59.5 0-35.19-24.3-59.69-24.31-24.5-59.5-24.5-35.2 0-59.7 24.3t-24.5 59.5q0 35.2 24.3 59.7 24.31 24.5 59.5 24.5Z"/></svg>