<svg xmlns="http://www.w3.org/2000/svg" height="20" viewBox="0 -960 960 960" width="20"><path d="M225.23-116H156v-52h69.23q35.92 0 64-18.27T343-223.54q32.08 21.54 64.54 38.16 32.46 16.61 71.69 16.61t71.69-16.61q32.47-16.62 64.54-38.16 26.08 19 53.77 37.27Q696.92-168 732.85-168H804v52h-71.15q-30.16 0-53.89-8.5t-64.65-33.89q-42.08 24.62-71.19 33.7-29.12 9.07-63.89 9.07-34.77 0-64.08-9.07-29.3-9.08-71.38-33.7Q303.85-134 279.12-125q-24.73 9-53.89 9Zm52.38-447.15 201.62-57.92 201.62 57.92V-720H277.61v156.85Zm202.01 314.69q-18.16 0-37.85-2.19-19.69-2.2-58.15-41.97l-36-34-31 31q-23.47 25.39-45.5 36.08-22.04 10.69-46.97 13h-26l-57.38-276.61 85.62-25.62V-772h171.07v-72h164.31v72h171.08v223.23l85.61 25.62-57.38 276.61h-26q-24.93-2.31-46.96-13-22.04-10.69-45.5-36.08l-31-31-36 34q-38.47 39.77-58.16 41.97-19.69 2.19-37.84 2.19Z"/></svg>