<svg xmlns="http://www.w3.org/2000/svg" height="20" viewBox="0 -960 960 960" width="20"><path d="M308.39-255.39v-231l9.59-36.99h324.4l10 36.99v231H308.39Zm51.99-216v164.01h240v-164.01h-240Zm119-201.61q25.79 0 43.05-17.26 17.26-17.26 17.26-43.05 0-25.78-17.26-43.04-17.26-17.27-43.05-17.27-25.78 0-43.04 17.27-17.26 17.26-17.26 43.04 0 25.79 17.26 43.05Q453.6-673 479.38-673Zm167.08-14v-88.62l-59.85 11.93q2.54 7.31 3.81 14.9 1.27 7.59 1.27 15.88 0 8.3-.77 16.4-.77 8.1-4.31 16.59L646.46-687ZM308.39-486.39q0-52.61 29.07-95.07 29.08-42.46 77-62.39-12.51-8-22.41-20.03-9.9-12.04-15.28-25.35l-131.54-26.38V-747l129.54-26.38q12.46-31.62 40.79-51.73 28.33-20.12 64.03-20.12 23.41 0 43.64 9t36.46 25.39l138.77-28.54v216.15l-141.77-29.54q-2.21 2.64-5.11 4.54-2.91 1.9-6.27 3.38 47.92 19.93 77.5 62.32 29.57 42.4 29.57 96.14h-52q0-49.23-35.09-84.3-35.1-35.08-86.29-35.08-49.97 0-84.29 35.08-34.33 35.07-34.33 84.3h-51.99Zm0 370.39v-139.39h51.99V-168h240v-87.39h52V-116H308.39Z"/></svg>