<svg xmlns="http://www.w3.org/2000/svg" height="20" viewBox="0 -960 960 960" width="20"><path d="M308.39-307.38v-164.01h343.99v164.01H308.39ZM479.77-673q25.78 0 43.05-17.26 17.26-17.26 17.26-43.05 0-25.78-17.26-43.04-17.27-17.27-43.05-17.27-25.79 0-43.05 17.27-17.26 17.26-17.26 43.04 0 25.79 17.26 43.05Q453.98-673 479.77-673ZM312.62-523.38q8.3-40.08 35.46-72.43 27.15-32.34 66.38-48.42-12.69-7.62-22.31-19.15-9.61-11.54-15-24.85l-131.92-27.38V-747l129.92-26.77q12.47-31.23 40.12-51.04 27.65-19.8 64.5-19.8 23.6 0 43.84 9.19 20.24 9.19 36.47 24.58l138.38-28.54v216.15l-142.38-28.92q-2.33 2.3-5.32 4.04-2.99 1.73-6.07 3.88 39.23 14.69 66.19 47.23t35.66 73.62H312.62ZM308.39-116v-139.39h343.99V-116H308.39Z"/></svg>