<svg xmlns="http://www.w3.org/2000/svg" height="20" viewBox="0 -960 960 960" width="20"><path d="m384-98-26-26v-208H172.46v-52L260-471.54V-744h-48v-52h230.46q-34.46 34.92-52.31 78.23-17.84 43.31-17.84 93.77 0 100.54 65 166.54 65 66 158.23 75.54V-332H410v208l-26 26Zm239.77-354q-71.69 0-121.73-50.2Q452-552.4 452-624q0-72.85 50.04-123.92Q552.08-799 624-796q71.92 3 121.96 52.04Q796-694.92 796-623.52t-50.27 121.46Q695.47-452 623.77-452Zm.23-172q25 0 42.5-17.5T684-684q0-25-17.5-42.5T624-744q-25 0-42.5 17.5T564-684q0 25 17.5 42.5T624-624Zm0 120q31.62 0 58.81-15.81T726-562q-23.38-13.38-49.11-19.69-25.72-6.31-53.11-6.31-27.4 0-52.9 6.81T522-562q16 26.38 43.19 42.19Q592.38-504 624-504Z"/></svg>