<svg xmlns="http://www.w3.org/2000/svg" height="20" viewBox="0 -960 960 960" width="20"><path d="M92-212v-536h776v536H92Zm52-52h672v-432H144v432Zm205.08-58.39h261.84v-62.76H349.08v62.76Zm-110.31-115h62.77v-62.76h-62.77v62.76Zm139.77 0h62.77v-62.76h-62.77v62.76Zm140.15 0h62.77v-62.76h-62.77v62.76Zm139.77 0h62.77v-62.76h-62.77v62.76ZM238.77-552.38h62.77v-62.77h-62.77v62.77Zm139.77 0h62.77v-62.77h-62.77v62.77Zm140.15 0h62.77v-62.77h-62.77v62.77Zm137.85 1.92h62.77v-62.77h-62.77v62.77ZM144-264v-432 432Z"/></svg>