<svg xmlns="http://www.w3.org/2000/svg" height="20" viewBox="0 -960 960 960" width="20"><path d="M68-209.69V-844h360.15v250.61h-86q-47.24 0-80.31 33.09-33.07 33.08-33.07 80.35 0 47.26 33.18 80.49t80.59 33.23h85.61v156.54H68ZM248.12-684q12.62 0 20.83-8.25 8.2-8.25 8.2-20.87 0-12.62-8.25-20.83-8.25-8.2-20.87-8.2-12.62 0-20.82 8.25-8.21 8.25-8.21 20.87 0 12.62 8.25 20.82 8.25 8.21 20.87 8.21Zm91.18 234.61q-12.91 0-21.88-8.73-8.96-8.74-8.96-21.66 0-12.91 8.74-21.87t21.65-8.96q12.92 0 21.88 8.73 8.96 8.74 8.96 21.66 0 12.91-8.74 21.87-8.73 8.96-21.65 8.96Zm140.92 0q-12.91 0-21.87-8.73-8.96-8.74-8.96-21.66 0-12.91 8.73-21.87 8.74-8.96 21.66-8.96 12.91 0 21.87 8.73 8.96 8.74 8.96 21.66 0 12.91-8.73 21.87-8.74 8.96-21.66 8.96ZM531.85-116v-250.23h85.61q47.24 0 80.32-33.08 33.07-33.09 33.07-80.35 0-47.26-33.07-80.49-33.08-33.24-80.32-33.24h-85.61v-156.92H892V-116H531.85Zm88.91-333.39q-12.91 0-21.88-8.73-8.96-8.74-8.96-21.66 0-12.91 8.74-21.87t21.65-8.96q12.92 0 21.88 8.73 8.96 8.74 8.96 21.66 0 12.91-8.73 21.87-8.74 8.96-21.66 8.96Zm91.21-140.92q12.62 0 20.82-8.25 8.21-8.25 8.21-20.87 0-12.62-8.25-20.82-8.25-8.21-20.87-8.21-12.62 0-20.83 8.25-8.2 8.25-8.2 20.87 0 12.62 8.25 20.83 8.25 8.2 20.87 8.2Z"/></svg>