<svg xmlns="http://www.w3.org/2000/svg" height="20" viewBox="0 -960 960 960" width="20"><path d="M531.85-116v-250.23h51.99V-168H840v-530.31H583.84v104.92h-51.99v-156.92H892V-116H531.85ZM68-209.69V-844h360.15v250.61h-51.99V-792H120v530.31h256.16v-104.54h51.99v156.54H68Zm643.97-380.62q12.62 0 20.82-8.25 8.21-8.25 8.21-20.87 0-12.62-8.25-20.82-8.25-8.21-20.87-8.21-12.62 0-20.83 8.25-8.2 8.25-8.2 20.87 0 12.62 8.25 20.83 8.25 8.2 20.87 8.2ZM248.12-684q12.62 0 20.83-8.25 8.2-8.25 8.2-20.87 0-12.62-8.25-20.83-8.25-8.2-20.87-8.2-12.62 0-20.82 8.25-8.21 8.25-8.21 20.87 0 12.62 8.25 20.82 8.25 8.21 20.87 8.21ZM120-261.69V-792-261.69ZM840-168v-530.31V-168ZM339.3-449.39q-12.91 0-21.88-8.73-8.96-8.74-8.96-21.66 0-12.91 8.74-21.87t21.65-8.96q12.92 0 21.88 8.73 8.96 8.74 8.96 21.66 0 12.91-8.74 21.87-8.73 8.96-21.65 8.96Zm140.92 0q-12.91 0-21.87-8.73-8.96-8.74-8.96-21.66 0-12.91 8.73-21.87 8.74-8.96 21.66-8.96 12.91 0 21.87 8.73 8.96 8.74 8.96 21.66 0 12.91-8.73 21.87-8.74 8.96-21.66 8.96Zm140.54 0q-12.91 0-21.88-8.73-8.96-8.74-8.96-21.66 0-12.91 8.74-21.87t21.65-8.96q12.92 0 21.88 8.73 8.96 8.74 8.96 21.66 0 12.91-8.73 21.87-8.74 8.96-21.66 8.96Z"/></svg>