<svg xmlns="http://www.w3.org/2000/svg" height="20" viewBox="0 -960 960 960" width="20"><path d="M640.31-168q23.67 0 39.68-16.01Q696-200.02 696-223.69q0-23.67-16.01-39.68-16.01-16.02-39.68-16.02-23.67 0-39.68 16.02-16.02 16.01-16.02 39.68 0 23.67 16.02 39.68Q616.64-168 640.31-168Zm0-512.61q23.67 0 39.68-16.02Q696-712.64 696-736.31q0-23.67-16.01-39.68Q663.98-792 640.31-792q-23.67 0-39.68 16.01-16.02 16.01-16.02 39.68 0 23.67 16.02 39.68 16.01 16.02 39.68 16.02ZM117-463.15q-1-5-1-8.43V-480q0-44.61 31.3-76.15 31.3-31.54 76.01-31.54 21.65 0 40.59 8 18.95 8 33.41 22l240.46-148.08q-2.38-7.38-3.77-14.77-1.38-7.39-1.38-15.77 0-44.87 31.43-76.28Q595.49-844 640.4-844t76.25 31.44Q748-781.13 748-736.22q0 44.91-31.41 76.26-31.41 31.34-76.28 31.34-21.85 0-40.5-8.19Q581.15-645 566.69-659L299-493.85q-12.69-3.42-25.52-4.48-12.82-1.05-25.98-1.05-35.96 0-68.88 9.46-32.93 9.46-61.62 26.77ZM640.22-116q-44.91 0-76.26-31.41-31.34-31.41-31.34-76.28 0-9 5.15-30.16l-40.16-24.54q-2-22.61-8.68-43.44-6.68-20.84-17.31-38.78L566.69-301q14.46-14 33.16-22.19 18.7-8.19 40.46-8.19 44.87 0 76.28 31.43Q748-268.51 748-223.6t-31.44 76.25Q685.13-116 640.22-116ZM247.47-75.69q-71.7 0-121.74-50.27-50.04-50.26-50.04-121.96 0-71.7 50.27-121.73 50.26-50.04 121.96-50.04 71.7 0 121.73 50.26 50.04 50.27 50.04 121.96 0 71.7-50.26 121.74-50.27 50.04-121.96 50.04Zm-.78-147.08 56 55.62 25.54-25.93-55.61-55.61 55.61-55.62-25.92-25.92-55.62 55.61-55.61-55.61-25.93 25.92 55.62 55.62-55.62 55.61 25.93 25.93 55.61-55.62Zm393.62-.92Zm0-512.62Z"/></svg>