<svg xmlns="http://www.w3.org/2000/svg" height="20" viewBox="0 -960 960 960" width="20"><path d="M164-164v-632h632v384q-12.36-6.19-25.37-11.25-13.02-5.06-26.63-8.13v-173.24H506v181.78q-21.92 7.92-41.65 17.3-19.73 9.39-37.89 21.62H216V-216h81.92q5.7 14.61 13.58 26.92 7.89 12.31 15.81 25.08H164Zm52-271.92h238v-168.7H216v168.7Zm0-220.69h528V-744H216v87.39ZM480-480Zm0 0Zm0 0Zm0 0ZM638.68-72.62q-80.14 0-148.64-38.3-68.5-38.31-104.65-108.93 36.15-70.61 104.66-108.92 68.51-38.31 148.65-38.31 80.15 0 148.65 38.31Q855.84-290.46 892-219.85q-36.16 70.62-104.66 108.93-68.51 38.3-148.66 38.3Zm-.04-52q57.73 0 108.93-24.38 51.2-24.39 83.97-70.85-32.77-46.46-83.92-70.84-51.14-24.39-108.87-24.39-57.73 0-108.93 24.39-51.2 24.38-83.97 70.84 32.77 46.46 83.91 70.85 51.15 24.38 108.88 24.38Zm.1-45.23q-20.82 0-35.43-14.57-14.62-14.57-14.62-35.38 0-20.82 14.57-35.43 14.57-14.62 35.39-14.62 20.81 0 35.43 14.57 14.61 14.57 14.61 35.39 0 20.81-14.57 35.43-14.57 14.61-35.38 14.61Z"/></svg>