<svg xmlns="http://www.w3.org/2000/svg" height="20" viewBox="0 -960 960 960" width="20"><path d="M306.08-71.08 343-160.16h-69.84l44.15-133.23h92.61l-36.53 88.31h69.46l-99.54 134h-37.23ZM561.31-116l27.07-66.62h-59.23l32.54-110.77h92.62l-25.93 65.85h58.46L586.54-116h-25.23ZM295-346q-81.15 0-135.08-58.42Q106-462.85 106-545q0-74.31 51.15-127.11 51.16-52.81 127-61.66 28.85-55.61 81.43-87.92Q418.15-854 480-854q83.08 0 143.77 54.31 60.69 54.31 72.77 136.92 69.31 1.23 113.38 49.12Q854-565.77 854-504q0 65.77-46.12 111.88Q761.77-346 696-346H295Z"/></svg>