<svg xmlns="http://www.w3.org/2000/svg" height="20" viewBox="0 -960 960 960" width="20"><path d="M349.62-792h68.76-68.76Zm0 624h68.76-68.76Zm318.69-140v-52h64.3v52h-64.3Zm0-134v-52h112.3v52h-112.3Zm0-134v-52h160.3v52h-160.3ZM307.23-116l-43.38-179.69q-45.16-28.77-72.5-76.73Q164-420.38 164-480t27.85-107.58q27.84-47.96 74-76.73L307.23-844h153.54l41.38 179.69q46.16 28.77 74 76.73Q604-539.62 604-480t-27.35 107.58q-27.34 47.96-72.5 76.73L460.77-116H307.23Zm76.97-196q69.8 0 118.8-49.2t49-119q0-69.8-49.2-118.8t-119-49Q314-648 265-598.8t-49 119q0 69.8 49.2 118.8t119 49Zm-59.97-378.46q14.39-4.77 29.38-6.96 14.99-2.19 30.19-2.19 15.2 0 29.89 2.19 14.69 2.19 29.08 6.96L418.38-792h-68.76l-25.39 101.54ZM349.62-168h68.76l26.39-101.54q-14.39 4.77-29.77 6.96-15.39 2.19-31 2.19-16 0-30.69-2.19-14.69-2.19-29.08-6.96L349.62-168Z"/></svg>