<svg xmlns="http://www.w3.org/2000/svg" height="24" viewBox="0 -960 960 960" width="24"><path d="M400-560ZM80-160v-640h800v80H160v480h80v80H80Zm720-80v-320H640v320h160Zm-240 80v-480h320v480H560Zm160-300q13 0 21.5-9t8.5-21q0-13-8.5-21.5T720-520q-12 0-21 8.5t-9 21.5q0 12 9 21t21 9ZM340-160l-20-70q-19-17-29.5-40T280-320q0-27 10.5-50t29.5-40l20-70h120l20 70q19 17 29.5 40t10.5 50q0 27-10.5 50T480-230l-20 70H340Zm60-100q26 0 43-17.5t17-42.5q0-25-18-42.5T400-380q-24 0-42 17t-18 43q0 26 17 43t43 17Zm320-140Z"/></svg>