<svg xmlns="http://www.w3.org/2000/svg" height="24" viewBox="0 -960 960 960" width="24"><path d="M280-120v-720 720Zm200-600q17 0 28.5-11.5T520-760q0-17-11.5-28.5T480-800q-17 0-28.5 11.5T440-760q0 17 11.5 28.5T480-720Zm58 680H200v-880h560v320h-80v-240H280v720h215q7 9 15 17l16 16 12 47Zm82 0-23-92q-36-26-56.5-64.5T520-280q0-45 20.5-83.5T597-428l23-92h160l23 92q36 26 56.5 64.5T880-280q0 45-20.5 83.5T803-132l-23 92H620Zm80-140q42 0 71-29t29-71q0-42-29-71t-71-29q-42 0-71 29t-29 71q0 42 29 71t71 29Z"/></svg>