<svg xmlns="http://www.w3.org/2000/svg" height="24" viewBox="0 -960 960 960" width="24"><path d="M152-80h-32v-80h32q48 0 91.5-10.5T341-204q38 19 66.5 31.5T480-160q44 0 72.5-12.5T619-204q53 23 97.5 33.5T809-160h31v80h-31q-49 0-95.5-9T622-116q-40 19-73 27t-69 8q-36 0-68.5-8T339-116q-45 18-91.5 27T152-80Zm328-160q-60 0-105-40l-45-40q-27 27-60.5 46T198-247l-98-313 100-26v-214h180v-80h200v80h180v214l100 26-98 313q-38-8-71.5-27T630-320l-45 40q-45 40-105 40Zm2-80q31 0 55-20.5t44-43.5l46-53 41 42q11 11 22.5 20.5T713-355l46-149-279-73-278 73 46 149q11-10 22.5-19.5T293-395l41-42 46 53q20 24 45 44t57 20ZM280-607l200-53 200 53v-113H280v113Zm201 158Z"/></svg>