<svg xmlns="http://www.w3.org/2000/svg" height="24" viewBox="0 -960 960 960" width="24"><path d="M339-960q100 0 170 70t70 170q0 33-8.5 63.5T546-599l-52-30q12-20 18.5-43t6.5-48q0-75-52.5-127.5T339-900q-75 0-127.5 52.5T159-720q0 25 6 48t18 43l-52 29q-16-26-24-56.5T99-720q0-100 70-170t170-70Zm0 100q58 0 99 41t41 99q0 20-5 37.5T459-649l-52-30q5-9 8-19.5t3-21.5q0-33-23.5-56.5T338-800q-34 0-57 23.5T258-720q0 11 3 21.5t8 19.5l-52 30q-9-16-13.5-33.5T199-720q0-58 40.5-99t99.5-41ZM800-80H361L107-403l64-67 129 78v-328h81v200h419v440Z"/></svg>