<svg xmlns="http://www.w3.org/2000/svg" height="24" viewBox="0 -960 960 960" width="24"><path d="M71.87-151.87 315.46-480 71.87-808.13h572.91L888.13-480l-11.22 15.85q-35.71-24.68-76.04-37.63-40.32-12.96-83.74-12.96-114.09 0-195.37 79.37t-84.15 192.74q-.96 23.63 2.16 46.38 3.12 22.75 10.32 44.38H71.87ZM717.13-34.74q-83 0-141.5-58.5t-58.5-141.5q0-83 58.5-141.5t141.5-58.5q83 0 141.5 58.5t58.5 141.5q0 83-58.5 141.5t-141.5 58.5Zm-29-106.65 142.35-141.35-45.35-45.35-97 95-39-39-45.35 46.35 84.35 84.35Z"/></svg>