<svg xmlns="http://www.w3.org/2000/svg" height="24" viewBox="0 -960 960 960" width="24"><path d="M282.87-122.63v-714.74 714.74ZM480-713.54q17.81 0 29.86-12.05t12.05-29.87q0-17.81-12.05-29.86T480-797.37q-17.81 0-29.86 12.05t-12.05 29.86q0 17.82 12.05 29.87T480-713.54Zm67.33 681.67H192.11v-896.26h575.78v325.26h-90.76v-234.5H282.87v714.74h215.72q7.94 11.32 17.02 21.39 9.09 10.07 19 19.74l12.72 49.63Zm82 0-23.38-94.42q-36.58-26.69-57.2-66.03-20.62-39.33-20.62-85.05t20.62-85.05q20.62-39.34 57.2-66.03l23.38-94.42h168.61l23.37 94.42q36.58 26.69 57.2 66.03 20.62 39.33 20.62 85.05t-20.62 85.05q-20.62 39.34-57.2 66.03l-23.37 94.42H629.33Zm84.3-148.61q40.57 0 68.73-28.16 28.16-28.16 28.16-68.73 0-40.56-28.16-68.73-28.16-28.16-68.73-28.16-40.56 0-68.73 28.16-28.16 28.17-28.16 68.73 0 40.57 28.16 68.73 28.17 28.16 68.73 28.16Z"/></svg>