<svg xmlns="http://www.w3.org/2000/svg" height="24" viewBox="0 -960 960 960" width="24"><path d="M826.46-16.76 691.35-151.87H555.7v-135.65l-80-80v84.65H111.39v-448.72L16.28-826.7l58.63-58.63L884.85-75.15l-58.39 58.39Zm-345.22-581.5L271.37-808.13h577v91H481.24v118.87Zm74.93-38.87h331.96v445.76L556.17-523.61v-113.52Zm165.74 191q13.96 0 23.18-9.6 9.21-9.6 9.21-22.79 0-13.96-9.21-23.18-9.22-9.21-23.18-9.21-13.19 0-22.79 9.21-9.6 9.22-9.6 23.18 0 13.19 9.6 22.79t22.79 9.6ZM71.87-151.87v-91H475.7v91H71.87Z"/></svg>