<svg xmlns="http://www.w3.org/2000/svg" height="24" viewBox="0 -960 960 960" width="24"><path d="M271.35-309.72v-120h416.02v120H271.35ZM478.48-726.5q17 0 28.5-11.5t11.5-28.5q0-16.76-11.5-28.38-11.5-11.62-28.5-11.62t-28.5 11.5q-11.5 11.5-11.5 28.5t11.5 28.5q11.5 11.5 28.5 11.5ZM274.59-509.72q11-52.39 45.29-92.68 34.29-40.3 83.69-59.01-12.68-9.48-22.99-21.06-10.32-11.57-17.51-26.25l-168.57-33v-49.08l168.57-32.24q16.19-32.68 46.98-52.37 30.8-19.7 68.43-19.7 24.95 0 46.65 8.74t38.65 23.46l161.72-31.48v256.02l-161.72-30.72q-2.71 2.48-4.93 3.96-2.22 1.48-4.94 3.72 49.39 18.48 83.69 58.89 34.29 40.41 45.53 93.04l-408.54-.24Zm-3.24 437.85v-157.85h416.02v157.85H271.35Z"/></svg>