<svg xmlns="http://www.w3.org/2000/svg" height="24" viewBox="0 -960 960 960" width="24"><path d="M274.5-73.3q63.91 0 104.85-32.44 40.93-32.43 61.93-91.96 17.26-50.79 32.99-71.11t71.25-63.84q61.05-49.05 97.76-113.24Q680-510.09 680-598.8q0-121.16-82.17-203.33-82.18-82.17-203.33-82.17t-203.33 83.66Q109-716.98 109-593.3h91q0-85 55.91-142.5t138.55-57.5q82.65 0 138.59 55.91Q589-681.47 589-598.8q0 67.04-26.76 113.6-26.76 46.57-76.76 84.57-51.28 37.52-80.16 73.28-28.89 35.76-42.89 78-14 44.24-32.36 64.64-18.36 20.41-55.09 20.41-31.33 0-53.15-22.91Q200-210.11 200-244.3h-91q0 73.41 48.62 122.2 48.61 48.8 116.88 48.8Zm446.59-204.5q60.67-63.35 95.29-145.6Q851-505.65 851-598.8q0-93.2-34.62-175.95-34.62-82.75-95.29-146.1l-65.18 63.65q50.24 51.92 77.17 118.13Q760-672.85 760-598.8q0 72.8-27.16 138.88-27.17 66.07-77.41 117.99l65.66 64.13Zm-326.59-221q42 0 71-29.5t29-70.5q0-42-29-71t-71-29q-42 0-71 29t-29 71q0 41 29 70.5t71 29.5Z"/></svg>