<svg xmlns="http://www.w3.org/2000/svg" height="20" viewBox="0 -960 960 960" width="20"><path d="M480-480ZM222.78-124.78q-41 0-69.5-28.5t-28.5-69.5v-514.44q0-41 28.5-69.5t69.5-28.5H477.3q20.39 0 34.7 14.25 14.3 14.24 14.3 34.54 0 20.3-14.3 34.76-14.31 14.45-34.7 14.45H222.78v514.44h514.44V-477.3q0-20.39 14.24-34.7 14.25-14.3 34.55-14.3 20.29 0 34.75 14.3 14.46 14.31 14.46 34.7v254.52q0 41-28.5 69.5t-69.5 28.5H222.78ZM264-288h432L552-480 444-336l-72-96-108 144Zm412.76-388.52h-38.38q-17.03 0-28.55-11.65-11.53-11.65-11.53-28.87 0-16.99 11.69-28.47Q621.67-757 638.94-757h37.82v-38.26q0-16.98 11.68-28.47 11.68-11.49 28.81-11.49 16.9 0 28.32 11.49Q757-812.24 757-795.26V-757h38.05q16.89 0 28.53 11.43t11.64 28.33q0 16.89-11.49 28.69-11.49 11.79-28.47 11.79H757v38.38q0 17.03-11.49 28.55-11.49 11.53-28.48 11.53-16.68 0-28.48-11.65-11.79-11.65-11.79-28.88v-37.69Z"/></svg>