<svg xmlns="http://www.w3.org/2000/svg" height="20" viewBox="0 -960 960 960" width="20"><path d="M480.21-474.35q32.62 0 55.03-22.62 22.41-22.63 22.41-55.24 0-32.62-22.62-55.03-22.63-22.41-55.24-22.41-32.62 0-55.03 22.62-22.41 22.63-22.41 55.24 0 32.62 22.62 55.03 22.63 22.41 55.24 22.41Zm-.34 371.18q-15.13 0-28.66-5.07-13.53-5.06-26.12-15.19-43.39-36.7-92.16-84.27-48.76-47.56-90.17-102.69-41.41-55.13-67.7-116.17-26.28-61.05-26.28-124.7 0-141.76 94.8-236.86 94.79-95.1 236.42-95.1 37.13 0 53.72 16.09 16.58 16.09 16.58 53.91v27.7q0 30.73 27.34 56.89 27.33 26.15 65.71 26.15h26.95v27.52q0 18.69 7.74 35.63t20.09 29.03q10.49 10.76 22.09 17.23 11.61 6.46 26.74 9.03 34.21 6.69 48.76 25.02 14.54 18.33 14.54 43.2 0 24.47-10.17 53.19-10.18 28.72-24.07 55.72t-29.34 50.54q-15.46 23.54-24.46 36.67-39.17 55-88.13 104.72-48.96 49.72-99.18 91.55-12.67 10.13-26.29 15.19-13.63 5.07-28.75 5.07ZM718.3-750.48h-74.95q-18.69 0-31.87-13.11-13.18-13.12-13.18-31.72t12.79-31.65Q623.88-840 642.78-840h75.52v-75.52q0-18.9 13.12-31.69Q744.54-960 763.14-960t31.64 12.79q13.05 12.79 13.05 31.69V-840h75.52q18.9 0 31.69 12.73 12.79 12.72 12.79 31.54 0 18.6-12.79 31.93-12.79 13.32-31.69 13.32h-75.52v74.96q0 18.69-12.73 31.87-12.73 13.17-31.54 13.17-18.6 0-31.93-12.79-13.33-12.78-13.33-31.69v-75.52Z"/></svg>