<svg xmlns="http://www.w3.org/2000/svg" height="20" viewBox="0 -960 960 960" width="20"><path d="M671.77-96Q592-96 536-152.23q-56-56.22-56-136Q480-368 536.23-424q56.22-56 136-56Q752-480 808-423.77q56 56.22 56 136Q864-208 807.77-152q-56.22 56-136 56ZM148.78-515v-174.91q0-31.17 17.02-56.11 17.03-24.94 45.94-35.76l233.22-89.18q16.95-6.69 35.04-6.69t35.04 6.69l233.22 89.18q28.91 10.82 45.94 35.76 17.02 24.94 17.02 56.11v111.94q0 24.27-19.09 36.1-19.1 11.83-40.87 3.44-19.56-6.5-39.13-10.04Q692.57-552 672-552q-110 0-187 77t-77 186.85q0 32.58 8 63.87 8 31.28 27.39 65.93 11.7 22.52-3.19 41.98-14.9 19.46-36.98 11.33-46.32-18.83-85.29-47.85-38.97-29.02-78.5-83.67-43.82-59.27-67.24-130.44-23.41-71.17-23.41-148Zm524.35 227q25 0 42.5-17.5t17.5-42.5q0-25-17.5-42.5t-42.5-17.5q-25 0-42.5 17.5t-17.5 42.5q0 25 17.5 42.5t42.5 17.5Zm0 120q24.3 0 47.39-10.09 23.09-10.08 40.09-27.82 7.26-6.13 4.69-16.46-2.56-10.33-11.82-13.89-18.82-8.44-38.93-12.09-20.12-3.65-41.42-3.65-21.87 0-41.98 3.93-20.11 3.94-38.93 11.81-9.26 3.56-11.83 13.89-2.56 10.33 4.7 16.46 17 17.74 40.37 27.82Q648.83-168 673.13-168Z"/></svg>