<svg xmlns="http://www.w3.org/2000/svg" height="20" viewBox="0 -960 960 960" width="20"><path d="M479.75-877.65q9.41 0 18.22 1.78 8.81 1.78 17.07 4.91l233.22 89.18q28.91 10.82 45.94 35.76 17.02 24.94 17.02 56.11V-577q0 20.58-14.25 34.51-14.24 13.92-34.54 13.92-20.3 0-34.76-13.92-14.45-13.93-14.45-34.51v-113.48L480-779.65l-233.22 89.17V-515q0 49.74 13.09 95.56 13.09 45.83 36.98 85.09 23.89 39.26 56.45 71.94 32.57 32.67 72.09 56.1 16.25 12.04 22.95 30.72 6.7 18.68-1.69 37.2-8.39 18.52-27.26 25.09-18.87 6.56-36.83-3.4-105.95-55.78-169.87-166.24Q148.78-393.39 148.78-515v-174.91q0-31.17 17.02-56.11 17.03-24.94 45.94-35.76l233.22-89.18q9.26-3.01 17.52-4.85 8.26-1.84 17.27-1.84ZM671.77-96Q592-96 536-152.23q-56-56.22-56-136Q480-368 536.23-424q56.22-56 136-56Q752-480 808-423.77q56 56.22 56 136Q864-208 807.77-152q-56.22 56-136 56ZM480-493.26ZM673.13-288q25 0 42.5-17.5t17.5-42.5q0-25-17.5-42.5t-42.5-17.5q-25 0-42.5 17.5t-17.5 42.5q0 25 17.5 42.5t42.5 17.5Zm0 120q24.36 0 47.42-10.09 23.06-10.08 40.06-27.82 7.26-6.13 4.69-16.46-2.56-10.33-11.82-13.89-18.82-8.44-38.94-12.09-20.13-3.65-41.69-3.65-21.57 0-41.69 3.93-20.12 3.94-38.94 11.81-9.26 3.56-11.83 13.89-2.56 10.33 4.7 16.46 17 17.74 40.24 27.82Q648.56-168 673.13-168Z"/></svg>