<svg xmlns="http://www.w3.org/2000/svg" height="20" viewBox="0 -960 960 960" width="20"><path d="m565.57-633.39 292.39 197.94q12 8.41 18.63 21.25 6.63 12.84 6.63 27.52v26.26q0 31.33-26.34 49.72-26.35 18.4-56.36 6.14l-27.34-8.35-378.75-380.44v-104.3q0-35.35 25.17-60.46t60.61-25.11q35.44 0 60.4 25.11t24.96 60.46v164.26ZM480-139.3 335.46-95.62q-24.37 7.01-43.83-8-19.46-15.01-19.46-39.59v-28.48q0-12.01 5.92-23.33 5.91-11.33 16.17-17.46l100.17-69.17v-114.39L159.48-302q-30.01 12.26-56.36-6.13-26.34-18.39-26.34-49.75v-26.28q0-14.69 6.63-27.54 6.63-12.86 18.89-21.47l193.57-131.44-185.96-185.96q-12.69-12.69-12.98-28.1-.28-15.42 12.42-28.11 12.69-12.7 28.61-12.7 15.91 0 28.61 12.7L801.35-172q12.69 12.7 12.41 27.83-.28 15.13-12.98 27.82-12.69 12.7-28.32 12.7t-28.33-12.7L577.44-281.48v.96l87.73 81.3q10.27 6.13 16.18 17.77 5.91 11.65 5.91 24.28v27.08q0 24.65-19.46 39.7-19.45 15.04-43.82 8.04L480-139.3Z"/></svg>