<svg xmlns="http://www.w3.org/2000/svg" height="20" viewBox="0 -960 960 960" width="20"><path d="M500.7-480ZM132.9-708.9q-18.07-24.75-4.05-51.54 14.02-26.78 44.24-26.78h412.08q23.64 0 44.08 10.33 20.45 10.32 35.4 29.98l142.7 194.94q18.17 25.01 4.15 51.8-14.02 26.78-44.97 26.78-11.23 0-21.83-5.7-10.61-5.69-17.31-15.52L585.74-689.78H271.65L383-537.13q17.96 26.78 17.96 57.13T383-422.87L271.65-270.22h138.91q19.46 0 33.73 13.68 14.28 13.67 15.08 32.19 1.2 22.22-12.7 36.89-13.89 14.68-35.54 14.68H173.09q-30.22 0-44.24-26.78-14.02-26.79 4.05-51.54L301.26-480 132.9-708.9Zm551.32 488.42-18.05-18.04q-8.69-8.7-20.95-8.7t-20.68 8.7q-8.41 8.69-8.69 20.77-.29 12.08 8.41 21.14l25.91 25.91q14.87 14.96 34.78 14.68 19.92-.28 34.88-14.68l82.34-86.91q8.7-9.13 8.7-21.02 0-11.9-9.7-20.82-9.13-8.2-21.12-8.32-12-.12-20.79 8.68l-75.04 78.61Zm28.77 184.92q-79.77 0-135.77-56.23-56-56.23-56-136 0-79.77 56.22-135.77 56.23-56 136-56 79.78 0 135.78 56.22 56 56.23 56 136 0 79.78-56.23 135.78t-136 56Z"/></svg>