<svg xmlns="http://www.w3.org/2000/svg" height="20" viewBox="0 -960 960 960" width="20"><path d="m543.35-463.91 151.56-98.48q14.74-9.2 14.74-25.99t-14.74-26.1l-151.56-98.48q-15.74-10.3-32.2-1.86-16.45 8.45-16.45 27.34v198.09q0 18.89 16.45 27.34 16.46 8.44 32.2-1.86Zm-163 182.69q-44.31 0-71.15-26.85-26.85-26.84-26.85-71.15v-417.87q0-44.3 26.85-71.15 26.84-26.85 71.15-26.85h418.43q44.31 0 71.16 26.85 26.84 26.85 26.84 71.15v417.87q0 44.31-26.84 71.15-26.85 26.85-71.16 26.85H380.35Zm0-98h418.43v-417.87H380.35v417.87Zm209.22-209.22ZM218.48-161.78Zm14.82 96.87q-39.74 5.13-71.65-19.87-31.91-25-37.61-64.74L67.17-564.39q-5.69-40.63 19.31-73.51t65.74-36.32l19.69-2q22.66-1.43 37.33 12.74 14.67 14.18 14.67 36.97 0 19-11.89 32.93t-30.98 15.36l-16.43 2 55.3 414.44 444.48-60.31q20.58-2.56 36.58 9.45 16.01 12 18.48 32.22 2.64 20.16-9.67 36.72t-32.56 19.05L233.3-64.91Z"/></svg>