<svg xmlns="http://www.w3.org/2000/svg" height="20" viewBox="0 -960 960 960" width="20"><path d="M414.03-496.65q-13.2 0-22.46-9.06-9.27-9.06-9.27-22.29 0-13.23 9.05-22.29 9.05-9.06 22.25-9.06h132.37q13.2 0 22.46 9.06 9.27 9.06 9.27 22.29 0 13.23-9.05 22.29-9.05 9.06-22.25 9.06H414.03Zm23.62 99.39q-13.22 0-22.28-9.06-9.07-9.06-9.07-22.29 0-13.22 9.07-22.29 9.06-9.06 22.28-9.06h84.7q13.22 0 22.28 9.06 9.07 9.07 9.07 22.29 0 13.23-9.07 22.29-9.06 9.06-22.28 9.06h-84.7Zm4.61 346.48q-28.39 0-49.59-17.2-21.19-17.19-27.76-43.45l-25.82-102.61q-6.7-24.09-20.31-48.52-13.61-24.44-38.17-54.2-28.52-33.11-44.18-75.19-15.65-42.08-15.65-88 0-44.48 15.65-86.77 15.66-42.28 44.81-77.56 26.63-34.11 39.66-56.63 13.02-22.53 19.19-45.05l25.82-102.61q6.57-26.26 27.76-43.45 21.2-17.2 49.59-17.2h73.48q28.39 0 49.59 17.2 21.19 17.19 27.76 43.45l25.82 102.61q6.7 24.09 20.31 48.02 13.61 23.94 38.54 53.7 29.15 33.11 44.81 75.43 15.65 42.31 15.65 88.51 0 44.73-15.65 86.52-15.66 41.78-44.18 77.06-26.26 34.11-39.29 56.97-13.02 22.85-19.19 45.71l-25.82 102.61q-6.57 26.26-27.76 43.45-21.2 17.2-49.59 17.2h-75.48Zm37.94-268q66.97 0 114-47.22 47.02-47.22 47.02-114.2 0-66.97-47.22-114-47.22-47.02-114.2-47.02-66.97 0-114 47.22-47.02 47.22-47.02 114.2 0 66.97 47.22 114 47.22 47.02 114.2 47.02Z"/></svg>