<svg xmlns="http://www.w3.org/2000/svg" height="20" viewBox="0 -960 960 960" width="20"><path d="M564.52-76.87 301.26-149v-394.26h67.91q10.83 0 20.31 1.78 9.48 1.78 17.74 4.91l229.65 82.09q34.17 12.96 59.5 42.35t25.33 65q0 6.48-4.11 10.43-4.11 3.96-11.72 3.96h-96.65q-18.35-1-38.18-3.69-19.82-2.7-38.17-8.4L511.39-352q-13.39-5.13-25.72-.07-12.32 5.07-17.45 19.03-4.57 12.26 1.13 24.52 5.69 12.26 18.95 15.82l14.83 4.05q26.04 7.82 49.35 11.02 23.3 3.2 53.35 3.2h247.43q40.57 0 57.57 25.17t17 65.48L625.52-76.3q-14.95 5.56-30.22 4.56-15.26-1-30.78-5.13ZM76.78-152.74v-314q0-31.7 22.41-54.11 22.42-22.41 54.11-22.41 31.7 0 53.83 22.41t22.13 54.11v314q0 31.7-22.13 53.83T153.3-76.78q-31.69 0-54.11-22.13-22.41-22.13-22.41-53.83Zm518.44-534.92 152.95-153.52q15.53-15.52 34.61-14.95 19.09.56 34.05 15.52 15.52 15.52 15.52 34.83 0 19.3-15.52 34.82l-187 186.44q-14.96 14.95-34.61 14.95t-34.61-14.95l-84.44-85q-14.39-14.96-14.95-34.05-.57-19.08 14.39-34.04 14.96-15.52 34.83-15.24 19.87.28 34.82 15.24l49.96 49.95Z"/></svg>