<svg xmlns="http://www.w3.org/2000/svg" height="20" viewBox="0 -960 960 960" width="20"><path d="m594.65-687.66 152.96-153.52q15.52-15.52 34.61-14.95 19.09.56 34.04 15.52 15.52 15.52 15.52 34.83 0 19.3-15.52 34.82l-187 186.44q-14.8 14.95-34.53 14.95t-34.69-14.95l-84.43-85q-14.39-14.96-14.96-34.05-.56-19.08 14.39-34.52 14.96-15.04 34.83-14.76 19.87.28 34.83 15.24l49.95 49.95Zm3.65 542.92 235-72q-8-21-26.38-33-18.39-12-41.62-12H548.65q-12.48 0-28.91-2.5-16.44-2.5-32.44-8.47l-36-13.9q-13.86-4.68-19.93-18.75-6.07-14.06-1.07-27.98 5-13.91 19-19.87 14-5.96 28-.96l40.79 14.69q7.61 3.44 16.69 4.87 9.09 1.44 19.65.87h91.96-.09q0-10-5-17t-15-11l-256-92h-27.52v229.7l255.52 79.3Zm-30.34 83.83-225.18-70.05q-5.08 23-28.02 38.09-22.93 15.09-54.98 16.09h-85q-40.72 1-69.36-28.08t-28.64-69.92v-270.48q0-40.43 28.82-69.21 28.82-28.79 69.29-28.79h191.72q10.26 0 19.52 1.78t18.64 5.03l254.19 91.32q35.08 13.26 55.69 43.18 20.61 29.93 20.61 68.21h30.04q65.07 0 113.52 33.46 48.44 33.45 48.44 94.54 0 26.22-16.89 44.74-16.89 18.52-40.41 25.65L630.65-60.91q-15.39 4.56-31.35 4.35-15.95-.22-31.34-4.35ZM166.3-165.74h86.96v-288H166.3v288Z"/></svg>