<svg xmlns="http://www.w3.org/2000/svg" height="20" viewBox="0 -960 960 960" width="20"><path d="M294.22-100.78q-44.31 0-71.16-26.85-26.84-26.85-26.84-71.15v-370.44q0-44.3 26.84-71.15 26.85-26.85 71.16-26.85h371.56q44.31 0 71.16 26.85 26.84 26.85 26.84 71.15v370.44q0 44.3-26.84 71.15-26.85 26.85-71.16 26.85H294.22ZM460.3-241.13h39.4q10.82 0 17.24-6.41 6.41-6.42 6.41-17.24 0-10.83-6.41-17.24-6.42-6.42-17.24-6.42h-39.4q-10.82 0-17.24 6.42-6.41 6.41-6.41 17.24 0 10.82 6.41 17.24 6.42 6.41 17.24 6.41Zm-8.54-77.65h54.65q6.85 0 12.22-4.83 5.37-4.82 6.85-11.69 3.14-10.67 8.87-20.23 5.74-9.56 12.04-18.86 9.31-16 16.46-31.81 7.15-15.82 7.15-33.23 0-35.13-27.07-59.02-27.06-23.9-62.93-23.9-35.87 0-62.93 23.93Q390-474.49 390-439.32q0 17.75 6.09 33.12 6.08 15.37 15.95 30.81 6.31 9.3 12.11 19.32 5.81 10.03 8.91 20.73 2.26 6.89 7.06 11.72 4.79 4.84 11.64 4.84Zm-176.2-385.13q-12.66 0-21.15-8.5-8.5-8.49-8.5-21.16 0-12.66 8.5-21.15 8.49-8.5 21.15-8.5h408.88q12.66 0 21.15 8.5 8.5 8.49 8.5 21.15 0 12.67-8.5 21.16-8.49 8.5-21.15 8.5H275.56Zm25.14-96q-12.67 0-21.16-8.5-8.5-8.49-8.5-21.16 0-12.66 8.5-21.15 8.49-8.5 21.16-8.5h358.6q12.67 0 21.16 8.5 8.5 8.49 8.5 21.15 0 12.67-8.5 21.16-8.49 8.5-21.16 8.5H300.7Z"/></svg>