<svg xmlns="http://www.w3.org/2000/svg" height="20" viewBox="0 -960 960 960" width="20"><path d="M294.22-100.78q-44.31 0-71.16-26.85-26.84-26.85-26.84-71.15v-370.44q0-44.3 26.84-71.15 26.85-26.85 71.16-26.85h371.56q44.31 0 71.16 26.85 26.84 26.85 26.84 71.15v370.44q0 44.3-26.84 71.15-26.85 26.85-71.16 26.85H294.22Zm0-98h371.56v-370.44H294.22v370.44Zm166.08-42.35h39.4q10.82 0 17.24-6.41 6.41-6.42 6.41-17.24 0-10.83-6.41-17.24-6.42-6.42-17.24-6.42h-39.4q-10.82 0-17.24 6.42-6.41 6.41-6.41 17.24 0 10.82 6.41 17.24 6.42 6.41 17.24 6.41Zm-8.54-77.65h54.65q6.76 0 12.18-4.83 5.41-4.82 6.89-11.69 3.14-10.67 8.89-20.35 5.76-9.68 12.02-18.74 9.31-16 16.46-31.94 7.15-15.94 7.15-33.1 0-35.13-27.07-59.02-27.06-23.9-62.93-23.9-35.87 0-62.93 23.93Q390-474.49 390-439.49q0 17.92 6.09 33.29 6.08 15.37 15.95 30.81 6.38 9.11 12.15 19.23 5.77 10.12 8.87 20.82 2.26 6.89 7.06 11.72 4.79 4.84 11.64 4.84ZM480-384ZM275.56-703.91q-12.84 0-21.25-8.37-8.4-8.36-8.4-21.15 0-12.8 8.4-21.29 8.41-8.5 21.25-8.5h408.88q12.84 0 21.25 8.37 8.4 8.36 8.4 21.15 0 12.8-8.4 21.29-8.41 8.5-21.25 8.5H275.56Zm25.14-96q-12.85 0-21.26-8.37-8.4-8.36-8.4-21.15 0-12.8 8.4-21.29 8.41-8.5 21.26-8.5h358.6q12.85 0 21.26 8.37 8.4 8.36 8.4 21.15 0 12.8-8.4 21.29-8.41 8.5-21.26 8.5H300.7Z"/></svg>