<svg xmlns="http://www.w3.org/2000/svg" height="20" viewBox="0 -960 960 960" width="20"><path d="M442.3-520.17ZM296.17-259.48v-271.04H160.09v271.04h136.08Zm-157.47 86.7q-28.96 0-47.14-18.18-18.17-18.17-18.17-47.13v-314.39q0-29.47 18.17-47.1 18.18-17.64 47.14-17.64h179.43q29.47 0 47.11 17.64 17.63 17.63 17.63 47.1v314.39q0 28.96-17.63 47.13-17.64 18.18-47.11 18.18H138.7Zm89.15-274.44q12.73 0 21.33-8.53 8.6-8.52 8.6-20.84 0-12.73-8.48-21.33-8.48-8.6-21.46-8.6-12.54 0-20.95 8.48t-8.41 21.46q0 12.54 8.53 20.95t20.84 8.41ZM689.09-76.78q-12.79 0-21.29-8.4t-8.5-21.25v-153.96q-12-5.47-18-17.58-6-12.12-6-26.48 0-22.75 15.42-38.09 15.41-15.33 37.75-15.33 22.86 0 38.5 15.33 15.64 15.34 15.64 38.09 0 15.36-6.28 26.65-6.29 11.28-17.72 17.41v153.96q0 12.85-8.36 21.25-8.37 8.4-21.16 8.4ZM125.78-787.22h682.05q44.3 0 71.15 26.85 26.85 26.85 26.85 71.15v71.83q0 20.58-14.25 34.51-14.24 13.92-34.54 13.92-20.3 0-34.76-14.3-14.45-14.31-14.45-34.7v-71.26H125.78q-20.38 0-34.69-14.24-14.31-14.25-14.31-34.55 0-20.29 14.31-34.75t34.69-14.46ZM228.13-395Zm461.05-.56q-37.4 0-63.98 26.2-26.59 26.2-26.59 64.14 0 12.31 1.87 22.55t7.74 19.54q5.56 10.26 5 22.8-.57 12.55-8.7 20.68-9.13 9.13-20.61 8.91-11.47-.22-18.04-9.91-13-18.49-19.78-39.93-6.79-21.44-6.79-44.64 0-62.66 43.88-106.16 43.88-43.49 105.49-43.49 62.55 0 106.24 43.43 43.7 43.43 43.7 106.01 0 25.78-8.28 48-8.29 22.21-22.72 41.21-6.57 10.26-18.99 10.26-12.42 0-21.24-10.16-8.81-9.23-8.31-21.78t7.06-22.8q6.31-10.7 9.74-21.98 3.43-11.27 3.43-22.54 0-37.94-26.13-64.14-26.14-26.2-63.99-26.2Zm-.66-96q-76.68 0-131.3 54.58-54.61 54.59-54.61 131.76 0 30.2 8.81 58.52 8.82 28.31 26.67 51.57 6.56 9.7 6.85 21.96.28 12.26-8.42 20.95-9.13 9.13-21.67 8.92-12.55-.22-19.68-10.48-25.47-31.88-38.67-70.62-13.2-38.73-13.2-80.82 0-102.37 71.66-174.01 71.66-71.64 173.49-71.64 102.77 0 174.46 71.64 71.7 71.64 71.7 174.01 0 45.2-17.28 85.89-17.29 40.68-45.72 74.68-7.57 9.69-19.42 9.41-11.85-.28-19.89-9.41-8.04-9.13-8.1-21.68-.07-12.54 7.5-22.24 19.74-24.86 31.67-54.35 11.93-29.48 11.93-62.3 0-77.17-54.58-131.76-54.59-54.58-132.2-54.58Z"/></svg>