<svg xmlns="http://www.w3.org/2000/svg" height="20" viewBox="0 -960 960 960" width="20"><path d="M688.96-76.78q-12.26 0-20.96-8.7-8.7-8.69-8.7-20.95v-153.96q-12-5.57-18-17.63-6-12.07-6-26.2 0-22.82 15.42-38.24 15.41-15.41 38.24-15.41 22.26 0 37.95 15.41 15.7 15.42 15.7 38.24 0 15.13-6.28 26.42-6.29 11.28-17.72 17.41v153.96q0 12.26-8.7 20.95-8.69 8.7-20.95 8.7Zm0-318.78q-37.18 0-63.76 26.3-26.59 26.3-26.59 64.04 0 12.31 1.87 22.55t7.74 19.54q5.56 10.26 5 22.8-.57 12.55-8.7 20.68-9.13 9.13-20.61 8.91-11.47-.22-18.04-9.91-13-18-19.78-39.78-6.79-21.79-6.79-44.79 0-62.26 43.7-105.95 43.7-43.7 105.96-43.7 62.26 0 105.95 43.7 43.7 43.69 43.7 105.95 0 25.57-8.28 47.79-8.29 22.21-22.72 41.21-6.57 10.26-19.11 10.26t-21.24-9.69q-8.69-9.7-8.19-22.24t7.06-22.81q6.31-10.3 9.74-21.54 3.43-11.24 3.43-22.98 0-37.74-26.3-64.04-26.3-26.3-64.04-26.3Zm0-96q-77.18 0-131.76 54.58-54.59 54.59-54.59 131.76 0 29.74 8.87 58.26 8.87 28.53 26.61 51.83 6.56 9.7 6.85 21.96.28 12.26-8.42 20.95-9.13 9.13-21.67 8.92-12.55-.22-19.68-10.48-25.43-32-38.65-70.72-13.22-38.72-13.22-80.72 0-102.26 71.7-173.95 71.7-71.7 173.96-71.7t173.95 71.7q71.7 71.69 71.7 173.95 0 45-17.28 85.79-17.29 40.78-45.72 74.78-7.57 9.69-19.33 9.41-11.76-.28-19.89-9.41t-8.19-21.68q-.07-12.54 7.5-22.24 19.74-24.86 31.67-54.39 11.93-29.52 11.93-62.26 0-77.17-54.58-131.76-54.59-54.58-131.76-54.58ZM138.13-172.78q-28.96 0-46.85-17.89t-17.89-46.85v-314.39q0-29.52 17.89-47.42 17.89-17.89 46.85-17.89h179.43q29.53 0 47.42 17.89 17.89 17.9 17.89 47.42v314.39q0 28.96-17.89 46.85t-47.42 17.89H138.13Zm550.83-449.09q-69.79 0-130.37 27.74Q498-566.39 454.3-519.61v-33.43q-.56-62.52-37.67-99.35-37.11-36.83-99.07-36.83H137.7q-17.7 0-32.96 2.79-15.26 2.78-27.96 8.34v-11.13q0-41.3 28.35-69.65 28.35-28.35 69.65-28.35h633.05q44.3 0 71.15 26.85 26.85 26.85 26.85 71.15v151.31q-43.39-40.48-100.96-62.22-57.56-21.74-115.91-21.74ZM228.13-447.78q11.26 0 19.96-8.41 8.69-8.42 8.69-21.24 0-11.26-8.69-19.96-8.7-8.7-19.96-8.7-12.83 0-21.24 8.7-8.41 8.7-8.41 19.96 0 12.82 8.41 21.24 8.41 8.41 21.24 8.41Z"/></svg>