<svg xmlns="http://www.w3.org/2000/svg" height="20" viewBox="0 -960 960 960" width="20"><path d="M281.96-172.78q-40.93 0-69.4-28.22-28.47-28.21-28.47-69.22v-359.43l-76.22-75.09q-6.7-6.69-10.04-15.34-3.35-8.64-3.35-17.95 0-19.67 12.89-34.43 12.89-14.76 36.11-14.76h594.05q40.3 0 68.99 28.64 28.7 28.63 28.7 68.84v419.81q0 41.02-28.62 69.08-28.63 28.07-68.82 28.07H281.96Zm233.13-216.87h123.17q15.3 0 25.65-10.45 10.35-10.46 10.35-25.91 0-15.21-10.51-25.71t-26.05-10.5H374.48q-8.61 0-10.91 8.39-2.31 8.39 2.86 14.13l119.22 121.48q11 11.57 25.5 11.57t25.5-11.29q11-11.28 11-24.85 0-13.57-11-24.3l-21.56-22.56Zm-11.44-180.7H380.48q-15.3 0-25.65 10.29-10.35 10.29-10.35 25.5t10.35 26q10.35 10.78 25.65 10.78h263.78q8.5 0 11.14-8.39 2.64-8.39-2.53-14.13L532.65-642.78q-11-11.57-25-11.57t-25 11.29q-11 11.28-11 25.35 0 14.07 11 24.8l21 22.56Z"/></svg>