<svg xmlns="http://www.w3.org/2000/svg" height="20" viewBox="0 -960 960 960" width="20"><path d="M222.78-123.09q-40.42 0-69.21-28.78-28.79-28.79-28.79-69.22v-514.43q0-40.43 28.79-69.21 28.79-28.79 69.21-28.79h514.44q40.42 0 69.21 28.79 28.79 28.78 28.79 69.21v194.95q0 20.39-14.25 34.7-14.24 14.31-34.54 14.31-20.3 0-34.76-14.31-14.45-14.31-14.45-34.7v-194.95H222.78v514.43h176.31q20.38 0 34.69 14.25 14.31 14.25 14.31 34.54 0 20.3-14.31 34.76-14.31 14.45-34.69 14.45H222.78Zm0-103.91v5.91-514.43 245.96-1.44 264Zm72-102.3q0 15.21 10.35 25.71t25.65 10.5h89.83q15.3 0 25.65-10.29 10.35-10.29 10.35-25.5t-10.35-25.71q-10.35-10.5-25.65-10.5h-89.83q-15.3 0-25.65 10.29-10.35 10.29-10.35 25.5Zm0-149.21q0 15.21 10.35 25.71t25.57 10.5h215.03q15.22 0 25.57-10.29t10.35-25.5q0-15.21-10.35-25.71t-25.56-10.5H330.78q-15.3 0-25.65 10.29-10.35 10.28-10.35 25.5Zm0-149.22q0 15.21 10.35 25.71t25.65 10.5h298.44q15.3 0 25.65-10.29 10.35-10.29 10.35-25.5t-10.35-25.71q-10.35-10.5-25.65-10.5H330.78q-15.3 0-25.65 10.29-10.35 10.29-10.35 25.5ZM712.99-35.56q-79.77 0-135.77-56.23-56-56.23-56-136 0-79.77 56.22-135.77 56.23-56 136-56 79.78 0 135.78 56.22 56 56.23 56 136 0 79.78-56.23 135.78t-136 56Zm.23-192q25 0 42.5-17.5t17.5-42.5q0-25-17.5-42.5t-42.5-17.5q-25 0-42.5 17.5t-17.5 42.5q0 25 17.5 42.5t42.5 17.5Zm0 120q25.17 0 48.07-10.34 22.89-10.34 39.41-28.14 6.69-6.13 4.13-15.68-2.57-9.54-11.83-12.54-19.44-6.74-39.52-10.89-20.09-4.15-40.26-4.15-20.18 0-40.26 4.37-20.09 4.37-39.53 10.67-8.69 3.56-11.54 12.83-2.85 9.26 3.85 15.39 16.51 17.8 39.41 28.14 22.89 10.34 48.07 10.34Z"/></svg>