<svg xmlns="http://www.w3.org/2000/svg" height="20" viewBox="0 -960 960 960" width="20"><path d="M712.99-35.56q-79.77 0-135.77-56.23-56-56.23-56-136 0-79.77 56.22-135.77 56.23-56 136-56 79.78 0 135.78 56.22 56 56.23 56 136 0 79.78-56.23 135.78t-136 56ZM330.78-591.52h298.44q15.3 0 25.65-10.29 10.35-10.29 10.35-25.5t-10.35-25.71q-10.35-10.5-25.65-10.5H330.78q-15.3 0-25.65 10.29-10.35 10.29-10.35 25.5t10.35 25.71q10.35 10.5 25.65 10.5Zm-108 468.43q-40.42 0-69.21-28.78-28.79-28.79-28.79-69.22v-514.43q0-40.43 28.79-69.21 28.79-28.79 69.21-28.79h514.44q40.42 0 69.21 28.79 28.79 28.78 28.79 69.21v214.3q0 22.22-17.87 34.26-17.87 12.05-40.09 5.22-16.11-3.13-31.94-5.19-15.84-2.07-32.1-2.07-12 0-23.8.41-11.79.4-24.2 2.03-3.31-12.53-13.81-20.14-10.5-7.6-22.19-7.6H330.78q-15.3 0-25.65 10.29-10.35 10.28-10.35 25.5 0 15.21 10.35 25.71t25.65 10.5h228.87q-22 15.3-40.56 34.6-18.57 19.31-32.7 42.61H330.78q-15.3 0-25.65 10.29-10.35 10.29-10.35 25.5t10.35 25.71q10.35 10.5 25.65 10.5h123.83q-3.7 15.96-5.55 32.76-1.84 16.81-.84 33.33 1 10.17 2.12 21.75 1.12 11.59 3.18 23.77 3.57 22.78-9 40.59-12.57 17.8-34.87 17.8H222.78Zm490.44-104.47q25 0 42.5-17.5t17.5-42.5q0-25-17.5-42.5t-42.5-17.5q-25 0-42.5 17.5t-17.5 42.5q0 25 17.5 42.5t42.5 17.5Zm0 120q26.3 0 48.63-10.34 22.33-10.34 38.85-28.14 7.26-6.13 4.69-15.96-2.56-9.83-11.83-13.39-18.86-7.87-38.95-12.02-20.09-4.15-41.39-4.15-21.31 0-41.39 4.65-20.09 4.65-38.96 11.52-8.7 4.13-11.54 13.67-2.85 9.55 4.41 15.68 16.51 17.8 38.84 28.14 22.33 10.34 48.64 10.34Z"/></svg>