<svg xmlns="http://www.w3.org/2000/svg" height="20" viewBox="0 -960 960 960" width="20"><path d="M493.83-553Zm-49.01 380.22H125.78q-20.38 0-34.69-14.25-14.31-14.24-14.31-34.54 0-20.3 14.31-34.76 14.31-14.45 34.69-14.45h319.04q20.39 0 34.7 14.24 14.31 14.25 14.31 34.55 0 20.29-14.31 34.75t-34.7 14.46Zm-223.17-146q-44.3 0-71.15-26.85-26.85-26.85-26.85-71.15v-272.44q0-44.3 26.85-71.15 26.85-26.85 71.15-26.85h565.13q20.39 0 34.7 14.25 14.3 14.24 14.3 34.54 0 20.3-14.3 34.76-14.31 14.45-34.7 14.45H221.65v272.44h223.17q20.39 0 34.7 14.24 14.31 14.25 14.31 34.55 0 20.29-14.31 34.75t-34.7 14.46H221.65Zm574.87 59.3v-271.04h-144v271.04h144Zm-156.91 86.7q-32.91 0-53.35-20.44-20.43-20.43-20.43-53.35V-544q0-33.48 20.43-53.35 20.44-19.87 53.35-19.87H810q33.48 0 53.35 19.87 19.87 19.87 19.87 53.35v297.43q0 32.92-19.87 53.35-19.87 20.44-53.35 20.44H639.61Zm84.63-274.44q12.73 0 21.33-8.53 8.6-8.52 8.6-20.84 0-12.73-8.48-21.33-8.48-8.6-21.45-8.6-12.54 0-20.96 8.48-8.41 8.48-8.41 21.46 0 12.54 8.53 20.95t20.84 8.41Zm.28 52.22Z"/></svg>