<svg xmlns="http://www.w3.org/2000/svg" height="20" viewBox="0 -960 960 960" width="20"><path d="M295.35-28.78q-41.01 0-69.5-28.5-28.5-28.5-28.5-69.5v-706.44q0-44.3 26.85-71.15 26.84-26.85 71.15-26.85h369.3q41.01 0 69.5 28.5 28.5 28.5 28.5 69.5v225.44q0 20.38-14.3 34.69-14.31 14.31-34.7 14.31h-32.52q-27.39 0-48.38 16.46-20.99 16.46-27.84 42.62l-14.56 54.13q-42.57 33.7-66.85 82.9-24.28 49.19-24.28 104.89 0 55.13 24.56 104.39 24.57 49.26 66.57 83.39 2.56 10.7 5.85 20.61 3.28 9.91 5.84 20.61H295.35Zm184.44-675.96q16.91 0 28.82-11.7t11.91-28.61q0-16.91-11.7-28.82t-28.61-11.91q-16.91 0-28.82 11.7t-11.91 28.61q0 16.91 11.7 28.82t28.61 11.91ZM714.22-28.78q-16.97 0-30.14-10.61Q670.91-50 666.95-65.93l-13.04-48.5q-38.13-22.7-60.41-60.68-22.28-37.98-22.28-82.67 0-44.7 22.28-82.68 22.28-37.97 60.41-60.67l13.04-48.5q3.96-15.94 17.13-26.54 13.17-10.61 30.14-10.61h63q17.52 0 30.41 11.11 12.89 11.1 17.02 27.06l11.87 52.48q34.13 23.7 53.42 60.02 19.28 36.33 19.28 78.18 0 41.84-19.28 77.82-19.29 35.98-53.42 59.68l-11.87 53.47Q820.52-51 807.63-39.89t-30.41 11.11h-63Zm25.8-152.35q31.81 0 54.33-22.32 22.52-22.33 22.52-54.14 0-31.8-22.32-54.32-22.33-22.52-54.13-22.52-31.81 0-54.33 22.32t-22.52 54.13q0 31.81 22.32 54.33 22.33 22.52 54.13 22.52Z"/></svg>