<svg xmlns="http://www.w3.org/2000/svg" height="20" viewBox="0 -960 960 960" width="20"><path d="M789.44-58.26 674.91-172.78h-35.3q-32.91 0-53.35-20.44-20.43-20.43-20.43-53.35v-35.3l-72-72v-8.26q0 18.39-12.48 30.87t-30.87 12.48H221.65q-44.3 0-71.15-26.85-26.85-26.85-26.85-71.15v-272.44q0-8.39 1.07-15.5 1.06-7.11 3.19-14.5L56.13-791q-12.7-12.7-12.2-27.83.5-15.13 13.2-27.82 12.69-12.7 28.11-12.7 15.41 0 28.11 12.7l732.74 732.74q12.69 12.69 12.69 27.82t-12.69 27.83q-12.7 12.7-28.33 12.7-15.63 0-28.32-12.7ZM504.57-570.44 287.78-787.22h450q44.31 0 71.16 26.85 26.84 26.85 26.84 71.15H640.11q-50.98 0-88.18 30.5-37.21 30.5-47.36 76.28v12Zm366.08 366.09L566.96-508.04v-46.7q3.95-28.96 22.97-45.72 19.03-16.76 49.68-16.76H810q33.48 0 53.35 20.16 19.87 20.15 19.87 53.63V-246q0 12.13-3.2 22.54-3.2 10.42-9.37 19.11ZM724.52-447.22q12.26 0 20.96-8.41 8.69-8.41 8.69-21.24 0-12.26-8.69-20.95-8.7-8.7-20.96-8.7-12.82 0-21.24 8.7-8.41 8.69-8.41 20.95 0 12.83 8.41 21.24 8.42 8.41 21.24 8.41ZM125.78-172.78q-20.08 0-34.54-14.46t-14.46-34.54q0-20.09 14.46-34.55 14.46-14.45 34.54-14.45h319.04q20.09 0 34.55 14.45 14.46 14.46 14.46 34.55 0 20.08-14.46 34.54t-34.55 14.46H125.78Z"/></svg>