<svg xmlns="http://www.w3.org/2000/svg" height="20" viewBox="0 -960 960 960" width="20"><path d="M174.78-172.78q-44.3 0-71.15-26.85-26.85-26.85-26.85-71.15v-418.44q0-44.3 26.85-71.15 26.85-26.85 71.15-26.85h610.44q41.3 0 69.65 28.35 28.35 28.35 28.35 69.65v14.52q-13.7-7.26-30.31-10.89-16.61-3.63-35-3.63H638.48q-53.96 0-89.28 28.05-35.33 28.04-44.46 77v-11.31H335.7q-15.96 0-28.35 9.83-12.39 9.82-17.52 24.78l-24.87 71.35q-27 27.13-42.79 63.48-15.78 36.34-15.78 77.91 0 41.57 15.78 77.91 15.79 36.35 42.79 63.48l11.13 33.96H174.78Zm464.26 0q-28.95 0-47.13-18.18-18.17-18.17-18.17-47.13v-314.39q0-29.52 18.17-47.13 18.18-17.61 47.13-17.61h179.44q29.52 0 47.13 17.61 17.61 17.61 17.61 47.13v314.39q0 28.96-17.61 47.13-17.61 18.18-47.13 18.18H639.04Zm-297.78-34.61-13.74-40.78q-22.56-17.57-35.85-43.7-13.28-26.13-13.28-56.26t13.28-56.26q13.29-26.13 35.85-43.7l13.74-40.78q5.13-14.96 18.09-24.78 12.95-9.83 28.91-9.83h34.96q15.95 0 28.91 9.83 12.96 9.82 18.09 24.78l13.74 40.78q22.56 17.57 35.84 43.7 13.29 26.13 13.29 56.26t-13.29 56.26q-13.28 26.13-35.84 43.7l-13.74 40.78q-5.13 14.96-18.09 24.78-12.96 9.83-28.91 9.83h-34.96q-15.96 0-28.91-9.83-12.96-9.82-18.09-24.78Zm64.48-100.09q17.17 0 28.91-11.74 11.74-11.74 11.74-28.91t-11.74-28.91q-11.74-11.74-28.91-11.74t-28.91 12.02q-11.74 12.02-11.74 28.63t12.02 28.63q12.02 12.02 28.63 12.02Zm322.74-139.74q12.26 0 20.96-8.41 8.69-8.41 8.69-21.24 0-12.26-8.69-20.95-8.7-8.7-20.96-8.7-12.83 0-21.24 8.7-8.41 8.69-8.41 20.95 0 12.83 8.41 21.24 8.41 8.41 21.24 8.41Z"/></svg>