<svg xmlns="http://www.w3.org/2000/svg" height="20" viewBox="0 -960 960 960" width="20"><path d="M444.82-172.78H125.78q-20.08 0-34.54-14.46t-14.46-34.54q0-20.09 14.46-34.55 14.46-14.45 34.54-14.45h319.04q20.09 0 34.55 14.45 14.46 14.46 14.46 34.55 0 20.08-14.46 34.54t-34.55 14.46Zm-223.17-146q-44.3 0-71.15-26.85-26.85-26.85-26.85-71.15v-272.44q0-44.3 26.85-71.15 26.85-26.85 71.15-26.85h516.13q44.31 0 71.16 26.85 26.84 26.85 26.84 71.15H639.61q-66.48 0-106.13 39.37-39.65 39.37-39.65 105.85v176.22q0 20.08-14.46 34.54t-34.55 14.46H221.65Zm417.96 146q-32.91 0-53.35-20.44-20.43-20.43-20.43-53.35V-544q0-33.48 20.43-53.35 20.44-19.87 53.35-19.87H810q33.48 0 53.35 19.87 19.87 19.87 19.87 53.35v297.43q0 32.92-19.87 53.35-19.87 20.44-53.35 20.44H639.61Zm84.91-274.44q12.26 0 20.96-8.56 8.69-8.56 8.69-21.59 0-11.48-8.69-20.31-8.7-8.84-20.96-8.84-12.82 0-21.24 8.84-8.41 8.83-8.41 20.31 0 13.03 8.41 21.59 8.42 8.56 21.24 8.56Z"/></svg>