<svg xmlns="http://www.w3.org/2000/svg" height="20" viewBox="0 -960 960 960" width="20"><path d="M230.13-76.78H116.78v-92.35h113.35q35.04 0 61.65-18.63t47.18-37.63q30.6 22.26 65.54 38.69 34.93 16.44 75.5 16.44t75.5-16.44q34.94-16.43 64.98-38.69 21.13 19 47.45 37.63 26.33 18.63 61.37 18.63h113.92v92.35H729.3q-27.78 0-49.69-8.5-21.91-8.5-60.83-33.5-41.17 24.43-71.56 33.5-30.39 9.06-67.22 9.06t-67.5-9.06q-30.67-9.07-71.85-33.5-37.91 24-60.82 33-22.92 9-49.7 9ZM480-230.96q-17.96 0-40.48 4.64-22.52 4.63-57.22-29.07l-36-34-31 31q-24.52 22.83-59.34 30.78-34.83 7.96-76.96 1.74h-26l-48.74-258.78q-3.57-17.96 6.48-34.7 10.04-16.74 28-22.43l51.82-14.74v-156.7q0-41.3 28.35-69.65 28.35-28.35 69.66-28.35h65.47v-72h251.92v72h65.47q41.31 0 69.66 28.35 28.35 28.35 28.35 69.65v156.7l51.82 14.74q17.96 5.69 28 22.43 10.05 16.74 6.48 34.7L807-225.87h-26q-42.13 6.22-76.96-1.74-34.82-7.95-59.34-30.78l-31-31-36 34q-34.7 33.7-57.22 29.07-22.52-4.64-40.48-4.64ZM282.91-583.43 480-641.22 677.09-584v-134.87H282.91v135.44Z"/></svg>