<svg xmlns="http://www.w3.org/2000/svg" height="20" viewBox="0 -960 960 960" width="20"><path d="M195.02-60.78q-80.85 0-137.93-56.98Q0-174.74 0-255.59q0-80.84 56.98-137.93t137.83-57.09q80.84 0 137.93 56.98t57.09 137.83q0 80.84-56.99 137.93-56.98 57.09-137.82 57.09Zm-.21-100.35q39.36 0 67.01-27.55 27.66-27.55 27.66-66.91t-27.56-67.02q-27.55-27.65-66.91-27.65T128-322.71q-27.65 27.56-27.65 66.92t27.55 67.01q27.55 27.65 66.91 27.65Zm337.71-443.22-86.95 86.96 56.69 59.13q13.39 13.96 20.65 31.63 7.26 17.68 7.26 37.02v171.65q0 20.96-14.6 35.57-14.61 14.61-35.57 14.61t-35.57-14.61q-14.6-14.61-14.6-35.57v-154.91L305.78-482.61q-14.69-11.13-21.32-27.45-6.63-16.32-6.63-35.33 0-18.01 7.06-34.33 7.07-16.32 19.76-29.02l117.62-117.61q10.6-13.61 26.01-20.24 15.41-6.63 33.42-6.63 18.69 0 37.45 7.07 18.76 7.06 33.89 19.19l78.83 78.83q20.17 20.17 44.07 33.83 23.89 13.65 50.93 19.21 20.47 4 31.91 21.81 11.44 17.8 7.43 38.25-4.01 20.44-21.87 31.37-17.86 10.92-38.25 6.79-41.18-8.56-78.2-28.85-37.02-20.28-67.32-50.58l-28.05-28.05Zm98.22-132.26q-35.83 0-60.74-24.91-24.91-24.91-24.91-60.74T570-883q24.91-24.91 60.74-24.91T691.48-883q24.91 24.91 24.91 60.74t-24.91 60.74q-24.91 24.91-60.74 24.91ZM765.19-60.78q-80.84 0-137.93-56.98t-57.09-137.83q0-80.84 56.99-137.93 56.98-57.09 137.82-57.09 80.85 0 137.93 56.98Q960-336.65 960-255.8q0 80.84-56.98 137.93T765.19-60.78Zm-.2-100.35q39.36 0 67.01-27.55 27.65-27.55 27.65-66.91t-27.55-67.02q-27.55-27.65-66.91-27.65t-67.01 27.55q-27.66 27.56-27.66 66.92t27.56 67.01q27.55 27.65 66.91 27.65Z"/></svg>