<svg xmlns="http://www.w3.org/2000/svg" height="20" viewBox="0 -960 960 960" width="20"><path d="M479.99-57q-140.21 0-226.56-41.91-86.35-41.92-86.35-109.39 0-34.48 26.57-63.61 26.56-29.13 75.57-51.35l73.26 76.48q-19.53 5.56-41.33 15.04-21.8 9.48-37.76 23.31 12.12 18.97 81.02 36.2Q413.3-155 480.68-155q71.37 0 138.69-17.23t77.24-39.2q-16.96-11.83-39.54-21.31-22.59-9.48-41.55-15.04l73.83-77.48q51 21.65 77.28 52.35 26.29 30.69 26.29 64.49 0 67.53-86.36 109.47Q620.2-57 479.99-57Zm.58-139.78Q337.89-300.6 267.62-401.58q-70.27-100.99-70.27-195.25 0-69.39 25.74-123.12 25.75-53.74 66.49-89.91 40.74-36.18 91.17-54.77 50.42-18.59 99.71-18.59 49.28 0 99.63 18.59 50.35 18.59 91.03 54.77 40.68 36.17 66.39 89.91 25.71 53.73 25.71 123.12 0 94.26-70.13 195.25-70.13 100.98-212.52 204.8Zm-.22-328.96q32.48 0 55.17-22.49 22.7-22.5 22.7-54.6 0-32.82-22.66-55.24-22.66-22.41-54.99-22.41-32.57 0-55.4 22.91-22.82 22.92-22.82 54.46t22.76 54.46q22.76 22.91 55.24 22.91Z"/></svg>