<svg xmlns="http://www.w3.org/2000/svg" height="20" viewBox="0 -960 960 960" width="20"><path d="M618.5-187.04q-20.37 0-34.83-14.25-14.45-14.25-14.45-34.54 0-20.3 14.29-34.76 14.3-14.45 34.67-14.45h215.75q20.37 0 34.83 14.24 14.46 14.25 14.46 34.55 0 20.29-14.3 34.75-14.29 14.46-34.66 14.46H618.5ZM444.48-82.43q-71.52-1.7-134.59-31.66-63.06-29.95-114.46-81.34-56.26-56.27-87.45-130.1-31.2-73.84-31.2-154.69 0-83.74 31.41-156.63 31.42-72.89 86.74-128.22 55.33-55.32 128.63-86.74 73.3-31.41 156.74-31.41 76.96 0 145.46 27.12 68.49 27.13 121.58 75.05 53.1 47.92 87.86 112.61 34.76 64.7 44.89 139.4 3.13 20.52-10.79 35.34-13.92 14.83-34.78 14.83-19.82 0-33.9-13.47-14.08-13.46-17.53-33.36-.87-17.52-9.37-40.5-8.5-22.97-14.42-38.5L432.39-278.78q11.61 16.17 26.5 28.56 14.89 12.39 30.94 24.13 22.82 18.96 30.17 43.37 7.35 24.42-4.78 51.94-11.13 23.39-28.68 36.43Q469-81.3 444.48-82.43Zm-59.14-272.48 325.49-326.35q-9.31-10.74-19.11-19.98-9.81-9.24-20.98-18.54L366-415.61q3.43 16.18 8.3 31.35 4.87 15.17 11.04 29.35Zm-19.38-184.13 226.52-225.53q-6.87-3.43-14.81-5.3-7.93-1.87-15.8-4.87-76.39 28.57-128.67 91.22-52.29 62.65-67.24 144.48ZM174.22-480q0 103.04 65.3 184.54 65.3 81.5 162.96 109.76-59.57-54.69-94.94-130.74-35.37-76.04-35.37-163.56t35.37-162.37q35.37-74.85 94.94-128.98-98.22 23.74-163.24 104.39Q174.22-586.3 174.22-480Zm399.69-26Z"/></svg>