<svg xmlns="http://www.w3.org/2000/svg" height="20" viewBox="0 -960 960 960" width="20"><path d="m353.87-324.52 167.81-39q28.23-6.57 48.23-26.57 20-20 26.57-48.23l39-167.81q3.56-13.07-6.36-22.99-9.92-9.92-22.99-6.36l-167.81 39q-28.23 6.57-48.23 26.57-20 20-26.57 48.23l-39 167.81q-3.56 13.07 6.36 22.99 9.92 9.92 22.99 6.36Zm126-118.78q-15.35 1-25.96-10.04-10.61-11.03-10.61-26.79 0-15.35 10.75-25.96 10.74-10.61 26.08-10.61 15.35 0 25.96 10.75 10.61 10.74 10.61 26.08 0 15.35-10.75 25.96-10.74 10.61-26.08 10.61Zm.41 366.52q-83.8 0-157.19-31.46-73.38-31.46-128.38-86.47-55.01-55-86.47-128.34T76.78-480.46q0-84.06 31.46-156.95 31.46-72.88 86.47-127.88 55-55.01 128.34-86.47t157.41-31.46q84.06 0 156.95 31.46 72.88 31.46 127.88 86.47 55.01 55 86.47 128.11 31.46 73.11 31.46 156.9 0 83.8-31.46 157.19-31.46 73.38-86.47 128.38-55 55.01-128.11 86.47-73.11 31.46-156.9 31.46Zm-.05-98q128.07 0 216.53-88.69 88.46-88.68 88.46-216.76 0-128.07-88.69-216.53-88.68-88.46-216.76-88.46-128.07 0-216.53 88.69-88.46 88.68-88.46 216.76 0 128.07 88.69 216.53 88.68 88.46 216.76 88.46ZM480-480Z"/></svg>