<svg xmlns="http://www.w3.org/2000/svg" height="20" viewBox="0 -960 960 960" width="20"><path d="M480-82.78q-83.27 0-156.5-31.41-73.24-31.42-128.57-86.74-55.32-55.33-86.74-128.57Q76.78-402.73 76.78-486q0-61.24 17.85-119.37t52.11-109.07l-52.7-54.17q-12.08-12.17-12.08-27.65 0-15.47 12.19-27.54 12.19-12.07 28.49-12.07 16.3 0 28.1 12.13l667.57 667q12.69 12.7 12.41 28.11-.28 15.41-12.98 28.11-11.72 12.13-27.84 12.13-16.12 0-28.29-12.19l-53.17-52.16q-50.94 34.26-109.07 52.11Q541.24-82.78 480-82.78Zm80.65-483.87ZM406.57-412.57Zm-70.26-442.82q34.38-13.92 70.38-20.87 36.01-6.96 73.31-6.96 81.17 0 155.24 30.7 74.06 30.69 130.33 86.95 56.26 56.27 86.95 130.33 30.7 74.07 30.7 155.24 0 37.46-7.46 73.62-7.45 36.16-21.37 70.07-7.56 19.66-26.69 26.48-19.13 6.83-37.57-2.87-18.65-9.69-24.91-28.83-6.26-19.14.17-39.12 9.48-23.66 14.65-48.55 5.18-24.9 5.18-50.8 0-126.61-89.31-215.91-89.3-89.31-215.91-89.31-25.9 0-50.8 4.68-24.89 4.67-48.55 14.15-19.65 5.43-38.45-.33-18.81-5.76-28.5-24.91-9.7-19.15-3.37-37.68 6.32-18.52 25.98-26.08ZM573.59-508.2l-65.39-65.39q-11.55-11.54-6.57-24.43t18.94-16.46l85.56-21q13.07-3.56 22.99 6.36 9.92 9.92 6.36 22.99l-21 85.56q-3.57 13.96-16.46 18.94t-24.43-6.57ZM480-175.78q42.13 0 81.8-10.94 39.68-10.93 74.98-32.24L497.7-358.04l-143.83 33.52q-13.07 3.56-22.99-6.36-9.92-9.92-6.36-22.99l33.52-143.26-139.08-140.65q-21.87 35.3-33.02 74.76-11.16 39.46-11.16 82.02 0 127.41 88.9 216.32 88.91 88.9 216.32 88.9Z"/></svg>