<svg xmlns="http://www.w3.org/2000/svg" height="20" viewBox="0 -960 960 960" width="20"><path d="M269.91-287.69v-144h421.87v144H269.91ZM480.13-711q20.4 0 34.2-13.8 13.8-13.8 13.8-34.2 0-19.84-13.8-33.92-13.8-14.08-34.2-14.08-20.4 0-34.2 13.8-13.8 13.8-13.8 34.2 0 20.4 13.8 34.2 13.8 13.8 34.2 13.8ZM275.48-503.69q11-47.66 43.74-85.4 32.74-37.74 78.39-57.43-13.96-9.13-24.57-21.68-10.61-12.54-18.43-27.5l-129.46-27.57q-10.33-1.54-16.24-9.53-5.91-7.98-5.91-17.37v-11.62q0-10.86 5.76-18.47 5.76-7.61 16.72-8.61l127.13-27.87q16.82-35.96 50.06-58.78 33.24-22.83 77.46-22.83 26.63 0 50.27 9.57 23.64 9.56 42.9 26.26l99.87-20.74q23.07-4.13 41.45 10.23Q733-858.67 733-835.83v157.66q0 23.45-18.59 38.29-18.58 14.84-41.24 10.71L569.3-651.48q-2.09 1.13-4.09 2.26-1.99 1.13-3.69 2.7 45.65 18.13 78.39 56.15 32.74 38.02 44.31 87.24l-408.74-.56Zm92.43 426.91q-44.3 0-71.15-26.85-26.85-26.85-26.85-71.15v-40.91h421.87v40.91q0 44.3-26.84 71.15-26.85 26.85-71.16 26.85H367.91Z"/></svg>