<svg xmlns="http://www.w3.org/2000/svg" height="20" viewBox="0 -960 960 960" width="20"><path d="M173.22-124.78q-20.09 0-34.26-14.46-14.18-14.46-14.18-34.54 0-20.09 14.46-34.26 14.46-14.18 34.54-14.18h613q20.09 0 34.26 14.46 14.18 14.46 14.18 34.54 0 20.09-14.46 34.26-14.46 14.18-34.54 14.18h-613Zm552.04-193.83L195-476.61q-31.48-8.69-50.85-35.04t-19.37-58.83v-164.61q0-25.08 19.46-39.69t42.98-7.92l28.21 8.26q11.27 3.57 19.68 12.27 8.41 8.69 12.54 19.95l38.87 115.61 111.22 34.35-22.87-252.26q-2.57-31.65 21.89-51.83 24.46-20.17 55.11-11.04l25.09 7.13q14.82 5.13 25.58 14.54 10.76 9.42 15.33 24.24l108 336 148.74 43.44q26.96 7.56 43.78 30.74 16.83 23.17 16.83 50.69 0 41.22-34.09 68.24-34.09 27.02-75.87 13.76Z"/></svg>