<svg xmlns="http://www.w3.org/2000/svg" height="20" viewBox="0 -960 960 960" width="20"><path d="M883.22-167.17q-1.7 24-26.52 32.65-24.83 8.65-44.09-10.61l-65.31-65.38H375.85q-41.01 0-69.52-28.53-28.5-28.53-28.5-69.57v-48h374.39q41 0 69.5-28.5 28.5-28.49 28.5-69.5v-229.26h48q41 0 69.5 28.51t28.5 69.54v406.21q0 6.22-4.24 9.33-4.24 3.11-8.76 3.11ZM161.78-511.18l15.44-15.43h403v-273.87H161.78v289.3Zm-48.82 165.96q-18.7 0-33.94-12.61-15.24-12.61-15.24-35.82v-406.83q0-41 28.5-69.5t69.5-28.5h418.44q41 0 69.5 28.5t28.5 69.5v273.87q0 41.01-28.5 69.5-28.5 28.5-69.5 28.5h-363.4l-69.99 69.44q-7.58 7.26-16.33 10.6-8.75 3.35-17.54 3.35Zm48.82-181.39v-273.87 273.87Z"/></svg>