<svg xmlns="http://www.w3.org/2000/svg" height="20" viewBox="0 -960 960 960" width="20"><path d="M489.61-379.48q12.11 0 20.03-7.9 7.93-7.91 7.93-20v-144.81q0-12.09-7.92-20.21-7.92-8.12-20.03-8.12-12.11 0-20.32 7.9-8.21 7.91-8.21 20v144.81q0 12.09 8.08 20.21 8.08 8.12 20.44 8.12Zm-171.96 0h49.13q22.08 0 37.02-14.61 14.94-14.61 14.94-36.21v-21.74q0-12.12-7.92-20.04T390.8-480q-12.11 0-20.33 7.92-8.21 7.92-8.21 20.04v15.52h-40.65v-86.96h68.61q12.36 0 20.44-8.08 8.08-8.08 8.08-20.44 0-12.36-8.08-20.44-8.08-8.08-20.44-8.08h-72.57q-22.32 0-37.42 15.1-15.1 15.1-15.1 37.42v96q0 22.32 15.1 37.42 15.1 15.1 37.42 15.1Zm259.48 0q12.12 0 20.04-8.08t7.92-20.44v-38.39h38.39q12.11 0 20.03-8.08 7.92-8.08 7.92-20.44 0-12.12-7.92-20.04t-20.03-7.92h-38.39v-20.61h49.95q12.36 0 20.44-8.08 8.08-8.08 8.08-20.44 0-12.36-8.06-20.44-8.06-8.08-20.38-8.08H577.5q-12.33 0-20.61 8.06-8.28 8.07-8.28 20.41v144.24q0 12.09 8.08 20.21 8.08 8.12 20.44 8.12Zm-354.35 254.7q-40.3 0-69.15-28.85-28.85-28.85-28.85-69.15v-514.44q0-41 28.85-69.5t69.15-28.5h514.44q41 0 69.5 28.5t28.5 69.5v514.44q0 40.3-28.5 69.15-28.5 28.85-69.5 28.85H222.78Zm0-98h514.44v-514.44H222.78v514.44Zm0 0v-514.44 514.44Z"/></svg>