<svg xmlns="http://www.w3.org/2000/svg" height="20" viewBox="0 -960 960 960" width="20"><path d="m444-306.09-41.52-55.69q-11.14-15.52-30.35-15.24-19.22.28-30.03 15.58l-58.83 82.28q-8.79 12.38-2.41 25.77 6.38 13.39 21.4 13.39h355.67q15.33 0 21.46-13.39 6.13-13.39-2.56-25.78L570.57-424.3q-8.79-1-16.41-3.02-7.63-2.01-14.33-6.2L444-306.09ZM222.78-76.78q-41 0-69.5-28.5t-28.5-69.5v-514.44q0-41 28.5-69.5t69.5-28.5H359q20.39 0 34.69 14.25Q408-758.73 408-738.43q0 20.3-14.31 34.76-14.3 14.45-34.69 14.45H222.78v514.44h514.44v-133q0-20.39 14.24-34.7 14.25-14.3 34.55-14.3 20.29 0 34.75 14.3 14.46 14.31 14.46 34.7v133q0 41-28.5 69.5t-69.5 28.5H222.78ZM480-432Zm167.53-48Q578-480 529-529t-49-119q0-70 49-119t119-49q70 0 119 48.95t49 118.88q0 25.17-7 47.67T789-558l98 98q11 11 11 25t-11 25q-11 11-25.5 11t-25.71-11.1L738-507q-20 13-42.55 20-22.55 7-47.92 7Zm.24-72Q688-552 716-579.77q28-27.78 28-68Q744-688 716.23-716q-27.78-28-68-28Q608-744 580-716.23q-28 27.78-28 68Q552-608 579.77-580q27.78 28 68 28Z"/></svg>