<svg xmlns="http://www.w3.org/2000/svg" height="20" viewBox="0 -960 960 960" width="20"><path d="M147.39-172.78q-44.3 0-71.15-26.85-26.85-26.85-26.85-71.15v-418.44q0-44.3 26.85-71.15 26.85-26.85 71.15-26.85h665.22q44.3 0 71.15 26.85 26.85 26.85 26.85 71.15v418.44q0 44.3-26.85 71.15-26.85 26.85-71.15 26.85H147.39Zm0-98h665.22v-418.44H147.39v418.44Zm221.74-48h221.98q18.16 0 30.61-12.55t12.45-30.63q0-18.08-12.28-30.52-12.29-12.43-30.46-12.43H368.89q-18.16 0-30.61 12.22-12.45 12.23-12.45 30.31t12.59 30.84q12.6 12.76 30.71 12.76Zm-221.74 48v-418.44 418.44ZM257.61-553.7q18.08 0 30.52-12.55 12.44-12.55 12.44-30.62 0-18.08-12.23-30.52-12.23-12.44-30.31-12.44-18.07 0-30.83 12.23-12.77 12.23-12.77 30.31 0 18.07 12.55 30.83 12.56 12.76 30.63 12.76Zm148.52 0q18.08 0 30.52-12.55 12.44-12.55 12.44-30.62 0-18.08-12.23-30.52-12.23-12.44-30.31-12.44-18.07 0-30.83 12.23-12.76 12.23-12.76 30.31 0 18.07 12.55 30.83 12.55 12.76 30.62 12.76Zm147.96 0q18.08 0 30.52-12.55 12.43-12.55 12.43-30.62 0-18.08-12.22-30.52-12.23-12.44-30.31-12.44t-30.84 12.23q-12.76 12.23-12.76 30.31 0 18.07 12.55 30.83 12.55 12.76 30.63 12.76Zm148.52 0q18.08 0 30.52-12.55 12.44-12.55 12.44-30.62 0-18.08-12.23-30.52-12.23-12.44-30.31-12.44-18.07 0-30.83 12.23-12.77 12.23-12.77 30.31 0 18.07 12.56 30.83 12.55 12.76 30.62 12.76Zm-445 117.18q18.08 0 30.52-12.55 12.44-12.55 12.44-30.63t-12.23-30.51q-12.23-12.44-30.31-12.44-18.07 0-30.83 12.23-12.77 12.22-12.77 30.3t12.55 30.84q12.56 12.76 30.63 12.76Zm148.52 0q18.08 0 30.52-12.55 12.44-12.55 12.44-30.63t-12.23-30.51q-12.23-12.44-30.31-12.44-18.07 0-30.83 12.23-12.76 12.22-12.76 30.3t12.55 30.84q12.55 12.76 30.62 12.76Zm147.96 0q18.08 0 30.52-12.55 12.43-12.55 12.43-30.63t-12.22-30.51q-12.23-12.44-30.31-12.44t-30.84 12.23q-12.76 12.22-12.76 30.3t12.55 30.84q12.55 12.76 30.63 12.76Zm148.52 0q18.08 0 30.52-12.55 12.44-12.55 12.44-30.63t-12.23-30.51q-12.23-12.44-30.31-12.44-18.07 0-30.83 12.23-12.77 12.22-12.77 30.3t12.56 30.84q12.55 12.76 30.62 12.76Z"/></svg>