<svg xmlns="http://www.w3.org/2000/svg" height="20" viewBox="0 -960 960 960" width="20"><path d="m751.61-336.39-69.09-69.09L737.56-480 582.13-689.78H398.31l-97.53-97.44h280.31q23.5 0 44.21 10.35 20.7 10.36 35.4 29.39L859.22-480 751.61-336.39Zm-577.39 66.17h415.82L174.22-686.48v416.26ZM816.13-44.13 654.44-205.26q-10.83 14.96-28.35 23.72-17.52 8.76-36.05 8.76H174.78q-41 0-69.5-28.5t-28.5-69.5v-418.44q0-19.02 7.26-36.14T103.7-757L56-804.7l57.22-57.21 759.56 761.13-56.65 56.65ZM568.17-547.35Zm-186.04 69.22Z"/></svg>