<svg xmlns="http://www.w3.org/2000/svg" height="20" viewBox="0 -960 960 960" width="20"><path d="M584.61-172.78H173.09q-30.22 0-44.24-26.78-14.02-26.79 4.05-51.54L301.26-480 132.9-708.9q-18.07-24.75-4.05-51.54 14.02-26.78 44.24-26.78h412.08q23.64 0 44.08 10.33 20.45 10.32 35.4 29.98L817.61-537.7q18.52 26.79 18.52 57.7 0 30.91-18.52 57.7L664.09-213.09q-14.96 19.66-35.65 29.98-20.7 10.33-43.83 10.33Zm-312.96-97.44h314.09L737.56-480 585.74-689.78H271.65L383-537.13q17.96 26.78 17.96 57.13T383-422.87L271.65-270.22ZM504.61-480Z"/></svg>