<svg xmlns="http://www.w3.org/2000/svg" height="20" viewBox="0 -960 960 960" width="20"><path d="M480-103.17q-15.26 0-28.74-5.07-13.48-5.06-26.17-15.19-43.39-36.7-92.16-84.27-48.76-47.56-90.17-102.69-41.41-55.13-67.7-116.17-26.28-61.05-26.28-124.7 0-34.83 6.07-67.65 6.06-32.83 18.76-62.66L115-740.17q-12.13-12.13-12.13-28.33 0-16.2 12.13-28.33 12.13-12.13 28.33-12.13 16.19 0 28.32 12.13l635.22 635.22q12.13 12.13 11.85 28.05-.28 15.91-12.42 28.04-12.13 12.13-28.32 12.13-16.2 0-28.33-12.13L636.74-218.43q-25.13 27.13-52.83 51.91-27.69 24.78-49 43.09-12.69 10.13-26.17 15.19-13.48 5.07-28.74 5.07Zm0-780.05q140.35 0 235.78 95.02 95.44 95.03 95.44 236.94 0 34.17-8.46 68.43-8.45 34.26-26.37 70.61-12.13 26.92-41.54 32.18-29.41 5.26-52.2-17.53L553.61-527.61q1.74-6.3 2.89-12.26 1.15-5.96 1.15-12.13 0-16.13-6.06-30.26-6.07-14.13-16.63-24.7-10.57-10.56-24.7-16.63-14.13-6.06-30.26-6.06-6.17 0-12.13 1.15-5.96 1.15-12.26 2.89L327-754.22q-21.65-21.65-18.46-52.06 3.2-30.42 30.11-44.11 31.61-14.92 66.81-23.87 35.19-8.96 74.54-8.96Z"/></svg>