<svg xmlns="http://www.w3.org/2000/svg" height="20" viewBox="0 -960 960 960" width="20"><path d="M480.28-76.78q-81.54 0-154.08-30.57-72.55-30.56-127.59-84.19-55.05-53.63-87.31-124.86-32.26-71.22-34.52-152.86h98.57q1.69 61.17 26.43 115.13 24.73 53.96 65.87 93.85 41.13 39.89 95.71 62.69 54.58 22.81 116.44 22.81 127.37 0 216.4-89.02 89.02-89.03 89.02-216.2 0-127.17-89.02-216.2-89.03-89.02-216.2-89.02-75.09 0-139.28 32.79-64.2 32.78-106.2 89.73h88.22v97.44H76.78v-245.96h97.44v70.48q55.82-65.65 134.68-104.07 78.86-38.41 171.1-38.41 83.96 0 156.85 31.41 72.89 31.42 128.22 86.74 55.32 55.33 86.74 128.45 31.41 73.11 31.41 156.34 0 83.24-31.41 156.63-31.42 73.39-86.74 128.72-55.33 55.32-128.45 86.74-73.11 31.41-156.34 31.41Zm-72-259.22q-15.28 0-25.78-10.33-10.5-10.33-10.5-25.6v-107.8q0-15.27 10.37-25.64 10.38-10.38 25.71-10.38v-36.08q0-29.77 21.19-50.97 21.2-21.2 50.97-21.2 29.76 0 50.83 21.15 21.07 21.15 21.07 50.85v36q15.24 0 25.55 10.35T588-480v108q0 15.3-10.33 25.65Q567.33-336 552.06-336H408.28ZM444-516h72v-35.79q0-15.21-10.29-25.71t-25.5-10.5q-15.21 0-25.71 10.35T444-552v36Z"/></svg>