<svg xmlns="http://www.w3.org/2000/svg" height="20" viewBox="0 -960 960 960" width="20"><path d="M266.83-78.48q-41.01 0-69.51-28.5-28.5-28.49-28.5-69.5v-370.43q0-41.01 28.5-69.51 28.5-28.49 69.51-28.49H275v-79.61q0-85.9 58.49-144.04 58.48-58.14 142.21-58.14 83.73 0 142.28 58.14 58.54 58.14 58.54 144.04v79.61h8.18q41 0 69.5 28.49 28.5 28.5 28.5 69.51v11.61q0 18.64-14.05 31.06-14.04 12.41-32.43 10.98-15.09-1-27.83.63-12.74 1.63-23.69 4.33-87.27 19.61-149.22 88.78-61.96 69.17-61.96 170.82 0 22.05 3.59 45 3.59 22.96 11.89 45.27 7.13 21.78-2.91 40.87-10.05 19.08-32.47 19.08H266.83ZM737.3-36.7q-79.78 0-135.78-56.22-56-56.23-56-136 0-79.78 56.23-135.78 56.22-56 136-56 79.77 0 135.77 56.23 56 56.23 56 136 0 79.77-56.22 135.77-56.23 56-136 56ZM373-644.91h205.52v-79.61q0-45.48-30.05-74.83-30.06-29.35-72.99-29.35-42.7 0-72.59 29.35T373-724.52v79.61ZM737.52-108.7q32 0 59-16t43-42q-23-13-48.5-19.5t-53.5-6.5q-28 0-53.5 7t-48.5 19q16 26 43 42t59 16Zm0-120q25 0 42.5-17.5t17.5-42.5q0-25-17.5-42.5t-42.5-17.5q-25 0-42.5 17.5t-17.5 42.5q0 25 17.5 42.5t42.5 17.5Z"/></svg>