<svg xmlns="http://www.w3.org/2000/svg" height="20" viewBox="0 -960 960 960" width="20"><path d="M883.22-480.28q0 83.24-31.41 156.63-31.42 73.39-86.74 128.72-55.33 55.32-128.22 86.74-72.89 31.41-157.33 31.41-73.12 0-139.82-25.09-66.7-25.09-119.11-69.61-52.42-44.52-88.53-106.04-36.1-61.52-48.19-133.83-4.83-22.21 7.43-36.8 12.26-14.59 30.22-18.35 18.52-3.76 34.76 5.3 16.24 9.07 21.52 34 22.03 108.55 106.49 180.48 84.46 71.94 195.71 71.94 127.17 0 216.2-89.02 89.02-89.03 89.02-216.2 0-127.17-89.02-216.2-89.03-89.02-216.2-89.02-75.09 0-139.28 32.79-64.2 32.78-106.2 89.73h39.78q20.39 0 34.42 14.25 14.02 14.25 14.02 34.54 0 20.3-14.01 34.48-14.01 14.17-34.37 14.17h-148.3q-20.36 0-34.82-14.29t-14.46-34.66v-148.3q0-20.36 15.1-34.53 15.09-14.18 41.04-14.18 16.91 0 29.1 12.05 12.2 12.04 12.2 29.04v29.39q55.82-65.65 134.68-104.07 78.86-38.41 171.1-38.41 83.96 0 156.85 31.41 72.89 31.42 128.22 86.74 55.32 55.33 86.74 128.45 31.41 73.11 31.41 156.34ZM408.28-336q-15.28 0-25.78-10.33-10.5-10.33-10.5-25.6v-107.8q0-15.27 10.37-25.64 10.38-10.38 25.71-10.38v-36.08q0-29.77 21.19-50.97 21.2-21.2 50.97-21.2 29.76 0 50.83 21.15 21.07 21.15 21.07 50.85v36q15.24 0 25.55 10.35T588-480v108q0 15.3-10.33 25.65Q567.33-336 552.06-336H408.28ZM444-516h72v-35.79q0-15.21-10.29-25.71t-25.5-10.5q-15.21 0-25.71 10.35T444-552v36Z"/></svg>