<svg xmlns="http://www.w3.org/2000/svg" height="20" viewBox="0 -960 960 960" width="20"><path d="M174.78-172.78q-41 0-69.5-28.51t-28.5-69.53V-689.5q0-41.02 28.5-69.37t69.5-28.35h610.44q41 0 69.5 28.51t28.5 69.53v418.68q0 41.02-28.5 69.37t-69.5 28.35H174.78Zm0-146v48h610.44v-48H174.78Zm0 0v48-48ZM556.65-504v29.35q0 18.12 12.55 30.73 12.55 12.62 30.59 12.62t30.8-12.62q12.76-12.61 12.76-30.73V-504h29.35q18.12 0 30.73-12.55t12.61-30.59q0-18.03-12.61-30.8-12.61-12.76-30.73-12.76h-29.35v-29.34q0-18.13-12.55-30.74t-30.59-12.61q-18.04 0-30.8 12.61-12.76 12.61-12.76 30.74v29.34H527.3q-18.12 0-30.73 12.55t-12.61 30.59q0 18.04 12.61 30.8Q509.18-504 527.3-504h29.35Zm-381.87 98.52h610.44v-283.74H174.78v283.74Z"/></svg>