<svg xmlns="http://www.w3.org/2000/svg" height="20" viewBox="0 -960 960 960" width="20"><path d="M791.7-36.78 67.43-760.48q-12.69-12.69-12.19-27.82t13.19-27.83q12.7-12.7 28.11-12.7 15.42 0 28.11 12.7l723.7 723.7q12.69 12.69 12.69 27.82t-12.69 27.83q-12.7 12.7-28.33 12.7-15.63 0-28.32-12.7ZM307.78-929.52h355.74q41.01 0 69.5 28.5 28.5 28.49 28.5 69.5v127.61q20.57 2.26 34.57 18.52 14 16.26 14 37.96v93.17q0 21.69-14 38.24-14 16.54-34.57 18.8v97.18q0 24.5-15.31 36.75t-33.69 12.25q-18.59 0-34.07-12.05-15.49-12.04-15.49-36.39v-432.04H209.78q0-39.73 28.85-68.86 28.85-29.14 69.15-29.14Zm172.01 224.78q17.13 0 28.93-11.59t11.8-28.72q0-17.13-11.59-28.93t-28.72-11.8q-17.13 0-28.93 11.59t-11.8 28.72q0 17.13 11.59 28.93t28.72 11.8ZM296.48-30.48q-41.01 0-69.5-28.5-28.5-28.49-28.5-69.5v-614.39l98 98v516.39h366.76-.28v-149.35l98.56 98.57v50.78q0 41.05-29.56 69.52-29.57 28.48-67.31 28.48H296.48Zm134-355.91Zm114.74-110.87Z"/></svg>