<svg xmlns="http://www.w3.org/2000/svg" height="20" viewBox="0 -960 960 960" width="20"><path d="M148.78-561.87q0-126.09 95.52-223.43 95.53-97.35 236.83-97.35 138.35 0 232.24 92.13 93.89 92.13 97.28 220.78l56-55.44q12.7-12.69 28.89-12.41 16.2.28 28.9 12.98 12.69 12.7 12.69 28.89 0 16.2-12.69 28.89L796.83-439.22q-14.39 14.39-34.05 14.39-19.65 0-34.61-14.39L599.43-566.26q-12.69-12.7-12.19-28.89.5-16.2 13.19-28.89 12.7-12.7 28.9-12.7 16.19 0 28.89 12.7l54.43 54.86q-3.95-88.43-71.19-151.95-67.24-63.52-160.33-63.52-96.61 0-165.48 66.87-68.87 66.87-68.87 156.17 0 77 55.96 164.26 55.96 87.26 175 193.35 12.65-10.22 20.37-18.15 7.71-7.94 18.5-18.15-7.87-10.87-11.24-24.53-3.37-13.65-3.37-29.08 0-45.65 32.24-77.89t77.89-32.24q45.65 0 77.89 32.24t32.24 77.89q0 45.65-32.24 77.89t-77.89 32.24q-2.87 0-5.87.56-3 .57-6.43-.43-13.35 13.22-26.57 26.43-13.22 13.22-28.87 26.44-14.52 12.39-31.04 18.87t-34.61 6.48q-18.52 0-34.41-6.42-15.9-6.41-30.29-18.11-131.74-111.95-198.5-220.76-66.76-108.8-66.76-211.15Z"/></svg>