<svg xmlns="http://www.w3.org/2000/svg" height="20" viewBox="0 -960 960 960" width="20"><path d="M408-106.43q-16.39 0-31-5.13-14.61-5.14-29-15.83-55.83-49.7-105.44-101.5-49.61-51.81-86.78-105.24-37.17-53.44-58.09-107.98-20.91-54.54-20.91-109.15 0-141.91 94.94-236.94 94.93-95.02 236.28-95.02 61.17 0 120.43 23.44 59.27 23.43 105.44 64.87 46.17 41.43 74.57 97.08 28.39 55.65 28.39 120.65 0 24.27-16.68 45.22-16.67 20.96-41.76 27.66-39.69 12.13-70.04 38.32Q578-439.78 558-406.09q-21.7 35.96-28.98 79.55-7.28 43.58 2.11 87.11 5.13 22.56 3.35 37.17-1.78 14.61-19.35 32.17-11.17 11.74-23.63 22.42-12.46 10.67-24.06 20.28-14.4 10.69-28.72 15.83-14.33 5.13-30.72 5.13Zm0-475.22q30 0 51-21t21-51q0-30-21-51t-51-21q-30 0-51 21t-21 51q0 30 21 51t51 21Zm319.52 343.22h-76.26q-20.09 0-34.54-14.46-14.46-14.46-14.46-34.54 0-20.09 14.46-34.55 14.45-14.46 34.54-14.46h76.26l-10.65-11.65q-14.39-14.39-14.11-32.91.28-18.52 15.81-34.04 15.52-15.53 34.82-15.53 19.31 0 34.83 15.53l90.43 93q14.96 14.95 14.96 34.61 0 19.65-14.96 34.6l-91 93q-15.52 15.53-35.39 14.68-19.87-.85-35.96-16.94-14.39-14.39-14.39-32.34 0-17.96 14.39-32.35l11.22-11.65ZM408-389.65q34.04 0 66.5-10.18 32.46-10.17 58.33-32.65 6.69-6.69 10.6-13.61 3.92-6.91 3.92-16.17 0-13.39-7.76-24.44-7.76-11.04-18.59-17.17-26.17-14.17-55.07-21.98-28.89-7.8-57.93-7.8t-57.93 8.08q-28.9 8.09-55.07 21.7-10.83 6.13-17.8 16.67-6.98 10.55-6.98 23.37 0 8.7 3.13 16.96 3.13 8.26 9.82 14.39 25.31 23.05 58.05 32.94 32.74 9.89 66.78 9.89Z"/></svg>