<svg xmlns="http://www.w3.org/2000/svg" height="20" viewBox="0 -960 960 960" width="20"><path d="M727.52-238.43h-76.57q-20.25 0-34.47-14.25-14.22-14.25-14.22-34.54 0-20.3 14.22-34.76 14.22-14.46 34.47-14.46h76.57l-10.65-11.65q-14.39-14.39-14.11-32.91.28-18.52 15.81-34.04 15.52-15.53 34.82-15.53 19.31 0 34.83 15.53l90.43 93q14.96 14.59 14.96 34.42 0 19.84-14.96 34.79l-91 93q-15.52 15.53-35.39 14.68-19.87-.85-35.96-16.94-14.39-14.39-14.39-32.34 0-17.96 14.39-32.35l11.22-11.65ZM408.21-581.65q29.79 0 50.79-21.21 21-21.22 21-51 0-29.79-21.21-50.79t-51-21q-29.79 0-50.79 21.21t-21 51q0 29.79 21.21 50.79t51 21Zm-.21 85.13ZM76.78-551.26q0-141.91 94.94-236.94 94.93-95.02 236.28-95.02 69.35 0 127.68 23.87 58.32 23.87 100.65 65.67 42.32 41.81 68.56 99.33 26.24 57.52 31.63 124.39 2.13 20.39-11.86 34.7-14 14.3-34.26 14.3-20.27 0-34.29-14.3-14.02-14.31-17.15-34.7-8.66-91.13-74.9-153.19-66.25-62.07-156.55-62.07-99.68 0-166.21 66.46-66.52 66.46-66.52 167.5 0 76.65 59.09 159.3Q292.96-309.3 408-206.26q10.61-10.18 22.13-19.63 11.52-9.46 22.83-18.63 15.52-14.39 35.11-14.89 19.58-.5 34.54 15.02T537-209q-.56 19.87-15.52 34.26-14.1 12.84-29.2 25.72-15.11 12.89-29.37 25.59-12.69 10.13-26.17 15.19-13.48 5.07-28.74 5.07-15.26 0-28.74-5.07-13.48-5.06-26.17-15.19-45.53-38.83-94-86.68-48.48-47.85-89.01-102.79-40.53-54.95-66.91-115.11-26.39-60.16-26.39-123.25ZM408-389.65q34.04 0 66.5-10.18 32.46-10.17 58.33-32.65 6.69-6.69 10.6-13.61 3.92-6.91 3.92-15.78 0-13.78-7.76-24.83-7.76-11.04-18.59-17.17-26.17-14.17-54.87-21.98-28.7-7.8-57.94-7.8-29.23 0-58.12 8.08-28.9 8.09-55.07 21.7-10.93 5.71-17.85 16.51-6.93 10.79-6.93 23.7 0 9.03 3.13 17.25t9.82 13.93q25.31 23.05 58.05 32.94 32.74 9.89 66.78 9.89Z"/></svg>