<svg xmlns="http://www.w3.org/2000/svg" height="20" viewBox="0 -960 960 960" width="20"><path d="M221.99-148.78q-20.29 0-34.75-14.31t-14.46-34.69v-47h-47q-20.38 0-34.69-14.25-14.31-14.24-14.31-34.54 0-20.3 14.31-34.76 14.31-14.45 34.69-14.45h47v-47q0-20.39 14.25-34.7 14.24-14.3 34.54-14.3 20.3 0 34.76 14.3 14.45 14.31 14.45 34.7v47h47q20.39 0 34.7 14.24 14.3 14.25 14.3 34.55 0 20.29-14.3 34.75-14.31 14.46-34.7 14.46h-47v47q0 20.38-14.24 34.69-14.25 14.31-34.55 14.31Zm180.14-24q17.83-26.83 27.24-57.77 9.41-30.94 9.41-63.23 0-90.09-63.45-153.55-63.46-63.45-153.55-63.45-39.39 0-77.29 14.28-37.9 14.29-67.71 41.07v-233.48q0-41.61 28.5-69.96 28.5-28.35 69.5-28.35h406.44q23.06 0 43.79 10.33 20.73 10.32 35.69 29.41l155.78 209.22q19.09 27.35 19.09 58.26 0 30.91-19.09 58.26L660.7-212.52q-14.96 19.09-35.69 29.41-20.73 10.33-43.79 10.33H402.13Z"/></svg>