<svg xmlns="http://www.w3.org/2000/svg" height="20" viewBox="0 -960 960 960" width="20"><path d="M480-206.26q115.04-102.48 174.13-185.41 59.09-82.94 59.09-159.59 0-101.03-66.54-167.49-66.55-66.47-166.7-66.47-100.15 0-166.68 66.47-66.52 66.46-66.52 167.49 0 76.65 59.09 159.3Q364.96-309.3 480-206.26Zm-.13 103.09q-15.13 0-28.66-5.07-13.53-5.06-26.12-15.19-43.39-36.7-92.16-84.27-48.76-47.56-90.17-102.69-41.41-55.13-67.7-116.17-26.28-61.05-26.28-124.7 0-141.76 94.8-236.86 94.79-95.1 235.92-95.1t236.42 95.1q95.3 95.1 95.3 236.86 0 63.65-26.78 125.2-26.79 61.54-67.7 116.67-40.91 55.13-89.67 102.19-48.77 47.07-92.16 83.77-12.67 10.13-26.29 15.19-13.63 5.07-28.75 5.07ZM480-552Zm0 162.35q34.04 0 66.5-10.18 32.46-10.17 58.33-32.65 6.69-5.71 10.32-13.69 3.63-7.97 3.63-16.55 0-13.5-7.48-24.26-7.47-10.76-18.3-16.89-25.61-14.17-54.78-21.98-29.18-7.8-58.22-7.8t-58.22 7.8q-29.17 7.81-54.66 21.98-10.95 6.13-18.21 16.59-7.26 10.46-7.26 23.25 0 8.74 3.42 16.85 3.41 8.12 10.1 14.7 25.87 22.48 58.33 32.65 32.46 10.18 66.5 10.18Zm.21-192q29.79 0 50.79-21.21 21-21.22 21-51 0-29.79-21.21-50.79t-51-21q-29.79 0-50.79 21.21t-21 51q0 29.79 21.21 50.79t51 21Z"/></svg>