<svg xmlns="http://www.w3.org/2000/svg" height="20" viewBox="0 -960 960 960" width="20"><path d="M589-544.87q14 0 24.5-10t10.5-25v-9l8 5q11 8 25.5 4.5t22.5-17.5q7-11 3-25t-16-23l-7-5 8-5q12-8 15.5-21.5t-3.5-26.5q-8-13-22-17t-26 4l-8 5v-10q0-14-10.5-24.5t-24.5-10.5q-15 0-25 10.5t-10 24.5v10l-8.1-5q-13.16-8-26.81-4-13.65 4-21.23 16-7.86 13-4.36 27t16.5 22l8 5-8 4q-14 7-17.5 21t4.5 27q8 14 22 17.5t26-4.5l8-5v10q0 15 10.5 25t25.5 10Zm0-70q-15 0-25-10t-10-25q0-14 10-24.5t25-10.5q14 0 24.5 10.5t10.5 24.5q0 15-10.5 25t-24.5 10Zm1 195q27 0 51-10t43-28q12.84-12.61 22.51-28.76 9.66-16.15 15.79-34.33 3.7-11.82-4.84-21.08-8.55-9.26-20.94-6.13-18.74 3.56-34.69 13-15.96 9.43-29.83 22.3-19 18-29.5 41.5t-12.5 51.5Zm-2 0q-2-28-13.5-52t-30.5-42q-13.87-12.87-29.83-21.3-15.95-8.44-34.69-13-11.83-3.13-21.15 6.13-9.33 9.26-5.63 21.08 5.56 18.18 15.5 34.2 9.93 16.02 23.8 28.89 19 18 43.5 28t52.5 10ZM233.3-64.91q-39.74 4.56-71.65-20.15-31.91-24.72-37.61-64.46L67.17-564.39q-5.69-40.74 19.37-73 25.07-32.26 65.81-37.39l58-6.44v302q0 71.31 50.35 120.65 50.34 49.35 121.65 49.35h333.74q2.65 33.61-19.37 59.03-22.02 25.41-53.5 29.54L233.3-64.91Zm147.05-216.31q-44.31 0-71.15-26.85-26.85-26.84-26.85-71.15v-417.87q0-44.3 26.85-71.15 26.84-26.85 71.15-26.85h418.43q44.31 0 71.16 26.85 26.84 26.85 26.84 71.15v417.87q0 44.31-26.84 71.15-26.85 26.85-71.16 26.85H380.35Z"/></svg>