<svg xmlns="http://www.w3.org/2000/svg" height="20" viewBox="0 -960 960 960" width="20"><path d="M240.22-331.65q-19.7 14.69-41.46 3.56Q177-339.22 177-364.04v-231.92q0-24.82 21.76-35.95 21.76-11.13 41.46 3.56l165.87 115.96q16.69 12.13 16.69 32.39 0 20.26-16.69 32.39L240.22-331.65Zm323.99 43.96q-20.3 0-34.75-14.31Q515-316.31 515-336.7v-286.6q0-20.39 14.25-34.7 14.24-14.31 34.54-14.31 20.3 0 34.75 14.31Q613-643.69 613-623.3v286.6q0 20.39-14.25 34.7-14.24 14.31-34.54 14.31Zm170 0q-20.3 0-34.75-14.31Q685-316.31 685-336.7v-286.6q0-20.39 14.25-34.7 14.24-14.31 34.54-14.31 20.3 0 34.76 14.31Q783-643.69 783-623.3v286.6q0 20.39-14.24 34.7-14.25 14.31-34.55 14.31Z"/></svg>