<svg xmlns="http://www.w3.org/2000/svg" height="20" viewBox="0 -960 960 960" width="20"><path d="M480.28-76.78q-83.8 0-157.19-31.41-73.39-31.42-128.44-86.46-55.04-55.05-86.46-128.25Q76.78-396.1 76.78-480q0-69.87 21.74-130.74 21.74-60.87 60.91-113 14.39-18.65 32.98-19.28 18.59-.63 33.11 10.63 14.52 11.26 19 31.06 4.48 19.81-10.35 41.03-28.04 38.74-43.71 83.9-15.68 45.15-15.68 96.07 0 128.07 88.74 216.81 88.74 88.74 216.48 88.74t216.48-88.52q88.74-88.52 88.74-217.06 0-51.12-15.68-96.16-15.67-45.04-43.71-83.78-14.83-21.22-10.63-40.74 4.19-19.53 19.28-30.79 15.09-11.26 33.67-10.63 18.59.63 32.98 19.29 38.61 52.13 60.35 112.71 21.74 60.59 21.74 130.46 0 83.9-31.41 157.1-31.42 73.2-86.46 128.25-55.05 55.04-128.16 86.46-73.12 31.41-156.91 31.41ZM480.21-419q-20.3 0-34.75-14.31Q431-447.61 431-468v-366.22q0-20.38 14.25-34.69 14.24-14.31 34.54-14.31 20.3 0 34.75 14.31Q529-854.6 529-834.22V-468q0 20.39-14.25 34.69Q500.51-419 480.21-419Z"/></svg>