<svg xmlns="http://www.w3.org/2000/svg" height="20" viewBox="0 -960 960 960" width="20"><path d="M63.56-415.61Q48.61-427 44.54-447.15q-4.06-20.16 7.89-35.55l130.05-195.17q21.56-31.81 58.41-35.25 36.85-3.45 64.24 23.86l48.09 52.3 112.13-165.52q21.69-31.43 60.54-34.35 38.85-2.91 65.81 26.83l58.56 69.69 109.61-154.26q11.96-16.95 31.76-19.74 19.8-2.78 36.25 9.4 15.6 11.61 19.45 32.32 3.84 20.72-8.68 36.68L717.04-665.13q-22.69 31.43-61.26 33.85-38.56 2.41-63.95-26.33l-58-69.13-110.57 163.83q-21.69 31-59.04 34.13-37.35 3.13-63.74-23.18l-49.78-53.43-119.18 177.65q-11.16 17.03-31.08 20.49-19.92 3.47-36.88-8.36Zm529.74 180.7q34.57 0 59.18-24.39 24.61-24.38 24.61-58.95 0-34.57-24.39-59.18-24.38-24.61-58.95-24.61-34.57 0-59.18 24.38t-24.61 58.96q0 34.57 24.38 59.18t58.96 24.61Zm.22 98q-75.65 0-128.61-52.96-52.95-52.95-52.95-128.61 0-75.65 52.95-128.61 52.96-52.95 128.61-52.95 75.66 0 128.61 52.95 52.96 52.96 52.96 128.61 0 24.08-5.65 46.46-5.66 22.38-16.96 42.28l49.26 49.26q14.96 14.96 14.96 33.76 0 18.81-14.96 34.33T767.2-96.87q-19.59 0-35.11-14.96l-48.7-48.26q-19.9 11.31-42.56 17.24-22.66 5.94-47.31 5.94Z"/></svg>