<svg xmlns="http://www.w3.org/2000/svg" height="20" viewBox="0 -960 960 960" width="20"><path d="M524.87-266.57h-35.13q-19.26 0-32.43 13.4-13.18 13.4-13.18 32.57 0 19.16 13.46 32.77 13.46 13.61 32.71 13.61h77.92q20.38 0 34.69-14.3 14.31-14.31 14.31-34.7v-78.48q0-19.25-13.4-32.71t-32.57-13.46q-19.16 0-32.77 13.46-13.61 13.46-13.61 32.71v35.13ZM295.35-28.78q-41.01 0-69.5-28.5-28.5-28.5-28.5-69.5v-706.44q0-44.3 26.85-71.15 26.84-26.85 71.15-26.85h369.3q41.01 0 69.5 28.5 28.5 28.5 28.5 69.5v127.61q20.57 2.26 34.57 18.52 14 16.26 14 37.96v93.17q0 21.7-14 38.24-14 16.55-34.57 18.81v372.13q0 41-28.5 69.5-28.49 28.5-69.5 28.5h-369.3Zm139.78-664.65h35.13q19.26 0 32.72-13.4 13.46-13.4 13.46-32.57 0-19.16-13.46-32.77-13.46-13.61-32.72-13.61h-78.48q-20.38 0-34.69 14.3-14.31 14.31-14.31 34.7v78.48q0 19.25 13.4 32.71t32.57 13.46q19.16 0 32.77-13.46 13.61-13.46 13.61-32.71v-35.13Z"/></svg>