<svg xmlns="http://www.w3.org/2000/svg" height="20" viewBox="0 -960 960 960" width="20"><path d="M580.52-1.65q-22.12 0-37.6-15.65-15.49-15.65-15.49-38v-311.87q0-22.13 15.5-37.83 15.49-15.7 37.62-15.7h311.84q22.13 0 37.83 15.65 15.69 15.65 15.69 38.01v311.87q0 22.13-15.64 37.82-15.65 15.7-38.01 15.7H580.52ZM418.69-76.78q-15.56 0-25.9-7.6-10.34-7.6-12.31-19.62l-17.57-93q-18.71-7.36-36.42-17.07t-33.32-22.89l-74.43 26q-17.26 5.57-35.59-.21-18.32-5.79-27.45-22.61l-50.74-89.79q-9.14-16.26-5.85-34.3 3.28-18.04 17.54-30.17l58.44-52q-1.44-9.65-2.44-19.46t-1-20.45q0-10.64 1-20.46 1-9.81 2.44-19.55l-58.44-51.43q-14.83-12.13-17.83-30.17-3-18.05 6.14-34.87l50.74-89.22q9.13-16.26 27.17-22.33 18.04-6.06 35.3-.5l76.13 26q15.61-13.17 32.59-22.63 16.98-9.46 36.02-16.76l15-79.13q3-19.39 17.01-30.81 14-11.41 33.78-11.41h101.47q19.78 0 33.78 11.41 14.01 11.42 17.01 30.81l15 79.13q18.71 7.21 36.42 16.72 17.71 9.5 33.32 22.67l74.43-26q17.26-5.56 35.59.5 18.32 6.07 27.45 22.33l52.44 92.04q7.43 14 7.54 28.37.11 14.37-12.45 27.07l-90 74.78q-6.7 5.56-13.83 8.13-7.13 2.56-15.83 2.56h-90.08q-8.89 0-14.35-4.91-5.46-4.91-8.04-13.74-10.87-48.26-48.22-80.45Q533-624 478.3-624q-60 0-102 42t-42 102q0 50.12 29.44 86.87 29.43 36.75 74.74 50.29 7.69 3.13 12.32 8.71 4.63 5.58 4.63 13.48v209.98q0 14.37-9.97 24.13-9.98 9.76-26.77 9.76Zm317.7-83q-26.1 0-52.07 7.48t-52.81 21.35q-16.38 8.65-24.23 17.92-7.85 9.27-7.85 20.68 0 7.7 5.5 13.2 5.5 5.5 13.2 5.5H857.6q6.75 0 11.53-5.52 4.78-5.53 4.78-13.26 0-11.05-7.84-20.46-7.85-9.41-24.23-18.06-26.84-13.87-53-21.35-26.16-7.48-52.45-7.48Zm.1-51.39q27.16 0 46.08-19.02 18.91-19.01 18.91-46.17t-19.01-46.07q-19.02-18.92-46.18-18.92t-46.07 19.02q-18.92 19.01-18.92 46.17t19.02 46.07q19.01 18.92 46.17 18.92Z"/></svg>