<svg xmlns="http://www.w3.org/2000/svg" height="20" viewBox="0 -960 960 960" width="20"><path d="M649.91-169.13q19.06 0 32.29-13t13.23-32.22q0-19.22-13.15-32.18-13.15-12.95-32.58-12.95-18.96 0-31.79 13.24-12.82 13.23-12.82 31.94 0 18.7 12.88 31.93 12.89 13.24 31.94 13.24Zm.35-531.39q18.71 0 31.66-12.89t12.95-31.94q0-19.05-12.89-32.28-12.89-13.24-31.94-13.24t-32.28 13.15q-13.24 13.15-13.24 32.59 0 18.96 13.52 31.78 13.52 12.83 32.22 12.83Zm0 92.35q-25.47 0-47.62-8.57-22.16-8.56-40.42-23.69L321.7-494.65q-6.79 4.02-15.22 5.85-8.44 1.84-16.78-.39-14.49-3.65-29.05-5.28-14.56-1.62-28.63-1.62-29.44 0-58.41 6-28.97 6-55.09 19-8.82 4.13-15.52 2.57-6.7-1.57-13.39-8.26-6.7-6.7-9.05-15.74-2.34-9.05.22-19.87 11.13-47.22 49.15-76.46 38.03-29.24 84.37-29.24 24.04 0 45.79 8 21.74 8 40 22l215.52-132q-1.44-5.87-2.15-12.39-.72-6.53-.72-13.22 0-57.3 40.12-97.41t97.43-40.11q57.32 0 97.41 40.12 40.08 40.12 40.08 97.44 0 57.31-40.11 97.4t-97.41 40.09Zm-.03 531.39q-57.32 0-97.4-39.95-40.09-39.94-40.09-97.01 0-8.43 3.43-23.91l-17-8.87q-17.52-9.7-21.3-28.76-3.78-19.06 5.91-35.94 9.7-16.95 28.13-21.3 18.43-4.35 35.57 5.35l13.61 9.3q18.26-15.7 40.82-24.83 22.56-9.13 48.35-9.13 57.3 0 97.41 40.24t40.11 97.72q0 57.48-40.12 97.28-40.12 39.81-97.43 39.81ZM231.86-40.09q-79.77 0-135.77-56.22-56-56.23-56-136 0-79.78 56.22-135.78 56.23-56 136-56 79.78 0 135.78 56.23t56 136q0 79.77-56.23 135.77-56.23 56-136 56Zm-1.34-151.56 35.78 35.22q8.84 8.82 20.62 8.82 11.78 0 20.82-8.82 8.83-9.04 8.83-20.94 0-11.9-8.83-20.93l-35.22-34.22 35.78-35.78q8.83-8.84 8.83-20.62 0-11.78-8.83-20.82-9.04-8.83-20.82-8.83-11.78 0-20.61 8.83l-35.22 35.22-35.78-35.78q-8.62-8.83-20.12-8.83-11.49 0-20.32 8.83-8.82 9.04-8.82 20.82 0 11.78 8.82 20.61l34.22 35.22-35.78 35.78q-8.83 8.62-8.83 20.12 0 11.49 8.83 20.32 9.25 8.82 21.32 8.82 12.06 0 21.11-8.82l34.22-34.22Zm420.31-22.65Zm-.57-531.4Z"/></svg>