<svg xmlns="http://www.w3.org/2000/svg" height="20" viewBox="0 -960 960 960" width="20"><path d="M480-293.09q17 0 28.5-11.5t11.5-28.5q0-17-11.5-28.5t-28.5-11.5q-17 0-28.5 11.5t-11.5 28.5q0 17 11.5 28.5t28.5 11.5Zm1.29-107.82q11.05 0 18.53-7.44 7.48-7.43 9.61-18.87.89-6.3 2.67-12.15 1.77-5.85 4.77-10.28 4.45-7.81 9.86-14.05 5.41-6.25 10.84-11.65 20-20 36.5-42.47 16.5-22.46 16.5-50.83 0-42.35-32.63-69.18-32.62-26.82-76.68-26.82-29.69 0-56.19 13.5-26.5 13.5-43.07 38.51-6.57 10.42-2.21 22 4.36 11.57 15.99 16.83 10.81 5.16 21.46.05 10.65-5.12 18.29-14.46 7.9-11 19.58-16.78 11.68-5.78 25.89-5.78 20.17 0 35.3 13.32 15.13 13.32 15.13 33.81 0 18-11.21 30.43-11.22 12.44-24.79 24.87-10 8.87-18.33 18.41-8.34 9.53-14.4 21.33-5.57 8.82-8.13 18.8-2.57 9.99-2.57 19.97 0 12.26 8.3 20.59 8.3 8.34 20.99 8.34Zm-1.29 367q-11.7 0-23.96-1.78-12.26-1.79-24.52-5.35-145.96-48.13-235.35-186.85Q106.78-366.61 106.78-516v-174.91q0-48.17 27.02-87.11 27.03-38.94 71.94-55.76l221.22-82.18q24.95-9.69 53.04-9.69t53.04 9.69l221.22 82.18q44.91 16.82 71.94 55.76 27.02 38.94 27.02 87.11V-516q0 149.39-89.39 288.11Q674.44-89.17 528.48-41.04q-12.26 3.56-24.52 5.35-12.26 1.78-23.96 1.78Z"/></svg>