<svg xmlns="http://www.w3.org/2000/svg" height="20" viewBox="0 -960 960 960" width="20"><path d="m220.78-220.78-60.27 60.27q-23.34 23.34-53.53 10.72-30.2-12.63-30.2-45.08v-590.35q0-41 28.5-69.5t69.5-28.5h610.44q41 0 69.5 28.5t28.5 69.5v466.44q0 41-28.5 69.5t-69.5 28.5H220.78Zm93.93-288.44q18.07 0 30.55-12.23 12.48-12.22 12.48-30.3t-12.23-30.55q-12.23-12.48-30.3-12.48-18.08 0-30.56 12.23-12.48 12.22-12.48 30.3t12.23 30.55q12.23 12.48 30.31 12.48Zm165.04 0q18.08 0 30.55-12.23 12.48-12.22 12.48-30.3t-12.23-30.55q-12.22-12.48-30.3-12.48t-30.55 12.23q-12.48 12.22-12.48 30.3t12.23 30.55q12.22 12.48 30.3 12.48Zm165.04 0q18.08 0 30.56-12.23 12.48-12.22 12.48-30.3T675.6-582.3q-12.23-12.48-30.31-12.48-18.07 0-30.55 12.23-12.48 12.22-12.48 30.3t12.23 30.55q12.23 12.48 30.3 12.48Z"/></svg>