<svg xmlns="http://www.w3.org/2000/svg" height="20" viewBox="0 -960 960 960" width="20"><path d="M565-342.78h99.22q20.38 0 34.69-14.3 14.31-14.29 14.31-34.66v-176.19q0-20.37-14.31-34.83-14.31-14.46-34.69-14.46H565q-20.39 0-34.69 14.3Q516-588.63 516-568.26v176.19q0 20.37 14.31 34.83 14.3 14.46 34.69 14.46Zm-269.22 0H395q20.39 0 34.69-14.3Q444-371.37 444-391.74v-176.19q0-20.37-14.31-34.83-14.3-14.46-34.69-14.46h-99.22q-20.38 0-34.69 14.3-14.31 14.29-14.31 34.66v176.19q0 20.37 14.31 34.83 14.31 14.46 34.69 14.46Zm-121 170q-41 0-69.5-28.51t-28.5-69.53V-689.5q0-41.02 28.5-69.37t69.5-28.35h610.44q41 0 69.5 28.51t28.5 69.53v418.68q0 41.02-28.5 69.37t-69.5 28.35H174.78Zm610.44-516.44H174.78v418.44h610.44v-418.44Zm-610.44 0v418.44-418.44Z"/></svg>