<svg xmlns="http://www.w3.org/2000/svg" height="20" viewBox="0 -960 960 960" width="20"><path d="M124.78-326.96H344.7q-12.61 14.05-23 29.74-10.4 15.7-21.13 33.05-13.4 22.65-12.9 49.74.5 27.1 12.9 51.13 6.69 10.13 12.6 19.7 5.91 9.57 12.48 18.82H222.78q-41 0-69.5-28.5t-28.5-69.5v-104.18Zm0-72v-202.17H444v185.22q-5.35 3.39-9.82 7.59-4.47 4.2-8.7 9.36h-300.7ZM516-601.13h319.22v179.91q-41.26-23.39-88.95-35.3-47.69-11.92-101.79-11.92-34.16 0-66.19 5.07T516-448.61v-152.52Zm-391.22-72v-64.3q0-41.09 28.5-69.44 28.5-28.35 69.5-28.35h514.44q41 0 69.5 28.5t28.5 69.5v64.09H124.78Zm519.7 642.09q-79.26 0-148.79-35.35-69.53-35.35-113.56-97.04-8.26-11.83-11.33-23.87-3.06-12.05-3.06-25.29 0-13.24 3.85-26.49 3.84-13.24 10.54-24.96 44.03-61.7 113.56-97.05 69.53-35.35 148.51-35.35 78.97 0 148.8 35.27 69.83 35.26 113.86 96.8 8.23 11.59 11.29 23.63 3.07 12.04 3.07 26.37 0 14.33-3.85 27t-10.54 23.94q-44.03 61.69-113.76 97.04-69.73 35.35-148.59 35.35Zm-.31-81.05q42.57 0 72.27-29.39 29.69-29.39 29.69-71.95 0-42.57-29.39-72.27-29.39-29.69-71.96-29.69-42.56 0-72.26 29.39-29.69 29.39-29.69 71.96 0 42.56 29.39 72.26 29.39 29.69 71.95 29.69Zm.38-36q-27.33 0-46.53-19.13-19.19-19.13-19.19-46.45 0-27.33 19.13-46.53 19.12-19.19 46.45-19.19 27.33 0 46.53 19.13 19.19 19.13 19.19 46.45 0 27.33-19.13 46.53-19.13 19.19-46.45 19.19Z"/></svg>