<svg xmlns="http://www.w3.org/2000/svg" height="20" viewBox="0 -960 960 960" width="20"><path d="M344.22-76.78q-44.31 0-71.15-26.85-26.85-26.85-26.85-71.15v-441q0-44.31 26.85-71.15 26.84-26.85 71.15-26.85h441q44.3 0 71.15 26.85 26.85 26.84 26.85 71.15v441q0 44.3-26.85 71.15-26.85 26.85-71.15 26.85h-441Zm0-98h177.43v-103.74H344.22v103.74Zm264.13 0h176.87v-103.74H608.35v103.74Zm-482.36-48.83q-20.29 0-34.75-14.3-14.46-14.31-14.46-34.7v-512.85q0-44.06 26.85-70.91 26.85-26.85 70.91-26.85h512.85q20.39 0 34.7 14.25 14.3 14.24 14.3 34.54 0 20.3-14.3 34.76-14.31 14.45-34.7 14.45H174.78v512.61q0 20.39-14.24 34.7-14.25 14.3-34.55 14.3Zm218.23-141.61h177.43v-103.73H344.22v103.73Zm264.13 0h176.87v-103.73H608.35v103.73ZM344.22-555.65h441v-60.7h-441v60.7Z"/></svg>