<svg xmlns="http://www.w3.org/2000/svg" height="20" viewBox="0 -960 960 960" width="20"><path d="M480-480Zm0 0Zm0 0Zm0 0ZM222.78-124.78q-44.3 0-71.15-26.85-26.85-26.85-26.85-71.15v-514.44q0-44.3 26.85-71.15 26.85-26.85 71.15-26.85h514.44q44.3 0 71.15 26.85 26.85 26.85 26.85 71.26V-481q0 20.39-14.25 34.69Q806.73-432 786.43-432q-20.3 0-34.76-14.31-14.45-14.3-14.45-34.69v-106.56H505.13v115.73q0 41.01-28.22 69.51-28.21 28.49-69.22 28.49H222.78v151.05h45.31q18.69 0 31.86 14.81 13.18 14.81 13.18 35.67 0 20.02-13.6 33.77-13.6 13.75-33.7 13.75h-43.05Zm0-347.05h184.91v-115.73H222.78v115.73Zm0-213.74h514.44v-51.65H222.78v51.65Zm421.7 660.18q-79.26 0-148.79-35.35-69.53-35.35-113.56-97.04-8.26-11.83-11.33-23.87-3.06-12.05-3.06-25.29 0-13.24 3.85-26.49 3.84-13.24 10.54-24.96 44.03-61.7 113.56-97.05 69.53-35.34 148.51-35.34 78.97 0 148.8 35.26 69.83 35.26 113.86 96.8 8.23 11.59 11.29 23.63 3.07 12.05 3.07 26.37 0 14.33-3.85 27-3.85 12.68-10.54 23.94-44.03 61.69-113.76 97.04-69.73 35.35-148.59 35.35Zm0-86.7q55.62 0 106.83-24t86.04-72q-34.83-48-86.04-72-51.21-24-106.83-24T537.93-279.8q-50.93 24.28-85.76 71.71 34.83 47.44 85.76 71.72 50.93 24.28 106.55 24.28Zm.07-30.34q-27.33 0-46.53-19.13-19.19-19.13-19.19-46.46 0-27.33 19.13-46.52 19.12-19.2 46.45-19.2 27.33 0 46.53 19.13 19.19 19.13 19.19 46.46 0 27.32-19.13 46.52-19.13 19.2-46.45 19.2Z"/></svg>