<svg xmlns="http://www.w3.org/2000/svg" height="20" viewBox="0 -960 960 960" width="20"><path d="M344.22-76.78H529v-171.39H246.22v73.39q0 41 28.5 69.5 28.49 28.5 69.5 28.5Zm256.78 0h184.22q41 0 69.5-28.5t28.5-69.5v-73.39H601v171.39ZM76.78-223.61v-562.05q0-43.86 26.85-70.71 26.85-26.85 70.71-26.85h562.05v98H174.78v561.61h-98Zm169.44-96.56H529v-171.96H246.22v171.96Zm354.78 0h282.22v-171.96H601v171.96ZM246.22-564.13h637v-51.86q0-41.1-28.5-69.44-28.5-28.35-69.5-28.35h-441q-41.01 0-69.5 28.5-28.5 28.49-28.5 69.5v51.65Z"/></svg>