<svg xmlns="http://www.w3.org/2000/svg" height="20" viewBox="0 -960 960 960" width="20"><path d="M344.22-76.78H529v-171.39H246.22v73.39q0 41 28.5 69.5 28.49 28.5 69.5 28.5Zm256.78 0h184.22q41 0 69.5-28.5t28.5-69.5v-73.39H601v171.39ZM125.99-223.61q-20.29 0-34.75-14.3-14.46-14.31-14.46-34.7v-512.85q0-44.06 26.85-70.91 26.85-26.85 70.91-26.85h512.85q20.39 0 34.7 14.25 14.3 14.24 14.3 34.54 0 20.3-14.3 34.76-14.31 14.45-34.7 14.45H174.78v512.61q0 20.39-14.24 34.7-14.25 14.3-34.55 14.3Zm120.23-96.56H529v-171.96H246.22v171.96Zm354.78 0h282.22v-171.96H601v171.96ZM246.22-564.13h637v-51.86q0-41.1-28.5-69.44-28.5-28.35-69.5-28.35h-441q-41.01 0-69.5 28.5-28.5 28.49-28.5 69.5v51.65Z"/></svg>