<svg xmlns="http://www.w3.org/2000/svg" height="20" viewBox="0 -960 960 960" width="20"><path d="M353.48-972.74q109.13 0 185.52 76.39 76.39 76.39 76.39 185.52 0 25.26-4.85 48.85-4.84 23.59-13.41 46.46-4.56 9.69-15.33 14.32-10.76 4.64-21.32-.47-11.13-5.1-15.33-17.17-4.19-12.07.37-24.33 5.57-16.13 8.57-32.89t3-34.77q0-84.61-59-143.61-59-59-143.61-59-84.61 0-143.61 59-59 59-59 143.61 0 19.7 4.06 37.83Q160-654.87 166-637.17q4.56 12.26.22 24.3-4.35 12.04-15.78 18.17-10.86 6.14-22.16 1.79-11.29-4.35-15.46-14.05-10.13-23.82-15.19-50.1-5.07-26.29-5.07-53.77 0-109.13 76.1-185.52 76.1-76.39 184.82-76.39Zm1 107.3q63.61 0 109.11 45.5t45.5 109.11q0 8.57-1.22 18.7-1.22 10.13-3.78 19.26-3.49 12.66-13.51 18.87-10.01 6.22-22.84 3.15-12.83-3.06-18.39-14.04-5.57-10.98-2-22.81 1.56-4.92 2.43-22.64 0-40.57-27.85-68.18-27.86-27.61-67.7-27.61t-67.45 27.89q-27.61 27.89-27.61 67.41 0 7.57 1 14.07t3 13.06q3.57 11.64-2.35 21.15-5.91 9.51-18.3 13.64-12.4 4.13-22.96-1.22t-14.13-17.61q-3.56-9.13-4.56-19.76-1-10.63-1-23.33 0-64.04 45.5-109.32 45.5-45.29 109.11-45.29Zm92 788.66q-33.05 0-62.24-13.96-29.2-13.96-50.85-39.3L134.04-362.96q-13.52-17.21-11.61-38.84 1.92-21.64 18.7-36.16l7.26-6.69q20.65-16.7 47.59-21.13 26.93-4.44 52.58 6.39l59.18 19.26v-294.7q0-19.25 13.4-32.71Q334.53-781 353.7-781t32.5 13.46q13.32 13.46 13.32 32.71v220.09h250.7q55.82 0 96.41 38.59 40.59 38.59 40.59 94.41v150.78q0 64.53-44.83 109.35-44.82 44.83-109.35 44.83H446.48Z"/></svg>