<svg xmlns="http://www.w3.org/2000/svg" height="20" viewBox="0 -960 960 960" width="20"><path d="M759.83-480v-367.22h98V-480h-98ZM262-50.78 204.39-273.3q-45.7-35.26-73.96-88.44-28.26-53.17-28.26-118.26t28.76-118.26q28.76-53.18 75.46-88.44L262-909.22h198.78l55.61 222.52q46.7 35.26 75.46 88.44 28.76 53.17 28.76 118.26t-28.26 118.26q-28.26 53.18-73.96 88.44L460.78-50.78H262Zm99.59-268q66.97 0 114-47.22 47.02-47.22 47.02-114.2 0-66.97-47.22-114-47.22-47.02-114.2-47.02-66.97 0-114 47.22-47.02 47.22-47.02 114.2 0 66.97 47.22 114 47.22 47.02 114.2 47.02ZM332-820.26h58.78H332Zm0 680.52h58.78H332Zm-22.83-593.17q10.61-3.44 24.28-4.59 13.67-1.15 27.74-1.15 14.07 0 27.44 1.15 13.37 1.15 23.98 4.59l-21.83-87.35H332l-22.83 87.35ZM332-139.74h58.78l23.83-87.35q-10.61 2.87-24.68 4.59-14.06 1.72-28.54 1.72-14.87 0-28.24-1.72t-23.98-4.59L332-139.74Z"/></svg>