<svg xmlns="http://www.w3.org/2000/svg" height="20" viewBox="0 -960 960 960" width="20"><path d="M759.83-480v-367.22h98V-480h-98ZM262-50.78 204.39-273.3q-45.7-35.26-73.96-88.44-28.26-53.17-28.26-118.26t28.76-118.26q28.76-53.18 75.46-88.44L262-909.22h198.78l55.61 222.52q46.7 35.26 75.46 88.44 28.76 53.17 28.76 118.26t-28.26 118.26q-28.26 53.18-73.96 88.44L460.78-50.78H262Zm99.58-268q66.98 0 114.01-47.21 47.02-47.22 47.02-114.2T475.4-594.2q-47.22-47.02-114.2-47.02t-114.01 47.21q-47.02 47.22-47.02 114.2t47.21 114.01q47.22 47.02 114.2 47.02Z"/></svg>