<svg xmlns="http://www.w3.org/2000/svg" height="20" viewBox="0 -960 960 960" width="20"><path d="M735.65-119.17 624.3-231.09l-29.65 113.66q-6.56 27.26-28.32 43.95-21.76 16.7-50.16 16.7h-73.34q-28.4 0-50.16-16.7-21.76-16.69-28.32-43.95l-24.83-102.05q-6.69-24.65-20.8-48.58-14.11-23.94-37.9-54.24-28.73-33.13-44.39-75.13-15.65-42-15.65-88.57 0-30 7.28-60.54 7.29-30.55 21.42-58.94L114.43-740.96q-12.13-12.13-12.13-28.1 0-15.98 12.13-28.11 12.14-12.13 28.61-12.13 16.48 0 28.61 12.13l621.22 621.21Q805-163.83 805-147.57q0 16.27-12.13 28.4-12.13 12.13-28.61 12.13-16.48 0-28.61-12.13ZM480-324.78q11.61 0 23.06-1.66 11.46-1.65 21.07-4.39L325.39-529.56q-2.74 9.6-4.67 20.78-1.94 11.17-1.94 22.78 0 67.17 47.02 114.2 47.03 47.02 114.2 47.02Zm139.48-426.74q6.69 24.65 20.8 48.58 14.11 23.94 37.9 54.24 28.73 33.13 44.89 75.13 16.15 42 16.15 87.57 0 10.61-.44 21.76-.43 11.15-2.87 22.15-4.56 19.66-21.52 31.33-16.95 11.67-37.04 7.67-19.65-4.56-31.11-21.24-11.46-16.67-6.89-36.76 1.43-6.43 1.65-12.58.22-6.16.22-12.33 0-33.3-12.16-62.67-12.15-29.37-34.58-51.81-25.05-25.04-62.46-38.04t-73.89-7.52q-13.39 1.43-25.5-1.42-12.11-2.84-20.8-11.54l-57.18-57.17q-9.26-9.27-12.11-21.16-2.84-11.89.29-24.28l21.52-91.96q6.56-27.26 28.32-44.45 21.76-17.2 50.16-17.2h73.34q28.4 0 50.16 17.2 21.76 17.19 28.32 44.45l24.83 102.05Zm-169.44-68.74h59.35-59.35Zm0 680.52h59.35-59.35Zm-22.26-593.17q10.61-3.44 24.48-4.59 13.87-1.15 27.74-1.15t27.24 1.15q13.37 1.15 23.98 4.59l-21.83-87.35h-59.35l-22.26 87.35Zm22.26 593.17h59.35l23.83-87.35q-10.61 2.87-24.48 4.59-13.87 1.72-28.74 1.72t-28.24-1.72q-13.37-1.72-23.98-4.59l22.26 87.35Z"/></svg>