<svg xmlns="http://www.w3.org/2000/svg" height="20" viewBox="0 -960 960 960" width="20"><path d="M671.77-96Q592-96 536-152.23q-56-56.22-56-136Q480-368 536.23-424q56.22-56 136-56Q752-480 808-423.77q56 56.22 56 136Q864-208 807.77-152q-56.22 56-136 56Zm-191.8 0Q337-130 252.5-248.5T168-515v-229l312-120 312 120v221q-29-13-58.5-21t-61.5-8q-110 0-187 77t-77 187q0 54 21.5 103T489-98l-4 1q-4 1-5.03 1ZM672-288q25 0 42.5-17.5T732-348q0-25-17.5-42.5T672-408q-25 0-42.5 17.5T612-348q0 25 17.5 42.5T672-288Zm-.09 120Q704-168 731-184t43-42q-23-13-48.72-19.5t-53.5-6.5q-27.78 0-53.28 7T570-226q16 26 42.91 42 26.91 16 59 16Z"/></svg>