<svg xmlns="http://www.w3.org/2000/svg" height="20" viewBox="0 -960 960 960" width="20"><path d="M288-120q-33 0-52.5-19.5T216-192v-384q0-33 19.5-52.5T288-648h384q33 0 52.5 19.5T744-576v384q0 33-19.5 52.5T672-120H288Zm0-72h384v-384H288v384Zm156-48h72v-36h-72v36Zm-1-72h73q0-17 9-31l18-28q11-16 19-33.23 8-17.22 8-35.77 0-36.82-26.5-62.41Q517-528 480-528t-63.5 25.63Q390-476.75 390-439.88q0 18.88 7.5 35.38Q405-388 416-372q9 14 18 28.26 9 14.26 9 31.74ZM264-696q0-20 14-34t34-14h336q20 0 34 14t14 34H264Zm24-96q0-20 14-34t34-14h288q20 0 34 14t14 34H288Zm192 408Z"/></svg>