<svg xmlns="http://www.w3.org/2000/svg" height="20" viewBox="0 -960 960 960" width="20"><path d="M150-192q-25 0-39.5-14.5T96-246v-324q0-25 14.5-39.5T150-624h180q25 0 39.5 14.5T384-570v324q0 25-14.5 39.5T330-192H150Zm522-431q-63 0-118.5 23.5T456-536v-34q0-58-34-92t-92-34H149q-16 0-29 2.5T96-686v-10q0-30 21-51t51-21h624q33 0 52.5 19.5T864-696v140q-40-32-90.5-49.5T672-623ZM502-141q-34-34-52-78t-18-92q0-100 70-170t170-70q100 0 170 70t70 170q0 51-21.5 97T832-133l-32-36q29-28 46.5-64.5T864-311q0-80-56-136t-136-56q-80 0-136 56t-56 136q0 38 14 74t42 62l-34 34Zm68-68q-21-20-31.5-46.5T528-311q0-60 42-102t102-42q60 0 102 42t42 102q0 31-12.5 58.5T768-204l-32-36q16-14 24-32.5t8-38.5q0-40-28-68t-68-28q-40 0-68 28t-28 68q0 20 7 37.5t21 30.5l-34 34Zm78 113v-174q-12-5-18-16.5t-6-24.5q0-20 14-34t34-14q20 0 34 14t14 34q0 14-6 25t-18 16v174h-48ZM240-480q9 0 16-7t7-17q0-9-7-16t-16-7q-10 0-17 7t-7 16q0 10 7 17t17 7Z"/></svg>