<svg xmlns="http://www.w3.org/2000/svg" height="20" viewBox="0 -960 960 960" width="20"><path d="M720-240q25 0 42.5-17.5T780-300q0-25-17.5-42.5T720-360q-25 0-42.5 17.5T660-300q0 25 17.5 42.5T720-240Zm0 120q32 0 59-16t43-42q-23-12-48.5-19t-53.5-7q-28 0-53.5 7T618-178q16 26 43 42t59 16Zm-504-24q-29.7 0-50.85-21.15Q144-186.3 144-216v-528q0-29.7 21.15-50.85Q186.3-816 216-816h528q29.7 0 50.85 21.15Q816-773.7 816-744v258q-17.1-5.76-35.1-9.92T744-502v-242H216v528h241q1.88 19.52 5.94 37.26Q467-161 473-144H216Zm0-96v24-528 242-2 264Zm72-48h172q4-19 10.19-36.97Q476.38-342.93 484-360H288v72Zm0-156h264q26-20 56-34.5t64-20.5v-17H288v72Zm0-156h384v-72H288v72ZM719.77-48Q640-48 584-104.23q-56-56.22-56-136Q528-320 584.23-376q56.22-56 136-56Q800-432 856-375.77q56 56.22 56 136Q912-160 855.77-104q-56.22 56-136 56Z"/></svg>