<svg xmlns="http://www.w3.org/2000/svg" height="20" viewBox="0 -960 960 960" width="20"><path d="M504-540ZM96-192v-72h408v72H96Zm120-120q-33 0-52.5-19.5T144-384v-312q0-33 19.5-52.5T216-768h528q33 0 52.5 19.5T816-696H216v312h288v72H216Zm576 48v-288H648v288h144Zm-162 72q-25 0-39.5-14.5T576-246v-324q0-25 14.5-39.5T630-624h180q25 0 39.5 14.5T864-570v324q0 25-14.5 39.5T810-192H630Zm89.72-288q10.28 0 17.28-7.12 7-7.11 7-16.6 0-10.28-6.88-17.28-6.88-7-17.41-7-9.71 0-16.71 6.88t-7 17.41q0 9.71 7.12 16.71 7.11 7 16.6 7Zm.28 72Z"/></svg>