<svg xmlns="http://www.w3.org/2000/svg" height="20" viewBox="0 -960 960 960" width="20"><path d="M408-552ZM168-192q-33 0-52.5-19.5T96-264v-432q0-33 19.5-52.5T168-768h624q33 0 52.5 19.5T864-696H168v432h96v72h-96Zm624-72v-288H648v288h144Zm-162 72q-25 0-39.5-14.5T576-246v-324q0-25 14.5-39.5T630-624h180q25 0 39.5 14.5T864-570v324q0 25-14.5 39.5T810-192H630Zm89.72-288q10.28 0 17.28-7.12 7-7.11 7-16.6 0-10.28-6.88-17.28-6.88-7-17.41-7-9.71 0-16.71 6.88t-7 17.41q0 9.71 7.12 16.71 7.11 7 16.6 7ZM360-192l-24-72q-22-17-35-41.84-13-24.84-13-54T301-414q13-25 35-42l24-72h96l24 72q22 17 35 41.84 13 24.84 13 54T515-306q-13 25-35 42l-24 72h-96Zm48-120q20 0 34-14t14-34q0-20-14-34t-34-14q-20 0-34 14t-14 34q0 20 14 34t34 14Zm312-96Z"/></svg>