<svg xmlns="http://www.w3.org/2000/svg" height="20" viewBox="0 -960 960 960" width="20"><path d="M803-56 667-192h-37q-25 0-39.5-14.5T576-246v-37l-72-72v43H216q-33 0-52.5-19.5T144-384v-312q0-5 .5-9t1.5-8l-90-89.62L107-853l746 746-50 51ZM504-558 294-768h450q33 0 52.5 19.5T816-696H630q-53 0-89.5 37T504-570v12Zm348 348L576-486.29v-83.85q0-24.94 14.5-39.4Q605-624 630-624h180q25 0 39.5 14.5T864-570v324q0 11-3.2 20t-8.8 16ZM720-480q10 0 17-7.15t7-17.35q0-9.22-7-16.36-7-7.14-17-7.14t-17 7.14q-7 7.14-7 16.36 0 10.2 7 17.35 7 7.15 17 7.15ZM96-192v-72h408v72H96Z"/></svg>