<svg xmlns="http://www.w3.org/2000/svg" height="20" viewBox="0 -960 960 960" width="20"><path d="M720-342ZM498-564ZM366-696l-72-72h450q33 0 52.5 19.5T816-696H366Zm353.72 216q10.28 0 17.28-7.12 7-7.11 7-16.6 0-10.28-6.88-17.28-6.88-7-17.41-7-9.71 0-16.71 6.88t-7 17.41q0 9.71 7.12 16.71 7.11 7 16.6 7ZM852-210l-60-60v-282H648v138l-72-72v-84q0-25 14.5-39.5T630-624h180q25 0 39.5 14.5T864-570v324q0 11-3 20t-9 16ZM803-56 667-192h-37q-25 0-39.5-14.5T576-246v-37L216-643v259.04h288V-312H216q-33 0-52.5-19.5T144-384v-312q0-5 .5-9t1.5-8l-90-90 51-50 746 746-50 51ZM346-514ZM96-192v-72h408v72H96Z"/></svg>