<svg xmlns="http://www.w3.org/2000/svg" height="20" viewBox="0 -960 960 960" width="20"><path d="M216-96q-29.7 0-50.85-21.15Q144-138.3 144-168v-528q0-29.7 21.15-50.85Q186.3-768 216-768h224q-16 27-24 57.5t-8 62.5q0 100 70.23 170 70.24 70 169.77 70 19.94 0 38.45-3t36.55-9l93 93v159q0 29.7-21.15 50.85Q773.7-96 744-96H216Zm645-288L738-507q-20 13-42.55 20-22.55 7-47.92 7Q578-480 529-529t-49-119q0-70 49-119t119-49q70 0 119 48.95t49 118.88q0 25.17-7 47.67T789-558l123 123-51 51ZM647.77-552Q688-552 716-579.77q28-27.78 28-68Q744-688 716.23-716q-27.78-28-68-28Q608-744 580-716.23q-28 27.78-28 68Q552-608 579.77-580q27.78 28 68 28ZM264-240h432L557-426q-2-1-3.69-1.6-1.69-.6-3.31-1.4L444-288l-72-96-108 144Z"/></svg>