<svg xmlns="http://www.w3.org/2000/svg" height="20" viewBox="0 -960 960 960" width="20"><path d="M803-56 56-803l51-50 746 746-50 51Zm-59-261-72-72v-451H216q0-29 21.5-50.5T288-912h384q29.7 0 50.85 21.15Q744-869.7 744-840v144q20 0 34 14t14 34v96q0 20-14 34t-34 14v187ZM479.79-720q15.21 0 25.71-10.29t10.5-25.5q0-15.21-10.29-25.71t-25.5-10.5q-15.21 0-25.71 10.29t-10.5 25.5q0 15.21 10.29 25.71t25.5 10.5ZM288-48q-29.7 0-50.85-21.15Q216-90.3 216-120v-624l72 72v552h384v-168l72 72v96q0 32-22.5 52T672-48H288Zm147-348Zm117-112Z"/></svg>