<svg xmlns="http://www.w3.org/2000/svg" height="20" viewBox="0 -960 960 960" width="20"><path d="M120-264v-528 528Zm720 96v-528 528ZM336.21-444q-15.21 0-25.71-10.29t-10.5-25.5q0-15.21 10.29-25.71t25.5-10.5q15.21 0 25.71 10.29t10.5 25.5q0 15.21-10.29 25.71t-25.5 10.5Zm144 0q-15.21 0-25.71-10.29t-10.5-25.5q0-15.21 10.29-25.71t25.5-10.5q15.21 0 25.71 10.29t10.5 25.5q0 15.21-10.29 25.71t-25.5 10.5Zm144 0q-15.21 0-25.71-10.29t-10.5-25.5q0-15.21 10.29-25.71t25.5-10.5q15.21 0 25.71 10.29t10.5 25.5q0 15.21-10.29 25.71t-25.5 10.5ZM600-96q-29.7 0-50.85-21.15Q528-138.3 528-168v-204h72v204h240v-528H600v108h-72v-108q0-29.7 21.15-50.85Q570.3-768 600-768h240q29.7 0 50.85 21.15Q912-725.7 912-696v528q0 29.7-21.15 50.85Q869.7-96 840-96H600Zm-480-96q-29.7 0-50.85-21.15Q48-234.3 48-264v-528q0-29.7 21.15-50.85Q90.3-864 120-864h240q29.7 0 50.85 21.15Q432-821.7 432-792v204h-72v-204H120v528h240v-108h72v108q0 29.7-21.15 50.85Q389.7-192 360-192H120Zm600-401q13.43 0 22.22-8.78Q751-610.57 751-624t-8.78-22.22Q733.43-655 720-655t-22.22 8.78Q689-637.43 689-624t8.78 22.22Q706.57-593 720-593Zm-480-96q13.43 0 22.22-8.78Q271-706.57 271-720t-8.78-22.22Q253.43-751 240-751t-22.22 8.78Q209-733.43 209-720t8.78 22.22Q226.57-689 240-689Z"/></svg>