<svg xmlns="http://www.w3.org/2000/svg" height="20" viewBox="0 -960 960 960" width="20"><path d="M585-216h139q-3 24-20 41.5T663-154L235-96q-29 4-53-14.5T154-158L96-587q-4-29.89 14-53.45Q128-664 158-668l58-7v73l-48 6 57 428 360-48Zm-225-72q-33 0-52.5-19.5T288-360v-432q0-33 19.5-52.5T360-864h432q33 0 52.5 19.5T864-792v432q0 33-19.5 52.5T792-288H360Zm0-72h432v-432H360v432Zm216-216ZM223-168Zm354-240q55.48 0 94.24-38T715-540q-56 0-96 38.5T577-408Zm-2 0q-4-56-43.98-94-39.97-38-96.02-38 4 56 44 94t96 38Zm1-125q14 0 24.5-10.12T611-568.2v-8.8l7.6 5.2q11.4 7.8 25.9 4.3Q659-571 667-585q7-11 3-25t-15.96-22.91L647-638l8-5q12-8 15.5-21.5t-3.56-26.05Q659-704 645-708t-26 3.8l-8 5.2v-10q0-14-10.5-24.5t-25-10.5q-14.5 0-24.5 10.5T541-709v10l-8.4-5.2Q520-712 506.5-708q-13.5 4-21.5 16-8 13-4.5 27t16.72 22.27L505-638l-8.15 4q-13.85 7-17.35 21-3.5 14 4.5 27 8 14 22 17.5t26-4.3l8-5.2v10q0 14.87 10.35 24.94Q560.7-533 576-533Zm-.5-70q-14.5 0-24.5-10.06-10-10.07-10-24.94 0-14 10.06-24.5Q561.13-673 576-673q14 0 24.5 10.5t10.5 25q0 14.5-10.5 24.5t-25 10Z"/></svg>