<svg xmlns="http://www.w3.org/2000/svg" height="20" viewBox="0 -960 960 960" width="20"><path d="M173-696h245-245Zm427 264H168h432ZM168-96v-24l50-50q-53-8-87.5-48T96-312v-360q0-79 79.5-111.5T450-816q-11 17-19 35t-13 37q-125 2-174.5 12T173-696h236q-2 18-1 36t4 36H168v120h300q19 23 43 41t51 31H168v120q0 30 21 51t51 21h288q30 0 51-21t21-51v-106q17 5 35 7.5t37 2.5v95.96Q672-258 637.5-218 603-178 550-170l50 50v24H168Zm503.77-384Q592-480 536-536.16 480-592.32 480-672q0-80 56-136t136.45-56q79.49 0 135.52 56.23 56.03 56.22 56.03 136Q864-592 807.77-536q-56.22 56-136 56ZM648-672h48v-96h-48v96Zm24 96q9.6 0 16.8-7.2 7.2-7.2 7.2-16.8 0-9.6-7.2-16.8-7.2-7.2-16.8-7.2-9.6 0-16.8 7.2-7.2 7.2-7.2 16.8 0 9.6 7.2 16.8 7.2 7.2 16.8 7.2ZM384-288q20 0 34-14t14-34q0-20-14-34t-34-14q-20 0-34 14t-14 34q0 20 14 34t34 14Z"/></svg>