<svg xmlns="http://www.w3.org/2000/svg" height="24" viewBox="0 -960 960 960" width="24"><path d="m570-90.08-270-77.77v-315.22h73.61q6.62 0 12.85 1.3 6.23 1.31 12.46 3.31l258.92 95.69q15.16 5.39 25.58 20.31 10.42 14.92 10.42 29.69 0 16.39-10.65 26.12t-25.81 9.73h-76.53q-13.85 0-24.81-1.66-10.96-1.65-21.12-5.57l-51.15-18.54q-7.23-2.62-14.27.81-7.04 3.42-9.04 9.65-2 7.23 1 13.85 3 6.61 10.23 9.23l60.92 21q10.08 3.69 22.54 5.15 12.47 1.46 23.93 1.46h240.15q30.08 0 51.58 20.31t21.5 51.23L614.23-91.31q-8.85 3.23-21.81 3.54-12.96.31-22.42-2.31Zm-470-71.46v-260q0-25.69 17.92-43.61 17.93-17.92 43.62-17.92h16.92q25.69 0 43.62 17.92Q240-447.23 240-421.54v260q0 25.69-17.92 43.62Q204.15-100 178.46-100h-16.92q-25.69 0-43.62-17.92Q100-135.85 100-161.54Zm449.31-441 206.31-205.3q8.3-8.31 20.38-8.43 12.08-.11 21 8.81 8.31 8.31 8.31 20.88 0 12.58-8.31 20.89L574.61-543.31q-10.84 10.85-25.3 10.85T524-543.31L414.62-652.69q-8.93-8.92-8.81-21.08.11-12.15 9.42-21.07 8.92-8.31 21.08-8.43 12.15-.11 21.07 8.81l91.93 91.92Z"/></svg>