<svg xmlns="http://www.w3.org/2000/svg" height="24" viewBox="0 -960 960 960" width="24"><path d="m548.92-602.54 206.31-205.3q8.31-8.31 20.38-8.43 12.08-.11 21 8.81 8.31 8.31 8.31 20.88 0 12.58-8.31 20.89L574.23-543.31q-10.85 10.85-25.31 10.85-14.46 0-25.31-10.85L414.23-652.69q-8.92-8.92-8.81-21.08.12-12.15 9.43-21.07 8.92-8.31 21.07-8.43 12.16-.11 21.08 8.81l91.92 91.92Zm37.93 466.62q1.92.77 3.46.77t3.46-.77l235.31-72.85q-3.08-13.61-12.77-20.88-9.7-7.27-21.7-7.27H598.77q-26.23 0-44.54-2t-37.62-8.77l-62.76-20.54q-12.16-3.85-17.43-15.38-5.27-11.54-1.42-23.7 3.85-11.77 14.88-17.34 11.04-5.58 23.2-1.73l52 18.23q18.15 5.77 40.61 8.19t58.31 3.04h10.61q0-14.85-6.69-25.62-6.69-10.77-17.61-14.54l-232.08-85.23q-1.15-.38-2.12-.57-.96-.2-2.11-.2h-74v206.16l286.85 81Zm-15.62 58.77L300-154.92q-6.85 24.84-27.85 39.88-21 15.04-44.46 15.04h-55.38q-29.92 0-51.12-21.19Q100-142.39 100-172.31v-238.46q0-29.92 21.19-51.11 21.2-21.19 51.12-21.19h201.3q6.24 0 12.66 1.3 6.42 1.31 12.04 3.31l233.07 85.85q27.23 10.07 45.23 35.65 18 25.58 18 60.04h100q43.08 0 70.2 27.81 27.11 27.8 27.11 72.19 0 17-9 27.38-9 10.39-27.23 16.46L613-77.77q-9.85 3.23-20.69 3.42-10.85.2-21.08-2.8ZM160-172.31q0 5.39 3.46 8.85t8.85 3.46h55.38q5.39 0 8.85-2.88 3.46-2.89 3.46-9.43v-250.77h-67.69q-5.39 0-8.85 3.47-3.46 3.46-3.46 8.84v238.46Z"/></svg>