<svg xmlns="http://www.w3.org/2000/svg" height="24" viewBox="0 -960 960 960" width="24"><path d="M292.31-100Q262-100 241-121q-21-21-21-51.31v-381.92q0-30.31 21-51.31 21-21 51.31-21h375.38q30.31 0 51.31 21 21 21 21 51.31v381.92Q740-142 719-121q-21 21-51.31 21H292.31Zm170.77-111.15h33.84q7.08 0 12.39-5.31 5.3-5.31 5.3-12.39 0-7.07-5.3-12.38-5.31-5.31-12.39-5.31h-33.84q-7.08 0-12.39 5.31-5.3 5.31-5.3 12.38 0 7.08 5.3 12.39 5.31 5.31 12.39 5.31ZM458-286.54h44q5 0 8.61-3.81 3.62-3.8 4.24-8.8 2.45-14.83 9.8-28.07Q532-340.46 540-353.85q10.46-15.84 18.88-33.23 8.43-17.38 8.43-36.46 0-36.17-25.32-61.32Q516.67-510 480-510q-36.83 0-62.26 25.04t-25.43 61.42q0 18.95 8.73 36.09 8.73 17.14 18.58 32.99 8 13.38 15.19 27.13 7.19 13.75 9.73 28.56 1.61 5 5.04 8.62 3.42 3.61 8.42 3.61ZM281.92-695.77q-10.33 0-17.09-6.75-6.75-6.75-6.75-17.08 0-10.32 6.75-17.09 6.76-6.77 17.09-6.77h395.77q10.33 0 17.09 6.75t6.76 17.08q0 10.32-6.76 17.09t-17.09 6.77H281.92Zm38.47-116.54q-10.34 0-17.09-6.75-6.76-6.75-6.76-17.07 0-10.33 6.76-17.1 6.75-6.77 17.09-6.77h318.84q10.33 0 17.09 6.75t6.76 17.08q0 10.32-6.76 17.09t-17.09 6.77H320.39Z"/></svg>