<svg xmlns="http://www.w3.org/2000/svg" height="24" viewBox="0 -960 960 960" width="24"><path d="M751.38-208.85 209.23-751q36.85-39.77 83.85-67.61 47-27.85 101.92-41.77-11.08 96.3 18.88 187.73 29.97 91.42 98.66 160.11 68.69 68.69 159.15 99.62 90.46 30.92 186.77 19.84-13.31 54.54-40.5 101.16-27.19 46.61-66.58 83.07ZM736.15-25.31 628.92-132.54q-32.46 12.23-66.61 18.54-34.16 6.31-70.62 6.31-79.77 0-149.61-30.27-69.85-30.27-121.85-82.27t-82.27-121.85q-30.27-69.84-30.27-149.61 0-36.08 6.5-70.23 6.5-34.16 18.74-66.62L26.31-735.15l42.77-42.77L778.92-68.08l-42.77 42.77Z"/></svg>