<svg xmlns="http://www.w3.org/2000/svg" height="24" viewBox="0 -960 960 960" width="24"><path d="M646.17-84.62q-10.32 0-17.09-6.75-6.77-6.76-6.77-17.09v-175q-9-6.46-14.5-16.19t-5.5-20.35q0-18.42 13.13-31.13 13.13-12.72 30.64-12.72 18.38 0 31.15 12.72Q690-338.42 690-320q0 10.62-4.69 20.46-4.7 9.85-15.31 16.08v175q0 10.33-6.75 17.09-6.75 6.75-17.08 6.75Zm-.02-342.92q-44.31 0-75.23 30.79Q540-365.97 540-321.38q0 15.84 5.61 30.73 5.62 14.88 14.7 28.19 5.23 8.69 5.3 18.5.08 9.81-7.38 17.27-7.46 7.46-17.27 6.96-9.81-.5-16.04-8.58-15.92-20.38-24.27-44.15-8.34-23.77-8.34-48.92 0-64.43 45.17-109.14 45.16-44.71 108.59-44.71 64.39 0 109.16 44.71Q800-385.81 800-321.38q0 24.92-8.04 48.88T768-228.54q-6.23 8.08-15.81 8.58-9.59.5-16.77-6.96-7.19-6.46-7.61-16.27-.43-9.81 4.8-18.5 9.47-12.92 14.58-28.19 5.12-15.27 5.12-31.5 0-44.59-30.79-75.37-30.78-30.79-75.37-30.79Zm-.1-99.38q-85.59 0-145.82 59.78Q440-407.35 440-320.77q0 35.88 12.61 69.52 12.62 33.64 35.47 61.17 6.46 8.7 6.23 18.5-.23 9.81-7.31 16.89-7.32 7.46-17.08 6.46-9.77-1-16.61-9.08-28.7-34.61-44.85-76.36-16.15-41.75-16.15-87.1 0-106.42 74.18-180.13 74.17-73.71 179.58-73.71 106.39 0 180.16 73.71T900-320.77q0 45.49-15.35 87.36-15.34 41.87-45.42 76.1-6.85 7.69-16.65 7.89-9.81.19-16.89-7.08-7.08-7.27-6.69-16.58.38-9.3 6.84-18 22.85-27.15 34.66-60.5 11.81-33.34 11.81-69.19 0-86.58-59.82-146.37-59.81-59.78-146.44-59.78ZM114.23-180q-22.59 0-38.41-15.82Q60-211.64 60-234.23v-336.15q0-22.31 15.82-38.27 15.82-15.96 38.41-15.96h179.15q22.39 0 38.35 15.96t15.96 38.27v336.15q0 22.59-15.96 38.41Q315.77-180 293.38-180H114.23Zm531.92-481.54q-60.69 0-114.96 19.96-54.27 19.96-98.5 55.27v-.61q-5.38-53-45.04-89.2-39.65-36.19-94.19-36.19H113.62q-3.85 0-7 .5-3.16.5-6.62 1.12v-1.23Q100-740 120-760t48.08-20h595q30.3 0 51.3 21 21 21 21 51.31v103.92q-45.46-26.92-90.34-42.35-44.89-15.42-98.89-15.42ZM203.77-459.38q12.31 0 20.42-8.52 8.12-8.52 8.12-19.87 0-12.31-8.11-20.42-8.11-8.12-20.52-8.12-11.45 0-19.87 8.11-8.42 8.11-8.42 20.52 0 11.45 8.51 19.87 8.52 8.43 19.87 8.43Z"/></svg>