<svg xmlns="http://www.w3.org/2000/svg" height="24" viewBox="0 -960 960 960" width="24"><path d="M278.85-180q-31.08 0-52.66-21-21.57-21-21.57-51.31v-355.77L60-780h725.77q31.07 0 52.65 21T860-707.69v455.38Q860-222 838.42-201q-21.58 21-52.65 21H278.85Zm-89.93-540 75.69 89.23v378.46q0 4.62 4.43 8.46 4.42 3.85 9.81 3.85h506.92q5.38 0 9.81-3.85 4.42-3.84 4.42-8.46v-455.38q0-4.62-4.42-8.46-4.43-3.85-9.81-3.85H188.92Zm333 440 42.15-42.15L507-376.16h190.31v-59.99h-335L521.92-280ZM362.31-523.85h335L538.08-680l-42.16 42.15L553-583.84H362.31v59.99ZM494.46-480Z"/></svg>