<svg xmlns="http://www.w3.org/2000/svg" height="24" viewBox="0 -960 960 960" width="24"><path d="M280-120v-720 720Zm200.77-593.85q15.08 0 25.23-10.15t10.15-25.23q0-15.08-10.15-25.23t-25.23-10.15q-15.08 0-25.23 10.15t-10.15 25.23q0 15.08 10.15 25.23t25.23 10.15ZM292.31-60q-29.92 0-51.12-21.19Q220-102.39 220-132.31v-695.38Q220-858 241-879q21-21 51.31-21h376.92q29.92 0 51.11 21.19 21.2 21.2 21.2 51.12v209.23q0 12.77-8.62 21.38-8.61 8.62-21.38 8.62t-21.39-8.62q-8.61-8.61-8.61-21.38v-209.23q0-5.39-3.46-8.85-3.47-3.46-8.85-3.46H292.31q-5.39 0-8.85 3.46t-3.46 8.85v695.38q0 5.39 3.46 8.85t8.85 3.46h199.08q15 0 22 9.42 7 9.43 7 20.58 0 11.15-7.2 20.58Q506-60 491-60H292.31Zm329.31-28.46-11.93-59.7q-32.53-22.92-51.11-57.57Q540-240.39 540-280.38q0-40 18.58-74.66 18.58-34.65 51.11-57.57l11.93-59.7q2.61-12.84 12.65-20.65 10.04-7.81 22.88-7.81h85.7q12.84 0 22.88 7.81t12.65 20.65l11.93 59.7q32.53 22.92 51.11 57.57Q860-320.38 860-280.38q0 39.99-18.58 74.65-18.58 34.65-51.11 57.57l-11.93 59.7q-2.61 12.84-12.65 20.65Q755.69-60 742.85-60h-85.7q-12.84 0-22.88-7.81t-12.65-20.65ZM700-180.38q42 0 71-29t29-71q0-42-29-71t-71-29q-42 0-71 29t-29 71q0 42 29 71t71 29Z"/></svg>