<svg xmlns="http://www.w3.org/2000/svg" height="24" viewBox="0 -960 960 960" width="24"><path d="M292.31-60q-29.92 0-51.12-21.19Q220-102.39 220-132.31v-695.38Q220-858 241-879q21-21 51.31-21h376.92q29.92 0 51.11 21.19 21.2 21.2 21.2 51.12v203.85q0 14.69-10.35 25.03-10.35 10.35-25.04 10.35h-91.92q-26.08 0-45.85 16.23-19.76 16.23-25.23 41.69l-13.69 71q-36.77 35.08-56.96 81.23-20.19 46.16-20.19 97.93 0 51.76 20.08 98.38 20.07 46.61 57.46 82.31 2.23 9.46 4.27 19.84 2.03 10.39 4.26 19.85H292.31Zm188.46-653.85q15.08 0 25.23-10.15t10.15-25.23q0-15.08-10.15-25.23t-25.23-10.15q-15.08 0-25.23 10.15t-10.15 25.23q0 15.08 10.15 25.23t25.23 10.15ZM657.15-60q-12.84 0-22.88-7.81t-12.65-20.65l-11.93-59.7q-32.53-22.92-51.11-57.57Q540-240.39 540-280.38q0-40 18.58-74.66 18.58-34.65 51.11-57.57l11.93-59.7q2.61-12.84 12.65-20.65 10.04-7.81 22.88-7.81h85.7q12.84 0 22.88 7.81t12.65 20.65l11.93 59.7q32.53 22.92 51.11 57.57Q860-320.38 860-280.38q0 39.99-18.58 74.65-18.58 34.65-51.11 57.57l-11.93 59.7q-2.61 12.84-12.65 20.65Q755.69-60 742.85-60h-85.7ZM700-180.38q42 0 71-29t29-71q0-42-29-71t-71-29q-42 0-71 29t-29 71q0 42 29 71t71 29Z"/></svg>