<svg xmlns="http://www.w3.org/2000/svg" height="24" viewBox="0 -960 960 960" width="24"><path d="M450.77-180H130q-12.75 0-21.37-8.63-8.63-8.63-8.63-21.38 0-12.76 8.63-21.37Q117.25-240 130-240h320.77q12.75 0 21.37 8.63 8.63 8.63 8.63 21.38 0 12.76-8.63 21.37-8.62 8.62-21.37 8.62ZM212.31-287.69q-30.31 0-51.31-21-21-21-21-51.31v-347.69Q140-738 161-759q21-21 51.31-21h535.38q26.85 0 46.5 17.35 19.65 17.34 22.73 42.65H622.69q-59.54 0-100.73 41.19-41.19 41.19-41.19 100.73v254.23q0 15.37-10.39 25.76-10.4 10.4-25.76 10.4H212.31ZM630.39-180q-22.6 0-38.42-15.82-15.81-15.82-15.81-38.41v-336.15q0-22.7 15.81-38.47 15.82-15.76 38.42-15.76h179.14q22.78 0 38.55 15.76 15.76 15.77 15.76 38.47v336.15q0 22.59-15.76 38.41Q832.31-180 809.53-180H630.39Zm89.54-280q12.3 0 20.42-8.52 8.11-8.51 8.11-19.87 0-12.3-8.11-20.42-8.11-8.11-20.51-8.11-11.46 0-19.88 8.11-8.42 8.11-8.42 20.51 0 11.45 8.52 19.88 8.51 8.42 19.87 8.42Z"/></svg>