<svg xmlns="http://www.w3.org/2000/svg" height="24" viewBox="0 -960 960 960" width="24"><path d="M720-347.46ZM485.08-582.38ZM130-180q-12.75 0-21.37-8.63-8.63-8.63-8.63-21.38 0-12.76 8.63-21.37Q117.25-240 130-240h320.77q12.75 0 21.37 8.63 8.63 8.63 8.63 21.38 0 12.76-8.63 21.37-8.62 8.62-21.37 8.62H130Zm217.46-540-60-60h499.46q12.75 0 21.38 8.63 8.62 8.63 8.62 21.38 0 12.76-8.62 21.37-8.63 8.62-21.38 8.62H347.46Zm372.47 260q12.3 0 20.42-8.52 8.11-8.51 8.11-19.87 0-12.3-8.11-20.42-8.11-8.11-20.51-8.11-11.46 0-19.88 8.11-8.42 8.11-8.42 20.51 0 11.45 8.52 19.88 8.51 8.42 19.87 8.42Zm137.61 250.08-53.69-53.69v-294.47q0-2.69-1.93-4.61-1.92-1.93-4.61-1.93H642.69q-2.69 0-4.61 1.93-1.93 1.92-1.93 4.61v126.77l-59.99-60v-79.07q0-22.6 15.81-38.42 15.82-15.81 38.42-15.81h179.22q22.6 0 38.42 15.81 15.81 15.82 15.81 38.42v336.15q0 6.63-1.57 12.7-1.58 6.08-4.73 11.61ZM787.38-81.39 688.77-180h-58.38q-22.6 0-38.42-15.82-15.81-15.82-15.81-38.41v-58.39L200-669.16V-360q0 4.62 3.85 8.46 3.84 3.85 8.46 3.85h238.46q12.75 0 21.37 8.63 8.63 8.63 8.63 21.38 0 12.76-8.63 21.37-8.62 8.62-21.37 8.62H212.31q-30.31 0-51.31-21-21-21-21-51.31v-347.69q0-5.08.77-9.58t2.69-8.42l-69-69q-8.3-8.31-8.5-20.89-.19-12.57 8.5-21.27 8.7-8.69 21.08-8.69 12.38 0 21.08 8.69l712.92 713.31q8.3 8.31 8.5 20.88.19 12.58-8.5 21.27-8.7 8.7-21.08 8.7-12.38 0-21.08-8.7ZM360.54-508.23Z"/></svg>