<svg xmlns="http://www.w3.org/2000/svg" height="24" viewBox="0 -960 960 960" width="24"><path d="M480-100q-101.38 0-165.69-29.1T250-204.23q0-21.31 16.04-40.08t44.35-32.23l47.23 42.85q-12.85 5.15-27.01 12.84-14.15 7.7-19.38 16.23 9.92 17.93 59.04 31.27Q419.38-160 479.81-160q60.42 0 110.04-13.35 49.61-13.34 59.54-31.27-5.08-9.15-20.5-16.84-15.43-7.69-29.27-12.85l46.61-43.46q30.69 14.08 47.23 32.85Q710-226.15 710-204.4q0 46.11-64.31 75.25Q581.38-100 480-100Zm1-195q99.38-75.31 149.19-149.19Q680-518.08 680-590.92q0-103.53-64.81-156.3-64.81-52.78-135-52.78T345-747.19q-65 52.8-65 156.38 0 68.04 49.19 141.12T481-295Zm-1 75q-130.93-97.89-195.46-190.14Q220-502.38 220-590.86q0-66.83 23.58-117.06 23.58-50.23 60.88-84.12 37.31-33.88 83.72-50.92Q434.58-860 480.06-860t91.82 17.04q46.35 17.04 83.66 50.92 37.3 33.89 60.88 84.15Q740-657.63 740-590.92q0 88.49-64.54 180.75Q610.93-317.91 480-220Zm.19-304.23q29.73 0 50.92-21 21.2-21 21.2-51.12 0-30.11-21.24-51.3-21.24-21.2-51.07-21.2-29.54 0-50.92 21.24-21.39 21.25-21.39 51.07 0 30.31 21.39 51.31 21.38 21 51.11 21Zm-.19-72.31Z"/></svg>