<svg xmlns="http://www.w3.org/2000/svg" height="24" viewBox="0 -960 960 960" width="24"><path d="m792.15-82.31-90.23-90.23Q654.08-137.85 598-118.92 541.92-100 480-100q-78.77 0-148.11-29.96-69.35-29.96-120.66-81.27-51.31-51.31-81.27-120.66Q100-401.23 100-480q0-61.92 18.92-118 18.93-56.08 53.62-103.92l-90.23-90.23 42.77-42.77 709.84 709.84-42.77 42.77ZM371.54-502.92l-58.46 189.84 189.84-58.46-131.38-131.38Zm427.84 229.07-204-204 51.54-169.07-169.07 51.54-204-204q45.92-29.31 97.77-44.96Q423.46-860 480-860q78.77 0 148.11 29.96 69.35 29.96 120.66 81.27 51.31 51.31 81.27 120.66Q860-558.77 860-480q0 56.54-15.66 108.38-15.65 51.85-44.96 97.77Z"/></svg>