<svg xmlns="http://www.w3.org/2000/svg" height="24" viewBox="0 -960 960 960" width="24"><path d="M299.39-255.39v-231l10-28.99h339.99l10 28.99v231H299.39Zm60.99-200v140.01h240v-140.01h-240Zm119-240.61q22.39 0 37.35-14.96t14.96-37.35q0-22.38-14.96-37.34-14.96-14.97-37.35-14.97-22.38 0-37.34 14.97-14.96 14.96-14.96 37.34 0 22.39 14.96 37.35T479.38-696Zm159.08-17v-70.62l-50.85 9.93q2.54 6.31 3.31 12.5t.77 12.88q0 6.7-.77 12.89t-3.31 12.5l50.85 9.92ZM299.39-486.39q0-57.61 33.07-103.57 33.08-45.96 86-64.89-13.69-8-24.5-20.03-10.81-12.04-17.19-27.35L243.69-728q-6.23-1.61-10.34-6.04-4.12-4.42-4.12-10.65v-7.23q0-6.23 4.12-10.66 4.11-4.42 10.34-6.03l133.08-25.77q13.46-29.62 40.81-48.23 27.34-18.62 61.8-18.62 22.62 0 42.85 9t35.46 23.39l97.39-19.31q17.07-3.62 30.23 7.42 13.15 11.04 13.15 28.12v128q0 17.07-13.15 28.42-13.16 11.34-30.23 7.73l-97.39-19.31q-3.92 4.31-8.11 7.04-4.2 2.73-9.27 5.88 52.92 18.93 86 64.7 33.07 45.77 33.07 103.76h-59q0-49.23-34.8-84.3-34.81-35.08-85.58-35.08-50.38 0-85 35.08-34.62 35.07-34.62 84.3h-60.99ZM371.69-100q-30.3 0-51.3-21-21-21-21-51.31v-83.08h60.99v83.08q0 5.39 3.47 8.85 3.46 3.46 8.84 3.46h215.39q5.38 0 8.84-3.46t3.46-8.85v-83.08h59v83.08q0 30.31-21 51.31-21 21-51.3 21H371.69Z"/></svg>