<svg xmlns="http://www.w3.org/2000/svg" height="24" viewBox="0 -960 960 960" width="24"><path d="M370.77-580ZM360-90l-30-30v-220H148.46v-60L220-471.54V-760h-40v-60h263.46q-13 13.16-23.65 27.96-10.66 14.81-18.96 32.04H280v314l-46 46h274.15q14.77 8.61 30.46 14.46 15.7 5.85 32.93 8.31V-340H390v220l-30 30Zm280-550q25 0 42.5-17.5T700-700q0-25-17.5-42.5T640-760q-25 0-42.5 17.5T580-700q0 25 17.5 42.5T640-640Zm0 120q30.62 0 56.31-14.31t42.69-38.8q-22.38-13.27-47.38-20.08-25-6.81-51.62-6.81-26.62 0-51.62 6.81-25 6.81-47.38 20.08 17 24.49 42.69 38.8Q609.38-520 640-520Zm0 60q-74.92 0-127.46-52.54Q460-565.08 460-640q0-74.92 52.54-127.46Q565.08-820 640-820q74.92 0 127.46 52.54Q820-714.92 820-640q0 74.92-52.54 127.46Q714.92-460 640-460Z"/></svg>