<svg xmlns="http://www.w3.org/2000/svg" height="24" viewBox="0 -960 960 960" width="24"><path d="m733.15-313.54-42.77-42.77L785-480 606.54-715.38q-1.92-2.31-4.42-3.47-2.5-1.15-5.58-1.15H329l-60-60h327.54q17.07 0 32.54 7.54 15.46 7.54 25.3 21L860-480 733.15-313.54ZM172.31-240H608L160-688v435.69q0 5.39 3.46 8.85t8.85 3.46ZM820-28 647.92-200.08q-7.31 9.54-17.65 14.81-10.35 5.27-22.73 5.27H172.31q-29.92 0-51.12-21.19Q100-222.39 100-252.31v-455.38q0-9.08 2.12-17.23 2.11-8.16 5.96-15L28-820l42.15-42.15 792 792L820-28ZM557-538.15ZM384-464Z"/></svg>