<svg xmlns="http://www.w3.org/2000/svg" height="24" viewBox="0 -960 960 960" width="24"><path d="M172.31-180Q142-180 121-201q-21-21-21-51.31v-455.38Q100-738 121-759q21-21 51.31-21h615.38Q818-780 839-759q21 21 21 51.31v455.38Q860-222 839-201q-21 21-51.31 21H172.31ZM160-287.69v35.38q0 4.62 3.85 8.46 3.84 3.85 8.46 3.85h615.38q4.62 0 8.46-3.85 3.85-3.84 3.85-8.46v-35.38H160Zm0 0V-240-287.69Zm410-216.16V-450q0 12.77 8.62 21.38Q587.23-420 600-420t21.38-8.62Q630-437.23 630-450v-53.85h53.85q12.77 0 21.38-8.61 8.62-8.62 8.62-21.39 0-12.76-8.62-21.38-8.61-8.61-21.38-8.61H630v-53.85q0-12.77-8.62-21.39-8.61-8.61-21.38-8.61t-21.38 8.61q-8.62 8.62-8.62 21.39v53.85h-53.85q-12.77 0-21.38 8.61-8.62 8.62-8.62 21.38 0 12.77 8.62 21.39 8.61 8.61 21.38 8.61H570ZM160-347.69h640v-360q0-5.39-3.46-8.85t-8.85-3.46H172.31q-5.39 0-8.85 3.46t-3.46 8.85v360Z"/></svg>