<svg xmlns="http://www.w3.org/2000/svg" height="24" viewBox="0 -960 960 960" width="24"><path d="M805.85-71 62.92-813.92q-8.3-8.31-8.5-20.89-.19-12.58 8.5-21.27 8.7-8.69 21.08-8.69 12.38 0 21.08 8.69L848-113.15q8.31 8.3 8.5 20.88.19 12.58-8.5 21.27t-21.08 8.69q-12.38 0-21.07-8.69Zm-517-829h378.84q29.83 0 51.07 21.24Q740-857.52 740-827.69v126.31q16.46 4.3 27.46 17.19 11 12.88 11 29.96v75.38q0 17.08-11 29.97-11 12.88-27.46 17.19v124.84q0 15-9.35 22.5-9.36 7.5-20.58 7.5-11.22 0-20.65-7.84-9.42-7.84-9.42-22.77v-420.23q0-5.39-3.46-8.85t-8.85-3.46H220q3.08-25.31 22.54-42.65Q262-900 288.85-900ZM480.8-713.85q15.05 0 25.2-10.18 10.15-10.18 10.15-25.23t-10.18-25.2q-10.18-10.15-25.23-10.15t-25.2 10.18q-10.15 10.18-10.15 25.23t10.18 25.2q10.18 10.15 25.23 10.15ZM292.31-60q-29.83 0-51.07-21.24Q220-102.48 220-132.31v-608.84l60 60v548.84q0 5.39 3.46 8.85t8.85 3.46h375.77q5.38 0 8.65-3.46 3.27-3.46 3.27-8.85v-148.84l60 59.99v88.85q0 29.83-21.24 51.07Q697.52-60 667.69-60H292.31Zm146.38-340.77Zm113.08-118.77Z"/></svg>