<svg xmlns="http://www.w3.org/2000/svg" height="24" viewBox="0 -960 960 960" width="24"><path d="m717.69-452.69-41.77-41.77 99.47-99.46q-84.55-4.93-169.81 13.42-85.27 18.35-177.12 108.34 38.16-104.3 134.77-154.92 96.62-50.61 210.16-50.61l-97.47-97.85 41.77-41.77L900-635 717.69-452.69ZM479.62-100Q326.69-230.85 253.35-344.31 180-457.77 180-552.77q0-128.31 87.04-217.77Q354.08-860 479.62-860q35 0 69.8 7.31 34.81 7.31 66.04 23.46l-46.61 47q-21.08-9.46-43.73-13.62-22.66-4.15-45.5-4.15Q379-800 309.5-728.27T240-552.77q0 73.69 57.85 166.23Q355.69-294 479.62-180.46q58.84-54.23 105-105.58 46.15-51.34 81.3-103.88l43.39 43.38q-44.23 64-102.08 125.42Q549.38-159.69 479.62-100Z"/></svg>