<svg xmlns="http://www.w3.org/2000/svg" height="24" viewBox="0 -960 960 960" width="24"><path d="M596.15-100q-29.82 0-51.06-21.24-21.24-21.24-21.24-51.07v-151.92q0-12.75 8.63-21.38 8.62-8.62 21.38-8.62 12.75 0 21.37 8.62 8.61 8.63 8.61 21.38v151.92q0 5.39 3.47 8.85 3.46 3.46 8.84 3.46h231.54q5.39 0 8.85-3.46t3.46-8.85V-710q0-5.38-3.46-8.85-3.46-3.46-8.85-3.46H596.15q-5.38 0-8.84 3.46-3.47 3.47-3.47 8.85v74.62q0 12.75-8.62 21.37-8.63 8.62-21.39 8.62-12.75 0-21.37-8.62-8.61-8.62-8.61-21.37V-710q0-29.83 21.24-51.07 21.24-21.24 51.06-21.24h231.54q29.83 0 51.07 21.24Q900-739.83 900-710v537.69q0 29.83-21.24 51.07Q857.52-100 827.69-100H596.15Zm-463.84-77.69q-29.83 0-51.07-21.24Q60-220.17 60-250v-537.69q0-29.83 21.24-51.07Q102.48-860 132.31-860h231.54q29.82 0 51.06 21.24 21.24 21.24 21.24 51.07v152.31q0 12.75-8.63 21.37-8.62 8.62-21.38 8.62-12.75 0-21.37-8.62-8.61-8.62-8.61-21.37v-152.31q0-5.39-3.47-8.85-3.46-3.46-8.84-3.46H132.31q-5.39 0-8.85 3.46t-3.46 8.85V-250q0 5.38 3.46 8.85 3.46 3.46 8.85 3.46h231.54q5.38 0 8.84-3.46 3.47-3.47 3.47-8.85v-74.23q0-12.75 8.62-21.38 8.63-8.62 21.39-8.62 12.75 0 21.37 8.62 8.61 8.63 8.61 21.38V-250q0 29.83-21.24 51.07-21.24 21.24-51.06 21.24H132.31Zm579.66-439.62q12.18 0 20.11-7.97 7.92-7.96 7.92-20.15 0-12.18-7.97-20.11-7.97-7.92-20.15-7.92-12.19 0-20.11 7.97-7.92 7.96-7.92 20.15 0 12.19 7.96 20.11 7.97 7.92 20.16 7.92ZM248.12-695q12.19 0 20.11-7.97t7.92-20.15q0-12.19-7.96-20.11-7.97-7.92-20.16-7.92-12.18 0-20.11 7.96-7.92 7.97-7.92 20.16 0 12.18 7.97 20.11 7.97 7.92 20.15 7.92ZM120-237.69V-800-237.69ZM840-160V-722.31-160ZM323.09-445.39q-14.7 0-24.67-9.94-9.96-9.95-9.96-24.66 0-14.7 9.95-24.66t24.65-9.96q14.71 0 24.67 9.94 9.96 9.95 9.96 24.66 0 14.7-9.95 24.66-9.94 9.96-24.65 9.96Zm156.92 0q-14.7 0-24.66-9.94-9.96-9.95-9.96-24.66 0-14.7 9.94-24.66 9.95-9.96 24.66-9.96 14.7 0 24.66 9.94 9.96 9.95 9.96 24.66 0 14.7-9.94 24.66-9.95 9.96-24.66 9.96Zm156.54 0q-14.7 0-24.67-9.94-9.96-9.95-9.96-24.66 0-14.7 9.95-24.66t24.65-9.96q14.71 0 24.67 9.94 9.96 9.95 9.96 24.66 0 14.7-9.94 24.66-9.95 9.96-24.66 9.96Z"/></svg>