<svg xmlns="http://www.w3.org/2000/svg" height="24" viewBox="0 -960 960 960" width="24"><path d="M595.38-130.77h233.85v-30.31q-23.08-24.15-53.5-36.92-30.42-12.77-63.42-12.77T648.88-198q-30.42 12.77-53.5 36.92v30.31Zm116.93-116.92q23.07 0 39.23-16.16 16.15-16.15 16.15-39.23 0-23.07-16.15-39.23-16.16-16.15-39.23-16.15-23.08 0-39.23 16.15-16.16 16.16-16.16 39.23 0 23.08 16.16 39.23 16.15 16.16 39.23 16.16ZM480-480Zm.46-120q-49.92 0-84.96 35.04-35.04 35.04-35.04 84.96 0 40.31 22.19 70.54 22.2 30.23 58.12 43.07.38-16.84 1.46-32.46 1.08-15.61 7.15-28.38-14.76-7.62-21.84-22-7.08-14.39-7.08-30.77 0-25 17.5-42.5t42.5-17.5q15.77 0 29.46 7.88 13.7 7.89 22.31 21.27 9.08-4.61 18.96-6.61 9.89-2 19.96-2h22.16q-11.85-35.31-42.58-57.92Q520-600 480.46-600Zm-92.77 500-15.23-121.85q-16.07-5.38-32.96-15.07-16.88-9.7-30.19-20.77L196.46-210l-92.3-160 97.61-73.77q-1.38-8.92-1.96-17.92-.58-9-.58-17.93 0-8.53.58-17.34t1.96-19.27L104.16-590l92.3-159.23 112.46 47.31q14.47-11.46 30.89-20.96t32.27-15.27L387.69-860h184.62l15.23 122.23q18 6.54 32.57 15.27 14.58 8.73 29.43 20.58l114-47.31L855.84-590l-88.07 66.92q.38.77.38 1.54t.39 1.54h-74.08q-1-5-1.81-9.92-.8-4.93-2.8-9.93L777.38-606 738-674l-100.54 42.38q-20.08-21.46-48.11-37.92-28.04-16.46-56.73-23.31L520-800h-79.38l-13.24 106.77q-30.61 7.23-56.53 22.15-25.93 14.93-49.47 38.46L222-674l-39.38 68L269-541.62q-5 14.24-7 29.62t-2 32.38q0 15.62 2 30.62 2 15 6.62 29.62l-86 65.38L222-286l99-42q24 24.62 54.19 41.04 30.19 16.42 64.81 22.58V-100h-52.31Zm195.39 36.92q-23.08 0-39.23-16.15-16.16-16.16-16.16-39.23v-258.46q0-23.08 16.16-39.23 16.15-16.16 39.23-16.16h258.46q23.07 0 39.23 16.16 16.15 16.15 16.15 39.23v258.46q0 23.07-16.15 39.23-16.16 16.15-39.23 16.15H583.08Z"/></svg>