<svg xmlns="http://www.w3.org/2000/svg" height="24" viewBox="0 -960 960 960" width="24"><path d="M337.69-63.08q-7.21 0-11.18-5.88-3.97-5.89-1.74-12.58L351-156.16h-56.96q-4.59 0-7.43-3.64t-.84-8.2l35.31-99.31q2.71-8.13 9.49-13.1 6.78-4.98 15.82-4.98h38.23q9.89 0 15.29 8.04 5.4 8.04 1.17 17.27l-28.69 67h57.79q5.59 0 8.2 4.93 2.62 4.92-1.14 9.63L351.77-68.16q-2.27 2.91-5.29 3.99-3.02 1.09-8.79 1.09ZM587.04-100q-7.35 0-11.31-5.89-3.96-5.88-1.73-12.57l19.38-56.16h-59.27q-4.64 0-7.49-3.64-2.85-3.65-.85-8.2l28.54-80.73q2.77-8.35 9.57-13.27 6.81-4.93 15.89-4.93h37.61q9.77 0 15.54 8.04t1.54 17.27l-21.08 48.54h56.44q5.55 0 7.87 4.92 2.31 4.93-1.45 9.66L601-105.08q-.74.73-13.96 5.08ZM300-330q-87.15 0-148.58-61.42Q90-452.85 90-540q0-80.31 53.65-139.61 53.66-59.31 133.5-69.16 30.89-56.64 84.44-88.93Q415.15-870 479.85-870q88.23 0 152.42 57.31 64.19 57.31 76.27 142.92 71.31 5.23 116.38 54.12Q870-566.77 870-499.88q0 70.65-49.58 120.26Q770.83-330 700-330H300Zm0-60h400q45.85 0 77.92-32.08Q810-454.15 810-500t-32.08-77.92Q745.85-610 700-610h-50v-30q0-70.13-49.95-120.06Q550.09-810 479.94-810q-51.02 0-92.97 27.67-41.96 27.66-63.2 74.48L316.41-690H298q-61.13 2.14-104.57 45.54Q150-601.07 150-540q0 62.14 43.93 106.07Q237.86-390 300-390Zm180-210Z"/></svg>