<svg xmlns="http://www.w3.org/2000/svg" height="24" viewBox="0 -960 960 960" width="24"><path d="M432.85-100q-30.31 0-57.31-12.77-27-12.77-45.15-36.69L139.77-396q-6.08-7.46-5.46-17.08.61-9.61 7.08-16.07 15-16 35.88-19.23 20.88-3.24 39.11 7.92l97.47 52.31v-316.46q0-12.75 8.63-21.38 8.62-8.62 21.38-8.62t21.68 8.62q8.92 8.63 8.92 21.38v359.98q0 20.7-18 31.05-18 10.35-36.08.27l-66-34.31L379.15-185q9.85 12.38 24 18.69 14.16 6.31 29.7 6.31h196.76q37.62 0 64.01-26.19Q720-212.39 720-250v-150.77q0-20.6-13.93-34.53-13.94-13.93-34.53-13.93H499.85q-12.75 0-21.38-8.63-8.62-8.63-8.62-21.38 0-12.76 8.62-21.37 8.63-8.62 21.38-8.62h171.69q45.19 0 76.82 31.63Q780-445.96 780-400.77v150.74q0 62.18-44.18 106.11Q691.65-100 629.61-100H432.85Zm54.53-234.61Zm-144.08-595q93.78 0 159.35 65.62 65.58 65.63 65.58 159.38 0 24.23-5 47.34-5 23.12-15.38 45.35-3.85 8.69-12.43 10.92-8.57 2.23-17.27-1.81-8.69-4.04-12.03-13.54-3.35-9.49.5-19.42 6.76-16.77 10.34-33.92 3.58-17.15 3.58-34.92 0-73.88-51.71-125.6-51.71-51.71-125.58-51.71-73.86 0-125.6 51.71-51.73 51.72-51.73 125.6 0 18.15 3.27 35.42 3.27 17.27 10.04 33.04 4.23 9.92.68 19.48-3.55 9.55-12.23 13.53-8.68 3.99-17.26 1.45-8.57-2.54-12.42-11.23-9.38-21.23-14.58-44.35-5.19-23.11-5.19-47.34 0-93.75 65.65-159.38 65.64-65.62 159.42-65.62Zm0 97.3q52.93 0 90.28 37.4 37.34 37.39 37.34 90.3 0 10.38-1.5 19.38-1.5 9-4.27 18-3.29 10.4-12.33 15.2-9.05 4.8-18.74 1.57-9.7-3.23-14.46-12.12-4.77-8.88-1.54-18.19 1.38-3.57 4.15-23.84 0-33-23.5-56.5t-56.5-23.5q-33 0-56.5 23.19t-23.5 56.81q0 6.15.89 12.42.88 6.27 3.27 12.42 2.61 9.31-1.85 17.58-4.46 8.27-13.96 10.88-9.5 2.62-17.89-2.23-8.38-4.84-12-14.92-2.38-7.38-3.77-16.27-1.38-8.88-1.38-19.88 0-53.62 37.42-90.66 37.41-37.04 90.34-37.04Z"/></svg>