<svg xmlns="http://www.w3.org/2000/svg" height="24" viewBox="0 -960 960 960" width="24"><path d="M343.23-929.61q93.85 0 159.42 65.57 65.58 65.58 65.58 159.43 0 24.23-5 47.34-5 23.12-15.38 45.35-3.85 8.69-12.43 10.92-8.57 2.23-17.27-1.61-8.69-4.24-12.03-13.74-3.35-9.49.5-19.42 6.76-16.77 10.34-33.92 3.58-17.15 3.58-34.92 0-73.85-51.73-125.58-51.73-51.73-125.58-51.73-73.84 0-125.58 51.73-51.73 51.73-51.73 125.58 0 18.15 3.27 35.42 3.27 17.27 10.04 33.04 4.23 9.92.69 19.42-3.53 9.5-12.23 13.73-8.69 3.85-17.27 1.31-8.57-2.54-12.42-11.23-9.38-21.23-14.58-44.35-5.19-23.11-5.19-47.34 0-93.85 65.58-159.43 65.58-65.57 159.42-65.57Zm0 97.3q53 0 90.35 37.35 37.34 37.35 37.34 90.35 0 10.38-1.5 19.38-1.5 9-4.27 18-3.23 10.31-12.3 15.15-9.08 4.85-18.77 1.62-9.7-3.23-14.46-12.12-4.77-8.88-1.54-18.19 1.38-3.77 4.15-23.84 0-33-23.5-56.5t-56.5-23.5q-33 0-56.5 23.19t-23.5 56.81q0 6.15.89 12.42.88 6.27 3.27 12.42 2.61 9.31-1.85 17.58-4.46 8.27-13.77 10.88-9.69 2.62-18.08-2.23-8.38-4.84-12-14.92-2.38-7.38-3.77-16.27-1.38-8.88-1.38-19.88 0-53.62 37.35-90.66 37.34-37.04 90.34-37.04ZM432.85-100q-30.31 0-57.31-12.77-27-12.77-45.15-36.69L139.77-396q-6.08-7.46-5.46-17.08.61-9.61 7.08-16.07 15-16 35.88-19.23 20.88-3.24 39.11 7.92l97.47 52.31v-316.46q0-12.77 8.61-21.39 8.62-8.61 21.39-8.61 12.77 0 21.69 8.61 8.92 8.62 8.92 21.39v195.38h297.08q45.38 0 76.92 31.54T780-400.77V-250q0 62.15-44.12 106.08Q691.77-100 629.61-100H432.85Z"/></svg>