<svg xmlns="http://www.w3.org/2000/svg" height="24" viewBox="0 -960 960 960" width="24"><path d="M732.31-300v-60h72.3v60h-72.3Zm0-150v-60h112.3v60h-112.3Zm0-150v-61h152.3v61h-152.3ZM299.23-100l-49.38-169.69q-49.16-33.77-79.5-89.23Q140-414.38 140-480t30.35-121.08q30.34-55.46 79.5-89.23L299.23-860h201.54l49.38 169.69q49.16 33.77 79.5 89.23Q660-545.62 660-480t-30.35 121.08q-30.34 55.46-79.5 89.23L500.77-100H299.23ZM400-280q83 0 141.5-58.5T600-480q0-83-58.5-141.5T400-680q-83 0-141.5 58.5T200-480q0 83 58.5 141.5T400-280Z"/></svg>