<svg xmlns="http://www.w3.org/2000/svg" height="24" viewBox="0 -960 960 960" width="24"><path d="M120-160q-33 0-56.5-23.5T40-240v-560q0-33 23.5-56.5T120-880h240q33 0 56.5 23.5T440-800v160q0 17-11.5 28.5T400-600h-80q-50 0-85 35t-35 85q0 50 35 85t85 35h80q17 0 28.5 11.5T440-320v80q0 33-23.5 56.5T360-160H120Zm120-540q13 0 21.5-8.5T270-730q0-13-8.5-21.5T240-760q-13 0-21.5 8.5T210-730q0 13 8.5 21.5T240-700Zm80 260q-17 0-28.5-11.5T280-480q0-17 11.5-28.5T320-520q17 0 28.5 11.5T360-480q0 17-11.5 28.5T320-440Zm160 0q-17 0-28.5-11.5T440-480q0-17 11.5-28.5T480-520q17 0 28.5 11.5T520-480q0 17-11.5 28.5T480-440ZM600-80q-33 0-56.5-23.5T520-160v-160q0-17 11.5-28.5T560-360h80q50 0 85-35t35-85q0-50-35-85t-85-35h-80q-17 0-28.5-11.5T520-640v-80q0-33 23.5-56.5T600-800h240q33 0 56.5 23.5T920-720v560q0 33-23.5 56.5T840-80H600Zm40-360q-17 0-28.5-11.5T600-480q0-17 11.5-28.5T640-520q17 0 28.5 11.5T680-480q0 17-11.5 28.5T640-440Zm80-180q13 0 21.5-8.5T750-650q0-13-8.5-21.5T720-680q-13 0-21.5 8.5T690-650q0 13 8.5 21.5T720-620Z"/></svg>