<svg xmlns="http://www.w3.org/2000/svg" height="24" viewBox="0 -960 960 960" width="24"><path d="M560-240h-80q-17 0-28.5 11.5T440-200q0 17 11.5 28.5T480-160h120q17 0 28.5-11.5T640-200v-120q0-17-11.5-28.5T600-360q-17 0-28.5 11.5T560-320v80ZM280-40q-33 0-56.5-23.5T200-120v-720q0-33 23.5-56.5T280-920h400q33 0 56.5 23.5T760-840v124q18 7 29 22t11 34v80q0 19-11 34t-29 22v404q0 33-23.5 56.5T680-40H280Zm0-80h400v-720H280v720Zm0 0v-720 720Zm120-600h80q17 0 28.5-11.5T520-760q0-17-11.5-28.5T480-800H360q-17 0-28.5 11.5T320-760v120q0 17 11.5 28.5T360-600q17 0 28.5-11.5T400-640v-80Z"/></svg>