<svg xmlns="http://www.w3.org/2000/svg" height="24" viewBox="0 -960 960 960" width="24"><path d="M120-320h208q-10 14-19 28.5T292-260q-10 19-9.5 40t9.5 40q8 17 17 31.5t19 28.5H200q-33 0-56.5-23.5T120-200v-120Zm0-80v-200h320v173q-10 6-19.5 12.5T402-400H120Zm400-200h320v173q-44-26-93.5-39.5T640-480q-32 0-62 4.5T520-463v-137Zm-400-80v-80q0-33 23.5-56.5T200-840h560q33 0 56.5 23.5T840-760v80H120ZM640-40q-79 0-147.5-36T382-178q-6-9-9-19.5t-3-21.5q0-11 3-22t9-21q42-66 110.5-102T640-400q79 0 147.5 36T898-262q6 10 9 20.5t3 21.5q0 11-3 21.5t-9 20.5q-42 66-110.5 102T640-40Zm0-80q42 0 71-29t29-71q0-42-29-71t-71-29q-42 0-71 29t-29 71q0 42 29 71t71 29Zm0-40q-25 0-42.5-17.5T580-220q0-25 17.5-42.5T640-280q25 0 42.5 17.5T700-220q0 25-17.5 42.5T640-160Z"/></svg>