<svg xmlns="http://www.w3.org/2000/svg" height="20" viewBox="0 -960 960 960" width="20"><path d="M300.31-140Q270-140 253-157q-17-17-17-47.31v-365.92q0-30.31 17-47.31 17-17 47.31-17h359.38q30.31 0 47.31 17 17 17 17 47.31v365.92Q724-174 707-157q-17 17-47.31 17H300.31Zm0-52h359.38q5.39 0 8.85-3.46t3.46-8.85v-365.92q0-5.39-3.46-8.85t-8.85-3.46H300.31q-5.39 0-8.85 3.46t-3.46 8.85v365.92q0 5.39 3.46 8.85t8.85 3.46Zm149.08-59.15h61.22v-31.39h-61.22v31.39Zm-.62-67.39h61.46q0-17 7.08-31.96 7.07-14.96 15.69-29.35 9.46-14.84 16.88-29.95 7.43-15.11 7.43-31.74 0-31.81-22.85-54.14Q511.61-518 480-518q-32 0-54.85 22.16-22.84 22.17-22.84 54.42 0 16.96 6.73 31.53 6.73 14.58 16.58 29.43 8.61 14 15.88 29.22 7.27 15.22 7.27 32.7ZM282.08-691.77q0-15.77 10.92-25.73t26.31-9.96h321q15.77 0 26.5 9.96t10.73 25.73H282.08Zm22.46-92.54q0-15.77 10.73-25.73t26.5-9.96h276.46q15.38 0 26.12 9.96 10.73 9.96 10.73 25.73H304.54ZM480-387.46Z"/></svg>