<svg xmlns="http://www.w3.org/2000/svg" height="20" viewBox="0 -960 960 960" width="20"><path d="M461.69-543.31Zm-142 272.77v-279.54q0-2.69-1.92-4.61-1.92-1.93-4.62-1.93H174.54q-2.69 0-4.62 1.93-1.92 1.92-1.92 4.61v279.54q0 2.69 1.92 4.62 1.93 1.92 4.62 1.92h138.61q2.7 0 4.62-1.92 1.92-1.93 1.92-4.62ZM164.23-212q-22.59 0-35.41-12.82Q116-237.64 116-260.23v-300.15q0-22.6 12.82-35.42 12.82-12.81 35.41-12.81h159.23q22.6 0 35.41 12.81 12.82 12.82 12.82 35.42v300.15q0 22.59-12.82 35.41Q346.06-212 323.46-212H164.23Zm79.27-268q9.58 0 16.19-6.63 6.62-6.64 6.62-15.48 0-9.58-6.49-16.2-6.5-6.61-16.42-6.61-9.17 0-15.59 6.49t-6.42 16.42q0 9.16 6.63 15.59 6.63 6.42 15.48 6.42Zm396.81 379.38v-172.84q-12-3.46-18-14.19t-6-23.35q0-17.58 12.13-29.71 12.13-12.14 29.15-12.14 17.87 0 30.14 12.14Q700-328.58 700-311q0 13.62-6.19 23.46-6.2 9.85-17.81 14.08v172.84h-35.69Zm-76.46-109.92q-21.39-19.61-32.47-45.66-11.07-26.05-11.07-54.8 0-57.72 40.4-97.78 40.41-40.07 97.15-40.07 57.6 0 97.87 40.07Q796-368.72 796-311q0 31.38-13.27 58.69t-36.65 47.54l-23.16-27.54q18.31-15.15 27.85-35.57 9.54-20.43 9.54-43.12 0-42.9-29.56-72.53-29.56-29.62-72.37-29.62-42.54 0-72.46 29.62Q556-353.9 556-311q0 21.84 8.54 41.5 8.54 19.65 24.46 33.81l-25.15 25.15Zm-67.62 68q-35.54-32.84-53.73-76.97-18.19-44.12-18.19-91.49 0-97.42 68.2-165.63 68.21-68.22 165.13-68.22 97.82 0 166.09 68.22Q892-408.42 892-311q0 51-22.08 97t-60.23 79.46l-22.38-26.77q31.3-28.38 50.15-67.25 18.85-38.87 18.85-82.44 0-82.58-57.82-140.37-57.81-57.78-140.89-57.78-82.08 0-139.84 57.6Q460-393.95 460-310.53q0 40.22 15.15 78.34 15.16 38.11 45.85 64.88l-24.77 24.77ZM116-696q3.08-25.31 18.73-38.65Q150.39-748 177.23-748h617.85q30.3 0 47.3 17 17 17 17 47.31v130.92q-12.38-10.69-24.69-19.27-12.3-8.57-27.3-15.81v-95.84q0-4.62-3.85-8.46-3.85-3.85-8.46-3.85H116Zm127.85 285.69Z"/></svg>