<svg xmlns="http://www.w3.org/2000/svg" height="20" viewBox="0 -960 960 960" width="20"><path d="M164.23-212q-22.59 0-35.41-12.82Q116-237.64 116-260.23v-300.15q0-22.31 12.82-35.27 12.82-12.96 35.41-12.96h159.15q22.39 0 35.35 12.96t12.96 35.27v300.15q0 22.59-12.96 35.41Q345.77-212 323.38-212H164.23Zm493.92-412.54q-60.69 0-114.46 21.96-53.77 21.96-95 59.27v-33.61q-5.38-53-38.04-82.2-32.65-29.19-87.19-29.19H163.62q-14.85 0-26.5 2.5-11.66 2.5-21.12 7.12v-9.23q0-25.08 17.5-42.58t42.58-17.5h619q30.3 0 47.3 17 17 17 17 47.31v131.92q-43.46-33.92-94.34-53.35-50.89-19.42-106.89-19.42Zm-161.92 482q-35.54-32.84-53.73-76.72-18.19-43.87-18.19-91.74 0-97.42 68.18-165.63 68.17-68.22 165.58-68.22 97.39 0 165.66 68.22Q892-408.42 892-311q0 51-22.08 97t-60.23 79.46l-22.38-26.77q31.3-28.38 50.15-67.25 18.85-38.87 18.85-82.44 0-82.58-57.82-140.37-57.81-57.78-140.44-57.78-82.59 0-140.32 57.78Q460-393.58 460-311q0 40.69 15.15 78.81 15.16 38.11 45.85 64.88l-24.77 24.77Zm67.62-68q-21.39-19.61-32.47-45.74-11.07-26.13-11.07-54.72 0-57.42 40.17-97.63 40.16-40.22 97.59-40.22 57.39 0 97.66 40.22Q796-368.42 796-311q0 31.38-13.27 58.69t-36.65 47.54l-23.16-27.54q18.31-15.15 27.85-35.75 9.54-20.6 9.54-42.94 0-42.58-29.79-72.37-29.78-29.78-72.37-29.78-42.31 0-72.23 29.78Q556-353.58 556-311q0 22.2 8.54 41.68 8.54 19.47 24.46 33.63l-25.15 25.15Zm76.46 109.92v-172.84q-12-3.46-18-14.19t-6-23.35q0-17.42 12.13-29.63 12.13-12.22 29.64-12.22 17.38 0 29.65 12.22Q700-328.42 700-311q0 13.62-6.19 23.46-6.2 9.85-17.81 14.08v172.84h-35.69ZM243.77-480.38q8.31 0 14.92-6.52 6.62-6.52 6.62-15.87 0-8.31-6.61-14.92-6.61-6.62-15.02-6.62-9.45 0-15.87 6.61t-6.42 15.02q0 9.45 6.51 15.87 6.52 6.43 15.87 6.43Z"/></svg>