<svg xmlns="http://www.w3.org/2000/svg" height="20" viewBox="0 -960 960 960" width="20"><path d="M263.28-212q-28.51 0-47.59-18.65-19.07-18.65-19.07-45.66v-345.77L68-748h661.56q28.28 0 47.36 18.66T796-683.65v407.62q0 27.03-19.23 45.53t-47 18.5H263.28Zm-64.36-484 49.69 51.23v368.46q0 4.62 4.43 8.46 4.42 3.85 9.81 3.85h466.92q5.38 0 9.81-3.85 4.42-3.84 4.42-8.46v-407.38q0-4.62-4.42-8.46-4.43-3.85-9.81-3.85H198.92Zm288 389 37.15-36.15L465-400.16h184.31v-51.99h-311L486.92-307ZM338.31-507.85h311L500.08-654l-37.16 37.15L523-559.84H338.31v51.99ZM471.46-480Z"/></svg>