<svg xmlns="http://www.w3.org/2000/svg" height="20" viewBox="0 -960 960 960" width="20"><path d="M791.46-88.31 667.77-212h-27.38q-22.7 0-35.47-12.77-12.76-12.77-12.76-35.46v-27.39L504.77-375v55.31H228.31q-30.31 0-47.31-17-17-17-17-47.31v-299.69q0-8.08 1.27-14.58t4.19-12.42l-88.07-87.7 37.15-36.53 709.07 709.46-36.15 37.15ZM504.38-551.08 307.46-748h424.23q26.85 0 42.5 13.35 15.65 13.34 18.73 38.65H632.69q-55.31 0-92.77 39.31-37.46 39.31-35.54 93.61v12Zm329.16 329.16L592.16-463.59v-96.93q0-22.64 12.76-35.36 12.77-12.73 35.47-12.73h159.22q22.7 0 35.47 12.76 12.76 12.77 12.76 35.47v300.15q0 11.77-3.77 21.34-3.78 9.58-10.53 16.97ZM720-480q9.23 0 15.85-6.57 6.61-6.58 6.61-16.39 0-8.45-6.61-15.21-6.62-6.75-15.85-6.75-9.62 0-16.04 6.75-6.42 6.76-6.42 15.21 0 9.81 6.42 16.39Q710.38-480 720-480ZM116-212v-52h388.77v52H116Z"/></svg>