<svg xmlns="http://www.w3.org/2000/svg" height="20" viewBox="0 -960 960 960" width="20"><path d="M504.77-533.85ZM116-212v-52h388.77v52H116Zm112.31-107.69q-30.31 0-47.31-17-17-17-17-47.31v-299.69Q164-714 181-731q17-17 47.31-17h503.38q26.85 0 42.5 13.35 15.65 13.34 18.73 38.65H228.31q-4.62 0-8.46 3.85-3.85 3.84-3.85 8.46V-384q0 4.62 3.85 8.46 3.84 3.85 8.46 3.85h276.46v52H228.31Zm567.54 49.15v-279.54q0-2.69-1.93-4.61-1.92-1.93-4.61-1.93H650.69q-2.69 0-4.61 1.93-1.93 1.92-1.93 4.61v279.54q0 2.69 1.93 4.62Q648-264 650.69-264h138.62q2.69 0 4.61-1.92 1.93-1.93 1.93-4.62ZM640.39-212q-22.6 0-35.42-12.82-12.81-12.82-12.81-35.41v-300.15q0-22.6 12.81-35.42 12.82-12.81 35.42-12.81h159.22q22.6 0 35.42 12.81 12.81 12.82 12.81 35.42v300.15q0 22.59-12.81 35.41Q822.21-212 799.61-212H640.39Zm79.26-268q9.58 0 16.2-6.63 6.61-6.64 6.61-15.48 0-9.58-6.49-16.2-6.49-6.61-16.42-6.61-9.17 0-15.59 6.49t-6.42 16.42q0 9.16 6.63 15.59 6.64 6.42 15.48 6.42Zm.35 69.69Z"/></svg>