<svg xmlns="http://www.w3.org/2000/svg" height="20" viewBox="0 -960 960 960" width="20"><path d="M300.31-68q-26.53 0-45.42-18.89T236-132.31v-695.38Q236-858 253-875q17-17 47.31-17h360.92q26.53 0 45.42 18.89t18.89 45.42v287.23H595.31l-21.85 108.92q-37.77 30.08-59.46 73.77-21.69 43.69-21.69 93.42 0 49.73 22.08 93.85 22.07 44.11 59.46 74.81L580.38-68H300.31Zm361.38 0-16-76.16q-33.53-17.92-53.61-50.07Q572-226.39 572-264.38q0-38 20.08-70.16 20.08-32.15 53.61-50.07l16-76.16h104.62l14 81.16q29.53 18.92 46.61 49.42Q844-299.68 844-264.53q0 35.14-17.08 65.3-17.08 30.15-46.61 49.07l-14 82.16H661.69Zm46.11-112.38q35.2 0 59.7-24.31 24.5-24.3 24.5-59.5 0-35.19-24.3-59.69-24.31-24.5-59.5-24.5-35.2 0-59.7 24.3t-24.5 59.5q0 35.2 24.3 59.7 24.31 24.5 59.5 24.5ZM480.59-713.85q13.26 0 22.41-8.97t9.15-22.23q0-13.26-8.97-22.41t-22.23-9.15q-13.26 0-22.41 8.97t-9.15 22.23q0 13.26 8.97 22.41t22.23 9.15Z"/></svg>