<svg xmlns="http://www.w3.org/2000/svg" height="20" viewBox="0 -960 960 960" width="20"><path d="M180.31-212Q150-212 133-229q-17-17-17-47.31v-407.38Q116-714 133-731q17-17 47.31-17h603.23q26.15 0 44.84 18.12 18.7 18.11 19.46 44.27v4.61q-10.84-3.85-22.79-5.58-11.96-1.73-25.3-1.73H640.39q-48.47 0-80.58 23-32.12 23-43.58 65.31v-7.69H328.39l-34 100.84q-27 26-42.31 61.14-15.31 35.14-15.31 75.73t15.31 75.71q15.31 35.12 42.31 61.12l7.69 21.15H180.31Zm460.08 0q-22.6 0-35.42-12.82-12.81-12.82-12.81-35.41v-300.15q0-22.6 12.81-35.42 12.82-12.81 35.42-12.81h159.22q22.6 0 35.42 12.81 12.81 12.82 12.81 35.42v300.15q0 22.59-12.81 35.41Q822.21-212 799.61-212H640.39Zm-254.23 0-22.85-67.77q-21.23-15.46-34.04-39.13-12.81-23.68-12.81-51.12 0-27.44 12.81-51.1 12.81-23.65 34.04-39.11L386.16-528h80.61l22.85 67.77q21.23 15.46 34.03 39.13 12.81 23.68 12.81 51.12 0 27.44-12.81 51.09-12.8 23.66-34.03 39.12L466.77-212h-80.61Zm40.3-107.69q21 0 35.66-14.68 14.65-14.67 14.65-35.63t-14.69-35.64q-14.69-14.67-35.62-14.67-20.92 0-35.61 14.66Q376.16-391 376.16-370t14.65 35.65q14.65 14.66 35.65 14.66ZM719.93-480q9.3 0 15.92-6.52 6.61-6.51 6.61-15.87 0-9.3-6.61-15.92-6.61-6.61-16.01-6.61-9.46 0-15.88 6.61t-6.42 16.01q0 9.45 6.52 15.88 6.51 6.42 15.87 6.42Z"/></svg>