<svg xmlns="http://www.w3.org/2000/svg" height="20" viewBox="0 -960 960 960" width="20"><path d="M228.31-164q-27.01 0-45.66-18.65Q164-201.3 164-228.31v-503.38q0-27.01 18.65-45.66Q201.3-796 228.31-796h503.38q27.01 0 45.66 18.65Q796-758.7 796-731.69v503.38q0 27.01-18.65 45.66Q758.7-164 731.69-164H228.31Zm238.46-225.77h35.69v-179.69h-35.69v179.69Zm-143.23 0h35.69q21.94 0 36.89-14.95 14.96-14.96 14.96-36.9v-34.92h-35.69v42.62q0 3.46-2.5 5.96t-5.97 2.5h-51.07q-3.47 0-5.97-2.5-2.5-2.5-2.5-5.96v-91.39q0-3.46 2.5-5.96t5.97-2.5h95.23v-7.85q0-7.3-12.07-17.57t-29.78-10.27h-45.69q-21.94 0-36.89 14.95-14.96 14.96-14.96 36.9v75.99q0 21.94 14.96 36.9 14.95 14.95 36.89 14.95Zm226.92 0h35.69v-75.08h70.46v-35.69h-70.46v-33.23h94.46v-35.69H550.46v179.69Z"/></svg>