<svg xmlns="http://www.w3.org/2000/svg" height="20" viewBox="0 -960 960 960" width="20"><path d="M283.08-106q58.3 0 95.57-40.62 37.27-40.61 49.5-94.53 9.46-45.23 35.46-80.2 26-34.96 61-53.11 63.31-32 100.16-93.43 36.84-61.42 36.84-133.11 0-104.38-74.3-178.69Q513-854 407.62-854 304.54-854 231-782.96T154.39-610h51.99q3.08-80 61.58-136t139.66-56q83.46 0 142.73 59.27 59.27 59.27 59.27 141.73 0 56.31-27.47 104.04-27.46 47.73-76.76 73.42-42.93 21.46-77.43 66.89-34.5 45.42-51.5 107.42-10.92 35.15-32.5 63.19T283.08-158q-37 0-59.47-26.08-22.46-26.07-22.46-71.69 0-30.31 12.31-51.77 12.31-21.46 31.31-40.38L295.92-308l99.31-172.15q54.31 5.69 94.54-29.74Q530-545.31 530-600q0-51.15-35.42-86.58Q459.15-722 408-722q-58.92 0-95.04 45.15-36.11 45.16-24.19 101.7l-156 136.77L203.54-382q-25.31 27.62-39.85 58-14.54 30.38-14.54 68.23 0 67.54 37.7 108.65Q224.54-106 283.08-106Zm411.77-220.62q53.76-56.69 82.26-126.65 28.5-69.96 28.5-146.73 0-76-28.69-146.85-28.69-70.84-82.07-127.53L659.46-838q46.85 51.54 70.5 112.15 23.66 60.62 23.66 125.85 0 64.85-23.85 125.65-23.85 60.81-70.31 112.35l35.39 35.38Z"/></svg>