<svg xmlns="http://www.w3.org/2000/svg" height="20" viewBox="0 -960 960 960" width="20"><path d="M385.77-564ZM384-98l-26-26v-208H172.46v-52L260-471.54V-744h-48v-52h230.46q-12 12.16-21.65 24.96-9.66 12.81-17.96 27.04H312v294l-66 66h279.15q16.77 7.61 34.46 8.96 17.7 1.35 35.93.81V-332H410v208l-26 26Zm240-526q25 0 42.5-17.5T684-684q0-25-17.5-42.5T624-744q-25 0-42.5 17.5T564-684q0 25 17.5 42.5T624-624Zm0 120q31.62 0 58.81-15.81t43.19-42.3q-23.38-13.27-49.11-19.58-25.72-6.31-53.11-6.31-27.4 0-52.9 6.81T522-562.11q16 26.49 43.19 42.3Q592.38-504 624-504Zm-.23 52q-71.69 0-121.73-50.2Q452-552.4 452-624q0-72.85 50.04-123.92Q552.08-799 624-796q71.92 3 121.96 52.04Q796-694.92 796-623.52t-50.27 121.46Q695.47-452 623.77-452Z"/></svg>