<svg xmlns="http://www.w3.org/2000/svg" height="20" viewBox="0 -960 960 960" width="20"><path d="M156.31-212Q126-212 109-229q-17-17-17-47.31v-407.38Q92-714 109-731q17-17 47.31-17h647.38Q834-748 851-731q17 17 17 47.31v407.38Q868-246 851-229q-17 17-47.31 17H156.31Zm0-52h647.38q5.39 0 8.85-3.46t3.46-8.85v-407.38q0-5.39-3.46-8.85t-8.85-3.46H156.31q-5.39 0-8.85 3.46t-3.46 8.85v407.38q0 5.39 3.46 8.85t8.85 3.46Zm192.77-58.39h261.84v-62.76H349.08v62.76Zm-110.31-115h62.77v-62.76h-62.77v62.76Zm139.77 0h62.77v-62.76h-62.77v62.76Zm140.15 0h62.77v-62.76h-62.77v62.76Zm139.77 0h62.77v-62.76h-62.77v62.76ZM238.77-552.38h62.77v-62.77h-62.77v62.77Zm139.77 0h62.77v-62.77h-62.77v62.77Zm140.15 0h62.77v-62.77h-62.77v62.77Zm137.85 1.92h62.77v-62.77h-62.77v62.77ZM144-264v-432 432Z"/></svg>