<svg xmlns="http://www.w3.org/2000/svg" height="20" viewBox="0 -960 960 960" width="20"><path d="M480.34-116q-75.11 0-141.26-28.27-66.16-28.27-116.11-78-49.94-49.72-78.46-115.79Q116-404.12 116-479.23h52q0 64 24.64 120.87 24.65 56.88 67.2 99.31 42.54 42.43 99.26 66.74Q415.82-168 479.8-168 610-168 701-259t91-221q0-130-91-221t-221-91q-87.23 0-158.54 42.85-71.31 42.84-111.38 114.23h95v52H116V-772h52v107.62q47.23-81.08 129.31-130.35Q379.4-844 480-844q75.85 0 141.7 28.42t115.65 78.21q49.8 49.79 78.22 115.85Q844-555.45 844-480.34q0 75.11-28.42 141.48-28.42 66.37-78.21 116.18-49.79 49.81-115.85 78.25Q555.45-116 480.34-116Zm-72.06-224.62q-14.3 0-24.14-9.66-9.83-9.67-9.83-23.96v-107.8q0-14.29 10.37-24t25.71-9.71v-38.39q0-28.82 20.51-49.34Q451.42-624 480.24-624q28.81 0 49.2 20.47 20.39 20.47 20.39 49.22V-516q15.24 0 25.55 9.69 10.31 9.68 10.31 24v108q0 14.32-9.67 24.01-9.67 9.68-23.96 9.68H408.28ZM441.69-516h76.62v-37.95q0-16.13-11.06-27.4t-27.04-11.27q-15.98 0-27.25 11.12t-11.27 27.34V-516Z"/></svg>