<svg xmlns="http://www.w3.org/2000/svg" height="20" viewBox="0 -960 960 960" width="20"><path d="M809.92-77.92 69.85-818 107-854.15l739.08 739.07-36.16 37.16ZM724-339.69l-52-52v-436q0-5.39-3.46-8.85t-8.85-3.46H236q3.08-21.31 20.54-36.65Q274-892 296.85-892h362.84q26.53 0 45.42 18.89T724-827.69v146.31q18.46-2.7 32.46 9.19 14 11.88 14 29.96v91.38q0 18.08-14 29.97-14 11.88-32.46 9.19v172ZM480.59-713.85q13.26 0 22.41-8.97t9.15-22.23q0-13.26-8.97-22.41t-22.23-9.15q-13.26 0-22.41 8.97t-9.15 22.23q0 13.26 8.97 22.41t22.23 9.15ZM300.31-68q-26.53 0-45.42-18.89T236-132.31v-592.84l52 52v540.84q0 5.39 3.46 8.85t8.85 3.46h359.77q5.38 0 8.65-3.46 3.27-3.46 3.27-8.85v-156.84l52 51.99v104.85q0 28.83-20.24 46.57Q683.52-68 659.69-68H300.31Zm137.38-328.77Zm110.08-122.77Z"/></svg>