<svg xmlns="http://www.w3.org/2000/svg" height="20" viewBox="0 -960 960 960" width="20"><path d="M132.31-209.69q-26.53 0-45.42-18.89T68-274v-505.69q0-26.53 18.89-45.42T132.31-844h231.54q26.52 0 45.41 18.89 18.89 18.89 18.89 45.42v186.3h-86q-47.24 0-80.31 33.09-33.07 33.08-33.07 80.35 0 47.26 33.18 80.49t80.59 33.23h85.61v92.46q0 26.6-18.89 45.34-18.89 18.74-45.41 18.74H132.31ZM248.12-684q12.62 0 20.83-8.25 8.2-8.25 8.2-20.87 0-12.62-8.25-20.83-8.25-8.2-20.87-8.2-12.62 0-20.82 8.25-8.21 8.25-8.21 20.87 0 12.62 8.25 20.82 8.25 8.21 20.87 8.21Zm91.18 234.61q-12.91 0-21.88-8.73-8.96-8.74-8.96-21.66 0-12.91 8.74-21.87t21.65-8.96q12.92 0 21.88 8.73 8.96 8.74 8.96 21.66 0 12.91-8.74 21.87-8.73 8.96-21.65 8.96Zm140.92 0q-12.91 0-21.87-8.73-8.96-8.74-8.96-21.66 0-12.91 8.73-21.87 8.74-8.96 21.66-8.96 12.91 0 21.87 8.73 8.96 8.74 8.96 21.66 0 12.91-8.73 21.87-8.74 8.96-21.66 8.96ZM596.15-116q-26.52 0-45.41-18.89-18.89-18.89-18.89-45.42v-185.92h85.61q47.24 0 80.32-33.08 33.07-33.09 33.07-80.35 0-47.26-33.07-80.49-33.08-33.24-80.32-33.24h-85.61v-92.84q0-26.6 18.89-45.34 18.89-18.74 45.41-18.74h231.54q26.53 0 45.42 18.89T892-686v505.69q0 26.53-18.89 45.42T827.69-116H596.15Zm24.61-333.39q-12.91 0-21.88-8.73-8.96-8.74-8.96-21.66 0-12.91 8.74-21.87t21.65-8.96q12.92 0 21.88 8.73 8.96 8.74 8.96 21.66 0 12.91-8.73 21.87-8.74 8.96-21.66 8.96Zm91.21-140.92q12.62 0 20.82-8.25 8.21-8.25 8.21-20.87 0-12.62-8.25-20.82-8.25-8.21-20.87-8.21-12.62 0-20.83 8.25-8.2 8.25-8.2 20.87 0 12.62 8.25 20.83 8.25 8.2 20.87 8.2Z"/></svg>