<svg xmlns="http://www.w3.org/2000/svg" height="20" viewBox="0 -960 960 960" width="20"><path d="M120-261.69V-792-261.69ZM840-168V-698.31-168ZM339.3-449.39q-12.91 0-21.88-8.73-8.96-8.74-8.96-21.66 0-12.91 8.74-21.87t21.65-8.96q12.92 0 21.88 8.73 8.96 8.74 8.96 21.66 0 12.91-8.74 21.87-8.73 8.96-21.65 8.96Zm140.92 0q-12.91 0-21.87-8.73-8.96-8.74-8.96-21.66 0-12.91 8.73-21.87 8.74-8.96 21.66-8.96 12.91 0 21.87 8.73 8.96 8.74 8.96 21.66 0 12.91-8.73 21.87-8.74 8.96-21.66 8.96Zm140.54 0q-12.91 0-21.88-8.73-8.96-8.74-8.96-21.66 0-12.91 8.74-21.87t21.65-8.96q12.92 0 21.88 8.73 8.96 8.74 8.96 21.66 0 12.91-8.73 21.87-8.74 8.96-21.66 8.96ZM596.15-116q-26.52 0-45.41-18.89-18.89-18.89-18.89-45.42v-185.92h51.99v185.92q0 5.39 3.47 8.85 3.46 3.46 8.84 3.46h231.54q5.39 0 8.85-3.46t3.46-8.85V-686q0-5.38-3.46-8.85-3.46-3.46-8.85-3.46H596.15q-5.38 0-8.84 3.46-3.47 3.47-3.47 8.85v92.61h-51.99V-686q0-26.53 18.89-45.42t45.41-18.89h231.54q26.53 0 45.42 18.89T892-686v505.69q0 26.53-18.89 45.42T827.69-116H596.15Zm-463.84-93.69q-26.53 0-45.42-18.89T68-274v-505.69q0-26.53 18.89-45.42T132.31-844h231.54q26.52 0 45.41 18.89 18.89 18.89 18.89 45.42v186.3h-51.99v-186.3q0-5.39-3.47-8.85-3.46-3.46-8.84-3.46H132.31q-5.39 0-8.85 3.46t-3.46 8.85V-274q0 5.38 3.46 8.85 3.46 3.46 8.85 3.46h231.54q5.38 0 8.84-3.46 3.47-3.47 3.47-8.85v-92.23h51.99V-274q0 26.53-18.89 45.42t-45.41 18.89H132.31Zm579.66-380.62q12.62 0 20.82-8.25 8.21-8.25 8.21-20.87 0-12.62-8.25-20.82-8.25-8.21-20.87-8.21-12.62 0-20.83 8.25-8.2 8.25-8.2 20.87 0 12.62 8.25 20.83 8.25 8.2 20.87 8.2ZM248.12-684q12.62 0 20.83-8.25 8.2-8.25 8.2-20.87 0-12.62-8.25-20.83-8.25-8.2-20.87-8.2-12.62 0-20.82 8.25-8.21 8.25-8.21 20.87 0 12.62 8.25 20.82 8.25 8.21 20.87 8.21Z"/></svg>