<svg xmlns="http://www.w3.org/2000/svg" height="20" viewBox="0 -960 960 960" width="20"><path d="M668.08-226.77h56.69q.46 18.23-12.88 32.85-13.35 14.61-31.2 16.84l-436.07 59.92q-25.93 3.24-47.24-13.24-21.32-16.48-24.92-42.22l-56.07-404.76q-3.62-26.82 12.65-48.26 16.27-21.44 43.19-24.67l54.54-5.46v53.09l-46.46 4.76q-5.39.38-8.46 4.42-3.08 4.04-2.31 9.42l53.92 403.77q.77 5.39 4.62 8.46 3.84 3.08 9.23 2.31l430.77-57.23Zm-305-72q-30.31 0-47.31-17-17-17-17-47.31v-416.61q0-30.31 17-47.31 17-17 47.31-17h416.61Q810-844 827-827q17 17 17 47.31v416.61q0 30.31-17 47.31-17 17-47.31 17H363.08Zm0-52h416.61q5.39 0 8.85-3.46t3.46-8.85v-416.61q0-5.39-3.46-8.85t-8.85-3.46H363.08q-5.39 0-8.85 3.46t-3.46 8.85v416.61q0 5.39 3.46 8.85t8.85 3.46Zm208.3-220.61ZM223-168Zm345.92-238.46q55.49 0 94.24-38 38.76-38 43.76-94-56 0-96 38.5t-42 93.5Zm-2 0q-4-56-43.97-94-39.98-38-96.03-38 4 56 44 94t96 38Zm1-125q14 0 24.5-10.12t10.5-25.08v-8.8l7.6 5.2q11.4 7.8 25.9 4.3 14.5-3.5 22.5-17.5 7-11 3-25t-15.96-22.86l-7.04-5.07 8-4.97q12-7.95 15.69-21.33 3.7-13.39-3.75-26.32-7.55-13.07-21.36-17.45-13.81-4.39-26.58 3.8l-8 5.2v-10q0-14-10.5-24.5t-25-10.5q-14.5 0-24.5 10.5t-10 24.5v10l-8.4-5.2q-13.37-8.19-26.67-3.8-13.31 4.38-20.93 16-8.38 13.38-4.69 27.27 3.69 13.88 16.91 22.1l7.78 4.7-8.15 3.98q-13.85 6.95-17.35 20.95-3.5 14 4.5 27 8 14 22 17.5t26-4.3l8-5.2v10q0 14.87 10.35 24.94 10.35 10.06 25.65 10.06Zm-.5-70q-14.5 0-24.5-10.06-10-10.07-10-24.94 0-14 10.06-24.5 10.07-10.5 24.94-10.5 14 0 24.5 10.5t10.5 25q0 14.5-10.5 24.5t-25 10Z"/></svg>