<svg xmlns="http://www.w3.org/2000/svg" height="20" viewBox="0 -960 960 960" width="20"><path d="M663.92-500q-71.54 0-121.57-50.2-50.04-50.2-50.04-121.94 0-72.17 50.24-122.01Q592.8-844 664.92-844q71.25 0 121.32 50.27 50.07 50.26 50.07 121.96 0 71.69-50.43 121.73Q735.46-500 663.92-500Zm-21.31-179.69H686v-76h-43.39v76Zm21.7 92.92q9.6 0 16.22-6.82 6.62-6.81 7.01-16.03 0-9.44-6.82-16.53-6.81-7.08-16.41-7.08-9.6 0-16.42 6.81-6.81 6.82-6.81 16.42 0 9.6 6.81 16.41 6.82 6.82 16.42 6.82ZM384.09-295.69q16.83 0 28.52-11.79 11.7-11.78 11.7-28.61t-11.79-28.52q-11.78-11.7-28.61-11.7t-28.52 11.79q-11.7 11.78-11.7 28.61t11.79 28.52q11.78 11.7 28.61 11.7Zm-208.4 168.92V-140l50-50q-47.9-8-78.79-44.4-30.9-36.39-30.9-85.29V-672q0-66.69 75.27-95.34Q266.54-796 444.23-796q-15 28.54-23.31 59.35-8.3 30.8-8.3 64.65 0 9.46 1 19.27 1 9.81 2.23 19.5H168V-484h330.77q32.54 30.77 75.15 47.23 42.62 16.46 90.39 16.46-3.39 0-6.31.19-2.92.2-6 .97v100.19q0 49.04-30.9 85Q590.21-198 542.31-190l50 50v13.23H175.69Z"/></svg>