<svg xmlns="http://www.w3.org/2000/svg" height="20" viewBox="0 -960 960 960" width="20"><path d="M116-134.46v-645.23q0-27.01 18.65-45.66Q153.3-844 180.31-844h599.38q27.01 0 45.66 18.65Q844-806.7 844-779.69v455.38q0 27.01-18.65 45.66Q806.7-260 779.69-260H241.54L116-134.46Zm207.79-386.16q12.9 0 22.25-9.13 9.34-9.14 9.34-22.04 0-12.9-9.13-22.25-9.14-9.34-22.04-9.34-12.9 0-22.25 9.13-9.34 9.14-9.34 22.04 0 12.9 9.13 22.25 9.14 9.34 22.04 9.34Zm156 0q12.9 0 22.25-9.13 9.34-9.14 9.34-22.04 0-12.9-9.13-22.25-9.14-9.34-22.04-9.34-12.9 0-22.25 9.13-9.34 9.14-9.34 22.04 0 12.9 9.13 22.25 9.14 9.34 22.04 9.34Zm156 0q12.9 0 22.25-9.13 9.34-9.14 9.34-22.04 0-12.9-9.13-22.25-9.14-9.34-22.04-9.34-12.9 0-22.25 9.13-9.34 9.14-9.34 22.04 0 12.9 9.13 22.25 9.14 9.34 22.04 9.34Z"/></svg>