<svg xmlns="http://www.w3.org/2000/svg" height="24" viewBox="0 -960 960 960" width="24"><path d="M280-176.69v-269.46h83.23q5.46 0 11.31 1.11 5.84 1.12 11.31 3.12l240.84 88.38q17.85 6.54 29.43 21.46 11.57 14.93 11.57 33.54 0 11-7.19 17.85-7.19 6.84-17.73 6.84h-48.08q-20.38 0-39.81-2.42-19.42-2.42-38.03-9.04l-71.7-25.77-11.46 29.77 78.54 27q18.92 6.39 39.08 8.81 20.15 2.42 40.84 2.42h206.31q27.39 0 46.77 18 19.39 18 19.39 45.08L584.85-87.69l-304.85-89ZM120-120v-326.15h120V-120H120Zm421.62-398L400.08-659.54l28.54-27.54 113 113 227-226 27.53 27.54L541.62-518Z"/></svg>