<svg xmlns="http://www.w3.org/2000/svg" height="24" viewBox="0 -960 960 960" width="24"><path d="M540.85-518 399.31-659.54l28.54-27.54 113 113 227-226 27.53 27.54L540.85-518ZM280-213.85l302.62 88.31 239.53-74q-1.15-18.23-11.03-26.27-9.89-8.04-21.89-8.04H599.54q-25.46 0-46.08-2-20.61-2-42.23-9.53l-87.61-28.7 13.53-39.54 81 29.31q19.31 7.31 43.85 8.77 24.54 1.46 67.23 1.69 0-18.69-6.88-30.23-6.89-11.54-19.73-16.07l-230.16-84.47q-2.31-.76-4.23-1.15-1.92-.38-4.23-.38h-84v192.3ZM120-120v-326.15h243.23q5.46 0 11.31 1.11 5.84 1.12 11.08 3.12l231.15 84.69q21.46 8.15 36.96 29.31 15.5 21.15 15.5 54.07h120q36.15 0 55.39 22.62 19.23 22.61 19.23 57.38v24.62L584.62-83.08 280-171.85V-120H120Zm40-40h80v-246.15h-80V-160Z"/></svg>