<svg xmlns="http://www.w3.org/2000/svg" height="24" viewBox="0 -960 960 960" width="24"><path d="M294.46-296.15q-34.31 28.84-71.73 25.84t-64.5-25.61q-27.08-22.62-36.5-59.27-9.42-36.66 13.42-74.66l78.08-129.38Q189-577.38 174.5-605.31 160-633.23 160-666.15q0-56 38.92-94.93Q237.85-800 293.85-800q56 0 94.92 38.92 38.92 38.93 38.92 94.93 0 56-38.92 94.92t-94.92 38.92q-12.08 0-23.39-1.77t-21.61-6.07l-79.31 131.53q-14.08 23.39-8.54 45.89 5.54 22.5 22.38 36.58 16.85 14.07 40.24 15.96 23.38 1.88 45-15.96l397.69-337.93q33.54-28.84 70.31-26.11 36.76 2.73 64.61 25.34 27.85 22.62 37.92 59.27 10.08 36.66-13.53 75.43L746.77-400q24.23 18.15 38.73 45.69 14.5 27.54 14.5 60.46 0 56-39.31 94.93Q721.38-160 665.38-160q-55.23 0-94.15-39.31-38.92-39.31-38.92-94.54 0-55.23 38.92-94.53 38.92-39.31 94.15-39.31 12.08 0 23.66 2.15 11.58 2.16 21.88 6.46l79.54-132.3q14.08-23.39 8.92-45.89-5.15-22.5-22-36.58-16.84-14.07-40.23-16.34-23.38-2.27-45 16.34l-397.69 337.7Z"/></svg>