<svg xmlns="http://www.w3.org/2000/svg" height="24" viewBox="0 -960 960 960" width="24"><path d="M796.92-92.61 689.54-200h-48.77q-20.39 0-34.42-14.04-14.04-14.04-14.04-34.42v-48.77L481.54-408v112.62H224.62q-27.62 0-46.12-18.5Q160-332.38 160-360v-335.38q0-8.16 1.54-15.16t5.38-12.84l-88.15-88.16 28.31-28.31 718.15 718.93-28.31 28.31ZM481.77-579.15 300.92-760h434.46q20.7 0 36.5 11.19 15.81 11.19 21.97 28.81H625.88q-59.41 0-101.19 41.12-41.78 41.11-42.92 99.73Zm357.31 357.3L592.31-468.62v-92.15q0-20.38 14.04-34.42 14.03-14.04 34.42-14.04h158.46q20.39 0 34.42 14.04 14.04 14.04 14.04 34.42v312.31q0 7.54-2.35 14.19-2.36 6.65-6.26 12.42ZM720-460q11.46 0 19.19-7.85 7.73-7.84 7.73-19.07 0-11.46-7.73-19.2-7.73-7.73-19.19-7.73-11.23 0-19.08 7.73-7.84 7.74-7.84 19.2 0 11.23 7.84 19.07Q708.77-460 720-460ZM120-200v-40h361.54v40H120Z"/></svg>