<svg xmlns="http://www.w3.org/2000/svg" height="24" viewBox="0 -960 960 960" width="24"><path d="M280-120v-720V-120Zm201.54-587.69q13.15 0 21.96-8.81t8.81-21.96q0-13.16-8.81-21.96-8.81-8.81-21.96-8.81-13.16 0-21.96 8.81-8.81 8.8-8.81 21.96 0 13.15 8.81 21.96 8.8 8.81 21.96 8.81ZM538.77-80H304.62q-26.85 0-45.74-18.88Q240-117.77 240-144.62v-670.76q0-27.62 18.5-46.12Q277-880 304.62-880h353.84q26.85 0 45.73 18.88 18.89 18.89 18.89 45.74v238.46h-40v-238.46q0-10.77-6.93-17.7-6.92-6.92-17.69-6.92H304.62q-10.77 0-17.7 6.92-6.92 6.93-6.92 17.7v670.76q0 10.77 6.92 17.7 6.93 6.92 17.7 6.92h221.92q1.61 2.08 3.46 3.92 1.85 1.85 3.69 3.7L538.77-80Zm96.61 0-13-84.31q-29.07-19.84-45.73-50.65Q560-245.77 560-280.77t16.65-65.81q16.66-30.8 45.73-50.65l13-84.31h129.24l13 84.31q29.07 19.85 45.73 50.65Q840-315.77 840-280.77t-16.65 65.81q-16.66 30.81-45.73 50.65l-13 84.31H635.38ZM700-180.77q42 0 71-29t29-71q0-42-29-71t-71-29q-42 0-71 29t-29 71q0 42 29 71t71 29Z"/></svg>