<svg xmlns="http://www.w3.org/2000/svg" height="24" viewBox="0 -960 960 960" width="24"><path d="M224.62-295.38q-27.62 0-46.12-18.5Q160-332.38 160-360v-335.38q0-27.62 18.5-46.12Q197-760 224.62-760h510.76q20.7 0 36.5 11.19 15.81 11.19 21.97 28.81H625.38q-61.07 0-102.46 41.38-41.38 41.39-41.38 102.47v280.77H224.62ZM640.77-200q-20.19 0-34.33-14.13-14.13-14.14-14.13-34.33v-312.31q0-20.38 14.13-34.42 14.14-14.04 34.33-14.04h158.29q20.56 0 34.59 14.04 14.04 14.04 14.04 34.42v312.31q0 20.19-14.04 34.33Q819.62-200 799.06-200H640.77ZM120-200v-40h361.54v40H120Zm599.86-260q11.6 0 19.33-8.03 7.73-8.04 7.73-18.75 0-11.6-7.72-19.34-7.72-7.73-19.53-7.73-10.9 0-18.75 7.73-7.84 7.72-7.84 19.53 0 10.9 8.03 18.74 8.03 7.85 18.75 7.85Z"/></svg>