<svg xmlns="http://www.w3.org/2000/svg" height="24" viewBox="0 -960 960 960" width="24"><path d="M215.23-104.62q-72.85 0-124.04-51.34Q40-207.3 40-280.15t51.34-124.04q51.35-51.19 124.2-51.19 72.84 0 124.04 51.34 51.19 51.34 51.19 124.19t-51.35 124.04q-51.34 51.19-124.19 51.19Zm-.03-40q56.34 0 95.95-39.43 39.62-39.43 39.62-95.77 0-56.33-39.44-95.95-39.43-39.61-95.76-39.61-56.34 0-95.95 39.43Q80-336.52 80-280.18q0 56.33 39.43 95.95 39.44 39.61 95.77 39.61ZM460-220v-197.69L321.23-522.77q-8.92-7.92-13.77-18.77-4.84-10.84-4.84-22.8 0-11.97 4.96-22.24 4.96-10.27 13.65-18.96l116.62-116.61q8.92-8.93 20.93-13.77 12.02-4.85 25.2-4.85 13.17 0 25.21 4.85 12.04 4.84 20.96 13.77l76 76q28 28 62.85 44.38 34.85 16.39 74.08 20.23V-540q-48.54-3.85-91.96-23.92-43.43-20.08-77.27-53.93L528-663.69 408.92-544.62 500-449.54V-220h-40Zm144.62-524.62q-25.31 0-42.66-17.34-17.34-17.35-17.34-42.66 0-25.3 17.34-42.65 17.35-17.35 42.66-17.35 25.3 0 42.65 17.35 17.35 17.35 17.35 42.65 0 25.31-17.35 42.66-17.35 17.34-42.65 17.34Zm139.84 640q-72.84 0-124.04-51.34-51.19-51.34-51.19-124.19t51.35-124.04q51.34-51.19 124.19-51.19t124.04 51.34Q920-352.7 920-279.85t-51.34 124.04q-51.35 51.19-124.2 51.19Zm-.03-40q56.34 0 95.95-39.43Q880-223.48 880-279.82q0-56.33-39.43-95.95-39.44-39.61-95.77-39.61-56.34 0-95.95 39.43-39.62 39.43-39.62 95.77 0 56.33 39.44 95.95 39.43 39.61 95.76 39.61Z"/></svg>