<svg xmlns="http://www.w3.org/2000/svg" height="24" viewBox="0 -960 960 960" width="24"><path d="M319.77-310.77v-160h320v160h-320Zm160-360.23q27.77 0 46.19-18.42 18.42-18.43 18.42-46.2 0-27.76-18.42-46.19-18.42-18.42-46.19-18.42-27.77 0-46.19 18.42-18.43 18.43-18.43 46.19 0 27.77 18.43 46.2Q452-671 479.77-671ZM321.46-510.77q5.39-46.15 35.19-82.35 29.81-36.19 75.27-50.57-16.38-8-29.5-21.58-13.11-13.58-19.88-31.19l-124.08-23.77V-751l124.08-23.77q11.92-29.23 38.11-47.46 26.2-18.23 59.12-18.23 22.23 0 41.69 9 19.46 9 33.92 23.77l121.54-24.08v192.31l-121.54-24.08q-5.84 6.62-12.73 11.08-6.88 4.46-15.03 8.77 45.46 13.61 74.76 50.07 29.31 36.47 35.7 82.85H321.46ZM384.38-120q-27.61 0-46.11-18.5t-18.5-46.12v-86.15h320v86.15q0 27.62-18.5 46.12-18.5 18.5-46.12 18.5H384.38Z"/></svg>