<svg xmlns="http://www.w3.org/2000/svg" height="24" viewBox="0 -960 960 960" width="24"><path d="M260-880q61.15 0 100.58 59.35Q400-761.31 400-680q0 46.38-13.5 93.77-13.5 47.38-28.35 81l-175 42.38q-28.84-46.69-46-99.73Q120-615.62 120-680q0-86.08 39.85-143.04Q199.69-880 260-880Zm55 600q-52.54 0-83.58-41.42-31.04-41.43-31.42-104.89L366.46-466q11.85 20.08 22.69 44.27Q400-397.54 400-373q0 40.08-23.96 66.54Q352.08-280 315-280Zm385-400q60.31 0 100.15 56.96Q840-566.08 840-480q0 66.69-18.69 120.5t-49.08 102.81l-171.92-51.62q-14.08-33.61-27.19-79.84Q560-434.38 560-480q0-81.31 39.42-140.65Q638.85-680 700-680ZM645-80q-37.08 0-61.04-26.46T560-173q0-25.31 11.62-50.27 11.61-24.96 23.46-45.81l164.69 50.46q-1.92 58.85-32.85 98.74Q696-80 645-80Z"/></svg>