<svg xmlns="http://www.w3.org/2000/svg" height="24" viewBox="0 -960 960 960" width="24"><path d="M479.23-120Q335-248.46 267.5-355.54 200-462.62 200-562.31q0-122.38 84.19-200.04Q368.38-840 479.23-840q143.15 0 215.04 100.92Q766.15-638.15 758.46-502l94.77-98.62 27.54 27.54-142.31 146.16-142.31-146.16 27.54-27.54L718.46-502q10-136.69-59.11-217.35Q590.23-800 479.23-800q-101 0-170.11 70.08Q240-659.85 240-559.77q0 84.54 57.08 177 57.07 92.46 181.38 209.08 22.31-21.85 47-46.16 24.69-24.3 38.62-39-7.31-10.23-11.85-22t-4.54-25.3q0-33.54 23.23-56.77 23.23-23.23 56.77-23.23 33.54 0 56.39 23.23 22.84 23.23 22.84 56.77 0 33.53-23.23 56.38t-56.77 22.85q-8.77 0-16.42-1.39-7.65-1.38-15.42-4.92-25.93 26.92-55.35 55.23-29.42 28.31-60.5 58Z"/></svg>