<svg xmlns="http://www.w3.org/2000/svg" height="24" viewBox="0 -960 960 960" width="24"><path d="m715.38-465.38-27.53-27.54 112.92-112.93Q674.69-607.69 598.65-588q-76.03 19.69-141.73 84.69 44.31-91.61 140.54-121.84 96.23-30.23 201.31-30.23l-110.92-111.7 27.53-27.54L880-630 715.38-465.38ZM479.23-120Q334.38-244.69 267.19-354.12 200-463.54 200-553.54q0-120.61 81.08-203.54Q362.15-840 479.23-840q35 0 69.62 7.12 34.61 7.11 65.07 24.42l-31.23 32q-24.15-12.92-50.46-18.23-26.31-5.31-53-5.31Q379-800 309.5-729.04 240-658.08 240-553.54q0 76.39 56.69 170.46Q353.38-289 479.23-173.92q57.69-53.46 105-106.16 47.31-52.69 88.62-111.77l28.77 28.77q-48.47 69-105.16 129.85Q539.77-172.38 479.23-120Z"/></svg>