<svg xmlns="http://www.w3.org/2000/svg" height="24" viewBox="0 -960 960 960" width="24"><path d="M224.62-160q-27.62 0-46.12-18.5Q160-197 160-224.62v-510.76q0-27.62 18.5-46.12Q197-800 224.62-800h510.76q27.62 0 46.12 18.5Q800-763 800-735.38V-427q-9.77-4.85-19.77-9.23-10-4.39-20.23-7.54v-165.46H500v178.54q-19.85 7.84-38.31 19.61t-34.77 27.23H200v159.23q0 10.77 6.92 17.7 6.93 6.92 17.7 6.92h91.23q6.38 11.23 13.15 20.85 6.77 9.61 13.62 19.15h-118ZM200-423.85h260v-185.38H200v185.38Zm0-225.38h560v-86.15q0-10.77-6.92-17.7-6.93-6.92-17.7-6.92H224.62q-10.77 0-17.7 6.92-6.92 6.93-6.92 17.7v86.15ZM480-480Zm0 0Zm0 0Zm0 0ZM645.38-89.23q-73.3 0-135.3-37.62-62-37.61-99.31-100.84 37.31-63.23 99.31-100.85 62-37.61 135.3-37.61 73.31 0 135.31 37.61 62 37.62 99.31 100.85-37.31 63.23-99.31 100.84-62 37.62-135.31 37.62Zm0-40q55.47 0 104.81-26.77 49.35-26.77 82.89-71.69-33.54-44.93-82.89-71.69-49.34-26.77-104.81-26.77-55.46 0-104.8 26.77-49.35 26.76-82.89 71.69 33.54 44.92 82.89 71.69 49.34 26.77 104.8 26.77Zm0-58.46q-16.53 0-28.26-11.73-11.74-11.73-11.74-28.27t11.74-28.27q11.73-11.73 28.26-11.73 16.54 0 28.27 11.73t11.73 28.27q0 16.54-11.73 28.27t-28.27 11.73Z"/></svg>