<svg xmlns="http://www.w3.org/2000/svg" height="24" viewBox="0 -960 960 960" width="24"><path d="M349.23-800h101.54H349.23Zm0 640H450.77 349.23Zm355.39-160v-40h64.61v40h-64.61Zm0-140v-40h104.61v40H704.62Zm0-140v-41h144.61v41H704.62ZM318.46-120l-44.77-157.38q-50.31-29.54-82-83.47Q160-414.77 160-480t31.69-119.15q31.69-53.93 82-83.47L318.46-840h163.08l44.77 157.38q50.31 29.54 82 83.47Q640-545.23 640-480t-31.69 119.15q-31.69 53.93-82 83.47L481.54-120H318.46ZM400-280q83 0 141.5-58.5T600-480q0-83-58.5-141.5T400-680q-83 0-141.5 58.5T200-480q0 83 58.5 141.5T400-280Zm-77.54-426.92q20.77-6.54 39.66-9.93 18.88-3.38 37.88-3.38 19 0 37.88 3.38 18.89 3.39 39.66 9.93L450.77-800H349.23l-26.77 93.08ZM349.23-160h101.54l26.77-93.08q-20.77 6.54-39.66 9.43-18.88 2.88-37.88 2.88-19 0-37.88-2.88-18.89-2.89-39.66-9.43L349.23-160Z"/></svg>