<svg xmlns="http://www.w3.org/2000/svg" height="20" viewBox="0 -960 960 960" width="20"><path d="M222.78-287.09q56-43.17 120.61-63.13Q408-370.17 480-370.17q72 0 136.61 18.89 64.61 18.89 120.61 63.06v-449H222.78v450.13ZM480.24-396.7q62.02 0 105.15-43.37t43.13-105.39q0-62.02-43.37-104.87-43.37-42.84-105.39-42.84t-105.15 43.09q-43.13 43.09-43.13 105.11 0 62.01 43.37 105.14t105.39 43.13ZM124.78-124.78v-710.44h710.44v710.44H124.78Zm355.09-352.39q-28.17 0-47.76-19.84-19.59-19.84-19.59-48.17 0-28.34 19.72-47.93t47.89-19.59q28.17 0 47.76 19.72 19.59 19.72 19.59 47.9 0 28.17-19.72 48.04-19.72 19.87-47.89 19.87Zm.13-80.48ZM272.91-222.78h415.31q-44.87-33.87-97.05-50.39Q539-289.7 480-289.7t-109.54 16.53q-50.55 16.52-97.55 50.39Z"/></svg>