<svg xmlns="http://www.w3.org/2000/svg" height="20" viewBox="0 -960 960 960" width="20"><path d="M361.52-277.43q-49.95 54.95-111.82 53.89-61.87-1.07-107.55-35.89-45.67-34.83-62.37-93.7-16.69-58.87 22.7-121.96l60.61-97.34q-17.87-21.7-28.09-47.82-10.22-26.12-10.22-55.71 0-66.78 46.24-113.02 46.24-46.24 113.02-46.24 66.79 0 113.03 46.24 46.23 46.24 46.23 113.02 0 66.79-46.23 113.03-46.24 46.23-113.03 46.23-9.21 0-18.42-1.71-9.22-1.72-18.92-4.15l-61.18 98.47q-16.74 26.05-9.11 49.92 7.63 23.87 26.79 38.59 19.17 14.72 43.75 14.41 24.57-.31 44.61-23.48L599.04-682q51.09-56.09 112.46-55.52 61.37.56 106.76 35.95 45.39 35.4 61.74 93.98 16.35 58.59-22.48 122.68L797.48-387q17.87 21.7 27.8 47.4 9.94 25.71 9.94 55.56 0 66.78-46.24 113.02-46.24 46.24-113.02 46.24-66.79 0-113.03-46.24-46.23-46.24-46.23-113.02 0-66.79 46.23-113.03 46.24-46.23 113.03-46.23 9.73 0 18.92 1.71 9.19 1.72 18.99 4.15l61.17-97.91q16.74-26.04 8.52-50.37-8.21-24.32-27.39-39.06-19.17-14.74-44.21-13.68-25.05 1.07-43.52 23.68L361.52-277.43Zm80.64-179.37q25.83 0 43.44-17.82 17.6-17.82 17.6-43.65t-17.82-43.44q-17.82-17.61-43.65-17.61t-43.44 17.83q-17.61 17.82-17.61 43.65t17.83 43.44q17.82 17.6 43.65 17.6Zm76.11 76.12q25.83 0 43.44-17.83 17.61-17.82 17.61-43.65t-17.83-43.44q-17.82-17.6-43.65-17.6t-43.44 17.82q-17.6 17.82-17.6 43.65t17.82 43.44q17.82 17.61 43.65 17.61Zm-76.33-137.38Zm76.12 76.12Z"/></svg>