<svg xmlns="http://www.w3.org/2000/svg" height="20" viewBox="0 -960 960 960" width="20"><path d="M442.3-520.17ZM296.17-259.48v-271.04H160.09v271.04h136.08Zm-222.78 86.7v-444.44h309.48v444.44H73.39Zm154.46-274.44q12.73 0 21.33-8.53 8.6-8.52 8.6-20.84 0-12.73-8.48-21.33-8.48-8.6-21.46-8.6-12.54 0-20.95 8.48t-8.41 21.46q0 12.54 8.53 20.95t20.84 8.41ZM659.3-76.78v-183.87q-12-5.4-18-17.42-6-12.02-6-26.38 0-22.75 15.42-38.09 15.41-15.33 37.75-15.33 22.86 0 38.5 15.33 15.64 15.34 15.64 38.09 0 15.36-6.28 26.65-6.29 11.28-17.72 17.41v183.61H659.3ZM584.13-197.7q-21.56-21.69-33.19-49.05-11.64-27.36-11.64-57.56 0-62.47 43.88-106.01 43.88-43.55 105.49-43.55 62.55 0 106.24 43.49 43.7 43.5 43.7 106.16 0 32.7-13.63 61.05-13.63 28.34-37.2 50.47l-39.91-43.91q15.43-14 23.43-31.28 8-17.27 8-36.47 0-37.89-26.07-64.05-26.08-26.15-63.76-26.15-37.69 0-64.27 26.26-26.59 26.26-26.59 64.3 0 18.56 7 35.26t19.87 29.7l-41.35 41.34Zm-68.56 67.44Q481-165.39 462.15-210.2q-18.85-44.81-18.85-94.02 0-102.37 71.66-174.01 71.66-71.64 173.49-71.64 102.77 0 174.46 71.64 71.7 71.64 71.7 174.01 0 52.7-22.91 99.26-22.92 46.57-59.92 82.7L813-165.04q26.74-28 44.52-63.37 17.78-35.37 17.78-75.81 0-77.17-54.58-131.76-54.59-54.58-132.2-54.58-76.68 0-131.3 54.4-54.61 54.4-54.61 132.41 0 36.97 13.72 71.55 13.71 34.59 40.58 60.59l-41.34 41.35ZM76.78-689.22v-98h829.05v247.74q-21.52-19.78-45.81-34.24-24.28-14.45-52.19-24.71v-90.79H76.78ZM228.13-395Z"/></svg>