<svg xmlns="http://www.w3.org/2000/svg" height="20" viewBox="0 -960 960 960" width="20"><path d="M124.78-124.78v-710.44H372.3q11.4-32.69 40.44-53.76 29.05-21.06 67.26-21.06 36.83 0 66.28 21.06 29.46 21.07 41.42 53.76h247.52v302.7h-98v-204.7h-68.05v129.05H290.83v-129.05h-68.05v514.44h204.7v98h-302.7ZM479.79-745.7q15.21 0 25.71-10.29 10.5-10.28 10.5-25.5 0-15.21-10.29-25.71t-25.5-10.5q-15.21 0-25.71 10.29t-10.5 25.5q0 15.21 10.29 25.71t25.5 10.5ZM813.57-76.78l-95.61-95.61q-21 10.87-42.83 17.24-21.83 6.37-44.96 6.37-75.4 0-128.17-53.02-52.78-53.02-52.78-127.98 0-75.42 52.79-128.21 52.79-52.79 128.21-52.79 75.41 0 128.21 52.78 52.79 52.77 52.79 128.17 0 23.13-6.37 44.96-6.37 21.83-17.24 42.83l95.61 95.61-69.65 69.65Zm-183.71-170q34.71 0 59.03-23.97 24.33-23.96 24.33-58.67t-23.97-59.04q-23.96-24.32-58.67-24.32t-59.04 23.96q-24.32 23.97-24.32 58.68t23.96 59.03q23.97 24.33 58.68 24.33Z"/></svg>