<svg xmlns="http://www.w3.org/2000/svg" height="20" viewBox="0 -960 960 960" width="20"><path d="M724.52-350.48ZM512.7-562.3ZM385.78-689.22l-98-98h548v98h-450Zm338.46 242q12.73 0 21.33-8.53 8.6-8.52 8.6-20.84 0-12.73-8.48-21.33-8.48-8.6-21.45-8.6-12.54 0-20.96 8.48-8.41 8.48-8.41 21.46 0 12.54 8.53 20.95t20.84 8.41Zm-157.28-170h316.26v425.44l-86.7-86.7v-252.04h-144v108.04l-85.56-85.56v-109.18Zm251.3 587.79L674.91-172.78H565.83v-109.09L221.65-625.48v208.74h272.18v97.96H123.65v-404.7L28.3-818.83l57.22-56.21L873.91-86.09l-55.65 56.66ZM76.78-172.78v-98h417.05v98H76.78Zm250-349.13Z"/></svg>