<svg xmlns="http://www.w3.org/2000/svg" height="20" viewBox="0 -960 960 960" width="20"><path d="M294.78-126.22v-707.56V-126.22Zm185.01-578.52q17.13 0 28.93-11.59t11.8-28.72q0-17.13-11.59-28.93t-28.72-11.8q-17.13 0-28.93 11.59t-11.8 28.72q0 17.13 11.59 28.93t28.72 11.8ZM602.04-28.78H197.35v-902.44h565.3v372.44h-97.43v-275H294.78v707.56h245.75q10.19 15.5 22.24 29.88Q574.83-81.96 590.35-70l11.69 41.22Zm74 0-21.88-85.73q-38.38-22.62-60.66-60.6-22.28-37.98-22.28-82.67 0-44.7 22.28-82.68 22.28-37.97 60.66-60.59l21.88-85.73h140.35l19.88 90.73q34.38 23.62 53.67 59.94 19.28 36.33 19.28 78.18 0 41.84-19.28 77.82-19.29 35.98-53.67 59.6l-19.88 91.73H676.04Zm63.98-152.35q31.81 0 54.33-22.32 22.52-22.33 22.52-54.14 0-31.8-22.32-54.32-22.33-22.52-54.13-22.52-31.81 0-54.33 22.32t-22.52 54.13q0 31.81 22.32 54.33 22.33 22.52 54.13 22.52Z"/></svg>