<svg xmlns="http://www.w3.org/2000/svg" height="20" viewBox="0 -960 960 960" width="20"><path d="M230.13-76.78H116.78v-92.35h113.35q35.18 0 61.72-18.63t47.11-37.63q30.6 22.26 65.54 38.69 34.93 16.44 75.5 16.44t75.5-16.44q34.94-16.43 64.98-38.69 21.13 19 47.46 37.63 26.32 18.63 61.36 18.63h113.92v92.35H729.3q-27.78 0-49.64-8.5-21.85-8.5-60.88-33.5-41.17 24.43-71.56 33.5-30.39 9.06-67.22 9.06t-67.5-9.06q-30.67-9.07-71.85-33.5-38.02 24-60.88 33t-49.64 9ZM480-230.96q-17.96 0-40.48 4.64-22.52 4.63-57.22-29.07l-36-34-31 31q-24.52 22.83-59.34 30.78-34.83 7.96-76.96 1.74h-26L95.69-528.82l94.87-27.7v-254.7h163.48v-72h251.92v72h163.48v254.7l94.87 27.7L807-225.87h-26q-42.13 6.22-76.96-1.74-34.82-7.95-59.34-30.78l-31-31-36 34q-34.7 33.7-57.22 29.07-22.52-4.64-40.48-4.64Zm-.85-92.34q12.72 0 28.39 2.34 15.68 2.35 27.37-4.95l81.48-70.7 40.35 41.39q14.39 14.7 32.2 24.85 17.8 10.15 40.02 15.33l28.43-149.78L480-545.17l-277.96 80.35 28.44 149.78q22.22-5.18 40.02-15.33 17.8-10.15 32.2-24.85l40.34-41.39 81.48 70.7q11.7 6.74 26.81 4.67 15.1-2.06 27.82-2.06ZM282.91-583.43 480-641.22 677.09-584v-134.87H282.91v135.44Zm196.52 149.47Z"/></svg>