<svg xmlns="http://www.w3.org/2000/svg" height="20" viewBox="0 -960 960 960" width="20"><path d="M269.91-287.69v-144h421.87v144H269.91ZM480.13-711q20.4 0 34.2-13.8 13.8-13.8 13.8-34.2 0-19.84-13.8-33.92-13.8-14.08-34.2-14.08-20.4 0-34.2 13.8-13.8 13.8-13.8 34.2 0 20.4 13.8 34.2 13.8 13.8 34.2 13.8ZM275.48-503.69q11-47.66 43.74-85.4 32.74-37.74 78.39-57.43-13.96-9.13-24.57-21.68-10.61-12.54-18.43-27.5L203-727.7v-57.48l149.61-31.56q16.82-35.96 50.06-58.78 33.24-22.83 77.46-22.83 26.63 0 50.27 9.57 23.64 9.56 42.9 26.26L733-895.65v277.87l-163.7-33.7q-2.09 1.13-4.09 2.26-1.99 1.13-3.69 2.7 45.65 18.13 78.39 56.15 32.74 38.02 44.31 87.24l-408.74-.56Zm-5.57 426.91v-138.91h421.87v138.91H269.91Z"/></svg>