<svg xmlns="http://www.w3.org/2000/svg" height="20" viewBox="0 -960 960 960" width="20"><path d="M124.78-76.78v-710.44H454.7q-22.79 29.26-34.74 65.42Q408-685.65 408-648q0 100 70.23 170 70.24 70 169.77 70 19.94 0 38.45-3t36.55-9l112.22 112.22v231H124.78ZM861-384 738-507q-20 13-42.55 20-22.55 7-47.92 7Q578-480 529-529t-49-119q0-70 49-119t119-49q70 0 119 48.95t49 118.88q0 25.17-7 47.67T789-558l123 123-51 51ZM647.77-552Q688-552 716-579.77q28-27.78 28-68Q744-688 716.23-716q-27.78-28-68-28Q608-744 580-716.23q-28 27.78-28 68Q552-608 579.77-580q27.78 28 68 28ZM254.39-240h451.22L570.57-424.3q-8.79-1-16.41-3.02-7.63-2.01-14.33-6.2L444-306.09l-72-96L254.39-240Z"/></svg>