<svg xmlns="http://www.w3.org/2000/svg" height="20" viewBox="0 -960 960 960" width="20"><path d="M528-76.78V-359h98v184.22h210.61v-514.44H626V-601h-98v-186.22h406.61v710.44H528Zm-502.61-96v-710.44H432V-601h-98v-184.22H123.39v514.44H334V-359h98v186.22H25.39ZM731.3-567.56q18.53 0 31.27-12.74 12.74-12.74 12.74-31.26 0-18.53-12.74-31.27-12.74-12.74-31.27-12.74-18.52 0-31.26 12.74-12.74 12.74-12.74 31.27 0 18.52 12.74 31.26 12.74 12.74 31.26 12.74Zm-502.6-97.13q18.52 0 31.26-12.74 12.74-12.74 12.74-31.27 0-18.52-12.74-31.26-12.74-12.74-31.26-12.74-18.53 0-31.27 12.74-12.74 12.74-12.74 31.26 0 18.53 12.74 31.27 12.74 12.74 31.27 12.74ZM123.39-270.78v-514.44V-270.78Zm713.22 96V-689.22v514.44ZM322.64-436.65q-18.03 0-30.79-12.55-12.76-12.55-12.76-30.59t12.55-30.8q12.55-12.76 30.58-12.76 18.04 0 30.8 12.55 12.76 12.55 12.76 30.59t-12.55 30.8q-12.55 12.76-30.59 12.76Zm157.57 0q-18.04 0-30.8-12.55-12.76-12.55-12.76-30.59t12.55-30.8q12.55-12.76 30.59-12.76t30.8 12.55q12.76 12.55 12.76 30.59t-12.55 30.8q-12.55 12.76-30.59 12.76Zm158.13 0q-18.04 0-30.8-12.55-12.76-12.55-12.76-30.59t12.55-30.8q12.55-12.76 30.59-12.76t30.8 12.55q12.76 12.55 12.76 30.59t-12.55 30.8q-12.55 12.76-30.59 12.76Z"/></svg>