<svg xmlns="http://www.w3.org/2000/svg" height="20" viewBox="0 -960 960 960" width="20"><path d="M590-419.87q55 0 94-38t44-94q-56 0-96 38.5t-42 93.5Zm-2 0q-4-56-44-94t-96-38q4 56 44 94t96 38Zm1-125q14 0 24.5-10t10.5-25v-9l8 5q11 8 25.5 4.5t22.5-17.5q7-11 3-25t-16-23l-7-5 8-5q12-8 15.5-21.5t-3.5-26.5q-8-13-22-17t-26 4l-8 5v-10q0-14-10.5-24.5t-24.5-10.5q-15 0-25 10.5t-10 24.5v10l-8.1-5q-13.16-8-26.81-4-13.65 4-21.23 16-7.86 13-4.36 27t16.5 22l8 5-8 4q-14 7-17.5 21t4.5 27q8 14 22 17.5t26-4.5l8-5v10q0 15 10.5 25t25.5 10Zm0-70q-15 0-25-10t-10-25q0-14 10-24.5t25-10.5q14 0 24.5 10.5t10.5 24.5q0 15-10.5 25t-24.5 10ZM135.87-52.09l-81.52-610.3 156-18.83v472h509.43l10.39 77.31-594.3 79.82Zm146.48-229.13v-613.87h614.43v613.87H282.35Z"/></svg>