<svg xmlns="http://www.w3.org/2000/svg" height="20" viewBox="0 -960 960 960" width="20"><path d="M288-120v-720 720Zm191.79-600q15.21 0 25.71-10.29t10.5-25.5q0-15.21-10.29-25.71t-25.5-10.5q-15.21 0-25.71 10.29t-10.5 25.5q0 15.21 10.29 25.71t25.5 10.5ZM580-48H216v-864h528v360h-72v-288H288v720h244.05q7.95 10 17.45 19.5T570-83l10 35Zm74 0-21-80q-37-21-59-57t-22-79q0-43 22-79t59-57l21-80h120l19 85q33 22 52 56.35t19 74.5Q864-224 845-190q-19 34-52 56l-19 86H654Zm53.8-132q35.2 0 59.7-24.3 24.5-24.31 24.5-59.5 0-35.2-24.3-59.7-24.31-24.5-59.5-24.5-35.2 0-59.7 24.3-24.5 24.31-24.5 59.5 0 35.2 24.3 59.7 24.31 24.5 59.5 24.5Z"/></svg>