<svg xmlns="http://www.w3.org/2000/svg" height="20" viewBox="0 -960 960 960" width="20"><path d="M96-192v-576h768v72H507v96H308l-34 102q-27 26-42.5 61.73Q216-400.53 216-360q0 40.53 15.5 76.27Q247-248 274-222l10 30H96Zm264 0-24-72q-22-17-35-41.84-13-24.84-13-54T301-414q13-25 35-42l24-72h96l24 72q22 17 35 41.84 13 24.84 13 54T515-306q-13 25-35 42l-24 72h-96Zm48-120q20 0 34-14t14-34q0-20-14-34t-34-14q-20 0-34 14t-14 34q0 20 14 34t34 14Zm311.72-168q10.28 0 17.28-7.12 7-7.11 7-16.6 0-10.28-6.88-17.28-6.88-7-17.41-7-9.71 0-16.71 6.88t-7 17.41q0 9.71 7.12 16.71 7.11 7 16.6 7ZM576-192v-432h288v432H576Z"/></svg>