<svg xmlns="http://www.w3.org/2000/svg" height="20" viewBox="0 -960 960 960" width="20"><path d="M216-96h-80v-72h80q39 0 69-17.5t63-36.5q34 20 63 37t69 17q40 0 69-17t63-37q33 19 63 36.5t69 17.5h80v72h-80q-34 0-61-8.5T612-138q-44 25-71 33.5T480-96q-34 0-61-8.5T348-138q-43 24-71 33t-61 9Zm72-501 192-51 192 51v-123H288v123Zm192 357q-27 0-51.5-9.5T384-278l-36-34-31 31q-20 20-45.5 30.5T218-240h-26l-72-312 96-26v-214h168v-72h192v72h168v214l96 26-72 312h-26q-28 0-53.5-10.5T643-281l-31-31-36 34q-20 19-44.5 28.5T480-240Z"/></svg>