<svg xmlns="http://www.w3.org/2000/svg" height="20" viewBox="0 -960 960 960" width="20"><path d="m384-48-36-36v-228H144v-72l96-96v-264h-48v-72h252q-41 38-62.5 86.5T360-624q0 114 77.5 187.5T624-360v48H420v228l-36 36Zm239.77-384Q544-432 488-488.16 432-544.32 432-624q0-80.92 56-137.96Q544-819 624-816t136 58q56 55 56 134.48 0 79.48-56.23 135.5-56.22 56.02-136 56.02Zm.23-192q25 0 42.5-17.5T684-684q0-25-17.5-42.5T624-744q-25 0-42.5 17.5T564-684q0 25 17.5 42.5T624-624Zm0 120q32 0 59-16t43-42q-23-13-48.72-19.5t-53.5-6.5q-27.78 0-53.28 7T522-562q16 26 43 42t59 16Z"/></svg>