<svg xmlns="http://www.w3.org/2000/svg" height="20" viewBox="0 -960 960 960" width="20"><path d="m673-236 52 52q-45 36-98.5 58T516-98v-72q43-5 83-22t74-44Zm189-208q-6 58-27 111.5T776-235l-52-52q27-34 44-74t22-83h72Zm-86-281q38 45 59.5 98T862-516h-72q-6-43-22.5-83T724-673l52-52ZM444-862v72q-118 16-197 104t-79 206q0 118 79 205.5T444-170v72q-149-17-248.5-125T96-480q0-149 99.5-257.5T444-862Zm72 0q58 5 111 27t98 59l-52 52q-35-26-74.5-43.5T516-790v-72Zm-55 560q-11-32-30-59.5T393-417q-19-28-33-57.5T346-538q0-56 39-95t95-39q56 0 95 39t39 95q0 34-14 63.5T567-417q-19 28-38 55.5T499-302h-38Zm19-188q20 0 34-14t14-34q0-20-14-34t-34-14q-20 0-34 14t-14 34q0 20 14 34t34 14Z"/></svg>