<svg xmlns="http://www.w3.org/2000/svg" height="20" viewBox="0 -960 960 960" width="20"><path d="M144-144v-672h672v404q-17.07-9.1-35.03-16.55Q763-436 744-441v-159H516v161q-35 11-65.5 27.5T393-372H216v156h65q8 20 18 37.5t21 34.5H144Zm72-300h228v-156H216v156Zm0-228h528v-72H216v72Zm264 192Zm0 0Zm0 0Zm0 0ZM636-48q-89 0-165-43.5T360-216q35-81 111-124.5T636-384q89 0 165 43.5T912-216q-35 81-111 124.5T636-48Zm0-72q58.44 0 110.22-24T830-216q-32-48-83.78-72T636-312q-58.44 0-110.22 24T442-216q32 48 83.78 72T636-120Zm0-36q-25 0-42.5-17.5T576-216q0-25 17.5-42.5T636-276q25 0 42.5 17.5T696-216q0 25-17.5 42.5T636-156Z"/></svg>