<svg xmlns="http://www.w3.org/2000/svg" height="20" viewBox="0 -960 960 960" width="20"><path d="M371-936q95 0 161.5 66.5T599-708q0 28.79-6.5 55.39Q586-626 573-603l-42-22q10.08-18.24 15.54-39.22Q552-685.2 552-708q0-75-52.5-127.5T372-888q-75 0-127.5 52.5T192-708q0 25 6 47t17 42l-42 24q-14-25-21.5-53.55Q144-677.11 144-708q0-95 66.21-161.5T371-936Zm.97 96Q426-840 465-801t39 93q0 17.09-4 32.05Q496-661 489-647l-42-22q5-9 7-18.5t2-20.98q0-34.45-24.53-58.99Q406.94-792 372.49-792q-35.49 0-59.99 24.67Q288-742.65 288-708q0 12 3 22.5t8 19.5l-42 24q-8-15-12.5-31.26t-4.5-34.85Q240-762 278.5-801t93.47-39ZM768-96H415L155-397l63-63 118 47v-295h72v204h360v408Z"/></svg>