<svg xmlns="http://www.w3.org/2000/svg" height="20" viewBox="0 -960 960 960" width="20"><path d="M345-792h78-78Zm0 624h78-78Zm351-120v-72h72v72h-72Zm0-144v-72h120v72H696Zm0-144v-72h168v72H696ZM288-96l-48-192q-44-33-70-82.5T144-480q0-60 26.5-109.5T242-672l46-192h192l46 192q45 33 71.5 82.5T624-480q0 60-26 109.5T528-288L480-96H288Zm96.2-216q69.8 0 118.8-49.2t49-119q0-69.8-49.2-118.8t-119-49Q314-648 265-598.8t-49 119q0 69.8 49.2 118.8t119 49ZM325-712q14-4 28.8-6t30-2q15.2 0 29.7 2t28.5 6l-19-80h-78l-20 80Zm20 544h78l21-80q-14 4-29.2 6-15.19 2-30.8 2-16 0-30.5-2t-28.5-6l20 80Z"/></svg>