<svg xmlns="http://www.w3.org/2000/svg" height="24" viewBox="0 -960 960 960" width="24"><path d="M820-28 688-160h-68q-25 0-42.5-17.5T560-220v-68l-80-80v88H200q-33 0-56.5-23.5T120-360v-368l-92-92 56-56L876-84l-56 56ZM481-593 274-800h486q33 0 56.5 23.5T840-720H620.5q-54.8 0-94.66 36.5T481-593Zm395 395L560-514v-66q0-25 17.5-42.5T620-640h200q25 0 42.5 17.5T880-580v360q0 6-1.2 11.5T876-198ZM720-460q13 0 21.5-9t8.5-21q0-13-8.5-21.5T720-520q-12 0-21 8.5t-9 21.5q0 12 9 21t21 9ZM80-160v-80h400v80H80Z"/></svg>