<svg xmlns="http://www.w3.org/2000/svg" height="24" viewBox="0 -960 960 960" width="24"><path d="M152-80h-32v-80h32q48 0 91.5-10.5T341-204q38 19 66.5 31.5T480-160q44 0 72.5-12.5T619-204q53 23 97.5 33.5T809-160h31v80h-31q-49 0-95.5-9T622-116q-40 19-73 27t-69 8q-36 0-68.5-8T339-116q-45 18-91.5 27T152-80Zm328-160q-60 0-105-40l-45-40q-27 27-60.5 46T198-247l-85-273q-5-17 3-31t25-19l59-16v-134q0-33 23.5-56.5T280-800h100v-80h200v80h100q33 0 56.5 23.5T760-720v134l59 16q17 5 25 19t3 31l-85 273q-38-8-71.5-27T630-320l-45 40q-45 40-105 40ZM280-607l200-53 200 53v-113H280v113Z"/></svg>