<svg xmlns="http://www.w3.org/2000/svg" height="24" viewBox="0 -960 960 960" width="24"><path d="M279-240v-241l10-39h380l10 39v241H279Zm81-200v120h240v-120H360Zm119-281q17 0 28.5-11.5T519-761q0-17-11.5-28.5T479-801q-17 0-28.5 11.5T439-761q0 17 11.5 28.5T479-721Zm161-17v-46l-42 8q1 4 1 7.5v15q0 3.5-1 7.5l42 8ZM279-481q0-63 35-113t91-72q-11-8-19.5-18.5T371-708l-171-33v-40l171-33q15-30 43.5-49t64.5-19q23 0 44 9t37 23l160-31v240l-160-31q-2 2-3.5 3t-3.5 3q56 22 91 72t35 113h-79q0-50-35-84.5T480-600q-50 0-85 34.5T360-481h-81Zm80 401q-33 0-56.5-23.5T279-160v-80h81v80h240v-80h79v80q0 33-23.5 56.5T599-80H359Z"/></svg>