<svg xmlns="http://www.w3.org/2000/svg" height="24" viewBox="0 -960 960 960" width="24"><path d="M120-320h208q-16 22-29.5 47T273-220q12 28 25.5 53t29.5 47H200q-33 0-56.5-23.5T120-200v-120Zm0-80v-200h320v173q-10 6-19.5 12.5T402-400H120Zm400-200h320v173q-44-26-93.5-39.5T640-480q-32 0-62 4.5T520-463v-137Zm-400-80v-80q0-33 23.5-56.5T200-840h560q33 0 56.5 23.5T840-760v80H120ZM640-40q-91 0-168-48T360-220q35-84 112-132t168-48q91 0 168 48t112 132q-35 84-112 132T640-40Zm0-80q42 0 71-29t29-71q0-42-29-71t-71-29q-42 0-71 29t-29 71q0 42 29 71t71 29Zm0-40q-25 0-42.5-17.5T580-220q0-25 17.5-42.5T640-280q25 0 42.5 17.5T700-220q0 25-17.5 42.5T640-160Z"/></svg>