<svg xmlns="http://www.w3.org/2000/svg" height="24" viewBox="0 -960 960 960" width="24"><path d="M200-238.31q54-53 125.5-83.5t154.5-30.5q83 0 154.5 30.5t125.5 83.5V-760H200v521.69Zm280-200.15q54.15 0 92.08-37.92Q610-514.31 610-568.46t-37.92-92.08q-37.93-37.92-92.08-37.92t-92.08 37.92Q350-622.61 350-568.46t37.92 92.08q37.93 37.92 92.08 37.92ZM140-140v-680h680v680H140Zm340-358.46q-28.85 0-49.42-20.58Q410-539.61 410-568.46t20.58-49.42q20.57-20.58 49.42-20.58t49.42 20.58Q550-597.31 550-568.46t-20.58 49.42q-20.57 20.58-49.42 20.58Zm0-.69ZM247.08-200h465.84Q662-246.69 601.89-269.5 541.77-292.31 480-292.31q-61 0-122.12 22.81-61.11 22.81-110.8 69.5Z"/></svg>