<svg xmlns="http://www.w3.org/2000/svg" height="24" viewBox="0 -960 960 960" width="24"><path d="M220-100v-526.54h520V-100H220Zm60-60h400v-406.54H280V-160Zm165.39-51.15h69.22v-35.39h-69.22v35.39Zm.38-75.39h68.46q0-19 7.58-35.46 7.57-16.46 18.19-31.85 10.46-15.84 18.88-33.23 8.43-17.38 8.43-36.46 0-36.17-25.32-61.32Q516.67-510 480-510q-36.83 0-62.26 25.04t-25.43 61.42q0 18.95 8.73 36.09 8.73 17.14 18.58 32.99 10.61 16 18.38 32.46t7.77 35.46ZM258.08-695.77v-47.69h443.46v47.69H258.08Zm38.46-116.54V-860h366.54v47.69H296.54ZM480-363.46Z"/></svg>