<svg xmlns="http://www.w3.org/2000/svg" height="24" viewBox="0 -960 960 960" width="24"><path d="M140-140v-680h248.54q8.31-29.23 33.96-48.46t57.5-19.23q33.08 0 58.42 19.23 25.35 19.23 33.66 48.46H820v273.85h-60V-760H660v104.61H300V-760H200v560h210v60H140Zm340.07-615.38q15.39 0 25.74-10.42 10.34-10.41 10.34-25.81 0-15.39-10.41-25.74-10.41-10.34-25.81-10.34-15.39 0-25.74 10.41-10.34 10.42-10.34 25.81 0 15.39 10.41 25.74 10.41 10.35 25.81 10.35ZM817.85-100 710.61-206.85q-20.07 12.23-42.45 19.54-22.38 7.31-46.62 7.31-65.77 0-112.12-46.35-46.34-46.34-46.34-112.11t46.34-112.12q46.35-46.34 112.12-46.34 65.77 0 112.11 46.34Q780-404.23 780-338.46q0 24.08-6.92 46.73-6.93 22.65-20.31 42.34L860-142.15 817.85-100Zm-196.4-140q41.32 0 69.93-28.53Q720-297.06 720-338.37q0-41.32-28.53-69.94-28.53-28.61-69.84-28.61-41.32 0-69.94 28.53-28.61 28.52-28.61 69.84 0 41.32 28.53 69.93Q580.13-240 621.45-240Z"/></svg>