<svg xmlns="http://www.w3.org/2000/svg" height="24" viewBox="0 -960 960 960" width="24"><path d="M280-120v-720 720Zm200.8-593.85q15.05 0 25.2-10.18 10.15-10.18 10.15-25.23t-10.18-25.2q-10.18-10.15-25.23-10.15t-25.2 10.18q-10.15 10.18-10.15 25.23t10.18 25.2q10.18 10.15 25.23 10.15ZM538.38-60H220v-840h521.54v311.54h-60V-840H280v720h230.77q4.31 5.54 9.23 10.46l9.85 9.85L538.38-60Zm89.31 0-18-88.16q-32.53-22.92-51.11-57.57Q540-240.39 540-280.38q0-40 18.58-74.66 18.58-34.65 51.11-57.57l18-88.16h144.62l18 88.16q32.53 22.92 51.11 57.57Q860-320.38 860-280.38q0 39.99-18.58 74.65-18.58 34.65-51.11 57.57l-18 88.16H627.69ZM700-180.38q42 0 71-29t29-71q0-42-29-71t-71-29q-42 0-71 29t-29 71q0 42 29 71t71 29Z"/></svg>