<svg xmlns="http://www.w3.org/2000/svg" height="24" viewBox="0 -960 960 960" width="24"><path d="M808.46-60.31 688.77-180H576.16v-112.62L480.77-388v100.31H140v-441.46l-86.61-86.62 42.15-42.15 755.07 755.46-42.15 42.15ZM481.38-586.08 287.46-780h529.46v60H481.38v133.92Zm94.78-38.53h287.68v420.99L576.16-491.59v-133.02ZM719.93-460q12.3 0 20.42-8.52 8.11-8.51 8.11-19.87 0-12.3-8.11-20.42-8.11-8.11-20.51-8.11-11.46 0-19.88 8.11-8.42 8.11-8.42 20.51 0 11.45 8.52 19.88 8.51 8.42 19.87 8.42ZM100-180v-60h380.77v60H100Z"/></svg>