<svg xmlns="http://www.w3.org/2000/svg" height="24" viewBox="0 -960 960 960" width="24"><path d="M161.23-100H140v-60h21.23q44.92 0 86.5-11.27T336-205.54q36.08 20.54 68.04 32.66 31.96 12.11 75.19 12.11t75.19-12.11q31.97-12.12 68.04-32.66 46.08 23 88.27 34.27Q752.92-160 797.85-160H820v60h-22.15q-45.16 0-88.39-9-43.23-9-85.15-27.39-38.08 18.62-73.19 27.2-35.12 8.57-71.89 8.57t-71.58-8.57q-34.8-8.58-72.88-27.2Q292.85-118 249.62-109q-43.23 9-88.39 9Zm108.38-473.15 209.62-59.92 209.62 59.92V-720H269.61v146.85Zm210.01 324.69q-51.16 0-91.35-32.69-40.19-32.7-58.65-53.47-30.47 32.39-60.5 51.58-30.04 19.19-64.97 29.5l-83.38-277.61 89.62-25.62V-780h183.07v-80h172.31v80h183.08v223.23l89.61 25.62-83.38 277.61q-34.93-10.31-64.96-29.5-30.04-19.19-60.5-51.58-18.47 20.77-58.66 53.47-40.19 32.69-91.34 32.69Z"/></svg>