<svg xmlns="http://www.w3.org/2000/svg" height="24" viewBox="0 -960 960 960" width="24"><path d="M480-100q-78.85 0-148.2-29.92t-120.65-81.21q-51.3-51.29-81.22-120.63Q100-401.1 100-479.93q0-78.84 29.92-148.21t81.21-120.68q51.29-51.31 120.63-81.25Q401.1-860 479.93-860q78.84 0 148.21 29.93 69.37 29.92 120.68 81.22t81.25 120.65Q860-558.85 860-480q0 10.54-.81 21.77t-2.04 21.77q-30.46-24.46-67.26-38.62-36.81-14.15-79.28-14.15-95.76 0-163.49 67.23-67.74 67.23-67.74 163 0 45.14 16.08 84.26 16.08 39.12 43.62 69.97-14.64 2.38-29.28 3.58Q495.15-100 480-100ZM160-480q0 126.62 84.39 217.15 84.38 90.54 207.92 101 4.23 0 8.58-.19 4.34-.19 8.19-.96Q389.77-212.61 342-296.08 294.23-379.54 294.23-480t48.16-183.92Q390.54-747.39 469.85-797q-4.23-.77-8.46-.96-4.23-.19-8.47-.19-124.15 9.84-208.53 100.69Q160-606.62 160-480Zm400 250.77v-60h300v60H560Z"/></svg>