<svg xmlns="http://www.w3.org/2000/svg" height="24" viewBox="0 -960 960 960" width="24"><path d="M299.39-315.38v-140.01h359.99v140.01H299.39ZM478.77-696q22.38 0 37.35-14.96 14.96-14.96 14.96-37.35 0-22.38-14.96-37.34-14.97-14.97-37.35-14.97-22.39 0-37.35 14.97-14.96 14.96-14.96 37.34 0 22.39 14.96 37.35T478.77-696ZM301.62-515.38q8.3-48.08 39.46-85.43 31.15-37.34 77.38-53.42-13.69-8.62-24.81-20.65-11.11-12.04-17.5-27.35l-146.92-28.38V-766l146.92-27.77q13.47-30.23 41.12-48.54 27.65-18.3 61.5-18.3 23.23 0 43.15 8.69 19.93 8.69 35.16 23.08l141.38-27.54v216.15l-141.38-26.92q-3.93 4.3-8.12 7.04-4.19 2.73-9.27 5.88 46.23 15.69 77.19 53.23t39.66 85.62H301.62ZM299.39-100v-155.39h359.99V-100H299.39Z"/></svg>