<svg xmlns="http://www.w3.org/2000/svg" height="24" viewBox="0 -960 960 960" width="24"><path d="M270-290h423.07L578.15-443.23q-6.77-1.23-13.84-3.08-7.08-1.84-13.85-4.3L449.23-319.23l-80-102.31L270-290ZM140-140v-680h260v60H200v560h560v-215.31l60 60V-140H140Zm340-340Zm376.61 37.54L731.85-567.23q-20.62 14.38-42.12 20.81-21.5 6.42-46.96 6.42-66.31 0-112.54-46.54Q484-633.08 484-700q0-66.92 46.54-113.46Q577.08-860 644-860q66.92 0 113.46 46.54Q804-766.92 804-700q0 25.46-7.62 48.73Q788.77-628 776-607.39l122.77 122.77-42.16 42.16ZM644-600q42 0 71-29t29-71q0-42-29-71t-71-29q-42 0-71 29t-29 71q0 42 29 71t71 29Z"/></svg>