<svg xmlns="http://www.w3.org/2000/svg" height="24" viewBox="0 -960 960 960" width="24"><path d="M60-180v-600h840v600H60Zm60-60h720v-480H120v480Zm213.08-50.39h293.84v-70.76H333.08v70.76Zm-122.31-135h70.77v-70.76h-70.77v70.76Zm155.77 0h70.77v-70.76h-70.77v70.76Zm156.15 0h70.77v-70.76h-70.77v70.76Zm155.77 0h70.77v-70.76h-70.77v70.76ZM210.77-560.38h70.77v-70.77h-70.77v70.77Zm155.77 0h70.77v-70.77h-70.77v70.77Zm156.15 0h70.77v-70.77h-70.77v70.77Zm153.85 1.92h70.77v-70.77h-70.77v70.77ZM120-240v-480 480Z"/></svg>