<svg xmlns="http://www.w3.org/2000/svg" height="24" viewBox="0 -960 960 960" width="24"><path d="M180-100v-520h120v-80q0-74.92 52.54-127.46Q405.08-880 480-880q74.92 0 127.46 52.54Q660-774.92 660-700v80h120v122q-13-4.46-27.89-6.69-14.88-2.23-32.11-2.23-112.54-3.46-190.11 73.92-77.58 77.38-77.58 185.31 0 36.53 12.42 77.46 12.42 40.92 33.73 70.23H180Zm532.31 32.31q-74.93 0-127.46-52.54-52.54-52.54-52.54-127.46 0-74.93 52.54-127.46 52.53-52.54 127.46-52.54 74.92 0 127.46 52.54 52.54 52.53 52.54 127.46 0 74.92-52.54 127.46-52.54 52.54-127.46 52.54ZM360-620h240v-80q0-50-35-85t-85-35q-50 0-85 35t-35 85v80Zm352.31 372.31q25 0 42.5-17.5t17.5-42.5q0-25-17.5-42.5t-42.5-17.5q-25 0-42.5 17.5t-17.5 42.5q0 25 17.5 42.5t42.5 17.5Zm0 120q30 0 56-14t43-39q-23-14-48-20.5t-51-6.5q-26 0-51 6.5t-48 20.5q17 25 43 39t56 14Z"/></svg>