<svg xmlns="http://www.w3.org/2000/svg" height="24" viewBox="0 -960 960 960" width="24"><path d="M572.92-398.46q68 0 115.5-47t52.5-113q-68 0-116.5 47t-51.5 113Zm0 0q-3-66-51.5-113t-116.5-47q5 66 52.5 113t115.5 47Zm0-120q17 0 28.5-11.5t11.5-28.5v-10l10 4q15 6 30.5 3t23.5-17q9-15 6-32t-20-23.95l-10-3.98 10-3.97q17-6.95 19.69-24.33 2.7-17.39-5.69-31.77-8.61-14.62-23.42-17.5-14.81-2.89-30.58 3.5l-10 4v-10q0-17-11.5-28.5t-28.5-11.5q-17 0-28.5 11.5t-11.5 28.5v10l-10-4q-15.77-6.39-30.57-3.5-14.81 2.88-23.43 17.5-8.38 14.38-5.69 31.77 2.69 17.38 19.69 24.33l10 3.97-10 3.98q-17 6.95-20 23.95t6 32q8 14 23.5 17t30.5-3l10-4v10q0 17 11.5 28.5t28.5 11.5Zm0-80q-17 0-28.5-11.5t-11.5-28.5q0-17 11.5-28.5t28.5-11.5q17 0 28.5 11.5t11.5 28.5q0 17-11.5 28.5t-28.5 11.5Zm21.24 387.69h137.38l5.46 43-571.31 70.85-70.15-557.77 115.23-12.08v60L164-601.38 218-164l376.16-46.77Zm-303.39-80V-860H860v569.23H290.77Zm60-60H800V-800H350.77v449.23ZM218-164Zm357.38-411.38Z"/></svg>