<svg xmlns="http://www.w3.org/2000/svg" height="20" viewBox="0 -960 960 960" width="20"><path d="M583.89-537.85 441.24-680.74l57.65-58.89 85 85.24 187-187.24 58.89 58.89-245.89 244.89ZM338.87-226.33l260.41 80.29 235-72q-8-21-26.5-33t-41.5-12H552.89q-15.09 0-31.85-2.5t-32.76-8.43l-68-25.6 22.48-69 72.39 26.48q9.57 3.76 19.35 5.52 9.78 1.77 20.78 1.53h92q0-10-5-17t-15-11l-256-92h-32.41v228.71Zm-251 138.46v-446.59h280.7q8.95 0 16.91 1.62 7.95 1.62 16.15 4.1l255.04 91.76q32.16 11.96 50.97 39.51 18.82 27.56 18.82 62.43h39.82q62.99 0 107.58 40.92 44.6 40.92 44.6 103.08v29.5L600.28-63.39l-261.41-80.28v55.8h-251Zm79.41-79.17h92.18v-288h-92.18v288Z"/></svg>