<svg xmlns="http://www.w3.org/2000/svg" height="20" viewBox="0 -960 960 960" width="20"><path d="M307.46-164v-370.46h46.34q15.96 0 32.42 2.62 16.45 2.62 31.41 8.1l227.39 81.65q29.02 10.92 48.61 33.88 19.59 22.97 19.59 54.23 0 8.09-6.07 13.51-6.06 5.43-15.63 5.43h-93.39q-14.35 0-28.67-1.6-14.33-1.6-28.44-6.56l-52.67-17.52-17.44 49.55 46.57 16.28q19.3 6.43 38.99 9.53 19.68 3.1 40.23 3.1h255.26q29.63 0 48.18 24.37 18.56 24.37 18.56 55.52L600.04-83.56 307.46-164ZM87.87-87.87v-446.59h147.59v446.59H87.87Zm496.26-449.98L441.48-680.74l57.65-58.89 85 85.24 187-187.24 58.89 58.89-245.89 244.89Z"/></svg>