<svg xmlns="http://www.w3.org/2000/svg" height="20" viewBox="0 -960 960 960" width="20"><path d="m485.74-337.43 90.5-90.5 90.5 90.5 52.06-52.07-90.5-90.5 90.5-90.5-52.06-52.07-90.5 90.5-90.5-90.5-52.07 52.07 90.5 90.5-90.5 90.5 52.07 52.07ZM374.87-183.87q-19.55 0-37.04-8.71-17.49-8.7-30.05-24.83L111.87-480l195.91-262.59q12.56-16.13 30.05-24.83 17.49-8.71 37.04-8.71h414.26q34.48 0 58.74 24.27 24.26 24.27 24.26 58.77v426.5q0 34.5-24.26 58.61t-58.74 24.11H374.87ZM215.26-480l159.13 213.37h414.98v-426.74H374.39L215.26-480ZM582-480Z"/></svg>