<svg xmlns="http://www.w3.org/2000/svg" height="20" viewBox="0 -960 960 960" width="20"><path d="M290.63-111.87q-37.78 0-60.39-22.61t-22.61-60.39v-378.26q0-37.78 22.61-60.39t60.39-22.61h378.74q37.78 0 60.39 22.61t22.61 60.39v378.26q0 37.78-22.61 60.39t-60.39 22.61H290.63Zm0-83h378.74v-378.26H290.63v378.26Zm150.26-45.61h78.22v-40.78h-78.22v40.78Zm-1-74.39h79.22q0-16.52 8.52-30.16t16.8-27.4q10.29-16 17.93-32.69Q570-421.8 570-439.76q0-36.1-26.74-60.97-26.74-24.88-63.26-24.88-36.52 0-63.26 24.91Q390-475.79 390-439.72q0 18.48 6.9 34.5t17.43 31.79q8.28 13.52 16.92 27.48 8.64 13.96 8.64 31.08ZM256.35-699.35q0-22.39 15.67-37.58 15.68-15.2 38.07-15.2h340.06q22.29 0 37.9 15.2 15.6 15.19 15.6 37.58h-447.3Zm24.48-96q0-22.39 15.6-37.58 15.6-15.2 37.9-15.2h291.34q22.3 0 37.9 15.2 15.6 15.19 15.6 37.58H280.83ZM480-384Z"/></svg>