<svg xmlns="http://www.w3.org/2000/svg" height="20" viewBox="0 -960 960 960" width="20"><path d="M291.11-39.87q-34.48 0-58.74-24.26-24.26-24.26-24.26-58.74v-714.26q0-37.78 22.61-60.39t60.39-22.61h377.78q34.48 0 58.74 24.26 24.26 24.26 24.26 58.74v282.26h-144.8l-28.48 109.63q-42.24 32.72-66.36 80.94-24.12 48.21-24.12 102.93 0 54.48 24.24 102.44 24.24 47.95 66.24 81.43l10.72 37.63H291.11Zm372.22 0-21.48-82.39q-37.48-21.72-59.6-58.56-22.12-36.83-22.12-80.55t22.12-80.55q22.12-36.84 59.6-58.56l21.48-82.39h128.61l19.47 87.39q33.48 22.72 52.6 57.91 19.12 35.18 19.12 76.05t-19.12 75.7q-19.12 34.84-52.6 57.56l-19.47 88.39H663.33Zm58.1-140.61q33.77 0 57.43-23.46 23.66-23.47 23.66-57.23t-23.46-57.43q-23.47-23.66-57.23-23.66t-57.43 23.47q-23.66 23.46-23.66 57.22 0 33.77 23.47 57.43 23.46 23.66 57.22 23.66ZM479.79-713.54q15.93 0 27.03-10.89 11.09-10.89 11.09-26.82 0-15.92-10.88-27.02-10.89-11.1-26.82-11.1t-27.03 10.89q-11.09 10.89-11.09 26.81 0 15.93 10.88 27.03 10.89 11.1 26.82 11.1Z"/></svg>