<svg xmlns="http://www.w3.org/2000/svg" height="20" viewBox="0 -960 960 960" width="20"><path d="M197.89-71.87q-82.09 0-139.99-57.86Q0-187.58 0-269.67t57.86-139.99q57.85-57.9 139.94-57.9t139.99 57.85q57.91 57.86 57.91 139.95 0 82.09-57.86 139.99-57.86 57.9-139.95 57.9Zm-.08-88.61q45.49 0 77.39-31.85 31.89-31.85 31.89-77.34 0-45.5-31.85-77.39-31.85-31.9-77.35-31.9-45.5 0-77.39 31.85t-31.89 77.35q0 45.5 31.85 77.39t77.35 31.89Zm237.89-25.89v-202.15L309.37-499.56q-13.72-10.48-19.7-25.75-5.97-15.27-5.97-33.12 0-16.85 6.73-32.13 6.74-15.27 18.46-26.98l114.38-114.38q10.25-13.25 25.14-19.23 14.88-5.98 32.31-5.98 17.71 0 35.17 6.74t31.94 18.22l77.19 77.19q27.52 27.52 62.68 43.16 35.15 15.65 74.21 15.65v88.61q-57.48 0-109.33-22.12-51.86-22.12-92.34-62.6l-30.33-30.33-92.17 92.18 86.56 90.08v253.98h-88.6Zm188.84-552.2q-34.19 0-58.29-24.09-24.1-24.1-24.1-58.3 0-34.19 24.1-58.29t58.29-24.1q34.2 0 58.3 24.1 24.09 24.1 24.09 58.29 0 34.2-24.09 58.3-24.1 24.09-58.3 24.09ZM762.2-71.87q-82.09 0-139.99-57.86-57.91-57.85-57.91-139.94t57.86-139.99q57.86-57.9 139.95-57.9 82.09 0 139.99 57.85Q960-351.85 960-269.76q0 82.09-57.86 139.99-57.85 57.9-139.94 57.9Zm-.09-88.61q45.5 0 77.39-31.85t31.89-77.34q0-45.5-31.85-77.39-31.85-31.9-77.35-31.9-45.49 0-77.39 31.85-31.89 31.85-31.89 77.35 0 45.5 31.85 77.39t77.35 31.89Z"/></svg>