<svg xmlns="http://www.w3.org/2000/svg" height="20" viewBox="0 -960 960 960" width="20"><path d="M617.3-292.07v-522.5H342.93v522.5H617.3ZM479.79-690.74q16.02 0 27.07-10.84t11.05-26.86q0-16.03-10.84-27.08-10.84-11.05-26.86-11.05t-27.07 10.84q-11.05 10.84-11.05 26.87 0 16.02 10.84 27.07t26.86 11.05ZM342.93-292.07v-522.5 522.5ZM700.3-814.96v65.98q16.72 3.96 26.36 17.38 9.64 13.42 9.64 29.78v54.47q0 17.3-9.64 30.32-9.64 13.03-26.36 17.14v307.82q0 34.49-24.27 58.75-24.28 24.25-58.78 24.25H342.66q-34.51 0-58.62-24.25-24.11-24.26-24.11-58.75v-522.5q0-34.48 24.28-58.74 24.27-24.26 58.78-24.26h274.59q34.51 0 58.62 24.15 24.1 24.14 24.1 58.46ZM332.41-65.54v-72h295.18v72H332.41Z"/></svg>