<svg xmlns="http://www.w3.org/2000/svg" height="20" viewBox="0 -960 960 960" width="20"><path d="M121.43-266.87v-522.26 522.26Zm717.14 96v-522.26 522.26Zm-508.1-270.02q-16.4 0-27.86-11.25-11.46-11.24-11.46-27.65 0-16.41 11.25-27.86 11.24-11.46 27.65-11.46 16.41 0 27.86 11.25 11.46 11.24 11.46 27.65 0 16.41-11.25 27.86-11.24 11.46-27.65 11.46Zm149.74 0q-16.41 0-27.86-11.25-11.46-11.24-11.46-27.65 0-16.41 11.25-27.86 11.24-11.46 27.65-11.46 16.41 0 27.86 11.25 11.46 11.24 11.46 27.65 0 16.41-11.25 27.86-11.24 11.46-27.65 11.46Zm149.98 0q-16.41 0-27.86-11.25-11.46-11.24-11.46-27.65 0-16.41 11.25-27.86 11.24-11.46 27.65-11.46 16.4 0 27.86 11.25 11.46 11.24 11.46 27.65 0 16.41-11.25 27.86-11.24 11.46-27.65 11.46ZM611-87.87q-34.48 0-58.74-24.26Q528-136.39 528-170.87V-366.5h83v195.63h227.57v-522.26H611v99.63h-83v-99.63q0-34.48 24.26-58.74 24.26-24.26 58.74-24.26h227.57q34.48 0 58.74 24.26 24.26 24.26 24.26 58.74v522.26q0 34.48-24.26 58.74-24.26 24.26-58.74 24.26H611Zm-489.57-96q-34.48 0-58.74-24.26-24.26-24.26-24.26-58.74v-522.26q0-34.48 24.26-58.74 24.26-24.26 58.74-24.26H349q34.48 0 58.74 24.26Q432-823.61 432-789.13v195.63h-83v-195.63H121.43v522.26H349v-99.63h83v99.63q0 34.48-24.26 58.74-24.26 24.26-58.74 24.26H121.43Zm603.35-398.37q15.59 0 26.05-10.46 10.45-10.45 10.45-26.04 0-15.58-10.45-26.04-10.46-10.46-26.05-10.46-15.58 0-26.04 10.46-10.46 10.46-10.46 26.04 0 15.59 10.46 26.04 10.46 10.46 26.04 10.46Zm-489.56-96.48q15.58 0 26.04-10.45 10.46-10.46 10.46-26.05 0-15.58-10.46-26.04-10.46-10.46-26.04-10.46-15.59 0-26.05 10.46-10.45 10.46-10.45 26.04 0 15.59 10.45 26.05 10.46 10.45 26.05 10.45Z"/></svg>