<svg xmlns="http://www.w3.org/2000/svg" height="20" viewBox="0 -960 960 960" width="20"><path d="M480-87.87q-80.91 0-152.34-30.62-71.44-30.62-125-84.17-53.55-53.56-84.17-125Q87.87-399.09 87.87-480q0-81.75 30.98-153.27 30.98-71.51 84.17-124.71l59.13 58.89q-41.52 41.52-66.4 98.09-24.88 56.56-24.88 121.05 0 128.99 90.04 219.04 90.05 90.04 219.09 90.04 129.04 0 219.09-90.04 90.04-90.05 90.04-219.04 0-64.49-23.76-121.05-23.76-56.57-66.28-98.09l58.89-58.89q54.19 53.2 84.17 124.71 29.98 71.52 29.98 153.27 0 80.91-30.62 152.34-30.62 71.44-84.17 125-53.56 53.55-124.5 84.17Q561.91-87.87 480-87.87ZM438.5-426.5v-445.63h83v445.63h-83Z"/></svg>