<svg xmlns="http://www.w3.org/2000/svg" height="20" viewBox="0 -960 960 960" width="20"><path d="M173-695.76h248.11H173Zm424.13 264.72H170.87h426.26ZM159.87-86.43v-28.31l50-50q-54.44-11.59-88.22-54.58-33.78-42.98-33.78-99.14v-356.41q0-81.63 84.28-116.4 84.28-34.77 283.59-34.77-12.67 19.15-21.39 39.9t-13.24 42.86q-127.39 2-177.25 11.76T173-695.76h240.54q-1.28 18 .32 36t5.07 36H170.87v120.72h308.61q20.91 23.71 47.3 41.71 26.39 18 55.55 30.29H170.87v112.58q0 31.5 22.05 53.54 22.04 22.05 53.54 22.05h273.89q31.99 0 54.39-22.39 22.39-22.4 22.39-54.39v-105.76q19.63 6.67 40.38 9.65 20.75 2.98 42.62 2.5v94.77q0 56.19-33.78 99.17-33.78 42.99-88.22 54.58l50 50v28.31H159.87Zm520.03-401.7q-79.77 0-135.77-56.16-56-56.16-56-135.84 0-80.24 56.12-136.12 56.12-55.88 136.33-55.88 79.49 0 135.52 56.23 56.03 56.22 56.03 136 0 79.77-56.23 135.77-56.22 56-136 56ZM653.74-683h52.78v-96h-52.78v96Zm26.39 101.98q10.8 0 18.59-7.68 7.8-7.68 7.8-18.47 0-10.8-7.8-18.72-7.79-7.91-18.59-7.91t-18.59 7.91q-7.8 7.92-7.8 18.72 0 10.79 7.8 18.47 7.79 7.68 18.59 7.68ZM384-289.2q20 0 34-14t14-34q0-20-14-34t-34-14q-20 0-34 14t-14 34q0 20 14 34t34 14Z"/></svg>