<svg xmlns="http://www.w3.org/2000/svg" height="20" viewBox="0 -960 960 960" width="20"><path d="M325.63-87.87H521.5V-257.3H242.63v86.43q0 34.48 24.26 58.74 24.26 24.26 58.74 24.26Zm267.87 0h195.63q34.48 0 58.74-24.26 24.26-24.26 24.26-58.74v-86.43H593.5v169.43ZM87.87-233.07v-556.51q0-37.33 22.61-59.94t59.94-22.61h556.51v83H170.87v556.06h-83Zm154.76-96.23H521.5v-169.68H242.63v169.68Zm350.87 0h278.63v-169.68H593.5v169.68ZM242.63-570.98h629.5v-63.6q0-34.57-24.26-58.68t-58.74-24.11h-463.5q-34.48 0-58.74 24.26-24.26 24.26-24.26 58.74v63.39Z"/></svg>