<svg xmlns="http://www.w3.org/2000/svg" height="20" viewBox="0 -960 960 960" width="20"><path d="M750.7-480v-356.13h83V-480h-83ZM277-76.87l-52.07-204.91q-44.71-33.96-71.67-85.01Q126.3-417.85 126.3-480q0-62.15 27.46-113.21 27.46-51.05 73.17-85.01L277-883.13h194.87l50.06 204.91q45.72 33.96 73.18 85.01 27.46 51.06 27.46 113.21 0 62.15-26.96 113.21-26.96 51.05-71.68 85.01L471.87-76.87H277Zm97.63-238q68.61 0 116.77-48.36 48.16-48.35 48.16-116.96 0-68.61-48.35-116.78-48.36-48.16-116.97-48.16t-116.77 48.36q-48.17 48.35-48.17 116.96 0 68.61 48.36 116.78 48.36 48.16 116.97 48.16Z"/></svg>