<svg xmlns="http://www.w3.org/2000/svg" height="20" viewBox="0 -960 960 960" width="20"><path d="M228.31-164q-27.01 0-45.66-18.65Q164-201.3 164-228.31v-503.38q0-27.01 18.65-45.66Q201.3-796 228.31-796h321.84q-13.92 21.46-21.88 46.6-7.96 25.14-7.96 51.37 0 74.26 51.93 125.99 51.93 51.73 125.93 51.73 26.14 0 51.25-7.96 25.12-7.96 46.58-21.88v321.84q0 27.01-18.65 45.66Q758.7-164 731.69-164H228.31Zm51.08-136.31h401.22L547-478.46 439-338.69l-67-84.08-92.61 122.46ZM672-600v-72h-72v-52h72v-72h52v72h72v52h-72v72h-52Z"/></svg>