<svg xmlns="http://www.w3.org/2000/svg" height="20" viewBox="0 -960 960 960" width="20"><path d="M671.77-116q-71.69 0-121.73-50.27Q500-216.53 500-288.23q0-71.69 50.27-121.73Q600.53-460 672.23-460q71.69 0 121.73 50.27Q844-359.47 844-287.77q0 71.69-50.27 121.73Q743.47-116 671.77-116Zm-191.8-.77q-133.74-34.39-212.85-145.77Q188-373.92 188-515v-215.15l292-112.31 292 112.31v220.61q-24.39-9.92-48.5-16.19Q699.38-532 672-532q-101.92 0-172.96 71.04T428-288q0 43.61 16.69 87.23 16.7 43.61 50.46 79.69-1.53.77-7.07 2.16-5.54 1.38-8.11 2.15ZM672-288q25 0 42.5-17.5T732-348q0-25-17.5-42.5T672-408q-25 0-42.5 17.5T612-348q0 25 17.5 42.5T672-288Zm-.09 120q32.47 0 59.28-15.81 26.81-15.81 43.19-41.81Q751-239 725.28-245.5q-25.72-6.5-53.5-6.5t-53.28 7q-25.5 7-48.88 19.38 16.38 26 43.1 41.81Q639.44-168 671.91-168Z"/></svg>