<svg xmlns="http://www.w3.org/2000/svg" height="20" viewBox="0 -960 960 960" width="20"><path d="M483.69-480.38ZM116-212l206-268-206-268.38h465.46q14.92 0 28.27 6.34 13.35 6.35 23.19 18.81L820-480l-4.16 3.77q-16.3-6.23-32.49-9.27-16.2-3.04-35.19-4.27l-156.31-202q-1.93-2.31-4.23-3.46-2.31-1.15-5.39-1.15H220L387-480 220-264h245.85q-2 12.61-2.16 25.61-.15 13 .93 26.39H116Zm577.92 47.54 117.31-121.92-26.54-24.54-92.05 95.15-38.33-39-25.54 25.15 65.15 65.16Zm25.85 102.23q-73.23 0-124.23-51.23-51-51.22-51-124.46 0-73.23 51.23-124.23 51.22-51 124.46-51 73.23 0 124.23 51.22 51 51.23 51 124.46 0 73.24-51.23 124.24-51.22 51-124.46 51Z"/></svg>