<svg xmlns="http://www.w3.org/2000/svg" height="20" viewBox="0 -960 960 960" width="20"><path d="M212-140v-475.05q0-26.64 18.86-45.33 18.86-18.7 45.5-18.7h269.38q26.64 0 45.34 18.85 18.69 18.84 18.69 45.46V-140L411.08-241.14 212-140Zm52-80.54 147.08-77.76 146.69 77.76v-394.23q0-5.38-3.46-8.85-3.46-3.46-8.85-3.46H276.31q-5.39 0-8.85 3.46-3.46 3.47-3.46 8.85v394.23Zm432-30.61v-504.54q0-5.39-3.46-8.85t-8.85-3.46H303.77v-52h379.92q26.62 0 45.47 18.84Q748-782.31 748-755.69v504.54h-52ZM264-627.08h293.77H264Z"/></svg>