<svg xmlns="http://www.w3.org/2000/svg" height="20" viewBox="0 -960 960 960" width="20"><path d="M426.46-560.38ZM180.31-212Q150-212 133-229q-17-17-17-47.31v-407.38Q116-714 133-731q17-17 47.31-17h641.54q11.05 0 18.52 7.42 7.47 7.42 7.47 18.38 0 10.97-7.47 18.58-7.47 7.62-18.52 7.62H180.31q-4.62 0-8.46 3.85-3.85 3.84-3.85 8.46v407.38q0 4.62 3.85 8.46 3.84 3.85 8.46 3.85H258q11.05 0 18.53 7.42 7.47 7.42 7.47 18.38 0 10.97-7.47 18.58Q269.05-212 258-212h-77.69Zm615.54-58.54v-279.54q0-2.69-1.93-4.61-1.92-1.93-4.61-1.93H650.69q-2.69 0-4.61 1.93-1.93 1.92-1.93 4.61v279.54q0 2.69 1.93 4.62Q648-264 650.69-264h138.62q2.69 0 4.61-1.92 1.93-1.93 1.93-4.62ZM640.39-212q-22.6 0-35.42-12.82-12.81-12.82-12.81-35.41v-300.15q0-22.6 12.81-35.42 12.82-12.81 35.42-12.81h159.22q22.6 0 35.42 12.81 12.81 12.82 12.81 35.42v300.15q0 22.59-12.81 35.41Q822.21-212 799.61-212H640.39Zm79.26-268q9.58 0 16.2-6.63 6.61-6.64 6.61-15.48 0-9.58-6.49-16.2-6.49-6.61-16.42-6.61-9.17 0-15.59 6.49t-6.42 16.42q0 9.16 6.63 15.59 6.64 6.42 15.48 6.42ZM378.54-234.31l-15.23-45.46q-21.23-15.46-34.04-38.97-12.81-23.52-12.81-51.12 0-27.6 12.81-51.26 12.81-23.65 34.04-39.11l15.23-45.46q3.35-10 11.71-16.16 8.37-6.15 18.83-6.15h34.77q10.93 0 18.74 6.26 7.82 6.25 11.41 16.05l15.62 45.46q21.23 15.46 34.03 38.97 12.81 23.52 12.81 51.12 0 27.6-12.81 51.25-12.8 23.66-34.03 39.12L474-234.31q-3.26 10-11.42 16.15-8.15 6.16-18.73 6.16h-34.77q-10.82 0-18.84-6.26t-11.7-16.05Zm47.92-85.38q21 0 35.66-14.68 14.65-14.67 14.65-35.63t-14.69-35.64q-14.69-14.67-35.62-14.67-20.92 0-35.61 14.66Q376.16-391 376.16-370t14.65 35.65q14.65 14.66 35.65 14.66ZM720-410.31Z"/></svg>