<svg xmlns="http://www.w3.org/2000/svg" height="20" viewBox="0 -960 960 960" width="20"><path d="M207.62-92.31q-77.93 0-132.77-54.92Q20-202.15 20-280.08 20-358 74.92-412.85q54.93-54.84 132.85-54.84 77.92 0 132.77 54.92 54.84 54.92 54.84 132.85 0 77.92-54.92 132.77-54.92 54.84-132.84 54.84Zm-.02-60q53.17 0 90.48-37.21 37.31-37.22 37.31-90.39t-37.22-90.48q-37.22-37.3-90.39-37.3-53.16 0-90.47 37.21Q80-333.26 80-280.09t37.22 90.48q37.21 37.3 90.38 37.3ZM450-210v-198.85L316.62-517.39q-11.47-8.46-16.39-21.13-4.92-12.67-4.92-27.65 0-13.98 5.73-26.37 5.73-12.38 15.58-22.23l114.3-114.31q8.47-11.46 21.22-16.38 12.76-4.92 27.85-4.92 15.09 0 29.86 5.92 14.76 5.92 27.23 15.38l76 76q28 28 63.42 44.2 35.42 16.19 75.04 18.11V-530q-52.77-1.92-100.23-22.96t-84.39-57.96L528-649.85 420.46-542.31 510-448.77V-210h-60Zm162.31-532.31q-29.16 0-49.58-20.42-20.42-20.42-20.42-49.58 0-29.15 20.42-49.57 20.42-20.43 49.58-20.43 29.15 0 49.57 20.43 20.43 20.42 20.43 49.57 0 29.16-20.43 49.58-20.42 20.42-49.57 20.42Zm139.92 650q-77.92 0-132.77-54.92-54.84-54.92-54.84-132.85 0-77.92 54.92-132.77 54.92-54.84 132.84-54.84 77.93 0 132.77 54.92Q940-357.85 940-279.92q0 77.92-54.92 132.77-54.93 54.84-132.85 54.84Zm-.01-60q53.16 0 90.47-37.21Q880-226.74 880-279.91t-37.22-90.48q-37.21-37.3-90.38-37.3-53.17 0-90.48 37.21-37.31 37.22-37.31 90.39t37.22 90.48q37.22 37.3 90.39 37.3Z"/></svg>