<svg xmlns="http://www.w3.org/2000/svg" height="20" viewBox="0 -960 960 960" width="20"><path d="M225.23-116H156v-52h69.23q35.92 0 64-18.27T343-223.54q32.08 21.54 64.54 38.16 32.46 16.61 71.69 16.61t71.69-16.61q32.47-16.62 64.54-38.16 26.08 19 53.77 37.27Q696.92-168 732.85-168H804v52h-71.15q-30.16 0-53.89-8.5t-64.65-33.89q-42.08 24.62-71.19 33.7-29.12 9.07-63.89 9.07-34.77 0-64.08-9.07-29.3-9.08-71.38-33.7Q303.85-134 279.12-125q-24.73 9-53.89 9Zm254.39-132.46q-18.16 0-37.85-2.19-19.69-2.2-58.15-41.97l-36-34-31 31q-23.47 25.39-45.5 36.08-22.04 10.69-46.97 13h-26l-51.3-247.61q-2.23-11.69 4.31-22.85 6.53-11.15 18.23-14.77l57-17v-158.92q0-26.92 18.69-45.62Q263.77-772 290.69-772h106.77v-72h164.31v72h106.77q26.92 0 45.61 18.69 18.7 18.7 18.7 45.62v158.92l56.99 17q11.7 3.62 18.24 14.77 6.53 11.16 4.3 22.85l-51.3 247.61h-26q-24.93-2.31-46.96-13-22.04-10.69-45.5-36.08l-31-31-36 34q-38.47 39.77-58.16 41.97-19.69 2.19-37.84 2.19ZM277.61-563.15l201.62-57.92 201.62 57.92V-720H277.61v156.85Z"/></svg>