<svg xmlns="http://www.w3.org/2000/svg" height="20" viewBox="0 -960 960 960" width="20"><path d="M480-116q-74.85 0-141.2-28.42t-116.15-78.21q-49.8-49.79-78.22-116.13Q116-405.1 116-479.93q0-75.84 28.42-141.71t78.21-115.68q49.79-49.81 116.13-78.25Q405.1-844 479.93-844q75.84 0 141.71 28.43 65.87 28.42 115.68 78.22t78.25 115.65Q844-555.85 844-480q0 8.54-.31 17.27t-1.54 16.27q-28.46-21.46-62.26-32.12-33.81-10.65-71.28-10.65-95.76 0-161.99 66.23-66.24 66.23-66.24 162 0 40.14 13.08 76.26 13.08 36.12 36.62 64.97-11.64 2.38-24.28 3.08-12.65.69-25.8.69ZM168-480q0 125.62 85.39 214.15 85.38 88.54 208.92 96 4.23 0 8.58-.19 4.34-.19 8.19-.96Q399.77-218.61 351-299.58 302.23-380.54 302.23-480t49.16-180.92Q400.54-742.39 479.85-790q-4.23-.77-8.46-.96-4.23-.19-8.47-.19-124.15 6.84-209.53 96.19Q168-605.62 168-480Zm408 246.77v-52h268v52H576Z"/></svg>