<svg xmlns="http://www.w3.org/2000/svg" height="20" viewBox="0 -960 960 960" width="20"><path d="m769.15-118.31-71.23-71.23q-46.84 34.69-102.42 53.62Q539.92-117 480-117q-74.77 0-141.11-28.46-66.35-28.46-116.16-78.27-49.81-49.81-78.27-116.16Q116-406.23 116-481q0-59.92 18.92-115.5 18.93-55.58 53.62-102.42l-71.23-72.23 36.77-36.77 651.84 652.84-36.77 36.77ZM378.54-508.92l-53.46 183.84 183.84-53.46-130.38-130.38Zm404.84 230.07-195-195 46.54-161.07-161.07 46.54-196-196q44.92-29.31 96.27-44.96Q425.46-845 480-845q75.77 0 141.61 28.46 65.85 28.46 115.66 78.27 49.81 49.81 78.27 115.66Q844-556.77 844-481q0 54.54-16.16 105.38-16.15 50.85-44.46 96.77Z"/></svg>