<svg xmlns="http://www.w3.org/2000/svg" height="20" viewBox="0 -960 960 960" width="20"><path d="M180.31-212q-27.01 0-45.66-18.66Q116-249.32 116-276.35v-407.62q0-27.03 18.65-45.53t45.66-18.5h599.38q27.01 0 45.66 18.66Q844-710.68 844-683.65v407.62q0 27.03-18.65 45.53T779.69-212H180.31ZM168-319.69v43.38q0 4.62 3.85 8.46 3.84 3.85 8.46 3.85h599.38q4.62 0 8.46-3.85 3.85-3.84 3.85-8.46v-43.38H168Zm0 0V-264-319.69Zm406-188.16V-446q0 11.07 7.41 18.53 7.4 7.47 18.38 7.47 10.98 0 18.59-7.47Q626-434.93 626-446v-61.85h61.85q11.07 0 18.53-7.4 7.47-7.41 7.47-18.39 0-10.97-7.47-18.59-7.46-7.61-18.53-7.61H626v-61.85q0-11.07-7.41-18.54-7.4-7.46-18.38-7.46-10.98 0-18.59 7.46-7.62 7.47-7.62 18.54v61.85h-61.85q-11.07 0-18.53 7.4-7.47 7.4-7.47 18.38 0 10.98 7.47 18.6 7.46 7.61 18.53 7.61H574ZM168-371.69h624v-312q0-5.39-3.46-8.85t-8.85-3.46H180.31q-5.39 0-8.85 3.46t-3.46 8.85v312Z"/></svg>