<svg xmlns="http://www.w3.org/2000/svg" height="20" viewBox="0 -960 960 960" width="20"><path d="M180.31-212q-27.01 0-45.66-18.66Q116-249.32 116-276.35v-407.62q0-27.03 18.65-45.53t45.66-18.5h599.38q27.01 0 45.66 18.66Q844-710.68 844-683.65v407.62q0 27.03-18.65 45.53T779.69-212H180.31ZM574-507.85V-446q0 11.05 7.42 18.53 7.42 7.47 18.38 7.47 10.97 0 18.58-7.47Q626-434.95 626-446v-61.85h61.85q11.05 0 18.52-7.41 7.48-7.42 7.48-18.39 0-10.96-7.48-18.58-7.47-7.61-18.52-7.61H626v-61.85q0-11.05-7.42-18.53-7.42-7.47-18.38-7.47-10.97 0-18.58 7.47-7.62 7.48-7.62 18.53v61.85h-61.85q-11.05 0-18.52 7.41-7.48 7.42-7.48 18.39 0 10.96 7.48 18.58 7.47 7.61 18.52 7.61H574ZM168-371.69h624v-312q0-5.39-3.46-8.85t-8.85-3.46H180.31q-5.39 0-8.85 3.46t-3.46 8.85v312Z"/></svg>