<svg xmlns="http://www.w3.org/2000/svg" height="20" viewBox="0 -960 960 960" width="20"><path d="M790.85-97 87.92-799.92q-8.3-8.31-8-17.89.31-9.58 9-18.27 8.7-8.69 18.08-8.69 9.38 0 18.08 8.69L828-133.15q8.31 8.3 8.5 17.88.19 9.58-8.5 18.27t-18.58 8.69q-9.88 0-18.57-8.69ZM480.77-713.85q13.08 0 22.23-9.15t9.15-22.23q0-13.08-9.15-22.23t-22.23-9.15q-13.08 0-22.23 9.15t-9.15 22.23q0 13.08 9.15 22.23t22.23 9.15ZM300.31-68q-26.92 0-45.62-18.69Q236-105.39 236-132.31v-592.84l488 487.99v104.85q0 28.92-20.19 46.62Q683.61-68 659.69-68H300.31ZM724-827.69v146.31q18.46-2.7 32.46 9.19 14 11.88 14 29.96v91.38q0 18.08-14 29.97-14 11.88-32.46 9.19v94.61q0 21.31-19.69 29.66-19.7 8.34-34.77-6.74L245.16-818.15q-4.62-4.62-6.93-10.73-2.31-6.12-2.31-13.12 0-18.46 16.2-34.23Q268.31-892 296.85-892h362.84q26.92 0 45.62 18.69Q724-854.61 724-827.69Z"/></svg>