<svg xmlns="http://www.w3.org/2000/svg" height="20" viewBox="0 -960 960 960" width="20"><path d="M375.46-212q-15.02 0-28.46-6.58-13.44-6.58-23.38-18.96L140-480l183.62-242.46q9.94-12.38 23.38-18.96t28.46-6.58h404.23q26.53 0 45.42 18.9Q844-710.19 844-683.65v407.62q0 26.55-18.89 45.29T779.69-212H375.46Zm66.02-236.62q12.9 0 22.25-9.13 9.35-9.14 9.35-22.04 0-12.9-9.14-22.25-9.13-9.34-22.04-9.34-12.9 0-22.25 9.13-9.34 9.14-9.34 22.04 0 12.9 9.13 22.25 9.14 9.34 22.04 9.34Zm120 0q12.9 0 22.25-9.13 9.35-9.14 9.35-22.04 0-12.9-9.14-22.25-9.13-9.34-22.04-9.34-12.9 0-22.25 9.13-9.34 9.14-9.34 22.04 0 12.9 9.13 22.25 9.14 9.34 22.04 9.34Zm120 0q12.9 0 22.25-9.13 9.35-9.14 9.35-22.04 0-12.9-9.14-22.25-9.13-9.34-22.04-9.34-12.9 0-22.25 9.13-9.34 9.14-9.34 22.04 0 12.9 9.13 22.25 9.14 9.34 22.04 9.34Z"/></svg>