<svg xmlns="http://www.w3.org/2000/svg" height="20" viewBox="0 -960 960 960" width="20"><path d="M166.08-685.23H423 166.08ZM600-432H168 600ZM175.69-126.77V-140l50-50q-47.9-8-78.79-44.4-30.9-36.39-30.9-85.29V-672q0-66.69 75.27-95.34Q266.54-796 444.23-796q-7.15 12.77-12.65 25.58-5.5 12.81-8.58 26.8-137.69 2-189.31 14.31-51.61 12.31-67.61 44.08h246.38q-.84 13 .16 26t3.23 26H168V-484h330.77q18.23 17.23 40.5 30.04 22.27 12.81 46.19 21.96H168v112.31q0 33.2 23.24 56.45Q214.49-240 247.69-240h272.62q33.2 0 56.45-23.24Q600-286.49 600-319.69v-109.85q12 4.23 25 6.73t27 3.66v100.19q0 49.04-30.9 85Q590.21-198 542.31-190l50 50v13.23H175.69ZM663.92-500q-71.54 0-121.57-50.2-50.04-50.2-50.04-121.94 0-72.17 50.24-122.01Q592.8-844 664.92-844q71.25 0 121.32 50.27 50.07 50.26 50.07 121.96 0 71.69-50.43 121.73Q735.46-500 663.92-500Zm-21.31-179.69H686v-76h-43.39v76Zm21.7 92.92q9.6 0 16.22-6.82 6.62-6.81 7.01-16.03 0-9.44-6.82-16.53-6.81-7.08-16.41-7.08-9.6 0-16.42 6.81-6.81 6.82-6.81 16.42 0 9.6 6.81 16.41 6.82 6.82 16.42 6.82ZM384.09-295.69q16.83 0 28.52-11.79 11.7-11.78 11.7-28.61t-11.79-28.52q-11.78-11.7-28.61-11.7t-28.52 11.79q-11.7 11.78-11.7 28.61t11.79 28.52q11.78 11.7 28.61 11.7Z"/></svg>