<svg xmlns="http://www.w3.org/2000/svg" height="20" viewBox="0 -960 960 960" width="20"><path d="M558.15-235.38h-74.61q-11.05 0-18.53 7.41-7.47 7.42-7.47 18.39 0 10.96 7.47 18.58 7.48 7.61 18.53 7.61H578q13.66 0 22.91-9.24 9.24-9.24 9.24-22.91V-310q0-11.05-7.42-18.53-7.41-7.47-18.38-7.47-10.97 0-18.58 7.47-7.62 7.48-7.62 18.53v74.62ZM300.31-68q-26.53 0-45.42-18.89T236-132.31v-695.38Q236-858 253-875q17-17 47.31-17h360.92q26.53 0 45.42 18.89t18.89 45.42v146.31q18.46-2.7 32.46 9.19 14 11.88 14 29.96v91.38q0 18.08-14 29.97-14 11.88-32.46 9.19v379.38q0 26.53-18.89 45.42T661.23-68H300.31Zm103.07-656.62H478q11.05 0 18.53-7.41 7.47-7.42 7.47-18.39 0-10.96-7.47-18.58-7.48-7.61-18.53-7.61h-94.46q-13.67 0-22.91 9.24t-9.24 22.91V-650q0 11.05 7.41 18.53 7.42 7.47 18.39 7.47 10.96 0 18.58-7.47 7.61-7.48 7.61-18.53v-74.62Z"/></svg>