<svg xmlns="http://www.w3.org/2000/svg" height="20" viewBox="0 -960 960 960" width="20"><path d="M117-463.15q-1-5-1-8.43V-480q0-44.61 31.35-76.15 31.34-31.54 75.96-31.54 21.75 0 40.64 8 18.9 8 33.36 22l240.46-148.08q-2.38-7.38-3.77-14.77-1.38-7.39-1.38-15.77 0-45 31.34-76.34Q595.31-844 640.31-844q45 0 76.34 31.35Q748-781.31 748-736.31t-31.35 76.35q-31.34 31.34-76.34 31.34-21.85 0-40.5-8.19Q581.15-645 566.69-659L299-493.85q-12.77-3.46-25.6-4.5-12.82-1.03-25.9-1.03-35.96 0-68.88 9.46-32.93 9.46-61.62 26.77ZM640.31-116q-45 0-76.35-31.35-31.34-31.34-31.34-76.34 0-9 5.15-30.16l-40.16-24.54q-2-22.61-8.65-43.42-6.65-20.81-17.34-38.8L566.69-301q14.46-14 33.16-22.19 18.7-8.19 40.46-8.19 45 0 76.34 31.34Q748-268.69 748-223.69q0 45-31.35 76.34Q685.31-116 640.31-116ZM247.47-75.69q-71.7 0-121.74-50.27-50.04-50.26-50.04-121.96 0-71.7 50.27-121.73 50.26-50.04 121.96-50.04 71.7 0 121.73 50.26 50.04 50.27 50.04 121.96 0 71.7-50.26 121.74-50.27 50.04-121.96 50.04Zm-.78-147.08 56 55.62 25.54-25.93-55.61-55.61 55.61-55.62-25.92-25.92-55.62 55.61-55.61-55.61-25.93 25.92 55.62 55.62-55.62 55.61 25.93 25.93 55.61-55.62Z"/></svg>