<svg xmlns="http://www.w3.org/2000/svg" height="20" viewBox="0 -960 960 960" width="20"><path d="M479.26-297.23q13.89 0 23.09-9.22 9.19-9.22 9.19-23.11 0-13.9-9.22-23.09-9.22-9.2-23.12-9.2-13.89 0-23.08 9.22-9.2 9.22-9.2 23.12 0 13.89 9.22 23.09 9.22 9.19 23.12 9.19ZM481.29-411q9.03 0 14.91-6.08 5.88-6.07 7.26-15.38 1.39-6.3 3.58-11.96 2.19-5.66 5.05-10.22 3.84-6.59 8.03-12.24 4.19-5.66 8.8-10.27 20-20.39 36.89-43.27 16.88-22.88 16.88-51.73 0-39.28-30.2-64.56Q522.29-662 482.03-662q-28.83 0-54.12 12.73T387-612.5q-4.85 8.12-1.48 17.27 3.37 9.15 12.36 13.3 8.35 4.01 16.74.55 8.38-3.47 14.37-10.93 9.24-12.92 22.77-19.57 13.54-6.66 30.01-6.66 22.09 0 38.66 14.16Q537-590.23 537-567.92q0 19.12-11.97 33.09-11.98 13.96-25.57 27.75-9.23 8.85-17.05 18.16-7.82 9.3-14.1 20.77-5 7.68-7.77 16.14-2.77 8.45-2.77 17.67 0 9.91 6.66 16.63 6.67 6.71 16.86 6.71ZM480-73.16q-9.23 0-19.23-1.5t-19.62-4.5q-133.53-47-214.34-172.57Q146-377.31 146-516v-171.15q0-37.49 21.11-67.87 21.1-30.39 55.89-43.59l215.69-80q19.85-7.62 41.31-7.62t41.31 7.62l215.69 80q34.79 13.2 55.89 43.59Q814-724.64 814-687.15V-516q0 138.69-80.81 264.27-80.81 125.57-214.34 172.57-9.62 3-19.62 4.5-10 1.5-19.23 1.5Z"/></svg>