<svg xmlns="http://www.w3.org/2000/svg" height="20" viewBox="0 -960 960 960" width="20"><path d="M228.31-164Q198-164 181-181q-17-17-17-47.31v-503.38Q164-762 181-779q17-17 47.31-17h503.38Q762-796 779-779q17 17 17 47.22V-412q-12.45-6.03-25.42-11.17-12.97-5.14-26.58-8.21v-173.24H506v181.78q-21.92 7.92-41.65 17.3-19.73 9.39-37.89 21.62H216v155.61q0 5.39 3.46 8.85t8.85 3.46h69.61q5.7 14.61 13.58 26.92 7.89 12.31 15.81 25.08h-99ZM216-435.92h238v-168.7H216v168.7Zm0-220.69h528v-75.08q0-5.39-3.46-8.85t-8.85-3.46H228.31q-5.39 0-8.85 3.46t-3.46 8.85v75.08ZM480-480Zm0 0Zm0 0Zm0 0ZM638.69-72.62q-80.15 0-148.65-38.3-68.5-38.31-104.65-108.93 36.15-70.61 104.65-108.92t148.65-38.31q80.16 0 148.66 38.31Q855.84-290.46 892-219.85q-36.16 70.62-104.65 108.93-68.5 38.3-148.66 38.3Zm0-52q57.68 0 108.88-24.38 51.2-24.39 83.97-70.85-32.77-46.46-83.97-70.84-51.2-24.39-108.88-24.39-57.67 0-108.87 24.39-51.2 24.38-83.97 70.84 32.77 46.46 83.97 70.85 51.2 24.38 108.87 24.38Zm0-45.23q-20.77 0-35.38-14.61-14.62-14.62-14.62-35.39 0-20.77 14.62-35.38 14.61-14.62 35.38-14.62 20.77 0 35.39 14.62 14.61 14.61 14.61 35.38 0 20.77-14.61 35.39-14.62 14.61-35.39 14.61Z"/></svg>