<svg xmlns="http://www.w3.org/2000/svg" height="20" viewBox="0 -960 960 960" width="20"><path d="M375.23-905.61q88.85 0 150.92 62.07 62.08 62.08 62.08 150.93 0 22.23-4 42.32t-12.38 39.37q-2.85 5.69-9.43 8.42-6.57 2.73-13.14-.09-6.56-3.2-9.04-10.23-2.47-7.02.38-13.95 5.76-15.77 9.34-32.27 3.58-16.5 3.58-33.57 0-73.85-51.73-125.58-51.73-51.73-125.58-51.73-73.84 0-125.58 51.73-51.73 51.73-51.73 125.58 0 19.15 4.27 36.92 4.27 17.77 11.04 34.54 3.23 6.92.69 13.92-2.53 7-9.39 11.23-6.86 3.85-13.69 1.31-6.83-2.54-9.84-8.23-9.38-20.23-14.08-43.02-4.69-22.79-4.69-46.67 0-88.85 61.79-150.93 61.78-62.07 150.21-62.07Zm1 93.3q49 0 84.35 35.35 35.34 35.35 35.34 84.35 0 8.38-1.5 17.38-1.5 9-4.27 17-2.15 7.71-8.27 11.35-6.11 3.65-13.8 1.92-7.7-1.73-10.96-8.62-3.27-6.88-1.04-13.19 1.38-3.99 4.15-25.35 0-35.49-24.75-59.99-24.74-24.5-59.5-24.5-34.75 0-59.25 24.69t-24.5 59.31q0 8.15 1.39 15.42 1.38 7.27 3.77 14.42 2.61 6.68-.35 12.77-2.96 6.08-10.4 8.69-7.83 2.62-14.58-.73-6.75-3.34-9.37-11.42-3.38-8.38-4.77-18.27-1.38-9.88-1.38-20.88 0-49.62 35.35-84.66 35.34-35.04 84.34-35.04ZM477.85-116q-26.31 0-49.81-10.77-23.5-10.77-40.65-30.69L192.77-387q-7.08-9.46-6.96-20.58.11-11.11 8.58-19.57l5-5q10-10 23.88-14.23 13.88-4.24 28.11-.08l98.47 37.31v-307.46q0-11.07 7.4-18.54 7.41-7.46 18.39-7.46t18.4 7.46q7.42 7.47 7.42 18.54v223.38h260.08q35.38 0 60.92 23.54T748-410.77V-250q0 56.15-39.12 95.08Q669.77-116 613.61-116H477.85Z"/></svg>