<svg xmlns="http://www.w3.org/2000/svg" height="24" viewBox="0 -960 960 960" width="24"><path d="m100-180 230-300-230-300.38h493.46q17.08 0 32.35 7.34 15.27 7.35 25.11 20.81L860-480l-6.16 7.77q-30.76-18-64.38-27.31-33.61-9.31-69.46-9.31-113.15 0-192.15 79t-79 191.54q0 14.23 1.84 29.16 1.85 14.92 5.93 29.15H100ZM720-54.23q-76.46 0-129.96-53.5-53.5-53.5-53.5-129.96 0-76.46 53.5-129.96 53.5-53.5 129.96-53.5 76.46 0 129.96 53.5 53.5 53.5 53.5 129.96 0 76.46-53.5 129.96-53.5 53.5-129.96 53.5Zm-27.08-104.23 126.31-124.92-33.54-33.54-92.77 91.15-38.61-39-33.54 34.15 72.15 72.16Z"/></svg>