<svg xmlns="http://www.w3.org/2000/svg" height="24" viewBox="0 -960 960 960" width="24"><path d="M493.69-480.38ZM100-180l230-300-230-300.38h493.46q17.07 0 32.34 7.34 15.28 7.35 25.12 20.81L860-480l-6.16 7.77q-19.3-12.23-40.99-20.27-21.7-8.04-45.69-11.27l-163.31-212q-1.93-2.31-4.23-3.46-2.31-1.15-5.39-1.15H220L405-480 220-240h228.85q0 15.61 1.84 30.61 1.85 15 5.93 29.39H100Zm592.92 21.54 126.31-124.92-33.54-33.54-92.77 91.15-38.61-39-33.54 34.15 72.15 72.16ZM720-54.23q-76.46 0-129.96-53.5-53.5-53.5-53.5-129.96 0-76.46 53.5-129.96 53.5-53.5 129.96-53.5 76.46 0 129.96 53.5 53.5 53.5 53.5 129.96 0 76.46-53.5 129.96-53.5 53.5-129.96 53.5Z"/></svg>