<svg xmlns="http://www.w3.org/2000/svg" height="24" viewBox="0 -960 960 960" width="24"><path d="M300-167.85v-315.22h73.61q6.24 0 12.66 1.3 6.42 1.31 12.65 3.31l258.92 95.69q15.93 5.77 25.97 19.73 10.03 13.97 10.03 30.27 0 16-10.84 25.93-10.85 9.92-25.62 9.92h-76.53q-12.7 0-23.66-1.46t-22.27-5.77l-67.84-25.39-12.24 34.39 77.77 27q10.47 3.69 22.54 5.15 12.08 1.46 23.93 1.46h240.15q29.69 0 51.38 20.5 21.7 20.5 21.7 51.04L592.92-83.85l-292.92-84ZM100-100v-383.07h140V-100H100Zm449.31-418L393.54-673.77l42.77-41.77 113 113 227-226 41.77 41.77L549.31-518Z"/></svg>