<svg xmlns="http://www.w3.org/2000/svg" height="24" viewBox="0 -960 960 960" width="24"><path d="M548.92-518 393.15-673.77l42.77-41.77 113 113 227-226 41.77 41.77L548.92-518ZM300-216.92l290.31 82.15 238.77-74q-3.08-13.61-12.77-20.88-9.7-7.27-21.7-7.27H598.77q-26.23 0-44.54-2t-37.62-8.77l-90.3-29.85 17.77-58.77 81 28.16q18.15 6.15 41.92 8.38 23.77 2.23 67.61 2.85 0-14.85-6.69-25.62-6.69-10.77-17.61-14.54l-232.08-85.23q-1.15-.38-2.12-.57-.96-.2-2.11-.2h-74v206.16ZM100-100v-383.07h273.61q6.24 0 12.66 1.3 6.42 1.31 12.04 3.31l233.07 85.85q27.23 10.07 45.23 35.65 18 25.58 18 60.04h100q43.08 0 70.2 27.81 27.11 27.8 27.11 72.19v32.3L592.31-71.54 300-154.92V-100H100Zm60-60h80v-263.08h-80V-160Z"/></svg>