<svg xmlns="http://www.w3.org/2000/svg" height="24" viewBox="0 -960 960 960" width="24"><path d="M172.31-180Q142-180 121-201q-21-21-21-51.31v-455.38Q100-738 121-759q21-21 51.31-21h619.23q29.15 0 50.34 20.62 21.2 20.61 21.96 49.77v8.61q-12.84-5.85-26.29-8.58-13.46-2.73-27.8-2.73H630.39q-56.47 0-97.08 38.5-40.62 38.5-44.08 93.81v12.31H299.39l-30 107.84q-23 26-35.81 59.14-12.81 33.14-12.81 70.73t12.81 70.71q12.81 33.12 35.81 59.12l5.69 20.15H172.31Zm458.08 0q-22.6 0-38.42-15.82-15.81-15.82-15.81-38.41v-336.15q0-22.6 15.81-38.42 15.82-15.81 38.42-15.81h179.22q22.6 0 38.42 15.81 15.81 15.82 15.81 38.42v336.15q0 22.59-15.81 38.41Q832.21-180 809.61-180H630.39Zm-264.23 0-18.85-65.77q-18.23-15.46-28.54-37.13-10.31-21.68-10.31-47.12 0-25.44 10.31-47.1 10.31-21.65 28.54-37.11L366.16-480h104.61l18.85 65.77q18.23 15.46 28.53 37.13 10.31 21.68 10.31 47.12 0 25.44-10.31 47.09-10.3 21.66-28.53 37.12L470.77-180H366.16Zm52.3-87.69q27 0 44.66-18.18 17.65-18.17 17.65-44.13t-18.69-44.14q-18.69-18.17-43.62-18.17-24.92 0-43.61 17.66Q356.16-357 356.16-330t17.65 44.65q17.65 17.66 44.65 17.66ZM719.93-460q12.3 0 20.42-8.52 8.11-8.51 8.11-19.87 0-12.3-8.11-20.42-8.11-8.11-20.51-8.11-11.46 0-19.88 8.11-8.42 8.11-8.42 20.51 0 11.45 8.52 19.88 8.51 8.42 19.87 8.42Z"/></svg>