<svg xmlns="http://www.w3.org/2000/svg" height="24" viewBox="0 -960 960 960" width="24"><path d="M292.31-60q-29.83 0-51.07-21.24Q220-102.48 220-132.31v-695.38Q220-858 241-879q21-21 51.31-21h376.92q29.83 0 51.07 21.24 21.24 21.24 21.24 51.07v239.23H555.31l-25.85 128.92q-36.77 35.08-56.96 81.27-20.19 46.19-20.19 97.92 0 51.73 20.08 98.35 20.07 46.61 57.46 82.31L538.38-60H292.31Zm335.38 0-18-88.16q-32.53-22.92-51.11-57.57Q540-240.39 540-280.38q0-40 18.58-74.66 18.58-34.65 51.11-57.57l18-88.16h144.62l18 88.16q32.53 22.92 51.11 57.57Q860-320.38 860-280.38q0 39.99-18.58 74.65-18.58 34.65-51.11 57.57l-18 88.16H627.69ZM700-180.38q42 0 71-29t29-71q0-42-29-71t-71-29q-42 0-71 29t-29 71q0 42 29 71t71 29ZM480.8-713.85q15.05 0 25.2-10.18 10.15-10.18 10.15-25.23t-10.18-25.2q-10.18-10.15-25.23-10.15t-25.2 10.18q-10.15 10.18-10.15 25.23t10.18 25.2q10.18 10.15 25.23 10.15Z"/></svg>