<svg xmlns="http://www.w3.org/2000/svg" height="24" viewBox="0 -960 960 960" width="24"><path d="M480-100q-101.38 0-165.69-29.08Q250-158.15 250-204.23q0-21.31 16.04-40.08t44.35-32.23l47.23 42.85q-12.85 5.15-27.01 12.84-14.15 7.7-19.38 16.23 9.92 17.93 59.04 31.27Q419.38-160 480-160q60.23 0 109.85-13.35 49.61-13.34 59.54-31.27-5.08-9.15-20.5-16.84-15.43-7.69-29.27-12.85l46.61-43.46q30.69 14.08 47.23 32.85Q710-226.15 710-204.23q0 46.08-64.31 75.15Q581.38-100 480-100Zm0-120q-131-97.85-195.5-190.08Q220-502.31 220-590.92q0-66.77 23.58-117 23.58-50.23 60.88-84.12 37.31-33.88 83.66-50.92Q434.46-860 480-860q45.54 0 91.88 17.04 46.35 17.04 83.66 50.92 37.3 33.89 60.88 84.12 23.58 50.23 23.58 117 0 88.61-64.5 180.84T480-220Zm0-304.23q29.92 0 51.11-21 21.2-21 21.2-51.31 0-29.92-21.2-51.11-21.19-21.2-51.11-21.2-29.54 0-50.92 21.2-21.39 21.19-21.39 51.11 0 30.31 21.39 51.31 21.38 21 50.92 21Z"/></svg>