<svg xmlns="http://www.w3.org/2000/svg" height="24" viewBox="0 -960 960 960" width="24"><path d="M299.39-315.38v-140.01h359.99v140.01H299.39ZM479.38-696q22.39 0 37.35-14.96t14.96-37.35q0-22.38-14.96-37.34-14.96-14.97-37.35-14.97-22.38 0-37.34 14.97-14.96 14.96-14.96 37.34 0 22.39 14.96 37.35T479.38-696ZM302.23-515.38q7.69-48.08 38.85-85.43 31.15-37.34 77.38-54.04-13.69-8-24.5-20.03-10.81-12.04-17.19-27.35l-147.54-28.38V-766l147.54-28.38q13.46-29.62 40.81-48.23 27.34-18.62 61.8-18.62 22.62 0 42.85 9t35.46 23.39l140.77-27.54v216.15l-140.77-27.54q-3.92 4.31-8.11 7.04-4.2 2.73-9.27 5.88 46.23 16.31 76.88 53.54 30.65 37.23 39.35 85.93H302.23ZM371.69-100q-30.3 0-51.3-21-21-21-21-51.31v-83.08h359.99v83.08q0 30.31-21 51.31-21 21-51.3 21H371.69Z"/></svg>