<svg xmlns="http://www.w3.org/2000/svg" height="24" viewBox="0 -960 960 960" width="24"><path d="M132.31-180Q102-180 81-201q-21-21-21-51.31v-455.38Q60-738 81-759q21-21 51.31-21h695.38Q858-780 879-759q21 21 21 51.31v455.38Q900-222 879-201q-21 21-51.31 21H132.31Zm200.77-110.39h293.84v-70.76H333.08v70.76Zm-122.31-135h70.77v-70.76h-70.77v70.76Zm155.77 0h70.77v-70.76h-70.77v70.76Zm156.15 0h70.77v-70.76h-70.77v70.76Zm155.77 0h70.77v-70.76h-70.77v70.76ZM210.77-560.38h70.77v-70.77h-70.77v70.77Zm155.77 0h70.77v-70.77h-70.77v70.77Zm156.15 0h70.77v-70.77h-70.77v70.77Zm153.85 1.92h70.77v-70.77h-70.77v70.77Z"/></svg>