<svg xmlns="http://www.w3.org/2000/svg" height="24" viewBox="0 -960 960 960" width="24"><path d="M826.92-49.92 41.85-835 84-877.15 869.08-92.08l-42.16 42.16ZM480.8-713.85q15.05 0 25.2-10.18 10.15-10.18 10.15-25.23t-10.18-25.2q-10.18-10.15-25.23-10.15t-25.2 10.18q-10.15 10.18-10.15 25.23t10.18 25.2q10.18 10.15 25.23 10.15ZM292.31-60q-29.83 0-51.07-21.24Q220-102.48 220-132.31v-608.84l520 519.99v88.85q0 29.83-21.24 51.07Q697.52-60 667.69-60H292.31ZM740-334.69 223.08-852.23v-5q8.61-19.15 25.93-30.96Q266.33-900 288.85-900h378.84q29.83 0 51.07 21.24Q740-857.52 740-827.69v126.31q16.46 4.3 27.46 17.19 11 12.88 11 29.96v75.38q0 17.08-11 29.97-11 12.88-27.46 17.19v197Z"/></svg>