<svg xmlns="http://www.w3.org/2000/svg" height="24" viewBox="0 -960 960 960" width="24"><path d="M100-471.15V-480q0-44.61 31.35-76.15 31.34-31.54 75.96-31.54 22.84 0 42.69 8.5 19.85 8.5 34.31 23.5l284.46-167.08q-2.38-7.38-3.27-14.46-.88-7.08-.88-15.08 0-45 31.34-76.34Q627.31-860 672.31-860q45 0 76.34 31.35Q780-797.31 780-752.31t-31.35 76.35q-31.34 31.34-76.34 31.34-22.85 0-42.5-8.69Q610.15-662 595.69-677L308-507.85q-14.77-3.46-29.85-5.5-15.07-2.03-30.46-2.03-41.15 0-78.57 11.46-37.43 11.46-69.12 32.77ZM672.31-100q-45 0-76.35-31.35-31.34-31.34-31.34-76.34 0-6 4.15-29.16l-54.16-32.54q-2-18.61-5.65-35.92-3.65-17.31-10.34-34.3L595.69-283q14.46-15 34.12-23.69 19.65-8.69 42.5-8.69 45 0 76.34 31.34Q780-252.69 780-207.69q0 45-31.35 76.34Q717.31-100 672.31-100ZM247.69-67.69q-74.92 0-127.46-52.54-52.54-52.54-52.54-127.46 0-74.93 52.54-127.46 52.54-52.54 127.46-52.54 74.93 0 127.46 52.54 52.54 52.53 52.54 127.46 0 74.92-52.54 127.46-52.53 52.54-127.46 52.54Zm0-155.08 70 70.62 25.54-24.93-70.61-70.61 70.61-70.62-24.92-24.92-70.62 70.61-70.61-70.61-24.93 24.92 70.62 70.62-70.62 70.61 24.93 24.93 70.61-70.62Z"/></svg>