<svg xmlns="http://www.w3.org/2000/svg" height="24" viewBox="0 -960 960 960" width="24"><path d="M320-100q-30.31 0-51.31-21-21-21-21-51.31V-640q0-30.31 21-51.31 21-21 51.31-21h467.69q30.31 0 51.31 21 21 21 21 51.31v467.69Q860-142 839-121q-21 21-51.31 21H320Zm0-60h203.85v-138.08H307.69v125.77q0 5.39 3.46 8.85T320-160Zm263.84 0h203.85q5.39 0 8.85-3.46t3.46-8.85v-125.77H583.84V-160ZM100-255.39v-532.3Q100-818 121-839q21-21 51.31-21h532.3v60h-532.3q-5.39 0-8.85 3.46t-3.46 8.85v532.3h-60Zm207.69-102.69h216.16v-138.46H307.69v138.46Zm276.15 0H800v-138.46H583.84v138.46ZM307.69-556.54H800V-640q0-5.39-3.46-8.85t-8.85-3.46H320q-5.39 0-8.85 3.46t-3.46 8.85v83.46Z"/></svg>