<svg xmlns="http://www.w3.org/2000/svg" height="24" viewBox="0 -960 960 960" width="24"><path d="M212.31-140Q182-140 161-161q-21-21-21-51.31v-535.38Q140-778 161-799q21-21 51.31-21h535.38Q778-820 799-799q21 21 21 51.31V-427q-14.39-7.92-29.39-14.61-15-6.7-30.61-11.77v-151.24H510v157.78q-32.92 10.92-62.15 29.8-29.23 18.89-54.39 45.12H200v159.61q0 5.39 3.46 8.85t8.85 3.46h86.61q8.7 16.61 17.58 31.42 8.89 14.81 18.81 28.58h-123ZM200-431.92h250v-172.7H200v172.7Zm0-232.69h560v-83.08q0-5.39-3.46-8.85t-8.85-3.46H212.31q-5.39 0-8.85 3.46t-3.46 8.85v83.08ZM480-480Zm0 0Zm0 0Zm0 0ZM642.69-64.62q-82.15 0-151.65-42.8-69.5-42.81-105.65-116.43 36.15-73.61 105.65-116.42t151.65-42.81q82.16 0 151.66 42.81Q863.84-297.46 900-223.85q-36.16 73.62-105.65 116.43-69.5 42.8-151.66 42.8Zm0-60q56.23 0 106.16-26.38 49.92-26.39 82.69-72.85-32.77-46.46-82.69-72.84-49.93-26.39-106.16-26.39t-106.15 26.39q-49.92 26.38-82.69 72.84 32.77 46.46 82.69 72.85 49.92 26.38 106.15 26.38Zm0-49.23q-20.77 0-35.38-14.61-14.62-14.62-14.62-35.39 0-20.77 14.62-35.38 14.61-14.62 35.38-14.62 20.77 0 35.39 14.62 14.61 14.61 14.61 35.38 0 20.77-14.61 35.39-14.62 14.61-35.39 14.61Z"/></svg>