<svg xmlns="http://www.w3.org/2000/svg" height="24" viewBox="0 -960 960 960" width="24"><path d="M480-480ZM206.78-100.78q-44.3 0-75.15-30.85-30.85-30.85-30.85-75.15v-546.44q0-44.3 30.85-75.15 30.85-30.85 75.15-30.85H465.3q22.09 0 37.55 15.46 15.45 15.46 15.45 37.54 0 22.09-15.45 37.55-15.46 15.45-37.55 15.45H206.78v546.44h546.44V-465.3q0-22.09 15.45-37.55 15.46-15.45 37.55-15.45 22.08 0 37.54 15.45 15.46 15.46 15.46 37.55v258.52q0 44.3-30.85 75.15-30.85 30.85-75.15 30.85H206.78ZM240-280h480L570-480 450-320l-90-120-120 160Zm444.52-404.52h-42.26q-18.68 0-31.32-12.8t-12.64-31.72q0-18.69 12.8-31.32Q623.9-773 642.83-773h41.69v-42.26q0-18.68 12.8-31.32t31.72-12.64q18.69 0 31.32 12.64Q773-833.94 773-815.26V-773h42.26q18.68 0 31.32 12.64t12.64 31.33q0 18.68-12.64 31.59-12.64 12.92-31.32 12.92H773v42.26q0 18.68-12.64 31.32t-31.33 12.64q-18.68 0-31.59-12.8-12.92-12.8-12.92-31.73v-41.69Z"/></svg>