<svg xmlns="http://www.w3.org/2000/svg" height="24" viewBox="0 -960 960 960" width="24"><path d="M480-91.17q-16.26 0-32.24-5.57-15.98-5.56-28.67-16.69-68.39-61.7-120.66-119.27-52.26-57.56-87.17-112.19-34.91-54.63-52.7-106.67-17.78-52.05-17.78-102.7 0-108.09 55.68-194.33 55.67-86.24 155.76-126.5 26-11 54.67-16.72 28.67-5.71 57.41-7.28 22.09-1.13 37.83 14.96 15.74 16.09 15.74 38.74 0 20.96-14.61 36t-36.13 16.74q-20.04 1.13-39.93 5.35-19.9 4.21-38.37 11.52-67.74 27.87-104.89 88.04-37.16 60.17-37.16 133.48 0 76.65 57.59 160.8Q361.96-309.3 480-201.26q56.48-51.48 98.65-96.89 42.18-45.42 71.05-86.89 18.3-26.48 35-58.98 16.69-32.5 23.82-59.59 8.52-26.95 27.39-35.95 18.87-9 37.26-4.74 18.4 4.26 30.59 18.78 12.2 14.52 7.37 35.48-9.69 49-32.96 95.02-23.26 46.02-54.6 89.24-40.18 55.3-87.94 103.76-47.76 48.45-94.72 88.59-12.69 11.13-28.67 16.69-15.98 5.57-32.24 5.57Zm0-383.18q35.83 0 60.74-24.91 24.91-24.91 24.91-60.74t-24.91-60.74q-24.91-24.91-60.74-24.91t-60.74 24.91q-24.91 24.91-24.91 60.74t24.91 60.74q24.91 24.91 60.74 24.91Zm0-85.65Zm238.3-182.48v71.52q0 20.4 14.33 34.44t34.72 14.04q20.39 0 34.43-14.32 14.05-14.33 14.05-34.72v-70.96h71.52q20.39 0 34.43-14.32 14.05-14.33 14.05-34.72t-14.05-34.44Q907.74-840 887.35-840h-71.52v-71.52q0-20.39-14.05-34.44Q787.74-960 767.35-960t-34.72 14.04q-14.33 14.05-14.33 34.44V-840h-71.52q-20.39 0-34.43 14.04-14.05 14.05-14.05 34.44 0 20.39 14.33 34.72 14.33 14.32 34.72 14.32h70.95Z"/></svg>