<svg xmlns="http://www.w3.org/2000/svg" height="24" viewBox="0 -960 960 960" width="24"><path d="M573.57-634.17 873.7-427.74q12.26 8.7 18.89 21.67 6.63 12.98 6.63 27.81v26.52q0 31.65-26.02 49.54-26.03 17.9-55.68 5.64l-29.34-9.35-401.75-401.44v-98.3q0-38.65 27.46-66.11T480-899.22q38.65 0 66.11 27.46t27.46 66.11v171.48ZM480-125.3 330.17-80.74q-25.08 7.13-45.54-8.19-20.46-15.33-20.46-40.42v-29.08q0-12.27 5.92-23.59 5.91-11.33 16.17-18.46l100.17-69.17v-121.39L142.48-294q-29.65 12.26-55.68-5.63-26.02-17.89-26.02-49.54v-26.53q0-14.82 6.63-27.8t18.89-21.67l195.57-136.44L78.91-764.57q-12.69-12.69-12.98-31.1-.28-18.42 12.42-31.11 12.69-12.7 31.11-12.7 18.41 0 31.11 12.7L827.35-140q12.69 12.7 12.41 30.83-.28 18.13-12.98 30.82-12.69 12.7-30.82 12.7-18.13 0-30.83-12.7L585.44-257.48v-11.04l87.73 81.3q10.27 7.13 16.18 18.46 5.91 11.33 5.91 23.59v29.08q0 25.09-20.46 40.42-20.45 15.32-45.54 8.19L480-125.3Z"/></svg>