<svg xmlns="http://www.w3.org/2000/svg" height="24" viewBox="0 -960 960 960" width="24"><path d="m549.35-468.91 141.56-94.48q15.74-10.31 15.74-29.05 0-18.73-15.74-29.04l-141.56-94.48q-17.74-12.3-36.2-1.86-18.45 10.45-18.45 31.34v188.09q0 20.89 18.45 31.34 18.46 10.44 36.2-1.86Zm-169 195.69q-44.31 0-75.15-30.85-30.85-30.84-30.85-75.15v-425.87q0-44.3 30.85-75.15 30.84-30.85 75.15-30.85h426.43q44.31 0 75.16 30.85 30.84 30.85 30.84 75.15v425.87q0 44.31-30.84 75.15-30.85 30.85-75.16 30.85H380.35Zm0-106h426.43v-425.87H380.35v425.87Zm213.22-213.22ZM213.48-157.78ZM226.3-53.91q-43.74 5.13-78.15-21.37-34.41-26.5-40.11-70.24L56.17-568.39q-5.69-43.74 21.81-79.07 27.5-35.32 71.24-39.76h3.69q22.66-2.43 39.83 13.24 17.17 15.68 17.17 39.78 0 20.09-13.89 34.82t-33.98 17.16h-.43l52.3 424.44 456.48-56.31q22.09-2.56 39.25 10.47 17.17 13.04 19.81 35.2 2.64 22.16-10.75 39.18-13.4 17.02-35.48 19.59L226.3-53.91Z"/></svg>