<svg xmlns="http://www.w3.org/2000/svg" height="24" viewBox="0 -960 960 960" width="24"><path d="m549.35-468.91 141.56-94.48q15.74-10.31 15.74-29.05 0-18.73-15.74-29.04l-141.56-94.48q-17.74-12.3-36.2-2-18.45 10.31-18.45 31.48v188.09q0 21.17 18.45 31.48 18.46 10.3 36.2-2Zm-323.05 415q-43.74 5.56-78.15-21.15-34.41-26.72-40.11-70.46L56.17-568.39q-5.69-43.74 21.37-78.5 27.07-34.76 70.81-39.89l46-5.44v313q0 77.31 54.35 131.65 54.34 54.35 131.65 54.35h343.74q-.35 33.61-22.87 59.03-22.52 25.41-57 29.54L226.3-53.91Zm154.05-219.31q-44.31 0-75.15-30.85-30.85-30.84-30.85-75.15v-425.87q0-44.3 30.85-75.15 30.84-30.85 75.15-30.85h426.43q44.31 0 75.16 30.85 30.84 30.85 30.84 75.15v425.87q0 44.31-30.84 75.15-30.85 30.85-75.16 30.85H380.35Z"/></svg>