<svg xmlns="http://www.w3.org/2000/svg" height="24" viewBox="0 -960 960 960" width="24"><path d="M566.52-59.87 309.26-133v-402.26h71.91q9.83 0 18.81 1.78 8.98 1.78 18.24 4.91l256.65 95.09q24.17 8.96 42 31.85t17.83 46.5q0 16.48-11.11 26.93-11.11 10.46-26.72 10.46H586.22q-12.35 0-24.18-2.19-11.82-2.2-23.17-5.9L498.39-340q-11.39-4.13-22.22.43-10.82 4.57-13.95 15.53-2.57 10.26 2.13 19.52 4.69 9.26 14.95 12.82l48.83 17.05q11.04 3.82 26.35 6.02 15.3 2.2 27.35 2.2h260.43q45.57 0 69.57 26.67 24 26.67 24 71.98L629.52-61.3q-13.95 4.56-30.72 5.06-16.76.5-32.28-3.63ZM60.78-144.74v-306q0-34.7 24.91-59.61 24.92-24.91 59.61-24.91 34.7 0 59.33 24.91 24.63 24.91 24.63 59.61v306q0 34.7-24.63 59.33Q180-60.78 145.3-60.78q-34.69 0-59.61-24.63-24.91-24.63-24.91-59.33Zm515.44-543.92 189.95-189.52q15.53-15.52 37.11-15.45 21.59.06 37.55 16.02 15.52 15.52 15.52 37.33 0 21.8-15.52 37.32l-227 226.44q-15.96 15.95-37.61 15.95t-37.61-15.95l-113.44-114q-15.39-15.96-15.45-37.05-.07-21.08 15.89-37.04 15.96-15.52 37.33-15.74 21.37-.22 37.32 15.74l75.96 75.95Z"/></svg>