<svg xmlns="http://www.w3.org/2000/svg" height="24" viewBox="0 -960 960 960" width="24"><path d="m469.57-323.39 91-91 90.99 91L717.17-389l-91-91 91-91-65.61-65.61-90.99 91-91-91L403.96-571l91 91-91 91 65.61 65.61ZM366.78-140.78q-25.37 0-48.08-11.35-22.7-11.36-37.4-31.39L60.78-480 281.3-776.48q14.7-20.03 37.4-31.39 22.71-11.35 48.08-11.35h426.44q44.3 0 75.15 30.85 30.85 30.85 30.85 75.15v466.44q0 44.3-30.85 75.15-30.85 30.85-75.15 30.85H366.78ZM192.44-480l173.21 233.78h428.13v-467.56H365.65L192.44-480ZM580-480Z"/></svg>