<svg xmlns="http://www.w3.org/2000/svg" height="24" viewBox="0 -960 960 960" width="24"><path d="M286.22-60.78q-44.31 0-75.16-30.85-30.84-30.85-30.84-75.15v-386.44q0-44.3 30.84-75.15 30.85-30.85 75.16-30.85h387.56q44.31 0 75.16 30.85 30.84 30.85 30.84 75.15v386.44q0 44.3-30.84 75.15-30.85 30.85-75.16 30.85H286.22Zm0-106h387.56v-386.44H286.22v386.44Zm172.08-34.35h43.4q10.82 0 18.24-7.41 7.41-7.42 7.41-18.24 0-10.83-7.41-18.24-7.42-7.42-18.24-7.42h-43.4q-10.82 0-18.24 7.42-7.41 7.41-7.41 18.24 0 10.82 7.41 18.24 7.42 7.41 18.24 7.41Zm-8.13-85.65h59.09q7.17 0 12.91-5.13t7.31-12.39q3.56-11.74 10.61-22.38 7.04-10.65 13.3-21.71 10.31-17 18.46-35.22 8.15-18.21 8.15-37.82 0-39.31-29.57-66.11-29.56-26.81-70.43-26.81-40.87 0-70.43 26.81Q380-460.74 380-421.61q0 20.04 8.09 37.91 8.08 17.87 17.95 34.31 6.38 11.11 13.15 22.23 6.77 11.12 10.33 22.86 2.57 7.26 7.98 12.39 5.41 5.13 12.67 5.13ZM480-360ZM257.56-707.91q-15.44 0-25.55-10.07-10.1-10.06-10.1-25.45 0-15.4 10.1-25.59 10.11-10.2 25.55-10.2h444.88q15.44 0 25.55 10.07 10.1 10.06 10.1 25.45 0 15.4-10.1 25.59-10.11 10.2-25.55 10.2H257.56Zm41.14-120q-15.45 0-25.56-10.07-10.1-10.06-10.1-25.45 0-15.4 10.1-25.59 10.11-10.2 25.56-10.2h362.6q15.45 0 25.56 10.07 10.1 10.06 10.1 25.45 0 15.4-10.1 25.59-10.11 10.2-25.56 10.2H298.7Z"/></svg>