<svg xmlns="http://www.w3.org/2000/svg" height="24" viewBox="0 -960 960 960" width="24"><path d="M484-68.7q-86.35 0-161.91-32.89-75.55-32.9-131.58-88.92-56.02-56.03-88.92-131.58Q68.7-397.65 68.7-484q0-125.17 68.32-228.61 68.33-103.43 183.67-152.78 31.61-14.78 61.07 3.24t31.28 52.89q2.66 79.35 31.24 151.83 28.59 72.47 84.63 128.52 56.05 56.04 128.24 84.34 72.2 28.31 150.98 31.53 35.61 2.39 54.61 29.08 19 26.7 6.48 56.48-48.52 117.74-152.87 188.26T484-68.7Zm0-106q77.83 0 145.76-36.65Q697.69-248 740.13-313.7q-81.48-11.39-154.52-46.89-73.05-35.5-131.78-94.24-58.74-58.73-94.74-131.5-36-72.76-46.96-154.23-64.56 43-101 110.87Q174.7-561.83 174.7-484q0 129.35 89.97 219.33Q354.65-174.7 484-174.7Zm-30.17-280.13Z"/></svg>