<svg xmlns="http://www.w3.org/2000/svg" height="24" viewBox="0 -960 960 960" width="24"><path d="M387-182.48 217.43-98.26q-26.78 13.39-51.71-2.35-24.94-15.74-24.94-45.52v-463.35q0-44.3 30.85-75.15 30.85-30.85 75.15-30.85h280.44q44.3 0 75.15 30.85 30.85 30.85 30.85 75.15v463.35q0 29.78-24.94 45.52-24.93 15.74-51.72 2.35L387-182.48Zm-140.22-45.09 92.04-47.91q22.53-11.69 48.18-11.69t48.17 11.69l92.05 47.91v-381.91H246.78v381.91Zm519.44-2.26q-22.09 0-37.55-15.45-15.45-15.46-15.45-37.55v-510.39H316.61q-22.09 0-37.55-15.45-15.45-15.46-15.45-37.55 0-22.08 15.45-37.54 15.46-15.46 37.55-15.46h396.61q44.3 0 75.15 30.85 30.85 30.85 30.85 75.15v510.39q0 22.09-15.46 37.55-15.46 15.45-37.54 15.45ZM246.78-609.48h280.44-280.44Z"/></svg>