<svg xmlns="http://www.w3.org/2000/svg" height="24" viewBox="0 -960 960 960" width="24"><path d="M676.96-60.78q-15.26 0-25.46-10.2-10.2-10.19-10.2-25.45v-173.96q-9-8.57-14.5-19.63-5.5-11.07-5.5-23.2 0-23.82 16.42-39.74 16.41-15.91 39.24-15.91 23.26 0 39.45 15.91 16.2 15.92 16.2 39.74 0 12.13-4.78 23.42-4.79 11.28-15.22 19.41v173.96q0 15.26-10.2 25.45-10.19 10.2-25.45 10.2Zm0-347.78q-39.18 0-66.76 27.3-27.59 27.3-27.59 67.04 0 10.31 2.37 20.05t7.24 19.04q6.56 13.26 5.5 28.3-1.07 15.05-11.2 25.18-10.13 10.13-24.61 9.91-14.47-.22-22.04-11.91-14-20-21.28-43.28-7.29-23.29-7.29-47.29 0-69.26 48.7-117.45 48.7-48.2 116.96-48.2 69.26 0 117.45 48.2 48.2 48.19 48.2 117.45 0 23.57-6.78 46.29-6.79 22.71-20.22 42.71-7.57 12.26-22.11 12.76t-25.24-10.19q-10.69-9.7-11.69-24.74t5.56-28.31q4.31-9.3 6.74-19.04 2.43-9.74 2.43-19.48 0-39.74-27.3-67.04-27.3-27.3-67.04-27.3Zm0-99q-80.18 0-137.26 56.58-57.09 56.59-57.09 137.76 0 29.74 9.37 57.76 9.37 28.03 26.11 52.33 8.56 12.7 7.85 27.46-.72 14.76-11.42 25.45-10.13 10.13-24.67 9.42-14.55-.72-23.68-12.98-25.43-35-40.15-75.22-14.72-40.22-14.72-84.22 0-111.26 77.7-188.45 77.7-77.2 187.96-77.2 111.26 0 188.45 77.2 77.2 77.19 77.2 188.45 0 44-14.28 84.79-14.29 40.78-40.72 75.78-8.57 11.69-23.33 11.41-14.76-.28-24.89-10.41t-10.69-24.68q-.57-14.54 8-27.24 16.74-24.86 25.67-52.39 8.93-27.52 8.93-57.26 0-81.17-56.58-137.76-56.59-56.58-137.76-56.58ZM88.13-140.78q-28.96 0-49.85-20.89t-20.89-49.85v-350.39q0-29.52 20.89-50.42 20.89-20.89 49.85-20.89h199.43q29.53 0 50.42 20.89 20.89 20.9 20.89 50.42v350.39q0 28.96-20.89 49.85t-50.42 20.89H88.13Zm588.83-518.09q-69.79 0-130.87 25.74Q485-607.39 438.3-562.61v-.43q-.56-62.52-44.67-106.35-44.11-43.83-106.07-43.83H87.7q-6.7 0-13.46.79-6.76.78-13.46 2.34v-3.13q0-44.3 30.85-75.15 30.85-30.85 75.15-30.85h609.05q44.3 0 75.15 30.85 30.85 30.85 30.85 75.15v123.31q-45.39-33.48-96.96-51.22-51.56-17.74-107.91-17.74ZM188.13-426.78q15.26 0 25.46-10.41 10.19-10.42 10.19-25.24 0-15.26-10.19-25.46-10.2-10.2-25.46-10.2-14.83 0-25.24 10.2-10.41 10.2-10.41 25.46 0 14.82 10.41 25.24 10.41 10.41 25.24 10.41Z"/></svg>