<svg xmlns="http://www.w3.org/2000/svg" height="24" viewBox="0 -960 960 960" width="24"><path d="M287.87-396.61q-23.48 0-35.96-19.32-12.48-19.33-4.35-40.72l55.87-145.05H196.04l-42.43 64.87q-5.57 8.13-14.06 12.76-8.5 4.64-18.2 4.64h-8.5q-19.42 0-31.11-15.05-11.7-15.04-6.13-33.87l28.56-101.26-30.56-107.26q-4.57-16.26 5.65-29.3 10.23-13.05 27.06-13.05h18.04q8.42 0 15.48 4.11 7.06 4.11 11.77 11.15l44.43 67h107.39L244.56-889.7q-7.13-19.26 4.29-36.08 11.41-16.83 31.53-16.83h17.76q9.47 0 17.88 4.35 8.41 4.35 13.98 12.48l130.26 188.82h115.22q28.3 0 48.1 19.71 19.81 19.71 19.81 47.87 0 28.16-19.81 47.92-19.8 19.76-48.1 19.76H460.26L331.57-415.43q-6.14 9.13-16.11 13.97-9.98 4.85-20.55 4.85h-7.04ZM660.69-17.39q-9.43 0-17.84-4.35-8.42-4.35-13.98-12.48l-129.7-188.82H383.96q-28.07 0-47.71-19.81t-19.64-48.11q0-28.06 19.81-47.7 19.8-19.64 48.1-19.64h115.22L630-547.13q5.57-8.13 13.98-12.48t17.88-4.35h17.76q20.12 0 31.53 16.83 11.42 16.83 4.29 36.09L656.57-358.3h107.39l44.43-67q4.77-7.05 11.94-11.16 7.16-4.11 15.51-4.11h17.9q16.81 0 27.01 13.05 10.21 13.04 5.64 29.3l-30.56 107.26 30 107.83q4.56 16.26-5.49 29.3-10.05 13.05-26.6 13.05h-17.9q-8.35 0-15.51-4.11-7.17-4.11-11.94-11.15l-45-67H656L714.87-70.3q7.13 19.26-4.66 36.08-11.79 16.83-31.83 16.83h-17.69Z"/></svg>