<svg xmlns="http://www.w3.org/2000/svg" height="24" viewBox="0 -960 960 960" width="24"><path d="M397.74-562.48Zm-230.96 421.7q-44.3 0-75.15-30.85-30.85-30.85-30.85-75.15v-466.44q0-44.3 30.85-75.15 30.85-30.85 75.15-30.85h679.44q22.08 0 37.54 15.46t15.46 37.54q0 22.09-15.46 37.55-15.46 15.45-37.54 15.45H166.78v466.44h17.39q19.26 0 32.74 14.89T230.39-187q0 19.26-13.48 32.74t-32.74 13.48h-17.39Zm637.74-94.7v-303.04H652.44v303.04h152.08Zm-175.48 94.7q-28.95 0-50.13-21.18-21.17-21.17-21.17-50.13v-350.39q0-29.47 21.17-50.1 21.18-20.64 50.13-20.64h199.44q29.47 0 50.11 20.64 20.63 20.63 20.63 50.1v350.39q0 28.96-20.63 50.13-20.64 21.18-50.11 21.18H629.04Zm99.44-286.44q15.45 0 25.55-10.41 10.1-10.41 10.1-25.24 0-15.45-10.1-25.55-10.1-10.1-25.55-10.1-14.83 0-25.24 10.1-10.41 10.1-10.41 25.55 0 14.83 10.41 25.24 10.41 10.41 25.24 10.41ZM321.26-179.39l-9.74-34.78q-19.54-17.74-30.33-41.74-10.8-24-10.8-52.18 0-28.17 10.8-52.2 10.79-24.03 30.33-41.8l9.74-34.78q5.13-16.96 19.09-27.78 13.95-10.83 31.91-10.83h50.96q17.95 0 31.91 10.83 13.96 10.82 19.09 27.78l9.74 34.78q19.53 17.74 30.33 41.74 10.8 24 10.8 52.18 0 28.17-10.8 52.2t-30.33 41.8l-9.74 34.78q-5.13 16.96-19.09 27.78-13.96 10.83-31.91 10.83h-50.96q-17.96 0-31.91-10.83-13.96-10.82-19.09-27.78Zm76.73-76.09q22.92 0 37.66-15.35 14.74-15.36 14.74-37.3 0-21.94-15.82-37.29-15.82-15.36-36.91-15.36-21.09 0-36.83 14.92-15.74 14.91-15.74 37.73 0 22.82 14.99 37.73 14.98 14.92 37.91 14.92ZM728.48-387Z"/></svg>