<svg xmlns="http://www.w3.org/2000/svg" height="24" viewBox="0 -960 960 960" width="24"><path d="M804.44-32.26 695.91-140.78h-66.3q-32.91 0-56.35-23.44-23.43-23.43-23.43-56.35v-66.3l-80-80v32.74q0 20.39-13.48 33.87-13.48 13.48-33.87 13.48H205.65q-44.3 0-75.15-30.85-30.85-30.85-30.85-75.15v-320.44q0-5.39.57-10.5.56-5.11 1.69-10.5L31.13-805q-12.7-12.7-12.7-30.83t12.7-30.82q12.69-12.7 31.11-12.7 18.41 0 31.11 12.7L866.09-93.91q12.69 12.69 12.69 30.82 0 18.13-12.69 30.83-12.7 12.7-30.83 12.7t-30.82-12.7ZM481.57-605.44 267.78-819.22h486q44.31 0 75.16 30.85 30.84 30.85 30.84 75.15H630.11q-51.98 0-92.68 30-40.71 30-55.86 77.78Zm413.08 413.09L550.96-536.04v-28.7q3.95-28.96 25.97-48.72 22.03-19.76 52.68-19.76H820q33.48 0 56.35 23.16 22.87 23.15 22.87 56.63V-220q0 7.13-1.2 14.04-1.2 6.92-3.37 13.61ZM724.52-427.22q15.26 0 25.46-10.41 10.19-10.41 10.19-25.24 0-15.26-10.19-25.45-10.2-10.2-25.46-10.2-14.82 0-25.24 10.2-10.41 10.19-10.41 25.45 0 14.83 10.41 25.24 10.42 10.41 25.24 10.41ZM113.78-140.78q-22.08 0-37.54-15.46t-15.46-37.54q0-22.09 15.46-37.55 15.46-15.45 37.54-15.45h303.04q22.09 0 37.55 15.45 15.46 15.46 15.46 37.55 0 22.08-15.46 37.54t-37.55 15.46H113.78Z"/></svg>