<svg xmlns="http://www.w3.org/2000/svg" height="24" viewBox="0 -960 960 960" width="24"><path d="M166.78-140.78q-44.3 0-75.15-30.85-30.85-30.85-30.85-75.15v-466.44q0-44.3 30.85-75.15 30.85-30.85 75.15-30.85h626.44q44.3 0 75.15 30.85 30.85 30.85 30.85 75.15v18.52q-15.7-9.26-33.81-13.89-18.11-4.63-37.5-4.63H628.48q-61.96 0-105.78 43.55-43.83 43.54-44.96 105.5v8.69H311.7q-17.96 0-31.85 10.83-13.89 10.82-19.02 27.78l-20.87 74.35q-23 27.13-36.29 61.48-13.28 34.34-13.28 72.91 0 38.57 13.28 72.91 13.29 34.35 36.29 61.48l9.13 32.96h-82.31Zm462.26 0q-28.95 0-50.13-21.18-21.17-21.17-21.17-50.13v-350.39q0-29.52 21.17-50.13 21.18-20.61 50.13-20.61h199.44q29.52 0 50.13 20.61 20.61 20.61 20.61 50.13v350.39q0 28.96-20.61 50.13-20.61 21.18-50.13 21.18H629.04Zm-307.78-38.61-9.74-34.78q-19.56-17.57-30.35-41.7-10.78-24.13-10.78-52.26t10.78-52.26q10.79-24.13 30.35-41.7l9.74-34.78q5.13-16.96 19.09-27.78 13.95-10.83 31.91-10.83h50.96q17.95 0 31.91 10.83 13.96 10.82 19.09 27.78l9.74 34.78q19.56 17.57 30.34 41.7 10.79 24.13 10.79 52.26t-10.79 52.26q-10.78 24.13-30.34 41.7l-9.74 34.78q-5.13 16.96-19.09 27.78-13.96 10.83-31.91 10.83h-50.96q-17.96 0-31.91-10.83-13.96-10.82-19.09-27.78Zm76.48-76.09q23.17 0 37.91-15.24 14.74-15.24 14.74-37.41 0-22.17-15.74-37.41-15.74-15.24-36.91-15.24-21.17 0-36.91 15.02-15.74 15.02-15.74 37.63 0 22.61 15.02 37.63 15.02 15.02 37.63 15.02Zm330.74-171.74q15.26 0 25.46-10.41 10.19-10.41 10.19-25.24 0-15.26-10.19-25.45-10.2-10.2-25.46-10.2-14.83 0-25.24 10.2-10.41 10.19-10.41 25.45 0 14.83 10.41 25.24 10.41 10.41 25.24 10.41Z"/></svg>