<svg xmlns="http://www.w3.org/2000/svg" height="24" viewBox="0 -960 960 960" width="24"><path d="M286.78-126.22v-707.56V-126.22ZM480-704.74q18.92 0 31.72-12.8 12.8-12.8 12.8-31.72 0-18.92-12.8-31.72-12.8-12.8-31.72-12.8-18.92 0-31.72 12.8-12.8 12.8-12.8 31.72 0 18.92 12.8 31.72 12.8 12.8 31.72 12.8ZM287.35-20.78q-44.31 0-75.15-30.85-30.85-30.85-30.85-75.15v-706.44q0-44.3 30.85-75.15 30.84-30.85 75.15-30.85h385.3q44.31 0 75.15 30.85 30.85 30.85 30.85 75.15v174q0 22.29-15.45 37.36-15.46 15.08-37.69 15.08-22.22 0-37.26-15.46-15.03-15.46-15.03-37.54v-174H286.78v707.56h185.35q25.65 0 38.54 16.36 12.9 16.35 12.9 35.97 0 19.63-12.33 36.37t-39.11 16.74H287.35Zm344.43-40.18-13.87-57.47q-37.13-27.7-57.91-68.18-20.78-40.48-20.78-87.17 0-46.7 20.78-87.18 20.78-40.47 57.91-68.17l13.87-57.48q4.13-17.96 18.59-29.06 14.45-11.11 32.85-11.11h98q18.4 0 32.85 11.11 14.45 11.1 18.58 29.06l13.87 57.48q37.13 27.7 57.92 68.17 20.78 40.48 20.78 87.18 0 46.69-20.78 87.17-20.79 40.48-57.92 68.18l-13.87 57.47Q828.52-43 814.07-31.89t-32.85 11.11h-98q-18.4 0-32.85-11.11Q635.91-43 631.78-60.96Zm100.44-120.17q38.61 0 65.63-27.02 27.02-27.02 27.02-65.63t-27.02-65.63q-27.02-27.02-65.63-27.02t-65.63 27.02q-27.02 27.02-27.02 65.63t27.02 65.63q27.02 27.02 65.63 27.02Z"/></svg>