<svg xmlns="http://www.w3.org/2000/svg" height="24" viewBox="0 -960 960 960" width="24"><path d="M220.78-94v-50.17l60-40q-59.56-7.92-99.78-56.33t-40.22-111.37v-371.52q0-92.61 82.09-135.92 82.09-43.3 257.13-43.3 181.04 0 260.13 41.8 79.09 41.81 79.09 137.42v371.52q0 62.96-40.22 111.37-40.22 48.41-99.78 56.33l60 40V-94H220.78Zm26-462.61h466.44v-120H246.78v120Zm397.39 80H246.78h466.44-69.05ZM480-320q25 0 42.5-17.5T540-380q0-25-17.5-42.5T480-440q-25 0-42.5 17.5T420-380q0 25 17.5 42.5T480-320Zm-164.17 36.61h328.34q29.39 0 49.22-19.55 19.83-19.54 19.83-48.93v-124.74H246.78v124.74q0 29.39 19.83 48.93 19.83 19.55 49.22 19.55ZM480-796.61q-86 0-142.5 10t-79.5 30h441.22q-18.57-20.56-71.96-30.28-53.39-9.72-147.26-9.72Zm0 40H699.22 258h222Z"/></svg>