<svg xmlns="http://www.w3.org/2000/svg" height="24" viewBox="0 -960 960 960" width="24"><path d="M140.78-351.87v-371.52q0-92.61 82.09-135.92 82.09-43.3 257.13-43.3 181.04 0 260.13 41.8 79.09 41.81 79.09 137.42v371.52q0 62.96-40.22 111.37-40.22 48.41-99.78 56.33l62.17 41.3q16.52 10.83 10.83 29.85Q746.52-94 727-94H233q-19.52 0-25.22-19.02-5.69-19.02 10.83-29.85l62.17-41.3q-59.56-7.92-99.78-56.33t-40.22-111.37Zm106-204.74h466.44v-120H246.78v120ZM480-320q25 0 42.5-17.5T540-380q0-25-17.5-42.5T480-440q-25 0-42.5 17.5T420-380q0 25 17.5 42.5T480-320Z"/></svg>