<svg xmlns="http://www.w3.org/2000/svg" height="24" viewBox="0 -960 960 960" width="24"><path d="M480-61.22q-38.83 0-75-8.56-36.17-8.57-73.35-27-49.26 22.39-91.48 28.54-42.21 6.15-89.78 7.02-20.96.44-35.28-14.17-14.33-14.61-14.33-35.57 0-20.95 14.33-35.56 14.32-14.61 35.28-15.05 23.44-.43 44.22-1.86 20.78-1.44 41.06-5.66 20.29-4.21 40.72-11.5 20.44-7.28 42.74-18.98 6.13-3.69 12.83-3.69 6.69 0 12.82 3.69 30.74 17.57 62.76 27.44 32.03 9.87 72.46 9.87 40.43 0 72.17-9.87 31.74-9.87 62.48-27.44 6.13-3.69 12.83-3.69 6.69 0 12.82 3.69 22.31 11.7 43.03 18.98 20.71 7.29 40.71 11.5 20 4.22 41.29 5.66 21.28 1.43 43.71 1.86 20.96.44 35.57 15.05 14.61 14.61 14.61 35.56 0 20.96-14.61 35.57t-35.57 14.17q-47.56-.87-89.5-7.02-41.93-6.15-90.76-28.54-37.17 18.43-73.56 27-36.39 8.56-75.22 8.56Zm0-169.74q-50.96 0-93.98-25.86-43.02-25.87-57.72-40.57-22.95 20.83-50.95 35.04-28 14.22-60.61 21.83-24.65 5.74-45.7-9.07-21.04-14.8-27.61-39.89L89.26-486.65q-5.57-20.96 4.98-39.2 10.54-18.24 31.5-24.93l48.82-13.74v-148.7q0-44.3 30.85-75.15 30.85-30.85 75.16-30.85h69.47v-27q0-22.08 15.46-37.54t37.54-15.46h153.92q22.08 0 37.54 15.46t15.46 37.54v27h69.47q44.31 0 75.16 30.85 30.85 30.85 30.85 75.15v148.7l48.82 13.74q20.96 6.69 31.5 24.93 10.55 18.24 4.98 39.2l-54.17 197.17q-6.57 25.09-27.61 39.33-21.05 14.24-45.7 9.63-33.04-7.61-61.04-21.83-28-14.21-50.52-35.04-14.7 14.7-57.72 40.57-43.02 25.86-93.98 25.86ZM274.91-718.87v125.44l175.48-50.83q14.52-4.7 29.61-4.7t29.61 4.13L685.09-594v-124.87H274.91ZM480-548.17l-281.96 80.35 32.44 116.78q18.95-8.05 36.13-18Q283.78-379 299.48-393q13.13-11.87 30.35-11.37 17.21.5 29.34 12.81 26.4 25.86 54.83 43.06 28.43 17.2 66.87 17.2 38 0 66-17.42 28-17.41 54.39-42.84 12.13-12.31 29.35-12.81T660.96-393q15.69 14 32.87 23.96 17.17 9.95 36.13 18l32.43-116.78L480-548.17Zm.43 108.21Z"/></svg>