<svg xmlns="http://www.w3.org/2000/svg" height="24" viewBox="0 -960 960 960" width="24"><path d="M195.02-60.78q-80.85 0-137.93-56.98Q0-174.74 0-255.59q0-80.84 56.98-137.93t137.83-57.09q80.84 0 137.93 56.98t57.09 137.83q0 80.84-56.99 137.93-56.98 57.09-137.82 57.09Zm-.21-100.35q39.36 0 67.01-27.55 27.66-27.55 27.66-66.91t-27.56-67.02q-27.55-27.65-66.91-27.65T128-322.71q-27.65 27.56-27.65 66.92t27.55 67.01q27.55 27.65 66.91 27.65Zm235.02-6.65v-205.09L305.78-482.61q-13.69-12.13-20.82-28.45-7.13-16.32-7.13-34.33 0-18.01 7.06-34.33 7.07-16.32 19.76-29.02l117.62-117.61q12.6-12.61 29.01-19.74 16.41-7.13 34.42-7.13 18.69 0 36.45 6.57 17.76 6.56 30.89 19.69l78.83 78.83q26.87 26.87 60.87 42.02 34 15.15 71.78 15.15v100.35q-58.13 0-110.48-22.28-52.34-22.28-93.47-63.41l-28.05-28.05-86.95 86.96 84.6 87.48v262.13H429.83Zm200.91-568.83q-35.83 0-60.74-24.91-24.91-24.91-24.91-60.74T570-883q24.91-24.91 60.74-24.91T691.48-883q24.91 24.91 24.91 60.74t-24.91 60.74q-24.91 24.91-60.74 24.91ZM765.19-60.78q-80.84 0-137.93-56.98t-57.09-137.83q0-80.84 56.99-137.93 56.98-57.09 137.82-57.09 80.85 0 137.93 56.98Q960-336.65 960-255.8q0 80.84-56.98 137.93T765.19-60.78Zm-.2-100.35q39.36 0 67.01-27.55 27.65-27.55 27.65-66.91t-27.55-67.02q-27.55-27.65-66.91-27.65t-67.01 27.55q-27.66 27.56-27.66 66.92t27.56 67.01q27.55 27.65 66.91 27.65Z"/></svg>