<svg xmlns="http://www.w3.org/2000/svg" height="24" viewBox="0 -960 960 960" width="24"><path d="M479.99-41q-138.21 0-225.56-43.91-87.35-43.92-87.35-113.39 0-32.48 21.57-60.61 21.56-28.13 60.57-49.35l78.26 80.48q-13.53 4.56-28.83 11.54-15.3 6.98-25.26 16.81 17.12 20.97 79.02 36.7Q414.3-147 480.68-147q66.37 0 128.19-15.73 61.82-15.73 78.74-36.7-10.96-10.83-27.04-17.81-16.09-6.98-30.05-11.54l77.83-81.48q41 21.65 62.78 50.35 21.79 28.69 21.79 61.49 0 69.53-87.36 113.47Q618.2-41 479.99-41Zm2.14-271.44q95.04-69.04 143.35-140.28 48.3-71.24 48.3-144.11 0-97.24-62.79-146.81-62.8-49.58-130.42-49.58-68.31 0-131.05 49.58-62.74 49.57-62.74 146.81 0 64.18 47.31 134.13 47.3 69.96 148.04 150.26Zm-1.56 131.66Q329.89-290.6 255.62-394.08q-74.27-103.49-74.27-202.75 0-74.39 27.24-131.12 27.25-56.74 69.99-94.91 42.74-38.18 96.17-57.27 53.42-19.09 105.71-19.09 52.28 0 105.63 19.09 53.35 19.09 96.03 57.27 42.68 38.17 69.89 94.91 27.21 56.73 27.21 131.12 0 99.26-74.13 202.75-74.13 103.48-224.52 213.3Zm-.22-336.96q35.48 0 60.67-24.99 25.2-25 25.2-60.1 0-35.82-25.16-60.74-25.16-24.91-60.49-24.91-35.57 0-60.9 24.91-25.32 24.92-25.32 60.46t25.26 60.46q25.26 24.91 60.74 24.91Zm.22-85.09Z"/></svg>