<svg xmlns="http://www.w3.org/2000/svg" height="24" viewBox="0 -960 960 960" width="24"><path d="M480.4-41q-138.38 0-225.85-43.91-87.47-43.92-87.47-113.39 0-28.05 11.89-50.27 11.9-22.21 40.77-41.3 19.08-11.13 40.11-6.02 21.02 5.11 32.15 24.19 11.13 19.09 5.8 40.11-5.32 21.02-24.41 32.16 17.05 20.97 78.7 36.7Q413.74-147 480-147q66.26 0 128.16-15.73 61.9-15.73 79.02-36.7-19.09-11.14-24.42-32.16-5.32-21.02 5.81-40.11 11.13-19.08 32.15-24.19 21.02-5.11 40.11 6.02 28.87 19.09 40.76 41.3 11.89 22.22 11.89 50.27 0 69.47-87.35 113.39Q618.78-41 480.4-41Zm.17-164.43q-15.96 0-31.35-5.13-15.39-5.14-28.22-15.4-121.39-96.82-180.52-189.38-59.13-92.55-59.13-181.49 0-74.39 27.24-131.12 27.25-56.74 69.99-94.91 42.74-38.18 96.17-57.27 53.42-19.09 105.71-19.09 52.28 0 105.63 19.09 53.35 19.09 96.03 57.27 42.68 38.17 69.89 94.91 27.21 56.73 27.21 131.12 0 88.57-59.41 180.74-59.42 92.18-179.68 189.57-12.83 10.54-28.22 15.81-15.39 5.28-31.34 5.28Zm-.22-312.31q35.48 0 60.67-24.99 25.2-25 25.2-60.1 0-35.82-25.16-60.74-25.16-24.91-60.49-24.91-35.57 0-60.9 24.91-25.32 24.92-25.32 60.46t25.26 60.46q25.26 24.91 60.74 24.91Z"/></svg>