<svg xmlns="http://www.w3.org/2000/svg" height="24" viewBox="0 -960 960 960" width="24"><path d="M140.78-554.26q0-152.26 96.22-245.22 96.22-92.96 224.91-99.17h4.35q22.09-1.13 37.83 15.17 15.74 16.31 15.74 38.39 0 22.09-15.74 37.55-15.74 15.45-37.83 15.45h-4.35q-91.95 6.22-153.54 71.76-61.59 65.55-61.59 166.07 0 76.65 57.59 160.8Q361.96-309.3 480-201.26q111.83-101.83 168.85-182.59 57.02-80.76 63.24-152.32 1.13-22.09 17.15-36.7 16.02-14.61 38.11-13.48 22.09 1.13 36.69 17.15 14.61 16.03 13.48 38.11V-530.52q-7.35 99.09-78.17 202.63-70.83 103.54-198.44 214.46-12.69 11.13-28.67 16.69-15.98 5.57-32.24 5.57t-32.24-5.57q-15.98-5.56-28.67-16.69-68.39-61.7-120.66-119.27-52.26-57.56-87.17-112.19-34.91-54.63-52.7-106.67-17.78-52.05-17.78-102.7Zm339.22 0Zm61.09 23.39 209.56-209.56q7.7-7.7 7.7-18.53 0-10.82-7.7-18.52l-53.17-53.17q-7.7-7.7-18.52-7.7-10.83 0-18.53 7.7L450.87-621.09q-7.7 7.7-11.54 17.18-3.85 9.48-3.85 20.3v28.52q0 16.96 11.32 28.29 11.33 11.32 28.29 11.32h28.52q10.82 0 20.3-3.85 9.48-3.84 17.18-11.54Zm243.78-280.26q7.7 7.7 18.52 7.7 10.83 0 18.52-7.7L834.78-824q12.7-12.7 12.7-31.39 0-18.7-12.7-31.39l-28-28q-12.69-12.7-30.82-13.26-18.13-.57-30.83 12.13l-14 14q-7.7 7.69-7.7 18.52 0 10.82 7.7 18.52l53.74 53.74Z"/></svg>