<svg xmlns="http://www.w3.org/2000/svg" height="24" viewBox="0 -960 960 960" width="24"><path d="M480-60.78q-87.52 0-163.91-32.91-76.39-32.92-132.94-89.46-56.54-56.55-89.46-132.94Q60.78-392.48 60.78-480q0-63.39 17.85-122t52.11-110.44l-68.65-69.21q-13.13-13.13-13.13-31.05 0-17.91 13.13-31.04 13.13-13.13 31.32-13.13 18.2 0 31.33 13.13l719.57 719q13.13 13.13 12.84 31.11-.28 17.98-13.41 31.11-13.13 13.13-31.04 13.13-17.92 0-31.05-13.13l-69.21-68.22Q660.61-96.48 602-78.63T480-60.78ZM346.87-314.52l99.69-25.39q14.96-3.57 19.44-18.46t-6.91-26.28l-74.44-74.44q-11.39-11.39-26.28-6.91t-18.46 19.44l-25.39 99.69q-3.56 14.39 7.2 25.15 10.76 10.76 25.15 7.2Zm471.96 12.35q-12.26 0-24.37-4.63-12.11-4.64-22.37-14.9L633.3-460.48q-9.69-9.69-13.6-22.8-3.92-13.11-.35-26.94l26.13-102.91q3.56-14.39-7.2-25.15-10.76-10.76-25.15-7.2l-102.91 26.13q-13.83 3.57-26.94-.35-13.11-3.91-22.8-13.6L321.7-772.09q-9.7-9.69-14.33-21.58-4.63-11.9-4.63-24.16 0-17.95 9.54-33.41 9.55-15.46 27.63-23.02 33.48-12.48 68.61-18.72 35.13-6.24 71.48-6.24 86.96 0 163.35 32.91 76.39 32.92 133.22 89.74 56.82 56.83 89.74 133.22 32.91 76.39 32.91 163.35 0 36.35-6.24 71.48t-18.72 68.61q-6.56 19.08-21.74 28.41-15.17 9.33-33.69 9.33Z"/></svg>