<svg xmlns="http://www.w3.org/2000/svg" height="24" viewBox="0 -960 960 960" width="24"><path d="M260.91-295.69v-120h437.87v120H260.91ZM479.13-734q17 0 28.5-11.5t11.5-28.5q0-16.44-11.5-28.22-11.5-11.78-28.5-11.78t-28.5 11.5q-11.5 11.5-11.5 28.5t11.5 28.5q11.5 11.5 28.5 11.5ZM264.48-495.69q11-55.66 47.74-98.4 36.74-42.74 89.39-62.43-14.96-10.13-27.07-23.18-12.11-13.04-20.93-30L210.48-738q-10.96-1.57-17.22-9.67-6.26-8.11-6.26-19.5v-12.09q0-11.39 6.26-19.5t17.22-10.11l143.13-27.87q17.82-34.96 51.06-56.28 33.24-21.33 74.46-21.33 26.26 0 49.59 9.07 23.32 9.06 41.58 24.76l98.87-19.74q24.66-4.13 44.24 11.54Q733-873.04 733-847.83v148.66q0 25.21-19.59 41.17-19.58 15.96-44.24 10.83l-98.87-19.31q-3.69 3.13-6.89 5.26-3.19 2.13-6.89 4.7 52.65 19.13 89.39 62.15 36.74 43.02 48.31 99.24l-429.74-.56ZM366.91-60.78q-44.3 0-75.15-30.85-30.85-30.85-30.85-75.15v-48.91h437.87v48.91q0 44.3-30.84 75.15-30.85 30.85-75.16 30.85H366.91Z"/></svg>