<svg xmlns="http://www.w3.org/2000/svg" height="24" viewBox="0 -960 960 960" width="24"><path d="M310.96-166.78V-515L71.56-761.17Q59.43-773.87 59.72-792q.28-18.13 12.98-30.83 12.69-12.69 31.1-12.69 18.42 0 31.11 12.69l696.39 696.4Q844-113.74 844-95.61q0 18.13-12.7 30.83-12.69 12.69-31.1 12.98-18.42.28-31.11-12.42L668.83-164.48v20.87q0 34.13-24.35 58.48Q620.13-60.78 586-60.78H416.96q-44.31 0-75.16-30.85-30.84-30.85-30.84-75.15ZM327-753.22l-84.96-85.52q12.53-26.96 37.9-43.43 25.36-16.48 57.02-16.48h305.87q44.3 0 75.15 30.85 30.85 30.84 30.85 75.15v39.43H327Zm341.83 341.83L407-673.22h341.83v14.31q0 15.95-4.13 30.63-4.13 14.67-13.39 28.06L668.83-507v95.61Z"/></svg>