<svg xmlns="http://www.w3.org/2000/svg" height="24" viewBox="0 -960 960 960" width="24"><path d="M386.43-391.04 142.48-294q-29.65 12.26-55.68-5.63-26.02-17.89-26.02-49.54v-26.53q0-14.82 6.63-27.8t18.89-21.67l300.13-209v-171.48q0-38.65 27.46-66.11T480-899.22q38.65 0 66.11 27.46t27.46 66.11v171.48l300.13 209q12.26 8.69 18.89 21.67 6.63 12.98 6.63 27.8v26.53q0 31.65-26.02 49.54-26.03 17.89-55.68 5.63l-243.95-97.04v121.39l100.17 69.17q10.26 7.13 16.17 18.46 5.92 11.32 5.92 23.59v29.08q0 25.09-20.46 40.42-20.46 15.32-45.54 8.19L480-125.3 330.17-80.74q-25.08 7.13-45.54-8.19-20.46-15.33-20.46-40.42v-29.08q0-12.27 5.92-23.59 5.91-11.33 16.17-18.46l100.17-69.17v-121.39Z"/></svg>