<svg xmlns="http://www.w3.org/2000/svg" height="24" viewBox="0 -960 960 960" width="24"><path d="M206.78-100.78q-44.3 0-75.15-30.85-30.85-30.85-30.85-75.15v-546.44q0-44.3 30.85-75.15 30.85-30.85 75.15-30.85h148.74q26.78 0 40.61 23.22 13.83 23.22 2.44 49.43-7.57 21-11.07 42.79Q384-722 384-700q0 109 75.5 184.5T642-440q21 0 40.5-3t38.5-9l107.3 107.3q14.96 14.96 22.94 34.27 7.98 19.3 7.98 40.39v63.26q0 44.3-30.85 75.15-30.85 30.85-75.15 30.85H206.78ZM834-452l-96-96q-21 14-45 21t-51 7q-74 0-126-52.5T464-700q0-75 52.5-127.5T644-880q75 0 127.5 52.5T824-700q0 27-8 52t-20 46l94 94q11 11 11 28t-11 28q-11 11-28 11t-28-11ZM644-600q42 0 71-29t29-71q0-42-29-71t-71-29q-42 0-71 29t-29 71q0 42 29 71t71 29ZM450-338.09l-57.52-76.69q-11.83-16.52-32.2-16.24-20.37.28-32.19 16.8l-66.92 92.05q-9.69 13.39-2.56 27.78Q265.74-280 282.26-280h395.48q16.52 0 23.65-14.39 7.13-14.39-2.56-27.78L610.57-442.3q-17.79-2-35.22-6.42-17.44-4.41-33.52-11.8L450-338.09Z"/></svg>