<svg xmlns="http://www.w3.org/2000/svg" height="24" viewBox="0 -960 960 960" width="24"><path d="M300.78-819.22q-17 0-28.5-11.5t-11.5-28.5q0-17 11.5-28.5t28.5-11.5h209.35q20 0 29.5 12.5t9.5 27.5q0 15-10 27.5t-30 12.5H300.78Zm-120 160q-17 0-28.5-11.5t-11.5-28.5q0-17 11.5-28.5t28.5-11.5h169.35q20 0 29.5 12.5t9.5 27.5q0 15-10 27.5t-30 12.5H180.78Zm-120 160q-17 0-28.5-11.5t-11.5-28.5q0-17 11.5-28.5t28.5-11.5h129.35q20 0 29.5 12.5t9.5 27.5q0 15-10 27.5t-30 12.5H60.78Zm491.57 118.44L451.17-481.96 276.61-307.39l101.17 101.17 174.57-174.56Zm-25.52-176.83L628-456.43l204.65-204.09-101.17-101.74-204.65 204.65Zm-112.27-37.04 251.05 250.48L452.44-131q-30.79 30.78-74.38 30.78-43.58 0-74.37-30.78l-.87-.87L286-115.61q-7.7 7.13-17.41 11.26t-20.07 4.13H134.43q-17.95 0-24.65-16.24-6.69-16.24 6.13-29.06l86.91-86.35-1.43-1.43q-31.35-31.35-31.35-74.09t31.35-74.09l213.17-213.17Zm0 0 242.26-242.26q32.02-31.92 74.71-31.92 42.69 0 74.6 31.92L907.3-735.18q31.92 32.02 31.92 74.71 0 42.69-31.92 74.6l-241.69 241.7-251.05-250.48Z"/></svg>