<svg xmlns="http://www.w3.org/2000/svg" height="24" viewBox="0 -960 960 960" width="24"><path d="M153.78-313.22q-22.08 0-37.54-15.45-15.46-15.46-15.46-37.55v-31.39q0-10.91 3.85-20.43t11.54-17.14l64.61-64.46v-265.45q-17-4.52-28.5-17.71-11.5-13.2-11.5-35.29t15.46-37.54q15.46-15.46 37.54-15.46h147.78q28.66 0 42.05 26.09 13.39 26.09-2.31 52.3-14.04 28.42-21.06 59.06t-7.02 62.55q0 96.48 59.74 172T565-401.04q17.22 2.43 28.39 15.67 11.18 13.24 11.18 30.46 0 17.21-11.24 29.45-11.24 12.24-27.89 12.24H413v229.48q0 22.09-15.46 37.54Q382.09-30.74 360-30.74T322.46-46.2Q307-61.65 307-83.74v-229.48H153.78Zm479.44-557.87q83 0 141.5 58.5t58.5 141.5q0 83-58.5 141.5t-141.5 58.5q-83 0-141.5-58.5t-58.5-141.5q0-83 58.5-141.5t141.5-58.5Zm0 200q25 0 42.5-17.5t17.5-42.5q0-25-17.5-42.5t-42.5-17.5q-25 0-42.5 17.5t-17.5 42.5q0 25 17.5 42.5t42.5 17.5Zm-.06 120q23.36 0 44.17-8.37 20.8-8.37 37.8-24.11 7.26-7.13 5.48-17.45-1.78-10.33-12.05-14.89-17.86-7.87-36.83-11.53-18.96-3.65-38.39-3.65t-38.3 3.65q-18.87 3.66-37.17 11.53-10.06 3.98-11.94 14.59-1.89 10.62 5.37 17.75 16.44 15.74 37.47 24.11 21.02 8.37 44.39 8.37Z"/></svg>