<svg xmlns="http://www.w3.org/2000/svg" height="24" viewBox="0 -960 960 960" width="24"><path d="m779.61-320.39-75.09-75.09L767.56-480 594.35-713.78H386.22L280.78-819.22h312.44q25.37 0 48.08 11.35 22.7 11.36 37.4 31.39l173.21 233.22Q873-514.91 873-480t-21.09 63.26l-72.3 96.35Zm-613.39 74.17h437.82L166.22-683.48v437.26Zm.56 105.44q-44.3 0-75.15-30.85-30.85-30.85-30.85-75.15v-466.44q0-16.08 4.76-30.67Q70.3-758.48 78.7-771l-47.01-47Q19-830.7 19-848.83t12.69-30.82q12.7-12.7 31.11-12.7 18.42 0 31.11 12.7l771.05 771.04q12.69 12.7 12.91 30.61.22 17.91-12.91 31.04-12.7 12.7-30.83 12.7t-30.83-12.7l-129.86-129.3q-12.83 16.96-31.35 26.22-18.52 9.26-40.05 9.26H166.78Zm218.35-324.35Zm192.04-89.22Z"/></svg>