<svg xmlns="http://www.w3.org/2000/svg" height="24" viewBox="0 -960 960 960" width="24"><path d="m508.61-585.61 35.83 35.83q6.3 6.3 13.76 1.93 7.45-4.37 7.45-14.41-.56-17-6.86-32.12-6.29-15.11-17.83-26.58-11-11.43-25.72-17.5-14.72-6.06-30.72-7.19-10.17-.57-14.11 8.67-3.93 9.24 2.37 15.54l35.83 35.83ZM480-899.22q134.63 0 236.92 93.6 102.3 93.6 102.3 251.36 0 33.17-7.96 67.22-7.95 34.04-23.3 69.39-8.57 20.08-29.37 26.35-20.81 6.26-39.89-4.29-19.09-10.54-25.57-31.56-6.48-21.03 1.52-42.24 9.35-22.52 13.96-43.24 4.61-20.72 4.61-41.63 0-105.03-67.54-171.99-67.53-66.97-165.68-66.97-23.52 0-46.39 4.39-22.87 4.4-43.22 13.74-21.21 8-42.8 3.68-21.59-4.33-34.29-22.42-12.69-18.08-7.65-39.11 5.05-21.02 24.13-30.15 34.61-17.35 72.71-26.74 38.1-9.39 77.51-9.39Zm82.52 617.57L249.65-594.52q-1.43 9.47-2.15 19.73-.72 10.27-.72 20.53 0 76.65 57.59 160.8Q361.96-309.3 480-201.26q23.17-20.74 43.7-40.98 20.52-20.24 38.82-39.41ZM479.87-91.17q-16.13 0-32.16-5.57-16.03-5.56-28.62-16.69-68.39-61.7-120.66-119.27-52.26-57.56-87.17-112.19-34.91-54.63-52.7-106.67-17.78-52.05-17.78-102.7 0-34.81 5.85-66.36 5.85-31.55 16.54-60.38L55-789.17q-13.13-13.21-13.13-31.37t13.19-31.29q13.19-13.13 31.33-13.13 18.13 0 31.26 13.13l742.22 742.22Q873-96.38 872.5-78.73q-.5 17.64-13.69 30.77-13.19 13.13-31.33 13.13-18.13 0-31.26-13.13L637.74-206.43q-18.13 19.13-39.98 40.13-21.85 21-56.85 52.87-12.67 11.13-28.79 16.69-16.13 5.57-32.25 5.57Zm-73.57-346.7Zm102.31-147.74Z"/></svg>