<svg xmlns="http://www.w3.org/2000/svg" height="24" viewBox="0 -960 960 960" width="24"><path d="M480-91.17q-16.26 0-32.24-5.57-15.98-5.56-28.67-16.69-68.39-61.7-120.66-119.27-52.26-57.56-87.17-112.19-34.91-54.63-52.7-106.67-17.78-52.05-17.78-102.7 0-34.83 5.57-66.65 5.56-31.83 16.26-60.66L55-789.17Q41.87-802.3 41.87-820.5q0-18.2 13.13-31.33 13.13-13.13 31.33-13.13 18.19 0 31.32 13.13l742.22 742.22Q873-96.48 872.72-78.56q-.28 17.91-13.42 31.04-13.13 13.13-31.32 13.13-18.2 0-31.33-13.13L637.74-206.43q-26.13 27.13-52.83 52.91-26.69 25.78-44 40.09-12.69 11.13-28.67 16.69-15.98 5.57-32.24 5.57Zm0-808.05q134.35 0 236.78 93.52 102.44 93.53 102.44 251.44 0 32.17-7.46 65.43-7.45 33.26-22.37 67.61-12.13 29.92-44.54 34.68-32.41 4.76-56.2-19.03L560.61-533.61q2.74-6.3 3.89-12.76t1.15-13.63q0-18.13-6.56-33.76-6.57-15.63-18.13-27.2-11.57-11.56-27.2-18.13-15.63-6.56-33.76-6.56-7.17 0-13.63 1.15-6.46 1.15-12.76 3.89L328-766.22q-23.65-23.65-19.46-56.06 4.2-32.42 33.11-47.11 31.61-14.92 66.81-22.37 35.19-7.46 71.54-7.46Z"/></svg>