<svg xmlns="http://www.w3.org/2000/svg" height="24" viewBox="0 -960 960 960" width="24"><path d="M899.22-480q0 86.96-32.91 163.35-32.92 76.39-89.74 133.22-56.83 56.82-133.22 89.74Q566.96-60.78 480-60.78q-75.87 0-144.87-25.81-69-25.8-123.7-71.76-54.69-45.95-92.02-109.13-37.32-63.17-50.98-137.47-4.82-24.79 8.66-40.16 13.47-15.37 32.43-19.19 19.52-3.83 37.76 5.45 18.24 9.29 23.63 35.24 22.92 111.96 109.18 184.89 86.26 72.94 199.91 72.94 131.17 0 222.2-91.02 91.02-91.03 91.02-222.2T702.2-701.2q-91.03-91.02-222.2-91.02-81.09 0-148.78 37.29-67.7 37.28-109.7 100.23h56.78q22.09 0 37.27 15.46 15.17 15.46 15.17 37.54 0 22.09-15.17 37.27-15.18 15.17-37.27 15.17H113.78q-22.08 0-37.54-15.46-15.46-15.45-15.46-37.54v-164.52q0-22.09 16.31-37.26 16.3-15.18 44.04-15.18 18.7 0 31.89 13.2 13.2 13.19 13.2 31.89v17.39q57.82-65.65 138.56-104.07 80.74-38.41 175.22-38.41 86.96 0 163.35 32.91 76.39 32.92 133.22 89.74 56.82 56.83 89.74 133.22 32.91 76.39 32.91 163.35ZM400-320q-17 0-28.5-11.5T360-360v-120q0-17 11.5-28.5T400-520v-40q0-33 23.5-56.5T480-640q33 0 56.5 23.5T560-560v40q17 0 28.5 11.5T600-480v120q0 17-11.5 28.5T560-320H400Zm40-200h80v-40q0-17-11.5-28.5T480-600q-17 0-28.5 11.5T440-560v40Z"/></svg>