<svg xmlns="http://www.w3.org/2000/svg" height="24" viewBox="0 -960 960 960" width="24"><path d="M480-60.78q-85.26 0-160.8-32.07-75.55-32.06-132.09-87.19-56.55-55.13-90.31-129.55Q63.04-384 60.78-469.26h106.57q1.69 63.17 26.98 118.56 25.28 55.4 67.37 96.35 42.08 40.96 98.32 64.76 56.24 23.81 119.98 23.81 131.17 0 222.2-91.02 91.02-91.03 91.02-222.2T702.2-701.2q-91.03-91.02-222.2-91.02-81.09 0-148.78 37.29-67.7 37.28-109.7 100.23h109.22v105.44H60.78v-269.96h105.44v62.48q57.82-65.65 138.56-104.07 80.74-38.41 175.22-38.41 86.96 0 163.35 32.91 76.39 32.92 133.22 89.74 56.82 56.83 89.74 133.22 32.91 76.39 32.91 163.35t-32.91 163.35q-32.92 76.39-89.74 133.22-56.83 56.82-133.22 89.74Q566.96-60.78 480-60.78ZM400-320q-17 0-28.5-11.5T360-360v-120q0-17 11.5-28.5T400-520v-40q0-33 23.5-56.5T480-640q33 0 56.5 23.5T560-560v40q17 0 28.5 11.5T600-480v120q0 17-11.5 28.5T560-320H400Zm40-200h80v-40q0-17-11.5-28.5T480-600q-17 0-28.5 11.5T440-560v40Z"/></svg>