<svg xmlns="http://www.w3.org/2000/svg" height="24" viewBox="0 -960 960 960" width="24"><path d="M806.7-10.78 42.43-774.48q-12.69-12.69-12.69-30.82 0-18.13 12.69-30.83 12.7-12.7 31.11-12.7 18.42 0 31.11 12.7l763.7 763.7q12.69 12.69 12.69 30.82 0 18.13-12.69 30.83-12.7 12.7-30.83 12.7t-30.82-12.7ZM299.78-937.52h371.74q44.31 0 75.15 30.85 30.85 30.84 30.85 75.15v107.61q18.57 9.26 29.57 26.52 11 17.26 11 37.96v77.17q0 20.69-11 38.24-11 17.54-29.57 26.8v113.18q0 26.5-16.56 39.75t-36.44 13.25q-20.09 0-36.82-13.33-16.74-13.33-16.74-40.11v-427.04H193.78q0-43.73 30.85-74.86 30.85-31.14 75.15-31.14ZM480-704.74q18.92 0 31.72-12.8 12.8-12.8 12.8-31.72 0-18.92-12.8-31.72-12.8-12.8-31.72-12.8-18.92 0-31.72 12.8-12.8 12.8-12.8 31.72 0 18.92 12.8 31.72 12.8 12.8 31.72 12.8ZM288.48-22.48q-44.31 0-75.15-30.85-30.85-30.84-30.85-75.15v-630.39l106 106v524.39h382.76-.28v-141.35l106.56 106.57v34.78q0 42.05-30.56 74.02-30.57 31.98-74.31 31.98H288.48Zm143-367.91Zm117.74-106.87Z"/></svg>