<svg xmlns="http://www.w3.org/2000/svg" height="24" viewBox="0 -960 960 960" width="24"><path d="M140.78-568.87q0-142.09 101.02-235.93 101.03-93.85 239.33-93.85 134.35 0 234.24 90.13 99.89 90.13 103.28 232.78l56-55.44q12.7-12.69 31.39-12.41 18.7.28 31.4 12.98 12.69 12.7 12.69 31.39 0 18.7-12.69 31.39L803.83-434.22q-15.39 15.39-37.05 15.39-21.65 0-37.61-15.39L594.43-567.26q-12.69-12.7-12.69-31.39 0-18.7 12.69-31.39 12.7-12.7 31.4-12.7 18.69 0 31.39 12.7l55.43 54.86q-3.95-95.43-71.19-156.45-67.24-61.02-160.33-61.02-97.61 0-165.98 65.87-68.37 65.87-68.37 161.17 0 83 56.46 172.76Q359.7-303.09 477.74-199q12.65-11.22 22.87-21.15 10.21-9.94 21-20.15-3.87-9.87-5.74-20.03-1.87-10.15-1.87-21.58 0-47.65 33.24-80.89t80.89-33.24q47.65 0 80.89 33.24t33.24 80.89q0 47.65-33.24 80.89t-80.89 33.24q-6.87 0-13.37-.44-6.5-.43-12.93-2.43-12.35 12.22-25.07 23.93-12.72 11.72-26.37 24.94-15.52 14.39-34.54 21.37t-38.11 6.98q-18.52 0-36.41-6.42-17.9-6.41-32.29-19.11-134.74-115.95-201.5-228.26-66.76-112.3-66.76-221.65Z"/></svg>