<svg xmlns="http://www.w3.org/2000/svg" height="24" viewBox="0 -960 960 960" width="24"><path d="M366.78-140.78q-25.37 0-48.08-11.35-22.7-11.36-37.4-31.39L108.09-416.74Q87-445.09 87-480t21.09-63.26L281.3-776.48q14.7-20.03 37.4-31.39 22.71-11.35 48.08-11.35h426.44q44.3 0 75.15 30.85 30.85 30.85 30.85 75.15v466.44q0 44.3-30.85 75.15-30.85 30.85-75.15 30.85H366.78Zm27.04-292.44q19.87 0 33.31-13.44 13.44-13.43 13.44-33.3 0-19.87-13.44-33.34-13.44-13.48-33.31-13.48-19.86 0-33.62 13.44-13.77 13.43-13.77 33.3 0 19.87 13.77 33.34 13.76 13.48 33.62 13.48Zm145.58 0q19.86 0 33.62-13.44 13.76-13.43 13.76-33.3 0-19.87-13.76-33.34-13.76-13.48-33.62-13.48-19.87 0-33.31 13.44-13.44 13.43-13.44 33.3 0 19.87 13.44 33.34 13.44 13.48 33.31 13.48Zm146.21 0q19.87 0 33.35-13.44 13.48-13.43 13.48-33.3 0-19.87-13.44-33.34-13.44-13.48-33.31-13.48-19.86 0-33.34 13.44-13.48 13.43-13.48 33.3 0 19.87 13.44 33.34 13.44 13.48 33.3 13.48Z"/></svg>