<svg xmlns="http://www.w3.org/2000/svg" height="24" viewBox="0 -960 960 960" width="24"><path d="M233.78-100.78q-22.08 0-37.54-15.46t-15.46-37.54v-67h-67q-22.08 0-37.54-15.46t-15.46-37.54q0-22.09 15.46-37.55 15.46-15.45 37.54-15.45h67v-67q0-22.09 15.46-37.55 15.46-15.45 37.54-15.45 22.09 0 37.55 15.45 15.45 15.46 15.45 37.55v67h67q22.09 0 37.55 15.45 15.45 15.46 15.45 37.55 0 22.08-15.45 37.54-15.46 15.46-37.55 15.46h-67v67q0 22.08-15.45 37.54-15.46 15.46-37.55 15.46Zm215.35-40q18.83-29.83 28.24-63.72t9.41-69.28q0-105.09-73.95-179.05-73.96-73.95-179.05-73.95-48.39 0-93.06 17.69-44.68 17.7-79.94 50.66v-254.79q0-44.3 30.85-75.15 30.85-30.85 75.15-30.85h426.44q25.21 0 47.87 11.33 22.65 11.32 37.61 31.41l173.78 233.22q21.09 28.35 21.09 63.26t-21.09 63.26L678.7-183.52q-14.96 20.09-37.61 31.41-22.66 11.33-47.87 11.33H449.13Z"/></svg>