<svg xmlns="http://www.w3.org/2000/svg" height="24" viewBox="0 -960 960 960" width="24"><path d="M479.87-91.17q-16.13 0-32.16-5.57-16.03-5.56-28.62-16.69-68.39-61.7-120.66-119.27-52.26-57.56-87.17-112.19-34.91-54.63-52.7-106.67-17.78-52.05-17.78-102.7 0-157.76 102.3-251.36 102.29-93.6 236.92-93.6t236.92 93.6q102.3 93.6 102.3 251.36 0 50.65-17.78 102.7-17.79 52.04-52.7 106.67-34.91 54.63-87.17 112.19-52.27 57.57-120.66 119.27-12.67 11.13-28.79 16.69-16.13 5.57-32.25 5.57Zm.11-227.7q19.28 0 33.48-14.18 14.19-14.17 14.19-33.45t-14.17-33.48q-14.18-14.19-33.46-14.19T446.54-400q-14.19 14.18-14.19 33.46t14.17 33.47q14.18 14.2 33.46 14.2Zm-1.15-129.65q13.04 0 22.95-9.63 9.92-9.63 11.61-22.76 1.13-8 5.41-16.09 4.29-8.09 10.72-14.96 5-5 11.72-10.93 6.72-5.94 14.56-13.78 20.59-20.59 31.09-42.16 10.5-21.56 10.5-43.46 0-46.93-35.68-77.41-35.69-30.47-83.97-30.47-36.26 0-66.61 19.47-30.35 19.48-46.04 52.18-6.7 12.69-1.85 26.45 4.85 13.77 17.54 20.46 12.7 6.7 26.46 1.85 13.76-4.85 20.46-17.54 8-14.44 21.37-24 13.36-9.57 29.8-9.57 18.74 0 32.98 11.37 14.24 11.36 14.24 28.85 0 14.87-7.16 26.74-7.15 11.87-26.19 28.04-8.87 8-16.15 15.28-7.29 7.29-12.85 15.29-9.11 12.69-14.32 25.39-5.2 12.69-5.2 23.4 0 14.99 9.69 26.49 9.7 11.5 24.92 11.5ZM480-201.26q118.04-107.48 175.63-191.91 57.59-84.44 57.59-161.09 0-105.03-67.54-171.99-67.55-66.97-165.7-66.97-98.15 0-165.68 66.97-67.52 66.96-67.52 171.99 0 76.65 57.59 160.8Q361.96-309.3 480-201.26ZM480-560Z"/></svg>