<svg xmlns="http://www.w3.org/2000/svg" height="24" viewBox="0 -960 960 960" width="24"><path d="M626-60.78q-44.3 0-75.15-30.85Q520-122.48 520-166.78V-294q0-22.09 15.46-37.54Q550.91-347 573-347t37.54 15.46Q626-316.09 626-294v127.22h210.61v-546.44H626V-666q0 22.09-15.46 37.54Q595.09-613 573-613t-37.54-15.46Q520-643.91 520-666v-47.22q0-44.3 30.85-75.15 30.85-30.85 75.15-30.85h210.61q44.3 0 75.15 30.85 30.85 30.85 30.85 75.15v546.44q0 44.3-30.85 75.15-30.85 30.85-75.15 30.85H626Zm-502.61-80q-44.3 0-75.15-30.85-30.85-30.85-30.85-75.15v-546.44q0-44.3 30.85-75.15 30.85-30.85 75.15-30.85H334q44.3 0 75.15 30.85Q440-837.52 440-793.22V-666q0 22.09-15.46 37.54Q409.09-613 387-613t-37.54-15.46Q334-643.91 334-666v-127.22H123.39v546.44H334V-294q0-22.09 15.46-37.54Q364.91-347 387-347t37.54 15.46Q440-316.09 440-294v47.22q0 44.3-30.85 75.15-30.85 30.85-75.15 30.85H123.39ZM731.3-594.56q18.09 0 30.55-12.46t12.46-30.54q0-18.09-12.46-30.55t-30.55-12.46q-18.08 0-30.54 12.46t-12.46 30.55q0 18.08 12.46 30.54t30.54 12.46Zm-502.6-81.13q18.08 0 30.54-12.46t12.46-30.55q0-18.08-12.46-30.54T228.7-761.7q-18.09 0-30.55 12.46t-12.46 30.54q0 18.09 12.46 30.55t30.55 12.46ZM123.39-246.78v-546.44V-246.78Zm713.22 80V-713.22v546.44ZM306.43-432.65q-19.82 0-33.58-13.76-13.76-13.76-13.76-33.59 0-19.83 13.76-33.59 13.76-13.76 33.58-13.76 19.83 0 33.59 13.76 13.76 13.76 13.76 33.59 0 19.83-13.76 33.59-13.76 13.76-33.59 13.76Zm173.57 0q-19.83 0-33.59-13.76-13.76-13.76-13.76-33.59 0-19.83 13.76-33.59 13.76-13.76 33.59-13.76 19.83 0 33.59 13.76 13.76 13.76 13.76 33.59 0 19.83-13.76 33.59-13.76 13.76-33.59 13.76Zm174.13 0q-19.83 0-33.59-13.76-13.76-13.76-13.76-33.59 0-19.83 13.76-33.59 13.76-13.76 33.59-13.76 19.83 0 33.59 13.76 13.76 13.76 13.76 33.59 0 19.83-13.76 33.59-13.76 13.76-33.59 13.76Z"/></svg>