<svg xmlns="http://www.w3.org/2000/svg" height="24" viewBox="0 -960 960 960" width="24"><path d="M497.83-193.22h226.26Q721.04-156.48 695-132q-26.04 24.48-63.78 29.05L226.3-53.91q-43.74 5.56-78.15-21.15-34.41-26.72-40.11-70.46L56.17-568.39q-5.69-43.74 21.37-78.5 27.07-34.76 70.81-39.89l46-5.44v106l-33.18 4.44 52.31 424 284.35-35.44Zm-117.48-80q-44.31 0-75.15-30.85-30.85-30.84-30.85-75.15v-425.87q0-44.3 30.85-75.15 30.84-30.85 75.15-30.85h426.43q44.31 0 75.16 30.85 30.84 30.85 30.84 75.15v425.87q0 44.31-30.84 75.15-30.85 30.85-75.16 30.85H380.35Zm0-106h426.43v-425.87H380.35v425.87Zm213.22-213.22ZM213.48-157.78ZM594-411.87q68 0 115.5-47t52.5-113q-68 0-116.5 47t-51.5 113Zm0 0q-3-66-51.5-113t-116.5-47q5 66 52.5 113t115.5 47Zm0-120q17 0 28.5-11.5t11.5-28.5v-10l10 4q15 6 30.5 3t23.5-17q9-15 6-32t-20-24l-10-4 10-4q17-7 19.5-24.5t-5.5-31.5q-9-15-24-17.5t-30 3.5l-10 4v-10q0-17-11.5-28.5t-28.5-11.5q-17 0-28.5 11.5t-11.5 28.5v10l-10.1-4q-15.16-6-30.31-3.5-15.15 2.5-23.73 17.5-7.86 14-5.36 31.5t19.5 24.5l10 4-10 4q-17 7-20 24t6 32q8 14 23.5 17t30.5-3l10-4v10q0 17 11.5 28.5t28.5 11.5Zm0-80q-17 0-28.5-11.5t-11.5-28.5q0-17 11.5-28.5t28.5-11.5q17 0 28.5 11.5t11.5 28.5q0 17-11.5 28.5t-28.5 11.5Z"/></svg>