<svg xmlns="http://www.w3.org/2000/svg" height="24" viewBox="0 -960 960 960" width="24"><path d="M480-339.44q93.91-73.21 138.48-138.74 44.56-65.52 44.56-129.39 0-81.52-51.19-133.58-51.2-52.07-131.85-52.07-80.65 0-131.85 52.07-51.19 52.06-51.19 133.58 0 63.87 44.56 129.39Q386.09-412.65 480-339.44Zm0 109.14q-15.96 0-31.35-5.14-15.39-5.13-28.78-15.39-118-92.87-173.46-179.82-55.45-86.96-55.45-176.92 0-127.82 80.82-209.74 80.83-81.91 208.22-81.91t208.22 81.91q80.82 81.92 80.82 209.74 0 89.96-55.45 176.92-55.46 86.95-173.46 179.82-13.39 10.26-28.78 15.39-15.39 5.14-31.35 5.14Zm0-288.57q38.09 0 64.7-26.61 26.6-26.61 26.6-64.69 0-38.09-26.6-64.7-26.61-26.61-64.7-26.61t-64.7 26.61q-26.6 26.61-26.6 64.7 0 38.08 26.6 64.69 26.61 26.61 64.7 26.61ZM233.22-60.78q-22.09 0-37.26-15.46-15.18-15.46-15.18-37.54 0-22.09 15.46-37.26 15.46-15.18 37.54-15.18h493q22.09 0 37.26 15.18 15.18 15.17 15.18 37.26 0 22.08-15.18 37.54-15.17 15.46-37.26 15.46H233.22ZM480-610.17Z"/></svg>