<svg xmlns="http://www.w3.org/2000/svg" height="24" viewBox="0 -960 960 960" width="24"><path d="M57.56-433.61Q40.61-446 37.54-467.15q-3.06-21.16 8.89-38.55l131.05-193.17q23.69-34.44 64.48-38.07 40.78-3.63 70.17 25.68l41.09 42.3 96.13-145.52q24.69-37.43 69.04-39.35 44.35-1.91 72.31 32.83l51.56 64.69 95.61-141.26q12.96-18.95 35.26-22.74 22.3-3.78 40.83 10.05 17.52 12.96 20.87 34.67 3.34 21.72-9.18 39.68L717.04-677.13q-24.69 36.43-68.76 37.85-44.06 1.41-71.45-32.33l-51-64.13-95.57 143.83q-22.69 35-64.04 39.13-41.35 4.13-70.74-25.18l-43.78-44.43-119.18 176.65q-12.39 18.39-34.69 22.17-22.31 3.79-40.27-10.04Zm539.96 198.7q36.35 0 61.96-25.61t25.61-61.96q0-36.34-25.61-61.95t-61.96-25.61q-36.34 0-61.95 25.61t-25.61 61.95q0 36.35 25.61 61.96t61.95 25.61Zm0 106q-80.65 0-137.11-56.46-56.45-56.45-56.45-137.11 0-80.65 56.45-137.11 56.46-56.45 137.11-56.45 80.66 0 137.11 56.45 56.46 56.46 56.46 137.11 0 25.44-6.15 49.09-6.16 23.65-18.46 44.65l56.26 56.26q14.96 14.96 14.96 36.76 0 21.81-14.96 37.33T785.7-82.87q-22.09 0-37.61-14.96l-55.7-56.26q-21 12.31-44.93 18.74-23.94 6.44-49.94 6.44Z"/></svg>