<svg xmlns="http://www.w3.org/2000/svg" height="24" viewBox="0 -960 960 960" width="24"><path d="m662.61-202.91-44.87 44.87q-20.39 20.39-49.35 20.61-28.96.21-49.78-20.61-20.39-20.39-20.68-49.57-.28-29.17 20.11-49.56l45.44-45.44q-2.87-9.3-4.31-19.61-1.43-10.3-1.43-20.61 0-60.82 42.41-103.24 42.42-42.41 103.24-42.41 10.13 0 19.41 1.07 9.29 1.06 17.85 3.5 12.13 4.56 14.63 17.63 2.5 13.06-6.63 22.19l-45.26 45.26q-11.56 11.57-11.56 28 0 16.44 11.56 28 11.57 11.57 28.28 11.57 16.72 0 28.29-11.57l45.26-45.26q9.13-9.13 21.91-6.63 12.78 2.5 17.35 14.63 2.43 8.57 3.5 18.13 1.06 9.57 1.06 19.13 0 60.83-42.41 103.24-42.41 42.42-103.24 42.42-10.74 0-21.11-1.44-10.37-1.43-19.67-4.3ZM480-758.87q-116.43 0-197.65 81.22T201.13-480q0 64.09 26.85 118.43 26.85 54.35 72.8 92.35v-41.74q0-20.95 14.61-35.56 14.61-14.61 35.57-14.61 20.95 0 35.56 14.61 14.61 14.61 14.61 35.56v157.18q0 22.08-15.46 37.54-15.45 15.46-37.54 15.46H190.96q-20.96 0-35.57-14.61t-14.61-35.57q0-20.95 14.61-35.56 14.61-14.61 35.57-14.61h33.08q-57.48-52.26-90.37-123.91Q100.78-396.7 100.78-480q0-78.96 29.91-147.85 29.92-68.89 81.24-120.22 51.33-51.32 120.22-81.24 68.89-29.91 147.85-29.91 75.17 0 154.54 40.83 79.37 40.82 191.33 181.35 13.26 16.95 4.91 36.97-8.34 20.03-29.74 30.29-19.95 9.26-40.19 2.19-20.24-7.06-26.94-27.02-18.3-60.09-88.39-112.17-70.09-52.09-165.52-52.09Z"/></svg>