<svg xmlns="http://www.w3.org/2000/svg" height="24" viewBox="0 -960 960 960" width="24"><path d="M584.52 6.35q-27.12 0-46.1-19.15-18.99-19.15-18.99-46.5v-303.87q0-27.13 19-46.33 18.99-19.2 46.12-19.2h303.84q27.13 0 46.33 19.15 19.19 19.15 19.19 46.51v303.87q0 27.13-19.14 46.32-19.15 19.2-46.51 19.2H584.52ZM353.61-60.78 336.48-195q-8.72-3.36-16.42-8.07-7.71-4.71-15.32-9.89l-124.65 52.83L53.13-380.65l107.52-81.39q-.43-4.65-.43-8.96v-17.91q0-4.31.43-9.05L53.13-579.35l126.96-219.39 125.78 52.26q7.61-5.17 15.09-9.63 7.47-4.46 15.52-7.76l17.13-135.35h252.78l17.13 135.35q8.72 3.21 16.42 7.72 7.71 4.5 15.32 9.67l124.65-52.26 126.96 219.39-98 70.65h-192.3q-10.61-47.52-48.03-79.41Q531.13-620 480.3-620q-58 0-99 41t-41 99q0 48 27.85 84.28Q396-359.43 439.43-346v285.22h-85.82Zm245.82-12.87h274.48v-36.39q-28.39-26.96-63.63-42.35t-73.89-15.39q-38.65 0-73.61 15.39-34.95 15.39-63.35 42.35v36.39Zm137.06-137.52q27.16 0 46.08-19.02 18.91-19.01 18.91-46.17t-19.01-46.07q-19.02-18.92-46.18-18.92t-46.07 19.02q-18.92 19.01-18.92 46.17t19.02 46.07q19.01 18.92 46.17 18.92Z"/></svg>