<svg xmlns="http://www.w3.org/2000/svg" height="24" viewBox="0 -960 960 960" width="24"><path d="M480-285.09q17 0 29.5-12.5t12.5-29.5q0-17-12.5-29.5t-29.5-12.5q-17 0-29.5 12.5t-12.5 29.5q0 17 12.5 29.5t29.5 12.5Zm1-113.82q11.34 0 20.32-8.44 8.98-8.43 10.11-19.87.89-7 2.67-13.5 1.77-6.5 5.77-11.93 7.37-10.5 16.32-18.9 8.95-8.4 17.38-16.8 17-17 29.5-37.47 12.5-20.46 12.5-44.83 0-45-34.5-73.5T480-672.65q-31.43 0-58.43 15T378-616.22q-6.57 11-2.07 22.23t16.5 16.34q11.16 5 22.31-.61 11.15-5.62 19.26-14.96 8.43-11 20.11-16.78 11.68-5.78 25.89-5.78 21.77 0 38.1 13.32 16.33 13.32 16.33 33.81 0 17-10.21 30.93-10.22 13.94-23.79 25.37-11 9.87-21.17 20.02-10.17 10.15-17.56 22.72-5.57 9.13-8.13 19.51-2.57 10.38-2.57 20.75 0 12.77 8.5 21.6 8.5 8.84 21.5 8.84Zm-1 333q-8.7 0-16.96-1.28-8.26-1.29-16.52-3.85-138.96-46.13-222.35-173.85Q140.78-372.61 140.78-516v-183.91q0-33.48 19.02-60.26 19.03-26.79 49.94-38.61l233.22-87.18q17.95-6.69 37.04-6.69t37.04 6.69l233.22 87.18q30.91 11.82 49.94 38.61 19.02 26.78 19.02 60.26V-516q0 143.39-83.39 271.11-83.39 127.72-222.35 173.85-8.26 2.56-16.52 3.85-8.26 1.28-16.96 1.28Z"/></svg>