<svg xmlns="http://www.w3.org/2000/svg" height="24" viewBox="0 -960 960 960" width="24"><path d="M206.78-100.78q-44.3 0-75.15-30.85-30.85-30.85-30.85-75.15v-546.44q0-44.3 30.85-75.15 30.85-30.85 75.15-30.85h546.44q44.3 0 75.15 30.85 30.85 30.85 30.85 75.15v546.44q0 44.3-30.85 75.15-30.85 30.85-75.15 30.85H206.78ZM427-344.17H206.78v137.39H427v-137.39Zm106 0v137.39h220.22v-137.39H533Zm-106-106v-137.39H206.78v137.39H427Zm106 0h220.22v-137.39H533v137.39Zm-326.22-243.4h546.44v-59.65H206.78v59.65Z"/></svg>