<svg xmlns="http://www.w3.org/2000/svg" height="24" viewBox="0 -960 960 960" width="24"><path d="M352.22-60.78q-44.31 0-75.15-30.85-30.85-30.85-30.85-75.15v-441q0-44.31 30.85-75.15 30.84-30.85 75.15-30.85h441q44.3 0 75.15 30.85 30.85 30.84 30.85 75.15v441q0 44.3-30.85 75.15-30.85 30.85-75.15 30.85h-441Zm0-106h173.43v-91.74H352.22v91.74Zm268.13 0h172.87v-91.74H620.35v91.74ZM60.78-223.61v-569.61q0-44.3 30.85-75.15 30.85-30.85 75.15-30.85h569.61v106H166.78v569.61h-106Zm291.44-129.61h173.43v-91.73H352.22v91.73Zm268.13 0h172.87v-91.73H620.35v91.73ZM352.22-539.65h441v-68.7h-441v68.7Z"/></svg>