<svg xmlns="http://www.w3.org/2000/svg" height="24" viewBox="0 -960 960 960" width="24"><path d="M480-480Zm0 0Zm0 0Zm0 0ZM206.78-100.78q-44.3 0-75.15-30.85-30.85-30.85-30.85-75.15v-546.44q0-44.3 30.85-75.15 30.85-30.85 75.15-30.85h546.44q44.3 0 75.15 30.85 30.85 30.85 30.85 75.15V-498q0 22.09-15.46 37.54Q828.3-445 806.22-445q-22.09 0-37.55-15.46-15.45-15.45-15.45-37.54v-89.56H511.13v111.73q0 44.31-30.57 75.16-30.56 30.84-74.87 30.84H206.78v163.05h50.31q20.39 0 34.71 16.02 14.33 16.02 14.33 38.67 0 21.81-14.75 36.56-14.75 14.75-36.55 14.75h-48.05Zm0-375.05h198.91v-111.73H206.78v111.73Zm0-217.74h546.44v-59.65H206.78v59.65Zm441.7 676.18q-81.26 0-151.18-37.7-69.91-37.69-114.17-103.69-8.26-11.83-11.83-24.87-3.56-13.05-3.56-27.04 0-13.99 3.85-27.99 3.84-13.99 11.54-26.71 44.26-66 114.17-103.7 69.92-37.69 150.9-37.69 80.97 0 151.17 37.69 70.2 37.7 114.46 103.7 8.26 12.26 11.82 25.3 3.57 13.05 3.57 27.37 0 14.33-3.85 28-3.85 13.68-11.54 25.94-44.26 66-114.38 103.69-70.11 37.7-150.97 37.7Zm0-94.7q54.17 0 104.11-26 49.93-26 84.76-74-34.83-48-84.76-74-49.94-26-104.11-26-54.18 0-103.83 26.29-49.65 26.28-84.48 73.71 34.83 47.44 84.48 73.72 49.65 26.28 103.83 26.28Zm.07-34.34q-27.33 0-46.53-19.13-19.19-19.13-19.19-46.46 0-27.33 19.13-46.52 19.12-19.2 46.45-19.2 27.33 0 46.53 19.13 19.19 19.13 19.19 46.46 0 27.32-19.13 46.52-19.13 19.2-46.45 19.2Z"/></svg>