<svg xmlns="http://www.w3.org/2000/svg" height="24" viewBox="0 -960 960 960" width="24"><path d="M320.78-16.82q-13.95 0-21.15-10.83-7.2-10.83-3.07-23.22L323-125.3h-63.7q-6.69 0-10.82-5.42-4.13-5.41-1.57-12.11l38.57-106.43q4.13-11.83 14.17-19.02 10.05-7.2 22.87-7.2h51.83q14.39 0 22.37 11.83 7.98 11.82 1.85 25.22l-30.44 69.73h62.57q8.26 0 12.1 7.2 3.85 7.2-1.28 13.89L346.57-26.65q-4.14 4.56-9.83 7.19-5.7 2.64-15.96 2.64Zm281.87-43.4q-13.95 0-21.43-10.82-7.48-10.83-3.35-23.79L596.3-147h-66.26q-6.69 0-10.82-5.41-4.13-5.42-1.57-12.11l30.44-84.74q4.13-11.83 14.45-19.02 10.33-7.2 23.16-7.2h51.39q14.39 0 22.58 11.83 8.2 11.82 2.07 25.22l-21.3 48.04h61q8.26 0 11.89 7.48 3.63 7.48-2.07 14.17L629-69.48q-2.13 2.13-26.35 9.26ZM300-315.48q-96.09 0-164.54-68.45Q67-452.39 67-548.48q0-86.39 56.13-151.5t139.39-78.37q34.26-57 92.02-90.06Q412.3-901.48 480-901.48q92.26 0 161.3 57.5 69.05 57.5 86.44 144.63 70.7 9.39 117.98 63.22T893-508.48q0 80.09-56.17 136.55-56.18 56.45-136.83 56.45H300Z"/></svg>