<svg xmlns="http://www.w3.org/2000/svg" height="24" viewBox="0 -960 960 960" width="24"><path d="M284.17-16.82 323-125.3h-82.22l53.96-150.18h120.35L368.13-168.7h90.35L338.87-16.82h-54.7Zm281.31-43.4L596.3-147h-85.34l46.95-128.48h120.35l-37.82 85.09h88.78L620.74-60.22h-55.26ZM300-315.48q-96.09 0-164.54-68.45Q67-452.39 67-548.48q0-86.39 56.13-151.5t139.39-78.37q34.26-57 92.02-90.06Q412.3-901.48 480-901.48q92.26 0 161.3 57.5 69.05 57.5 86.44 144.63 70.7 9.39 117.98 63.22T893-508.48q0 80.09-56.17 136.55-56.18 56.45-136.83 56.45H300Z"/></svg>