<svg xmlns="http://www.w3.org/2000/svg" height="24" viewBox="0 -960 960 960" width="24"><path d="M775.83-480v-379.22h106V-480h-106ZM254-34.78 190.39-247.3q-49.7-40.26-80.96-100.94Q78.17-408.91 78.17-480q0-71.09 31.26-131.76 31.26-60.68 80.96-100.94L254-925.22h246.78l63.61 212.52q49.7 40.26 80.96 100.94 31.26 60.67 31.26 131.76 0 71.09-31.26 131.76-31.26 60.68-80.96 100.94L500.78-34.78H254Zm123.39-252q80.17 0 136.7-56.52 56.52-56.53 56.52-136.7 0-80.17-56.52-136.7-56.53-56.52-136.7-56.52-80.17 0-136.7 56.52-56.52 56.53-56.52 136.7 0 80.17 56.52 136.7 56.53 56.52 136.7 56.52ZM327-828.26h100.78H327Zm0 696.52h100.78H327Zm-18.83-639.17q16.61-4.44 33.98-6.59 17.37-2.15 35.24-2.15t35.24 2.15q17.37 2.15 33.98 6.59l-18.83-57.35H327l-18.83 57.35ZM327-131.74h100.78l18.83-57.35Q430-185.22 412.63-183q-17.37 2.22-35.24 2.22T342.15-183q-17.37-2.22-33.98-6.09L327-131.74Z"/></svg>