<svg xmlns="http://www.w3.org/2000/svg" height="24" viewBox="0 -960 960 960" width="24"><path d="M787-263.61q-22.09 0-37.54-15.45Q734-294.52 734-316.61q0-22.09 15.46-37.54 15.45-15.46 37.54-15.46h19.22q22.08 0 37.54 15.46 15.46 15.45 15.46 37.54t-15.46 37.55q-15.46 15.45-37.54 15.45H787ZM787-427q-22.09 0-37.54-15.46Q734-457.91 734-480t15.46-37.54Q764.91-533 787-533h59.22q22.08 0 37.54 15.46 15.46 15.45 15.46 37.54t-15.46 37.54Q868.3-427 846.22-427H787Zm0-163.39q-22.09 0-37.54-15.96Q734-622.3 734-644.39t15.96-37.55q15.95-15.45 38.04-15.45h101.61q22.09 0 37.54 15.45 15.46 15.46 15.46 37.55 0 22.09-15.46 38.04-15.45 15.96-37.54 15.96H787ZM377.39-286.78q80.17 0 136.7-56.52 56.52-56.53 56.52-136.7 0-80.17-56.52-136.7-56.53-56.52-136.7-56.52-80.17 0-136.7 56.52-56.52 56.53-56.52 136.7 0 80.17 56.52 136.7 56.53 56.52 136.7 56.52Zm-57.74 252q-29.39 0-52.59-17.2-23.19-17.19-31.76-45.45l-25.82-86.61q-7.7-25.09-23.31-51.52-15.61-26.44-42.39-59.18-32.3-38.13-48.96-85.69Q78.17-428 78.17-480q0-50.43 16.65-97.72 16.66-47.28 48.96-87.54 28.48-37.13 43.52-61.65 15.05-24.53 22.18-49.05l25.82-86.61q8.57-28.26 31.76-45.45 23.2-17.2 52.59-17.2h115.48q29.39 0 52.59 17.2 23.19 17.19 31.76 45.45l25.82 86.61q7.7 25.09 23.31 51.52Q584.22-698 611-665.26q32.3 38.13 48.96 85.69Q676.61-532 676.61-480q0 50.43-16.65 97.72Q643.3-335 611-294.74q-28.48 37.13-43.52 61.65-15.05 24.53-22.18 49.05l-25.82 86.61q-8.57 28.26-31.76 45.45-23.2 17.2-52.59 17.2H319.65Z"/></svg>