<svg xmlns="http://www.w3.org/2000/svg" height="20" viewBox="0 -960 960 960" width="20"><path d="M673.13-288q25 0 42.5-17.5t17.5-42.5q0-25-17.5-42.5t-42.5-17.5q-25 0-42.5 17.5t-17.5 42.5q0 25 17.5 42.5t42.5 17.5Zm-.09 120q32.66 0 59.09-15.72 26.44-15.71 43-41.71-23.56-13.57-49.1-20.07-25.54-6.5-53.12-6.5-27.78 0-53.28 7t-49.06 19.57q16.56 26 43.19 41.71Q640.39-168 673.04-168ZM480-76.22Q338.65-107.8 243.72-233.95 148.78-360.1 148.78-515v-242.26L480-883.78 811.22-757v245.3q-27.65-16.78-50.87-25.32-23.22-8.55-47.13-11.11v-142.35L480-779.65l-233.22 89.17V-515q0 50.13 12.79 96.28 12.78 46.15 36.5 85.68 23.71 39.52 55.95 71.19 32.24 31.68 70.15 55.98 8.57 32.04 31.16 64.61 22.58 32.56 53.76 57.96-4.52 2.26-13.55 4.11-9.02 1.84-13.54 2.97ZM671.77-96Q592-96 536-152.23q-56-56.22-56-136Q480-368 536.23-424q56.22-56 136-56Q752-480 808-423.77q56 56.22 56 136Q864-208 807.77-152q-56.22 56-136 56ZM480-482.26Z"/></svg>