<svg xmlns="http://www.w3.org/2000/svg" height="20" viewBox="0 -960 960 960" width="20"><path d="M294.22-100.78q-44.31 0-71.16-26.85-26.84-26.85-26.84-71.15v-370.44q0-44.3 26.84-71.15 26.85-26.85 71.16-26.85h371.56q44.31 0 71.16 26.85 26.84 26.85 26.84 71.15v370.44q0 44.3-26.84 71.15-26.85 26.85-71.16 26.85H294.22Zm0-98h371.56v-370.44H294.22v370.44Zm142.43-42.35h86.7v-47.31h-86.7v47.31Zm-1-77.65h87.7q0-15.87 7.87-29.02 7.87-13.16 15.17-26.59 9.31-16 16.46-31.94 7.15-15.94 7.15-33.1 0-35.13-27.07-59.02-27.06-23.9-62.93-23.9-35.87 0-62.93 23.93Q390-474.49 390-439.49q0 17.92 6.09 33.29 6.08 15.37 15.95 30.81 7.31 12.87 15.46 26.43 8.15 13.56 8.15 30.18ZM245.91-703.91q0-25.66 17.96-42.48 17.96-16.83 43.61-16.83h345.61q25.41 0 43.21 16.83 17.79 16.82 17.79 42.48H245.91Zm25.13-96q0-25.66 17.79-42.48 17.8-16.83 43.21-16.83h295.92q25.41 0 43.21 16.83 17.79 16.82 17.79 42.48H271.04ZM480-384Z"/></svg>