<svg xmlns="http://www.w3.org/2000/svg" height="20" viewBox="0 -960 960 960" width="20"><path d="M138.13-172.78q-28.96 0-46.85-17.89t-17.89-46.85v-314.39q0-29.52 17.89-47.42 17.89-17.89 46.85-17.89h179.43q29.53 0 47.42 17.89 17.89 17.9 17.89 47.42v314.39q0 28.96-17.89 46.85t-47.42 17.89H138.13Zm550.83-449.09q-69.79 0-130.37 27.74Q498-566.39 454.3-519.61v-33.43q-.56-62.52-37.67-99.35-37.11-36.83-99.07-36.83H137.7q-17.7 0-32.96 2.79-15.26 2.78-27.96 8.34v-11.13q0-41.3 28.35-69.65 28.35-28.35 69.65-28.35h633.05q44.3 0 71.15 26.85 26.85 26.85 26.85 71.15v151.31q-43.39-40.48-100.96-62.22-57.56-21.74-115.91-21.74ZM515.57-130.26q-34.57-35.13-53.42-79.7-18.85-44.56-18.85-94.26 0-102.26 71.7-173.95 71.7-71.7 173.96-71.7t173.95 71.7q71.7 71.69 71.7 173.95 0 52.7-22.91 99.26-22.92 46.57-59.92 82.7L813-165.04q26.74-28 44.52-63.37 17.78-35.37 17.78-75.81 0-77.17-54.58-131.76-54.59-54.58-131.76-54.58-77.18 0-131.76 54.58-54.59 54.59-54.59 131.76 0 37.44 13.72 72.02 13.71 34.59 40.58 60.59l-41.34 41.35Zm68.56-67.44q-21.56-21.69-33.19-49.04-11.64-27.35-11.64-57.48 0-62.26 43.7-105.95 43.7-43.7 105.96-43.7 62.26 0 105.95 43.7 43.7 43.69 43.7 105.95 0 32.7-13.63 61.05-13.63 28.34-37.2 50.47l-39.91-43.91q15.43-14 23.43-31.37t8-36.24q0-37.74-26.3-64.04-26.3-26.3-64.04-26.3-37.18 0-63.76 26.3-26.59 26.3-26.59 64.04 0 18.87 7 35.52 7 16.66 19.87 29.66l-41.35 41.34ZM659.3-76.78v-183.61q-12-5.57-18-17.63-6-12.07-6-26.2 0-22.82 15.42-38.24 15.41-15.41 38.24-15.41 22.26 0 37.95 15.41 15.7 15.42 15.7 38.24 0 15.13-6.28 26.42-6.29 11.28-17.72 17.41v183.61H659.3Zm-431.17-371q11.26 0 19.96-8.41 8.69-8.42 8.69-21.24 0-11.26-8.69-19.96-8.7-8.7-19.96-8.7-12.83 0-21.24 8.7-8.41 8.7-8.41 19.96 0 12.82 8.41 21.24 8.41 8.41 21.24 8.41Z"/></svg>