<svg xmlns="http://www.w3.org/2000/svg" height="20" viewBox="0 -960 960 960" width="20"><path d="M818.26-29.43 674.91-172.78h-35.3q-32.91 0-53.35-20.44-20.43-20.43-20.43-53.35v-35.3l-72-72v35.09H221.65q-44.3 0-71.15-26.85-26.85-26.85-26.85-71.15v-272.44q0-8.39 1.07-15.5 1.06-7.11 3.19-14.5L28.3-818.45l57.22-56.59L873.91-86.09l-55.65 56.66ZM504.57-570.44 287.78-787.22h450q44.31 0 71.16 26.85 26.84 26.85 26.84 71.15H639.61q-50.17 0-87.52 30.5-37.35 30.5-47.52 76.28v12Zm366.08 366.09L566.96-508.33v-46.54q3.95-28.9 22.97-45.63 19.03-16.72 49.68-16.72H810q33.48 0 53.35 20.16 19.87 20.15 19.87 53.63V-246q0 12.13-3.2 22.54-3.2 10.42-9.37 19.11ZM724.52-447.22q12.26 0 20.96-8.56 8.69-8.56 8.69-21.59 0-11.48-8.69-20.31-8.7-8.84-20.96-8.84-12.82 0-21.24 8.84-8.41 8.83-8.41 20.31 0 13.03 8.41 21.59 8.42 8.56 21.24 8.56ZM76.78-172.78v-98h417.05v98H76.78Z"/></svg>