<svg xmlns="http://www.w3.org/2000/svg" height="20" viewBox="0 -960 960 960" width="20"><path d="M221.65-318.78q-44.3 0-71.15-26.85-26.85-26.85-26.85-71.15v-272.44q0-44.3 26.85-71.15 26.85-26.85 71.15-26.85h516.13q44.31 0 71.16 26.85 26.84 26.85 26.84 71.15H639.61q-66.48 0-106.13 39.51-39.65 39.52-39.65 105.71v225.22H221.65Zm417.96 146q-33.01 0-53.4-20.39-20.38-20.39-20.38-53.4V-544q0-33.24 20.38-53.23 20.39-19.99 53.4-19.99H810q33.24 0 53.23 19.99 19.99 19.99 19.99 53.23v297.43q0 33.01-19.99 53.4T810-172.78H639.61Zm-562.83 0v-98h417.05v98H76.78Zm647.74-274.44q12.21 0 20.93-8.56 8.72-8.56 8.72-21.59 0-11.66-8.72-20.41-8.72-8.74-20.93-8.74-12.82 0-21.24 8.74-8.41 8.75-8.41 20.41 0 13.03 8.41 21.59 8.42 8.56 21.24 8.56Z"/></svg>