<svg xmlns="http://www.w3.org/2000/svg" height="20" viewBox="0 -960 960 960" width="20"><path d="M405.74-530.52ZM174.78-172.78q-44.3 0-71.15-26.85-26.85-26.85-26.85-71.15v-418.44q0-44.3 26.85-71.15 26.85-26.85 71.15-26.85h610.44q44.3 0 71.15 26.85 26.85 26.85 26.85 71.15H174.78v418.44h79.61v98h-79.61Zm621.74-86.7v-271.04H660.44v271.04h136.08Zm-157.48 86.7q-28.95 0-47.13-18.18-18.17-18.17-18.17-47.13v-314.39q0-29.47 18.17-47.1 18.18-17.64 47.13-17.64h179.44q29.47 0 47.11 17.64 17.63 17.63 17.63 47.1v314.39q0 28.96-17.63 47.13-17.64 18.18-47.11 18.18H639.04Zm89.16-274.44q12.73 0 21.33-8.53 8.6-8.52 8.6-20.84 0-12.73-8.48-21.33-8.48-8.6-21.46-8.6-12.54 0-20.95 8.48t-8.41 21.46q0 12.54 8.53 20.95t20.84 8.41ZM352.09-172.78l-24.57-75.18q-22.54-17.77-35.83-43.65-13.3-25.88-13.3-56.27 0-30.38 13.3-56.46 13.29-26.07 35.83-43.87l24.57-75.27h107.3l24.57 75.18q22.53 17.77 35.83 43.65 13.3 25.88 13.3 56.27 0 30.38-13.3 56.46-13.3 26.07-35.83 43.87l-24.57 75.27h-107.3Zm53.9-134.7q16.92 0 28.66-11.85 11.74-11.86 11.74-28.8t-11.82-28.79q-11.82-11.86-28.91-11.86t-28.83 11.92q-11.74 11.91-11.74 28.73t11.99 28.73q11.98 11.92 28.91 11.92ZM728.48-395Z"/></svg>