<svg xmlns="http://www.w3.org/2000/svg" height="20" viewBox="0 -960 960 960" width="20"><path d="M608.17-297.61v-515H352.39v515h255.78ZM479.79-683.56q17.13 0 28.93-11.59t11.8-28.73q0-17.13-11.59-28.93t-28.72-11.8q-17.13 0-28.93 11.59t-11.8 28.72q0 17.14 11.59 28.94t28.72 11.8Zm-127.4 385.95v-515 515ZM706.17-813v55.87q17.7 5.26 26.85 20.31 9.15 15.06 9.15 32.71v52.2q0 19.05-9.15 33.48-9.15 14.43-26.85 20.17v300.65q0 41.01-28.51 69.5-28.51 28.5-69.54 28.5h-256q-41.03 0-69.38-28.5-28.35-28.49-28.35-69.5v-515q0-41 28.52-69.5 28.51-28.5 69.54-28.5h256q41.03 0 69.38 28.38 28.34 28.38 28.34 69.23ZM327.52-56.74v-72h304.96v72H327.52Z"/></svg>