<svg xmlns="http://www.w3.org/2000/svg" height="20" viewBox="0 -960 960 960" width="20"><path d="M174.22-479.72q0 106.59 64.74 186.46 64.73 79.87 162.95 103.61-59.56-54.13-94.65-128.48T272.17-480q0-87.52 35.37-162.37 35.37-74.85 94.94-128.98-98.22 23.74-163.24 104.39-65.02 80.66-65.02 187.24ZM480.23-76.78q-83.19 0-156.58-31.41-73.39-31.42-128.72-86.74-55.32-55.33-86.74-128.73-31.41-73.39-31.41-156.85 0-83.45 31.41-156.34 31.42-72.89 86.74-128.22 55.33-55.32 128.73-86.74 73.39-31.41 156.85-31.41 83.45 0 156.34 31.41 72.89 31.42 128.22 86.74 55.32 55.33 86.74 128.49 31.41 73.17 31.41 156.35 0 83.19-31.41 156.58-31.42 73.39-86.74 128.72-55.33 55.32-128.49 86.74-73.17 31.41-156.35 31.41Z"/></svg>