<svg xmlns="http://www.w3.org/2000/svg" height="20" viewBox="0 -960 960 960" width="20"><path d="M273-80.17q70.52 0 108.41-44.39 37.89-44.4 54.89-98.27 14.6-47.88 31.65-79.63 17.05-31.76 63.92-56.63 63.74-32.74 101.93-98.56Q672-523.48 672-598.17q0-115.09-80.96-195.55-80.95-80.45-196.04-80.45-115.09 0-196.04 84.47Q118-705.22 118-584.17h98q0-80 52.24-136 52.23-56 126.67-56t126.76 51.76Q574-672.65 574-598.17q0 50.74-26.44 93.34-26.43 42.61-72.43 66.61-60.31 30.87-82.52 67.81-22.22 36.93-45.22 107.48-16 48.58-34.31 66.67-18.32 18.09-38.95 18.09-25.04 0-41.59-20.09Q216-218.35 216-250.17h-98q0 76.52 45.32 123.26Q208.64-80.17 273-80.17Zm444.48-203q60.96-65.92 92.74-146.92 31.78-81 31.78-167.08 0-83.83-31.78-165.33-31.78-81.5-92.74-147.41l-66.96 69.08q46.57 52.53 70.02 115.72Q744-661.91 744-597.17q0 64.17-24.02 128.21-24.02 64.05-70.59 116.57l68.09 69.22ZM395-501.17q40 0 68-28t28-68q0-40-28-68t-68-28q-40 0-68 28t-28 68q0 40 28 68t68 28Z"/></svg>