<svg xmlns="http://www.w3.org/2000/svg" height="20" viewBox="0 -960 960 960" width="20"><path d="M269.17-82.43q64.39 0 108.2-41.29 43.8-41.28 57.93-99.98 9.31-46.47 37.61-83.91 28.31-37.43 57.66-51.61 63.73-33.13 102.58-97.34Q672-520.78 672-598.17q0-113.53-81.24-194.77-81.24-81.23-195.76-81.23-104.91 0-182.76 71.91t-90.28 176.82h100.82q10.74-63.04 59.39-106.89 48.66-43.84 112.83-43.84 73.78 0 126.39 52.61Q574-670.96 574-598.17q0 52.3-26.78 94.63-26.79 42.32-70.4 64.19-41.47 20.18-77.95 66.5-36.48 46.33-52.91 109.37-7.87 31.74-24.96 57.39-17.09 25.65-51.83 25.65-30.87 0-47.89-22.15t-17.02-61.45q0-25.83 14.28-46.05 14.29-20.21 33.94-38.35l40.87 37.92 104.82-163q51.35-.96 86.7-36.63 35.35-35.68 35.35-86.46 0-52.17-35.96-88.13-35.96-35.96-88.13-35.96-54.09 0-90.26 38.87t-32.96 92.09L121.52-473.61l61.52 55.43q-37.13 34.22-56.67 72.09-19.55 37.87-19.55 82.05 0 80.61 45.66 131.11 45.65 50.5 116.69 50.5Zm448.31-200.74q60.26-65.79 92.39-145.72Q842-508.83 842-597.17q0-86.09-32.13-166.81t-92.39-145.93l-66.96 69.08q46.31 51.7 69.89 113.83Q744-664.87 744-597.17q0 67.13-24.15 129.82-24.15 62.7-70.46 114.96l68.09 69.22ZM278.57-430.39l-37.7-34.35 62.91-50.65q3.87 4.43 9.37 9.43 5.5 5 10.94 9.44l-45.52 66.13Zm117.56-123.18q-18.22 0-30.63-12.41t-12.41-30.63q0-18.22 12.41-30.63t30.63-12.41q18.22 0 30.63 12.41t12.41 30.63q0 18.22-12.41 30.63t-30.63 12.41Zm-112.87 80.18Zm112.87-123.22Z"/></svg>