<svg xmlns="http://www.w3.org/2000/svg" height="20" viewBox="0 -960 960 960" width="20"><path d="m384-30.48-49-49v-225.74H124.78v-98.56l96-96v-249.31h-48v-98h264.44q-41.57 38-62.79 86.5-21.21 48.5-21.21 105.5 0 123.05 86.26 197.11 86.26 74.07 203.74 68.59v84.17H433v225.74l-49 49Zm232.99-432.61q-79.77 0-135.77-56.16-56-56.16-56-135.84 0-80.92 56-137.96 56-57.04 136-54.04t136 58q56 55 56 134.48 0 79.48-56.23 135.5-56.23 56.02-136 56.02Zm.23-192q25 0 42.5-17.5t17.5-42.5q0-25-17.5-42.5t-42.5-17.5q-25 0-42.5 17.5t-17.5 42.5q0 25 17.5 42.5t42.5 17.5Zm0 120q31.43 0 58.71-15.72 27.29-15.71 43.29-42.45-23.57-13.39-49.29-19.61-25.72-6.22-52.93-6.22-27.22 0-52.72 6.72t-49.06 19.11q16 26.74 43.28 42.45 27.28 15.72 58.72 15.72Z"/></svg>