<svg xmlns="http://www.w3.org/2000/svg" height="20" viewBox="0 -960 960 960" width="20"><path d="M147.39-172.78q-44.3 0-71.15-26.85-26.85-26.85-26.85-71.15v-418.44q0-44.3 26.85-71.15 26.85-26.85 71.15-26.85h665.22q44.3 0 71.15 26.85 26.85 26.85 26.85 71.15v418.44q0 44.3-26.85 71.15-26.85 26.85-71.15 26.85H147.39Zm0-98h665.22v-418.44H147.39v418.44Zm178.44-48h308.34v-86.13H325.83v86.13Zm-111.4-117.74h86.14v-86.13h-86.14v86.13Zm148.53 0h86.13v-86.13h-86.13v86.13Zm147.95 0h86.13v-86.13h-86.13v86.13Zm148.52 0h86.14v-86.13h-86.14v86.13Zm-445-117.18h86.14v-86.13h-86.14v86.13Zm148.53 0h86.13v-86.13h-86.13v86.13Zm147.95 0h86.13v-86.13h-86.13v86.13Zm148.52 0h86.14v-86.13h-86.14v86.13ZM147.39-270.78v-418.44 418.44Z"/></svg>