<svg xmlns="http://www.w3.org/2000/svg" height="20" viewBox="0 -960 960 960" width="20"><path d="M123.39-172.78q-41 0-69.5-28.5t-28.5-69.5v-514.44q0-41 28.5-69.5t69.5-28.5H334q41 0 69.5 28.5t28.5 69.5v195.52h-93.74q-45.56 0-77.63 32.07-32.06 32.06-32.06 77.63 0 45.57 32.06 77.63 32.07 32.07 77.63 32.07H432v99.75q0 41.07-28.5 69.42T334-172.78H123.39ZM228.7-664.69q18.52 0 31.26-12.74 12.74-12.74 12.74-31.27 0-18.52-12.74-31.26-12.74-12.74-31.26-12.74-18.53 0-31.27 12.74-12.74 12.74-12.74 31.26 0 18.53 12.74 31.27 12.74 12.74 31.27 12.74Zm104.12 228.04q-18.04 0-30.8-12.55-12.76-12.55-12.76-30.59t12.55-30.8q12.55-12.76 30.59-12.76 18.03 0 30.8 12.55 12.76 12.55 12.76 30.59t-12.55 30.8q-12.55 12.76-30.59 12.76Zm147.39 0q-18.04 0-30.8-12.55-12.76-12.55-12.76-30.59t12.55-30.8q12.55-12.76 30.59-12.76t30.8 12.55q12.76 12.55 12.76 30.59t-12.55 30.8q-12.55 12.76-30.59 12.76ZM626-76.78q-41 0-69.5-28.5t-28.5-69.5V-370.3h91.48q45.56 0 77.63-32.07 32.06-32.06 32.06-77.63 0-45.57-32.06-77.63-32.07-32.07-77.63-32.07H528v-99.75q0-41.07 28.5-69.42t69.5-28.35h210.61q41 0 69.5 28.5t28.5 69.5v514.44q0 41-28.5 69.5t-69.5 28.5H626Zm1.6-359.87q-18.03 0-30.8-12.55-12.76-12.55-12.76-30.59t12.55-30.8q12.55-12.76 30.59-12.76t30.8 12.55q12.76 12.55 12.76 30.59t-12.55 30.8q-12.55 12.76-30.59 12.76Zm103.7-130.91q18.53 0 31.27-12.74 12.74-12.74 12.74-31.26 0-18.53-12.74-31.27-12.74-12.74-31.27-12.74-18.52 0-31.26 12.74-12.74 12.74-12.74 31.27 0 18.52 12.74 31.26 12.74 12.74 31.26 12.74Z"/></svg>