<svg xmlns="http://www.w3.org/2000/svg" height="20" viewBox="0 -960 960 960" width="20"><path d="M480-345.44q90.91-72.21 132.98-136.24 42.06-64.02 42.06-125.49 0-78.2-48.69-128.12-48.7-49.93-126.35-49.93-77.65 0-126.35 50.07-48.69 50.06-48.69 127.52 0 60.93 42.06 124.45Q389.09-419.65 480-345.44Zm0 123.22Q337.52-325.48 272.24-418.24t-65.28-189.33q0-120.83 76.38-198.24 76.39-77.41 196.72-77.41t196.66 77.41q76.32 77.41 76.32 198.24 0 96.57-65.28 189.33Q622.48-325.48 480-222.22Zm.21-304.65q34.88 0 58.99-24.32 24.1-24.32 24.1-59.2 0-34.87-24.32-58.98t-59.19-24.11q-34.88 0-58.99 24.32-24.1 24.32-24.1 59.2 0 34.87 24.32 58.98t59.19 24.11ZM196.78-76.78v-97.44h566.44v97.44H196.78ZM480-610.17Z"/></svg>