<svg xmlns="http://www.w3.org/2000/svg" height="20" viewBox="0 -960 960 960" width="20"><path d="M650.23-76.78q-57.32 0-97.4-39.95-40.09-39.94-40.09-97.01 0-8.43 3.43-23.91L298.39-370.78q-17.69 13.43-38.82 21.15-21.12 7.72-45.27 7.72-57.3 0-97.41-40.24t-40.11-97.72q0-57.48 40.11-97.85t97.41-40.37q24.13 0 45.83 8t39.96 22l215.52-132q-1.44-5.87-2.15-12.39-.72-6.53-.72-13.22 0-57.3 40.12-97.41t97.43-40.11q57.32 0 97.41 40.12 40.08 40.12 40.08 97.44 0 57.31-40.11 97.4t-97.41 40.09q-25.47 0-47.62-8.57-22.16-8.56-40.42-23.69L348.96-510.7q2 7.6 3 14.96 1 7.36 1 16.02 0 8.67-1.29 16.61-1.28 7.94-3.28 15.5l212.7 129.74q18.26-15.7 40.82-24.83 22.56-9.13 48.35-9.13 57.3 0 97.41 40.24t40.11 97.72q0 57.48-40.12 97.28-40.12 39.81-97.43 39.81Z"/></svg>