<svg xmlns="http://www.w3.org/2000/svg" height="20" viewBox="0 -960 960 960" width="20"><path d="M124.78-326.96H344.7q-20.32 23.62-37.4 52.05-17.08 28.43-31.95 61.17 10.43 24.87 23.17 46.72 12.74 21.85 27.13 42.24H222.78q-41 0-69.5-28.5t-28.5-69.5v-104.18Zm0-72v-202.17H444v185.22q-5.35 3.39-9.82 7.59-4.47 4.2-8.7 9.36h-300.7ZM516-601.13h319.22v179.91q-41.26-23.39-88.95-35.3-47.69-11.92-101.79-11.92-34.16 0-66.19 5.07T516-448.61v-152.52Zm-391.22-72v-64.3q0-41.09 28.5-69.44 28.5-28.35 69.5-28.35h514.44q41 0 69.5 28.5t28.5 69.5v64.09H124.78ZM644.2-31.04q-94.37 0-173.77-48.31-79.39-48.3-116.08-134.39 36.69-86.09 116.08-134.39 79.4-48.31 173.77-48.31t174.04 48.31q79.67 48.3 116.37 134.39-36.7 86.09-116.37 134.39-79.67 48.31-174.04 48.31Zm-.03-81.05q42.57 0 72.27-29.39 29.69-29.39 29.69-71.95 0-42.57-29.39-72.27-29.39-29.69-71.96-29.69-42.56 0-72.26 29.39-29.69 29.39-29.69 71.96 0 42.56 29.39 72.26 29.39 29.69 71.95 29.69Zm.38-36q-27.33 0-46.53-19.13-19.19-19.13-19.19-46.45 0-27.33 19.13-46.53 19.12-19.19 46.45-19.19 27.33 0 46.53 19.13 19.19 19.13 19.19 46.45 0 27.33-19.13 46.53-19.13 19.19-46.45 19.19Z"/></svg>