<svg xmlns="http://www.w3.org/2000/svg" height="20" viewBox="0 -960 960 960" width="20"><path d="M222.78-124.78q-44.3 0-71.15-26.85-26.85-26.85-26.85-71.15v-514.44q0-44.3 26.85-71.15 26.85-26.85 71.15-26.85h514.44q44.3 0 71.15 26.85 26.85 26.85 26.85 71.15v514.44q0 44.3-26.85 71.15-26.85 26.85-71.15 26.85H222.78ZM431-356.17H222.78v133.39H431v-133.39Zm98 0v133.39h208.22v-133.39H529Zm-98-98v-133.39H222.78v133.39H431Zm98 0h208.22v-133.39H529v133.39Zm-306.22-231.4h514.44v-51.65H222.78v51.65Z"/></svg>