<svg xmlns="http://www.w3.org/2000/svg" height="20" viewBox="0 -960 960 960" width="20"><path d="M353.48-972.74q109.13 0 185.52 76.35 76.39 76.36 76.39 185.44 0 33.43-7.66 64.15-7.67 30.72-22.86 57.37l-51.61-27.66q11.44-20.6 17.63-44.29 6.2-23.69 6.2-49.45 0-84.42-59.29-143.51-59.28-59.1-143.59-59.1t-143.33 59.02q-59.01 59.01-59.01 143.32 0 28.1 6.85 52.64 6.84 24.55 18.97 47.37l-51.61 30.22q-16.26-29.52-24.89-62.11-8.63-32.59-8.63-67.85 0-109.13 76.1-185.52 76.1-76.39 184.82-76.39Zm.96 107.3q63.4 0 109.03 45.63 45.62 45.62 45.62 108.98 0 20.18-4.85 37.83t-12.98 33.91l-52.17-27.65q6.13-10.13 8.41-20.76 2.28-10.63 2.28-23.81 0-39.54-27.64-67.18-27.64-27.64-67.17-27.64-40.3 0-68.05 27.78-27.75 27.79-27.75 67.52 0 13.7 3.31 25.39 3.31 11.68 8.82 21.7l-51.04 29.65q-9.7-17.26-15.04-36.63-5.35-19.37-5.35-40.21 0-63.26 45.28-108.88 45.28-45.63 109.29-45.63Zm92.04 788.66q-33.26 0-62.37-13.98-29.1-13.98-50.72-39.28L100.17-403.22l48.22-41.43q20.65-16.7 47.59-21.13 26.93-4.44 52.58 6.39l59.18 19.26v-294.7q0-19.25 13.4-32.71Q334.53-781 353.72-781q19.19 0 32.49 13.46 13.31 13.46 13.31 32.71v220.09h250.7q55.82 0 96.41 38.59 40.59 38.59 40.59 94.41v150.78q0 64.53-44.83 109.35-44.82 44.83-109.35 44.83H446.48Z"/></svg>