<svg xmlns="http://www.w3.org/2000/svg" height="20" viewBox="0 -960 960 960" width="20"><path d="m764.04-90.35-140.3-141.3-44.35 175.3H380.61L325-278.87q-51.22-39.22-77.72-93.17Q220.78-426 220.78-486q0-30 7.28-60.54 7.29-30.55 21.42-58.94L86.04-769.35l57.22-57.22 678 679-57.22 57.22ZM480-324.78q11.61 0 23.06-1.66 11.46-1.65 21.07-4.39L325.39-529.56q-2.74 9.6-4.67 20.78-1.94 11.17-1.94 22.78 0 67.17 47.02 114.2 47.03 47.02 114.2 47.02Zm227.7-39.35-74.22-74.22q3.87-11.3 5.8-22.54 1.94-11.24 1.94-25.11 0-67.17-47.02-114.2-47.03-47.02-114.2-47.02-13.3 0-26.17 2.22-12.87 2.22-22.48 5.52l-95.79-95.78 45.05-180.39h198.78L635-693.13q51.22 39.22 77.72 93.17Q739.22-546 739.22-486q0 33.96-8.7 64.85-8.69 30.89-22.82 57.02ZM450.61-820.26h58.78-58.78Zm0 680.52h58.78-58.78Zm-22.83-593.17q10.61-3.44 24.48-4.59 13.87-1.15 27.74-1.15t27.24 1.15q13.37 1.15 23.98 4.59l-21.83-87.35h-58.78l-22.83 87.35Zm22.83 593.17h58.78l23.83-87.35q-10.61 2.87-24.48 4.59-13.87 1.72-28.74 1.72t-28.24-1.72q-13.37-1.72-23.98-4.59l22.83 87.35Z"/></svg>