<svg xmlns="http://www.w3.org/2000/svg" height="24" viewBox="0 -960 960 960" width="24"><path d="M480-477.61q34.2 0 58.29-24.1 24.1-24.09 24.1-58.29t-24.1-58.29q-24.09-24.1-58.29-24.1t-58.29 24.1q-24.1 24.09-24.1 58.29t24.1 58.29q24.09 24.1 58.29 24.1Zm-.06 377.31q-14.9 0-29.75-5.24-14.86-5.24-26.54-15.72-66.43-60.72-117.39-117.96-50.96-57.24-85.05-111.21-34.1-53.98-51.72-104.56-17.62-50.58-17.62-97.97 0-153.28 98.95-244.22 98.95-90.95 229.18-90.95 40.48 0 59.88 20.9 19.4 20.9 19.4 54.1v16.72q0 34.58 24.63 59.2 24.62 24.62 59.2 24.62h36.17v36.42q0 17.71 6.31 32.82 6.32 15.11 17.89 26.57 9.21 9.32 20.46 15.02 11.26 5.69 23.73 7.93 32.63 5.72 45.71 24.06 13.08 18.34 13.08 44.57 0 27.09-11.31 59.72-11.3 32.63-26.99 63.88-15.68 31.25-31.61 57.08-15.92 25.82-25.92 39.3-41.8 57-88.98 104.13-47.17 47.13-85.3 79.83-11.71 10.48-26.61 15.72-14.9 5.24-29.8 5.24Zm239.34-652.29h-76.17q-18.44 0-31.13-12.69-12.7-12.7-12.7-31.13 0-18.44 12.53-31.01Q624.35-840 642.87-840h76.41v-76.41q0-18.53 12.7-31.06Q744.67-960 763.11-960q18.43 0 31.01 12.53 12.58 12.53 12.58 31.06V-840h76.41q18.52 0 31.05 12.53 12.54 12.53 12.54 31.06 0 18.43-12.54 31.13-12.53 12.69-31.05 12.69H806.7v76.18q0 18.43-12.54 31.13-12.53 12.69-31.05 12.69-18.44 0-31.13-12.53-12.7-12.53-12.7-31.05v-76.42Z"/></svg>