<svg xmlns="http://www.w3.org/2000/svg" height="24" viewBox="0 -960 960 960" width="24"><path d="M162.15-151.87q-28.11 0-40.78-24.87-12.67-24.87 4.24-47.74L315.46-480 125.61-735.52q-16.91-22.87-4.24-47.74t40.78-24.87H598.8q21.87 0 41.15 9.7 19.27 9.69 31.94 27.08l174.7 234.96q12.19 16.15-1.72 32.85-13.91 16.69-34.59 6.54-19.63-9.11-45.48-13.42-25.84-4.32-47.67-4.32-114.09 0-195.37 79.37t-84.15 192.74q-.48 10.2-.22 20.39.26 10.2 1.5 19.63 2 20.15-10.19 35.45-12.2 15.29-31.35 15.29h-235.2ZM717.13-34.74q-83 0-141.5-58.5t-58.5-141.5q0-83 58.5-141.5t141.5-58.5q83 0 141.5 58.5t58.5 141.5q0 83-58.5 141.5t-141.5 58.5Zm3.07-138.48 87.6-86.85q9.72-9.47 9.72-22.55t-9.72-22.79q-9.47-9.48-22.55-9.22-13.08.26-22.79 8.98l-74.33 72.56-16.33-16.32q-9.71-9.72-22.67-9.22t-22.67 10.22q-8.72 9.71-9.22 22.67t9.22 22.67l29.84 29.85q13.68 13.68 31.95 13.56 18.27-.12 31.95-13.56Z"/></svg>