<svg xmlns="http://www.w3.org/2000/svg" height="24" viewBox="0 -960 960 960" width="24"><path d="M571.41-75.52 315.46-148v-378.46h67.34q8.2 0 16.04 1.62 7.83 1.62 15.79 4.1l268.39 99.65q18.31 6.68 30.75 23.86 12.45 17.19 12.45 35.25 0 19.09-13.07 31.01-13.06 11.93-30.63 11.93H575.13q-8.11 0-14.55-1.22-6.45-1.22-13.56-3.94L503.93-340q-9.43-3.48-18.63.76-9.19 4.24-11.67 12.91-2.24 8.96 1.48 16.92 3.72 7.95 12.67 11.19l54.7 19.33q5.82 2.19 14.61 3.41 8.78 1.22 15.61 1.22h268.26q37.74 0 61.74 24.55 24 24.56 24 63.34L626.91-77.28q-11.67 4.24-27.13 4.74-15.45.5-28.37-2.98ZM71.87-153.54v-291q0-33.72 24.1-57.82t57.81-24.1q33.72 0 57.7 24.1 23.98 24.1 23.98 57.82v291q0 33.71-23.98 57.69-23.98 23.98-57.7 23.98-33.71 0-57.81-23.98t-24.1-57.69Zm493.26-501.85L760.3-849.8q12.92-12.92 31.57-13.18 18.65-.26 32.33 13.41 12.91 12.92 12.91 31.95t-12.91 31.95l-227 226.76q-13.68 13.67-32.07 13.67t-32.06-13.67l-113.77-114q-13.43-13.68-13.17-31.83.26-18.15 13.94-31.83 13.67-12.91 31.94-13.29 18.27-.38 31.95 13.29l81.17 81.18Z"/></svg>