<svg xmlns="http://www.w3.org/2000/svg" height="24" viewBox="0 -960 960 960" width="24"><path d="M297.91-264.26q-43.67 36.67-91.44 33.43-47.77-3.24-83.45-32.43-35.43-29.2-48.65-76.97Q61.15-388 91.59-438.15l73.56-121.61q-24.52-22.72-38.9-54.2-14.38-31.47-14.38-67.71 0-68.87 48.79-117.67 48.8-48.79 117.67-48.79t117.66 48.79q48.79 48.8 48.79 117.67t-48.79 117.66q-48.79 48.79-117.66 48.79-8.29 0-16.69-.88-8.4-.88-15.92-2.64l-75.81 128.09q-10.04 16.32-6.4 32.27 3.64 15.95 15.45 25.99 11.8 10.04 28.13 11.42 16.32 1.38 31.65-11.42L662.33-696.5q44.15-37.15 92.42-33.41 48.27 3.74 83.71 33.17 35.43 29.44 47.79 77.09 12.36 47.65-17.84 97.8L795.09-400q24.52 22.72 38.78 54.08 14.26 31.35 14.26 67.59 0 68.87-48.79 117.67-48.8 48.79-117.67 48.79t-117.66-48.79q-48.79-48.8-48.79-117.67t48.79-117.66q48.79-48.79 117.66-48.79 8.53 0 16.43.88t15.42 2.64l76.81-127.85q10.04-16.32 6.16-32.27-3.88-15.95-15.69-25.99-11.8-10.04-28.13-11.3-16.32-1.26-31.41 11.3L297.91-264.26Z"/></svg>