<svg xmlns="http://www.w3.org/2000/svg" height="24" viewBox="0 -960 960 960" width="24"><path d="m560.24-419.93 68.59 68.58q11.95 11.96 30.03 11.84 18.07-.12 30.03-12.08 11.96-11.95 11.96-30.03 0-18.08-11.96-30.03L620.3-480l68.59-68.59q11.96-11.95 11.96-30.03 0-18.08-11.96-30.03-11.96-11.96-30.03-11.96-18.08 0-30.03 11.96l-68.59 68.58-68.59-68.58q-11.95-11.96-29.91-11.96t-29.91 11.96q-11.96 11.95-11.96 30.03 0 18.08 11.96 30.03L500.17-480l-68.58 68.59q-11.96 11.95-11.84 29.91.12 17.96 12.08 29.91 11.95 11.96 30.03 11.96 18.07 0 30.03-11.96l68.35-68.34ZM362.87-151.87q-21.63 0-41.02-9.7-19.39-9.69-32.07-26.84L112.65-425.54Q94.5-449.65 94.5-480t18.15-54.46l177.13-237.13q12.68-17.15 32.07-26.84 19.39-9.7 41.02-9.7h434.26q37.78 0 64.39 26.61t26.61 64.39v474.26q0 37.78-26.61 64.39t-64.39 26.61H362.87Z"/></svg>