<svg xmlns="http://www.w3.org/2000/svg" height="24" viewBox="0 -960 960 960" width="24"><path d="M282.63-71.87q-37.78 0-64.39-26.61t-26.61-64.39v-394.26q0-37.78 26.61-64.39t64.39-26.61h394.74q37.78 0 64.39 26.61t26.61 64.39v394.26q0 37.78-26.61 64.39t-64.39 26.61H282.63Zm0-91h394.74v-394.26H282.63v394.26Zm176.65-37.61h41.44q9.19 0 15.79-6.6 6.6-6.59 6.6-15.79t-6.6-15.79q-6.6-6.6-15.79-6.6h-41.44q-9.19 0-15.79 6.6-6.6 6.59-6.6 15.79t6.6 15.79q6.6 6.6 15.79 6.6Zm-7.48-82.39h56.16q5.92 0 10.65-4.48 4.74-4.48 5.98-10.43 3.24-13.05 11.41-24.76t15.43-23.89q11.29-17 19.93-35.96t8.64-39.37q0-40.28-29.24-68.07-29.24-27.78-70.76-27.78-41.52 0-70.76 27.78-29.24 27.79-29.24 68 0 20.59 8.9 39.11t19.43 35.29q7.31 12.2 15.08 24.4 7.76 12.2 11 25.25 2.24 5.95 6.84 10.43 4.6 4.48 10.55 4.48ZM480-360ZM264.74-703.35q-14.04 0-23.21-9.16-9.18-9.16-9.18-23.17 0-14.02 9.18-23.23 9.17-9.22 23.21-9.22h430.52q14.04 0 23.21 9.16 9.18 9.16 9.18 23.18 0 14.01-9.18 23.22-9.17 9.22-23.21 9.22H264.74Zm40.48-120q-14.04 0-23.22-9.16-9.17-9.16-9.17-23.17 0-14.02 9.17-23.23 9.18-9.22 23.22-9.22h349.56q14.04 0 23.22 9.16 9.17 9.16 9.17 23.18 0 14.01-9.17 23.22-9.18 9.22-23.22 9.22H305.22Z"/></svg>