<svg xmlns="http://www.w3.org/2000/svg" height="24" viewBox="0 -960 960 960" width="24"><path d="M484-75.22q-84.99 0-159.36-32.38-74.37-32.37-129.52-87.52-55.15-55.15-87.52-129.52Q75.22-399.01 75.22-484q0-148.87 95.39-262.04Q266-859.22 412.39-886.46q-15.85 99.96 12.44 195.42 28.28 95.45 99.52 166.69t166.57 99.17q95.34 27.92 195.06 13.75-26 146.15-139.56 241.18Q632.87-75.22 484-75.22Zm0-91q83.7 0 155.71-40.89t114.77-113.11q-84.09-9.43-159.41-44.93-75.33-35.5-135.37-95.55-60.05-60.04-96.05-135.25-36-75.2-44.67-159.29-71.74 43-112.25 115.27Q166.22-567.7 166.22-484q0 132.61 92.58 225.2 92.59 92.58 225.2 92.58ZM459.7-460.7Z"/></svg>