<svg xmlns="http://www.w3.org/2000/svg" height="24" viewBox="0 -960 960 960" width="24"><path d="M667.17-71.87q-13.95 0-23.17-9.22-9.22-9.21-9.22-23.17v-171.67q-9-8.24-14.5-18.98t-5.5-22.22q0-22.2 15.6-37.29 15.6-15.1 36.79-15.1 21.96 0 37.18 15.1 15.22 15.09 15.22 37.29 0 11.48-4.62 22.6-4.62 11.12-15.38 18.6v171.67q0 13.96-9.22 23.17-9.22 9.22-23.18 9.22Zm0-343.87q-40.8 0-69.2 28.28-28.4 28.29-28.4 69.33 0 11.28 3.02 22.33 3.02 11.04 8.54 21.32 6.24 11.96 5.5 25.53-.74 13.58-10.22 23.06-9.48 9.48-22.81 9.1-13.34-.38-20.58-11.1-14-20-21.12-43.12-7.12-23.12-7.12-47.12 0-67.96 47.72-115.17 47.72-47.22 114.67-47.22 67.96 0 115.18 47.22 47.22 47.21 47.22 115.17 0 23.24-6.62 46.12t-20.38 42.88q-7.24 10.96-20.32 11.46t-22.79-9.22q-9.72-8.72-10.72-22.29-1-13.58 5.24-25.54 5.28-10.28 8.04-21.32 2.76-11.05 2.76-22.09 0-41.04-28.28-69.33-28.28-28.28-69.33-28.28Zm0-99q-81.8 0-139.7 57.4-57.9 57.41-57.9 140.21 0 31.04 10.02 60.21 10.02 29.16 28.06 54.44 8.24 11.72 7.36 25.18-.88 13.45-10.6 23.17-9.48 9.48-22.55 8.6-13.08-.88-21.56-11.84-25.76-35-40.64-75.38-14.88-40.38-14.88-84.38 0-109.96 76.72-186.17 76.72-76.22 185.67-76.22 109.96 0 186.18 76.22 76.22 76.21 76.22 186.17 0 44-14.12 84.62-14.12 40.62-40.88 75.62-8.24 10.72-21.7 10.6-13.46-.12-22.94-9.6-9.47-9.48-9.71-22.56-.24-13.07 8-24.79 18.04-25.52 27.3-54.18 9.26-28.67 9.26-59.71 0-82.8-57.4-140.21-57.4-57.4-140.21-57.4ZM94.98-151.87q-26.68 0-45.61-18.93-18.94-18.94-18.94-45.61v-355.94q0-26.91 18.94-45.85 18.93-18.93 45.61-18.93h199.76q26.91 0 45.85 18.93 18.93 18.94 18.93 45.85v355.94q0 26.67-18.93 45.61-18.94 18.93-45.85 18.93H94.98Zm572.19-507.65q-65.87 0-124.02 23.29-58.15 23.3-103.87 64.16v-.76q-.24-59.91-42.55-102.1-42.32-42.2-101.99-42.2H94.22q-5.72 0-11.18.62-5.45.62-11.17 1.86v-2.48q0-37.78 26.61-64.39t64.39-26.61H766.7q37.78 0 64.39 26.61t26.61 64.39v116.78q-43.44-28.58-90.93-43.88-47.49-15.29-99.6-15.29ZM194.98-445.37q13.95 0 23.17-9.6 9.22-9.59 9.22-22.79 0-13.96-9.22-23.17-9.22-9.22-23.17-9.22-13.2 0-22.8 9.22-9.59 9.21-9.59 23.17 0 13.2 9.59 22.79 9.6 9.6 22.8 9.6Z"/></svg>