<svg xmlns="http://www.w3.org/2000/svg" height="24" viewBox="0 -960 960 960" width="24"><path d="M717.13-34.74q-83 0-141.5-58.5t-58.5-141.5q0-83 58.5-141.5t141.5-58.5q83 0 141.5 58.5t58.5 141.5q0 83-58.5 141.5t-141.5 58.5ZM322.87-596.41h314.26q17 0 28.5-11.5t11.5-28.5q0-17-11.5-28.5t-28.5-11.5H322.87q-17 0-28.5 11.5t-11.5 28.5q0 17 11.5 28.5t28.5 11.5Zm-120 485.26q-37.54 0-64.27-26.73-26.73-26.73-26.73-64.27v-554.26q0-37.54 26.73-64.27 26.73-26.73 64.27-26.73h554.26q37.54 0 64.27 26.73 26.73 26.73 26.73 64.27v217.28q0 20.63-17.27 31.71-17.27 11.07-36.9 3.88-17.89-5.48-37.36-8.22t-39.47-2.74q-11 0-20.5.46t-19.5 2.3q-8.28-3.91-19.28-5.73-11-1.81-20.72-1.81H322.87q-17 0-28.5 11.5t-11.5 28.5q0 17 11.5 28.5t28.5 11.5h204.52q-18 16.28-32.74 35.56-14.74 19.29-26.22 41.57H322.87q-17 0-28.5 11.5t-11.5 28.5q0 17 11.5 28.5t28.5 11.5h118.7q-2.72 11.67-3.58 23.2-.86 11.54-.86 24.45 0 18.8 1.84 35.99t6.44 33.42q5.24 19.87-6.07 36.91-11.32 17.03-30.95 17.03H202.87Zm514.26-123.59q25 0 42.5-17.5t17.5-42.5q0-25-17.5-42.5t-42.5-17.5q-25 0-42.5 17.5t-17.5 42.5q0 25 17.5 42.5t42.5 17.5Zm0 120q24.28 0 45.79-9.01 21.5-9.01 38.3-26.08 5.95-6.47 4.71-15.17-1.23-8.7-10.19-12.93-18.52-8.53-38.42-12.67-19.91-4.14-40.19-4.14-20.28 0-40.18 4.14-19.91 4.14-38.43 12.67-8.72 3.47-10.07 12.55-1.36 9.08 4.59 15.55 16.8 17.07 38.3 26.08 21.51 9.01 45.79 9.01Z"/></svg>