<svg xmlns="http://www.w3.org/2000/svg" height="24" viewBox="0 -960 960 960" width="24"><path d="M399.04-572.59ZM162.87-151.87q-37.78 0-64.39-26.61t-26.61-64.39v-474.26q0-37.78 26.61-64.39t64.39-26.61h679.76q19.15 0 32.33 13.17 13.17 13.18 13.17 32.33t-13.17 32.33q-13.18 13.17-32.33 13.17H162.87v474.26h30.43q17.96 0 30.3 12.94 12.33 12.93 12.33 35.43 0 17.96-12.33 30.29-12.34 12.34-30.3 12.34h-30.43Zm639.04-86.22v-312.82H645.26v312.82h156.65Zm-178.08 86.22q-26.68 0-45.73-19.05-19.06-19.06-19.06-45.73v-355.94q0-26.89 19.06-45.72 19.05-18.82 45.73-18.82h199.76q26.89 0 45.72 18.82 18.82 18.83 18.82 45.72v355.94q0 26.67-18.82 45.73-18.83 19.05-45.72 19.05H623.83Zm99.76-294.26q14.03 0 23.21-9.6 9.18-9.6 9.18-22.79 0-14.04-9.18-23.22-9.18-9.17-23.21-9.17-13.2 0-22.8 9.17-9.59 9.18-9.59 23.22 0 13.19 9.59 22.79 9.6 9.6 22.8 9.6Zm-396.13 261.2-11.05-38.37q-19.22-17.32-29.85-40.74-10.63-23.42-10.63-50.92t10.63-50.93q10.63-23.44 29.85-40.76l11.05-38.37q4.47-14.68 16.15-23.87 11.67-9.2 27.35-9.2h56.17q15.67 0 27.35 9.2 11.67 9.19 16.15 23.87l11.04 38.37q19.23 17.31 29.86 40.73 10.62 23.43 10.62 50.92 0 27.5-10.62 50.94-10.63 23.43-29.86 40.76l-11.04 38.37q-4.48 14.67-16.15 23.86-11.68 9.2-27.35 9.2h-56.17q-15.68 0-27.35-9.2-11.68-9.19-16.15-23.86Zm71.69-73.16q24.7 0 40.74-16.59 16.04-16.59 16.04-40.3 0-23.7-17.07-40.3-17.08-16.59-39.85-16.59-22.77 0-39.81 16.12-17.05 16.12-17.05 40.77 0 24.65 16.15 40.77 16.15 16.12 40.85 16.12ZM723.59-394.5Z"/></svg>