<svg xmlns="http://www.w3.org/2000/svg" height="24" viewBox="0 -960 960 960" width="24"><path d="M797.26-45.96 691.35-151.87h-67.28q-28.35 0-48.36-20.01-20.01-20.01-20.01-48.36v-67.28l-80-80v41.54q0 18.44-12.34 30.77-12.34 12.34-30.77 12.34h-230.2q-37.78 0-64.39-26.61t-26.61-64.39v-343.26q0-3.44.24-6.75.24-3.32.72-6.75L45.48-797.5q-11.72-11.72-11.72-29.2 0-17.47 11.72-29.19 11.72-11.72 29.31-11.72 17.6 0 29.32 11.72l751.54 751.54q11.72 11.72 11.72 29.2 0 17.48-11.72 29.19-11.72 11.72-29.19 11.72-17.48 0-29.2-11.72Zm-316.02-552.3L271.37-808.13h486q37.78 0 64.39 26.61t26.61 64.39h-223.8q-53.61 0-93.83 33.75-40.21 33.75-49.5 85.12Zm402.65 402.65L556.17-523.33v-50.21q1.68-26.68 21.09-45.13 19.41-18.46 46.81-18.46H820q28.59 0 48.36 19.89t19.77 48.48V-220q0 6.48-1.2 12.58-1.2 6.09-3.04 11.81ZM721.91-446.13q13.96 0 23.18-9.6 9.21-9.6 9.21-22.79 0-13.96-9.21-23.18-9.22-9.21-23.18-9.21-13.19 0-22.79 9.21-9.6 9.22-9.6 23.18 0 13.19 9.6 22.79t22.79 9.6ZM117.37-151.87q-19.15 0-32.33-13.17-13.17-13.18-13.17-32.33t13.17-32.33q13.18-13.17 32.33-13.17H430.2q19.15 0 32.32 13.17 13.18 13.18 13.18 32.33t-13.18 32.33q-13.17 13.17-32.32 13.17H117.37Z"/></svg>