<svg xmlns="http://www.w3.org/2000/svg" height="24" viewBox="0 -960 960 960" width="24"><path d="M151.87-345.02v-376.41q0-87.07 79.15-127.6 79.15-40.54 248.98-40.54 175.83 0 251.98 39.04 76.15 39.03 76.15 129.1v376.41q0 60.67-40.38 104.52-40.38 43.85-99.62 47.2l63.8 42.28q13.92 9.19 9.2 25.61Q736.41-109 719.5-109h-479q-16.91 0-21.63-16.41-4.72-16.42 9.2-25.61l63.8-42.28q-59.24-3.35-99.62-47.2t-40.38-104.52Zm91-213.55h474.26v-120H242.87v120ZM480-320q25 0 42.5-17.5T540-380q0-25-17.5-42.5T480-440q-25 0-42.5 17.5T420-380q0 25 17.5 42.5T480-320Z"/></svg>