<svg xmlns="http://www.w3.org/2000/svg" height="24" viewBox="0 -960 960 960" width="24"><path d="M480-100.3q-14.96 0-29.79-5.24-14.84-5.24-26.56-15.72-66.43-60.72-117.39-117.96-50.96-57.24-85.05-111.21-34.1-53.98-51.72-104.56-17.62-50.58-17.62-97.97 0-153.34 99.01-244.26 99.01-90.91 229.12-90.91h12.01q5.45 0 11.25.76 28.11 1.76 37.31 29.37 9.19 27.61-13.44 50.24l-142.7 143.69q-12.67 12.68-19.51 29.21-6.83 16.53-6.83 34.69v78.5q0 34.43 24.57 59.01 24.58 24.57 59.01 24.57h78.5q18.16 0 34.69-6.95 16.53-6.96 29.21-19.39l142.69-142.7q21.39-21.39 48.62-12.32 27.23 9.08 31.23 37.19.76 7.33 1.14 14.65.38 7.33.38 14.65 0 99.03-69.67 207.12-69.68 108.1-202.11 224.58-11.72 10.48-26.56 15.72-14.83 5.24-29.79 5.24Zm58.15-431.22 216.74-216.74q6.72-6.72 6.72-15.91 0-9.2-6.72-15.92l-54.8-54.8q-6.72-6.72-15.92-6.72-9.19 0-15.91 6.72L451.52-618.15q-6.72 6.72-10.07 15.05-3.36 8.34-3.36 17.53v33.42q0 14.67 9.69 24.37 9.7 9.69 24.37 9.69h33.42q9.19 0 17.53-3.36 8.33-3.35 15.05-10.07Zm247.37-278.96q6.72 6.72 15.91 6.72 9.2 0 15.92-6.72L830.87-824q11.72-11.72 11.72-29.43 0-17.72-11.72-29.44l-28-28q-11.72-11.72-29.2-11.96-17.47-.24-29.19 11.48l-14 14q-6.72 6.72-6.72 15.92 0 9.19 6.72 15.91l55.04 55.04Z"/></svg>