<svg xmlns="http://www.w3.org/2000/svg" height="24" viewBox="0 -960 960 960" width="24"><path d="M722.63-72.83q-19.15 0-32.33-13.17-13.17-13.17-13.17-32.33v-74.5h-74.5q-19.15 0-32.33-13.17-13.17-13.17-13.17-32.33 0-19.15 13.17-32.32 13.18-13.18 32.33-13.18h74.5v-74.5q0-19.15 13.17-32.32 13.18-13.18 32.33-13.18t32.33 13.18q13.17 13.17 13.17 32.32v74.5h74.5q19.15 0 32.33 13.18 13.17 13.17 13.17 32.32 0 19.16-13.17 32.33-13.18 13.17-32.33 13.17h-74.5v74.5q0 19.16-13.17 32.33-13.18 13.17-32.33 13.17Zm-256.72-.71q-78.61 0-150.13-31.86T189.9-192.22q-54.36-54.95-86.19-129.03-31.84-74.08-31.84-158.73 0-84.65 32.1-159.11 32.1-74.45 87.29-129.65 55.2-55.19 129.64-87.29 74.45-32.1 159.1-32.1 83.24 0 155.72 30.64t127.43 84.16q54.96 53.53 88.15 124.79 33.2 71.26 36.11 152.5.48 11.19-5.38 19.39-5.86 8.19-15.05 13.91-9.2 5.72-20.63 5.96-11.44.24-23.11-5.48-22.63-11.25-47.72-16.41t-52.13-5.16q-102.07 0-174.55 72.04-72.47 72.04-72.47 174.22 0 26.76 6.02 52.52 6.02 25.77 16.78 49.53 2 5.24 3.12 10.04 1.12 4.81 1.12 10.15 0 16.94-10.54 29.36-10.55 12.43-26.96 12.43ZM162.63-480q0 106.93 62.65 191.66 62.65 84.73 164.15 115.04-54.52-64.81-85.32-143.3Q273.3-395.09 273.3-480q0-93.41 38.78-173.52 38.77-80.11 105.51-135.59-109.63 20.55-182.3 106.94-72.66 86.39-72.66 202.17Z"/></svg>