<svg xmlns="http://www.w3.org/2000/svg" height="24" viewBox="0 -960 960 960" width="24"><path d="M162.63-479.88q0 115.9 72.54 202.17 72.55 86.27 182.18 106.82-66.74-55.48-105.39-135.59Q273.3-386.59 273.3-480q0-93.41 38.78-173.52 38.77-80.11 105.51-135.59-109.63 20.55-182.3 106.94-72.66 86.39-72.66 202.29ZM479.98-71.87q-84.65 0-159.09-32.1-74.43-32.1-129.63-87.29-55.19-55.2-87.29-129.65-32.1-74.46-32.1-159.11 0-84.65 32.1-159.09 32.1-74.43 87.29-129.63 55.2-55.19 129.65-87.29 74.46-32.1 159.11-32.1 84.65 0 159.09 32.1 74.43 32.1 129.63 87.29 55.19 55.2 87.29 129.65 32.1 74.46 32.1 159.11 0 84.65-32.1 159.09-32.1 74.43-87.29 129.63-55.2 55.19-129.65 87.29-74.46 32.1-159.11 32.1Z"/></svg>