<svg xmlns="http://www.w3.org/2000/svg" height="24" viewBox="0 -960 960 960" width="24"><path d="M316.17-162.87V-522.5L78.74-762.8Q67.26-774.52 67.38-792q.12-17.48 11.84-29.2 11.71-11.71 29.31-11.71 17.6 0 29.32 11.71l686.93 686.94q11.72 11.72 11.72 29.19 0 17.48-11.72 29.2-11.71 11.72-29.31 11.84-17.6.12-29.32-11.6L652.2-189.59v36.52q0 33.48-23.86 57.34Q604.48-71.87 571-71.87H407.17q-37.78 0-64.39-26.61t-26.61-64.39Zm3.33-594.26-75.17-75.41q9.91-24.68 32.18-40.01 22.27-15.34 50.66-15.34H641.2q37.78 0 64.39 26.61t26.61 64.39v39.76H319.5Zm332.7 332.7-252.7-252.7h332.7v15.28q0 13.68-3.48 26.23t-11.44 23.99L652.2-514.5v90.07Z"/></svg>