<svg xmlns="http://www.w3.org/2000/svg" height="24" viewBox="0 -960 960 960" width="24"><path d="M259.52-923.83q84.76 0 134.53 75.15 49.78 75.14 49.78 168.2 0 37.41-7.55 72.14-7.54 34.73-17.82 64.21l-297.92 60.11q-15.47-32.11-29.92-82.77-14.45-50.67-14.45-113.93 0-104.19 52.08-173.65 52.08-69.46 131.27-69.46Zm54.28 687.66q-69.8 0-110.73-48.55-40.94-48.54-46.66-115.93l266.37-54.15q8.24 17.95 14.64 39.57 6.41 21.62 6.41 43.9 0 57.48-36.82 96.32-36.81 38.84-93.21 38.84Zm386.68-487.66q79.19 0 131.27 69.46 52.08 69.46 52.08 173.65 0 62.07-14.09 111.54-14.09 49.46-28.85 80.85l-297.91-50.54q-11.24-31.15-19.02-67.08-7.79-35.92-7.79-74.53 0-93.06 49.78-168.2 49.77-75.15 134.53-75.15ZM646.2-36.17q-56.4 0-93.21-38.84-36.82-38.84-36.82-96.32 0-21.32 6.17-41.75 6.16-20.42 13.44-37.42l267.29 46.02q-4.77 68.83-45.56 118.57-40.79 49.74-111.31 49.74Z"/></svg>