<svg xmlns="http://www.w3.org/2000/svg" height="24" viewBox="0 -960 960 960" width="24"><path d="M235.93-280h488.14L602.74-443.28q-13.87-2-27.88-5.6-14.01-3.6-27.16-9.03L450-327.65l-90-120L235.93-280Zm-33.06 168.13q-37.78 0-64.39-26.61t-26.61-64.39v-554.26q0-37.78 26.61-64.39t64.39-26.61H400v91H202.87v554.26h554.26v-213l91 91v122q0 37.78-26.61 64.39t-64.39 26.61H202.87ZM480-480Zm382 56L738-548q-21 14-45 21t-51 7q-74 0-126-52.5T464-700q0-75 52.5-127.5T644-880q75 0 127.5 52.5T824-700q0 27-8 52t-20 46l122 122-56 56ZM644-600q42 0 71-29t29-71q0-42-29-71t-71-29q-42 0-71 29t-29 71q0 42 29 71t71 29Z"/></svg>