<svg xmlns="http://www.w3.org/2000/svg" height="24" viewBox="0 -960 960 960" width="24"><path d="m415.63-570.28 230.59 230.82L445.26-138.5q-26.87 26.87-63.77 26.87-36.9 0-63.77-26.87l-1.52-1.52-15.2 14.95q-6.72 6.48-15.15 9.96-8.44 3.48-17.44 3.48H142.26q-15.67 0-21.39-13.79-5.72-13.8 5.48-24.99l89.85-89.61-1.53-1.52q-27.11-27.11-27.22-63.78-.12-36.66 26.98-63.77l201.2-201.19Zm57.24-57.24L670.2-824.85q27.39-27.35 63.91-27.35 36.52 0 63.87 27.35l102.8 103.05q27.35 27.39 27.35 63.91 0 36.52-27.35 63.87L703.46-396.7 472.87-627.52Zm-161-180.61q-17 0-28.5-11.5t-11.5-28.5q0-17 11.5-28.5t28.5-11.5h212.61q20 0 29.5 12.5t9.5 27.5q0 15-10 27.5t-30 12.5H311.87Zm-120 160q-17 0-28.5-11.5t-11.5-28.5q0-17 11.5-28.5t28.5-11.5h172.61q20 0 29.5 12.5t9.5 27.5q0 15-10 27.5t-30 12.5H191.87Zm-120 160q-17 0-28.5-11.5t-11.5-28.5q0-17 11.5-28.5t28.5-11.5h132.61q20 0 29.5 12.5t9.5 27.5q0 15-10 27.5t-30 12.5H71.87Z"/></svg>