<svg xmlns="http://www.w3.org/2000/svg" height="24" viewBox="0 -960 960 960" width="24"><path d="M157.37-317.13q-19.15 0-32.33-13.17-13.17-13.18-13.17-32.33v-26.55q0-9.23 3.36-17.59 3.36-8.35 10.07-15.03l66.57-66.51v-273.84q-17-1.92-28.5-14.13-11.5-12.22-11.5-31.37t13.17-32.33q13.18-13.17 32.33-13.17h158.87q25.39 0 36.83 23.15 11.43 23.15-3.29 45.78-16.32 30.49-24.49 63.35-8.16 32.87-8.16 67.72 0 91.58 53.54 164.5Q464.22-415.74 550-388.33q13.63 2.76 22.69 13.56 9.05 10.79 9.05 24.42 0 13.63-8.79 23.43-8.8 9.79-22.19 9.79H405.5v232.09q0 19.15-13.17 32.32Q379.15-39.54 360-39.54t-32.33-13.18Q314.5-65.89 314.5-85.04v-232.09H157.37Zm479.76-536.02q83 0 141.5 58.5t58.5 141.5q0 83-58.5 141.5t-141.5 58.5q-83 0-141.5-58.5t-58.5-141.5q0-83 58.5-141.5t141.5-58.5Zm0 200q25 0 42.5-17.5t17.5-42.5q0-25-17.5-42.5t-42.5-17.5q-25 0-42.5 17.5t-17.5 42.5q0 25 17.5 42.5t42.5 17.5Zm-.02 120q24.3 0 46.09-9.02 21.78-9.03 38.78-26.07 5.95-6.48 4.34-15.17-1.62-8.7-10.58-12.94-18.52-8.52-38.37-12.66-19.85-4.14-40.19-4.14-20.33 0-39.85 4.14-19.53 4.14-38.81 12.66-8.87 3.42-10.53 12.52-1.66 9.11 4.29 15.59 16.76 17.04 38.64 26.07 21.88 9.02 46.19 9.02Z"/></svg>