<svg xmlns="http://www.w3.org/2000/svg" height="24" viewBox="0 -960 960 960" width="24"><path d="M241.2-72.59q-37.79 0-64.4-26.61-26.6-26.6-26.6-64.39v-394.26q0-37.78 26.6-64.39 26.61-26.61 64.4-26.61h33.3v-73.06q0-85.63 59.46-144.97 59.45-59.34 144.13-59.34 84.67 0 144.25 59.34 59.57 59.34 59.57 144.97v73.06h33.31q37.78 0 64.39 26.61t26.61 64.39v4.57q0 18.43-14.58 30.51-14.57 12.07-34.01 9.31-10.15-1-20.95-1.02-10.79-.02-21.46.7-111.46 4.06-189.63 84.87-78.18 80.8-78.18 193.69 0 28.33 5.91 55.25 5.9 26.93 16.18 52.21 8.48 19.87-2.1 37.52-10.57 17.65-30.2 17.65h-196Zm486.21 37.37q-83 0-141.5-58.5t-58.5-141.5q0-83 58.5-141.5t141.5-58.5q83 0 141.5 58.5t58.5 141.5q0 83-58.5 141.5t-141.5 58.5ZM365.5-648.85h225.41v-73.06q0-48.09-32.9-80.7-32.91-32.61-79.92-32.61-46.91 0-79.75 32.61t-32.84 80.7v73.06Zm361.91 413.63q25 0 42.5-17.5t17.5-42.5q0-25-17.5-42.5t-42.5-17.5q-25 0-42.5 17.5t-17.5 42.5q0 25 17.5 42.5t42.5 17.5Zm0 120q30 0 56-14t43-39q-23-14-48-20.5t-51-6.5q-26 0-51 6.5t-48 20.5q17 25 43 39t56 14Z"/></svg>