<svg xmlns="http://www.w3.org/2000/svg" height="24" viewBox="0 -960 960 960" width="24"><path d="M162.87-151.87q-37.78 0-64.39-26.61t-26.61-64.39v-474.26q0-37.78 26.61-64.39t64.39-26.61h634.26q37.78 0 64.39 26.61t26.61 64.39v474.26q0 37.78-26.61 64.39t-64.39 26.61H162.87ZM556.89-500v32.11q0 18.19 12.46 30.65 12.45 12.46 30.65 12.46t30.65-12.46q12.46-12.46 12.46-30.65V-500h32.11q18.19 0 30.65-12.46 12.46-12.45 12.46-30.65 0-18.19-12.46-30.65-12.46-12.46-30.65-12.46h-32.11v-32.11q0-18.19-12.46-30.65-12.45-12.45-30.65-12.45t-30.65 12.45q-12.46 12.46-12.46 30.65v32.11h-32.11q-18.19 0-30.65 12.46-12.46 12.46-12.46 30.65 0 18.2 12.46 30.65Q506.59-500 524.78-500h32.11ZM162.87-369.09h634.26v-348.04H162.87v348.04Z"/></svg>