<svg xmlns="http://www.w3.org/2000/svg" height="24" viewBox="0 -960 960 960" width="24"><path d="M798.22-36.87 50.26-784.59q-11.72-11.71-11.72-29.19t11.72-29.2Q61.98-854.7 79.7-854.7q17.71 0 29.43 11.72L856.61-95.26q11.72 11.72 11.72 29.2 0 17.47-11.72 29.19-11.72 11.72-29.2 11.72-17.48 0-29.19-11.72ZM480-713.54q17.72 0 29.82-12.1 12.09-12.1 12.09-29.82 0-17.71-12.09-29.81-12.1-12.1-29.82-12.1t-29.82 12.1q-12.09 12.1-12.09 29.81 0 17.72 12.09 29.82 12.1 12.1 29.82 12.1ZM283.59-32.59q-37.79 0-64.39-26.61-26.61-26.6-26.61-64.39v-635.69l574.82 574.82v60.87q0 37.07-26.49 64.04-26.49 26.96-64.03 26.96h-393.3Zm483.82-803.82v117.06q18.24 7.96 29.24 23.92 11 15.95 11 35.67v78.8q0 19.72-11 35.8-11 16.07-29.24 24.03v114.04q0 30.59-27.96 42.41-27.97 11.81-49.6-9.82L220.57-844.54q-5.72-5.72-8.32-11.92-2.6-6.19-2.6-12.63 0-20.58 21.61-39.45 21.61-18.87 57.11-18.87h388.04q37.79 0 64.39 26.61 26.61 26.6 26.61 64.39Z"/></svg>