<svg xmlns="http://www.w3.org/2000/svg" height="24" viewBox="0 -960 960 960" width="24"><path d="M362.87-151.87q-21.7 0-41.11-9.71-19.42-9.7-31.98-26.83L71.87-480l217.91-291.59q12.56-17.13 31.98-26.83 19.41-9.71 41.11-9.71h434.26q37.78 0 64.39 26.61t26.61 64.39v474.26q0 37.78-26.61 64.39t-64.39 26.61H362.87Zm34.52-285.26q18.21 0 30.53-12.32t12.32-30.53q0-18.22-12.32-30.55-12.32-12.34-30.53-12.34-18.22 0-30.67 12.32-12.46 12.32-12.46 30.53 0 18.22 12.46 30.55 12.45 12.34 30.67 12.34Zm142.35 0q18.22 0 30.67-12.32 12.46-12.32 12.46-30.53 0-18.22-12.46-30.55-12.45-12.34-30.67-12.34-18.21 0-30.53 12.32t-12.32 30.53q0 18.22 12.32 30.55 12.32 12.34 30.53 12.34Zm142.63 0q18.22 0 30.55-12.32 12.34-12.32 12.34-30.53 0-18.22-12.32-30.55-12.32-12.34-30.53-12.34t-30.55 12.32q-12.34 12.32-12.34 30.53 0 18.22 12.32 30.55 12.32 12.34 30.53 12.34Z"/></svg>