<svg xmlns="http://www.w3.org/2000/svg" height="24" viewBox="0 -960 960 960" width="24"><path d="M400-101.26q-15.43 0-30.75-5.48t-27.75-17.19q-47.7-42.22-96.01-92.75-48.32-50.54-86.62-105.8-38.31-55.26-62.65-113.59-24.35-58.32-24.35-116.89 0-153.34 99.01-244.26 99.01-90.91 229.12-90.91 63.8 0 122.76 24.26 58.96 24.26 104.51 66.02 45.56 41.76 72.99 98.4Q727.7-642.8 727.7-577.8q0 26.95-14.56 43.63-14.55 16.67-36.71 25.39-38.71 15.48-68.57 42.69Q578-438.87 558-404.15q-20.72 36.67-28.84 77.82-8.12 41.16-1.68 84.07 3.48 22.24-.64 40.55-4.12 18.32-20.36 33.56-11.81 11.04-23.73 21.85-11.92 10.8-24.49 22.37-12.43 11.71-27.63 17.19T400-101.26Zm0-461.13q33 0 56.5-23.5t23.5-56.5q0-33-23.5-56.5t-56.5-23.5q-33 0-56.5 23.5t-23.5 56.5q0 33 23.5 56.5t56.5 23.5Zm367.91 328.13H656.46q-19.16 0-32.33-13.17-13.17-13.18-13.17-32.33t13.17-32.33q13.17-13.17 32.33-13.17h111.45l-27.39-27.39q-12.43-12.44-12.31-30.85.12-18.41 14.03-32.33 12.91-12.91 31.94-12.91 19.04 0 31.95 12.91l103.76 104q13.68 13.68 13.68 32.07t-13.68 32.06l-104 104q-12.91 12.92-31.68 13.06-18.78.14-32.93-14.01-12.43-12.44-12.43-31.11t12.43-31.11l26.63-27.39ZM400-362.39q40.33 0 76.75-15.81 36.42-15.8 64.95-44.89 5.71-5.71 8.31-12.81 2.6-7.1 2.6-15.06 0-12.43-5.46-23.01-5.45-10.57-16.65-16.05-29.8-16.81-62.99-24.59-33.18-7.78-67.51-7.78-34.33 0-67.51 7.9-33.19 7.9-62.99 24.47-10.2 5.48-16.03 15.55-5.84 10.08-5.84 22.27 0 8.72 2.48 16.18 2.48 7.45 8.19 12.93 28.29 29.33 64.83 45.01 36.54 15.69 76.87 15.69Z"/></svg>