<svg xmlns="http://www.w3.org/2000/svg" height="24" viewBox="0 -960 960 960" width="24"><path d="M611-71.87q-37.78 0-64.39-26.61T520-162.87V-309q0-19.15 13.17-32.33 13.18-13.17 32.33-13.17t32.33 13.17Q611-328.15 611-309v146.13h227.57v-554.26H611V-651q0 19.15-13.17 32.33-13.18 13.17-32.33 13.17t-32.33-13.17Q520-631.85 520-651v-66.13q0-37.78 26.61-64.39T611-808.13h227.57q37.78 0 64.39 26.61t26.61 64.39v554.26q0 37.78-26.61 64.39t-64.39 26.61H611Zm-489.57-80q-37.78 0-64.39-26.61t-26.61-64.39v-554.26q0-37.78 26.61-64.39t64.39-26.61H349q37.78 0 64.39 26.61T440-797.13V-651q0 19.15-13.17 32.33-13.18 13.17-32.33 13.17t-32.33-13.17Q349-631.85 349-651v-146.13H121.43v554.26H349V-309q0-19.15 13.17-32.33 13.18-13.17 32.33-13.17t32.33 13.17Q440-328.15 440-309v66.13q0 37.78-26.61 64.39T349-151.87H121.43Zm603.35-457.37q15.15 0 25.33-10.17 10.17-10.18 10.17-25.33 0-15.15-10.17-25.33-10.18-10.17-25.33-10.17-15.15 0-25.32 10.17-10.18 10.18-10.18 25.33 0 15.15 10.18 25.33 10.17 10.17 25.32 10.17Zm-489.56-80.48q15.15 0 25.32-10.17 10.18-10.18 10.18-25.33 0-15.15-10.18-25.32-10.17-10.18-25.32-10.18t-25.33 10.18q-10.17 10.17-10.17 25.32t10.17 25.33q10.18 10.17 25.33 10.17ZM121.43-242.87v-554.26 554.26Zm717.14 80v-554.26 554.26ZM314.26-436.89q-18.19 0-30.65-12.46-12.46-12.45-12.46-30.65t12.46-30.65q12.46-12.46 30.65-12.46 18.2 0 30.65 12.46 12.46 12.45 12.46 30.65t-12.46 30.65q-12.45 12.46-30.65 12.46Zm165.74 0q-18.2 0-30.65-12.46-12.46-12.45-12.46-30.65t12.46-30.65q12.45-12.46 30.65-12.46t30.65 12.46q12.46 12.45 12.46 30.65t-12.46 30.65Q498.2-436.89 480-436.89Zm165.98 0q-18.2 0-30.65-12.46-12.46-12.45-12.46-30.65t12.46-30.65q12.45-12.46 30.65-12.46 18.19 0 30.65 12.46 12.46 12.45 12.46 30.65t-12.46 30.65q-12.46 12.46-30.65 12.46Z"/></svg>