<svg xmlns="http://www.w3.org/2000/svg" height="24" viewBox="0 -960 960 960" width="24"><path d="M503.7-197.13h224.95q-5.32 30.54-26.15 50.13-20.83 19.59-52.37 23.83L227.28-71.85q-37.54 5.24-67.39-17.89-29.85-23.13-34.56-60.67L72.8-581.43q-4.71-37.55 18.28-67.25 22.99-29.71 60.53-34.19l46-5.76v91l-34.81 4.76 53.29 431.5 287.61-35.76Zm-135.09-80q-37.78 0-64.39-26.61t-26.61-64.39v-434.02q0-37.78 26.61-64.39t64.39-26.61h434.26q37.78 0 64.39 26.61t26.61 64.39v434.02q0 37.78-26.61 64.39t-64.39 26.61H368.61Zm0-91h434.26v-434.02H368.61v434.02Zm217.13-217.13ZM216.09-161.37ZM586.5-405.02q68 0 115.5-47t52.5-113q-68 0-116.5 47t-51.5 113Zm0 0q-3-66-51.5-113t-116.5-47q5 66 52.5 113t115.5 47Zm0-120q17 0 28.5-11.5t11.5-28.5v-10l10 4q15 6 30.5 3t23.5-17q9-15 6-32t-20-24l-10-4 10-4q17-7 19.5-24.5t-5.5-31.5q-9-15-24-17.5t-30 3.5l-10 4v-10q0-17-11.5-28.5t-28.5-11.5q-17 0-28.5 11.5t-11.5 28.5v10l-10.04-4q-15.07-6-30.13-3.5-15.07 2.5-23.89 17.5-7.94 14-5.44 31.5t19.5 24.5l10 4-10 4q-17 7-20 24t6 32q8 14 23.5 17t30.5-3l10-4v10q0 17 11.5 28.5t28.5 11.5Zm0-80q-17 0-28.5-11.5t-11.5-28.5q0-17 11.5-28.5t28.5-11.5q17 0 28.5 11.5t11.5 28.5q0 17-11.5 28.5t-28.5 11.5Z"/></svg>