<svg xmlns="http://www.w3.org/2000/svg" height="24" viewBox="0 -960 960 960" width="24"><path d="M249.13-347.39q-20.72 14.72-43.17 2.74-22.46-11.98-22.46-37.18v-196.34q0-25.2 22.46-37.18 22.45-11.98 43.17 2.74l140.52 98.18q17.72 12.47 17.72 34.43t-17.72 34.43l-140.52 98.18ZM560-309.72q-19.15 0-32.33-13.17-13.17-13.18-13.17-32.33v-249.56q0-19.15 13.17-32.33 13.18-13.17 32.33-13.17t32.33 13.17q13.17 13.18 13.17 32.33v249.56q0 19.15-13.17 32.33-13.18 13.17-32.33 13.17Zm171 0q-19.15 0-32.33-13.17-13.17-13.18-13.17-32.33v-249.56q0-19.15 13.17-32.33 13.18-13.17 32.33-13.17t32.33 13.17q13.17 13.18 13.17 32.33v249.56q0 19.15-13.17 32.33-13.18 13.17-32.33 13.17Z"/></svg>