<svg xmlns="http://www.w3.org/2000/svg" height="24" viewBox="0 -960 960 960" width="24"><path d="M480-71.87q-84.91 0-159.35-32.1-74.43-32.1-129.51-87.17-55.07-55.08-87.17-129.51-32.1-74.44-32.1-159.35 0-73.48 24.14-139.22t66.9-118.45q12.2-15.68 29.61-14.92 17.41.76 30.09 11.96 12.67 11.2 16.65 29.47 3.98 18.27-11.46 38.38-30.32 40.04-47.63 88.87-17.3 48.82-17.3 103.91 0 133.04 92.04 225.09 92.05 92.04 225.09 92.04 133.04 0 225.09-92.04 92.04-92.05 92.04-225.09 0-55.09-17.3-103.91-17.31-48.83-47.63-88.87-15.44-20.11-11.46-38.38 3.98-18.27 16.65-29.47 12.68-11.2 30.09-11.96 17.41-.76 29.61 14.92 42.76 52.71 66.9 118.45 24.14 65.74 24.14 139.22 0 84.91-32.1 159.35-32.1 74.43-87.17 129.51-55.08 55.07-129.51 87.17-74.44 32.1-159.35 32.1Zm0-362.63q-19.15 0-32.33-13.17Q434.5-460.85 434.5-480v-362.63q0-19.15 13.17-32.33 13.18-13.17 32.33-13.17t32.33 13.17q13.17 13.18 13.17 32.33V-480q0 19.15-13.17 32.33Q499.15-434.5 480-434.5Z"/></svg>