<svg xmlns="http://www.w3.org/2000/svg" height="24" viewBox="0 -960 960 960" width="24"><path d="m103.57-399.96-73.14-53.69L238.8-774.61l118.33 130.44 160.96-253.79 122.87 170.68 131.65-202.29 74.09 53.94-201.11 307.78L524.2-737.04 371-495.78 250.72-627.93 103.57-399.96Zm483.84 162.11q39.61 0 67.18-27.56 27.56-27.57 27.56-67.18 0-39.61-27.56-67.17-27.57-27.57-67.18-27.57-39.61 0-67.17 27.57-27.57 27.56-27.57 67.17t27.57 67.18q27.56 27.56 67.17 27.56ZM784.72-71.87 682.93-173.65q-21 13.28-45.26 20.04-24.26 6.76-50.26 6.76-77.39 0-131.56-54.17-54.18-54.18-54.18-131.57 0-77.39 54.18-131.56 54.17-54.18 131.56-54.18t131.57 54.18q54.17 54.17 54.17 131.56 0 25.76-6.64 49.91-6.64 24.14-19.92 45.14l101.78 101.78-63.65 63.89Z"/></svg>