<svg xmlns="http://www.w3.org/2000/svg" height="24" viewBox="0 -960 960 960" width="24"><path d="M688.13-488.13q-83 0-141.5-58.5t-58.5-141.5q0-82.24 58.12-141.12 58.12-58.88 141.88-58.88 83 0 141.5 58.5t58.5 141.5q0 83-58.5 141.5t-141.5 58.5Zm0-162.87q9.2 0 15.79-6.6 6.6-6.6 6.6-15.79v-115.22q0-9.19-6.6-15.79-6.59-6.6-15.79-6.6t-15.79 6.6q-6.6 6.6-6.6 15.79v115.22q0 9.19 6.6 15.79 6.59 6.6 15.79 6.6ZM400-281.2q25 0 42.5-17.5t17.5-42.5q0-25-17.5-42.5T400-401.2q-25 0-42.5 17.5T340-341.2q0 25 17.5 42.5t42.5 17.5ZM185.61-70.43q-11.24 0-18.74-6.24-7.5-6.24-10.5-15.24t0-18.5q3-9.5 12.24-15.74l43.26-28.59q-59.44-3.59-99.72-47.58-40.28-43.98-40.28-104.14v-376.41q0-75.11 66.38-114.3 66.38-39.2 217.53-49.16 33.31-2.47 52.18 25.49 18.87 27.97 7.63 61.75-5.05 18.09-7.45 37.2-2.4 19.11-2.4 37.96.24 17.63-10.82 30.9-11.05 13.27-28.68 13.27H162.87v120.72H429.8q15.44 0 29.64 6.74 14.19 6.73 24.63 18.21 16.28 18.09 35.2 32.16 18.93 14.06 40.49 25.1 30.57 15.57 63.03 23.59 32.47 8.02 66.32 7.5 16.15.24 27.59 10.17 11.43 9.94 11.43 25.85v63.26q0 60.16-40.28 104.14-40.28 43.99-99.72 47.58l43.26 28.59q9.24 6.24 12.24 15.74t0 18.5q-3 9-10.5 15.24t-18.74 6.24H185.61Zm502.52-494.59q9.2 0 15.79-6.48 6.6-6.48 6.6-15.67 0-9.2-6.6-15.92-6.59-6.71-15.79-6.71t-15.79 6.71q-6.6 6.72-6.6 15.92 0 9.19 6.6 15.67 6.59 6.48 15.79 6.48Z"/></svg>