<svg xmlns="http://www.w3.org/2000/svg" height="24" viewBox="0 -960 960 960" width="24"><path d="M548.52-251.24h-69.48q-18.72 0-31.39 12.82-12.67 12.81-12.67 31.49 0 18.67 12.81 31.48 12.82 12.82 31.49 12.82h112.35q19.15 0 32.33-13.17 13.17-13.18 13.17-32.33v-112.59q0-18.67-12.81-31.49-12.82-12.81-31.49-12.81-18.68 0-31.49 12.81-12.82 12.82-12.82 31.49v69.48ZM283.11-31.87q-37.78 0-64.39-26.61t-26.61-64.39v-714.26q0-37.78 26.61-64.39t64.39-26.61h393.78q37.78 0 64.39 26.61t26.61 64.39v117.06q18.24 7.96 29.24 23.92 11 15.95 11 35.67v78.81q0 19.71-11 35.79t-29.24 24.03v398.98q0 37.78-26.61 64.39t-64.39 26.61H283.11Zm-.24-90.76h394.26v-714.74H282.87v714.74Zm0 0v-714.74 714.74Zm128.61-586.13h69.48q18.67 0 31.49-12.82 12.81-12.81 12.81-31.49 0-18.67-12.81-31.48-12.82-12.82-31.49-12.82H368.37q-19.15 0-32.33 13.17-13.17 13.18-13.17 32.33v112.59q0 18.67 12.81 31.49 12.82 12.81 31.49 12.81 18.68 0 31.49-12.81 12.82-12.82 12.82-31.49v-69.48Z"/></svg>