<svg xmlns="http://www.w3.org/2000/svg" height="24" viewBox="0 -960 960 960" width="24"><path d="M599.76-100.39h254.59v-34.44q-26.44-24.67-59.23-38.1-32.79-13.44-68.19-13.44-35.39 0-68.06 13.44-32.67 13.43-59.11 38.1v34.44ZM726.93-227.8q25.96 0 44.06-18.1t18.1-44.06q0-25.95-18.1-44.05-18.1-18.1-44.06-18.1-25.95 0-44.05 18.1-18.1 18.1-18.1 44.05 0 25.96 18.1 44.06t44.05 18.1ZM480-480Zm1.28-140q-58 0-99 41t-41 99q0 48 27.24 84.12 27.24 36.12 71 49.88.48-24.2 2.77-46.27 2.3-22.08 12.21-39.56-14-6.56-20.98-19.6-6.98-13.05-6.98-28.57 0-22.85 15.95-38.79 15.94-15.95 38.79-15.95 15 0 27.9 8.22 12.91 8.22 20.23 21.69 11.96-5.95 25.39-8.55 13.44-2.6 27.11-2.6h34.57q-11.81-44.91-48.78-74.47Q530.72-620 481.28-620ZM363.07-71.87 346.59-202.5q-11.09-4.28-21.04-10.33-9.94-6.04-19.51-12.84l-121.39 51.19L67.48-377.39l104.91-79.44q-.76-6.04-.76-11.58v-23.18q0-5.54.76-11.58L67.48-582.61l117.17-202.43 121.87 50.95q9.57-6.8 19.65-12.73 10.09-5.92 20.42-10.2l16.48-131.11h233.86l16.48 131.11q11.09 4.28 21.04 10.2 9.94 5.93 19.51 12.73l121.39-50.95 117.17 202.43-90.5 67.39H693.85q-.76-5-2.24-12.41-1.48-7.41-4.2-14.57l85.76-64.52-36.6-63.69-98.53 42q-22-23.72-49.09-39.58-27.1-15.86-58.58-23.62l-13-105.52h-73.98l-13.52 105.28q-31.72 7.76-58.94 23.62-27.21 15.86-49.45 38.82l-98.28-41-36.37 63.69 85.04 63.29q-5 15.47-7.24 30.83-2.24 15.36-2.24 32.6 0 16.24 2.24 31.72t7.24 30.95l-85.04 64.05 36.37 63.69 98.28-41.76q23.76 25 53.64 42t64.64 22.72v194.76h-76.69Zm218.84 51.48q-25.95 0-44.05-18.22-18.1-18.22-18.1-44.17v-290.05q0-25.95 18.1-44.17 18.1-18.22 44.05-18.22h290.05q25.95 0 44.17 18.22 18.22 18.22 18.22 44.17v290.05q0 25.95-18.22 44.17-18.22 18.22-44.17 18.22H581.91Z"/></svg>