<svg xmlns="http://www.w3.org/2000/svg" height="24" viewBox="0 -960 960 960" width="24"><path d="M581.91-20.39q-25.89 0-44.02-18.2-18.13-18.2-18.13-44.19v-290.1q0-25.9 18.13-44.12t44.03-18.22h290.09q25.9 0 44.12 18.2t18.22 44.19v290.1q0 25.9-18.2 44.12t-44.19 18.22H581.91ZM399.48-71.87q-16.5 0-27.2-9.18-10.7-9.17-12.69-23.45l-13.24-96q-11.19-4.31-21.08-10.34-9.9-6.03-19.47-12.83l-61.76 26q-25.95 11.24-52.15 2.12-26.19-9.12-40.67-33.32l-51.55-90.37q-14.47-23.96-8.35-51.03 6.11-27.08 28.07-44.56l52.76-40q-.76-6-.76-11.57v-23.16q0-5.57.76-11.61l-52.76-39.76Q97.2-558.41 91.2-585.49q-6-27.08 8.47-51.27l51.55-90.13q14.48-23.96 40.55-33.2 26.08-9.24 52.03 2l62.48 26q9.57-6.8 19.65-12.73 10.09-5.92 20.42-10.2l9-66.48q4-27.43 24.35-46.03 20.34-18.6 48.52-18.6H531.3q28.18 0 48.53 18.6 20.34 18.6 24.34 46.03l9 66.48q11.19 4.24 21.09 10.19 9.89 5.94 19.46 12.74l61.76-26q25.95-11.24 52.15-2t40.67 33.2l52.27 91.32q13.76 23 9.07 48.53-4.68 25.52-25.92 43.24l-30.5 20.87q-5.72 4.23-12.2 5.97-6.48 1.74-13.19 1.74H631.94q-7.22 0-12.83-4.6-5.62-4.59-7.87-10.79-15.52-38.96-50.38-64.17Q526-620 481.28-620q-58 0-99 41t-41 99q0 43.63 23.26 77.81t60.55 50.41q5.71 2.48 10.19 8.15 4.48 5.67 4.48 12.47v221.95q0 15.43-11.34 26.38-11.33 10.96-28.94 10.96Zm327.45-114.5q-26.31 0-51.56 7.34-25.26 7.33-47.89 22.55-14 8.7-20.86 18.24-6.86 9.53-6.86 20.13 0 7.3 5.21 12.51t12.51 5.21h223.31q5.32 0 9.44-5.22 4.12-5.22 4.12-12.53 0-10.45-6.86-20.04-6.86-9.6-20.87-18.3-22.62-15.22-47.96-22.55-25.33-7.34-51.73-7.34Zm.05-41.43q25.91 0 44.01-18.14 18.1-18.14 18.1-44.06 0-25.91-18.14-44.01-18.14-18.1-44.06-18.1-25.91 0-44.01 18.14-18.1 18.14-18.1 44.06 0 25.91 18.14 44.01 18.14 18.1 44.06 18.1Z"/></svg>