<svg xmlns="http://www.w3.org/2000/svg" height="24" viewBox="0 -960 960 960" width="24"><path d="M324.37-30.2q-11.67 0-17.89-9.19-6.22-9.2-2.74-19.63l26.76-74.76h-62.72q-5.76 0-9.21-4.6-3.46-4.6-1.22-10.32l38.24-106.76q3.44-10.18 12.03-16.4 8.6-6.23 19.79-6.23h50.2q12.49 0 19.3 10.2 6.81 10.19 1.33 21.63l-30.76 71.04h62.24q6.83 0 10.25 6.22t-1.06 11.93L346.24-38.39q-3.48 4.24-8.2 6.22-4.71 1.97-13.67 1.97Zm275.02-41.43q-11.59 0-17.97-9.2-6.38-9.19-2.9-19.87l18.76-53.8h-64.95q-5.76 0-9.22-4.6-3.46-4.6-1.22-10.31l30.76-86.05q3.48-10.18 12.18-16.4 8.69-6.23 19.89-6.23h49.43q12.32 0 19.59 10.2 7.28 10.19 1.8 21.63l-22.28 50.33h61q7.04 0 9.98 6.33 2.93 6.34-1.78 12.06L621.5-79.59q-1.48 1.48-22.11 7.96ZM300-318.09q-93.15 0-159.33-66.17Q74.5-450.43 74.5-543.59q0-84.43 55.48-147.75 55.48-63.31 137.43-75.27 32.96-57 89.42-89.74 56.45-32.74 123.16-32.74 90.97 0 158.54 57.5 67.58 57.5 83.01 143.98 69.72 7.44 116.84 59.63 47.12 52.2 47.12 124.39 0 77.16-54.1 131.33-54.11 54.17-131.4 54.17H300Zm0-91h400q39.69 0 67.09-27.39 27.41-27.38 27.41-67.05t-27.41-67.11q-27.4-27.45-67.09-27.45h-65.5v-45.5q0-63.73-45.38-109.11-45.38-45.39-109.1-45.39-46.35 0-84.53 25.17-38.19 25.16-57.47 67.49l-11.36 27.34h-28.42q-54.83 1.92-93.78 40.81-38.96 38.89-38.96 93.61 0 55.69 39.39 95.14 39.39 39.44 95.11 39.44Zm180-194.5Z"/></svg>