<svg xmlns="http://www.w3.org/2000/svg" height="24" viewBox="0 -960 960 960" width="24"><path d="M411.59-71.87q-31.92 0-59.85-13.68-27.93-13.69-47.31-38.78l-198.6-252.84q-9.92-11.63-8.32-27.36 1.6-15.73 12.47-25.64l.95-.72q22.4-21.72 52.91-25.48 30.51-3.76 56.9 12.44l67.3 40.45V-721.2q0-18.67 12.82-31.48 12.81-12.82 31.5-12.82 18.68 0 31.87 12.82 13.18 12.81 13.18 31.48v394.5q0 26.35-23.13 39.29-23.13 12.93-46-.5l-36.95-22.24L375.8-177.63q6.72 7.96 15.87 12.55 9.15 4.6 19.44 4.6h232.72q31.22 0 53.46-22.23 22.23-22.24 22.23-53.46v-151.87q0-20.11-13.89-34t-34-13.89H501.72q-18.68 0-31.49-12.82-12.82-12.82-12.82-31.49 0-18.67 12.82-31.49 12.81-12.81 31.49-12.81h169.91q56.7 0 96.6 39.9 39.9 39.9 39.9 96.6v151.87q0 67.91-48.2 116.1-48.19 48.2-116.1 48.2H411.59Zm83.95-270.76ZM331.59-975.54q105.98 0 180.16 74.18 74.18 74.19 74.18 180.16 0 25.96-5.35 50.78-5.36 24.81-15.6 49.01-5.24 11.71-16.7 15.19-11.45 3.48-23.29-2t-16.58-18.55q-4.74-13.08.5-27.03 6.24-16.48 9.24-33.11 3-16.62 3-34.29 0-78.98-55.3-134.27-55.31-55.29-134.32-55.29-79.01 0-134.26 55.29-55.25 55.29-55.25 134.27 0 17.72 2.74 34.7 2.74 16.98 8.74 32.7 5.24 13.95.36 27.04-4.87 13.09-16.8 18.54-11.71 5.48-23.29 1.62-11.57-3.86-16.57-15.57-9.46-23.22-14.71-48.03-5.25-24.8-5.25-51 0-105.97 74.18-180.16 74.19-74.18 180.17-74.18Zm0 104.78q61.96 0 105.76 43.8 43.8 43.8 43.8 105.76 0 10.24-1.38 19.72-1.38 9.48-3.62 18.96-4.24 13.95-16.07 20.55-11.84 6.6-25.04 2.36-13.19-4.24-19.93-16.07-6.74-11.84-2.5-25.04 1.24-3.71 2.76-20.48 0-35.15-24.82-59.96-24.81-24.82-59.96-24.82-35.16 0-59.97 24.38-24.82 24.37-24.82 60.4 0 5.24.5 10.74t2.5 10.74q3.24 12.96-3.35 23.68-6.6 10.71-19.56 14.19-12.96 3.48-24.17-2.88-11.22-6.36-15.54-19.26-2.16-7.53-3.16-16.57t-1-20.73q0-62.73 43.8-106.1t105.77-43.37Z"/></svg>