<svg xmlns="http://www.w3.org/2000/svg" height="24" viewBox="0 -960 960 960" width="24"><path d="M389.52-398.57q-13.48 0-22.45-8.97-8.98-8.98-8.98-22.46v-100q0-13.48 8.98-22.46 8.97-8.97 22.45-8.97 13.48 0 22.46 8.97 8.98 8.98 8.98 22.46v100q0 13.48-8.98 22.46-8.98 8.97-22.46 8.97Zm90.48 0q-13.48 0-22.46-8.97-8.97-8.98-8.97-22.46v-60q0-13.48 8.97-22.46 8.98-8.97 22.46-8.97t22.46 8.97q8.97 8.98 8.97 22.46v60q0 13.48-8.97 22.46-8.98 8.97-22.46 8.97Zm90.48 0q-13.48 0-22.46-8.97-8.98-8.98-8.98-22.46v-20q0-13.48 8.98-22.46 8.98-8.97 22.46-8.97t22.45 8.97q8.98 8.98 8.98 22.46v20q0 13.48-8.98 22.46-8.97 8.97-22.45 8.97ZM420.96-60.87q-27.44 0-49.66-16.22-22.21-16.21-30.45-43.17l-24.2-81.07q-6.72-22.15-20.53-45.16-13.82-23.01-36.69-49.55-33.28-37.48-50.42-84.72T191.87-480q0-50.76 17.14-97.88t50.42-86.08q23.59-28.97 37.17-50.89 13.57-21.91 20.05-43.82l24.2-81.07q8.24-26.96 30.45-43.17 22.22-16.22 49.66-16.22h118.08q27.44 0 49.66 16.22 22.21 16.21 30.45 43.17l24.2 81.07q6.72 22.15 20.53 45.16 13.82 23.01 36.69 49.55 33.28 37.48 50.42 84.72T768.13-480q0 50.76-17.14 97.88t-50.42 86.08q-23.59 28.97-37.17 50.89-13.57 21.91-20.05 43.82l-24.2 81.07q-8.24 26.96-30.45 43.17-22.22 16.22-49.66 16.22H420.96Zm59.04-222q81.8 0 139.47-57.66Q677.13-398.2 677.13-480t-57.66-139.47Q561.8-677.13 480-677.13t-139.47 57.66Q282.87-561.8 282.87-480t57.66 139.47Q398.2-282.87 480-282.87Z"/></svg>