<svg xmlns="http://www.w3.org/2000/svg" height="24" viewBox="0 -960 960 960" width="24"><path d="M790.33-53.61 643.54-200.39 601.43-60.11H358.57L300.5-255.02q-50.63-40.63-79.63-99.31-29-58.67-29-125.67 0-36 9.12-70.58 9.12-34.57 26.6-66.01L54.33-789.61l59.63-59.63 736 736-59.63 59.63ZM480-282.87q18.57 0 35.49-3.14t32.49-9.19L295.43-547.74q-6.04 15.57-9.3 32.37-3.26 16.8-3.26 35.37 0 81.8 57.66 139.47Q398.2-282.87 480-282.87Zm253.22-60.11-68.13-68.13q6.52-16.28 9.28-32.82 2.76-16.55 2.76-36.07 0-81.8-57.66-139.47Q561.8-677.13 480-677.13q-19.28 0-36.3 2.88-17.03 2.88-32.59 9.16l-94.37-94.37 41.83-140.43h242.86l58.07 194.91q50.63 40.63 79.63 99.31 29 58.67 29 125.67 0 37.67-8.72 72.11-8.71 34.43-26.19 64.91ZM424.07-811.96h111.86H424.07Zm0 663.92H535.93 424.07Zm-17.2-610.81q18.56-4.76 36.59-7.4 18.02-2.64 36.54-2.64t36.54 2.64q18.03 2.64 36.59 7.4l-17.2-53.11H424.07l-17.2 53.11Zm17.2 610.81h111.86l17.2-53.11q-18.56 4.52-36.59 6.9-18.02 2.38-36.54 2.38t-36.54-2.38q-18.03-2.38-36.59-6.9l17.2 53.11Z"/></svg>