<svg xmlns="http://www.w3.org/2000/svg" height="24" viewBox="0 -960 960 960" width="24"><path d="M749-273.07v-91h99.13v91H749Zm0-161.43v-91h139.13v91H749Zm0-161.43v-92h180.57v92H749ZM269-60.87l-58.07-194.91q-48.71-38.96-78.67-97.51Q102.3-411.85 102.3-480q0-68.15 29.96-126.71 29.96-58.55 78.67-97.51L269-899.13h242.87l58.06 194.91q48.72 38.96 78.68 97.51 29.96 58.56 29.96 126.71 0 68.15-29.96 126.71-29.96 58.55-78.68 97.51L511.87-60.87H269Zm121.43-222q81.81 0 139.47-57.66T587.56-480q0-81.8-57.65-139.47-57.66-57.66-139.47-57.66t-139.47 57.66Q193.3-561.81 193.3-480q0 81.8 57.66 139.47 57.66 57.66 139.47 57.66Z"/></svg>