<svg xmlns="http://www.w3.org/2000/svg" height="20" viewBox="0 -960 960 960" width="20"><path d="M216-144q-29.7 0-50.85-21.15Q144-186.3 144-216v-528q0-29.7 21.15-50.85Q186.3-816 216-816h292q18 0 28 16t2 33.22Q533-753 530.5-738q-2.5 15-2.5 30.28 0 74.58 52.57 127.15Q633.14-528 707.72-528q15.28 0 30.28-2.5 15-2.5 29.22-7.08Q785-544 800.5-534.5T816-508v292q0 29.7-21.15 50.85Q773.7-144 744-144H216Zm48-144h432L552-480 444-336l-72-96-108 144Zm444.21-312q-15.21 0-25.59-10.35-10.39-10.35-10.39-25.65v-36h-36.11q-15.35 0-25.74-10.35Q600-692.7 600-708q0-15.3 10.38-25.65Q620.77-744 636.12-744h36.11v-36q0-15.3 10.39-25.65Q693-816 708.21-816q15.21 0 25.5 10.35T744-780v36h35.79q15.21 0 25.71 10.29t10.5 25.5q0 15.21-10.35 25.56Q795.3-672.3 780-672.3h-36v36q0 15.3-10.29 25.8t-25.5 10.5Z"/></svg>