<svg xmlns="http://www.w3.org/2000/svg" height="20" viewBox="0 -960 960 960" width="20"><path d="M671.77-96Q592-96 536-152.23q-56-56.22-56-136Q480-368 536.23-424q56.22-56 136-56Q752-480 808-423.77q56 56.22 56 136Q864-208 807.77-152q-56.22 56-136 56ZM168-515v-180q0-22.69 12.5-40.85Q193-754 214-762l240-92q13-5 26-5t26 5l240 92q21 8 33.5 26.15Q792-717.69 792-695v125.51Q792-552 778.28-543q-13.73 9-29.28 4-19-6.5-38-9.75T672-552q-110 0-187 77t-77 186.85q0 33.15 8 64.15 8 31 24 60 10 18-1.5 33.5T410-122q-45.75-19.95-83.87-48.98Q288-200 253-249q-41-57-63-124.5T168-515Zm504 227q25 0 42.5-17.5T732-348q0-25-17.5-42.5T672-408q-25 0-42.5 17.5T612-348q0 25 17.5 42.5T672-288Zm0 120q26 0 50.5-11.5T764-211q5-5 3-12.5t-9-10.5q-19.95-9-41.47-13.5Q695-252 672-252t-44.53 4.5Q605.95-243 586-234q-7 3-9 10.5t3 12.5q17 20 41.5 31.5T672-168Z"/></svg>