<svg xmlns="http://www.w3.org/2000/svg" height="20" viewBox="0 -960 960 960" width="20"><path d="M288-120q-33 0-52.5-19.5T216-192v-384q0-33 19.5-52.5T288-648h384q33 0 52.5 19.5T744-576v384q0 33-19.5 52.5T672-120H288Zm0-72h384v-384H288v384Zm174-48h36q8 0 13-5t5-13q0-8-5-13t-13-5h-36q-8 0-13 5t-5 13q0 8 5 13t13 5Zm-7.41-72h49.56q4.59 0 8.26-3.69T517-324q2.57-12.92 10.29-24.46Q535-360 543-371q11-16 19-33.23 8-17.22 8-35.77 0-36.82-26.5-62.41Q517-528 480-528t-63.5 25.63Q390-476.75 390-439.88q0 18.88 7.5 35.38Q405-388 416-372q8 11 15.5 23t10.04 24.96q1.69 4.63 5.08 8.34 3.38 3.7 7.97 3.7ZM480-384ZM288-696q-10.4 0-17.2-6.8-6.8-6.8-6.8-17.2 0-10.4 6.8-17.2 6.8-6.8 17.2-6.8h384q10.4 0 17.2 6.8 6.8 6.8 6.8 17.2 0 10.4-6.8 17.2-6.8 6.8-17.2 6.8H288Zm24-96q-10.4 0-17.2-6.8-6.8-6.8-6.8-17.2 0-10.4 6.8-17.2 6.8-6.8 17.2-6.8h336q10.4 0 17.2 6.8 6.8 6.8 6.8 17.2 0 10.4-6.8 17.2-6.8 6.8-17.2 6.8H312Z"/></svg>