<svg xmlns="http://www.w3.org/2000/svg" height="20" viewBox="0 -960 960 960" width="20"><path d="M444-536ZM312-264v-288H168v288h144Zm-162 72q-25 0-39.5-14.5T96-246v-324q0-25 14.5-39.5T150-624h180q25 0 39.5 14.5T384-570v324q0 25-14.5 39.5T330-192H150Zm89.72-288q10.28 0 17.28-7.12 7-7.11 7-16.6 0-10.28-6.88-17.28-6.88-7-17.41-7-9.71 0-16.71 6.88t-7 17.41q0 9.71 7.12 16.71 7.11 7 16.6 7ZM672-96q-10.4 0-17.2-6.8-6.8-6.8-6.8-17.2v-150q-12-5-18-16.5t-6-24.5q0-20.16 14-34.08Q652-359 671.51-359 692-359 706-345.08q14 13.92 14 34.08 0 14-6 25t-18 16v150q0 10.4-6.8 17.2Q682.4-96 672-96ZM132-768h660q33 0 52.5 19.5T864-696v82q0 15.3-10.29 25.65Q843.42-578 828.21-578t-25.71-10.35Q792-598.7 792-614v-82H132q-15.3 0-25.65-10.29Q96-716.58 96-731.79t10.35-25.71Q116.7-768 132-768Zm108 360Zm432.23 0Q632-408 604-380.16q-28 27.84-28 68.16 0 14 3 26.5t10 23.5q5 8 5 18t-7 17q-8 8-17.5 7.5T554-228q-13-18.48-19.5-39.74T528-312q0-60.3 42.24-102.15Q612.48-456 671.79-456 732-456 774-414.15 816-372.3 816-312q0 25-8 47.5T785-223q-6 8-16 8t-17-8.47q-7-7.53-6.5-17.53t6.5-18q8-12.4 12-25.94 4-13.53 4-27.06 0-40.32-27.77-68.16-27.78-27.84-68-27.84Zm-.68-96q-79.49 0-135.52 56Q480-392 480-312q0 32.35 10 62.67Q500-219 520-194q6 8 6 18t-7 17q-8 8-18 7.5t-16-8.5q-26-32-39.5-70.88Q432-269.76 432-312q0-100 70.03-170 70.02-70 169.54-70Q772-552 842-482t70 170q0 45-17 85.5T849-152q-7 8-16.59 8-9.6 0-16.5-8-6.91-8-6.41-18t7.5-18q22-26 34.5-57.5T864-312q0-80-56-136t-136.45-56Z"/></svg>