<svg xmlns="http://www.w3.org/2000/svg" height="20" viewBox="0 -960 960 960" width="20"><path d="M719.77-48Q640-48 584-104.23q-56-56.22-56-136Q528-320 584.23-376q56.22-56 136-56Q800-432 856-375.77q56 56.22 56 136Q912-160 855.77-104q-56.22 56-136 56ZM324-600h312q15.3 0 25.65-10.29Q672-620.58 672-635.79t-10.35-25.71Q651.3-672 636-672H324q-15.3 0-25.65 10.29Q288-651.42 288-636.21t10.35 25.71Q308.7-600 324-600ZM216-144q-29.7 0-50.85-21.15Q144-186.3 144-216v-528q0-29.7 21.15-50.85Q186.3-816 216-816h528q29.7 0 50.85 21.15Q816-773.7 816-744v216q0 16-12.5 25.5T775-497q-14-2-27.54-3.5Q733.91-502 720-502q-12 0-23.79.5-11.8.5-24.21 2.5-5-8-15.5-12.5T636-516H324q-15.3 0-25.65 10.29Q288-495.42 288-480.21t10.35 25.71Q308.7-444 324-444h230q-22 17-40 38t-31 46H324q-15.3 0-25.65 10.29Q288-339.42 288-324.21t10.35 25.71Q308.7-288 324-288h134q-2 12-3 24t0 24q1 13 2.5 26.5T462-186q3 16-6.46 29T430-144H216Zm504-96q25 0 42.5-17.5T780-300q0-25-17.5-42.5T720-360q-25 0-42.5 17.5T660-300q0 25 17.5 42.5T720-240Zm0 120q28 0 51.5-11.5T812-163q5-5 3-12t-9-10q-20-9-41.5-14t-44.5-5q-23 0-44.5 5.5T634-185q-7 3-9 10t3 12q17 20 40.5 31.5T720-120Z"/></svg>