<svg xmlns="http://www.w3.org/2000/svg" height="20" viewBox="0 -960 960 960" width="20"><path d="M288-48q-29.7 0-50.85-21.15Q216-90.3 216-120v-720q0-33 19.5-52.5T288-912h384q29.7 0 50.85 21.15Q744-869.7 744-840v252q0 15.3-10.35 25.65Q723.3-552 708-552h-54q-25.13 0-44.42 15.05Q590.28-521.9 584-498l-14 53q-42 32-66 79.5T480-264q0 54 24 101t66 80q2 9 5 17.5t5 17.5H288Zm191.79-672q15.21 0 25.71-10.29t10.5-25.5q0-15.21-10.29-25.71t-25.5-10.5q-15.21 0-25.71 10.29t-10.5 25.5q0 15.21 10.29 25.71t25.5 10.5ZM682-48q-12.44 0-22.22-7.5t-12.61-19.47L633-128q-37-21-59-57t-22-79q0-43 22-79t59-57l14.17-53.03Q650-465 659.78-472.5q9.78-7.5 22.22-7.5h63q13 0 22.5 8t12.5 20l13 57q33 22 52 56.35t19 74.5Q864-224 845-190q-19 34-52 56l-13 58q-3 12-12.5 20T745-48h-63Zm25.8-132q35.2 0 59.7-24.3 24.5-24.31 24.5-59.5 0-35.2-24.3-59.7-24.31-24.5-59.5-24.5-35.2 0-59.7 24.3-24.5 24.31-24.5 59.5 0 35.2 24.3 59.7 24.31 24.5 59.5 24.5Z"/></svg>