<svg xmlns="http://www.w3.org/2000/svg" height="20" viewBox="0 -960 960 960" width="20"><path d="M777-82 667-192h-37q-25 0-39.5-14.5T576-246v-37l-72-72v7q0 15-10.5 25.5T468-312H216q-33 0-52.5-19.5T144-384v-312q0-5 .5-9t1.5-8l-65-65q-11-11-10.5-25T82-828q11-11 25-11t25 11l696 696q11 11 11 25t-11 25q-11 11-25.5 11T777-82ZM504-558 294-768h450q33 0 52.5 19.5T816-696H630.5q-53.8 0-90.16 37T504-570v12Zm348 348L576-486v-84q0-25 14.5-39.5T630-624h180q25 0 39.5 14.5T864-570v324q0 11-3.2 20t-8.8 16ZM720-480q10 0 17-7t7-17q0-10-7-17t-17-7q-10 0-17 7t-7 17q0 10 7 17t17 7ZM132-192q-15 0-25.5-10.5T96-228q0-15 10.5-25.5T132-264h336q15 0 25.5 10.5T504-228q0 15-10.5 25.5T468-192H132Z"/></svg>