<svg xmlns="http://www.w3.org/2000/svg" height="20" viewBox="0 -960 960 960" width="20"><path d="M504-540Zm-36 348H132q-15.3 0-25.65-10.29Q96-212.58 96-227.79t10.35-25.71Q116.7-264 132-264h336q15.3 0 25.65 10.29Q504-243.42 504-228.21t-10.35 25.71Q483.3-192 468-192ZM216-312q-33 0-52.5-19.5T144-384v-312q0-33 19.5-52.5T216-768h564q15.3 0 25.65 10.29Q816-747.42 816-732.21t-10.35 25.71Q795.3-696 780-696H216v312h252q15.3 0 25.65 10.29Q504-363.42 504-348.21t-10.35 25.71Q483.3-312 468-312H216Zm576 48v-288H648v288h144Zm-162 72q-25 0-39.5-14.5T576-246v-324q0-25 14.5-39.5T630-624h180q25 0 39.5 14.5T864-570v324q0 25-14.5 39.5T810-192H630Zm89.72-288q10.28 0 17.28-7.12 7-7.11 7-16.6 0-10.28-6.88-17.28-6.88-7-17.41-7-9.71 0-16.71 6.88t-7 17.41q0 9.71 7.12 16.71 7.11 7 16.6 7Zm.28 72Z"/></svg>