<svg xmlns="http://www.w3.org/2000/svg" height="20" viewBox="0 -960 960 960" width="20"><path d="M168-192q-33 0-52.5-19.5T96-264v-432q0-33 19.5-52.5T168-768h624q30 0 51 21t21 51v10q-12-5-25.5-7.5T810-696H630q-50 0-82.5 25.5T507-600H334q-12 0-21 7t-13 18l-26 77q-27 26-42.5 61.5T216-360q0 41 15.5 76.5T274-222l10 30H168Zm462 0q-25 0-39.5-14.5T576-246v-324q0-25 14.5-39.5T630-624h180q25 0 39.5 14.5T864-570v324q0 25-14.5 39.5T810-192H630Zm-278-25-16-47q-22-17-35-42t-13-54q0-29 13-54t35-42l16-47q4-11 13-18t21-7h44q12 0 21 7t13 18l16 47q22 17 35 42t13 54q0 29-13 54t-35 42l-16 47q-4 11-13 18t-21 7h-44q-12 0-21-7t-13-18Zm56-95q20 0 34-14t14-34q0-20-14-34t-34-14q-20 0-34 14t-14 34q0 20 14 34t34 14Zm312-168q10 0 17-7t7-17q0-10-7-17t-17-7q-10 0-17 7t-7 17q0 10 7 17t17 7Z"/></svg>