<svg xmlns="http://www.w3.org/2000/svg" height="20" viewBox="0 -960 960 960" width="20"><path d="M720-342ZM498-564ZM132-192q-15.3 0-25.65-10.29Q96-212.58 96-227.79t10.35-25.71Q116.7-264 132-264h336q15.3 0 25.65 10.29Q504-243.42 504-228.21t-10.35 25.71Q483.3-192 468-192H132Zm234-504-72-72h486q15.3 0 25.65 10.29Q816-747.42 816-732.21t-10.35 25.71Q795.3-696 780-696H366Zm353.72 216q10.28 0 17.28-7.12 7-7.11 7-16.6 0-10.28-6.88-17.28-6.88-7-17.41-7-9.71 0-16.71 6.88t-7 17.41q0 9.71 7.12 16.71 7.11 7 16.6 7ZM852-210l-60-60v-282H648v138l-72-72v-84q0-25 14.5-39.5T630-624h180q25 0 39.5 14.5T864-570v324q0 11-3 20t-9 16ZM777-82 667-192h-37q-25 0-39.5-14.5T576-246v-37L216-643v259h252q15.3 0 25.65 10.29Q504-363.42 504-348.21t-10.35 25.71Q483.3-312 468-312H216q-33 0-52.5-19.5T144-384v-312q0-5 .5-9t1.5-8l-64.85-64.85Q70-789 70.5-803q.5-14 11.5-25t25-11q14 0 25 11l696 696q11 11 11 25t-11 25q-11 11-25.5 11T777-82ZM346-514Z"/></svg>