<svg xmlns="http://www.w3.org/2000/svg" height="20" viewBox="0 -960 960 960" width="20"><path d="M480-96q-108 0-174-31.5T240-210q0-17 8.5-32.5T274-272q13-8 28-4t23 17q8 13 4 27.5T312-209l-.5.5.5-.5q8 14 62 27.5T480-168q52 0 106-13.5t62-27.5l.5.5-.5-.5q-13-8-17-22.5t4-27.5q8-13 23-17t28 4q17 14 25.5 29.5T720-210q0 51-66 82.5T480-96Zm0-137q-11 0-22-3.5T438-248q-112-90-167-177.5T216-594q0-66 24-116.5t62-84.5q38-34 85-51.5t93-17.5q46 0 93 17.5t85 51.5q38 34 62 84.5T744-594q0 81-55 168.5T522-248q-9 8-20 11.5t-22 3.5Zm0-295q30 0 51-21t21-51q0-30-21-51t-51-21q-30 0-51 21.5T408-600q0 29 21 50.5t51 21.5Z"/></svg>