<svg xmlns="http://www.w3.org/2000/svg" height="20" viewBox="0 -960 960 960" width="20"><path d="M480-119q-13 0-24.5-4.5T433-137q-40-35-86.5-82T260-320q-40-54-66-112.5T168-549q0-134 89-224.5T480-864q20 0 38 2t36 7q22 5 27.5 27.5T570-788L381-598q-10 10-15.5 23.5T360-547v67q0 30 21 51t51 21h68q14 0 27-5t24-16l174-175q17-17 39-10.5t26 29.5q1 9 1.5 18t.5 18q0 91-67 194T527-137q-11 9-22.5 13.5T480-119Zm31-372 217-217q5-5 5-13t-5-13l-42-42q-5-5-13-5t-13 5L443-559q-5 5-8 11.5t-3 14.5v26q0 11 8 19t19 8h26q8 0 14.5-3t11.5-8Zm250-278q5 5 13 5t13-5l21-21q8-7 8.5-16.5T809-823l-34-34q-7-7-17-7t-17 7l-21 21q-5 5-5 13t5 13l41 41Z"/></svg>