<svg xmlns="http://www.w3.org/2000/svg" height="20" viewBox="0 -960 960 960" width="20"><path d="M684-96v-108H576v-72h108v-108h72v108h108v72H756v108h-72Zm-204 0q-79.38 0-149.19-30T208.5-208.5Q156-261 126-330.96t-30-149.5Q96-560 126-629.5q30-69.5 82.5-122T330.96-834q69.96-30 149.5-30t149.04 30q69.5 30 122 82.5t82.5 122Q864-560 864-480q0 11.72-.5 23.86Q863-444 861-433q-30-23-66-35t-76-12q-100 0-169.5 69.5T480-241q0 40 12.5 76T527-99q-11 2-23 2.5t-24 .5ZM168-480q0 121 80 208t197 101h1q-72-53-115-133t-43-176q0-96 43-176.5T446-790q-118 13-198 101t-80 209Z"/></svg>