<svg xmlns="http://www.w3.org/2000/svg" height="20" viewBox="0 -960 960 960" width="20"><path d="M288-240v-241l9.59-47H662l10 47v241H288Zm72-216v144h240v-144H360Zm119-242q20.4 0 34.2-13.8Q527-725.6 527-746q0-20.4-13.8-34.2Q499.4-794 479-794q-20.4 0-34.2 13.8Q431-766.4 431-746q0 20.4 13.8 34.2Q458.6-698 479-698Zm169-14v-64l-51 10q1 5 1.5 9.9t.5 10.5v11.01q0 5.41-2 11.59l51 11ZM288-481q0-58 31-104.5t82-69.5q-9.82-8-17.41-18.5T371-695l-140.65-28.13Q224-725 220-729.53t-4-10.88v-7.25q0-6.34 4.03-10.98 4.02-4.65 10.29-6.5L369-793q14-32 43.48-52.5 29.49-20.5 66.73-20.5 23.79 0 44.79 9t38 25l115-23q17.02-4 30.01 6.97Q720-837.05 720-820v152q0 16.62-12.99 27.81Q694.02-629 677-633l-118-24q-.29.33-.5.5-.21.17-.5.5 51 23 82.5 69.63Q672-539.75 672-481h-72q0-50-35.29-84.5T479-600q-49.58 0-84.29 34.5Q360-531 360-481h-72Zm72 385q-33 0-52.5-19.5T288-168v-72h72v72h240v-72h72v72q0 33-19.5 52.5T600-96H360Z"/></svg>