<svg xmlns="http://www.w3.org/2000/svg" height="20" viewBox="0 -960 960 960" width="20"><path d="M288-312v-144h384v144H288Zm191-386q20.4 0 34.2-13.8Q527-725.6 527-746q0-20.4-13.8-34.2Q499.4-794 479-794q-20.4 0-34.2 13.8Q431-766.4 431-746q0 20.4 13.8 34.2Q458.6-698 479-698ZM293-528q11-42 39.5-75.5T401-655q-10-8-17.5-18T371-694l-141.32-29.27q-6.39-.97-10.03-5.85Q216-734 216-740v-6.53q0-7.47 3.5-11.97Q223-763 230-764l139-29q14-32 43-52t67-20q24.37 0 45.18 9Q545-847 562-832l114-23q17.42-3 30.71 7.69Q720-836.63 720-820v152q0 17.23-13.5 28.12Q693-629 676-632l-118-24h-.7q-.3 0-.3 1 40 17 68.5 50.5T665-528H293Zm67 432q-33 0-52.5-19.5T288-168v-72h384v72q0 33-19.5 52.5T600-96H360Z"/></svg>