<svg xmlns="http://www.w3.org/2000/svg" height="20" viewBox="0 -960 960 960" width="20"><path d="M216-96q-29.7 0-50.85-21.15Q144-138.3 144-168v-528q0-29.7 21.15-50.85Q186.3-768 216-768h172q18.1 0 28.05 15.5T419-720q-5 17-8 35.5t-3 36.5q0 100 70.23 170 70.24 70 169.77 70 19.94 0 38.45-3t36.55-9l72 72q11 10 16 23.5t5 27.5v129q0 29.7-21.15 50.85Q773.7-96 744-96H216Zm619.79-314.1L738-507q-20 13-42.55 20-22.55 7-47.92 7Q578-480 529-529t-49-119q0-70 49-119t119-49q70 0 119 48.95t49 118.88q0 25.17-7 47.67T789-558l98 98q11 11 11 25t-11 25q-11 11-25.5 11t-25.71-11.1ZM647.77-552Q688-552 716-579.77q28-27.78 28-68Q744-688 716.23-716q-27.78-28-68-28Q608-744 580-716.23q-28 27.78-28 68Q552-608 579.77-580q27.78 28 68 28ZM444-288l-50-67q-8.31-11-22.15-11-13.85 0-21.84 10.78l-63.91 86.24Q279-260 284.25-250T300-240h360.19Q671-240 676-250t-2-19L557-426q-2-1-3.69-1.6-1.69-.6-3.31-1.4L444-288Z"/></svg>