<svg xmlns="http://www.w3.org/2000/svg" height="20" viewBox="0 -960 960 960" width="20"><path d="M180-312q-15.3 0-25.65-10.4Q144-332.81 144-348.19V-369q0-8 3-14.5t8-11.5l85-85v-264h-12q-15.3 0-25.65-10.29Q192-764.58 192-779.79t10.35-25.71Q212.7-816 228-816h143q21.4 0 30.7 19t-3.7 37q-19 30-28.5 65.5T360-624q0 94 60.5 168T574-365q11 2.43 18.5 9.71Q600-348 600-337t-7.28 18q-7.28 7-18.72 7H420v222q0 15.3-10.29 25.65Q399.42-54 384.21-54T358.5-64.35Q348-74.7 348-90v-222H180Zm444-504q80 3 136 58t56 134.48q0 79.48-56.23 135.5-56.22 56.02-136 56.02Q544-432 488-488.16 432-544.32 432-624q0-80.92 56-137.96Q544-819 624-816Zm0 192q25 0 42.5-17.5T684-684q0-25-17.5-42.5T624-744q-25 0-42.5 17.5T564-684q0 25 17.5 42.5T624-624Zm0 120q26 0 50.5-11.5T716-547q5-5 3-12.5t-9-10.5q-19.95-9-41.47-13.5Q647-588 624.21-588q-22.8 0-44.5 4.5Q558-579 538-570q-7 3-9 10.5t3 12.5q17 20 41.5 31.5T624-504Z"/></svg>