<svg xmlns="http://www.w3.org/2000/svg" height="20" viewBox="0 -960 960 960" width="20"><path d="M480-119q-13 0-24.5-4.5T433-137q-40-35-86.5-82T260-320q-40-54-66-112.5T168-549q0-32 5.5-62t16.5-57l-75-75q-11-11-11-25.5t11-25.5q11-11 25.5-11t25.5 11l629 629q11 11 11 25.5T795-114q-11 11-25.5 11T744-114L626-232q-24 26-50 50.5T527-137q-11 9-22.5 13.5T480-119Zm0-745q133 0 222.5 90.5T792-549q0 37-11 75.5T747-393q-11 19-32.5 22T677-384L544-518q4-8 6-16.5t2-17.5q0-15-5.5-28T531-603q-10-10-23-15.5t-28-5.5q-9 0-17.5 2t-16.5 6L314-748q-16-16-14.5-38.5T320-821q35-20 75-31.5t85-11.5Z"/></svg>