<svg xmlns="http://www.w3.org/2000/svg" height="20" viewBox="0 -960 960 960" width="20"><path d="M576-533q14 0 24.5-10t10.5-25v-9l8 5q11 8 25.5 4.5T667-585q7-11 3-25t-16-23l-7-5 8-5q12-8 15.5-21.5T667-691q-8-13-22-17t-26 4l-8 5v-10q0-14-10.5-24.5T576-744q-15 0-25 10.5T541-709v10l-8-5q-13-8-26.5-4T485-692q-8 13-4.5 27t16.5 22l8 5-8 4q-14 7-17.5 21t4.5 27q8 14 22 17.5t26-4.5l8-5v10q0 15 10.5 25t25.5 10Zm0-70q-15 0-25-10t-10-25q0-14 10-24.5t25-10.5q14 0 24.5 10.5T611-638q0 15-10.5 25T576-603Zm1 195q27 0 51-10t43-28q14-14 24.5-32t15.5-39q2-9-4-16t-15-5q-21 3-39.5 13T619-501q-19 18-29.5 41.5T577-408Zm-2 0q-2-28-13.5-52T531-502q-15-14-33.5-23T458-538q-9-2-15.5 5t-4.5 16q5 21 15.5 39t25.5 32q19 18 43.5 28t52.5 10ZM235-96q-29 4-53-14.5T154-158L96-587q-4-30 14-53.5t48-27.5l58-7v315q0 60 43 102t103 42h362q-3 24-20.5 41.5T663-154L235-96Zm125-192q-33 0-52.5-19.5T288-360v-432q0-33 19.5-52.5T360-864h432q33 0 52.5 19.5T864-792v432q0 33-19.5 52.5T792-288H360Z"/></svg>