<svg xmlns="http://www.w3.org/2000/svg" height="20" viewBox="0 -960 960 960" width="20"><path d="M273-352q-18 13-37.5 3T216-381v-198q0-22 19.5-32t37.5 3l141 99q15 11 15 29t-15 29l-141 99Zm291.21 40q-15.21 0-25.71-10.35T528-348v-264q0-15.3 10.29-25.65Q548.58-648 563.79-648t25.71 10.35Q600-627.3 600-612v264q0 15.3-10.29 25.65Q579.42-312 564.21-312Zm144 0q-15.21 0-25.71-10.35T672-348v-264q0-15.3 10.29-25.65Q692.58-648 707.79-648t25.71 10.35Q744-627.3 744-612v264q0 15.3-10.29 25.65Q723.42-312 708.21-312Z"/></svg>