<svg xmlns="http://www.w3.org/2000/svg" height="20" viewBox="0 -960 960 960" width="20"><path d="M743-116 642-216h72q0 29.7-21.15 50.85Q671.7-144 642-144H312q-29.7 0-50.85-21.12Q240-186.23 240-215.88v-71.89h-72q-29.7 0-50.85-21.11Q96-330 96-360v-168q0-40 28-68t68-28h42L115-743q-11-10.67-11-25.33Q104-783 115-794q11-11 25.67-11 14.66 0 25.33 11l627.92 627.92Q805-155 805-140.82q0 14.18-11 24.82-10.67 11-25.33 11Q754-105 743-116ZM312-216h330L498-360H312v144Zm126-408h330q40 0 68 28t28 68v191q0 22.88-17 36.44Q830-287 807-287q-14.24 0-29.12-6T750-312L438-624Zm-48-48-82.88-82.88Q290-772 299.41-794q9.4-22 33.59-22h315q29.7 0 50.85 21.1Q720-773.8 720-744.18v35.92q0 15.26-10.35 25.76Q699.3-672 684-672H390Zm317.79 216q15.21 0 25.71-10.29t10.5-25.5q0-15.21-10.29-25.71t-25.5-10.5q-15.21 0-25.71 10.29t-10.5 25.5q0 15.21 10.29 25.71t25.5 10.5Z"/></svg>