<svg xmlns="http://www.w3.org/2000/svg" height="20" viewBox="0 -960 960 960" width="20"><path d="M552-240h-60q-15.3 0-25.65 10.29Q456-219.42 456-204.21t10.35 25.71Q476.7-168 492-168h96q15.3 0 25.65-10.35Q624-188.7 624-204v-96q0-15.3-10.29-25.65Q603.42-336 588.21-336t-25.71 10.35Q552-315.3 552-300v60ZM288-48q-29.7 0-50.85-21.15Q216-90.3 216-120v-720q0-33 19.5-52.5T288-912h384q29.7 0 50.85 21.15Q744-869.7 744-840v144q20 0 34 14t14 34v96q0 20-14 34t-34 14v384q0 29.7-21.15 50.85Q701.7-48 672-48H288Zm0-72h384v-720H288v720Zm0 0v-720 720Zm120-600h60q15.3 0 25.65-10.29Q504-740.58 504-755.79t-10.35-25.71Q483.3-792 468-792h-96q-15.3 0-25.65 10.35Q336-771.3 336-756v96q0 15.3 10.29 25.65Q356.58-624 371.79-624t25.71-10.35Q408-644.7 408-660v-60Z"/></svg>