<svg xmlns="http://www.w3.org/2000/svg" height="20" viewBox="0 -960 960 960" width="20"><path d="M321-48q-11.9 0-18.45-10Q296-68 301-79l27-65h-63.75q-5.25 0-7.75-3.69T256-156l38-114q2.68-8.1 9.38-13.05Q310.07-288 319-288h62q10.04 0 15.52 8t1.48 17l-30 71h58q5 0 7.5 4.5t-.5 9.5L343-57q-3 5-8.5 7T321-48Zm268-48q-8.89 0-13.94-7.36Q570-110.72 573-119l20-49h-53q-5 0-8-3.69t-1-8.31l27-89q2-8 9.5-13.5T584-288h61q9.63 0 15.31 8 5.69 8 1.58 17.03L643-216h45q6 0 8 5.16 2 5.15-2 9.84l-89 100q-2 3-16 5ZM295-336q-85 0-142-61.27Q96-458.55 96-545q0-77 52.41-132.57Q200.82-733.14 278-743q30-56 84.5-88.5T479.57-864q85.33 0 148.38 54.5T705-672q67 2 113 52t46 116.19q0 69.92-49 118.87Q766-336 696-336H295Z"/></svg>