<svg xmlns="http://www.w3.org/2000/svg" height="20" viewBox="0 -960 960 960" width="20"><path d="M768-96 613-252l-37 151H384l-46-192q-45-33-71.5-83T240-486q0-30 7-58t20-53L90-775l51-51 678 679-51 51ZM480-318q15 0 29-2.5t27-7.5L322-542q-5 13-7.5 27t-2.5 29q0 70 49 119t119 49Zm213-58-55-55q5-13 7.5-26.5T648-486q0-70-49-119t-119-49q-15 0-29 2.5t-27 7.5l-76-76 36-151h192l46 192q45 33 71.5 83T720-486q0 30-7 57.5T693-376ZM441-792h78-78Zm0 624h78-78Zm-20-544q14-4 29-6t30-2q15 0 29.5 2t28.5 6l-19-80h-78l-20 80Zm20 544h78l21-80q-14 4-29 6t-31 2q-16 0-30.5-2t-28.5-6l20 80Z"/></svg>